<svg width="636" height="316" viewBox="0 0 636 316" fill="none" xmlns="http://www.w3.org/2000/svg">
<path fill-rule="evenodd" clip-rule="evenodd" d="M476.313 315.369L476.109 315.165V0.205368L476.313 0.00146484H477.534L635.218 157.685L477.534 315.369H476.313Z" fill="#F6F5FF"/>
<mask id="path-2-inside-1_995_45081" fill="white">
<path fill-rule="evenodd" clip-rule="evenodd" d="M158.704 315.369L158.5 315.165V0.20488L158.704 0.000976562H159.925L317.609 157.685L159.925 315.369H158.704Z"/>
</mask>
<path fill-rule="evenodd" clip-rule="evenodd" d="M158.704 315.369L158.5 315.165V0.20488L158.704 0.000976562H159.925L317.609 157.685L159.925 315.369H158.704Z" fill="#DAD7FF"/>
<path d="M158.704 315.369L157.997 316.076L158.29 316.369H158.704V315.369ZM158.5 315.165H157.5V315.579L157.793 315.872L158.5 315.165ZM158.5 0.20488L157.793 -0.502227L157.5 -0.209334V0.20488H158.5ZM158.704 0.000976562V-0.999023H158.29L157.997 -0.70613L158.704 0.000976562ZM159.925 0.000976562L160.632 -0.70613L160.339 -0.999023H159.925V0.000976562ZM317.609 157.685L318.316 158.392L319.023 157.685L318.316 156.978L317.609 157.685ZM159.925 315.369V316.369H160.339L160.632 316.076L159.925 315.369ZM159.411 314.662L159.207 314.458L157.793 315.872L157.997 316.076L159.411 314.662ZM159.5 315.165V0.20488H157.5V315.165H159.5ZM159.207 0.911987L159.411 0.708083L157.997 -0.70613L157.793 -0.502227L159.207 0.911987ZM158.704 1.00098H159.925V-0.999023H158.704V1.00098ZM159.218 0.708083L316.902 158.392L318.316 156.978L160.632 -0.70613L159.218 0.708083ZM316.902 156.978L159.218 314.662L160.632 316.076L318.316 158.392L316.902 156.978ZM159.925 314.369H158.704V316.369H159.925V314.369Z" fill="#F6F5FF" mask="url(#path-2-inside-1_995_45081)"/>
<path fill-rule="evenodd" clip-rule="evenodd" d="M476.507 -1.78288e-08L476.711 0.203949L476.711 315.164L476.507 315.368L475.286 315.368L317.602 157.684L475.286 -1.24573e-07L476.507 -1.78288e-08Z" fill="#F6F5FF"/>
<path fill-rule="evenodd" clip-rule="evenodd" d="M158.905 0.000976545L159.109 0.204926L159.109 315.165L158.905 315.369L157.684 315.369L0.00057836 157.685L157.684 0.000976438L158.905 0.000976545Z" fill="#F6F5FF"/>
<path d="M56.0366 162V149.384H63.4623V150.411H57.1361V155.061H62.9937V156.07H57.1361V160.973H63.6605V162H56.0366ZM65.5103 162L69.1871 157.224L65.7446 152.682H66.9882L68.8807 155.151L69.872 156.485L70.8632 155.151L72.7557 152.682H74.0173L70.5749 157.224L74.2516 162H72.972L70.9353 159.351L69.89 157.963L68.8266 159.351L66.79 162H65.5103ZM81.8112 162.234C80.0989 162.234 78.7111 161.459 77.8821 160.234V165.605H76.8367V152.682H77.7199L77.828 154.538C78.639 153.241 80.0629 152.448 81.8112 152.448C84.6408 152.448 86.5873 154.502 86.5873 157.332C86.5873 160.162 84.6408 162.234 81.8112 162.234ZM77.846 157.332C77.846 159.621 79.414 161.225 81.703 161.225C83.992 161.225 85.542 159.621 85.542 157.332C85.542 155.061 83.992 153.457 81.703 153.457C79.414 153.457 77.846 155.061 77.846 157.332ZM89.4918 162V148.663H90.5371V162H89.4918ZM98.3353 162.234C95.4516 162.234 93.433 160.216 93.433 157.332C93.433 154.466 95.4516 152.448 98.3353 152.448C101.201 152.448 103.22 154.466 103.22 157.332C103.22 160.216 101.201 162.234 98.3353 162.234ZM94.4783 157.332C94.4783 159.639 96.0464 161.225 98.3353 161.225C100.606 161.225 102.174 159.639 102.174 157.332C102.174 155.043 100.606 153.457 98.3353 153.457C96.0464 153.457 94.4783 155.043 94.4783 157.332ZM106.125 162V152.682H107.008L107.116 154.773C107.747 153.367 108.81 152.682 110.54 152.682H111.315V153.655H110.504C108.504 153.655 107.17 154.881 107.17 157.71V162H106.125ZM117.165 162.234C114.335 162.234 112.407 160.234 112.407 157.332C112.407 154.448 114.353 152.448 117.183 152.448C120.121 152.448 122.013 154.61 121.941 157.765H113.47C113.65 159.873 115.092 161.243 117.165 161.243C118.679 161.243 119.886 160.54 120.499 159.333L121.671 159.351C120.95 161.135 119.256 162.234 117.165 162.234ZM113.47 156.845H120.914C120.661 154.737 119.22 153.439 117.183 153.439C115.11 153.439 113.65 154.791 113.47 156.845ZM124.799 162V152.682H125.682L125.791 154.773C126.421 153.367 127.485 152.682 129.215 152.682H129.99V153.655H129.179C127.178 153.655 125.845 154.881 125.845 157.71V162H124.799Z" fill="black"/>
<path d="M355.037 162V149.384H359.02C363.039 149.384 365.58 151.889 365.58 155.692C365.58 159.495 363.039 162 359.02 162H355.037ZM356.136 160.955H359.02C362.372 160.955 364.463 158.9 364.463 155.692C364.463 152.484 362.354 150.429 358.984 150.429H356.136V160.955ZM372.409 162.234C369.579 162.234 367.651 160.234 367.651 157.332C367.651 154.448 369.597 152.448 372.427 152.448C375.365 152.448 377.257 154.61 377.185 157.765H368.714C368.894 159.873 370.336 161.243 372.409 161.243C373.923 161.243 375.131 160.54 375.743 159.333L376.915 159.351C376.194 161.135 374.5 162.234 372.409 162.234ZM368.714 156.845H376.158C375.906 154.737 374.464 153.439 372.427 153.439C370.354 153.439 368.894 154.791 368.714 156.845ZM371.742 151.132L372.733 148.41H373.869L372.733 151.132H371.742ZM382.359 162L378.195 152.682H379.331L380.953 156.287L382.881 160.63L384.792 156.287L386.432 152.682H387.549L383.386 162H382.359ZM393.372 162.234C390.542 162.234 388.614 160.234 388.614 157.332C388.614 154.448 390.56 152.448 393.39 152.448C396.328 152.448 398.22 154.61 398.148 157.765H389.677C389.857 159.873 391.299 161.243 393.372 161.243C394.886 161.243 396.093 160.54 396.706 159.333L397.878 159.351C397.157 161.135 395.462 162.234 393.372 162.234ZM389.677 156.845H397.121C396.868 154.737 395.426 153.439 393.39 153.439C391.317 153.439 389.857 154.791 389.677 156.845ZM401.006 162V148.663H402.051V162H401.006ZM409.85 162.234C406.966 162.234 404.947 160.216 404.947 157.332C404.947 154.466 406.966 152.448 409.85 152.448C412.715 152.448 414.734 154.466 414.734 157.332C414.734 160.216 412.715 162.234 409.85 162.234ZM405.993 157.332C405.993 159.639 407.561 161.225 409.85 161.225C412.121 161.225 413.689 159.639 413.689 157.332C413.689 155.043 412.121 153.457 409.85 153.457C407.561 153.457 405.993 155.043 405.993 157.332ZM422.613 162.234C420.901 162.234 419.513 161.459 418.684 160.234V165.605H417.639V152.682H418.522L418.63 154.538C419.441 153.241 420.865 152.448 422.613 152.448C425.443 152.448 427.39 154.502 427.39 157.332C427.39 160.162 425.443 162.234 422.613 162.234ZM418.648 157.332C418.648 159.621 420.216 161.225 422.505 161.225C424.794 161.225 426.344 159.621 426.344 157.332C426.344 155.061 424.794 153.457 422.505 153.457C420.216 153.457 418.648 155.061 418.648 157.332ZM435.268 162.234C433.556 162.234 432.168 161.459 431.339 160.234V165.605H430.294V152.682H431.177L431.285 154.538C432.096 153.241 433.52 152.448 435.268 152.448C438.098 152.448 440.045 154.502 440.045 157.332C440.045 160.162 438.098 162.234 435.268 162.234ZM431.303 157.332C431.303 159.621 432.871 161.225 435.16 161.225C437.449 161.225 438.999 159.621 438.999 157.332C438.999 155.061 437.449 153.457 435.16 153.457C432.871 153.457 431.303 155.061 431.303 157.332ZM446.896 162.234C444.066 162.234 442.138 160.234 442.138 157.332C442.138 154.448 444.085 152.448 446.914 152.448C449.852 152.448 451.744 154.61 451.672 157.765H443.201C443.382 159.873 444.823 161.243 446.896 161.243C448.41 161.243 449.618 160.54 450.23 159.333L451.402 159.351C450.681 161.135 448.987 162.234 446.896 162.234ZM443.201 156.845H450.645C450.393 154.737 448.951 153.439 446.914 153.439C444.842 153.439 443.382 154.791 443.201 156.845ZM454.53 162V152.682H455.414L455.522 154.773C456.153 153.367 457.216 152.682 458.946 152.682H459.721V153.655H458.91C456.91 153.655 455.576 154.881 455.576 157.71V162H454.53Z" fill="black"/>
<path d="M185.037 162V149.384H189.02C193.039 149.384 195.58 151.889 195.58 155.692C195.58 159.495 193.039 162 189.02 162H185.037ZM186.136 160.955H189.02C192.372 160.955 194.463 158.9 194.463 155.692C194.463 152.484 192.354 150.429 188.984 150.429H186.136V160.955ZM202.409 162.234C199.579 162.234 197.651 160.234 197.651 157.332C197.651 154.448 199.597 152.448 202.427 152.448C205.365 152.448 207.257 154.61 207.185 157.765H198.714C198.894 159.873 200.336 161.243 202.409 161.243C203.923 161.243 205.131 160.54 205.743 159.333L206.915 159.351C206.194 161.135 204.5 162.234 202.409 162.234ZM198.714 156.845H206.158C205.906 154.737 204.464 153.439 202.427 153.439C200.354 153.439 198.894 154.791 198.714 156.845ZM201.742 151.132L202.733 148.41H203.869L202.733 151.132H201.742ZM217.619 162V153.637H211.743V162H210.698V153.637H208.571V152.682H210.698V151.601C210.698 149.492 211.761 148.428 213.87 148.428H215.222V149.42H213.96C212.41 149.42 211.743 150.087 211.743 151.673V152.682H218.664V162H217.619ZM217.168 150.032C217.168 149.51 217.565 149.095 218.142 149.095C218.7 149.095 219.097 149.51 219.097 150.032C219.097 150.573 218.7 150.988 218.142 150.988C217.565 150.988 217.168 150.573 217.168 150.032ZM222.382 162V152.682H223.265L223.355 154.484C224.094 153.151 225.391 152.448 226.887 152.448C229.321 152.448 230.817 154.16 230.817 156.845V162H229.771V156.935C229.771 154.791 228.618 153.457 226.761 153.457C224.797 153.457 223.427 154.953 223.427 157.17V162H222.382ZM234.333 162V152.682H235.378V162H234.333ZM233.9 150.032C233.9 149.51 234.279 149.095 234.855 149.095C235.432 149.095 235.811 149.51 235.811 150.032C235.811 150.573 235.432 150.988 234.855 150.988C234.279 150.988 233.9 150.573 233.9 150.032ZM239.085 162V152.682H239.968L240.076 154.773C240.707 153.367 241.77 152.682 243.501 152.682H244.276V153.655H243.465C241.464 153.655 240.13 154.881 240.13 157.71V162H239.085Z" fill="black"/>
<path d="M519.037 162.482V149.866H520.136V161.437H526.534V162.482H519.037ZM529.012 162.482V153.164H530.057V162.482H529.012ZM528.58 150.515C528.58 149.992 528.958 149.578 529.535 149.578C530.112 149.578 530.49 149.992 530.49 150.515C530.49 151.056 530.112 151.47 529.535 151.47C528.958 151.47 528.58 151.056 528.58 150.515ZM536.432 162.482L532.268 153.164H533.404L535.026 156.769L536.955 161.113L538.865 156.769L540.505 153.164H541.623L537.459 162.482H536.432ZM543.85 162.482V153.164H544.733L544.841 155.255C545.472 153.849 546.535 153.164 548.265 153.164H549.04V154.138H548.229C546.229 154.138 544.895 155.363 544.895 158.193V162.482H543.85ZM554.89 162.717C552.06 162.717 550.132 160.716 550.132 157.814C550.132 154.931 552.078 152.93 554.908 152.93C557.846 152.93 559.738 155.093 559.666 158.247H551.195C551.375 160.356 552.817 161.725 554.89 161.725C556.404 161.725 557.612 161.023 558.224 159.815L559.396 159.833C558.675 161.617 556.981 162.717 554.89 162.717ZM551.195 157.328H558.639C558.387 155.219 556.945 153.921 554.908 153.921C552.835 153.921 551.375 155.273 551.195 157.328ZM562.524 162.482V153.164H563.407L563.516 155.255C564.146 153.849 565.21 153.164 566.94 153.164H567.715V154.138H566.904C564.903 154.138 563.57 155.363 563.57 158.193V162.482H562.524Z" fill="black"/>
<line x1="158.5" y1="2.18552e-08" x2="158.5" y2="315" stroke="black"/>
<line x1="476.5" y1="2.18552e-08" x2="476.5" y2="315" stroke="black"/>
</svg>
