<svg width="636" height="316" viewBox="0 0 636 316" fill="none" xmlns="http://www.w3.org/2000/svg">
<path fill-rule="evenodd" clip-rule="evenodd" d="M476.313 315.369L476.109 315.165V0.205368L476.313 0.00146484H477.534L635.218 157.685L477.534 315.369H476.313Z" fill="#F6F5FF"/>
<mask id="path-2-inside-1_995_45038" fill="white">
<path fill-rule="evenodd" clip-rule="evenodd" d="M158.704 315.369L158.5 315.165V0.20488L158.704 0.000976562H159.925L317.609 157.685L159.925 315.369H158.704Z"/>
</mask>
<path fill-rule="evenodd" clip-rule="evenodd" d="M158.704 315.369L158.5 315.165V0.20488L158.704 0.000976562H159.925L317.609 157.685L159.925 315.369H158.704Z" fill="#DAD7FF"/>
<path d="M158.704 315.369L157.997 316.076L158.29 316.369H158.704V315.369ZM158.5 315.165H157.5V315.579L157.793 315.872L158.5 315.165ZM158.5 0.20488L157.793 -0.502227L157.5 -0.209334V0.20488H158.5ZM158.704 0.000976562V-0.999023H158.29L157.997 -0.70613L158.704 0.000976562ZM159.925 0.000976562L160.632 -0.70613L160.339 -0.999023H159.925V0.000976562ZM317.609 157.685L318.316 158.392L319.023 157.685L318.316 156.978L317.609 157.685ZM159.925 315.369V316.369H160.339L160.632 316.076L159.925 315.369ZM159.411 314.662L159.207 314.458L157.793 315.872L157.997 316.076L159.411 314.662ZM159.5 315.165V0.20488H157.5V315.165H159.5ZM159.207 0.911987L159.411 0.708083L157.997 -0.70613L157.793 -0.502227L159.207 0.911987ZM158.704 1.00098H159.925V-0.999023H158.704V1.00098ZM159.218 0.708083L316.902 158.392L318.316 156.978L160.632 -0.70613L159.218 0.708083ZM316.902 156.978L159.218 314.662L160.632 316.076L318.316 158.392L316.902 156.978ZM159.925 314.369H158.704V316.369H159.925V314.369Z" fill="#F6F5FF" mask="url(#path-2-inside-1_995_45038)"/>
<path fill-rule="evenodd" clip-rule="evenodd" d="M476.507 -1.78297e-08L476.711 0.203949L476.711 315.164L476.507 315.368L475.286 315.368L317.602 157.684L475.286 -1.24573e-07L476.507 -1.78297e-08Z" fill="#F6F5FF"/>
<path fill-rule="evenodd" clip-rule="evenodd" d="M158.905 0.000976545L159.109 0.204926L159.109 315.165L158.905 315.369L157.684 315.369L0.00057836 157.685L157.684 0.000976438L158.905 0.000976545Z" fill="#F6F5FF"/>
<path d="M56.0366 162V149.384H63.4623V150.411H57.1361V155.061H62.9937V156.07H57.1361V160.973H63.6605V162H56.0366ZM69.8011 162.234C67.4401 162.234 65.9441 161.045 65.872 159.188H66.8994C67.0075 160.504 68.0348 161.279 69.8192 161.279C71.4593 161.279 72.4506 160.648 72.4506 159.621C72.4506 158.648 71.5674 158.053 69.5848 157.71C67.1517 157.296 66.0523 156.431 66.0523 155.007C66.0523 153.421 67.404 152.448 69.5848 152.448C71.7837 152.448 73.1715 153.493 73.3157 155.277H72.2703C72.1622 154.052 71.2069 153.385 69.5848 153.385C68.0348 153.385 67.0976 154.016 67.0976 155.025C67.0976 155.944 67.8726 156.449 69.9453 156.845C72.3064 157.296 73.4779 158.233 73.4779 159.639C73.4779 161.207 72.054 162.234 69.8011 162.234ZM81.4767 162.234C79.7645 162.234 78.3767 161.459 77.5476 160.234V165.605H76.5023V152.682H77.3854L77.4936 154.538C78.3046 153.241 79.7285 152.448 81.4767 152.448C84.3064 152.448 86.2529 154.502 86.2529 157.332C86.2529 160.162 84.3064 162.234 81.4767 162.234ZM77.5116 157.332C77.5116 159.621 79.0796 161.225 81.3686 161.225C83.6576 161.225 85.2076 159.621 85.2076 157.332C85.2076 155.061 83.6576 153.457 81.3686 153.457C79.0796 153.457 77.5116 155.061 77.5116 157.332ZM89.1574 162V148.663H90.2027V162H89.1574ZM98.0009 162.234C95.1172 162.234 93.0986 160.216 93.0986 157.332C93.0986 154.466 95.1172 152.448 98.0009 152.448C100.867 152.448 102.885 154.466 102.885 157.332C102.885 160.216 100.867 162.234 98.0009 162.234ZM94.1439 157.332C94.1439 159.639 95.7119 161.225 98.0009 161.225C100.272 161.225 101.84 159.639 101.84 157.332C101.84 155.043 100.272 153.457 98.0009 153.457C95.7119 153.457 94.1439 155.043 94.1439 157.332ZM105.79 162V152.682H106.673L106.782 154.773C107.412 153.367 108.476 152.682 110.206 152.682H110.981V153.655H110.17C108.169 153.655 106.836 154.881 106.836 157.71V162H105.79ZM115.768 162.144C113.605 162.144 112.253 161.081 112.253 159.369C112.253 157.71 113.515 156.665 115.426 156.665H119.535V155.998C119.535 154.448 118.399 153.421 116.669 153.421C115.263 153.421 114.164 154.142 113.785 155.259H112.722C113.173 153.529 114.669 152.448 116.651 152.448C118.976 152.448 120.58 153.871 120.58 155.944V162H119.715L119.607 160.396C118.796 161.513 117.426 162.144 115.768 162.144ZM113.299 159.351C113.299 160.486 114.254 161.207 115.804 161.207C117.967 161.207 119.553 159.855 119.553 157.981V157.584H115.462C114.182 157.584 113.299 158.287 113.299 159.351Z" fill="black"/>
<path d="M374.092 162.234C371.208 162.234 369.352 160.684 369.262 158.251H370.343C370.451 160.108 371.911 161.189 374.092 161.189C376.165 161.189 377.444 160.27 377.444 158.81C377.444 157.494 376.417 156.719 373.876 156.16C370.776 155.44 369.46 154.394 369.46 152.502C369.46 150.483 371.1 149.149 373.785 149.149C376.561 149.149 378.255 150.555 378.345 152.988H377.264C377.174 151.204 375.894 150.195 373.785 150.195C371.749 150.195 370.559 151.114 370.559 152.502C370.559 153.763 371.497 154.538 374.146 155.133C377.336 155.872 378.562 156.99 378.562 158.792C378.562 160.901 376.831 162.234 374.092 162.234ZM383.947 162L379.783 152.682H380.919L382.541 156.287L384.47 160.63L386.38 156.287L388.02 152.682H389.138L384.974 162H383.947ZM391.365 162V152.682H392.41V162H391.365ZM390.932 150.032C390.932 149.51 391.311 149.095 391.887 149.095C392.464 149.095 392.843 149.51 392.843 150.032C392.843 150.573 392.464 150.988 391.887 150.988C391.311 150.988 390.932 150.573 390.932 150.032ZM396.117 162V148.663H397.162V162H396.117ZM404.546 162.234C402.149 162.234 400.671 160.522 400.671 157.837V152.682H401.716V157.746C401.716 159.873 402.852 161.225 404.69 161.225C406.619 161.225 407.952 159.711 407.952 157.494V152.682H408.998V162H408.133L408.025 160.18C407.304 161.531 406.006 162.234 404.546 162.234ZM417.689 162.234C415.977 162.234 414.589 161.459 413.76 160.234V165.605H412.715V152.682H413.598L413.706 154.538C414.517 153.241 415.941 152.448 417.689 152.448C420.519 152.448 422.465 154.502 422.465 157.332C422.465 160.162 420.519 162.234 417.689 162.234ZM413.724 157.332C413.724 159.621 415.292 161.225 417.581 161.225C419.87 161.225 421.42 159.621 421.42 157.332C421.42 155.061 419.87 153.457 417.581 153.457C415.292 153.457 413.724 155.061 413.724 157.332ZM430.344 162.234C428.632 162.234 427.244 161.459 426.415 160.234V165.605H425.37V152.682H426.253L426.361 154.538C427.172 153.241 428.596 152.448 430.344 152.448C433.174 152.448 435.12 154.502 435.12 157.332C435.12 160.162 433.174 162.234 430.344 162.234ZM426.379 157.332C426.379 159.621 427.947 161.225 430.236 161.225C432.525 161.225 434.075 159.621 434.075 157.332C434.075 155.061 432.525 153.457 430.236 153.457C427.947 153.457 426.379 155.061 426.379 157.332ZM440.821 162.144C438.659 162.144 437.307 161.081 437.307 159.369C437.307 157.71 438.568 156.665 440.479 156.665H444.588V155.998C444.588 154.448 443.453 153.421 441.723 153.421C440.317 153.421 439.217 154.142 438.839 155.259H437.775C438.226 153.529 439.722 152.448 441.705 152.448C444.03 152.448 445.634 153.871 445.634 155.944V162H444.768L444.66 160.396C443.849 161.513 442.48 162.144 440.821 162.144ZM438.352 159.351C438.352 160.486 439.307 161.207 440.857 161.207C443.02 161.207 444.606 159.855 444.606 157.981V157.584H440.515C439.235 157.584 438.352 158.287 438.352 159.351ZM449.149 162V152.682H450.032L450.14 154.773C450.771 153.367 451.834 152.682 453.564 152.682H454.339V153.655H453.528C451.528 153.655 450.194 154.881 450.194 157.71V162H449.149ZM460.189 162.234C457.359 162.234 455.431 160.234 455.431 157.332C455.431 154.448 457.377 152.448 460.207 152.448C463.145 152.448 465.037 154.61 464.965 157.765H456.494C456.674 159.873 458.116 161.243 460.189 161.243C461.703 161.243 462.91 160.54 463.523 159.333L464.695 159.351C463.974 161.135 462.28 162.234 460.189 162.234ZM456.494 156.845H463.938C463.685 154.737 462.244 153.439 460.207 153.439C458.134 153.439 456.674 154.791 456.494 156.845Z" fill="black"/>
<path d="M185.037 162V149.384H189.02C193.039 149.384 195.58 151.889 195.58 155.692C195.58 159.495 193.039 162 189.02 162H185.037ZM186.136 160.955H189.02C192.372 160.955 194.463 158.9 194.463 155.692C194.463 152.484 192.354 150.429 188.984 150.429H186.136V160.955ZM202.409 162.234C199.579 162.234 197.651 160.234 197.651 157.332C197.651 154.448 199.597 152.448 202.427 152.448C205.365 152.448 207.257 154.61 207.185 157.765H198.714C198.894 159.873 200.336 161.243 202.409 161.243C203.923 161.243 205.131 160.54 205.743 159.333L206.915 159.351C206.194 161.135 204.5 162.234 202.409 162.234ZM198.714 156.845H206.158C205.906 154.737 204.464 153.439 202.427 153.439C200.354 153.439 198.894 154.791 198.714 156.845ZM217.619 162V153.637H211.743V162H210.698V153.637H208.571V152.682H210.698V151.601C210.698 149.492 211.761 148.428 213.87 148.428H215.222V149.42H213.96C212.41 149.42 211.743 150.087 211.743 151.673V152.682H218.664V162H217.619ZM217.168 150.032C217.168 149.51 217.565 149.095 218.142 149.095C218.7 149.095 219.097 149.51 219.097 150.032C219.097 150.573 218.7 150.988 218.142 150.988C217.565 150.988 217.168 150.573 217.168 150.032ZM222.382 162V152.682H223.265L223.355 154.484C224.094 153.151 225.391 152.448 226.887 152.448C229.321 152.448 230.817 154.16 230.817 156.845V162H229.771V156.935C229.771 154.791 228.618 153.457 226.761 153.457C224.797 153.457 223.427 154.953 223.427 157.17V162H222.382ZM234.333 162V152.682H235.378V162H234.333ZM233.9 150.032C233.9 149.51 234.279 149.095 234.855 149.095C235.432 149.095 235.811 149.51 235.811 150.032C235.811 150.573 235.432 150.988 234.855 150.988C234.279 150.988 233.9 150.573 233.9 150.032ZM242.293 162.234C239.932 162.234 238.436 161.045 238.364 159.188H239.391C239.499 160.504 240.527 161.279 242.311 161.279C243.951 161.279 244.942 160.648 244.942 159.621C244.942 158.648 244.059 158.053 242.077 157.71C239.644 157.296 238.544 156.431 238.544 155.007C238.544 153.421 239.896 152.448 242.077 152.448C244.276 152.448 245.663 153.493 245.808 155.277H244.762C244.654 154.052 243.699 153.385 242.077 153.385C240.527 153.385 239.59 154.016 239.59 155.025C239.59 155.944 240.365 156.449 242.437 156.845C244.798 157.296 245.97 158.233 245.97 159.639C245.97 161.207 244.546 162.234 242.293 162.234ZM252.941 162.234C250.148 162.234 248.183 160.198 248.183 157.332C248.183 154.466 250.148 152.448 252.941 152.448C255.158 152.448 256.979 153.763 257.519 155.782H256.456C255.843 154.304 254.545 153.457 252.941 153.457C250.742 153.457 249.228 155.043 249.228 157.332C249.228 159.639 250.742 161.225 252.941 161.225C254.654 161.225 255.987 160.27 256.51 158.738H257.609C256.979 160.919 255.23 162.234 252.941 162.234ZM260.452 162V152.682H261.498V162H260.452ZM260.02 150.032C260.02 149.51 260.398 149.095 260.975 149.095C261.552 149.095 261.93 149.51 261.93 150.032C261.93 150.573 261.552 150.988 260.975 150.988C260.398 150.988 260.02 150.573 260.02 150.032Z" fill="black"/>
<path d="M498.552 162.717C494.839 162.717 492.153 160.013 492.153 156.174C492.153 152.335 494.839 149.632 498.552 149.632C501.436 149.632 503.797 151.308 504.626 153.957H503.472C502.751 151.957 500.877 150.731 498.57 150.731C495.488 150.731 493.271 152.948 493.271 156.174C493.271 159.4 495.488 161.617 498.57 161.617C500.931 161.617 502.877 160.338 503.58 158.247H504.734C503.959 160.968 501.526 162.717 498.552 162.717ZM511.644 162.717C508.761 162.717 506.742 160.698 506.742 157.814C506.742 154.949 508.761 152.93 511.644 152.93C514.51 152.93 516.529 154.949 516.529 157.814C516.529 160.698 514.51 162.717 511.644 162.717ZM507.787 157.814C507.787 160.121 509.356 161.707 511.644 161.707C513.915 161.707 515.483 160.121 515.483 157.814C515.483 155.525 513.915 153.939 511.644 153.939C509.356 153.939 507.787 155.525 507.787 157.814ZM519.434 162.482V153.164H520.317L520.407 154.967C521.146 153.633 522.444 152.93 523.94 152.93C526.373 152.93 527.869 154.642 527.869 157.328V162.482H526.823V157.418C526.823 155.273 525.67 153.939 523.813 153.939C521.849 153.939 520.479 155.435 520.479 157.652V162.482H519.434ZM534.593 162.717C532.232 162.717 530.736 161.527 530.664 159.671H531.691C531.799 160.986 532.827 161.761 534.611 161.761C536.251 161.761 537.242 161.131 537.242 160.103C537.242 159.13 536.359 158.535 534.377 158.193C531.944 157.778 530.844 156.913 530.844 155.489C530.844 153.903 532.196 152.93 534.377 152.93C536.576 152.93 537.963 153.975 538.108 155.76H537.062C536.954 154.534 535.999 153.867 534.377 153.867C532.827 153.867 531.889 154.498 531.889 155.507C531.889 156.427 532.664 156.931 534.737 157.328C537.098 157.778 538.27 158.716 538.27 160.121C538.27 161.689 536.846 162.717 534.593 162.717ZM545.241 162.717C542.412 162.717 540.483 160.716 540.483 157.814C540.483 154.931 542.43 152.93 545.259 152.93C548.197 152.93 550.09 155.093 550.017 158.247H541.546C541.727 160.356 543.169 161.725 545.241 161.725C546.755 161.725 547.963 161.023 548.576 159.815L549.747 159.833C549.026 161.617 547.332 162.717 545.241 162.717ZM541.546 157.328H548.99C548.738 155.219 547.296 153.921 545.259 153.921C543.187 153.921 541.727 155.273 541.546 157.328ZM556.967 166.321C554.678 166.321 552.984 165.114 552.623 163.221H553.687C553.993 164.519 555.255 165.33 556.967 165.33C559.112 165.33 560.481 164.068 560.481 162.068V160.554C559.652 161.689 558.319 162.374 556.733 162.374C554.011 162.374 552.065 160.392 552.065 157.652C552.065 154.913 554.011 152.93 556.733 152.93C558.373 152.93 559.724 153.651 560.554 154.841L560.644 153.164H561.527V162.104C561.527 164.609 559.688 166.321 556.967 166.321ZM553.11 157.652C553.11 159.833 554.642 161.347 556.841 161.347C559.022 161.347 560.554 159.833 560.554 157.652C560.554 155.471 559.022 153.939 556.841 153.939C554.642 153.939 553.11 155.471 553.11 157.652ZM565.231 162.482V153.164H566.115L566.205 154.967C566.944 153.633 568.241 152.93 569.737 152.93C572.17 152.93 573.666 154.642 573.666 157.328V162.482H572.621V157.418C572.621 155.273 571.467 153.939 569.611 153.939C567.647 153.939 566.277 155.435 566.277 157.652V162.482H565.231ZM580.102 162.627C577.939 162.627 576.588 161.563 576.588 159.851C576.588 158.193 577.849 157.148 579.76 157.148H583.869V156.481C583.869 154.931 582.734 153.903 581.003 153.903C579.598 153.903 578.498 154.624 578.12 155.742H577.056C577.507 154.011 579.003 152.93 580.985 152.93C583.31 152.93 584.914 154.354 584.914 156.427V162.482H584.049L583.941 160.878C583.13 161.996 581.76 162.627 580.102 162.627ZM577.633 159.833C577.633 160.968 578.588 161.689 580.138 161.689C582.301 161.689 583.887 160.338 583.887 158.463V158.067H579.796C578.516 158.067 577.633 158.77 577.633 159.833ZM588.429 162.482V153.164H589.313L589.421 155.255C590.052 153.849 591.115 153.164 592.845 153.164H593.62V154.138H592.809C590.809 154.138 589.475 155.363 589.475 158.193V162.482H588.429ZM599.47 162.717C596.64 162.717 594.712 160.716 594.712 157.814C594.712 154.931 596.658 152.93 599.488 152.93C602.426 152.93 604.318 155.093 604.246 158.247H595.775C595.955 160.356 597.397 161.725 599.47 161.725C600.984 161.725 602.191 161.023 602.804 159.815L603.976 159.833C603.255 161.617 601.56 162.717 599.47 162.717ZM595.775 157.328H603.219C602.966 155.219 601.524 153.921 599.488 153.921C597.415 153.921 595.955 155.273 595.775 157.328Z" fill="black"/>
<line x1="158.5" y1="2.18552e-08" x2="158.5" y2="315" stroke="black"/>
<line x1="476.5" y1="2.18552e-08" x2="476.5" y2="315" stroke="black"/>
</svg>
