<svg width="636" height="316" viewBox="0 0 636 316" fill="none" xmlns="http://www.w3.org/2000/svg">
<path fill-rule="evenodd" clip-rule="evenodd" d="M476.313 315.369L476.109 315.165V0.205368L476.313 0.00146484H477.534L635.218 157.685L477.534 315.369H476.313Z" fill="#F6F5FF"/>
<mask id="path-2-inside-1_915_44592" fill="white">
<path fill-rule="evenodd" clip-rule="evenodd" d="M158.704 315.369L158.5 315.165V0.20488L158.704 0.000976562H159.925L317.609 157.685L159.925 315.369H158.704Z"/>
</mask>
<path fill-rule="evenodd" clip-rule="evenodd" d="M158.704 315.369L158.5 315.165V0.20488L158.704 0.000976562H159.925L317.609 157.685L159.925 315.369H158.704Z" fill="#DAD7FF"/>
<path d="M158.704 315.369L157.997 316.076L158.29 316.369H158.704V315.369ZM158.5 315.165H157.5V315.579L157.793 315.872L158.5 315.165ZM158.5 0.20488L157.793 -0.502227L157.5 -0.209334V0.20488H158.5ZM158.704 0.000976562V-0.999023H158.29L157.997 -0.70613L158.704 0.000976562ZM159.925 0.000976562L160.632 -0.70613L160.339 -0.999023H159.925V0.000976562ZM317.609 157.685L318.316 158.392L319.023 157.685L318.316 156.978L317.609 157.685ZM159.925 315.369V316.369H160.339L160.632 316.076L159.925 315.369ZM159.411 314.662L159.207 314.458L157.793 315.872L157.997 316.076L159.411 314.662ZM159.5 315.165V0.20488H157.5V315.165H159.5ZM159.207 0.911987L159.411 0.708083L157.997 -0.70613L157.793 -0.502227L159.207 0.911987ZM158.704 1.00098H159.925V-0.999023H158.704V1.00098ZM159.218 0.708083L316.902 158.392L318.316 156.978L160.632 -0.70613L159.218 0.708083ZM316.902 156.978L159.218 314.662L160.632 316.076L318.316 158.392L316.902 156.978ZM159.925 314.369H158.704V316.369H159.925V314.369Z" fill="#F6F5FF" mask="url(#path-2-inside-1_915_44592)"/>
<path fill-rule="evenodd" clip-rule="evenodd" d="M476.507 -1.78288e-08L476.711 0.203949L476.711 315.164L476.507 315.368L475.286 315.368L317.602 157.684L475.286 -1.24573e-07L476.507 -1.78288e-08Z" fill="#F6F5FF"/>
<mask id="path-5-inside-2_915_44592" fill="white">
<path fill-rule="evenodd" clip-rule="evenodd" d="M158.905 0.000976545L159.109 0.204926L159.109 315.165L158.905 315.369L157.684 315.369L0.00057836 157.685L157.684 0.000976438L158.905 0.000976545Z"/>
</mask>
<path fill-rule="evenodd" clip-rule="evenodd" d="M158.905 0.000976545L159.109 0.204926L159.109 315.165L158.905 315.369L157.684 315.369L0.00057836 157.685L157.684 0.000976438L158.905 0.000976545Z" fill="#F6F5FF"/>
<path d="M158.905 0.000976545L159.613 -0.706129L159.32 -0.999023L158.905 -0.999023L158.905 0.000976545ZM159.109 0.204926L160.109 0.204926L160.109 -0.209287L159.817 -0.50218L159.109 0.204926ZM159.109 315.165L159.816 315.872L160.109 315.579L160.109 315.165L159.109 315.165ZM158.905 315.369L158.905 316.369L159.32 316.369L159.613 316.076L158.905 315.369ZM157.684 315.369L156.977 316.076L157.27 316.369L157.684 316.369L157.684 315.369ZM0.00057836 157.685L-0.706528 156.978L-1.41364 157.685L-0.706528 158.392L0.00057836 157.685ZM157.684 0.000976438L157.684 -0.999024L157.27 -0.999024L156.977 -0.70613L157.684 0.000976438ZM158.198 0.708082L158.402 0.912031L159.817 -0.50218L159.613 -0.706129L158.198 0.708082ZM158.109 0.204925L158.109 315.165L160.109 315.165L160.109 0.204926L158.109 0.204925ZM158.402 314.458L158.198 314.662L159.613 316.076L159.816 315.872L158.402 314.458ZM158.905 314.369L157.684 314.369L157.684 316.369L158.905 316.369L158.905 314.369ZM158.392 314.662L0.707685 156.978L-0.706528 158.392L156.977 316.076L158.392 314.662ZM0.707685 158.392L158.392 0.708083L156.977 -0.70613L-0.706528 156.978L0.707685 158.392ZM157.684 1.00098L158.905 1.00098L158.905 -0.999023L157.684 -0.999024L157.684 1.00098Z" fill="#DAD7FF" mask="url(#path-5-inside-2_915_44592)"/>
<path d="M56.0366 161V148.384H60.0198C64.039 148.384 66.5803 150.889 66.5803 154.692C66.5803 158.495 64.039 161 60.0198 161H56.0366ZM57.1361 159.955H60.0198C63.3721 159.955 65.4629 157.9 65.4629 154.692C65.4629 151.484 63.3541 149.429 59.9838 149.429H57.1361V159.955ZM69.5851 161V151.682H70.6305V161H69.5851ZM69.1526 149.032C69.1526 148.51 69.5311 148.095 70.1078 148.095C70.6846 148.095 71.063 148.51 71.063 149.032C71.063 149.573 70.6846 149.988 70.1078 149.988C69.5311 149.988 69.1526 149.573 69.1526 149.032ZM77.5455 161.234C75.1845 161.234 73.6885 160.045 73.6164 158.188H74.6438C74.7519 159.504 75.7792 160.279 77.5636 160.279C79.2037 160.279 80.195 159.648 80.195 158.621C80.195 157.648 79.3118 157.053 77.3293 156.71C74.8961 156.296 73.7967 155.431 73.7967 154.007C73.7967 152.421 75.1484 151.448 77.3293 151.448C79.5281 151.448 80.9159 152.493 81.0601 154.277H80.0147C79.9066 153.052 78.9514 152.385 77.3293 152.385C75.7792 152.385 74.842 153.016 74.842 154.025C74.842 154.944 75.617 155.449 77.6897 155.845C80.0508 156.296 81.2223 157.233 81.2223 158.639C81.2223 160.207 79.7985 161.234 77.5455 161.234ZM88.1938 161.234C85.4002 161.234 83.4356 159.198 83.4356 156.332C83.4356 153.466 85.4002 151.448 88.1938 151.448C90.4107 151.448 92.231 152.763 92.7717 154.782H91.7084C91.0956 153.304 89.7979 152.457 88.1938 152.457C85.995 152.457 84.481 154.043 84.481 156.332C84.481 158.639 85.995 160.225 88.1938 160.225C89.906 160.225 91.2398 159.27 91.7624 157.738H92.8619C92.231 159.919 90.4828 161.234 88.1938 161.234ZM99.7962 161.234C96.9125 161.234 94.8939 159.216 94.8939 156.332C94.8939 153.466 96.9125 151.448 99.7962 151.448C102.662 151.448 104.681 153.466 104.681 156.332C104.681 159.216 102.662 161.234 99.7962 161.234ZM95.9392 156.332C95.9392 158.639 97.5072 160.225 99.7962 160.225C102.067 160.225 103.635 158.639 103.635 156.332C103.635 154.043 102.067 152.457 99.7962 152.457C97.5072 152.457 95.9392 154.043 95.9392 156.332ZM109.901 161L105.738 151.682H106.873L108.495 155.287L110.424 159.63L112.334 155.287L113.974 151.682H115.092L110.928 161H109.901ZM120.914 161.234C118.084 161.234 116.156 159.234 116.156 156.332C116.156 153.448 118.102 151.448 120.932 151.448C123.87 151.448 125.762 153.61 125.69 156.765H117.219C117.399 158.873 118.841 160.243 120.914 160.243C122.428 160.243 123.635 159.54 124.248 158.333L125.42 158.351C124.699 160.135 123.005 161.234 120.914 161.234ZM117.219 155.845H124.663C124.41 153.737 122.969 152.439 120.932 152.439C118.859 152.439 117.399 153.791 117.219 155.845ZM128.548 161V151.682H129.431L129.54 153.773C130.17 152.367 131.234 151.682 132.964 151.682H133.739V152.655H132.928C130.927 152.655 129.594 153.881 129.594 156.71V161H128.548Z" fill="black"/>
<path d="M383.037 161V148.384H387.02C391.039 148.384 393.58 150.889 393.58 154.692C393.58 158.495 391.039 161 387.02 161H383.037ZM384.136 159.955H387.02C390.372 159.955 392.463 157.9 392.463 154.692C392.463 151.484 390.354 149.429 386.984 149.429H384.136V159.955ZM400.409 161.234C397.579 161.234 395.651 159.234 395.651 156.332C395.651 153.448 397.597 151.448 400.427 151.448C403.365 151.448 405.257 153.61 405.185 156.765H396.714C396.894 158.873 398.336 160.243 400.409 160.243C401.923 160.243 403.131 159.54 403.743 158.333L404.915 158.351C404.194 160.135 402.5 161.234 400.409 161.234ZM396.714 155.845H404.158C403.906 153.737 402.464 152.439 400.427 152.439C398.354 152.439 396.894 153.791 396.714 155.845ZM410.359 161L406.195 151.682H407.331L408.953 155.287L410.881 159.63L412.792 155.287L414.432 151.682H415.549L411.386 161H410.359ZM421.372 161.234C418.542 161.234 416.614 159.234 416.614 156.332C416.614 153.448 418.56 151.448 421.39 151.448C424.328 151.448 426.22 153.61 426.148 156.765H417.677C417.857 158.873 419.299 160.243 421.372 160.243C422.886 160.243 424.093 159.54 424.706 158.333L425.878 158.351C425.157 160.135 423.462 161.234 421.372 161.234ZM417.677 155.845H425.121C424.868 153.737 423.426 152.439 421.39 152.439C419.317 152.439 417.857 153.791 417.677 155.845ZM429.006 161V147.663H430.051V161H429.006ZM437.85 161.234C434.966 161.234 432.947 159.216 432.947 156.332C432.947 153.466 434.966 151.448 437.85 151.448C440.715 151.448 442.734 153.466 442.734 156.332C442.734 159.216 440.715 161.234 437.85 161.234ZM433.993 156.332C433.993 158.639 435.561 160.225 437.85 160.225C440.121 160.225 441.689 158.639 441.689 156.332C441.689 154.043 440.121 152.457 437.85 152.457C435.561 152.457 433.993 154.043 433.993 156.332ZM450.613 161.234C448.901 161.234 447.513 160.459 446.684 159.234V164.605H445.639V151.682H446.522L446.63 153.538C447.441 152.241 448.865 151.448 450.613 151.448C453.443 151.448 455.39 153.502 455.39 156.332C455.39 159.162 453.443 161.234 450.613 161.234ZM446.648 156.332C446.648 158.621 448.216 160.225 450.505 160.225C452.794 160.225 454.344 158.621 454.344 156.332C454.344 154.061 452.794 152.457 450.505 152.457C448.216 152.457 446.648 154.061 446.648 156.332Z" fill="black"/>
<path d="M185.037 161V148.384H189.02C193.039 148.384 195.58 150.889 195.58 154.692C195.58 158.495 193.039 161 189.02 161H185.037ZM186.136 159.955H189.02C192.372 159.955 194.463 157.9 194.463 154.692C194.463 151.484 192.354 149.429 188.984 149.429H186.136V159.955ZM202.409 161.234C199.579 161.234 197.651 159.234 197.651 156.332C197.651 153.448 199.597 151.448 202.427 151.448C205.365 151.448 207.257 153.61 207.185 156.765H198.714C198.894 158.873 200.336 160.243 202.409 160.243C203.923 160.243 205.131 159.54 205.743 158.333L206.915 158.351C206.194 160.135 204.5 161.234 202.409 161.234ZM198.714 155.845H206.158C205.906 153.737 204.464 152.439 202.427 152.439C200.354 152.439 198.894 153.791 198.714 155.845ZM217.619 161V152.637H211.743V161H210.698V152.637H208.571V151.682H210.698V150.601C210.698 148.492 211.761 147.428 213.87 147.428H215.222V148.42H213.96C212.41 148.42 211.743 149.087 211.743 150.673V151.682H218.664V161H217.619ZM217.168 149.032C217.168 148.51 217.565 148.095 218.142 148.095C218.7 148.095 219.097 148.51 219.097 149.032C219.097 149.573 218.7 149.988 218.142 149.988C217.565 149.988 217.168 149.573 217.168 149.032ZM222.382 161V151.682H223.265L223.355 153.484C224.094 152.151 225.391 151.448 226.887 151.448C229.321 151.448 230.817 153.16 230.817 155.845V161H229.771V155.935C229.771 153.791 228.618 152.457 226.761 152.457C224.797 152.457 223.427 153.953 223.427 156.17V161H222.382ZM238.28 161.234C235.45 161.234 233.522 159.234 233.522 156.332C233.522 153.448 235.468 151.448 238.298 151.448C241.236 151.448 243.128 153.61 243.056 156.765H234.585C234.765 158.873 236.207 160.243 238.28 160.243C239.794 160.243 241.001 159.54 241.614 158.333L242.786 158.351C242.065 160.135 240.37 161.234 238.28 161.234ZM234.585 155.845H242.029C241.776 153.737 240.334 152.439 238.298 152.439C236.225 152.439 234.765 153.791 234.585 155.845Z" fill="black"/>
<path d="M502.513 161.482V148.866H506.496C510.516 148.866 513.057 151.371 513.057 155.174C513.057 158.977 510.516 161.482 506.496 161.482H502.513ZM503.613 160.437H506.496C509.849 160.437 511.939 158.382 511.939 155.174C511.939 151.966 509.831 149.911 506.46 149.911H503.613V160.437ZM519.886 161.717C517.056 161.717 515.127 159.716 515.127 156.814C515.127 153.931 517.074 151.93 519.904 151.93C522.841 151.93 524.734 154.093 524.662 157.247H516.191C516.371 159.356 517.813 160.725 519.886 160.725C521.4 160.725 522.607 160.023 523.22 158.815L524.391 158.833C523.671 160.617 521.976 161.717 519.886 161.717ZM516.191 156.328H523.634C523.382 154.219 521.94 152.921 519.904 152.921C517.831 152.921 516.371 154.273 516.191 156.328ZM527.52 161.482V148.145H528.565V161.482H527.52ZM532.272 161.482V152.164H533.318V161.482H532.272ZM531.84 149.515C531.84 148.992 532.218 148.578 532.795 148.578C533.372 148.578 533.75 148.992 533.75 149.515C533.75 150.056 533.372 150.47 532.795 150.47C532.218 150.47 531.84 150.056 531.84 149.515ZM539.692 161.482L535.528 152.164H536.664L538.286 155.769L540.215 160.113L542.125 155.769L543.765 152.164H544.883L540.719 161.482H539.692ZM550.705 161.717C547.875 161.717 545.947 159.716 545.947 156.814C545.947 153.931 547.893 151.93 550.723 151.93C553.661 151.93 555.553 154.093 555.481 157.247H547.01C547.19 159.356 548.632 160.725 550.705 160.725C552.219 160.725 553.426 160.023 554.039 158.815L555.211 158.833C554.49 160.617 552.796 161.717 550.705 161.717ZM547.01 156.328H554.454C554.201 154.219 552.759 152.921 550.723 152.921C548.65 152.921 547.19 154.273 547.01 156.328ZM558.339 161.482V152.164H559.222L559.33 154.255C559.961 152.849 561.025 152.164 562.755 152.164H563.53V153.138H562.719C560.718 153.138 559.384 154.363 559.384 157.193V161.482H558.339Z" fill="black"/>
<line x1="158.5" y1="2.18552e-08" x2="158.5" y2="315" stroke="black"/>
<line x1="476.5" y1="2.18552e-08" x2="476.5" y2="315" stroke="black"/>
</svg>
