<svg width="434" height="246" viewBox="0 0 434 246" fill="none" xmlns="http://www.w3.org/2000/svg">
<rect width="434" height="246" fill="#F6F5FF"/>
<path d="M97.9785 104.006C99.2682 104.006 100.209 104.259 100.802 104.765C101.399 105.266 101.697 105.986 101.697 106.925C101.697 107.349 101.627 107.752 101.485 108.135C101.349 108.513 101.125 108.848 100.815 109.14C100.506 109.427 100.098 109.655 99.5918 109.823C99.0905 109.987 98.4753 110.069 97.7461 110.069H96.5293V114H95.3672V104.006H97.9785ZM97.8691 104.997H96.5293V109.071H97.6162C98.2542 109.071 98.7852 109.003 99.209 108.866C99.6374 108.729 99.9587 108.508 100.173 108.203C100.387 107.893 100.494 107.483 100.494 106.973C100.494 106.307 100.282 105.813 99.8584 105.489C99.4346 105.161 98.7715 104.997 97.8691 104.997ZM106.503 106.371C107.141 106.371 107.688 106.512 108.144 106.795C108.599 107.077 108.948 107.474 109.189 107.984C109.431 108.49 109.552 109.083 109.552 109.762V110.466H104.377C104.391 111.345 104.609 112.015 105.033 112.476C105.457 112.936 106.054 113.166 106.824 113.166C107.298 113.166 107.717 113.123 108.082 113.036C108.447 112.95 108.825 112.822 109.217 112.653V113.651C108.839 113.82 108.463 113.943 108.089 114.021C107.72 114.098 107.282 114.137 106.776 114.137C106.056 114.137 105.427 113.991 104.89 113.699C104.356 113.403 103.942 112.97 103.646 112.4C103.349 111.831 103.201 111.133 103.201 110.309C103.201 109.502 103.336 108.805 103.604 108.217C103.878 107.624 104.261 107.169 104.753 106.85C105.25 106.531 105.833 106.371 106.503 106.371ZM106.489 107.301C105.883 107.301 105.4 107.499 105.04 107.896C104.68 108.292 104.466 108.846 104.397 109.557H108.362C108.358 109.11 108.287 108.718 108.15 108.381C108.018 108.039 107.815 107.775 107.542 107.588C107.269 107.396 106.918 107.301 106.489 107.301ZM117.939 110.24C117.939 110.855 117.86 111.405 117.7 111.888C117.541 112.371 117.311 112.779 117.01 113.111C116.709 113.444 116.344 113.699 115.916 113.877C115.492 114.05 115.011 114.137 114.474 114.137C113.972 114.137 113.512 114.05 113.093 113.877C112.678 113.699 112.318 113.444 112.013 113.111C111.712 112.779 111.477 112.371 111.309 111.888C111.145 111.405 111.062 110.855 111.062 110.24C111.062 109.42 111.201 108.723 111.479 108.148C111.757 107.57 112.154 107.13 112.669 106.829C113.188 106.524 113.806 106.371 114.521 106.371C115.205 106.371 115.802 106.524 116.312 106.829C116.827 107.134 117.226 107.576 117.509 108.155C117.796 108.729 117.939 109.424 117.939 110.24ZM112.238 110.24C112.238 110.842 112.318 111.364 112.478 111.806C112.637 112.248 112.883 112.59 113.216 112.831C113.549 113.073 113.977 113.193 114.501 113.193C115.021 113.193 115.447 113.073 115.779 112.831C116.117 112.59 116.365 112.248 116.524 111.806C116.684 111.364 116.764 110.842 116.764 110.24C116.764 109.643 116.684 109.128 116.524 108.695C116.365 108.258 116.119 107.921 115.786 107.684C115.453 107.447 115.023 107.328 114.494 107.328C113.715 107.328 113.143 107.586 112.778 108.101C112.418 108.616 112.238 109.329 112.238 110.24ZM123.422 106.371C124.356 106.371 125.101 106.692 125.657 107.335C126.213 107.978 126.491 108.944 126.491 110.233C126.491 111.086 126.364 111.801 126.108 112.38C125.853 112.959 125.493 113.396 125.028 113.692C124.568 113.989 124.023 114.137 123.395 114.137C122.998 114.137 122.649 114.084 122.349 113.979C122.048 113.875 121.79 113.733 121.576 113.556C121.362 113.378 121.184 113.184 121.043 112.975H120.961C120.975 113.152 120.991 113.367 121.009 113.617C121.032 113.868 121.043 114.087 121.043 114.273V117.35H119.901V106.508H120.838L120.988 107.615H121.043C121.189 107.387 121.367 107.18 121.576 106.993C121.786 106.802 122.041 106.651 122.342 106.542C122.647 106.428 123.007 106.371 123.422 106.371ZM123.224 107.328C122.704 107.328 122.285 107.428 121.966 107.629C121.651 107.829 121.421 108.13 121.275 108.531C121.13 108.928 121.052 109.427 121.043 110.028V110.247C121.043 110.881 121.111 111.416 121.248 111.854C121.389 112.291 121.619 112.624 121.938 112.852C122.262 113.079 122.695 113.193 123.237 113.193C123.702 113.193 124.09 113.068 124.399 112.817C124.709 112.567 124.939 112.218 125.09 111.771C125.245 111.32 125.322 110.803 125.322 110.22C125.322 109.336 125.149 108.634 124.803 108.114C124.461 107.59 123.935 107.328 123.224 107.328ZM129.615 114H128.474V103.363H129.615V114ZM134.899 106.371C135.537 106.371 136.084 106.512 136.54 106.795C136.996 107.077 137.344 107.474 137.586 107.984C137.827 108.49 137.948 109.083 137.948 109.762V110.466H132.773C132.787 111.345 133.006 112.015 133.43 112.476C133.854 112.936 134.451 113.166 135.221 113.166C135.695 113.166 136.114 113.123 136.479 113.036C136.843 112.95 137.221 112.822 137.613 112.653V113.651C137.235 113.82 136.859 113.943 136.485 114.021C136.116 114.098 135.679 114.137 135.173 114.137C134.453 114.137 133.824 113.991 133.286 113.699C132.753 113.403 132.338 112.97 132.042 112.4C131.746 111.831 131.598 111.133 131.598 110.309C131.598 109.502 131.732 108.805 132.001 108.217C132.274 107.624 132.657 107.169 133.149 106.85C133.646 106.531 134.229 106.371 134.899 106.371ZM134.886 107.301C134.28 107.301 133.797 107.499 133.437 107.896C133.076 108.292 132.862 108.846 132.794 109.557H136.759C136.754 109.11 136.684 108.718 136.547 108.381C136.415 108.039 136.212 107.775 135.938 107.588C135.665 107.396 135.314 107.301 134.886 107.301Z" fill="black"/>
<path d="M192.82 15.8672C195.031 15.8672 196.645 16.3008 197.66 17.168C198.684 18.0273 199.195 19.2617 199.195 20.8711C199.195 21.5977 199.074 22.2891 198.832 22.9453C198.598 23.5938 198.215 24.168 197.684 24.668C197.152 25.1602 196.453 25.5508 195.586 25.8398C194.727 26.1211 193.672 26.2617 192.422 26.2617H190.336V33H188.344V15.8672H192.82ZM192.633 17.5664H190.336V24.5508H192.199C193.293 24.5508 194.203 24.4336 194.93 24.1992C195.664 23.9648 196.215 23.5859 196.582 23.0625C196.949 22.5312 197.133 21.8281 197.133 20.9531C197.133 19.8125 196.77 18.9648 196.043 18.4102C195.316 17.8477 194.18 17.5664 192.633 17.5664ZM213.527 33L211.418 27.5625H204.551L202.453 33H200.438L207.141 15.7969H208.934L215.59 33H213.527ZM210.82 25.793L208.816 20.3906C208.77 20.25 208.691 20.0195 208.582 19.6992C208.48 19.3789 208.375 19.0469 208.266 18.7031C208.156 18.3594 208.066 18.082 207.996 17.8711C207.918 18.1914 207.832 18.5117 207.738 18.832C207.652 19.1445 207.566 19.4375 207.48 19.7109C207.395 19.9766 207.32 20.2031 207.258 20.3906L205.219 25.793H210.82ZM225.293 17.3789C224.348 17.3789 223.496 17.543 222.738 17.8711C221.988 18.1914 221.348 18.6602 220.816 19.2773C220.293 19.8867 219.891 20.625 219.609 21.4922C219.328 22.3594 219.188 23.3359 219.188 24.4219C219.188 25.8594 219.41 27.1094 219.855 28.1719C220.309 29.2266 220.98 30.043 221.871 30.6211C222.77 31.1992 223.891 31.4883 225.234 31.4883C226 31.4883 226.719 31.4258 227.391 31.3008C228.07 31.168 228.73 31.0039 229.371 30.8086V32.543C228.746 32.7773 228.09 32.9492 227.402 33.0586C226.715 33.1758 225.898 33.2344 224.953 33.2344C223.211 33.2344 221.754 32.875 220.582 32.1562C219.418 31.4297 218.543 30.4062 217.957 29.0859C217.379 27.7656 217.09 26.207 217.09 24.4102C217.09 23.1133 217.27 21.9297 217.629 20.8594C217.996 19.7812 218.527 18.8516 219.223 18.0703C219.926 17.2891 220.785 16.6875 221.801 16.2656C222.824 15.8359 223.996 15.6211 225.316 15.6211C226.184 15.6211 227.02 15.707 227.824 15.8789C228.629 16.0508 229.355 16.2969 230.004 16.6172L229.207 18.3047C228.66 18.0547 228.059 17.8398 227.402 17.6602C226.754 17.4727 226.051 17.3789 225.293 17.3789ZM238.348 33H236.344V17.625H230.953V15.8672H243.715V17.625H238.348V33Z" fill="black"/>
<path d="M134.636 213L133.405 209.828H129.399L128.176 213H127L130.91 202.965H131.956L135.839 213H134.636ZM133.057 208.796L131.888 205.645C131.86 205.562 131.815 205.428 131.751 205.241C131.692 205.054 131.63 204.861 131.566 204.66C131.503 204.46 131.45 204.298 131.409 204.175C131.364 204.362 131.313 204.549 131.259 204.735C131.209 204.918 131.159 205.089 131.108 205.248C131.058 205.403 131.015 205.535 130.979 205.645L129.789 208.796H133.057ZM140.057 213.137C139.382 213.137 138.787 212.998 138.272 212.72C137.757 212.442 137.356 212.018 137.069 211.448C136.782 210.879 136.639 210.161 136.639 209.295C136.639 208.388 136.789 207.647 137.09 207.073C137.395 206.494 137.814 206.066 138.348 205.788C138.881 205.51 139.487 205.371 140.166 205.371C140.54 205.371 140.9 205.41 141.246 205.487C141.597 205.56 141.884 205.654 142.107 205.768L141.766 206.718C141.538 206.627 141.273 206.545 140.973 206.472C140.676 206.399 140.398 206.362 140.139 206.362C139.619 206.362 139.186 206.474 138.84 206.697C138.498 206.921 138.241 207.249 138.067 207.682C137.899 208.115 137.814 208.648 137.814 209.281C137.814 209.887 137.896 210.405 138.061 210.833C138.229 211.261 138.478 211.59 138.806 211.817C139.138 212.041 139.553 212.152 140.05 212.152C140.446 212.152 140.804 212.111 141.123 212.029C141.442 211.943 141.731 211.842 141.991 211.729V212.74C141.741 212.868 141.46 212.966 141.15 213.034C140.845 213.103 140.48 213.137 140.057 213.137ZM146.188 212.207C146.375 212.207 146.567 212.191 146.763 212.159C146.959 212.127 147.118 212.089 147.241 212.043V212.925C147.109 212.984 146.924 213.034 146.688 213.075C146.455 213.116 146.227 213.137 146.004 213.137C145.607 213.137 145.247 213.068 144.924 212.932C144.6 212.79 144.34 212.553 144.145 212.221C143.953 211.888 143.857 211.428 143.857 210.84V206.396H142.791V205.843L143.864 205.398L144.315 203.771H144.999V205.508H147.193V206.396H144.999V210.806C144.999 211.275 145.106 211.626 145.32 211.858C145.539 212.091 145.828 212.207 146.188 212.207ZM149.894 205.508V213H148.759V205.508H149.894ZM149.34 202.705C149.527 202.705 149.686 202.767 149.818 202.89C149.955 203.008 150.023 203.195 150.023 203.45C150.023 203.701 149.955 203.888 149.818 204.011C149.686 204.134 149.527 204.195 149.34 204.195C149.144 204.195 148.98 204.134 148.848 204.011C148.72 203.888 148.656 203.701 148.656 203.45C148.656 203.195 148.72 203.008 148.848 202.89C148.98 202.767 149.144 202.705 149.34 202.705ZM153.947 213L151.104 205.508H152.32L153.968 210.04C154.082 210.35 154.198 210.692 154.316 211.065C154.435 211.439 154.517 211.74 154.562 211.968H154.61C154.665 211.74 154.756 211.439 154.884 211.065C155.011 210.687 155.128 210.345 155.232 210.04L156.88 205.508H158.097L155.246 213H153.947ZM160.435 205.508V213H159.3V205.508H160.435ZM159.881 202.705C160.068 202.705 160.227 202.767 160.359 202.89C160.496 203.008 160.564 203.195 160.564 203.45C160.564 203.701 160.496 203.888 160.359 204.011C160.227 204.134 160.068 204.195 159.881 204.195C159.685 204.195 159.521 204.134 159.389 204.011C159.261 203.888 159.197 203.701 159.197 203.45C159.197 203.195 159.261 203.008 159.389 202.89C159.521 202.767 159.685 202.705 159.881 202.705ZM165.261 212.207C165.448 212.207 165.639 212.191 165.835 212.159C166.031 212.127 166.19 212.089 166.313 212.043V212.925C166.181 212.984 165.997 213.034 165.76 213.075C165.527 213.116 165.299 213.137 165.076 213.137C164.68 213.137 164.32 213.068 163.996 212.932C163.673 212.79 163.413 212.553 163.217 212.221C163.025 211.888 162.93 211.428 162.93 210.84V206.396H161.863V205.843L162.937 205.398L163.388 203.771H164.071V205.508H166.266V206.396H164.071V210.806C164.071 211.275 164.178 211.626 164.393 211.858C164.611 212.091 164.901 212.207 165.261 212.207ZM168.966 205.508V213H167.831V205.508H168.966ZM168.412 202.705C168.599 202.705 168.758 202.767 168.891 202.89C169.027 203.008 169.096 203.195 169.096 203.45C169.096 203.701 169.027 203.888 168.891 204.011C168.758 204.134 168.599 204.195 168.412 204.195C168.216 204.195 168.052 204.134 167.92 204.011C167.792 203.888 167.729 203.701 167.729 203.45C167.729 203.195 167.792 203.008 167.92 202.89C168.052 202.767 168.216 202.705 168.412 202.705ZM174.257 205.371C174.895 205.371 175.442 205.512 175.897 205.795C176.353 206.077 176.702 206.474 176.943 206.984C177.185 207.49 177.306 208.083 177.306 208.762V209.466H172.131C172.145 210.345 172.363 211.015 172.787 211.476C173.211 211.936 173.808 212.166 174.578 212.166C175.052 212.166 175.471 212.123 175.836 212.036C176.201 211.95 176.579 211.822 176.971 211.653V212.651C176.592 212.82 176.216 212.943 175.843 213.021C175.474 213.098 175.036 213.137 174.53 213.137C173.81 213.137 173.181 212.991 172.644 212.699C172.11 212.403 171.696 211.97 171.399 211.4C171.103 210.831 170.955 210.133 170.955 209.309C170.955 208.502 171.09 207.805 171.358 207.217C171.632 206.624 172.015 206.169 172.507 205.85C173.004 205.531 173.587 205.371 174.257 205.371ZM174.243 206.301C173.637 206.301 173.154 206.499 172.794 206.896C172.434 207.292 172.22 207.846 172.151 208.557H176.116C176.112 208.11 176.041 207.718 175.904 207.381C175.772 207.039 175.569 206.775 175.296 206.588C175.022 206.396 174.672 206.301 174.243 206.301ZM184.08 210.949C184.08 211.428 183.959 211.831 183.718 212.159C183.481 212.483 183.139 212.727 182.692 212.891C182.25 213.055 181.722 213.137 181.106 213.137C180.582 213.137 180.129 213.096 179.746 213.014C179.363 212.932 179.028 212.815 178.741 212.665V211.619C179.047 211.77 179.411 211.906 179.835 212.029C180.259 212.152 180.692 212.214 181.134 212.214C181.781 212.214 182.25 212.109 182.542 211.899C182.834 211.69 182.979 211.405 182.979 211.045C182.979 210.84 182.92 210.66 182.802 210.505C182.688 210.345 182.494 210.193 182.221 210.047C181.947 209.896 181.569 209.732 181.086 209.555C180.607 209.372 180.193 209.192 179.842 209.015C179.495 208.832 179.227 208.611 179.035 208.352C178.848 208.092 178.755 207.755 178.755 207.34C178.755 206.706 179.01 206.221 179.521 205.884C180.035 205.542 180.71 205.371 181.544 205.371C181.995 205.371 182.417 205.417 182.809 205.508C183.205 205.594 183.574 205.713 183.916 205.863L183.533 206.772C183.223 206.64 182.893 206.529 182.542 206.438C182.191 206.346 181.833 206.301 181.469 206.301C180.945 206.301 180.541 206.387 180.259 206.561C179.981 206.734 179.842 206.971 179.842 207.271C179.842 207.504 179.906 207.695 180.033 207.846C180.165 207.996 180.375 208.137 180.662 208.27C180.949 208.402 181.327 208.557 181.797 208.734C182.266 208.908 182.672 209.088 183.014 209.274C183.355 209.457 183.618 209.68 183.8 209.944C183.987 210.204 184.08 210.539 184.08 210.949Z" fill="black"/>
<path d="M259.64 112.888C259.088 112.888 258.591 112.983 258.149 113.175C257.712 113.362 257.338 113.635 257.028 113.995C256.723 114.351 256.488 114.781 256.324 115.287C256.16 115.793 256.078 116.363 256.078 116.996C256.078 117.835 256.208 118.564 256.468 119.184C256.732 119.799 257.124 120.275 257.644 120.612C258.168 120.95 258.822 121.118 259.605 121.118C260.052 121.118 260.471 121.082 260.863 121.009C261.26 120.931 261.645 120.836 262.019 120.722V121.733C261.654 121.87 261.271 121.97 260.87 122.034C260.469 122.103 259.993 122.137 259.441 122.137C258.425 122.137 257.575 121.927 256.892 121.508C256.213 121.084 255.702 120.487 255.36 119.717C255.023 118.947 254.854 118.037 254.854 116.989C254.854 116.233 254.959 115.542 255.169 114.918C255.383 114.289 255.693 113.747 256.099 113.291C256.509 112.835 257.01 112.484 257.603 112.238C258.2 111.988 258.883 111.862 259.653 111.862C260.159 111.862 260.647 111.912 261.116 112.013C261.586 112.113 262.009 112.257 262.388 112.443L261.923 113.428C261.604 113.282 261.253 113.157 260.87 113.052C260.492 112.942 260.082 112.888 259.64 112.888ZM270.475 118.24C270.475 118.855 270.395 119.405 270.235 119.888C270.076 120.371 269.846 120.779 269.545 121.111C269.244 121.444 268.88 121.699 268.451 121.877C268.027 122.05 267.547 122.137 267.009 122.137C266.507 122.137 266.047 122.05 265.628 121.877C265.213 121.699 264.853 121.444 264.548 121.111C264.247 120.779 264.012 120.371 263.844 119.888C263.68 119.405 263.598 118.855 263.598 118.24C263.598 117.42 263.737 116.723 264.015 116.148C264.293 115.57 264.689 115.13 265.204 114.829C265.724 114.524 266.341 114.371 267.057 114.371C267.74 114.371 268.337 114.524 268.848 114.829C269.363 115.134 269.761 115.576 270.044 116.155C270.331 116.729 270.475 117.424 270.475 118.24ZM264.773 118.24C264.773 118.842 264.853 119.364 265.013 119.806C265.172 120.248 265.418 120.59 265.751 120.831C266.084 121.073 266.512 121.193 267.036 121.193C267.556 121.193 267.982 121.073 268.314 120.831C268.652 120.59 268.9 120.248 269.06 119.806C269.219 119.364 269.299 118.842 269.299 118.24C269.299 117.643 269.219 117.128 269.06 116.695C268.9 116.258 268.654 115.921 268.321 115.684C267.989 115.447 267.558 115.328 267.029 115.328C266.25 115.328 265.678 115.586 265.313 116.101C264.953 116.616 264.773 117.329 264.773 118.24ZM275.984 114.371C276.873 114.371 277.545 114.59 278.001 115.027C278.457 115.46 278.685 116.158 278.685 117.119V122H277.563V117.194C277.563 116.57 277.42 116.103 277.133 115.793C276.85 115.483 276.415 115.328 275.827 115.328C274.998 115.328 274.414 115.563 274.077 116.032C273.74 116.502 273.571 117.183 273.571 118.076V122H272.437V114.508H273.353L273.523 115.588H273.585C273.744 115.324 273.947 115.103 274.193 114.925C274.439 114.743 274.715 114.606 275.021 114.515C275.326 114.419 275.647 114.371 275.984 114.371ZM283.442 121.207C283.629 121.207 283.821 121.191 284.017 121.159C284.213 121.127 284.372 121.089 284.495 121.043V121.925C284.363 121.984 284.178 122.034 283.941 122.075C283.709 122.116 283.481 122.137 283.258 122.137C282.861 122.137 282.501 122.068 282.178 121.932C281.854 121.79 281.594 121.553 281.398 121.221C281.207 120.888 281.111 120.428 281.111 119.84V115.396H280.045V114.843L281.118 114.398L281.569 112.771H282.253V114.508H284.447V115.396H282.253V119.806C282.253 120.275 282.36 120.626 282.574 120.858C282.793 121.091 283.082 121.207 283.442 121.207ZM288.897 114.371C289.535 114.371 290.082 114.512 290.538 114.795C290.994 115.077 291.342 115.474 291.584 115.984C291.826 116.49 291.946 117.083 291.946 117.762V118.466H286.771C286.785 119.345 287.004 120.015 287.428 120.476C287.852 120.936 288.449 121.166 289.219 121.166C289.693 121.166 290.112 121.123 290.477 121.036C290.841 120.95 291.219 120.822 291.611 120.653V121.651C291.233 121.82 290.857 121.943 290.483 122.021C290.114 122.098 289.677 122.137 289.171 122.137C288.451 122.137 287.822 121.991 287.284 121.699C286.751 121.403 286.336 120.97 286.04 120.4C285.744 119.831 285.596 119.133 285.596 118.309C285.596 117.502 285.73 116.805 285.999 116.217C286.272 115.624 286.655 115.169 287.147 114.85C287.644 114.531 288.228 114.371 288.897 114.371ZM288.884 115.301C288.278 115.301 287.795 115.499 287.435 115.896C287.075 116.292 286.86 116.846 286.792 117.557H290.757C290.752 117.11 290.682 116.718 290.545 116.381C290.413 116.039 290.21 115.775 289.937 115.588C289.663 115.396 289.312 115.301 288.884 115.301ZM295.658 118.165L293.067 114.508H294.366L296.342 117.393L298.311 114.508H299.596L297.005 118.165L299.739 122H298.44L296.342 118.944L294.229 122H292.944L295.658 118.165ZM303.622 121.207C303.809 121.207 304 121.191 304.196 121.159C304.392 121.127 304.552 121.089 304.675 121.043V121.925C304.543 121.984 304.358 122.034 304.121 122.075C303.889 122.116 303.661 122.137 303.438 122.137C303.041 122.137 302.681 122.068 302.357 121.932C302.034 121.79 301.774 121.553 301.578 121.221C301.387 120.888 301.291 120.428 301.291 119.84V115.396H300.225V114.843L301.298 114.398L301.749 112.771H302.433V114.508H304.627V115.396H302.433V119.806C302.433 120.275 302.54 120.626 302.754 120.858C302.973 121.091 303.262 121.207 303.622 121.207Z" fill="black"/>
<path d="M296.437 212H295.268V203.031H292.123V202.006H299.567V203.031H296.437V212ZM303.792 204.371C304.43 204.371 304.977 204.512 305.433 204.795C305.888 205.077 306.237 205.474 306.479 205.984C306.72 206.49 306.841 207.083 306.841 207.762V208.466H301.666C301.68 209.345 301.898 210.015 302.322 210.476C302.746 210.936 303.343 211.166 304.113 211.166C304.587 211.166 305.007 211.123 305.371 211.036C305.736 210.95 306.114 210.822 306.506 210.653V211.651C306.128 211.82 305.752 211.943 305.378 212.021C305.009 212.098 304.571 212.137 304.065 212.137C303.345 212.137 302.716 211.991 302.179 211.699C301.646 211.403 301.231 210.97 300.935 210.4C300.638 209.831 300.49 209.133 300.49 208.309C300.49 207.502 300.625 206.805 300.894 206.217C301.167 205.624 301.55 205.169 302.042 204.85C302.539 204.531 303.122 204.371 303.792 204.371ZM303.778 205.301C303.172 205.301 302.689 205.499 302.329 205.896C301.969 206.292 301.755 206.846 301.687 207.557H305.651C305.647 207.11 305.576 206.718 305.439 206.381C305.307 206.039 305.104 205.775 304.831 205.588C304.558 205.396 304.207 205.301 303.778 205.301ZM311.77 212.137C311.095 212.137 310.5 211.998 309.985 211.72C309.47 211.442 309.069 211.018 308.782 210.448C308.495 209.879 308.352 209.161 308.352 208.295C308.352 207.388 308.502 206.647 308.803 206.073C309.108 205.494 309.527 205.066 310.061 204.788C310.594 204.51 311.2 204.371 311.879 204.371C312.253 204.371 312.613 204.41 312.959 204.487C313.31 204.56 313.597 204.654 313.82 204.768L313.479 205.718C313.251 205.627 312.986 205.545 312.686 205.472C312.389 205.399 312.111 205.362 311.852 205.362C311.332 205.362 310.899 205.474 310.553 205.697C310.211 205.921 309.953 206.249 309.78 206.682C309.612 207.115 309.527 207.648 309.527 208.281C309.527 208.887 309.609 209.405 309.773 209.833C309.942 210.261 310.19 210.59 310.519 210.817C310.851 211.041 311.266 211.152 311.763 211.152C312.159 211.152 312.517 211.111 312.836 211.029C313.155 210.943 313.444 210.842 313.704 210.729V211.74C313.453 211.868 313.173 211.966 312.863 212.034C312.558 212.103 312.193 212.137 311.77 212.137ZM316.616 201.363V204.542C316.616 204.724 316.612 204.909 316.603 205.096C316.593 205.278 316.577 205.447 316.555 205.602H316.63C316.785 205.337 316.981 205.116 317.218 204.938C317.459 204.756 317.733 204.619 318.038 204.528C318.343 204.433 318.667 204.385 319.009 204.385C319.61 204.385 320.112 204.48 320.513 204.672C320.918 204.863 321.221 205.16 321.422 205.561C321.627 205.962 321.729 206.481 321.729 207.119V212H320.608V207.194C320.608 206.57 320.465 206.103 320.178 205.793C319.895 205.483 319.46 205.328 318.872 205.328C318.316 205.328 317.872 205.435 317.539 205.649C317.211 205.859 316.974 206.169 316.828 206.579C316.687 206.989 316.616 207.491 316.616 208.083V212H315.481V201.363H316.616ZM327.615 204.371C328.504 204.371 329.176 204.59 329.632 205.027C330.088 205.46 330.315 206.158 330.315 207.119V212H329.194V207.194C329.194 206.57 329.051 206.103 328.764 205.793C328.481 205.483 328.046 205.328 327.458 205.328C326.629 205.328 326.045 205.563 325.708 206.032C325.371 206.502 325.202 207.183 325.202 208.076V212H324.067V204.508H324.983L325.154 205.588H325.216C325.375 205.324 325.578 205.103 325.824 204.925C326.07 204.743 326.346 204.606 326.651 204.515C326.957 204.419 327.278 204.371 327.615 204.371ZM339.113 208.24C339.113 208.855 339.034 209.405 338.874 209.888C338.715 210.371 338.484 210.779 338.184 211.111C337.883 211.444 337.518 211.699 337.09 211.877C336.666 212.05 336.185 212.137 335.647 212.137C335.146 212.137 334.686 212.05 334.267 211.877C333.852 211.699 333.492 211.444 333.187 211.111C332.886 210.779 332.651 210.371 332.482 209.888C332.318 209.405 332.236 208.855 332.236 208.24C332.236 207.42 332.375 206.723 332.653 206.148C332.931 205.57 333.328 205.13 333.843 204.829C334.362 204.524 334.98 204.371 335.695 204.371C336.379 204.371 336.976 204.524 337.486 204.829C338.001 205.134 338.4 205.576 338.683 206.155C338.97 206.729 339.113 207.424 339.113 208.24ZM333.412 208.24C333.412 208.842 333.492 209.364 333.651 209.806C333.811 210.248 334.057 210.59 334.39 210.831C334.722 211.073 335.151 211.193 335.675 211.193C336.194 211.193 336.62 211.073 336.953 210.831C337.29 210.59 337.539 210.248 337.698 209.806C337.858 209.364 337.938 208.842 337.938 208.24C337.938 207.643 337.858 207.128 337.698 206.695C337.539 206.258 337.293 205.921 336.96 205.684C336.627 205.447 336.197 205.328 335.668 205.328C334.889 205.328 334.317 205.586 333.952 206.101C333.592 206.616 333.412 207.329 333.412 208.24ZM342.217 212H341.075V201.363H342.217V212ZM351.076 208.24C351.076 208.855 350.996 209.405 350.837 209.888C350.677 210.371 350.447 210.779 350.146 211.111C349.846 211.444 349.481 211.699 349.053 211.877C348.629 212.05 348.148 212.137 347.61 212.137C347.109 212.137 346.649 212.05 346.229 211.877C345.815 211.699 345.455 211.444 345.149 211.111C344.849 210.779 344.614 210.371 344.445 209.888C344.281 209.405 344.199 208.855 344.199 208.24C344.199 207.42 344.338 206.723 344.616 206.148C344.894 205.57 345.291 205.13 345.806 204.829C346.325 204.524 346.943 204.371 347.658 204.371C348.342 204.371 348.939 204.524 349.449 204.829C349.964 205.134 350.363 205.576 350.646 206.155C350.933 206.729 351.076 207.424 351.076 208.24ZM345.375 208.24C345.375 208.842 345.455 209.364 345.614 209.806C345.774 210.248 346.02 210.59 346.353 210.831C346.685 211.073 347.114 211.193 347.638 211.193C348.157 211.193 348.583 211.073 348.916 210.831C349.253 210.59 349.502 210.248 349.661 209.806C349.821 209.364 349.9 208.842 349.9 208.24C349.9 207.643 349.821 207.128 349.661 206.695C349.502 206.258 349.256 205.921 348.923 205.684C348.59 205.447 348.16 205.328 347.631 205.328C346.852 205.328 346.28 205.586 345.915 206.101C345.555 206.616 345.375 207.329 345.375 208.24ZM355.13 215.363C354.146 215.363 353.387 215.179 352.854 214.81C352.32 214.445 352.054 213.932 352.054 213.271C352.054 212.802 352.202 212.401 352.498 212.068C352.799 211.736 353.214 211.515 353.742 211.405C353.546 211.314 353.378 211.177 353.236 210.995C353.1 210.813 353.031 210.603 353.031 210.366C353.031 210.093 353.106 209.854 353.257 209.648C353.412 209.439 353.646 209.238 353.961 209.047C353.569 208.887 353.25 208.618 353.004 208.24C352.762 207.857 352.642 207.413 352.642 206.907C352.642 206.369 352.753 205.911 352.977 205.533C353.2 205.15 353.523 204.859 353.947 204.658C354.371 204.458 354.884 204.357 355.485 204.357C355.618 204.357 355.75 204.364 355.882 204.378C356.019 204.387 356.148 204.403 356.271 204.426C356.395 204.444 356.502 204.467 356.593 204.494H359.163V205.226L357.782 205.396C357.919 205.574 358.033 205.788 358.124 206.039C358.215 206.29 358.261 206.568 358.261 206.873C358.261 207.62 358.008 208.215 357.502 208.657C356.996 209.095 356.301 209.313 355.417 209.313C355.207 209.313 354.993 209.295 354.774 209.259C354.551 209.382 354.38 209.519 354.262 209.669C354.148 209.819 354.091 209.993 354.091 210.188C354.091 210.334 354.134 210.451 354.221 210.537C354.312 210.624 354.442 210.688 354.61 210.729C354.779 210.765 354.982 210.783 355.219 210.783H356.538C357.354 210.783 357.978 210.954 358.411 211.296C358.849 211.638 359.067 212.137 359.067 212.793C359.067 213.622 358.73 214.258 358.056 214.7C357.381 215.142 356.406 215.363 355.13 215.363ZM355.164 214.475C355.784 214.475 356.297 214.411 356.702 214.283C357.112 214.16 357.418 213.98 357.618 213.743C357.823 213.511 357.926 213.233 357.926 212.909C357.926 212.608 357.857 212.381 357.721 212.226C357.584 212.075 357.383 211.975 357.119 211.925C356.855 211.87 356.531 211.843 356.148 211.843H354.85C354.512 211.843 354.218 211.895 353.968 212C353.717 212.105 353.523 212.26 353.387 212.465C353.255 212.67 353.188 212.925 353.188 213.23C353.188 213.636 353.359 213.944 353.701 214.153C354.043 214.368 354.531 214.475 355.164 214.475ZM355.458 208.486C356 208.486 356.408 208.35 356.682 208.076C356.955 207.803 357.092 207.404 357.092 206.88C357.092 206.319 356.953 205.9 356.675 205.622C356.397 205.34 355.987 205.198 355.444 205.198C354.925 205.198 354.524 205.344 354.241 205.636C353.963 205.923 353.824 206.344 353.824 206.9C353.824 207.411 353.965 207.803 354.248 208.076C354.531 208.35 354.934 208.486 355.458 208.486ZM359.457 204.508H360.674L362.328 208.855C362.424 209.111 362.513 209.357 362.595 209.594C362.677 209.826 362.75 210.049 362.813 210.264C362.877 210.478 362.927 210.685 362.964 210.886H363.012C363.076 210.658 363.167 210.359 363.285 209.99C363.404 209.617 363.531 209.236 363.668 208.849L365.233 204.508H366.457L363.196 213.101C363.023 213.561 362.82 213.962 362.588 214.304C362.36 214.646 362.082 214.908 361.754 215.09C361.426 215.277 361.029 215.37 360.564 215.37C360.35 215.37 360.161 215.356 359.997 215.329C359.833 215.306 359.692 215.279 359.573 215.247V214.338C359.674 214.361 359.794 214.381 359.936 214.399C360.081 214.418 360.232 214.427 360.387 214.427C360.669 214.427 360.913 214.372 361.118 214.263C361.328 214.158 361.508 214.003 361.658 213.798C361.809 213.593 361.938 213.349 362.048 213.066L362.458 212.014L359.457 204.508Z" fill="black"/>
<circle cx="114" cy="68" r="33" fill="white"/>
<path d="M110.224 72.809C105.793 72.809 96.9688 75.0244 96.9688 79.4365V82.7502H123.479V79.4365C123.479 75.0244 114.655 72.809 110.224 72.809ZM101.4 78.9631C102.99 77.8648 106.834 76.5961 110.224 76.5961C113.613 76.5961 117.457 77.8648 119.048 78.9631H101.4ZM110.224 69.4952C113.878 69.4952 116.851 66.5223 116.851 62.8677C116.851 59.2131 113.878 56.2402 110.224 56.2402C106.569 56.2402 103.596 59.2131 103.596 62.8677C103.596 66.5223 106.569 69.4952 110.224 69.4952ZM110.224 60.0274C111.795 60.0274 113.064 61.2961 113.064 62.8677C113.064 64.4394 111.795 65.7081 110.224 65.7081C108.652 65.7081 107.383 64.4394 107.383 62.8677C107.383 61.2961 108.652 60.0274 110.224 60.0274ZM123.554 72.9226C125.751 74.5132 127.266 76.634 127.266 79.4365V82.7502H134.84V79.4365C134.84 75.6115 128.213 73.4338 123.554 72.9226V72.9226ZM121.585 69.4952C125.24 69.4952 128.213 66.5223 128.213 62.8677C128.213 59.2131 125.24 56.2402 121.585 56.2402C120.563 56.2402 119.616 56.4864 118.745 56.903C119.938 58.5883 120.638 60.6523 120.638 62.8677C120.638 65.0832 119.938 67.1472 118.745 68.8325C119.616 69.2491 120.563 69.4952 121.585 69.4952Z" fill="#323232"/>
<circle cx="154" cy="164" r="33" fill="white"/>
<path d="M154.51 134.082C137.72 134.082 124.094 147.709 124.094 164.499C124.094 181.289 137.72 194.915 154.51 194.915C171.3 194.915 184.927 181.289 184.927 164.499C184.927 147.709 171.3 134.082 154.51 134.082ZM154.51 188.832C141.066 188.832 130.177 177.943 130.177 164.499C130.177 151.055 141.066 140.165 154.51 140.165C167.955 140.165 178.844 151.055 178.844 164.499C178.844 177.943 167.955 188.832 154.51 188.832Z" fill="#323232"/>
<path d="M159.2 155.282C158.501 153.853 156.889 153.123 155.368 153.67L145.391 157.351V164.499H148.433V159.48L153.117 157.746L150.197 172.62L141.741 170.886L141.133 173.867L152.569 176.209L154.151 168.179L157.558 171.86V182.749H160.599V170.673L156.584 166.293L157.832 159.145C160.569 162.856 164.554 164.499 166.683 164.499V161.457C165.436 161.457 161.725 160.453 159.2 155.282Z" fill="#323232"/>
<path d="M159.073 152.331C160.753 152.331 162.115 150.97 162.115 149.29C162.115 147.61 160.753 146.248 159.073 146.248C157.393 146.248 156.031 147.61 156.031 149.29C156.031 150.97 157.393 152.331 159.073 152.331Z" fill="#323232"/>
<circle cx="154.5" cy="164.5" r="25.4211" stroke="white" stroke-width="12.1579"/>
<circle cx="327" cy="165" r="33" fill="white"/>
<path d="M343.333 176.499C345.442 176.499 347.147 174.774 347.147 172.666L347.167 153.499C347.167 151.391 345.442 149.666 343.333 149.666H312.667C310.558 149.666 308.833 151.391 308.833 153.499V172.666C308.833 174.774 310.558 176.499 312.667 176.499H305V180.333H351V176.499H343.333ZM312.667 153.499H343.333V172.666H312.667V153.499Z" fill="#323232"/>
<circle cx="280" cy="74" r="33" fill="white"/>
<path d="M293.304 69.6009V59.8414H287.78V64.6291L280.414 58L262 74.5727H267.524V89.3039H278.573V78.2555H282.255V89.3039H293.304V74.5727H298.828L293.304 69.6009ZM289.621 85.6211H285.938V74.5727H274.89V85.6211H271.207V71.2397L280.414 62.9534L289.621 71.2397V85.6211Z" fill="#323232"/>
<path d="M276.727 70.8898H284.092C284.092 68.8643 282.435 67.207 280.409 67.207C278.384 67.207 276.727 68.8643 276.727 70.8898Z" fill="#323232"/>
</svg>
