<svg width="1104" height="276" viewBox="0 0 1104 276" fill="none" xmlns="http://www.w3.org/2000/svg">
<path d="M464.68 21V14.44H456.48V21H455.26V7H456.48V13.28H464.68V7H465.9V21H464.68ZM473.176 21L468.556 10.66H469.816L471.616 14.66L473.756 19.48L475.876 14.66L477.696 10.66H478.936L474.316 21H473.176ZM485.557 21.26C482.357 21.26 480.117 19.02 480.117 15.82C480.117 12.64 482.357 10.4 485.557 10.4C488.737 10.4 490.977 12.64 490.977 15.82C490.977 19.02 488.737 21.26 485.557 21.26ZM481.277 15.82C481.277 18.38 483.017 20.14 485.557 20.14C488.077 20.14 489.817 18.38 489.817 15.82C489.817 13.28 488.077 11.52 485.557 11.52C483.017 11.52 481.277 13.28 481.277 15.82ZM494.201 21V10.66H495.181L495.301 12.98C496.001 11.42 497.181 10.66 499.101 10.66H499.961V11.74H499.061C496.841 11.74 495.361 13.1 495.361 16.24V21H494.201ZM506.472 21.26C503.352 21.26 501.172 18.96 501.172 15.82C501.172 12.68 503.352 10.4 506.472 10.4C508.372 10.4 509.912 11.24 510.832 12.58V6.2H511.992V21H511.032L510.892 18.96C509.992 20.38 508.412 21.26 506.472 21.26ZM502.332 15.82C502.332 18.36 504.072 20.14 506.612 20.14C509.132 20.14 510.872 18.36 510.872 15.82C510.872 13.3 509.132 11.52 506.612 11.52C504.072 11.52 502.332 13.3 502.332 15.82ZM519.355 21.16C516.955 21.16 515.455 19.98 515.455 18.08C515.455 16.24 516.855 15.08 518.975 15.08H523.535V14.34C523.535 12.62 522.275 11.48 520.355 11.48C518.795 11.48 517.575 12.28 517.155 13.52H515.975C516.475 11.6 518.135 10.4 520.335 10.4C522.915 10.4 524.695 11.98 524.695 14.28V21H523.735L523.615 19.22C522.715 20.46 521.195 21.16 519.355 21.16ZM516.615 18.06C516.615 19.32 517.675 20.12 519.395 20.12C521.795 20.12 523.555 18.62 523.555 16.54V16.1H519.015C517.595 16.1 516.615 16.88 516.615 18.06ZM528.595 21V10.66H529.575L529.675 12.66C530.495 11.18 531.935 10.4 533.595 10.4C536.295 10.4 537.955 12.3 537.955 15.28V21H536.795V15.38C536.795 13 535.515 11.52 533.455 11.52C531.275 11.52 529.755 13.18 529.755 15.64V21H528.595ZM547.208 21V10.66H548.188L548.288 12.66C549.108 11.18 550.548 10.4 552.208 10.4C554.908 10.4 556.568 12.3 556.568 15.28V21H555.408V15.38C555.408 13 554.128 11.52 552.068 11.52C549.888 11.52 548.368 13.18 548.368 15.64V21H547.208ZM563.71 21.16C561.31 21.16 559.81 19.98 559.81 18.08C559.81 16.24 561.21 15.08 563.33 15.08H567.89V14.34C567.89 12.62 566.63 11.48 564.71 11.48C563.15 11.48 561.93 12.28 561.51 13.52H560.33C560.83 11.6 562.49 10.4 564.69 10.4C567.27 10.4 569.05 11.98 569.05 14.28V21H568.09L567.97 19.22C567.07 20.46 565.55 21.16 563.71 21.16ZM560.97 18.06C560.97 19.32 562.03 20.12 563.75 20.12C566.15 20.12 567.91 18.62 567.91 16.54V16.1H563.37C561.95 16.1 560.97 16.88 560.97 18.06ZM562.49 7.1C562.49 5.84 563.43 4.96 564.69 4.96C565.95 4.96 566.89 5.84 566.89 7.1C566.89 8.36 565.95 9.22 564.69 9.22C563.43 9.22 562.49 8.36 562.49 7.1ZM563.35 7.1C563.35 7.88 563.91 8.44 564.69 8.44C565.47 8.44 566.03 7.88 566.03 7.1C566.03 6.3 565.47 5.74 564.69 5.74C563.91 5.74 563.35 6.3 563.35 7.1ZM572.951 21V10.66H573.931L574.051 12.98C574.751 11.42 575.931 10.66 577.851 10.66H578.711V11.74H577.811C575.591 11.74 574.111 13.1 574.111 16.24V21H572.951ZM589.133 21L584.513 10.66H585.773L587.573 14.66L589.713 19.48L591.833 14.66L593.653 10.66H594.893L590.273 21H589.133ZM597.365 21V10.66H598.525V21H597.365ZM596.885 7.72C596.885 7.14 597.305 6.68 597.945 6.68C598.585 6.68 599.005 7.14 599.005 7.72C599.005 8.32 598.585 8.78 597.945 8.78C597.305 8.78 596.885 8.32 596.885 7.72ZM611.972 21.26C609.312 21.26 607.672 19.36 607.672 16.38V10.66H608.832V16.28C608.832 18.64 610.092 20.14 612.132 20.14C614.272 20.14 615.752 18.46 615.752 16V10.66H616.912V21H615.952L615.832 18.98C615.032 20.48 613.592 21.26 611.972 21.26ZM625.237 21C623.037 21 621.857 19.76 621.857 17.42V11.72H619.597V10.66H620.917C621.697 10.66 621.917 10.46 621.997 9.7L622.097 8.12H623.017V10.66H626.597V11.72H623.017V17.38C623.017 19.08 623.717 19.88 625.277 19.88H626.737V21H625.237ZM638.811 21C636.611 21 635.431 19.76 635.431 17.42V11.72H633.171V10.66H634.491C635.271 10.66 635.491 10.46 635.571 9.7L635.671 8.12H636.591V10.66H640.171V11.72H636.591V17.38C636.591 19.08 637.291 19.88 638.851 19.88H640.311V21H638.811ZM643.419 21V10.66H644.579V21H643.419ZM642.939 7.72C642.939 7.14 643.359 6.68 643.999 6.68C644.639 6.68 645.059 7.14 645.059 7.72C645.059 8.32 644.639 8.78 643.999 8.78C643.359 8.78 642.939 8.32 642.939 7.72ZM648.693 21V6.2H649.853V21H648.693ZM460.58 50.26C458.64 50.26 457.06 49.36 456.16 47.94L456.04 50H455.06V35.2H456.22V41.62C457.14 40.24 458.68 39.4 460.58 39.4C463.72 39.4 465.88 41.68 465.88 44.82C465.88 47.96 463.72 50.26 460.58 50.26ZM456.18 44.82C456.18 47.36 457.92 49.14 460.46 49.14C463 49.14 464.72 47.36 464.72 44.82C464.72 42.3 463 40.52 460.46 40.52C457.92 40.52 456.18 42.3 456.18 44.82ZM469.103 50V39.66H470.083L470.203 41.98C470.903 40.42 472.083 39.66 474.003 39.66H474.863V40.74H473.963C471.743 40.74 470.263 42.1 470.263 45.24V50H469.103ZM481.855 50.26C479.195 50.26 477.555 48.36 477.555 45.38V39.66H478.715V45.28C478.715 47.64 479.975 49.14 482.015 49.14C484.155 49.14 485.635 47.46 485.635 45V39.66H486.795V50H485.835L485.715 47.98C484.915 49.48 483.475 50.26 481.855 50.26ZM490.919 50V35.2H492.079V44.2H493.599C495.519 44.2 496.359 43.7 497.019 41.96L497.899 39.66H499.139L498.099 42.4C497.639 43.56 497.099 44.3 496.279 44.74L499.639 50H498.259L495.199 45.14C494.719 45.24 494.179 45.28 493.559 45.28H492.079V50H490.919ZM506.549 50.26C503.409 50.26 501.269 48.04 501.269 44.82C501.269 41.62 503.429 39.4 506.569 39.4C509.829 39.4 511.929 41.8 511.849 45.3H502.449C502.649 47.64 504.249 49.16 506.549 49.16C508.229 49.16 509.569 48.38 510.249 47.04L511.549 47.06C510.749 49.04 508.869 50.26 506.549 50.26ZM502.449 44.28H510.709C510.429 41.94 508.829 40.5 506.569 40.5C504.269 40.5 502.649 42 502.449 44.28ZM515.021 50V39.66H516.001L516.121 41.98C516.821 40.42 518.001 39.66 519.921 39.66H520.781V40.74H519.881C517.661 40.74 516.181 42.1 516.181 45.24V50H515.021ZM527.432 54.26C524.892 54.26 523.012 52.92 522.612 50.82H523.792C524.132 52.26 525.532 53.16 527.432 53.16C529.812 53.16 531.332 51.76 531.332 49.54V47.86C530.412 49.12 528.932 49.88 527.172 49.88C524.152 49.88 521.992 47.68 521.992 44.64C521.992 41.6 524.152 39.4 527.172 39.4C528.992 39.4 530.492 40.2 531.412 41.52L531.512 39.66H532.492V49.58C532.492 52.36 530.452 54.26 527.432 54.26ZM523.152 44.64C523.152 47.06 524.852 48.74 527.292 48.74C529.712 48.74 531.412 47.06 531.412 44.64C531.412 42.22 529.712 40.52 527.292 40.52C524.852 40.52 523.152 42.22 523.152 44.64ZM536.603 50V39.66H537.583L537.703 41.98C538.403 40.42 539.583 39.66 541.503 39.66H542.363V40.74H541.463C539.243 40.74 537.763 42.1 537.763 45.24V50H536.603ZM549.355 50.26C546.695 50.26 545.055 48.36 545.055 45.38V39.66H546.215V45.28C546.215 47.64 547.475 49.14 549.515 49.14C551.655 49.14 553.135 47.46 553.135 45V39.66H554.295V50H553.335L553.215 47.98C552.415 49.48 550.975 50.26 549.355 50.26ZM563.939 50.26C562.039 50.26 560.499 49.4 559.579 48.04V54H558.419V39.66H559.399L559.519 41.72C560.419 40.28 561.999 39.4 563.939 39.4C567.079 39.4 569.239 41.68 569.239 44.82C569.239 47.96 567.079 50.26 563.939 50.26ZM559.539 44.82C559.539 47.36 561.279 49.14 563.819 49.14C566.359 49.14 568.079 47.36 568.079 44.82C568.079 42.3 566.359 40.52 563.819 40.52C561.279 40.52 559.539 42.3 559.539 44.82ZM577.982 50.26C576.082 50.26 574.542 49.4 573.622 48.04V54H572.462V39.66H573.442L573.562 41.72C574.462 40.28 576.042 39.4 577.982 39.4C581.122 39.4 583.282 41.68 583.282 44.82C583.282 47.96 581.122 50.26 577.982 50.26ZM573.582 44.82C573.582 47.36 575.322 49.14 577.862 49.14C580.402 49.14 582.122 47.36 582.122 44.82C582.122 42.3 580.402 40.52 577.862 40.52C575.322 40.52 573.582 42.3 573.582 44.82ZM590.885 50.26C587.745 50.26 585.605 48.04 585.605 44.82C585.605 41.62 587.765 39.4 590.905 39.4C594.165 39.4 596.265 41.8 596.185 45.3H586.785C586.985 47.64 588.585 49.16 590.885 49.16C592.565 49.16 593.905 48.38 594.585 47.04L595.885 47.06C595.085 49.04 593.205 50.26 590.885 50.26ZM586.785 44.28H595.045C594.765 41.94 593.165 40.5 590.905 40.5C588.605 40.5 586.985 42 586.785 44.28ZM599.357 50V39.66H600.337L600.437 41.66C601.257 40.18 602.697 39.4 604.357 39.4C607.057 39.4 608.717 41.3 608.717 44.28V50H607.557V44.38C607.557 42 606.277 40.52 604.217 40.52C602.037 40.52 600.517 42.18 600.517 44.64V50H599.357ZM615.012 45.64C615.012 44.26 615.572 43.38 617.072 42.46C618.552 41.52 619.072 40.76 619.072 39.56C619.072 37.9 617.912 36.9 615.932 36.9C613.972 36.9 612.692 37.92 612.592 39.64H611.412C611.552 37.22 613.252 35.74 615.892 35.74C618.512 35.74 620.252 37.24 620.252 39.52C620.252 41.04 619.492 42.24 617.712 43.36C616.512 44.1 616.192 44.64 616.192 45.72V46.16H615.012V45.64ZM614.532 49.08C614.532 48.46 614.972 48.04 615.612 48.04C616.232 48.04 616.672 48.46 616.672 49.08C616.672 49.7 616.232 50.12 615.612 50.12C614.972 50.12 614.532 49.7 614.532 49.08Z" fill="black"/>
<path d="M219.68 224V217.44H211.48V224H210.26V210H211.48V216.28H219.68V210H220.9V224H219.68ZM228.176 224L223.556 213.66H224.816L226.616 217.66L228.756 222.48L230.876 217.66L232.696 213.66H233.936L229.316 224H228.176ZM239.101 224.16C236.701 224.16 235.201 222.98 235.201 221.08C235.201 219.24 236.601 218.08 238.721 218.08H243.281V217.34C243.281 215.62 242.021 214.48 240.101 214.48C238.541 214.48 237.321 215.28 236.901 216.52H235.721C236.221 214.6 237.881 213.4 240.081 213.4C242.661 213.4 244.441 214.98 244.441 217.28V224H243.481L243.361 222.22C242.461 223.46 240.941 224.16 239.101 224.16ZM236.361 221.06C236.361 222.32 237.421 223.12 239.141 223.12C241.541 223.12 243.301 221.62 243.301 219.54V219.1H238.761C237.341 219.1 236.361 219.88 236.361 221.06ZM256.184 224L251.564 213.66H252.824L254.624 217.66L256.764 222.48L258.884 217.66L260.704 213.66H261.944L257.324 224H256.184ZM264.415 224V213.66H265.575V224H264.415ZM263.935 210.72C263.935 210.14 264.355 209.68 264.995 209.68C265.635 209.68 266.055 210.14 266.055 210.72C266.055 211.32 265.635 211.78 264.995 211.78C264.355 211.78 263.935 211.32 263.935 210.72ZM269.689 224V209.2H270.849V224H269.689ZM284.245 224.26C281.125 224.26 278.945 221.96 278.945 218.82C278.945 215.68 281.125 213.4 284.245 213.4C286.145 213.4 287.685 214.24 288.605 215.58V209.2H289.765V224H288.805L288.665 221.96C287.765 223.38 286.185 224.26 284.245 224.26ZM280.105 218.82C280.105 221.36 281.845 223.14 284.385 223.14C286.905 223.14 288.645 221.36 288.645 218.82C288.645 216.3 286.905 214.52 284.385 214.52C281.845 214.52 280.105 216.3 280.105 218.82ZM298.268 224.26C295.128 224.26 292.988 222.04 292.988 218.82C292.988 215.62 295.148 213.4 298.288 213.4C301.548 213.4 303.648 215.8 303.568 219.3H294.168C294.368 221.64 295.968 223.16 298.268 223.16C299.948 223.16 301.288 222.38 301.968 221.04L303.268 221.06C302.468 223.04 300.588 224.26 298.268 224.26ZM294.168 218.28H302.428C302.148 215.94 300.548 214.5 298.288 214.5C295.988 214.5 294.368 216 294.168 218.28ZM310.608 224C308.408 224 307.228 222.76 307.228 220.42V214.72H304.968V213.66H306.288C307.068 213.66 307.288 213.46 307.368 212.7L307.468 211.12H308.388V213.66H311.968V214.72H308.388V220.38C308.388 222.08 309.088 222.88 310.648 222.88H312.108V224H310.608ZM323.698 224.26C321.078 224.26 319.418 222.94 319.338 220.88H320.478C320.598 222.34 321.738 223.2 323.718 223.2C325.538 223.2 326.638 222.5 326.638 221.36C326.638 220.28 325.658 219.62 323.458 219.24C320.758 218.78 319.538 217.82 319.538 216.24C319.538 214.48 321.038 213.4 323.458 213.4C325.898 213.4 327.438 214.56 327.598 216.54H326.438C326.318 215.18 325.258 214.44 323.458 214.44C321.738 214.44 320.698 215.14 320.698 216.26C320.698 217.28 321.558 217.84 323.858 218.28C326.478 218.78 327.778 219.82 327.778 221.38C327.778 223.12 326.198 224.26 323.698 224.26ZM331.134 224V213.66H332.294V224H331.134ZM330.654 210.72C330.654 210.14 331.074 209.68 331.714 209.68C332.354 209.68 332.774 210.14 332.774 210.72C332.774 211.32 332.354 211.78 331.714 211.78C331.074 211.78 330.654 211.32 330.654 210.72ZM344.999 224.16C342.599 224.16 341.099 222.98 341.099 221.08C341.099 219.24 342.499 218.08 344.619 218.08H349.179V217.34C349.179 215.62 347.919 214.48 345.999 214.48C344.439 214.48 343.219 215.28 342.799 216.52H341.619C342.119 214.6 343.779 213.4 345.979 213.4C348.559 213.4 350.339 214.98 350.339 217.28V224H349.379L349.259 222.22C348.359 223.46 346.839 224.16 344.999 224.16ZM342.259 221.06C342.259 222.32 343.319 223.12 345.039 223.12C347.439 223.12 349.199 221.62 349.199 219.54V219.1H344.659C343.239 219.1 342.259 219.88 342.259 221.06ZM343.779 210.1C343.779 208.84 344.719 207.96 345.979 207.96C347.239 207.96 348.179 208.84 348.179 210.1C348.179 211.36 347.239 212.22 345.979 212.22C344.719 212.22 343.779 211.36 343.779 210.1ZM344.639 210.1C344.639 210.88 345.199 211.44 345.979 211.44C346.759 211.44 347.319 210.88 347.319 210.1C347.319 209.3 346.759 208.74 345.979 208.74C345.199 208.74 344.639 209.3 344.639 210.1ZM363.205 224C361.005 224 359.825 222.76 359.825 220.42V214.72H357.565V213.66H358.885C359.665 213.66 359.885 213.46 359.965 212.7L360.065 211.12H360.985V213.66H364.565V214.72H360.985V220.38C360.985 222.08 361.685 222.88 363.245 222.88H364.705V224H363.205ZM367.814 224V213.66H368.974V224H367.814ZM367.334 210.72C367.334 210.14 367.754 209.68 368.394 209.68C369.034 209.68 369.454 210.14 369.454 210.72C369.454 211.32 369.034 211.78 368.394 211.78C367.754 211.78 367.334 211.32 367.334 210.72ZM377.487 224.26C374.367 224.26 372.187 221.96 372.187 218.82C372.187 215.68 374.367 213.4 377.487 213.4C379.387 213.4 380.927 214.24 381.847 215.58V209.2H383.007V224H382.047L381.907 221.96C381.007 223.38 379.427 224.26 377.487 224.26ZM373.347 218.82C373.347 221.36 375.087 223.14 377.627 223.14C380.147 223.14 381.887 221.36 381.887 218.82C381.887 216.3 380.147 214.52 377.627 214.52C375.087 214.52 373.347 216.3 373.347 218.82ZM390.69 224.26C388.07 224.26 386.41 222.94 386.33 220.88H387.47C387.59 222.34 388.73 223.2 390.71 223.2C392.53 223.2 393.63 222.5 393.63 221.36C393.63 220.28 392.65 219.62 390.45 219.24C387.75 218.78 386.53 217.82 386.53 216.24C386.53 214.48 388.03 213.4 390.45 213.4C392.89 213.4 394.43 214.56 394.59 216.54H393.43C393.31 215.18 392.25 214.44 390.45 214.44C388.73 214.44 387.69 215.14 387.69 216.26C387.69 217.28 388.55 217.84 390.85 218.28C393.47 218.78 394.77 219.82 394.77 221.38C394.77 223.12 393.19 224.26 390.69 224.26ZM403.646 224.26C401.746 224.26 400.206 223.4 399.286 222.04V228H398.126V213.66H399.106L399.226 215.72C400.126 214.28 401.706 213.4 403.646 213.4C406.786 213.4 408.946 215.68 408.946 218.82C408.946 221.96 406.786 224.26 403.646 224.26ZM399.246 218.82C399.246 221.36 400.986 223.14 403.526 223.14C406.066 223.14 407.786 221.36 407.786 218.82C407.786 216.3 406.066 214.52 403.526 214.52C400.986 214.52 399.246 216.3 399.246 218.82ZM412.169 224V209.2H413.329V224H412.169ZM420.683 224.16C418.283 224.16 416.783 222.98 416.783 221.08C416.783 219.24 418.183 218.08 420.303 218.08H424.863V217.34C424.863 215.62 423.603 214.48 421.683 214.48C420.123 214.48 418.903 215.28 418.483 216.52H417.303C417.803 214.6 419.463 213.4 421.663 213.4C424.243 213.4 426.023 214.98 426.023 217.28V224H425.063L424.943 222.22C424.043 223.46 422.523 224.16 420.683 224.16ZM417.943 221.06C417.943 222.32 419.003 223.12 420.723 223.12C423.123 223.12 424.883 221.62 424.883 219.54V219.1H420.343C418.923 219.1 417.943 219.88 417.943 221.06ZM429.923 224V213.66H430.903L431.003 215.66C431.823 214.18 433.263 213.4 434.923 213.4C437.623 213.4 439.283 215.3 439.283 218.28V224H438.123V218.38C438.123 216 436.843 214.52 434.783 214.52C432.603 214.52 431.083 216.18 431.083 218.64V224H429.923ZM443.185 224V209.2H444.345V224H443.185ZM452.838 224.26C449.698 224.26 447.558 222.04 447.558 218.82C447.558 215.62 449.718 213.4 452.858 213.4C456.118 213.4 458.218 215.8 458.138 219.3H448.738C448.938 221.64 450.538 223.16 452.838 223.16C454.518 223.16 455.858 222.38 456.538 221.04L457.838 221.06C457.038 223.04 455.158 224.26 452.838 224.26ZM448.738 218.28H456.998C456.718 215.94 455.118 214.5 452.858 214.5C450.558 214.5 448.938 216 448.738 218.28ZM465.85 228.26C463.31 228.26 461.43 226.92 461.03 224.82H462.21C462.55 226.26 463.95 227.16 465.85 227.16C468.23 227.16 469.75 225.76 469.75 223.54V221.86C468.83 223.12 467.35 223.88 465.59 223.88C462.57 223.88 460.41 221.68 460.41 218.64C460.41 215.6 462.57 213.4 465.59 213.4C467.41 213.4 468.91 214.2 469.83 215.52L469.93 213.66H470.91V223.58C470.91 226.36 468.87 228.26 465.85 228.26ZM461.57 218.64C461.57 221.06 463.27 222.74 465.71 222.74C468.13 222.74 469.83 221.06 469.83 218.64C469.83 216.22 468.13 214.52 465.71 214.52C463.27 214.52 461.57 216.22 461.57 218.64ZM479.561 228.26C477.021 228.26 475.141 226.92 474.741 224.82H475.921C476.261 226.26 477.661 227.16 479.561 227.16C481.941 227.16 483.461 225.76 483.461 223.54V221.86C482.541 223.12 481.061 223.88 479.301 223.88C476.281 223.88 474.121 221.68 474.121 218.64C474.121 215.6 476.281 213.4 479.301 213.4C481.121 213.4 482.621 214.2 483.541 215.52L483.641 213.66H484.621V223.58C484.621 226.36 482.581 228.26 479.561 228.26ZM475.281 218.64C475.281 221.06 476.981 222.74 479.421 222.74C481.841 222.74 483.541 221.06 483.541 218.64C483.541 216.22 481.841 214.52 479.421 214.52C476.981 214.52 475.281 216.22 475.281 218.64ZM493.112 224.26C489.972 224.26 487.832 222.04 487.832 218.82C487.832 215.62 489.992 213.4 493.132 213.4C496.392 213.4 498.492 215.8 498.412 219.3H489.012C489.212 221.64 490.812 223.16 493.112 223.16C494.792 223.16 496.132 222.38 496.812 221.04L498.112 221.06C497.312 223.04 495.432 224.26 493.112 224.26ZM489.012 218.28H497.272C496.992 215.94 495.392 214.5 493.132 214.5C490.832 214.5 489.212 216 489.012 218.28ZM508.703 219.64C508.703 218.26 509.263 217.38 510.763 216.46C512.243 215.52 512.763 214.76 512.763 213.56C512.763 211.9 511.603 210.9 509.623 210.9C507.663 210.9 506.383 211.92 506.283 213.64H505.103C505.243 211.22 506.943 209.74 509.583 209.74C512.203 209.74 513.943 211.24 513.943 213.52C513.943 215.04 513.183 216.24 511.403 217.36C510.203 218.1 509.883 218.64 509.883 219.72V220.16H508.703V219.64ZM508.223 223.08C508.223 222.46 508.663 222.04 509.303 222.04C509.923 222.04 510.363 222.46 510.363 223.08C510.363 223.7 509.923 224.12 509.303 224.12C508.663 224.12 508.223 223.7 508.223 223.08Z" fill="black"/>
<path d="M663.68 239V232.44H655.48V239H654.26V225H655.48V231.28H663.68V225H664.9V239H663.68ZM672.176 239L667.556 228.66H668.816L670.616 232.66L672.756 237.48L674.876 232.66L676.696 228.66H677.936L673.316 239H672.176ZM680.408 239V228.66H681.568V239H680.408ZM679.928 225.72C679.928 225.14 680.348 224.68 680.988 224.68C681.628 224.68 682.048 225.14 682.048 225.72C682.048 226.32 681.628 226.78 680.988 226.78C680.348 226.78 679.928 226.32 679.928 225.72ZM685.681 239V224.2H686.841V239H685.681ZM690.955 239V224.2H692.115V233.2H693.635C695.555 233.2 696.395 232.7 697.055 230.96L697.935 228.66H699.175L698.135 231.4C697.675 232.56 697.135 233.3 696.315 233.74L699.675 239H698.295L695.235 234.14C694.755 234.24 694.215 234.28 693.595 234.28H692.115V239H690.955ZM706.585 239.26C703.445 239.26 701.305 237.04 701.305 233.82C701.305 230.62 703.465 228.4 706.605 228.4C709.865 228.4 711.965 230.8 711.885 234.3H702.485C702.685 236.64 704.285 238.16 706.585 238.16C708.265 238.16 709.605 237.38 710.285 236.04L711.585 236.06C710.785 238.04 708.905 239.26 706.585 239.26ZM702.485 233.28H710.745C710.465 230.94 708.865 229.5 706.605 229.5C704.305 229.5 702.685 231 702.485 233.28ZM719.939 239V228.66H720.919L721.019 230.34C721.739 229.08 722.999 228.4 724.599 228.4C726.399 228.4 727.779 229.3 728.379 230.88C729.079 229.3 730.499 228.4 732.319 228.4C734.919 228.4 736.599 230.18 736.599 233.06V239H735.439V233.24C735.439 230.94 734.159 229.52 732.179 229.52C730.159 229.52 728.839 230.98 728.839 233.32V239H727.679V233.24C727.679 230.94 726.419 229.52 724.439 229.52C722.419 229.52 721.099 230.98 721.099 233.32V239H719.939ZM744.866 239.26C741.726 239.26 739.586 237.04 739.586 233.82C739.586 230.62 741.746 228.4 744.886 228.4C748.146 228.4 750.246 230.8 750.166 234.3H740.766C740.966 236.64 742.566 238.16 744.866 238.16C746.546 238.16 747.886 237.38 748.566 236.04L749.866 236.06C749.066 238.04 747.186 239.26 744.866 239.26ZM740.766 233.28H749.026C748.746 230.94 747.146 229.5 744.886 229.5C742.586 229.5 740.966 231 740.766 233.28ZM757.205 239C755.005 239 753.825 237.76 753.825 235.42V229.72H751.565V228.66H752.885C753.665 228.66 753.885 228.46 753.965 227.7L754.065 226.12H754.985V228.66H758.565V229.72H754.985V235.38C754.985 237.08 755.685 237.88 757.245 237.88H758.705V239H757.205ZM765.846 239.26C762.646 239.26 760.406 237.02 760.406 233.82C760.406 230.64 762.646 228.4 765.846 228.4C769.026 228.4 771.266 230.64 771.266 233.82C771.266 237.02 769.026 239.26 765.846 239.26ZM761.566 233.82C761.566 236.38 763.306 238.14 765.846 238.14C768.366 238.14 770.106 236.38 770.106 233.82C770.106 231.28 768.366 229.52 765.846 229.52C763.306 229.52 761.566 231.28 761.566 233.82ZM778.89 239.26C775.77 239.26 773.59 236.96 773.59 233.82C773.59 230.68 775.77 228.4 778.89 228.4C780.79 228.4 782.33 229.24 783.25 230.58V224.2H784.41V239H783.45L783.31 236.96C782.41 238.38 780.83 239.26 778.89 239.26ZM774.75 233.82C774.75 236.36 776.49 238.14 779.03 238.14C781.55 238.14 783.29 236.36 783.29 233.82C783.29 231.3 781.55 229.52 779.03 229.52C776.49 229.52 774.75 231.3 774.75 233.82ZM792.913 239.26C789.773 239.26 787.633 237.04 787.633 233.82C787.633 230.62 789.793 228.4 792.933 228.4C796.193 228.4 798.293 230.8 798.213 234.3H788.813C789.013 236.64 790.613 238.16 792.913 238.16C794.593 238.16 795.933 237.38 796.613 236.04L797.913 236.06C797.113 238.04 795.233 239.26 792.913 239.26ZM788.813 233.28H797.073C796.793 230.94 795.193 229.5 792.933 229.5C790.633 229.5 789.013 231 788.813 233.28ZM801.384 239V228.66H802.364L802.484 230.98C803.184 229.42 804.364 228.66 806.284 228.66H807.144V229.74H806.244C804.024 229.74 802.544 231.1 802.544 234.24V239H801.384ZM822.974 239V229.72H816.454V239H815.294V229.72H812.934V228.66H815.294V227.46C815.294 225.12 816.474 223.94 818.814 223.94H820.314V225.04H818.914C817.194 225.04 816.454 225.78 816.454 227.54V228.66H824.134V239H822.974ZM822.474 225.72C822.474 225.14 822.914 224.68 823.554 224.68C824.174 224.68 824.614 225.14 824.614 225.72C824.614 226.32 824.174 226.78 823.554 226.78C822.914 226.78 822.474 226.32 822.474 225.72ZM828.259 239V228.66H829.239L829.339 230.66C830.159 229.18 831.599 228.4 833.259 228.4C835.959 228.4 837.619 230.3 837.619 233.28V239H836.459V233.38C836.459 231 835.179 229.52 833.119 229.52C830.939 229.52 829.419 231.18 829.419 233.64V239H828.259ZM841.521 239V228.66H842.501L842.601 230.66C843.421 229.18 844.861 228.4 846.521 228.4C849.221 228.4 850.881 230.3 850.881 233.28V239H849.721V233.38C849.721 231 848.441 229.52 846.381 229.52C844.201 229.52 842.681 231.18 842.681 233.64V239H841.521ZM859.163 239.26C856.023 239.26 853.883 237.04 853.883 233.82C853.883 230.62 856.043 228.4 859.183 228.4C862.443 228.4 864.543 230.8 864.463 234.3H855.063C855.263 236.64 856.863 238.16 859.163 238.16C860.843 238.16 862.183 237.38 862.863 236.04L864.163 236.06C863.363 238.04 861.483 239.26 859.163 239.26ZM855.063 233.28H863.323C863.043 230.94 861.443 229.5 859.183 229.5C856.883 229.5 855.263 231 855.063 233.28ZM871.194 239.26C868.574 239.26 866.914 237.94 866.834 235.88H867.974C868.094 237.34 869.234 238.2 871.214 238.2C873.034 238.2 874.134 237.5 874.134 236.36C874.134 235.28 873.154 234.62 870.954 234.24C868.254 233.78 867.034 232.82 867.034 231.24C867.034 229.48 868.534 228.4 870.954 228.4C873.394 228.4 874.934 229.56 875.094 231.54H873.934C873.814 230.18 872.754 229.44 870.954 229.44C869.234 229.44 868.194 230.14 868.194 231.26C868.194 232.28 869.054 232.84 871.354 233.28C873.974 233.78 875.274 234.82 875.274 236.38C875.274 238.12 873.694 239.26 871.194 239.26ZM887.483 239.26C884.363 239.26 882.183 236.96 882.183 233.82C882.183 230.68 884.363 228.4 887.483 228.4C889.383 228.4 890.923 229.24 891.843 230.58V224.2H893.003V239H892.043L891.903 236.96C891.003 238.38 889.423 239.26 887.483 239.26ZM883.343 233.82C883.343 236.36 885.083 238.14 887.623 238.14C890.143 238.14 891.883 236.36 891.883 233.82C891.883 231.3 890.143 229.52 887.623 229.52C885.083 229.52 883.343 231.3 883.343 233.82ZM901.506 239.26C898.366 239.26 896.226 237.04 896.226 233.82C896.226 230.62 898.386 228.4 901.526 228.4C904.786 228.4 906.886 230.8 906.806 234.3H897.406C897.606 236.64 899.206 238.16 901.506 238.16C903.186 238.16 904.526 237.38 905.206 236.04L906.506 236.06C905.706 238.04 903.826 239.26 901.506 239.26ZM897.406 233.28H905.666C905.386 230.94 903.786 229.5 901.526 229.5C899.226 229.5 897.606 231 897.406 233.28ZM913.846 239C911.646 239 910.466 237.76 910.466 235.42V229.72H908.206V228.66H909.526C910.306 228.66 910.526 228.46 910.606 227.7L910.706 226.12H911.626V228.66H915.206V229.72H911.626V235.38C911.626 237.08 912.326 237.88 913.886 237.88H915.346V239H913.846ZM924.025 227.46C924.025 225.1 925.185 223.94 927.485 223.94H929.105V225.04H927.585C925.905 225.04 925.185 225.78 925.185 227.54V228.66H929.005V229.72H925.185V239H924.025V229.72H921.665V228.66H924.025V227.46ZM935.573 239.26C932.373 239.26 930.133 237.02 930.133 233.82C930.133 230.64 932.373 228.4 935.573 228.4C938.753 228.4 940.993 230.64 940.993 233.82C940.993 237.02 938.753 239.26 935.573 239.26ZM931.293 233.82C931.293 236.38 933.033 238.14 935.573 238.14C938.093 238.14 939.833 236.38 939.833 233.82C939.833 231.28 938.093 229.52 935.573 229.52C933.033 229.52 931.293 231.28 931.293 233.82ZM944.216 239V228.66H945.196L945.316 230.98C946.016 229.42 947.196 228.66 949.116 228.66H949.976V229.74H949.076C946.856 229.74 945.376 231.1 945.376 234.24V239H944.216ZM658.26 268C656.06 268 654.88 266.76 654.88 264.42V258.72H652.62V257.66H653.94C654.72 257.66 654.94 257.46 655.02 256.7L655.12 255.12H656.04V257.66H659.62V258.72H656.04V264.38C656.04 266.08 656.74 266.88 658.3 266.88H659.76V268H658.26ZM662.869 268V257.66H664.029V268H662.869ZM662.389 254.72C662.389 254.14 662.809 253.68 663.449 253.68C664.089 253.68 664.509 254.14 664.509 254.72C664.509 255.32 664.089 255.78 663.449 255.78C662.809 255.78 662.389 255.32 662.389 254.72ZM672.542 268.26C669.422 268.26 667.242 265.96 667.242 262.82C667.242 259.68 669.422 257.4 672.542 257.4C674.442 257.4 675.982 258.24 676.902 259.58V253.2H678.062V268H677.102L676.962 265.96C676.062 267.38 674.482 268.26 672.542 268.26ZM668.402 262.82C668.402 265.36 670.142 267.14 672.682 267.14C675.202 267.14 676.942 265.36 676.942 262.82C676.942 260.3 675.202 258.52 672.682 258.52C670.142 258.52 668.402 260.3 668.402 262.82ZM685.745 268.26C683.125 268.26 681.465 266.94 681.385 264.88H682.525C682.645 266.34 683.785 267.2 685.765 267.2C687.585 267.2 688.685 266.5 688.685 265.36C688.685 264.28 687.705 263.62 685.505 263.24C682.805 262.78 681.585 261.82 681.585 260.24C681.585 258.48 683.085 257.4 685.505 257.4C687.945 257.4 689.485 258.56 689.645 260.54H688.485C688.365 259.18 687.305 258.44 685.505 258.44C683.785 258.44 682.745 259.14 682.745 260.26C682.745 261.28 683.605 261.84 685.905 262.28C688.525 262.78 689.825 263.82 689.825 265.38C689.825 267.12 688.245 268.26 685.745 268.26ZM698.701 268.26C696.801 268.26 695.261 267.4 694.341 266.04V272H693.181V257.66H694.161L694.281 259.72C695.181 258.28 696.761 257.4 698.701 257.4C701.841 257.4 704.001 259.68 704.001 262.82C704.001 265.96 701.841 268.26 698.701 268.26ZM694.301 262.82C694.301 265.36 696.041 267.14 698.581 267.14C701.121 267.14 702.841 265.36 702.841 262.82C702.841 260.3 701.121 258.52 698.581 258.52C696.041 258.52 694.301 260.3 694.301 262.82ZM707.224 268V253.2H708.384V268H707.224ZM715.738 268.16C713.338 268.16 711.838 266.98 711.838 265.08C711.838 263.24 713.238 262.08 715.358 262.08H719.918V261.34C719.918 259.62 718.658 258.48 716.738 258.48C715.178 258.48 713.958 259.28 713.538 260.52H712.358C712.858 258.6 714.518 257.4 716.718 257.4C719.298 257.4 721.078 258.98 721.078 261.28V268H720.118L719.998 266.22C719.098 267.46 717.578 268.16 715.738 268.16ZM712.998 265.06C712.998 266.32 714.058 267.12 715.778 267.12C718.178 267.12 719.938 265.62 719.938 263.54V263.1H715.398C713.978 263.1 712.998 263.88 712.998 265.06ZM724.978 268V257.66H725.958L726.058 259.66C726.878 258.18 728.318 257.4 729.978 257.4C732.678 257.4 734.338 259.3 734.338 262.28V268H733.178V262.38C733.178 260 731.898 258.52 729.838 258.52C727.658 258.52 726.138 260.18 726.138 262.64V268H724.978ZM738.24 268V253.2H739.4V268H738.24ZM747.893 268.26C744.753 268.26 742.613 266.04 742.613 262.82C742.613 259.62 744.773 257.4 747.913 257.4C751.173 257.4 753.273 259.8 753.193 263.3H743.793C743.993 265.64 745.593 267.16 747.893 267.16C749.573 267.16 750.913 266.38 751.593 265.04L752.893 265.06C752.093 267.04 750.213 268.26 747.893 268.26ZM743.793 262.28H752.053C751.773 259.94 750.173 258.5 747.913 258.5C745.613 258.5 743.993 260 743.793 262.28ZM760.905 272.26C758.365 272.26 756.485 270.92 756.085 268.82H757.265C757.605 270.26 759.005 271.16 760.905 271.16C763.285 271.16 764.805 269.76 764.805 267.54V265.86C763.885 267.12 762.405 267.88 760.645 267.88C757.625 267.88 755.465 265.68 755.465 262.64C755.465 259.6 757.625 257.4 760.645 257.4C762.465 257.4 763.965 258.2 764.885 259.52L764.985 257.66H765.965V267.58C765.965 270.36 763.925 272.26 760.905 272.26ZM756.625 262.64C756.625 265.06 758.325 266.74 760.765 266.74C763.185 266.74 764.885 265.06 764.885 262.64C764.885 260.22 763.185 258.52 760.765 258.52C758.325 258.52 756.625 260.22 756.625 262.64ZM774.616 272.26C772.076 272.26 770.196 270.92 769.796 268.82H770.976C771.316 270.26 772.716 271.16 774.616 271.16C776.996 271.16 778.516 269.76 778.516 267.54V265.86C777.596 267.12 776.116 267.88 774.356 267.88C771.336 267.88 769.176 265.68 769.176 262.64C769.176 259.6 771.336 257.4 774.356 257.4C776.176 257.4 777.676 258.2 778.596 259.52L778.696 257.66H779.676V267.58C779.676 270.36 777.636 272.26 774.616 272.26ZM770.336 262.64C770.336 265.06 772.036 266.74 774.476 266.74C776.896 266.74 778.596 265.06 778.596 262.64C778.596 260.22 776.896 258.52 774.476 258.52C772.036 258.52 770.336 260.22 770.336 262.64ZM783.787 268V257.66H784.947V268H783.787ZM783.307 254.72C783.307 254.14 783.727 253.68 784.367 253.68C785.007 253.68 785.427 254.14 785.427 254.72C785.427 255.32 785.007 255.78 784.367 255.78C783.727 255.78 783.307 255.32 783.307 254.72ZM789.06 268V257.66H790.04L790.14 259.66C790.96 258.18 792.4 257.4 794.06 257.4C796.76 257.4 798.42 259.3 798.42 262.28V268H797.26V262.38C797.26 260 795.98 258.52 793.92 258.52C791.74 258.52 790.22 260.18 790.22 262.64V268H789.06ZM806.862 272.26C804.322 272.26 802.442 270.92 802.042 268.82H803.222C803.562 270.26 804.962 271.16 806.862 271.16C809.242 271.16 810.762 269.76 810.762 267.54V265.86C809.842 267.12 808.362 267.88 806.602 267.88C803.582 267.88 801.422 265.68 801.422 262.64C801.422 259.6 803.582 257.4 806.602 257.4C808.422 257.4 809.922 258.2 810.842 259.52L810.942 257.66H811.922V267.58C811.922 270.36 809.882 272.26 806.862 272.26ZM802.582 262.64C802.582 265.06 804.282 266.74 806.722 266.74C809.142 266.74 810.842 265.06 810.842 262.64C810.842 260.22 809.142 258.52 806.722 258.52C804.282 258.52 802.582 260.22 802.582 262.64ZM821.384 268V257.66H822.544V268H821.384ZM820.904 254.72C820.904 254.14 821.324 253.68 821.964 253.68C822.604 253.68 823.024 254.14 823.024 254.72C823.024 255.32 822.604 255.78 821.964 255.78C821.324 255.78 820.904 255.32 820.904 254.72ZM831.058 268.26C827.938 268.26 825.758 265.96 825.758 262.82C825.758 259.68 827.938 257.4 831.058 257.4C832.958 257.4 834.498 258.24 835.418 259.58V253.2H836.578V268H835.618L835.478 265.96C834.578 267.38 832.998 268.26 831.058 268.26ZM826.918 262.82C826.918 265.36 828.658 267.14 831.198 267.14C833.718 267.14 835.458 265.36 835.458 262.82C835.458 260.3 833.718 258.52 831.198 258.52C828.658 258.52 826.918 260.3 826.918 262.82ZM843.941 268.16C841.541 268.16 840.041 266.98 840.041 265.08C840.041 263.24 841.441 262.08 843.561 262.08H848.121V261.34C848.121 259.62 846.861 258.48 844.941 258.48C843.381 258.48 842.161 259.28 841.741 260.52H840.561C841.061 258.6 842.721 257.4 844.921 257.4C847.501 257.4 849.281 258.98 849.281 261.28V268H848.321L848.201 266.22C847.301 267.46 845.781 268.16 843.941 268.16ZM841.201 265.06C841.201 266.32 842.261 267.12 843.981 267.12C846.381 267.12 848.141 265.62 848.141 263.54V263.1H843.601C842.181 263.1 841.201 263.88 841.201 265.06ZM857.721 272.26C855.181 272.26 853.301 270.92 852.901 268.82H854.081C854.421 270.26 855.821 271.16 857.721 271.16C860.101 271.16 861.621 269.76 861.621 267.54V265.86C860.701 267.12 859.221 267.88 857.461 267.88C854.441 267.88 852.281 265.68 852.281 262.64C852.281 259.6 854.441 257.4 857.461 257.4C859.281 257.4 860.781 258.2 861.701 259.52L861.801 257.66H862.781V267.58C862.781 270.36 860.741 272.26 857.721 272.26ZM853.441 262.64C853.441 265.06 855.141 266.74 857.581 266.74C860.001 266.74 861.701 265.06 861.701 262.64C861.701 260.22 860.001 258.52 857.581 258.52C855.141 258.52 853.441 260.22 853.441 262.64ZM869.578 263.64C869.578 262.26 870.138 261.38 871.638 260.46C873.118 259.52 873.638 258.76 873.638 257.56C873.638 255.9 872.478 254.9 870.498 254.9C868.538 254.9 867.258 255.92 867.158 257.64H865.978C866.118 255.22 867.818 253.74 870.458 253.74C873.078 253.74 874.818 255.24 874.818 257.52C874.818 259.04 874.058 260.24 872.278 261.36C871.078 262.1 870.758 262.64 870.758 263.72V264.16H869.578V263.64ZM869.098 267.08C869.098 266.46 869.538 266.04 870.178 266.04C870.798 266.04 871.238 266.46 871.238 267.08C871.238 267.7 870.798 268.12 870.178 268.12C869.538 268.12 869.098 267.7 869.098 267.08Z" fill="black"/>
<path d="M753.68 87V80.44H745.48V87H744.26V73H745.48V79.28H753.68V73H754.9V87H753.68ZM762.176 87L757.556 76.66H758.816L760.616 80.66L762.756 85.48L764.876 80.66L766.696 76.66H767.936L763.316 87H762.176ZM774.557 87.26C771.357 87.26 769.117 85.02 769.117 81.82C769.117 78.64 771.357 76.4 774.557 76.4C777.737 76.4 779.977 78.64 779.977 81.82C779.977 85.02 777.737 87.26 774.557 87.26ZM770.277 81.82C770.277 84.38 772.017 86.14 774.557 86.14C777.077 86.14 778.817 84.38 778.817 81.82C778.817 79.28 777.077 77.52 774.557 77.52C772.017 77.52 770.277 79.28 770.277 81.82ZM783.201 87V76.66H784.181L784.301 78.98C785.001 77.42 786.181 76.66 788.101 76.66H788.961V77.74H788.061C785.841 77.74 784.361 79.1 784.361 82.24V87H783.201ZM795.472 87.26C792.352 87.26 790.172 84.96 790.172 81.82C790.172 78.68 792.352 76.4 795.472 76.4C797.372 76.4 798.912 77.24 799.832 78.58V72.2H800.992V87H800.032L799.892 84.96C798.992 86.38 797.412 87.26 795.472 87.26ZM791.332 81.82C791.332 84.36 793.072 86.14 795.612 86.14C798.132 86.14 799.872 84.36 799.872 81.82C799.872 79.3 798.132 77.52 795.612 77.52C793.072 77.52 791.332 79.3 791.332 81.82ZM808.355 87.16C805.955 87.16 804.455 85.98 804.455 84.08C804.455 82.24 805.855 81.08 807.975 81.08H812.535V80.34C812.535 78.62 811.275 77.48 809.355 77.48C807.795 77.48 806.575 78.28 806.155 79.52H804.975C805.475 77.6 807.135 76.4 809.335 76.4C811.915 76.4 813.695 77.98 813.695 80.28V87H812.735L812.615 85.22C811.715 86.46 810.195 87.16 808.355 87.16ZM805.615 84.06C805.615 85.32 806.675 86.12 808.395 86.12C810.795 86.12 812.555 84.62 812.555 82.54V82.1H808.015C806.595 82.1 805.615 82.88 805.615 84.06ZM817.595 87V76.66H818.575L818.675 78.66C819.495 77.18 820.935 76.4 822.595 76.4C825.295 76.4 826.955 78.3 826.955 81.28V87H825.795V81.38C825.795 79 824.515 77.52 822.455 77.52C820.275 77.52 818.755 79.18 818.755 81.64V87H817.595ZM844.107 87V77.72H837.587V87H836.427V77.72H834.067V76.66H836.427V75.46C836.427 73.12 837.607 71.94 839.947 71.94H841.447V73.04H840.047C838.327 73.04 837.587 73.78 837.587 75.54V76.66H845.267V87H844.107ZM843.607 73.72C843.607 73.14 844.047 72.68 844.687 72.68C845.307 72.68 845.747 73.14 845.747 73.72C845.747 74.32 845.307 74.78 844.687 74.78C844.047 74.78 843.607 74.32 843.607 73.72ZM849.392 87V76.66H850.372L850.472 78.66C851.292 77.18 852.732 76.4 854.392 76.4C857.092 76.4 858.752 78.3 858.752 81.28V87H857.592V81.38C857.592 79 856.312 77.52 854.252 77.52C852.072 77.52 850.552 79.18 850.552 81.64V87H849.392ZM862.654 87V76.66H863.634L863.734 78.66C864.554 77.18 865.994 76.4 867.654 76.4C870.354 76.4 872.014 78.3 872.014 81.28V87H870.854V81.38C870.854 79 869.574 77.52 867.514 77.52C865.334 77.52 863.814 79.18 863.814 81.64V87H862.654ZM880.295 87.26C877.155 87.26 875.015 85.04 875.015 81.82C875.015 78.62 877.175 76.4 880.315 76.4C883.575 76.4 885.675 78.8 885.595 82.3H876.195C876.395 84.64 877.995 86.16 880.295 86.16C881.975 86.16 883.315 85.38 883.995 84.04L885.295 84.06C884.495 86.04 882.615 87.26 880.295 87.26ZM876.195 81.28H884.455C884.175 78.94 882.575 77.5 880.315 77.5C878.015 77.5 876.395 79 876.195 81.28ZM888.767 87V76.66H889.747L889.867 78.98C890.567 77.42 891.747 76.66 893.667 76.66H894.527V77.74H893.627C891.407 77.74 889.927 79.1 889.927 82.24V87H888.767ZM904.95 87L900.33 76.66H901.59L903.39 80.66L905.53 85.48L907.65 80.66L909.47 76.66H910.71L906.09 87H904.95ZM913.181 87V76.66H914.341V87H913.181ZM912.701 73.72C912.701 73.14 913.121 72.68 913.761 72.68C914.401 72.68 914.821 73.14 914.821 73.72C914.821 74.32 914.401 74.78 913.761 74.78C913.121 74.78 912.701 74.32 912.701 73.72ZM927.788 87.26C925.128 87.26 923.488 85.36 923.488 82.38V76.66H924.648V82.28C924.648 84.64 925.908 86.14 927.948 86.14C930.088 86.14 931.568 84.46 931.568 82V76.66H932.728V87H931.768L931.648 84.98C930.848 86.48 929.408 87.26 927.788 87.26ZM941.053 87C938.853 87 937.673 85.76 937.673 83.42V77.72H935.413V76.66H936.733C937.513 76.66 937.733 76.46 937.813 75.7L937.913 74.12H938.833V76.66H942.413V77.72H938.833V83.38C938.833 85.08 939.533 85.88 941.093 85.88H942.553V87H941.053ZM951.013 87V72.2H952.173V78.54C952.993 77.12 954.433 76.4 956.053 76.4C958.733 76.4 960.373 78.26 960.373 81.24V87H959.213V81.34C959.213 78.96 957.953 77.52 955.893 77.52C953.713 77.52 952.173 79.14 952.173 81.62V87H951.013ZM966.805 87L962.185 76.66H963.445L965.245 80.66L967.385 85.48L969.505 80.66L971.325 76.66H972.565L967.945 87H966.805ZM977.73 87.16C975.33 87.16 973.83 85.98 973.83 84.08C973.83 82.24 975.23 81.08 977.35 81.08H981.91V80.34C981.91 78.62 980.65 77.48 978.73 77.48C977.17 77.48 975.95 78.28 975.53 79.52H974.35C974.85 77.6 976.51 76.4 978.71 76.4C981.29 76.4 983.07 77.98 983.07 80.28V87H982.11L981.99 85.22C981.09 86.46 979.57 87.16 977.73 87.16ZM974.99 84.06C974.99 85.32 976.05 86.12 977.77 86.12C980.17 86.12 981.93 84.62 981.93 82.54V82.1H977.39C975.97 82.1 974.99 82.88 974.99 84.06ZM995.452 87.26C992.832 87.26 991.172 85.94 991.092 83.88H992.232C992.352 85.34 993.492 86.2 995.472 86.2C997.292 86.2 998.392 85.5 998.392 84.36C998.392 83.28 997.412 82.62 995.212 82.24C992.512 81.78 991.292 80.82 991.292 79.24C991.292 77.48 992.792 76.4 995.212 76.4C997.652 76.4 999.192 77.56 999.352 79.54H998.192C998.072 78.18 997.012 77.44 995.212 77.44C993.492 77.44 992.452 78.14 992.452 79.26C992.452 80.28 993.312 80.84 995.612 81.28C998.232 81.78 999.532 82.82 999.532 84.38C999.532 86.12 997.952 87.26 995.452 87.26ZM1007.43 87.26C1004.23 87.26 1001.99 85.02 1001.99 81.82C1001.99 78.64 1004.23 76.4 1007.43 76.4C1010.61 76.4 1012.85 78.64 1012.85 81.82C1012.85 85.02 1010.61 87.26 1007.43 87.26ZM1003.15 81.82C1003.15 84.38 1004.89 86.14 1007.43 86.14C1009.95 86.14 1011.69 84.38 1011.69 81.82C1011.69 79.28 1009.95 77.52 1007.43 77.52C1004.89 77.52 1003.15 79.28 1003.15 81.82ZM1016.07 87V76.66H1017.05L1017.15 78.34C1017.87 77.08 1019.13 76.4 1020.73 76.4C1022.53 76.4 1023.91 77.3 1024.51 78.88C1025.21 77.3 1026.63 76.4 1028.45 76.4C1031.05 76.4 1032.73 78.18 1032.73 81.06V87H1031.57V81.24C1031.57 78.94 1030.29 77.52 1028.31 77.52C1026.29 77.52 1024.97 78.98 1024.97 81.32V87H1023.81V81.24C1023.81 78.94 1022.55 77.52 1020.57 77.52C1018.55 77.52 1017.23 78.98 1017.23 81.32V87H1016.07ZM1045.88 87.26C1042.74 87.26 1040.6 85.04 1040.6 81.82C1040.6 78.62 1042.76 76.4 1045.9 76.4C1049.16 76.4 1051.26 78.8 1051.18 82.3H1041.78C1041.98 84.64 1043.58 86.16 1045.88 86.16C1047.56 86.16 1048.9 85.38 1049.58 84.04L1050.88 84.06C1050.08 86.04 1048.2 87.26 1045.88 87.26ZM1041.78 81.28H1050.04C1049.76 78.94 1048.16 77.5 1045.9 77.5C1043.6 77.5 1041.98 79 1041.78 81.28ZM1054.35 87V76.66H1055.33L1055.45 78.98C1056.15 77.42 1057.33 76.66 1059.25 76.66H1060.11V77.74H1059.21C1056.99 77.74 1055.51 79.1 1055.51 82.24V87H1054.35ZM744.06 116V105.66H745.04L745.16 107.98C745.86 106.42 747.04 105.66 748.96 105.66H749.82V106.74H748.92C746.7 106.74 745.22 108.1 745.22 111.24V116H744.06ZM756.311 116.26C753.171 116.26 751.031 114.04 751.031 110.82C751.031 107.62 753.191 105.4 756.331 105.4C759.591 105.4 761.691 107.8 761.611 111.3H752.211C752.411 113.64 754.011 115.16 756.311 115.16C757.991 115.16 759.331 114.38 760.011 113.04L761.311 113.06C760.511 115.04 758.631 116.26 756.311 116.26ZM752.211 110.28H760.471C760.191 107.94 758.591 106.5 756.331 106.5C754.031 106.5 752.411 108 752.211 110.28ZM764.783 116V101.2H765.943V116H764.783ZM774.436 116.26C771.296 116.26 769.156 114.04 769.156 110.82C769.156 107.62 771.316 105.4 774.456 105.4C777.716 105.4 779.816 107.8 779.736 111.3H770.336C770.536 113.64 772.136 115.16 774.436 115.16C776.116 115.16 777.456 114.38 778.136 113.04L779.436 113.06C778.636 115.04 776.756 116.26 774.436 116.26ZM770.336 110.28H778.596C778.316 107.94 776.716 106.5 774.456 106.5C772.156 106.5 770.536 108 770.336 110.28ZM785.477 116L780.857 105.66H782.117L783.917 109.66L786.057 114.48L788.177 109.66L789.997 105.66H791.237L786.617 116H785.477ZM796.402 116.16C794.002 116.16 792.502 114.98 792.502 113.08C792.502 111.24 793.902 110.08 796.022 110.08H800.582V109.34C800.582 107.62 799.322 106.48 797.402 106.48C795.842 106.48 794.622 107.28 794.202 108.52H793.022C793.522 106.6 795.182 105.4 797.382 105.4C799.962 105.4 801.742 106.98 801.742 109.28V116H800.782L800.662 114.22C799.762 115.46 798.242 116.16 796.402 116.16ZM793.662 113.06C793.662 114.32 794.722 115.12 796.442 115.12C798.842 115.12 800.602 113.62 800.602 111.54V111.1H796.062C794.642 111.1 793.662 111.88 793.662 113.06ZM805.642 116V105.66H806.622L806.722 107.66C807.542 106.18 808.982 105.4 810.642 105.4C813.342 105.4 815.002 107.3 815.002 110.28V116H813.842V110.38C813.842 108 812.562 106.52 810.502 106.52C808.322 106.52 806.802 108.18 806.802 110.64V116H805.642ZM822.772 116C820.572 116 819.392 114.76 819.392 112.42V106.72H817.132V105.66H818.452C819.232 105.66 819.452 105.46 819.532 104.7L819.632 103.12H820.552V105.66H824.132V106.72H820.552V112.38C820.552 114.08 821.252 114.88 822.812 114.88H824.272V116H822.772ZM832.951 104.46C832.951 102.1 834.111 100.94 836.411 100.94H838.031V102.04H836.511C834.831 102.04 834.111 102.78 834.111 104.54V105.66H837.931V106.72H834.111V116H832.951V106.72H830.591V105.66H832.951V104.46ZM844.498 116.26C841.298 116.26 839.058 114.02 839.058 110.82C839.058 107.64 841.298 105.4 844.498 105.4C847.678 105.4 849.918 107.64 849.918 110.82C849.918 114.02 847.678 116.26 844.498 116.26ZM840.218 110.82C840.218 113.38 841.958 115.14 844.498 115.14C847.018 115.14 848.758 113.38 848.758 110.82C848.758 108.28 847.018 106.52 844.498 106.52C841.958 106.52 840.218 108.28 840.218 110.82ZM853.142 116V105.66H854.122L854.242 107.98C854.942 106.42 856.122 105.66 858.042 105.66H858.902V106.74H858.002C855.782 106.74 854.302 108.1 854.302 111.24V116H853.142ZM870.765 116.26C867.645 116.26 865.465 113.96 865.465 110.82C865.465 107.68 867.645 105.4 870.765 105.4C872.665 105.4 874.205 106.24 875.125 107.58V101.2H876.285V116H875.325L875.185 113.96C874.285 115.38 872.705 116.26 870.765 116.26ZM866.625 110.82C866.625 113.36 868.365 115.14 870.905 115.14C873.425 115.14 875.165 113.36 875.165 110.82C875.165 108.3 873.425 106.52 870.905 106.52C868.365 106.52 866.625 108.3 866.625 110.82ZM884.788 116.26C881.648 116.26 879.508 114.04 879.508 110.82C879.508 107.62 881.668 105.4 884.808 105.4C888.068 105.4 890.168 107.8 890.088 111.3H880.688C880.888 113.64 882.488 115.16 884.788 115.16C886.468 115.16 887.808 114.38 888.488 113.04L889.788 113.06C888.988 115.04 887.108 116.26 884.788 116.26ZM880.688 110.28H888.948C888.668 107.94 887.068 106.5 884.808 106.5C882.508 106.5 880.888 108 880.688 110.28ZM893.259 116V105.66H894.239L894.339 107.66C895.159 106.18 896.599 105.4 898.259 105.4C900.959 105.4 902.619 107.3 902.619 110.28V116H901.459V110.38C901.459 108 900.179 106.52 898.119 106.52C895.939 106.52 894.419 108.18 894.419 110.64V116H893.259ZM915.784 116.26C912.644 116.26 910.504 114.04 910.504 110.82C910.504 107.62 912.664 105.4 915.804 105.4C919.064 105.4 921.164 107.8 921.084 111.3H911.684C911.884 113.64 913.484 115.16 915.784 115.16C917.464 115.16 918.804 114.38 919.484 113.04L920.784 113.06C919.984 115.04 918.104 116.26 915.784 116.26ZM911.684 110.28H919.944C919.664 107.94 918.064 106.5 915.804 106.5C913.504 106.5 911.884 108 911.684 110.28ZM924.255 116V105.66H925.235L925.335 107.66C926.155 106.18 927.595 105.4 929.255 105.4C931.955 105.4 933.615 107.3 933.615 110.28V116H932.455V110.38C932.455 108 931.175 106.52 929.115 106.52C926.935 106.52 925.415 108.18 925.415 110.64V116H924.255ZM937.517 116V101.2H938.677V110.2H940.197C942.117 110.2 942.957 109.7 943.617 107.96L944.497 105.66H945.737L944.697 108.4C944.237 109.56 943.697 110.3 942.877 110.74L946.237 116H944.857L941.797 111.14C941.317 111.24 940.777 111.28 940.157 111.28H938.677V116H937.517ZM953.147 116.26C950.007 116.26 947.867 114.04 947.867 110.82C947.867 107.62 950.027 105.4 953.167 105.4C956.427 105.4 958.527 107.8 958.447 111.3H949.047C949.247 113.64 950.847 115.16 953.147 115.16C954.827 115.16 956.167 114.38 956.847 113.04L958.147 113.06C957.347 115.04 955.467 116.26 953.147 116.26ZM949.047 110.28H957.307C957.027 107.94 955.427 106.5 953.167 106.5C950.867 106.5 949.247 108 949.047 110.28ZM961.619 116V101.2H962.779V116H961.619ZM971.092 116C968.892 116 967.712 114.76 967.712 112.42V106.72H965.452V105.66H966.772C967.552 105.66 967.772 105.46 967.852 104.7L967.952 103.12H968.872V105.66H972.452V106.72H968.872V112.38C968.872 114.08 969.572 114.88 971.132 114.88H972.592V116H971.092ZM979.573 116.26C976.433 116.26 974.293 114.04 974.293 110.82C974.293 107.62 976.453 105.4 979.593 105.4C982.853 105.4 984.953 107.8 984.873 111.3H975.473C975.673 113.64 977.273 115.16 979.573 115.16C981.253 115.16 982.593 114.38 983.273 113.04L984.573 113.06C983.773 115.04 981.893 116.26 979.573 116.26ZM975.473 110.28H983.733C983.453 107.94 981.853 106.5 979.593 106.5C977.293 106.5 975.673 108 975.473 110.28ZM990.535 111.64C990.535 110.26 991.095 109.38 992.595 108.46C994.075 107.52 994.595 106.76 994.595 105.56C994.595 103.9 993.435 102.9 991.455 102.9C989.495 102.9 988.215 103.92 988.115 105.64H986.935C987.075 103.22 988.775 101.74 991.415 101.74C994.035 101.74 995.775 103.24 995.775 105.52C995.775 107.04 995.015 108.24 993.235 109.36C992.035 110.1 991.715 110.64 991.715 111.72V112.16H990.535V111.64ZM990.055 115.08C990.055 114.46 990.495 114.04 991.135 114.04C991.755 114.04 992.195 114.46 992.195 115.08C992.195 115.7 991.755 116.12 991.135 116.12C990.495 116.12 990.055 115.7 990.055 115.08ZM999.787 103.94L998.527 100.92H999.767L1000.87 103.94H999.787Z" fill="black"/>
<path d="M11.68 58V51.44H3.48V58H2.26V44H3.48V50.28H11.68V44H12.9V58H11.68ZM20.1763 58L15.5563 47.66H16.8163L18.6163 51.66L20.7563 56.48L22.8763 51.66L24.6963 47.66H25.9363L21.3163 58H20.1763ZM28.4077 58V47.66H29.5677V58H28.4077ZM27.9277 44.72C27.9277 44.14 28.3477 43.68 28.9877 43.68C29.6277 43.68 30.0477 44.14 30.0477 44.72C30.0477 45.32 29.6277 45.78 28.9877 45.78C28.3477 45.78 27.9277 45.32 27.9277 44.72ZM33.6811 58V43.2H34.8411V58H33.6811ZM38.9545 58V43.2H40.1145V52.2H41.6345C43.5545 52.2 44.3945 51.7 45.0545 49.96L45.9345 47.66H47.1745L46.1345 50.4C45.6745 51.56 45.1345 52.3 44.3145 52.74L47.6745 58H46.2945L43.2345 53.14C42.7545 53.24 42.2145 53.28 41.5945 53.28H40.1145V58H38.9545ZM54.5845 58.26C51.4445 58.26 49.3045 56.04 49.3045 52.82C49.3045 49.62 51.4645 47.4 54.6045 47.4C57.8645 47.4 59.9645 49.8 59.8845 53.3H50.4845C50.6845 55.64 52.2845 57.16 54.5845 57.16C56.2645 57.16 57.6045 56.38 58.2845 55.04L59.5845 55.06C58.7845 57.04 56.9045 58.26 54.5845 58.26ZM50.4845 52.28H58.7445C58.4645 49.94 56.8645 48.5 54.6045 48.5C52.3045 48.5 50.6845 50 50.4845 52.28ZM63.0561 58V47.66H64.0361L64.1361 49.66C64.9561 48.18 66.3961 47.4 68.0561 47.4C70.7561 47.4 72.4161 49.3 72.4161 52.28V58H71.2561V52.38C71.2561 50 69.9761 48.52 67.9161 48.52C65.7361 48.52 64.2161 50.18 64.2161 52.64V58H63.0561ZM85.7406 62.26C83.2006 62.26 81.3206 60.92 80.9206 58.82H82.1006C82.4406 60.26 83.8406 61.16 85.7406 61.16C88.1206 61.16 89.6406 59.76 89.6406 57.54V55.86C88.7206 57.12 87.2406 57.88 85.4806 57.88C82.4606 57.88 80.3006 55.68 80.3006 52.64C80.3006 49.6 82.4606 47.4 85.4806 47.4C87.3006 47.4 88.8006 48.2 89.7206 49.52L89.8206 47.66H90.8006V57.58C90.8006 60.36 88.7606 62.26 85.7406 62.26ZM81.4606 52.64C81.4606 55.06 83.1606 56.74 85.6006 56.74C88.0206 56.74 89.7206 55.06 89.7206 52.64C89.7206 50.22 88.0206 48.52 85.6006 48.52C83.1606 48.52 81.4606 50.22 81.4606 52.64ZM94.9116 58V47.66H95.8916L96.0116 49.98C96.7116 48.42 97.8916 47.66 99.8116 47.66H100.672V48.74H99.7716C97.5516 48.74 96.0716 50.1 96.0716 53.24V58H94.9116ZM107.663 58.26C105.003 58.26 103.363 56.36 103.363 53.38V47.66H104.523V53.28C104.523 55.64 105.783 57.14 107.823 57.14C109.963 57.14 111.443 55.46 111.443 53V47.66H112.603V58H111.643L111.523 55.98C110.723 57.48 109.283 58.26 107.663 58.26ZM122.248 58.26C120.348 58.26 118.808 57.4 117.888 56.04V62H116.728V47.66H117.708L117.828 49.72C118.728 48.28 120.308 47.4 122.248 47.4C125.388 47.4 127.548 49.68 127.548 52.82C127.548 55.96 125.388 58.26 122.248 58.26ZM117.848 52.82C117.848 55.36 119.588 57.14 122.128 57.14C124.668 57.14 126.388 55.36 126.388 52.82C126.388 50.3 124.668 48.52 122.128 48.52C119.588 48.52 117.848 50.3 117.848 52.82ZM136.291 58.26C134.391 58.26 132.851 57.4 131.931 56.04V62H130.771V47.66H131.751L131.871 49.72C132.771 48.28 134.351 47.4 136.291 47.4C139.431 47.4 141.591 49.68 141.591 52.82C141.591 55.96 139.431 58.26 136.291 58.26ZM131.891 52.82C131.891 55.36 133.631 57.14 136.171 57.14C138.711 57.14 140.431 55.36 140.431 52.82C140.431 50.3 138.711 48.52 136.171 48.52C133.631 48.52 131.891 50.3 131.891 52.82ZM149.194 58.26C146.054 58.26 143.914 56.04 143.914 52.82C143.914 49.62 146.074 47.4 149.214 47.4C152.474 47.4 154.574 49.8 154.494 53.3H145.094C145.294 55.64 146.894 57.16 149.194 57.16C150.874 57.16 152.214 56.38 152.894 55.04L154.194 55.06C153.394 57.04 151.514 58.26 149.194 58.26ZM145.094 52.28H153.354C153.074 49.94 151.474 48.5 149.214 48.5C146.914 48.5 145.294 50 145.094 52.28ZM165.788 58.16C163.388 58.16 161.888 56.98 161.888 55.08C161.888 53.24 163.288 52.08 165.408 52.08H169.968V51.34C169.968 49.62 168.708 48.48 166.788 48.48C165.228 48.48 164.008 49.28 163.588 50.52H162.408C162.908 48.6 164.568 47.4 166.768 47.4C169.348 47.4 171.128 48.98 171.128 51.28V58H170.168L170.048 56.22C169.148 57.46 167.628 58.16 165.788 58.16ZM163.048 55.06C163.048 56.32 164.108 57.12 165.828 57.12C168.228 57.12 169.988 55.62 169.988 53.54V53.1H165.448C164.028 53.1 163.048 53.88 163.048 55.06ZM177.559 58L172.939 47.66H174.199L175.999 51.66L178.139 56.48L180.259 51.66L182.079 47.66H183.319L178.699 58H177.559ZM189.565 62V60.9H190.425C191.885 60.9 192.345 60.6 192.885 59.3L193.465 57.84L188.545 47.66H189.845L192.285 52.76L194.065 56.44L195.545 52.76L197.645 47.66H198.865L193.925 59.74C193.205 61.54 192.405 62 190.545 62H189.565ZM201.337 58V47.66H202.317L202.417 49.66C203.237 48.18 204.677 47.4 206.337 47.4C209.037 47.4 210.697 49.3 210.697 52.28V58H209.537V52.38C209.537 50 208.257 48.52 206.197 48.52C204.017 48.52 202.497 50.18 202.497 52.64V58H201.337ZM219.139 62.26C216.599 62.26 214.719 60.92 214.319 58.82H215.499C215.839 60.26 217.239 61.16 219.139 61.16C221.519 61.16 223.039 59.76 223.039 57.54V55.86C222.119 57.12 220.639 57.88 218.879 57.88C215.859 57.88 213.699 55.68 213.699 52.64C213.699 49.6 215.859 47.4 218.879 47.4C220.699 47.4 222.199 48.2 223.119 49.52L223.219 47.66H224.199V57.58C224.199 60.36 222.159 62.26 219.139 62.26ZM214.859 52.64C214.859 55.06 216.559 56.74 218.999 56.74C221.419 56.74 223.119 55.06 223.119 52.64C223.119 50.22 221.419 48.52 218.999 48.52C216.559 48.52 214.859 50.22 214.859 52.64ZM228.31 58V47.66H229.29L229.41 49.98C230.11 48.42 231.29 47.66 233.21 47.66H234.07V48.74H233.17C230.95 48.74 229.47 50.1 229.47 53.24V58H228.31ZM240.561 58.26C237.421 58.26 235.281 56.04 235.281 52.82C235.281 49.62 237.441 47.4 240.581 47.4C243.841 47.4 245.941 49.8 245.861 53.3H236.461C236.661 55.64 238.261 57.16 240.561 57.16C242.241 57.16 243.581 56.38 244.261 55.04L245.561 55.06C244.761 57.04 242.881 58.26 240.561 58.26ZM236.461 52.28H244.721C244.441 49.94 242.841 48.5 240.581 48.5C238.281 48.5 236.661 50 236.461 52.28ZM257.046 58.26C254.426 58.26 252.766 56.94 252.686 54.88H253.826C253.946 56.34 255.086 57.2 257.066 57.2C258.886 57.2 259.986 56.5 259.986 55.36C259.986 54.28 259.006 53.62 256.806 53.24C254.106 52.78 252.886 51.82 252.886 50.24C252.886 48.48 254.386 47.4 256.806 47.4C259.246 47.4 260.786 48.56 260.946 50.54H259.786C259.666 49.18 258.606 48.44 256.806 48.44C255.086 48.44 254.046 49.14 254.046 50.26C254.046 51.28 254.906 51.84 257.206 52.28C259.826 52.78 261.126 53.82 261.126 55.38C261.126 57.12 259.546 58.26 257.046 58.26ZM264.482 58V43.2H265.642V52.2H267.162C269.082 52.2 269.922 51.7 270.582 49.96L271.462 47.66H272.702L271.662 50.4C271.202 51.56 270.662 52.3 269.842 52.74L273.202 58H271.822L268.762 53.14C268.282 53.24 267.742 53.28 267.122 53.28H265.642V58H264.482ZM278.952 58.16C276.552 58.16 275.052 56.98 275.052 55.08C275.052 53.24 276.452 52.08 278.572 52.08H283.132V51.34C283.132 49.62 281.872 48.48 279.952 48.48C278.392 48.48 277.172 49.28 276.752 50.52H275.572C276.072 48.6 277.732 47.4 279.932 47.4C282.512 47.4 284.292 48.98 284.292 51.28V58H283.332L283.212 56.22C282.312 57.46 280.792 58.16 278.952 58.16ZM276.212 55.06C276.212 56.32 277.272 57.12 278.992 57.12C281.392 57.12 283.152 55.62 283.152 53.54V53.1H278.612C277.192 53.1 276.212 53.88 276.212 55.06ZM288.193 58V43.2H289.353V58H288.193ZM301.309 58L296.689 47.66H297.949L299.749 51.66L301.889 56.48L304.009 51.66L305.829 47.66H307.069L302.449 58H301.309ZM309.54 58V47.66H310.7V58H309.54ZM309.06 44.72C309.06 44.14 309.48 43.68 310.12 43.68C310.76 43.68 311.18 44.14 311.18 44.72C311.18 45.32 310.76 45.78 310.12 45.78C309.48 45.78 309.06 45.32 309.06 44.72ZM3.06 75.46C3.06 73.1 4.22 71.94 6.52 71.94H8.14V73.04H6.62C4.94 73.04 4.22 73.78 4.22 75.54V76.66H8.04V77.72H4.22V87H3.06V77.72H0.7V76.66H3.06V75.46ZM14.6078 87.26C11.4078 87.26 9.16781 85.02 9.16781 81.82C9.16781 78.64 11.4078 76.4 14.6078 76.4C17.7878 76.4 20.0278 78.64 20.0278 81.82C20.0278 85.02 17.7878 87.26 14.6078 87.26ZM10.3278 81.82C10.3278 84.38 12.0678 86.14 14.6078 86.14C17.1278 86.14 18.8678 84.38 18.8678 81.82C18.8678 79.28 17.1278 77.52 14.6078 77.52C12.0678 77.52 10.3278 79.28 10.3278 81.82ZM23.2514 87V72.2H24.4114V81.2H25.9314C27.8514 81.2 28.6914 80.7 29.3514 78.96L30.2314 76.66H31.4714L30.4314 79.4C29.9714 80.56 29.4314 81.3 28.6114 81.74L31.9714 87H30.5914L27.5314 82.14C27.0514 82.24 26.5114 82.28 25.8914 82.28H24.4114V87H23.2514ZM38.6595 87.26C35.9995 87.26 34.3595 85.36 34.3595 82.38V76.66H35.5195V82.28C35.5195 84.64 36.7795 86.14 38.8195 86.14C40.9595 86.14 42.4395 84.46 42.4395 82V76.66H43.5995V87H42.6395L42.5195 84.98C41.7195 86.48 40.2795 87.26 38.6595 87.26ZM51.2841 87.26C48.6641 87.26 47.0041 85.94 46.9241 83.88H48.0641C48.1841 85.34 49.3241 86.2 51.3041 86.2C53.1241 86.2 54.2241 85.5 54.2241 84.36C54.2241 83.28 53.2441 82.62 51.0441 82.24C48.3441 81.78 47.1241 80.82 47.1241 79.24C47.1241 77.48 48.6241 76.4 51.0441 76.4C53.4841 76.4 55.0241 77.56 55.1841 79.54H54.0241C53.9041 78.18 52.8441 77.44 51.0441 77.44C49.3241 77.44 48.2841 78.14 48.2841 79.26C48.2841 80.28 49.1441 80.84 51.4441 81.28C54.0641 81.78 55.3641 82.82 55.3641 84.38C55.3641 86.12 53.7841 87.26 51.2841 87.26ZM63.1002 87.26C59.9602 87.26 57.8202 85.04 57.8202 81.82C57.8202 78.62 59.9802 76.4 63.1202 76.4C66.3802 76.4 68.4802 78.8 68.4002 82.3H59.0002C59.2002 84.64 60.8002 86.16 63.1002 86.16C64.7802 86.16 66.1202 85.38 66.8002 84.04L68.1002 84.06C67.3002 86.04 65.4202 87.26 63.1002 87.26ZM59.0002 81.28H67.2602C66.9802 78.94 65.3802 77.5 63.1202 77.5C60.8202 77.5 59.2002 79 59.0002 81.28ZM71.5717 87V76.66H72.5517L72.6717 78.98C73.3717 77.42 74.5517 76.66 76.4717 76.66H77.3317V77.74H76.4317C74.2117 77.74 72.7317 79.1 72.7317 82.24V87H71.5717ZM83.8228 87.26C80.6828 87.26 78.5428 85.04 78.5428 81.82C78.5428 78.62 80.7028 76.4 83.8428 76.4C87.1028 76.4 89.2028 78.8 89.1228 82.3H79.7228C79.9228 84.64 81.5228 86.16 83.8228 86.16C85.5028 86.16 86.8428 85.38 87.5228 84.04L88.8228 84.06C88.0228 86.04 86.1428 87.26 83.8228 87.26ZM79.7228 81.28H87.9828C87.7028 78.94 86.1028 77.5 83.8428 77.5C81.5428 77.5 79.9228 79 79.7228 81.28ZM102.697 87.26C100.797 87.26 99.2572 86.4 98.3372 85.04V91H97.1772V76.66H98.1572L98.2772 78.72C99.1772 77.28 100.757 76.4 102.697 76.4C105.837 76.4 107.997 78.68 107.997 81.82C107.997 84.96 105.837 87.26 102.697 87.26ZM98.2972 81.82C98.2972 84.36 100.037 86.14 102.577 86.14C105.117 86.14 106.837 84.36 106.837 81.82C106.837 79.3 105.117 77.52 102.577 77.52C100.037 77.52 98.2972 79.3 98.2972 81.82ZM114.323 87.16C111.923 87.16 110.423 85.98 110.423 84.08C110.423 82.24 111.823 81.08 113.943 81.08H118.503V80.34C118.503 78.62 117.243 77.48 115.323 77.48C113.763 77.48 112.543 78.28 112.123 79.52H110.943C111.443 77.6 113.103 76.4 115.303 76.4C117.883 76.4 119.663 77.98 119.663 80.28V87H118.703L118.583 85.22C117.683 86.46 116.163 87.16 114.323 87.16ZM111.583 84.06C111.583 85.32 112.643 86.12 114.363 86.12C116.763 86.12 118.523 84.62 118.523 82.54V82.1H113.983C112.563 82.1 111.583 82.88 111.583 84.06ZM113.103 73.1C113.103 71.84 114.043 70.96 115.303 70.96C116.563 70.96 117.503 71.84 117.503 73.1C117.503 74.36 116.563 75.22 115.303 75.22C114.043 75.22 113.103 74.36 113.103 73.1ZM113.963 73.1C113.963 73.88 114.523 74.44 115.303 74.44C116.083 74.44 116.643 73.88 116.643 73.1C116.643 72.3 116.083 71.74 115.303 71.74C114.523 71.74 113.963 72.3 113.963 73.1ZM125.957 82.64C125.957 81.26 126.517 80.38 128.017 79.46C129.497 78.52 130.017 77.76 130.017 76.56C130.017 74.9 128.857 73.9 126.877 73.9C124.917 73.9 123.637 74.92 123.537 76.64H122.357C122.497 74.22 124.197 72.74 126.837 72.74C129.457 72.74 131.197 74.24 131.197 76.52C131.197 78.04 130.437 79.24 128.657 80.36C127.457 81.1 127.137 81.64 127.137 82.72V83.16H125.957V82.64ZM125.477 86.08C125.477 85.46 125.917 85.04 126.557 85.04C127.177 85.04 127.617 85.46 127.617 86.08C127.617 86.7 127.177 87.12 126.557 87.12C125.917 87.12 125.477 86.7 125.477 86.08Z" fill="black"/>
</svg>
