<svg width="1241" height="452" viewBox="0 0 1241 452" fill="none" xmlns="http://www.w3.org/2000/svg">
<path d="M48.58 45V32.16H43.76V31H54.62V32.16H49.78V45H48.58ZM55.2553 45V34.66H56.2353L56.3553 36.98C57.0553 35.42 58.2353 34.66 60.1553 34.66H61.0153V35.74H60.1153C57.8953 35.74 56.4153 37.1 56.4153 40.24V45H55.2553ZM66.3273 45.16C63.9273 45.16 62.4273 43.98 62.4273 42.08C62.4273 40.24 63.8273 39.08 65.9473 39.08H70.5073V38.34C70.5073 36.62 69.2473 35.48 67.3273 35.48C65.7673 35.48 64.5473 36.28 64.1273 37.52H62.9473C63.4473 35.6 65.1073 34.4 67.3073 34.4C69.8873 34.4 71.6673 35.98 71.6673 38.28V45H70.7073L70.5873 43.22C69.6873 44.46 68.1673 45.16 66.3273 45.16ZM63.5873 42.06C63.5873 43.32 64.6473 44.12 66.3673 44.12C68.7673 44.12 70.5273 42.62 70.5273 40.54V40.1H65.9873C64.5673 40.1 63.5873 40.88 63.5873 42.06ZM78.0981 45L73.4781 34.66H74.7381L76.5381 38.66L78.6781 43.48L80.7981 38.66L82.6181 34.66H83.8581L79.2381 45H78.0981ZM90.3189 45.26C87.1789 45.26 85.0389 43.04 85.0389 39.82C85.0389 36.62 87.1989 34.4 90.3389 34.4C93.5989 34.4 95.6989 36.8 95.6189 40.3H86.2189C86.4189 42.64 88.0189 44.16 90.3189 44.16C91.9989 44.16 93.3389 43.38 94.0189 42.04L95.3189 42.06C94.5189 44.04 92.6389 45.26 90.3189 45.26ZM86.2189 39.28H94.4789C94.1989 36.94 92.5989 35.5 90.3389 35.5C88.0389 35.5 86.4189 37 86.2189 39.28ZM98.7905 45V30.2H99.9505V45H98.7905ZM106.475 49.06V47.96H107.455C108.915 47.96 109.435 47.48 109.435 45.76V34.66H110.595V45.78C110.595 48.06 109.795 49.06 107.515 49.06H106.475ZM108.955 31.72C108.955 31.14 109.375 30.68 110.015 30.68C110.655 30.68 111.075 31.14 111.075 31.72C111.075 32.32 110.655 32.78 110.015 32.78C109.375 32.78 108.955 32.32 108.955 31.72ZM119.248 45.26C116.048 45.26 113.808 43.02 113.808 39.82C113.808 36.64 116.048 34.4 119.248 34.4C122.428 34.4 124.668 36.64 124.668 39.82C124.668 43.02 122.428 45.26 119.248 45.26ZM114.968 39.82C114.968 42.38 116.708 44.14 119.248 44.14C121.768 44.14 123.508 42.38 123.508 39.82C123.508 37.28 121.768 35.52 119.248 35.52C116.708 35.52 114.968 37.28 114.968 39.82ZM131.972 45.26C129.312 45.26 127.672 43.36 127.672 40.38V34.66H128.832V40.28C128.832 42.64 130.092 44.14 132.132 44.14C134.272 44.14 135.752 42.46 135.752 40V34.66H136.912V45H135.952L135.832 42.98C135.032 44.48 133.592 45.26 131.972 45.26ZM141.037 45V34.66H142.017L142.137 36.98C142.837 35.42 144.017 34.66 145.937 34.66H146.797V35.74H145.897C143.677 35.74 142.197 37.1 142.197 40.24V45H141.037ZM149.708 45V34.66H150.688L150.788 36.66C151.608 35.18 153.048 34.4 154.708 34.4C157.408 34.4 159.068 36.3 159.068 39.28V45H157.908V39.38C157.908 37 156.628 35.52 154.568 35.52C152.388 35.52 150.868 37.18 150.868 39.64V45H149.708ZM166.21 45.16C163.81 45.16 162.31 43.98 162.31 42.08C162.31 40.24 163.71 39.08 165.83 39.08H170.39V38.34C170.39 36.62 169.13 35.48 167.21 35.48C165.65 35.48 164.43 36.28 164.01 37.52H162.83C163.33 35.6 164.99 34.4 167.19 34.4C169.77 34.4 171.55 35.98 171.55 38.28V45H170.59L170.47 43.22C169.57 44.46 168.05 45.16 166.21 45.16ZM163.47 42.06C163.47 43.32 164.53 44.12 166.25 44.12C168.65 44.12 170.41 42.62 170.41 40.54V40.1H165.87C164.45 40.1 163.47 40.88 163.47 42.06ZM175.451 45V30.2H176.611V45H175.451ZM180.724 45V34.66H181.884V45H180.724ZM180.244 31.72C180.244 31.14 180.664 30.68 181.304 30.68C181.944 30.68 182.364 31.14 182.364 31.72C182.364 32.32 181.944 32.78 181.304 32.78C180.664 32.78 180.244 32.32 180.244 31.72ZM189.558 45.26C186.938 45.26 185.278 43.94 185.198 41.88H186.338C186.458 43.34 187.598 44.2 189.578 44.2C191.398 44.2 192.498 43.5 192.498 42.36C192.498 41.28 191.518 40.62 189.318 40.24C186.618 39.78 185.398 38.82 185.398 37.24C185.398 35.48 186.898 34.4 189.318 34.4C191.758 34.4 193.298 35.56 193.458 37.54H192.298C192.178 36.18 191.118 35.44 189.318 35.44C187.598 35.44 186.558 36.14 186.558 37.26C186.558 38.28 187.418 38.84 189.718 39.28C192.338 39.78 193.638 40.82 193.638 42.38C193.638 44.12 192.058 45.26 189.558 45.26ZM200.901 45C198.701 45 197.521 43.76 197.521 41.42V35.72H195.261V34.66H196.581C197.361 34.66 197.581 34.46 197.661 33.7L197.761 32.12H198.681V34.66H202.261V35.72H198.681V41.38C198.681 43.08 199.381 43.88 200.941 43.88H202.401V45H200.901ZM213.991 45.26C211.371 45.26 209.711 43.94 209.631 41.88H210.771C210.891 43.34 212.031 44.2 214.011 44.2C215.831 44.2 216.931 43.5 216.931 42.36C216.931 41.28 215.951 40.62 213.751 40.24C211.051 39.78 209.831 38.82 209.831 37.24C209.831 35.48 211.331 34.4 213.751 34.4C216.191 34.4 217.731 35.56 217.891 37.54H216.731C216.611 36.18 215.551 35.44 213.751 35.44C212.031 35.44 210.991 36.14 210.991 37.26C210.991 38.28 211.851 38.84 214.151 39.28C216.771 39.78 218.071 40.82 218.071 42.38C218.071 44.12 216.491 45.26 213.991 45.26ZM225.334 45C223.134 45 221.954 43.76 221.954 41.42V35.72H219.694V34.66H221.014C221.794 34.66 222.014 34.46 222.094 33.7L222.194 32.12H223.114V34.66H226.694V35.72H223.114V41.38C223.114 43.08 223.814 43.88 225.374 43.88H226.834V45H225.334ZM233.886 45.26C231.226 45.26 229.586 43.36 229.586 40.38V34.66H230.746V40.28C230.746 42.64 232.006 44.14 234.046 44.14C236.186 44.14 237.666 42.46 237.666 40V34.66H238.826V45H237.866L237.746 42.98C236.946 44.48 235.506 45.26 233.886 45.26ZM247.351 45.26C244.231 45.26 242.051 42.96 242.051 39.82C242.051 36.68 244.231 34.4 247.351 34.4C249.251 34.4 250.791 35.24 251.711 36.58V30.2H252.871V45H251.911L251.771 42.96C250.871 44.38 249.291 45.26 247.351 45.26ZM243.211 39.82C243.211 42.36 244.951 44.14 247.491 44.14C250.011 44.14 251.751 42.36 251.751 39.82C251.751 37.3 250.011 35.52 247.491 35.52C244.951 35.52 243.211 37.3 243.211 39.82ZM261.374 45.26C258.234 45.26 256.094 43.04 256.094 39.82C256.094 36.62 258.254 34.4 261.394 34.4C264.654 34.4 266.754 36.8 266.674 40.3H257.274C257.474 42.64 259.074 44.16 261.374 44.16C263.054 44.16 264.394 43.38 265.074 42.04L266.374 42.06C265.574 44.04 263.694 45.26 261.374 45.26ZM257.274 39.28H265.534C265.254 36.94 263.654 35.5 261.394 35.5C259.094 35.5 257.474 37 257.274 39.28ZM269.845 45V34.66H270.825L270.925 36.66C271.745 35.18 273.185 34.4 274.845 34.4C277.545 34.4 279.205 36.3 279.205 39.28V45H278.045V39.38C278.045 37 276.765 35.52 274.705 35.52C272.525 35.52 271.005 37.18 271.005 39.64V45H269.845ZM286.975 45C284.775 45 283.595 43.76 283.595 41.42V35.72H281.335V34.66H282.655C283.435 34.66 283.655 34.46 283.735 33.7L283.835 32.12H284.755V34.66H288.335V35.72H284.755V41.38C284.755 43.08 285.455 43.88 287.015 43.88H288.475V45H286.975Z" fill="black"/>
<path d="M327.26 106V92H328.4L334.22 100.76L340.04 92H341.16V106H339.96V94.24L334.72 102.1H333.72L328.48 94.24V106H327.26ZM349.558 106.26C346.898 106.26 345.258 104.36 345.258 101.38V95.66H346.418V101.28C346.418 103.64 347.678 105.14 349.718 105.14C351.858 105.14 353.338 103.46 353.338 101V95.66H354.498V106H353.538L353.418 103.98C352.618 105.48 351.178 106.26 349.558 106.26ZM362.183 106.26C359.563 106.26 357.903 104.94 357.823 102.88H358.963C359.083 104.34 360.223 105.2 362.203 105.2C364.023 105.2 365.123 104.5 365.123 103.36C365.123 102.28 364.143 101.62 361.943 101.24C359.243 100.78 358.023 99.82 358.023 98.24C358.023 96.48 359.523 95.4 361.943 95.4C364.383 95.4 365.923 96.56 366.083 98.54H364.923C364.803 97.18 363.743 96.44 361.943 96.44C360.223 96.44 359.183 97.14 359.183 98.26C359.183 99.28 360.043 99.84 362.343 100.28C364.963 100.78 366.263 101.82 366.263 103.38C366.263 105.12 364.683 106.26 362.183 106.26ZM369.619 106V95.66H370.779V106H369.619ZM369.139 92.72C369.139 92.14 369.559 91.68 370.199 91.68C370.839 91.68 371.259 92.14 371.259 92.72C371.259 93.32 370.839 93.78 370.199 93.78C369.559 93.78 369.139 93.32 369.139 92.72ZM374.892 106V91.2H376.052V100.2H377.572C379.492 100.2 380.332 99.7 380.992 97.96L381.872 95.66H383.112L382.072 98.4C381.612 99.56 381.072 100.3 380.252 100.74L383.612 106H382.232L379.172 101.14C378.692 101.24 378.152 101.28 377.532 101.28H376.052V106H374.892ZM390.522 106.26C387.382 106.26 385.242 104.04 385.242 100.82C385.242 97.62 387.402 95.4 390.542 95.4C393.802 95.4 395.902 97.8 395.822 101.3H386.422C386.622 103.64 388.222 105.16 390.522 105.16C392.202 105.16 393.542 104.38 394.222 103.04L395.522 103.06C394.722 105.04 392.842 106.26 390.522 106.26ZM386.422 100.28H394.682C394.402 97.94 392.802 96.5 390.542 96.5C388.242 96.5 386.622 98 386.422 100.28ZM398.994 106V95.66H399.974L400.094 97.98C400.794 96.42 401.974 95.66 403.894 95.66H404.754V96.74H403.854C401.634 96.74 400.154 98.1 400.154 101.24V106H398.994Z" fill="black"/>
<path d="M578.68 21V14.44H570.48V21H569.26V7H570.48V13.28H578.68V7H579.9V21H578.68ZM587.456 21.16C585.056 21.16 583.556 19.98 583.556 18.08C583.556 16.24 584.956 15.08 587.076 15.08H591.636V14.34C591.636 12.62 590.376 11.48 588.456 11.48C586.896 11.48 585.676 12.28 585.256 13.52H584.076C584.576 11.6 586.236 10.4 588.436 10.4C591.016 10.4 592.796 11.98 592.796 14.28V21H591.836L591.716 19.22C590.816 20.46 589.296 21.16 587.456 21.16ZM584.716 18.06C584.716 19.32 585.776 20.12 587.496 20.12C589.896 20.12 591.656 18.62 591.656 16.54V16.1H587.116C585.696 16.1 584.716 16.88 584.716 18.06ZM601.097 21.26C597.977 21.26 595.797 18.96 595.797 15.82C595.797 12.68 597.977 10.4 601.097 10.4C602.997 10.4 604.537 11.24 605.457 12.58V6.2H606.617V21H605.657L605.517 18.96C604.617 20.38 603.037 21.26 601.097 21.26ZM596.957 15.82C596.957 18.36 598.697 20.14 601.237 20.14C603.757 20.14 605.497 18.36 605.497 15.82C605.497 13.3 603.757 11.52 601.237 11.52C598.697 11.52 596.957 13.3 596.957 15.82ZM615.14 21.26C612.02 21.26 609.84 18.96 609.84 15.82C609.84 12.68 612.02 10.4 615.14 10.4C617.04 10.4 618.58 11.24 619.5 12.58V6.2H620.66V21H619.7L619.56 18.96C618.66 20.38 617.08 21.26 615.14 21.26ZM611 15.82C611 18.36 612.74 20.14 615.28 20.14C617.8 20.14 619.54 18.36 619.54 15.82C619.54 13.3 617.8 11.52 615.28 11.52C612.74 11.52 611 13.3 611 15.82ZM629.163 21.26C626.023 21.26 623.883 19.04 623.883 15.82C623.883 12.62 626.043 10.4 629.183 10.4C632.443 10.4 634.543 12.8 634.463 16.3H625.063C625.263 18.64 626.863 20.16 629.163 20.16C630.843 20.16 632.183 19.38 632.863 18.04L634.163 18.06C633.363 20.04 631.483 21.26 629.163 21.26ZM625.063 15.28H633.323C633.043 12.94 631.443 11.5 629.183 11.5C626.883 11.5 625.263 13 625.063 15.28ZM646.499 21.26C643.839 21.26 642.199 19.36 642.199 16.38V10.66H643.359V16.28C643.359 18.64 644.619 20.14 646.659 20.14C648.799 20.14 650.279 18.46 650.279 16V10.66H651.439V21H650.479L650.359 18.98C649.559 20.48 648.119 21.26 646.499 21.26ZM655.564 21V6.2H656.724V15.2H658.244C660.164 15.2 661.004 14.7 661.664 12.96L662.544 10.66H663.784L662.744 13.4C662.284 14.56 661.744 15.3 660.924 15.74L664.284 21H662.904L659.844 16.14C659.364 16.24 658.824 16.28 658.204 16.28H656.724V21H655.564ZM671.194 21.26C668.054 21.26 665.914 19.04 665.914 15.82C665.914 12.62 668.074 10.4 671.214 10.4C674.474 10.4 676.574 12.8 676.494 16.3H667.094C667.294 18.64 668.894 20.16 671.194 20.16C672.874 20.16 674.214 19.38 674.894 18.04L676.194 18.06C675.394 20.04 673.514 21.26 671.194 21.26ZM667.094 15.28H675.354C675.074 12.94 673.474 11.5 671.214 11.5C668.914 11.5 667.294 13 667.094 15.28ZM679.665 21V10.66H680.645L680.745 12.66C681.565 11.18 683.005 10.4 684.665 10.4C687.365 10.4 689.025 12.3 689.025 15.28V21H687.865V15.38C687.865 13 686.585 11.52 684.525 11.52C682.345 11.52 680.825 13.18 680.825 15.64V21H679.665ZM696.795 21C694.595 21 693.415 19.76 693.415 17.42V11.72H691.155V10.66H692.475C693.255 10.66 693.475 10.46 693.555 9.7L693.655 8.12H694.575V10.66H698.155V11.72H694.575V17.38C694.575 19.08 695.275 19.88 696.835 19.88H698.295V21H696.795ZM701.404 21V6.2H702.564V21H701.404ZM706.677 21V10.66H707.837V21H706.677ZM706.197 7.72C706.197 7.14 706.617 6.68 707.257 6.68C707.897 6.68 708.317 7.14 708.317 7.72C708.317 8.32 707.897 8.78 707.257 8.78C706.617 8.78 706.197 8.32 706.197 7.72ZM716.491 25.26C713.951 25.26 712.071 23.92 711.671 21.82H712.851C713.191 23.26 714.591 24.16 716.491 24.16C718.871 24.16 720.391 22.76 720.391 20.54V18.86C719.471 20.12 717.991 20.88 716.231 20.88C713.211 20.88 711.051 18.68 711.051 15.64C711.051 12.6 713.211 10.4 716.231 10.4C718.051 10.4 719.551 11.2 720.471 12.52L720.571 10.66H721.551V20.58C721.551 23.36 719.511 25.26 716.491 25.26ZM712.211 15.64C712.211 18.06 713.911 19.74 716.351 19.74C718.771 19.74 720.471 18.06 720.471 15.64C720.471 13.22 718.771 11.52 716.351 11.52C713.911 11.52 712.211 13.22 712.211 15.64ZM730.042 21.26C726.902 21.26 724.762 19.04 724.762 15.82C724.762 12.62 726.922 10.4 730.062 10.4C733.322 10.4 735.422 12.8 735.342 16.3H725.942C726.142 18.64 727.742 20.16 730.042 20.16C731.722 20.16 733.062 19.38 733.742 18.04L735.042 18.06C734.242 20.04 732.362 21.26 730.042 21.26ZM725.942 15.28H734.202C733.922 12.94 732.322 11.5 730.062 11.5C727.762 11.5 726.142 13 725.942 15.28ZM747.467 21.26C744.267 21.26 742.027 19.02 742.027 15.82C742.027 12.64 744.267 10.4 747.467 10.4C750.647 10.4 752.887 12.64 752.887 15.82C752.887 19.02 750.647 21.26 747.467 21.26ZM743.187 15.82C743.187 18.38 744.927 20.14 747.467 20.14C749.987 20.14 751.727 18.38 751.727 15.82C751.727 13.28 749.987 11.52 747.467 11.52C744.927 11.52 743.187 13.28 743.187 15.82ZM761.631 21.26C759.731 21.26 758.191 20.4 757.271 19.04V25H756.111V10.66H757.091L757.211 12.72C758.111 11.28 759.691 10.4 761.631 10.4C764.771 10.4 766.931 12.68 766.931 15.82C766.931 18.96 764.771 21.26 761.631 21.26ZM757.231 15.82C757.231 18.36 758.971 20.14 761.511 20.14C764.051 20.14 765.771 18.36 765.771 15.82C765.771 13.3 764.051 11.52 761.511 11.52C758.971 11.52 757.231 13.3 757.231 15.82ZM775.674 21.26C773.774 21.26 772.234 20.4 771.314 19.04V25H770.154V10.66H771.134L771.254 12.72C772.154 11.28 773.734 10.4 775.674 10.4C778.814 10.4 780.974 12.68 780.974 15.82C780.974 18.96 778.814 21.26 775.674 21.26ZM771.274 15.82C771.274 18.36 773.014 20.14 775.554 20.14C778.094 20.14 779.814 18.36 779.814 15.82C779.814 13.3 778.094 11.52 775.554 11.52C773.014 11.52 771.274 13.3 771.274 15.82ZM788.737 25.26C786.197 25.26 784.317 23.92 783.917 21.82H785.097C785.437 23.26 786.837 24.16 788.737 24.16C791.117 24.16 792.637 22.76 792.637 20.54V18.86C791.717 20.12 790.237 20.88 788.477 20.88C785.457 20.88 783.297 18.68 783.297 15.64C783.297 12.6 785.457 10.4 788.477 10.4C790.297 10.4 791.797 11.2 792.717 12.52L792.817 10.66H793.797V20.58C793.797 23.36 791.757 25.26 788.737 25.26ZM784.457 15.64C784.457 18.06 786.157 19.74 788.597 19.74C791.017 19.74 792.717 18.06 792.717 15.64C792.717 13.22 791.017 11.52 788.597 11.52C786.157 11.52 784.457 13.22 784.457 15.64ZM801.148 21.16C798.748 21.16 797.248 19.98 797.248 18.08C797.248 16.24 798.648 15.08 800.768 15.08H805.328V14.34C805.328 12.62 804.068 11.48 802.148 11.48C800.588 11.48 799.368 12.28 798.948 13.52H797.768C798.268 11.6 799.928 10.4 802.128 10.4C804.708 10.4 806.488 11.98 806.488 14.28V21H805.528L805.408 19.22C804.508 20.46 802.988 21.16 801.148 21.16ZM798.408 18.06C798.408 19.32 799.468 20.12 801.188 20.12C803.588 20.12 805.348 18.62 805.348 16.54V16.1H800.808C799.388 16.1 798.408 16.88 798.408 18.06ZM812.918 21L808.298 10.66H809.558L811.358 14.66L813.498 19.48L815.618 14.66L817.438 10.66H818.678L814.058 21H812.918ZM825.139 21.26C821.999 21.26 819.859 19.04 819.859 15.82C819.859 12.62 822.019 10.4 825.159 10.4C828.419 10.4 830.519 12.8 830.439 16.3H821.039C821.239 18.64 822.839 20.16 825.139 20.16C826.819 20.16 828.159 19.38 828.839 18.04L830.139 18.06C829.339 20.04 827.459 21.26 825.139 21.26ZM821.039 15.28H829.299C829.019 12.94 827.419 11.5 825.159 11.5C822.859 11.5 821.239 13 821.039 15.28ZM833.611 21V10.66H834.591L834.711 12.98C835.411 11.42 836.591 10.66 838.511 10.66H839.371V11.74H838.471C836.251 11.74 834.771 13.1 834.771 16.24V21H833.611ZM851.373 21.26C848.173 21.26 845.933 19.02 845.933 15.82C845.933 12.64 848.173 10.4 851.373 10.4C854.553 10.4 856.793 12.64 856.793 15.82C856.793 19.02 854.553 21.26 851.373 21.26ZM847.093 15.82C847.093 18.38 848.833 20.14 851.373 20.14C853.893 20.14 855.633 18.38 855.633 15.82C855.633 13.28 853.893 11.52 851.373 11.52C848.833 11.52 847.093 13.28 847.093 15.82ZM864.557 25.26C862.017 25.26 860.137 23.92 859.737 21.82H860.917C861.257 23.26 862.657 24.16 864.557 24.16C866.937 24.16 868.457 22.76 868.457 20.54V18.86C867.537 20.12 866.057 20.88 864.297 20.88C861.277 20.88 859.117 18.68 859.117 15.64C859.117 12.6 861.277 10.4 864.297 10.4C866.117 10.4 867.617 11.2 868.537 12.52L868.637 10.66H869.617V20.58C869.617 23.36 867.577 25.26 864.557 25.26ZM860.277 15.64C860.277 18.06 861.977 19.74 864.417 19.74C866.837 19.74 868.537 18.06 868.537 15.64C868.537 13.22 866.837 11.52 864.417 11.52C861.977 11.52 860.277 13.22 860.277 15.64ZM879.08 21V10.66H880.24V21H879.08ZM878.6 7.72C878.6 7.14 879.02 6.68 879.66 6.68C880.3 6.68 880.72 7.14 880.72 7.72C880.72 8.32 880.3 8.78 879.66 8.78C879.02 8.78 878.6 8.32 878.6 7.72ZM884.353 21V10.66H885.333L885.433 12.66C886.253 11.18 887.693 10.4 889.353 10.4C892.053 10.4 893.713 12.3 893.713 15.28V21H892.553V15.38C892.553 13 891.273 11.52 889.213 11.52C887.033 11.52 885.513 13.18 885.513 15.64V21H884.353ZM897.615 21V10.66H898.595L898.695 12.66C899.515 11.18 900.955 10.4 902.615 10.4C905.315 10.4 906.975 12.3 906.975 15.28V21H905.815V15.38C905.815 13 904.535 11.52 902.475 11.52C900.295 11.52 898.775 13.18 898.775 15.64V21H897.615ZM910.876 21V6.2H912.036V21H910.876ZM920.53 21.26C917.39 21.26 915.25 19.04 915.25 15.82C915.25 12.62 917.41 10.4 920.55 10.4C923.81 10.4 925.91 12.8 925.83 16.3H916.43C916.63 18.64 918.23 20.16 920.53 20.16C922.21 20.16 923.55 19.38 924.23 18.04L925.53 18.06C924.73 20.04 922.85 21.26 920.53 21.26ZM916.43 15.28H924.69C924.41 12.94 922.81 11.5 920.55 11.5C918.25 11.5 916.63 13 916.43 15.28ZM931.571 21L926.951 10.66H928.211L930.011 14.66L932.151 19.48L934.271 14.66L936.091 10.66H937.331L932.711 21H931.571ZM943.792 21.26C940.652 21.26 938.512 19.04 938.512 15.82C938.512 12.62 940.672 10.4 943.812 10.4C947.072 10.4 949.172 12.8 949.092 16.3H939.692C939.892 18.64 941.492 20.16 943.792 20.16C945.472 20.16 946.812 19.38 947.492 18.04L948.792 18.06C947.992 20.04 946.112 21.26 943.792 21.26ZM939.692 15.28H947.952C947.672 12.94 946.072 11.5 943.812 11.5C941.512 11.5 939.892 13 939.692 15.28ZM952.263 21V10.66H953.243L953.363 12.98C954.063 11.42 955.243 10.66 957.163 10.66H958.023V11.74H957.123C954.903 11.74 953.423 13.1 953.423 16.24V21H952.263ZM960.935 21V10.66H962.095V21H960.935ZM960.455 7.72C960.455 7.14 960.875 6.68 961.515 6.68C962.155 6.68 962.575 7.14 962.575 7.72C962.575 8.32 962.155 8.78 961.515 8.78C960.875 8.78 960.455 8.32 960.455 7.72ZM966.208 21V10.66H967.188L967.288 12.66C968.108 11.18 969.548 10.4 971.208 10.4C973.908 10.4 975.568 12.3 975.568 15.28V21H974.408V15.38C974.408 13 973.128 11.52 971.068 11.52C968.888 11.52 967.368 13.18 967.368 15.64V21H966.208ZM984.01 25.26C981.47 25.26 979.59 23.92 979.19 21.82H980.37C980.71 23.26 982.11 24.16 984.01 24.16C986.39 24.16 987.91 22.76 987.91 20.54V18.86C986.99 20.12 985.51 20.88 983.75 20.88C980.73 20.88 978.57 18.68 978.57 15.64C978.57 12.6 980.73 10.4 983.75 10.4C985.57 10.4 987.07 11.2 987.99 12.52L988.09 10.66H989.07V20.58C989.07 23.36 987.03 25.26 984.01 25.26ZM979.73 15.64C979.73 18.06 981.43 19.74 983.87 19.74C986.29 19.74 987.99 18.06 987.99 15.64C987.99 13.22 986.29 11.52 983.87 11.52C981.43 11.52 979.73 13.22 979.73 15.64ZM997.561 21.26C994.421 21.26 992.281 19.04 992.281 15.82C992.281 12.62 994.441 10.4 997.581 10.4C1000.84 10.4 1002.94 12.8 1002.86 16.3H993.461C993.661 18.64 995.261 20.16 997.561 20.16C999.241 20.16 1000.58 19.38 1001.26 18.04L1002.56 18.06C1001.76 20.04 999.881 21.26 997.561 21.26ZM993.461 15.28H1001.72C1001.44 12.94 999.841 11.5 997.581 11.5C995.281 11.5 993.661 13 993.461 15.28ZM1006.03 21V10.66H1007.01L1007.13 12.98C1007.83 11.42 1009.01 10.66 1010.93 10.66H1011.79V11.74H1010.89C1008.67 11.74 1007.19 13.1 1007.19 16.24V21H1006.03Z" fill="black"/>
<path d="M540.68 164V157.44H532.48V164H531.26V150H532.48V156.28H540.68V150H541.9V164H540.68ZM549.456 164.16C547.056 164.16 545.556 162.98 545.556 161.08C545.556 159.24 546.956 158.08 549.076 158.08H553.636V157.34C553.636 155.62 552.376 154.48 550.456 154.48C548.896 154.48 547.676 155.28 547.256 156.52H546.076C546.576 154.6 548.236 153.4 550.436 153.4C553.016 153.4 554.796 154.98 554.796 157.28V164H553.836L553.716 162.22C552.816 163.46 551.296 164.16 549.456 164.16ZM546.716 161.06C546.716 162.32 547.776 163.12 549.496 163.12C551.896 163.12 553.656 161.62 553.656 159.54V159.1H549.116C547.696 159.1 546.716 159.88 546.716 161.06ZM558.697 164V153.66H559.677L559.777 155.66C560.597 154.18 562.037 153.4 563.697 153.4C566.397 153.4 568.057 155.3 568.057 158.28V164H566.897V158.38C566.897 156 565.617 154.52 563.557 154.52C561.377 154.52 559.857 156.18 559.857 158.64V164H558.697ZM579.801 164L575.181 153.66H576.441L578.241 157.66L580.381 162.48L582.501 157.66L584.321 153.66H585.561L580.941 164H579.801ZM590.726 164.16C588.326 164.16 586.826 162.98 586.826 161.08C586.826 159.24 588.226 158.08 590.346 158.08H594.906V157.34C594.906 155.62 593.646 154.48 591.726 154.48C590.166 154.48 588.946 155.28 588.526 156.52H587.346C587.846 154.6 589.506 153.4 591.706 153.4C594.286 153.4 596.066 154.98 596.066 157.28V164H595.106L594.986 162.22C594.086 163.46 592.566 164.16 590.726 164.16ZM587.986 161.06C587.986 162.32 589.046 163.12 590.766 163.12C593.166 163.12 594.926 161.62 594.926 159.54V159.1H590.386C588.966 159.1 587.986 159.88 587.986 161.06ZM599.966 164V153.66H600.946L601.066 155.98C601.766 154.42 602.946 153.66 604.866 153.66H605.726V154.74H604.826C602.606 154.74 601.126 156.1 601.126 159.24V164H599.966ZM616.149 164L611.529 153.66H612.789L614.589 157.66L616.729 162.48L618.849 157.66L620.669 153.66H621.909L617.289 164H616.149ZM627.073 164.16C624.673 164.16 623.173 162.98 623.173 161.08C623.173 159.24 624.573 158.08 626.693 158.08H631.253V157.34C631.253 155.62 629.993 154.48 628.073 154.48C626.513 154.48 625.293 155.28 624.873 156.52H623.693C624.193 154.6 625.853 153.4 628.053 153.4C630.633 153.4 632.413 154.98 632.413 157.28V164H631.453L631.333 162.22C630.433 163.46 628.913 164.16 627.073 164.16ZM624.333 161.06C624.333 162.32 625.393 163.12 627.113 163.12C629.513 163.12 631.273 161.62 631.273 159.54V159.1H626.733C625.313 159.1 624.333 159.88 624.333 161.06ZM636.314 164V153.66H637.294L637.394 155.66C638.214 154.18 639.654 153.4 641.314 153.4C644.014 153.4 645.674 155.3 645.674 158.28V164H644.514V158.38C644.514 156 643.234 154.52 641.174 154.52C638.994 154.52 637.474 156.18 637.474 158.64V164H636.314ZM653.444 164C651.244 164 650.064 162.76 650.064 160.42V154.72H647.804V153.66H649.124C649.904 153.66 650.124 153.46 650.204 152.7L650.304 151.12H651.224V153.66H654.804V154.72H651.224V160.38C651.224 162.08 651.924 162.88 653.484 162.88H654.944V164H653.444ZM667.018 164C664.818 164 663.638 162.76 663.638 160.42V154.72H661.378V153.66H662.698C663.478 153.66 663.698 153.46 663.778 152.7L663.878 151.12H664.798V153.66H668.378V154.72H664.798V160.38C664.798 162.08 665.498 162.88 667.058 162.88H668.518V164H667.018ZM671.626 164V153.66H672.786V164H671.626ZM671.146 150.72C671.146 150.14 671.566 149.68 672.206 149.68C672.846 149.68 673.266 150.14 673.266 150.72C673.266 151.32 672.846 151.78 672.206 151.78C671.566 151.78 671.146 151.32 671.146 150.72ZM676.9 164V149.2H678.06V164H676.9ZM690.765 164.16C688.365 164.16 686.865 162.98 686.865 161.08C686.865 159.24 688.265 158.08 690.385 158.08H694.945V157.34C694.945 155.62 693.685 154.48 691.765 154.48C690.205 154.48 688.985 155.28 688.565 156.52H687.385C687.885 154.6 689.545 153.4 691.745 153.4C694.325 153.4 696.105 154.98 696.105 157.28V164H695.145L695.025 162.22C694.125 163.46 692.605 164.16 690.765 164.16ZM688.025 161.06C688.025 162.32 689.085 163.12 690.805 163.12C693.205 163.12 694.965 161.62 694.965 159.54V159.1H690.425C689.005 159.1 688.025 159.88 688.025 161.06ZM689.545 150.1C689.545 148.84 690.485 147.96 691.745 147.96C693.005 147.96 693.945 148.84 693.945 150.1C693.945 151.36 693.005 152.22 691.745 152.22C690.485 152.22 689.545 151.36 689.545 150.1ZM690.405 150.1C690.405 150.88 690.965 151.44 691.745 151.44C692.525 151.44 693.085 150.88 693.085 150.1C693.085 149.3 692.525 148.74 691.745 148.74C690.965 148.74 690.405 149.3 690.405 150.1ZM710.877 164.26C708.937 164.26 707.357 163.36 706.457 161.94L706.337 164H705.357V149.2H706.517V155.62C707.437 154.24 708.977 153.4 710.877 153.4C714.017 153.4 716.177 155.68 716.177 158.82C716.177 161.96 714.017 164.26 710.877 164.26ZM706.477 158.82C706.477 161.36 708.217 163.14 710.757 163.14C713.297 163.14 715.017 161.36 715.017 158.82C715.017 156.3 713.297 154.52 710.757 154.52C708.217 154.52 706.477 156.3 706.477 158.82ZM719.4 164V153.66H720.38L720.5 155.98C721.2 154.42 722.38 153.66 724.3 153.66H725.16V154.74H724.26C722.04 154.74 720.56 156.1 720.56 159.24V164H719.4ZM732.152 164.26C729.492 164.26 727.852 162.36 727.852 159.38V153.66H729.012V159.28C729.012 161.64 730.272 163.14 732.312 163.14C734.452 163.14 735.932 161.46 735.932 159V153.66H737.092V164H736.132L736.012 161.98C735.212 163.48 733.772 164.26 732.152 164.26ZM741.216 164V149.2H742.376V158.2H743.896C745.816 158.2 746.656 157.7 747.316 155.96L748.196 153.66H749.436L748.396 156.4C747.936 157.56 747.396 158.3 746.576 158.74L749.936 164H748.556L745.496 159.14C745.016 159.24 744.476 159.28 743.856 159.28H742.376V164H741.216ZM756.846 164.26C753.706 164.26 751.566 162.04 751.566 158.82C751.566 155.62 753.726 153.4 756.866 153.4C760.126 153.4 762.226 155.8 762.146 159.3H752.746C752.946 161.64 754.546 163.16 756.846 163.16C758.526 163.16 759.866 162.38 760.546 161.04L761.846 161.06C761.046 163.04 759.166 164.26 756.846 164.26ZM752.746 158.28H761.006C760.726 155.94 759.126 154.5 756.866 154.5C754.566 154.5 752.946 156 752.746 158.28ZM774.112 164.26C770.972 164.26 768.832 162.04 768.832 158.82C768.832 155.62 770.992 153.4 774.132 153.4C777.392 153.4 779.492 155.8 779.412 159.3H770.012C770.212 161.64 771.812 163.16 774.112 163.16C775.792 163.16 777.132 162.38 777.812 161.04L779.112 161.06C778.312 163.04 776.432 164.26 774.112 164.26ZM770.012 158.28H778.272C777.992 155.94 776.392 154.5 774.132 154.5C771.832 154.5 770.212 156 770.012 158.28ZM782.583 164V153.66H783.563L783.663 155.66C784.483 154.18 785.923 153.4 787.583 153.4C790.283 153.4 791.943 155.3 791.943 158.28V164H790.783V158.38C790.783 156 789.503 154.52 787.443 154.52C785.263 154.52 783.743 156.18 783.743 158.64V164H782.583ZM801.197 164V149.2H802.357V158.2H803.877C805.797 158.2 806.637 157.7 807.297 155.96L808.177 153.66H809.417L808.377 156.4C807.917 157.56 807.377 158.3 806.557 158.74L809.917 164H808.537L805.477 159.14C804.997 159.24 804.457 159.28 803.837 159.28H802.357V164H801.197ZM815.667 164.16C813.267 164.16 811.767 162.98 811.767 161.08C811.767 159.24 813.167 158.08 815.287 158.08H819.847V157.34C819.847 155.62 818.587 154.48 816.667 154.48C815.107 154.48 813.887 155.28 813.467 156.52H812.287C812.787 154.6 814.447 153.4 816.647 153.4C819.227 153.4 821.007 154.98 821.007 157.28V164H820.047L819.927 162.22C819.027 163.46 817.507 164.16 815.667 164.16ZM812.927 161.06C812.927 162.32 813.987 163.12 815.707 163.12C818.107 163.12 819.867 161.62 819.867 159.54V159.1H815.327C813.907 159.1 812.927 159.88 812.927 161.06ZM824.908 164V149.2H826.068V164H824.908ZM834.561 164.26C831.421 164.26 829.281 162.04 829.281 158.82C829.281 155.62 831.441 153.4 834.581 153.4C837.841 153.4 839.941 155.8 839.861 159.3H830.461C830.661 161.64 832.261 163.16 834.561 163.16C836.241 163.16 837.581 162.38 838.261 161.04L839.561 161.06C838.761 163.04 836.881 164.26 834.561 164.26ZM830.461 158.28H838.721C838.441 155.94 836.841 154.5 834.581 154.5C832.281 154.5 830.661 156 830.461 158.28ZM843.033 164V153.66H844.013L844.113 155.66C844.933 154.18 846.373 153.4 848.033 153.4C850.733 153.4 852.393 155.3 852.393 158.28V164H851.233V158.38C851.233 156 849.953 154.52 847.893 154.52C845.713 154.52 844.193 156.18 844.193 158.64V164H843.033ZM860.694 164.26C857.574 164.26 855.394 161.96 855.394 158.82C855.394 155.68 857.574 153.4 860.694 153.4C862.594 153.4 864.134 154.24 865.054 155.58V149.2H866.214V164H865.254L865.114 161.96C864.214 163.38 862.634 164.26 860.694 164.26ZM856.554 158.82C856.554 161.36 858.294 163.14 860.834 163.14C863.354 163.14 865.094 161.36 865.094 158.82C865.094 156.3 863.354 154.52 860.834 154.52C858.294 154.52 856.554 156.3 856.554 158.82ZM874.717 164.26C871.577 164.26 869.437 162.04 869.437 158.82C869.437 155.62 871.597 153.4 874.737 153.4C877.997 153.4 880.097 155.8 880.017 159.3H870.617C870.817 161.64 872.417 163.16 874.717 163.16C876.397 163.16 877.737 162.38 878.417 161.04L879.717 161.06C878.917 163.04 877.037 164.26 874.717 164.26ZM870.617 158.28H878.877C878.597 155.94 876.997 154.5 874.737 154.5C872.437 154.5 870.817 156 870.617 158.28ZM883.189 164V153.66H884.169L884.289 155.98C884.989 154.42 886.169 153.66 888.089 153.66H888.949V154.74H888.049C885.829 154.74 884.349 156.1 884.349 159.24V164H883.189Z" fill="black"/>
<path d="M57.26 444V430H58.48V444H57.26ZM62.8022 444V429.2H63.9622V438.2H65.4822C67.4022 438.2 68.2422 437.7 68.9022 435.96L69.7822 433.66H71.0222L69.9822 436.4C69.5222 437.56 68.9822 438.3 68.1622 438.74L71.5222 444H70.1422L67.0822 439.14C66.6022 439.24 66.0622 439.28 65.4422 439.28H63.9622V444H62.8022ZM74.3842 444V429.2H75.5442V438.2H77.0642C78.9842 438.2 79.8242 437.7 80.4842 435.96L81.3642 433.66H82.6042L81.5642 436.4C81.1042 437.56 80.5642 438.3 79.7442 438.74L83.1042 444H81.7242L78.6642 439.14C78.1842 439.24 77.6442 439.28 77.0242 439.28H75.5442V444H74.3842ZM90.0142 444.26C86.8742 444.26 84.7342 442.04 84.7342 438.82C84.7342 435.62 86.8942 433.4 90.0342 433.4C93.2942 433.4 95.3942 435.8 95.3142 439.3H85.9142C86.1142 441.64 87.7142 443.16 90.0142 443.16C91.6942 443.16 93.0342 442.38 93.7142 441.04L95.0142 441.06C94.2142 443.04 92.3342 444.26 90.0142 444.26ZM85.9142 438.28H94.1742C93.8942 435.94 92.2942 434.5 90.0342 434.5C87.7342 434.5 86.1142 436 85.9142 438.28ZM106.983 444C104.783 444 103.603 442.76 103.603 440.42V434.72H101.343V433.66H102.663C103.443 433.66 103.663 433.46 103.743 432.7L103.843 431.12H104.763V433.66H108.343V434.72H104.763V440.38C104.763 442.08 105.463 442.88 107.023 442.88H108.483V444H106.983ZM115.463 444.26C112.323 444.26 110.183 442.04 110.183 438.82C110.183 435.62 112.343 433.4 115.483 433.4C118.743 433.4 120.843 435.8 120.763 439.3H111.363C111.563 441.64 113.163 443.16 115.463 443.16C117.143 443.16 118.483 442.38 119.163 441.04L120.463 441.06C119.663 443.04 117.783 444.26 115.463 444.26ZM111.363 438.28H119.623C119.343 435.94 117.743 434.5 115.483 434.5C113.183 434.5 111.563 436 111.363 438.28ZM123.935 444V429.2H125.095V438.2H126.615C128.535 438.2 129.375 437.7 130.035 435.96L130.915 433.66H132.155L131.115 436.4C130.655 437.56 130.115 438.3 129.295 438.74L132.655 444H131.275L128.215 439.14C127.735 439.24 127.195 439.28 126.575 439.28H125.095V444H123.935ZM135.517 444V433.66H136.497L136.597 435.66C137.417 434.18 138.857 433.4 140.517 433.4C143.217 433.4 144.877 435.3 144.877 438.28V444H143.717V438.38C143.717 436 142.437 434.52 140.377 434.52C138.197 434.52 136.677 436.18 136.677 438.64V444H135.517ZM153.319 444.26C150.119 444.26 147.879 442.02 147.879 438.82C147.879 435.64 150.119 433.4 153.319 433.4C156.499 433.4 158.739 435.64 158.739 438.82C158.739 442.02 156.499 444.26 153.319 444.26ZM149.039 438.82C149.039 441.38 150.779 443.14 153.319 443.14C155.839 443.14 157.579 441.38 157.579 438.82C157.579 436.28 155.839 434.52 153.319 434.52C150.779 434.52 149.039 436.28 149.039 438.82ZM161.962 444V429.2H163.122V444H161.962ZM171.776 444.26C168.576 444.26 166.336 442.02 166.336 438.82C166.336 435.64 168.576 433.4 171.776 433.4C174.956 433.4 177.196 435.64 177.196 438.82C177.196 442.02 174.956 444.26 171.776 444.26ZM167.496 438.82C167.496 441.38 169.236 443.14 171.776 443.14C174.296 443.14 176.036 441.38 176.036 438.82C176.036 436.28 174.296 434.52 171.776 434.52C169.236 434.52 167.496 436.28 167.496 438.82ZM184.959 448.26C182.419 448.26 180.539 446.92 180.139 444.82H181.319C181.659 446.26 183.059 447.16 184.959 447.16C187.339 447.16 188.859 445.76 188.859 443.54V441.86C187.939 443.12 186.459 443.88 184.699 443.88C181.679 443.88 179.519 441.68 179.519 438.64C179.519 435.6 181.679 433.4 184.699 433.4C186.519 433.4 188.019 434.2 188.939 435.52L189.039 433.66H190.019V443.58C190.019 446.36 187.979 448.26 184.959 448.26ZM180.679 438.64C180.679 441.06 182.379 442.74 184.819 442.74C187.239 442.74 188.939 441.06 188.939 438.64C188.939 436.22 187.239 434.52 184.819 434.52C182.379 434.52 180.679 436.22 180.679 438.64ZM194.13 444V433.66H195.29V444H194.13ZM193.65 430.72C193.65 430.14 194.07 429.68 194.71 429.68C195.35 429.68 195.77 430.14 195.77 430.72C195.77 431.32 195.35 431.78 194.71 431.78C194.07 431.78 193.65 431.32 193.65 430.72ZM202.964 444.26C200.344 444.26 198.684 442.94 198.604 440.88H199.744C199.864 442.34 201.004 443.2 202.984 443.2C204.804 443.2 205.904 442.5 205.904 441.36C205.904 440.28 204.924 439.62 202.724 439.24C200.024 438.78 198.804 437.82 198.804 436.24C198.804 434.48 200.304 433.4 202.724 433.4C205.164 433.4 206.704 434.56 206.864 436.54H205.704C205.584 435.18 204.524 434.44 202.724 434.44C201.004 434.44 199.964 435.14 199.964 436.26C199.964 437.28 200.824 437.84 203.124 438.28C205.744 438.78 207.044 439.82 207.044 441.38C207.044 443.12 205.464 444.26 202.964 444.26ZM210.4 444V429.2H211.56V438.2H213.08C215 438.2 215.84 437.7 216.5 435.96L217.38 433.66H218.62L217.58 436.4C217.12 437.56 216.58 438.3 215.76 438.74L219.12 444H217.74L214.68 439.14C214.2 439.24 213.66 439.28 213.04 439.28H211.56V444H210.4ZM230.222 444.16C227.822 444.16 226.322 442.98 226.322 441.08C226.322 439.24 227.722 438.08 229.842 438.08H234.402V437.34C234.402 435.62 233.142 434.48 231.222 434.48C229.662 434.48 228.442 435.28 228.022 436.52H226.842C227.342 434.6 229.002 433.4 231.202 433.4C233.782 433.4 235.562 434.98 235.562 437.28V444H234.602L234.482 442.22C233.582 443.46 232.062 444.16 230.222 444.16ZM227.482 441.06C227.482 442.32 228.542 443.12 230.262 443.12C232.662 443.12 234.422 441.62 234.422 439.54V439.1H229.882C228.462 439.1 227.482 439.88 227.482 441.06ZM239.462 444V433.66H240.442L240.542 435.66C241.362 434.18 242.802 433.4 244.462 433.4C247.162 433.4 248.822 435.3 248.822 438.28V444H247.662V438.38C247.662 436 246.382 434.52 244.322 434.52C242.142 434.52 240.622 436.18 240.622 438.64V444H239.462ZM252.724 444V429.2H253.884V444H252.724ZM261.238 444.16C258.838 444.16 257.338 442.98 257.338 441.08C257.338 439.24 258.738 438.08 260.858 438.08H265.418V437.34C265.418 435.62 264.158 434.48 262.238 434.48C260.678 434.48 259.458 435.28 259.038 436.52H257.858C258.358 434.6 260.018 433.4 262.218 433.4C264.798 433.4 266.578 434.98 266.578 437.28V444H265.618L265.498 442.22C264.598 443.46 263.078 444.16 261.238 444.16ZM258.498 441.06C258.498 442.32 259.558 443.12 261.278 443.12C263.678 443.12 265.438 441.62 265.438 439.54V439.1H260.898C259.478 439.1 258.498 439.88 258.498 441.06ZM275.018 448.26C272.478 448.26 270.598 446.92 270.198 444.82H271.378C271.718 446.26 273.118 447.16 275.018 447.16C277.398 447.16 278.918 445.76 278.918 443.54V441.86C277.998 443.12 276.518 443.88 274.758 443.88C271.738 443.88 269.578 441.68 269.578 438.64C269.578 435.6 271.738 433.4 274.758 433.4C276.578 433.4 278.078 434.2 278.998 435.52L279.098 433.66H280.078V443.58C280.078 446.36 278.038 448.26 275.018 448.26ZM270.738 438.64C270.738 441.06 272.438 442.74 274.878 442.74C277.298 442.74 278.998 441.06 278.998 438.64C278.998 436.22 277.298 434.52 274.878 434.52C272.438 434.52 270.738 436.22 270.738 438.64ZM288.389 444C286.189 444 285.009 442.76 285.009 440.42V434.72H282.749V433.66H284.069C284.849 433.66 285.069 433.46 285.149 432.7L285.249 431.12H286.169V433.66H289.749V434.72H286.169V440.38C286.169 442.08 286.869 442.88 288.429 442.88H289.889V444H288.389Z" fill="black"/>
<path d="M645.26 279V265H650.58C653.16 265 654.82 266.42 654.82 268.64C654.82 270.16 654.02 271.3 652.66 271.78C654.28 272.26 655.22 273.48 655.22 275.18C655.22 277.54 653.52 279 650.8 279H645.26ZM646.48 277.86H650.76C652.78 277.86 653.98 276.84 653.98 275.14C653.98 273.42 652.78 272.42 650.7 272.42H646.48V277.86ZM646.48 271.3H650.54C652.46 271.3 653.58 270.34 653.58 268.72C653.58 267.12 652.46 266.14 650.56 266.14H646.48V271.3ZM658.576 279V268.66H659.556L659.676 270.98C660.376 269.42 661.556 268.66 663.476 268.66H664.336V269.74H663.436C661.216 269.74 659.736 271.1 659.736 274.24V279H658.576ZM671.328 279.26C668.668 279.26 667.028 277.36 667.028 274.38V268.66H668.188V274.28C668.188 276.64 669.448 278.14 671.488 278.14C673.628 278.14 675.108 276.46 675.108 274V268.66H676.268V279H675.308L675.188 276.98C674.388 278.48 672.948 279.26 671.328 279.26ZM680.392 279V264.2H681.552V273.2H683.072C684.992 273.2 685.832 272.7 686.492 270.96L687.372 268.66H688.612L687.572 271.4C687.112 272.56 686.572 273.3 685.752 273.74L689.112 279H687.732L684.672 274.14C684.192 274.24 683.652 274.28 683.032 274.28H681.552V279H680.392ZM695.901 279C693.701 279 692.521 277.76 692.521 275.42V269.72H690.261V268.66H691.581C692.361 268.66 692.581 268.46 692.661 267.7L692.761 266.12H693.681V268.66H697.261V269.72H693.681V275.38C693.681 277.08 694.381 277.88 695.941 277.88H697.401V279H695.901ZM704.381 279.26C701.241 279.26 699.101 277.04 699.101 273.82C699.101 270.62 701.261 268.4 704.401 268.4C707.661 268.4 709.761 270.8 709.681 274.3H700.281C700.481 276.64 702.081 278.16 704.381 278.16C706.061 278.16 707.401 277.38 708.081 276.04L709.381 276.06C708.581 278.04 706.701 279.26 704.381 279.26ZM700.281 273.28H708.541C708.261 270.94 706.661 269.5 704.401 269.5C702.101 269.5 700.481 271 700.281 273.28ZM717.955 267.46C717.955 265.1 719.115 263.94 721.415 263.94H723.035V265.04H721.515C719.835 265.04 719.115 265.78 719.115 267.54V268.66H722.935V269.72H719.115V279H717.955V269.72H715.595V268.66H717.955V267.46ZM729.502 279.26C726.302 279.26 724.062 277.02 724.062 273.82C724.062 270.64 726.302 268.4 729.502 268.4C732.682 268.4 734.922 270.64 734.922 273.82C734.922 277.02 732.682 279.26 729.502 279.26ZM725.222 273.82C725.222 276.38 726.962 278.14 729.502 278.14C732.022 278.14 733.762 276.38 733.762 273.82C733.762 271.28 732.022 269.52 729.502 269.52C726.962 269.52 725.222 271.28 725.222 273.82ZM738.146 279V268.66H739.126L739.246 270.98C739.946 269.42 741.126 268.66 743.046 268.66H743.906V269.74H743.006C740.786 269.74 739.306 271.1 739.306 274.24V279H738.146ZM755.769 279.26C752.649 279.26 750.469 276.96 750.469 273.82C750.469 270.68 752.649 268.4 755.769 268.4C757.669 268.4 759.209 269.24 760.129 270.58V264.2H761.289V279H760.329L760.189 276.96C759.289 278.38 757.709 279.26 755.769 279.26ZM751.629 273.82C751.629 276.36 753.369 278.14 755.909 278.14C758.429 278.14 760.169 276.36 760.169 273.82C760.169 271.3 758.429 269.52 755.909 269.52C753.369 269.52 751.629 271.3 751.629 273.82ZM769.792 279.26C766.652 279.26 764.512 277.04 764.512 273.82C764.512 270.62 766.672 268.4 769.812 268.4C773.072 268.4 775.172 270.8 775.092 274.3H765.692C765.892 276.64 767.492 278.16 769.792 278.16C771.472 278.16 772.812 277.38 773.492 276.04L774.792 276.06C773.992 278.04 772.112 279.26 769.792 279.26ZM765.692 273.28H773.952C773.672 270.94 772.072 269.5 769.812 269.5C767.512 269.5 765.892 271 765.692 273.28ZM782.131 279C779.931 279 778.751 277.76 778.751 275.42V269.72H776.491V268.66H777.811C778.591 268.66 778.811 268.46 778.891 267.7L778.991 266.12H779.911V268.66H783.491V269.72H779.911V275.38C779.911 277.08 780.611 277.88 782.171 277.88H783.631V279H782.131ZM792.091 279V268.66H793.071L793.171 270.34C793.891 269.08 795.151 268.4 796.751 268.4C798.551 268.4 799.931 269.3 800.531 270.88C801.231 269.3 802.651 268.4 804.471 268.4C807.071 268.4 808.751 270.18 808.751 273.06V279H807.591V273.24C807.591 270.94 806.311 269.52 804.331 269.52C802.311 269.52 800.991 270.98 800.991 273.32V279H799.831V273.24C799.831 270.94 798.571 269.52 796.591 269.52C794.571 269.52 793.251 270.98 793.251 273.32V279H792.091ZM817.018 279.26C813.878 279.26 811.738 277.04 811.738 273.82C811.738 270.62 813.898 268.4 817.038 268.4C820.298 268.4 822.398 270.8 822.318 274.3H812.918C813.118 276.64 814.718 278.16 817.018 278.16C818.698 278.16 820.038 277.38 820.718 276.04L822.018 276.06C821.218 278.04 819.338 279.26 817.018 279.26ZM812.918 273.28H821.178C820.898 270.94 819.298 269.5 817.038 269.5C814.738 269.5 813.118 271 812.918 273.28ZM829.05 279.26C826.43 279.26 824.77 277.94 824.69 275.88H825.83C825.95 277.34 827.09 278.2 829.07 278.2C830.89 278.2 831.99 277.5 831.99 276.36C831.99 275.28 831.01 274.62 828.81 274.24C826.11 273.78 824.89 272.82 824.89 271.24C824.89 269.48 826.39 268.4 828.81 268.4C831.25 268.4 832.79 269.56 832.95 271.54H831.79C831.67 270.18 830.61 269.44 828.81 269.44C827.09 269.44 826.05 270.14 826.05 271.26C826.05 272.28 826.91 272.84 829.21 273.28C831.83 273.78 833.13 274.82 833.13 276.38C833.13 278.12 831.55 279.26 829.05 279.26ZM840.393 279C838.193 279 837.013 277.76 837.013 275.42V269.72H834.753V268.66H836.073C836.853 268.66 837.073 268.46 837.153 267.7L837.253 266.12H838.173V268.66H841.753V269.72H838.173V275.38C838.173 277.08 838.873 277.88 840.433 277.88H841.893V279H840.393ZM848.874 279.26C845.734 279.26 843.594 277.04 843.594 273.82C843.594 270.62 845.754 268.4 848.894 268.4C852.154 268.4 854.254 270.8 854.174 274.3H844.774C844.974 276.64 846.574 278.16 848.874 278.16C850.554 278.16 851.894 277.38 852.574 276.04L853.874 276.06C853.074 278.04 851.194 279.26 848.874 279.26ZM844.774 273.28H853.034C852.754 270.94 851.154 269.5 848.894 269.5C846.594 269.5 844.974 271 844.774 273.28ZM862.228 279V268.66H863.388V279H862.228ZM861.748 265.72C861.748 265.14 862.168 264.68 862.808 264.68C863.448 264.68 863.868 265.14 863.868 265.72C863.868 266.32 863.448 266.78 862.808 266.78C862.168 266.78 861.748 266.32 861.748 265.72ZM867.701 279V265H872.141C875.381 265 877.301 266.7 877.301 269.6C877.301 272.5 875.381 274.2 872.141 274.2H868.921V279H867.701ZM868.921 273.08H872.121C874.741 273.08 876.081 271.9 876.081 269.62C876.081 267.34 874.741 266.16 872.121 266.16H868.921V273.08ZM880.294 279V264.2H881.454V270.54C882.274 269.12 883.714 268.4 885.334 268.4C888.014 268.4 889.654 270.26 889.654 273.24V279H888.494V273.34C888.494 270.96 887.234 269.52 885.174 269.52C882.994 269.52 881.454 271.14 881.454 273.62V279H880.294ZM898.096 279.26C894.896 279.26 892.656 277.02 892.656 273.82C892.656 270.64 894.896 268.4 898.096 268.4C901.276 268.4 903.516 270.64 903.516 273.82C903.516 277.02 901.276 279.26 898.096 279.26ZM893.816 273.82C893.816 276.38 895.556 278.14 898.096 278.14C900.616 278.14 902.356 276.38 902.356 273.82C902.356 271.28 900.616 269.52 898.096 269.52C895.556 269.52 893.816 271.28 893.816 273.82ZM906.74 279V268.66H907.72L907.82 270.66C908.64 269.18 910.08 268.4 911.74 268.4C914.44 268.4 916.1 270.3 916.1 273.28V279H914.94V273.38C914.94 271 913.66 269.52 911.6 269.52C909.42 269.52 907.9 271.18 907.9 273.64V279H906.74ZM924.381 279.26C921.241 279.26 919.101 277.04 919.101 273.82C919.101 270.62 921.261 268.4 924.401 268.4C927.661 268.4 929.761 270.8 929.681 274.3H920.281C920.481 276.64 922.081 278.16 924.381 278.16C926.061 278.16 927.401 277.38 928.081 276.04L929.381 276.06C928.581 278.04 926.701 279.26 924.381 279.26ZM920.281 273.28H928.541C928.261 270.94 926.661 269.5 924.401 269.5C922.101 269.5 920.481 271 920.281 273.28ZM932.853 279V268.66H933.833L933.933 270.66C934.753 269.18 936.193 268.4 937.853 268.4C940.553 268.4 942.213 270.3 942.213 273.28V279H941.053V273.38C941.053 271 939.773 269.52 937.713 269.52C935.533 269.52 934.013 271.18 934.013 273.64V279H932.853ZM954.597 279.26C951.977 279.26 950.317 277.94 950.237 275.88H951.377C951.497 277.34 952.637 278.2 954.617 278.2C956.437 278.2 957.537 277.5 957.537 276.36C957.537 275.28 956.557 274.62 954.357 274.24C951.657 273.78 950.437 272.82 950.437 271.24C950.437 269.48 951.937 268.4 954.357 268.4C956.797 268.4 958.337 269.56 958.497 271.54H957.337C957.217 270.18 956.157 269.44 954.357 269.44C952.637 269.44 951.597 270.14 951.597 271.26C951.597 272.28 952.457 272.84 954.757 273.28C957.377 273.78 958.677 274.82 958.677 276.38C958.677 278.12 957.097 279.26 954.597 279.26ZM962.033 279V268.66H963.193V279H962.033ZM961.553 265.72C961.553 265.14 961.973 264.68 962.613 264.68C963.253 264.68 963.673 265.14 963.673 265.72C963.673 266.32 963.253 266.78 962.613 266.78C961.973 266.78 961.553 266.32 961.553 265.72ZM967.306 279V268.66H968.286L968.386 270.66C969.206 269.18 970.646 268.4 972.306 268.4C975.006 268.4 976.666 270.3 976.666 273.28V279H975.506V273.38C975.506 271 974.226 269.52 972.166 269.52C969.986 269.52 968.466 271.18 968.466 273.64V279H967.306Z" fill="black"/>
<path d="M818.68 391V384.44H810.48V391H809.26V377H810.48V383.28H818.68V377H819.9V391H818.68ZM827.456 391.16C825.056 391.16 823.556 389.98 823.556 388.08C823.556 386.24 824.956 385.08 827.076 385.08H831.636V384.34C831.636 382.62 830.376 381.48 828.456 381.48C826.896 381.48 825.676 382.28 825.256 383.52H824.076C824.576 381.6 826.236 380.4 828.436 380.4C831.016 380.4 832.796 381.98 832.796 384.28V391H831.836L831.716 389.22C830.816 390.46 829.296 391.16 827.456 391.16ZM824.716 388.06C824.716 389.32 825.776 390.12 827.496 390.12C829.896 390.12 831.656 388.62 831.656 386.54V386.1H827.116C825.696 386.1 824.716 386.88 824.716 388.06ZM836.697 391V380.66H837.677L837.777 382.66C838.597 381.18 840.037 380.4 841.697 380.4C844.397 380.4 846.057 382.3 846.057 385.28V391H844.897V385.38C844.897 383 843.617 381.52 841.557 381.52C839.377 381.52 837.857 383.18 837.857 385.64V391H836.697ZM860.83 391.26C858.89 391.26 857.31 390.36 856.41 388.94L856.29 391H855.31V376.2H856.47V382.62C857.39 381.24 858.93 380.4 860.83 380.4C863.97 380.4 866.13 382.68 866.13 385.82C866.13 388.96 863.97 391.26 860.83 391.26ZM856.43 385.82C856.43 388.36 858.17 390.14 860.71 390.14C863.25 390.14 864.97 388.36 864.97 385.82C864.97 383.3 863.25 381.52 860.71 381.52C858.17 381.52 856.43 383.3 856.43 385.82ZM869.353 391V380.66H870.333L870.453 382.98C871.153 381.42 872.333 380.66 874.253 380.66H875.113V381.74H874.213C871.993 381.74 870.513 383.1 870.513 386.24V391H869.353ZM882.105 391.26C879.445 391.26 877.805 389.36 877.805 386.38V380.66H878.965V386.28C878.965 388.64 880.225 390.14 882.265 390.14C884.405 390.14 885.885 388.46 885.885 386V380.66H887.045V391H886.085L885.965 388.98C885.165 390.48 883.725 391.26 882.105 391.26ZM891.169 391V376.2H892.329V385.2H893.849C895.769 385.2 896.609 384.7 897.269 382.96L898.149 380.66H899.389L898.349 383.4C897.889 384.56 897.349 385.3 896.529 385.74L899.889 391H898.509L895.449 386.14C894.969 386.24 894.429 386.28 893.809 386.28H892.329V391H891.169ZM906.799 391.26C903.659 391.26 901.519 389.04 901.519 385.82C901.519 382.62 903.679 380.4 906.819 380.4C910.079 380.4 912.179 382.8 912.099 386.3H902.699C902.899 388.64 904.499 390.16 906.799 390.16C908.479 390.16 909.819 389.38 910.499 388.04L911.799 388.06C910.999 390.04 909.119 391.26 906.799 391.26ZM902.699 385.28H910.959C910.679 382.94 909.079 381.5 906.819 381.5C904.519 381.5 902.899 383 902.699 385.28ZM915.271 391V380.66H916.251L916.371 382.98C917.071 381.42 918.251 380.66 920.171 380.66H921.031V381.74H920.131C917.911 381.74 916.431 383.1 916.431 386.24V391H915.271ZM928.962 391V376.2H930.122V391H928.962ZM934.236 391V380.66H935.396V391H934.236ZM933.756 377.72C933.756 377.14 934.176 376.68 934.816 376.68C935.456 376.68 935.876 377.14 935.876 377.72C935.876 378.32 935.456 378.78 934.816 378.78C934.176 378.78 933.756 378.32 933.756 377.72ZM943.069 391.26C940.449 391.26 938.789 389.94 938.709 387.88H939.849C939.969 389.34 941.109 390.2 943.089 390.2C944.909 390.2 946.009 389.5 946.009 388.36C946.009 387.28 945.029 386.62 942.829 386.24C940.129 385.78 938.909 384.82 938.909 383.24C938.909 381.48 940.409 380.4 942.829 380.4C945.269 380.4 946.809 381.56 946.969 383.54H945.809C945.689 382.18 944.629 381.44 942.829 381.44C941.109 381.44 940.069 382.14 940.069 383.26C940.069 384.28 940.929 384.84 943.229 385.28C945.849 385.78 947.149 386.82 947.149 388.38C947.149 390.12 945.569 391.26 943.069 391.26ZM954.412 391C952.212 391 951.032 389.76 951.032 387.42V381.72H948.772V380.66H950.092C950.872 380.66 951.092 380.46 951.172 379.7L951.272 378.12H952.192V380.66H955.772V381.72H952.192V387.38C952.192 389.08 952.892 389.88 954.452 389.88H955.912V391H954.412ZM962.893 391.26C959.753 391.26 957.613 389.04 957.613 385.82C957.613 382.62 959.773 380.4 962.913 380.4C966.173 380.4 968.273 382.8 968.193 386.3H958.793C958.993 388.64 960.593 390.16 962.893 390.16C964.573 390.16 965.913 389.38 966.593 388.04L967.893 388.06C967.093 390.04 965.213 391.26 962.893 391.26ZM958.793 385.28H967.053C966.773 382.94 965.173 381.5 962.913 381.5C960.613 381.5 958.993 383 958.793 385.28ZM971.365 391V380.66H972.345L972.465 382.98C973.165 381.42 974.345 380.66 976.265 380.66H977.125V381.74H976.225C974.005 381.74 972.525 383.1 972.525 386.24V391H971.365ZM989.127 391.26C985.927 391.26 983.687 389.02 983.687 385.82C983.687 382.64 985.927 380.4 989.127 380.4C992.307 380.4 994.547 382.64 994.547 385.82C994.547 389.02 992.307 391.26 989.127 391.26ZM984.847 385.82C984.847 388.38 986.587 390.14 989.127 390.14C991.647 390.14 993.387 388.38 993.387 385.82C993.387 383.28 991.647 381.52 989.127 381.52C986.587 381.52 984.847 383.28 984.847 385.82ZM1002.31 395.26C999.771 395.26 997.891 393.92 997.491 391.82H998.671C999.011 393.26 1000.41 394.16 1002.31 394.16C1004.69 394.16 1006.21 392.76 1006.21 390.54V388.86C1005.29 390.12 1003.81 390.88 1002.05 390.88C999.031 390.88 996.871 388.68 996.871 385.64C996.871 382.6 999.031 380.4 1002.05 380.4C1003.87 380.4 1005.37 381.2 1006.29 382.52L1006.39 380.66H1007.37V390.58C1007.37 393.36 1005.33 395.26 1002.31 395.26ZM998.031 385.64C998.031 388.06 999.731 389.74 1002.17 389.74C1004.59 389.74 1006.29 388.06 1006.29 385.64C1006.29 383.22 1004.59 381.52 1002.17 381.52C999.731 381.52 998.031 383.22 998.031 385.64ZM1022.35 391.26C1020.45 391.26 1018.91 390.4 1017.99 389.04V395H1016.83V380.66H1017.81L1017.93 382.72C1018.83 381.28 1020.41 380.4 1022.35 380.4C1025.49 380.4 1027.65 382.68 1027.65 385.82C1027.65 388.96 1025.49 391.26 1022.35 391.26ZM1017.95 385.82C1017.95 388.36 1019.69 390.14 1022.23 390.14C1024.77 390.14 1026.49 388.36 1026.49 385.82C1026.49 383.3 1024.77 381.52 1022.23 381.52C1019.69 381.52 1017.95 383.3 1017.95 385.82ZM1033.98 391.16C1031.58 391.16 1030.08 389.98 1030.08 388.08C1030.08 386.24 1031.48 385.08 1033.6 385.08H1038.16V384.34C1038.16 382.62 1036.9 381.48 1034.98 381.48C1033.42 381.48 1032.2 382.28 1031.78 383.52H1030.6C1031.1 381.6 1032.76 380.4 1034.96 380.4C1037.54 380.4 1039.32 381.98 1039.32 384.28V391H1038.36L1038.24 389.22C1037.34 390.46 1035.82 391.16 1033.98 391.16ZM1031.24 388.06C1031.24 389.32 1032.3 390.12 1034.02 390.12C1036.42 390.12 1038.18 388.62 1038.18 386.54V386.1H1033.64C1032.22 386.1 1031.24 386.88 1031.24 388.06ZM1032.76 377.1C1032.76 375.84 1033.7 374.96 1034.96 374.96C1036.22 374.96 1037.16 375.84 1037.16 377.1C1037.16 378.36 1036.22 379.22 1034.96 379.22C1033.7 379.22 1032.76 378.36 1032.76 377.1ZM1033.62 377.1C1033.62 377.88 1034.18 378.44 1034.96 378.44C1035.74 378.44 1036.3 377.88 1036.3 377.1C1036.3 376.3 1035.74 375.74 1034.96 375.74C1034.18 375.74 1033.62 376.3 1033.62 377.1ZM1043.22 391V380.66H1044.2L1044.3 382.34C1045.02 381.08 1046.28 380.4 1047.88 380.4C1049.68 380.4 1051.06 381.3 1051.66 382.88C1052.36 381.3 1053.78 380.4 1055.6 380.4C1058.2 380.4 1059.88 382.18 1059.88 385.06V391H1058.72V385.24C1058.72 382.94 1057.44 381.52 1055.46 381.52C1053.44 381.52 1052.12 382.98 1052.12 385.32V391H1050.96V385.24C1050.96 382.94 1049.7 381.52 1047.72 381.52C1045.7 381.52 1044.38 382.98 1044.38 385.32V391H1043.22ZM1063.77 391V380.66H1064.93V391H1063.77ZM1063.29 377.72C1063.29 377.14 1063.71 376.68 1064.35 376.68C1064.99 376.68 1065.41 377.14 1065.41 377.72C1065.41 378.32 1064.99 378.78 1064.35 378.78C1063.71 378.78 1063.29 378.32 1063.29 377.72ZM1069.04 391V380.66H1070.02L1070.12 382.66C1070.94 381.18 1072.38 380.4 1074.04 380.4C1076.74 380.4 1078.4 382.3 1078.4 385.28V391H1077.24V385.38C1077.24 383 1075.96 381.52 1073.9 381.52C1071.72 381.52 1070.2 383.18 1070.2 385.64V391H1069.04ZM1082.3 391V380.66H1083.28L1083.38 382.66C1084.2 381.18 1085.64 380.4 1087.3 380.4C1090 380.4 1091.66 382.3 1091.66 385.28V391H1090.5V385.38C1090.5 383 1089.22 381.52 1087.16 381.52C1084.98 381.52 1083.46 383.18 1083.46 385.64V391H1082.3ZM1099.94 391.26C1096.8 391.26 1094.66 389.04 1094.66 385.82C1094.66 382.62 1096.82 380.4 1099.96 380.4C1103.22 380.4 1105.32 382.8 1105.24 386.3H1095.84C1096.04 388.64 1097.64 390.16 1099.94 390.16C1101.62 390.16 1102.96 389.38 1103.64 388.04L1104.94 388.06C1104.14 390.04 1102.26 391.26 1099.94 391.26ZM1095.84 385.28H1104.1C1103.82 382.94 1102.22 381.5 1099.96 381.5C1097.66 381.5 1096.04 383 1095.84 385.28ZM1108.42 391V376.2H1109.58V391H1108.42ZM1117.25 391.26C1114.63 391.26 1112.97 389.94 1112.89 387.88H1114.03C1114.15 389.34 1115.29 390.2 1117.27 390.2C1119.09 390.2 1120.19 389.5 1120.19 388.36C1120.19 387.28 1119.21 386.62 1117.01 386.24C1114.31 385.78 1113.09 384.82 1113.09 383.24C1113.09 381.48 1114.59 380.4 1117.01 380.4C1119.45 380.4 1120.99 381.56 1121.15 383.54H1119.99C1119.87 382.18 1118.81 381.44 1117.01 381.44C1115.29 381.44 1114.25 382.14 1114.25 383.26C1114.25 384.28 1115.11 384.84 1117.41 385.28C1120.03 385.78 1121.33 386.82 1121.33 388.38C1121.33 390.12 1119.75 391.26 1117.25 391.26ZM1129.07 391.26C1125.93 391.26 1123.79 389.04 1123.79 385.82C1123.79 382.62 1125.95 380.4 1129.09 380.4C1132.35 380.4 1134.45 382.8 1134.37 386.3H1124.97C1125.17 388.64 1126.77 390.16 1129.07 390.16C1130.75 390.16 1132.09 389.38 1132.77 388.04L1134.07 388.06C1133.27 390.04 1131.39 391.26 1129.07 391.26ZM1124.97 385.28H1133.23C1132.95 382.94 1131.35 381.5 1129.09 381.5C1126.79 381.5 1125.17 383 1124.97 385.28ZM1141.1 391.26C1138.48 391.26 1136.82 389.94 1136.74 387.88H1137.88C1138 389.34 1139.14 390.2 1141.12 390.2C1142.94 390.2 1144.04 389.5 1144.04 388.36C1144.04 387.28 1143.06 386.62 1140.86 386.24C1138.16 385.78 1136.94 384.82 1136.94 383.24C1136.94 381.48 1138.44 380.4 1140.86 380.4C1143.3 380.4 1144.84 381.56 1145 383.54H1143.84C1143.72 382.18 1142.66 381.44 1140.86 381.44C1139.14 381.44 1138.1 382.14 1138.1 383.26C1138.1 384.28 1138.96 384.84 1141.26 385.28C1143.88 385.78 1145.18 386.82 1145.18 388.38C1145.18 390.12 1143.6 391.26 1141.1 391.26ZM1156.69 391.16C1154.29 391.16 1152.79 389.98 1152.79 388.08C1152.79 386.24 1154.19 385.08 1156.31 385.08H1160.87V384.34C1160.87 382.62 1159.61 381.48 1157.69 381.48C1156.13 381.48 1154.91 382.28 1154.49 383.52H1153.31C1153.81 381.6 1155.47 380.4 1157.67 380.4C1160.25 380.4 1162.03 381.98 1162.03 384.28V391H1161.07L1160.95 389.22C1160.05 390.46 1158.53 391.16 1156.69 391.16ZM1153.95 388.06C1153.95 389.32 1155.01 390.12 1156.73 390.12C1159.13 390.12 1160.89 388.62 1160.89 386.54V386.1H1156.35C1154.93 386.1 1153.95 386.88 1153.95 388.06ZM1171.46 391.26C1169.56 391.26 1168.02 390.4 1167.1 389.04V395H1165.94V380.66H1166.92L1167.04 382.72C1167.94 381.28 1169.52 380.4 1171.46 380.4C1174.6 380.4 1176.76 382.68 1176.76 385.82C1176.76 388.96 1174.6 391.26 1171.46 391.26ZM1167.06 385.82C1167.06 388.36 1168.8 390.14 1171.34 390.14C1173.88 390.14 1175.6 388.36 1175.6 385.82C1175.6 383.3 1173.88 381.52 1171.34 381.52C1168.8 381.52 1167.06 383.3 1167.06 385.82ZM1185.5 391.26C1183.6 391.26 1182.06 390.4 1181.14 389.04V395H1179.98V380.66H1180.96L1181.08 382.72C1181.98 381.28 1183.56 380.4 1185.5 380.4C1188.64 380.4 1190.8 382.68 1190.8 385.82C1190.8 388.96 1188.64 391.26 1185.5 391.26ZM1181.1 385.82C1181.1 388.36 1182.84 390.14 1185.38 390.14C1187.92 390.14 1189.64 388.36 1189.64 385.82C1189.64 383.3 1187.92 381.52 1185.38 381.52C1182.84 381.52 1181.1 383.3 1181.1 385.82ZM1198.4 391.26C1195.26 391.26 1193.12 389.04 1193.12 385.82C1193.12 382.62 1195.28 380.4 1198.42 380.4C1201.68 380.4 1203.78 382.8 1203.7 386.3H1194.3C1194.5 388.64 1196.1 390.16 1198.4 390.16C1200.08 390.16 1201.42 389.38 1202.1 388.04L1203.4 388.06C1202.6 390.04 1200.72 391.26 1198.4 391.26ZM1194.3 385.28H1202.56C1202.28 382.94 1200.68 381.5 1198.42 381.5C1196.12 381.5 1194.5 383 1194.3 385.28ZM1206.87 391V380.66H1207.85L1207.97 382.98C1208.67 381.42 1209.85 380.66 1211.77 380.66H1212.63V381.74H1211.73C1209.51 381.74 1208.03 383.1 1208.03 386.24V391H1206.87ZM810.06 408.46C810.06 406.1 811.22 404.94 813.52 404.94H815.14V406.04H813.62C811.94 406.04 811.22 406.78 811.22 408.54V409.66H815.04V410.72H811.22V420H810.06V410.72H807.7V409.66H810.06V408.46ZM821.608 420.26C818.408 420.26 816.168 418.02 816.168 414.82C816.168 411.64 818.408 409.4 821.608 409.4C824.788 409.4 827.028 411.64 827.028 414.82C827.028 418.02 824.788 420.26 821.608 420.26ZM817.328 414.82C817.328 417.38 819.068 419.14 821.608 419.14C824.128 419.14 825.868 417.38 825.868 414.82C825.868 412.28 824.128 410.52 821.608 410.52C819.068 410.52 817.328 412.28 817.328 414.82ZM830.251 420V409.66H831.231L831.351 411.98C832.051 410.42 833.231 409.66 835.151 409.66H836.011V410.74H835.111C832.891 410.74 831.411 412.1 831.411 415.24V420H830.251ZM847.183 420.16C844.783 420.16 843.283 418.98 843.283 417.08C843.283 415.24 844.683 414.08 846.803 414.08H851.363V413.34C851.363 411.62 850.103 410.48 848.183 410.48C846.623 410.48 845.403 411.28 844.983 412.52H843.803C844.303 410.6 845.963 409.4 848.163 409.4C850.743 409.4 852.523 410.98 852.523 413.28V420H851.563L851.443 418.22C850.543 419.46 849.023 420.16 847.183 420.16ZM844.443 417.06C844.443 418.32 845.503 419.12 847.223 419.12C849.623 419.12 851.383 417.62 851.383 415.54V415.1H846.843C845.423 415.1 844.443 415.88 844.443 417.06ZM845.963 406.1C845.963 404.84 846.903 403.96 848.163 403.96C849.423 403.96 850.363 404.84 850.363 406.1C850.363 407.36 849.423 408.22 848.163 408.22C846.903 408.22 845.963 407.36 845.963 406.1ZM846.823 406.1C846.823 406.88 847.383 407.44 848.163 407.44C848.943 407.44 849.503 406.88 849.503 406.1C849.503 405.3 848.943 404.74 848.163 404.74C847.383 404.74 846.823 405.3 846.823 406.1ZM865.846 420.26C862.646 420.26 860.406 418.02 860.406 414.82C860.406 411.64 862.646 409.4 865.846 409.4C869.026 409.4 871.266 411.64 871.266 414.82C871.266 418.02 869.026 420.26 865.846 420.26ZM861.566 414.82C861.566 417.38 863.306 419.14 865.846 419.14C868.366 419.14 870.106 417.38 870.106 414.82C870.106 412.28 868.366 410.52 865.846 410.52C863.306 410.52 861.566 412.28 861.566 414.82ZM874.49 420V409.66H875.47L875.59 411.98C876.29 410.42 877.47 409.66 879.39 409.66H880.25V410.74H879.35C877.13 410.74 875.65 412.1 875.65 415.24V420H874.49ZM886.901 424.26C884.361 424.26 882.481 422.92 882.081 420.82H883.261C883.601 422.26 885.001 423.16 886.901 423.16C889.281 423.16 890.801 421.76 890.801 419.54V417.86C889.881 419.12 888.401 419.88 886.641 419.88C883.621 419.88 881.461 417.68 881.461 414.64C881.461 411.6 883.621 409.4 886.641 409.4C888.461 409.4 889.961 410.2 890.881 411.52L890.981 409.66H891.961V419.58C891.961 422.36 889.921 424.26 886.901 424.26ZM882.621 414.64C882.621 417.06 884.321 418.74 886.761 418.74C889.181 418.74 890.881 417.06 890.881 414.64C890.881 412.22 889.181 410.52 886.761 410.52C884.321 410.52 882.621 412.22 882.621 414.64ZM899.312 420.16C896.912 420.16 895.412 418.98 895.412 417.08C895.412 415.24 896.812 414.08 898.932 414.08H903.492V413.34C903.492 411.62 902.232 410.48 900.312 410.48C898.752 410.48 897.532 411.28 897.112 412.52H895.932C896.432 410.6 898.092 409.4 900.292 409.4C902.872 409.4 904.652 410.98 904.652 413.28V420H903.692L903.572 418.22C902.672 419.46 901.152 420.16 899.312 420.16ZM896.572 417.06C896.572 418.32 897.632 419.12 899.352 419.12C901.752 419.12 903.512 417.62 903.512 415.54V415.1H898.972C897.552 415.1 896.572 415.88 896.572 417.06ZM908.552 420V409.66H909.532L909.632 411.66C910.452 410.18 911.892 409.4 913.552 409.4C916.252 409.4 917.912 411.3 917.912 414.28V420H916.752V414.38C916.752 412 915.472 410.52 913.412 410.52C911.232 410.52 909.712 412.18 909.712 414.64V420H908.552ZM921.814 420V409.66H922.974V420H921.814ZM921.334 406.72C921.334 406.14 921.754 405.68 922.394 405.68C923.034 405.68 923.454 406.14 923.454 406.72C923.454 407.32 923.034 407.78 922.394 407.78C921.754 407.78 921.334 407.32 921.334 406.72ZM930.647 420.26C928.027 420.26 926.367 418.94 926.287 416.88H927.427C927.547 418.34 928.687 419.2 930.667 419.2C932.487 419.2 933.587 418.5 933.587 417.36C933.587 416.28 932.607 415.62 930.407 415.24C927.707 414.78 926.487 413.82 926.487 412.24C926.487 410.48 927.987 409.4 930.407 409.4C932.847 409.4 934.387 410.56 934.547 412.54H933.387C933.267 411.18 932.207 410.44 930.407 410.44C928.687 410.44 927.647 411.14 927.647 412.26C927.647 413.28 928.507 413.84 930.807 414.28C933.427 414.78 934.727 415.82 934.727 417.38C934.727 419.12 933.147 420.26 930.647 420.26ZM942.463 420.26C939.323 420.26 937.183 418.04 937.183 414.82C937.183 411.62 939.343 409.4 942.483 409.4C945.743 409.4 947.843 411.8 947.763 415.3H938.363C938.563 417.64 940.163 419.16 942.463 419.16C944.143 419.16 945.483 418.38 946.163 417.04L947.463 417.06C946.663 419.04 944.783 420.26 942.463 420.26ZM938.363 414.28H946.623C946.343 411.94 944.743 410.5 942.483 410.5C940.183 410.5 938.563 412 938.363 414.28ZM950.935 420V409.66H951.915L952.035 411.98C952.735 410.42 953.915 409.66 955.835 409.66H956.695V410.74H955.795C953.575 410.74 952.095 412.1 952.095 415.24V420H950.935ZM963.186 420.26C960.046 420.26 957.906 418.04 957.906 414.82C957.906 411.62 960.066 409.4 963.206 409.4C966.466 409.4 968.566 411.8 968.486 415.3H959.086C959.286 417.64 960.886 419.16 963.186 419.16C964.866 419.16 966.206 418.38 966.886 417.04L968.186 417.06C967.386 419.04 965.506 420.26 963.186 420.26ZM959.086 414.28H967.346C967.066 411.94 965.466 410.5 963.206 410.5C960.906 410.5 959.286 412 959.086 414.28ZM980.523 420.26C977.863 420.26 976.223 418.36 976.223 415.38V409.66H977.383V415.28C977.383 417.64 978.643 419.14 980.683 419.14C982.823 419.14 984.303 417.46 984.303 415V409.66H985.463V420H984.503L984.383 417.98C983.583 419.48 982.143 420.26 980.523 420.26ZM989.587 420V405.2H990.747V414.2H992.267C994.187 414.2 995.027 413.7 995.687 411.96L996.567 409.66H997.807L996.767 412.4C996.307 413.56 995.767 414.3 994.947 414.74L998.307 420H996.927L993.867 415.14C993.387 415.24 992.847 415.28 992.227 415.28H990.747V420H989.587ZM1005.22 420.26C1002.08 420.26 999.937 418.04 999.937 414.82C999.937 411.62 1002.1 409.4 1005.24 409.4C1008.5 409.4 1010.6 411.8 1010.52 415.3H1001.12C1001.32 417.64 1002.92 419.16 1005.22 419.16C1006.9 419.16 1008.24 418.38 1008.92 417.04L1010.22 417.06C1009.42 419.04 1007.54 420.26 1005.22 420.26ZM1001.12 414.28H1009.38C1009.1 411.94 1007.5 410.5 1005.24 410.5C1002.94 410.5 1001.32 412 1001.12 414.28ZM1013.69 420V409.66H1014.67L1014.77 411.66C1015.59 410.18 1017.03 409.4 1018.69 409.4C1021.39 409.4 1023.05 411.3 1023.05 414.28V420H1021.89V414.38C1021.89 412 1020.61 410.52 1018.55 410.52C1016.37 410.52 1014.85 412.18 1014.85 414.64V420H1013.69ZM1030.82 420C1028.62 420 1027.44 418.76 1027.44 416.42V410.72H1025.18V409.66H1026.5C1027.28 409.66 1027.5 409.46 1027.58 408.7L1027.68 407.12H1028.6V409.66H1032.18V410.72H1028.6V416.38C1028.6 418.08 1029.3 418.88 1030.86 418.88H1032.32V420H1030.82ZM1035.43 420V405.2H1036.59V420H1035.43ZM1040.7 420V409.66H1041.86V420H1040.7ZM1040.22 406.72C1040.22 406.14 1040.64 405.68 1041.28 405.68C1041.92 405.68 1042.34 406.14 1042.34 406.72C1042.34 407.32 1041.92 407.78 1041.28 407.78C1040.64 407.78 1040.22 407.32 1040.22 406.72ZM1050.51 424.26C1047.97 424.26 1046.09 422.92 1045.69 420.82H1046.87C1047.21 422.26 1048.61 423.16 1050.51 423.16C1052.89 423.16 1054.41 421.76 1054.41 419.54V417.86C1053.49 419.12 1052.01 419.88 1050.25 419.88C1047.23 419.88 1045.07 417.68 1045.07 414.64C1045.07 411.6 1047.23 409.4 1050.25 409.4C1052.07 409.4 1053.57 410.2 1054.49 411.52L1054.59 409.66H1055.57V419.58C1055.57 422.36 1053.53 424.26 1050.51 424.26ZM1046.23 414.64C1046.23 417.06 1047.93 418.74 1050.37 418.74C1052.79 418.74 1054.49 417.06 1054.49 414.64C1054.49 412.22 1052.79 410.52 1050.37 410.52C1047.93 410.52 1046.23 412.22 1046.23 414.64ZM1064.07 420.26C1060.93 420.26 1058.79 418.04 1058.79 414.82C1058.79 411.62 1060.95 409.4 1064.09 409.4C1067.35 409.4 1069.45 411.8 1069.37 415.3H1059.97C1060.17 417.64 1061.77 419.16 1064.07 419.16C1065.75 419.16 1067.09 418.38 1067.77 417.04L1069.07 417.06C1068.27 419.04 1066.39 420.26 1064.07 420.26ZM1059.97 414.28H1068.23C1067.95 411.94 1066.35 410.5 1064.09 410.5C1061.79 410.5 1060.17 412 1059.97 414.28ZM1081.49 420.26C1078.29 420.26 1076.05 418.02 1076.05 414.82C1076.05 411.64 1078.29 409.4 1081.49 409.4C1084.67 409.4 1086.91 411.64 1086.91 414.82C1086.91 418.02 1084.67 420.26 1081.49 420.26ZM1077.21 414.82C1077.21 417.38 1078.95 419.14 1081.49 419.14C1084.01 419.14 1085.75 417.38 1085.75 414.82C1085.75 412.28 1084.01 410.52 1081.49 410.52C1078.95 410.52 1077.21 412.28 1077.21 414.82ZM1095.65 420.26C1093.75 420.26 1092.21 419.4 1091.29 418.04V424H1090.13V409.66H1091.11L1091.23 411.72C1092.13 410.28 1093.71 409.4 1095.65 409.4C1098.79 409.4 1100.95 411.68 1100.95 414.82C1100.95 417.96 1098.79 420.26 1095.65 420.26ZM1091.25 414.82C1091.25 417.36 1092.99 419.14 1095.53 419.14C1098.07 419.14 1099.79 417.36 1099.79 414.82C1099.79 412.3 1098.07 410.52 1095.53 410.52C1092.99 410.52 1091.25 412.3 1091.25 414.82ZM1109.7 420.26C1107.8 420.26 1106.26 419.4 1105.34 418.04V424H1104.18V409.66H1105.16L1105.28 411.72C1106.18 410.28 1107.76 409.4 1109.7 409.4C1112.84 409.4 1115 411.68 1115 414.82C1115 417.96 1112.84 420.26 1109.7 420.26ZM1105.3 414.82C1105.3 417.36 1107.04 419.14 1109.58 419.14C1112.12 419.14 1113.84 417.36 1113.84 414.82C1113.84 412.3 1112.12 410.52 1109.58 410.52C1107.04 410.52 1105.3 412.3 1105.3 414.82ZM1122.76 424.26C1120.22 424.26 1118.34 422.92 1117.94 420.82H1119.12C1119.46 422.26 1120.86 423.16 1122.76 423.16C1125.14 423.16 1126.66 421.76 1126.66 419.54V417.86C1125.74 419.12 1124.26 419.88 1122.5 419.88C1119.48 419.88 1117.32 417.68 1117.32 414.64C1117.32 411.6 1119.48 409.4 1122.5 409.4C1124.32 409.4 1125.82 410.2 1126.74 411.52L1126.84 409.66H1127.82V419.58C1127.82 422.36 1125.78 424.26 1122.76 424.26ZM1118.48 414.64C1118.48 417.06 1120.18 418.74 1122.62 418.74C1125.04 418.74 1126.74 417.06 1126.74 414.64C1126.74 412.22 1125.04 410.52 1122.62 410.52C1120.18 410.52 1118.48 412.22 1118.48 414.64ZM1135.17 420.16C1132.77 420.16 1131.27 418.98 1131.27 417.08C1131.27 415.24 1132.67 414.08 1134.79 414.08H1139.35V413.34C1139.35 411.62 1138.09 410.48 1136.17 410.48C1134.61 410.48 1133.39 411.28 1132.97 412.52H1131.79C1132.29 410.6 1133.95 409.4 1136.15 409.4C1138.73 409.4 1140.51 410.98 1140.51 413.28V420H1139.55L1139.43 418.22C1138.53 419.46 1137.01 420.16 1135.17 420.16ZM1132.43 417.06C1132.43 418.32 1133.49 419.12 1135.21 419.12C1137.61 419.12 1139.37 417.62 1139.37 415.54V415.1H1134.83C1133.41 415.1 1132.43 415.88 1132.43 417.06ZM1146.94 420L1142.32 409.66H1143.58L1145.38 413.66L1147.52 418.48L1149.64 413.66L1151.46 409.66H1152.7L1148.08 420H1146.94ZM1159.16 420.26C1156.02 420.26 1153.88 418.04 1153.88 414.82C1153.88 411.62 1156.04 409.4 1159.18 409.4C1162.44 409.4 1164.54 411.8 1164.46 415.3H1155.06C1155.26 417.64 1156.86 419.16 1159.16 419.16C1160.84 419.16 1162.18 418.38 1162.86 417.04L1164.16 417.06C1163.36 419.04 1161.48 420.26 1159.16 420.26ZM1155.06 414.28H1163.32C1163.04 411.94 1161.44 410.5 1159.18 410.5C1156.88 410.5 1155.26 412 1155.06 414.28ZM1167.63 420V409.66H1168.61L1168.73 411.98C1169.43 410.42 1170.61 409.66 1172.53 409.66H1173.39V410.74H1172.49C1170.27 410.74 1168.79 412.1 1168.79 415.24V420H1167.63Z" fill="black"/>
<path d="M296.44 313L302.24 299H303.4L309.2 313H307.92L306.46 309.48H299.18L297.74 313H296.44ZM299.66 308.36H306L302.82 300.66L299.66 308.36ZM311.712 313V298.2H312.872V307.2H314.392C316.312 307.2 317.152 306.7 317.812 304.96L318.692 302.66H319.932L318.892 305.4C318.432 306.56 317.892 307.3 317.072 307.74L320.432 313H319.052L315.992 308.14C315.512 308.24 314.972 308.28 314.352 308.28H312.872V313H311.712ZM326.183 313.16C323.783 313.16 322.283 311.98 322.283 310.08C322.283 308.24 323.683 307.08 325.803 307.08H330.363V306.34C330.363 304.62 329.103 303.48 327.183 303.48C325.623 303.48 324.403 304.28 323.983 305.52H322.803C323.303 303.6 324.963 302.4 327.163 302.4C329.743 302.4 331.523 303.98 331.523 306.28V313H330.563L330.443 311.22C329.543 312.46 328.023 313.16 326.183 313.16ZM323.443 310.06C323.443 311.32 324.503 312.12 326.223 312.12C328.623 312.12 330.383 310.62 330.383 308.54V308.1H325.843C324.423 308.1 323.443 308.88 323.443 310.06ZM339.823 313.26C336.703 313.26 334.523 310.96 334.523 307.82C334.523 304.68 336.703 302.4 339.823 302.4C341.723 302.4 343.263 303.24 344.183 304.58V298.2H345.343V313H344.383L344.243 310.96C343.343 312.38 341.763 313.26 339.823 313.26ZM335.683 307.82C335.683 310.36 337.423 312.14 339.963 312.14C342.483 312.14 344.223 310.36 344.223 307.82C344.223 305.3 342.483 303.52 339.963 303.52C337.423 303.52 335.683 305.3 335.683 307.82ZM353.846 313.26C350.706 313.26 348.566 311.04 348.566 307.82C348.566 304.62 350.726 302.4 353.866 302.4C357.126 302.4 359.226 304.8 359.146 308.3H349.746C349.946 310.64 351.546 312.16 353.846 312.16C355.526 312.16 356.866 311.38 357.546 310.04L358.846 310.06C358.046 312.04 356.166 313.26 353.846 313.26ZM349.746 307.28H358.006C357.726 304.94 356.126 303.5 353.866 303.5C351.566 303.5 349.946 305 349.746 307.28ZM362.318 313V302.66H363.298L363.398 304.34C364.118 303.08 365.378 302.4 366.978 302.4C368.778 302.4 370.158 303.3 370.758 304.88C371.458 303.3 372.878 302.4 374.698 302.4C377.298 302.4 378.978 304.18 378.978 307.06V313H377.818V307.24C377.818 304.94 376.538 303.52 374.558 303.52C372.538 303.52 371.218 304.98 371.218 307.32V313H370.058V307.24C370.058 304.94 368.798 303.52 366.818 303.52C364.798 303.52 363.478 304.98 363.478 307.32V313H362.318ZM382.865 313V302.66H384.025V313H382.865ZM382.385 299.72C382.385 299.14 382.805 298.68 383.445 298.68C384.085 298.68 384.505 299.14 384.505 299.72C384.505 300.32 384.085 300.78 383.445 300.78C382.805 300.78 382.385 300.32 382.385 299.72ZM391.698 313.26C389.078 313.26 387.418 311.94 387.338 309.88H388.478C388.598 311.34 389.738 312.2 391.718 312.2C393.538 312.2 394.638 311.5 394.638 310.36C394.638 309.28 393.658 308.62 391.458 308.24C388.758 307.78 387.538 306.82 387.538 305.24C387.538 303.48 389.038 302.4 391.458 302.4C393.898 302.4 395.438 303.56 395.598 305.54H394.438C394.318 304.18 393.258 303.44 391.458 303.44C389.738 303.44 388.698 304.14 388.698 305.26C388.698 306.28 389.558 306.84 391.858 307.28C394.478 307.78 395.778 308.82 395.778 310.38C395.778 312.12 394.198 313.26 391.698 313.26ZM399.134 313V298.2H400.294V307.2H401.814C403.734 307.2 404.574 306.7 405.234 304.96L406.114 302.66H407.354L406.314 305.4C405.854 306.56 405.314 307.3 404.494 307.74L407.854 313H406.474L403.414 308.14C402.934 308.24 402.394 308.28 401.774 308.28H400.294V313H399.134ZM419.33 313C417.13 313 415.95 311.76 415.95 309.42V303.72H413.69V302.66H415.01C415.79 302.66 416.01 302.46 416.09 301.7L416.19 300.12H417.11V302.66H420.69V303.72H417.11V309.38C417.11 311.08 417.81 311.88 419.37 311.88H420.83V313H419.33ZM423.939 313V302.66H425.099V313H423.939ZM423.459 299.72C423.459 299.14 423.879 298.68 424.519 298.68C425.159 298.68 425.579 299.14 425.579 299.72C425.579 300.32 425.159 300.78 424.519 300.78C423.879 300.78 423.459 300.32 423.459 299.72ZM433.612 313.26C430.492 313.26 428.312 310.96 428.312 307.82C428.312 304.68 430.492 302.4 433.612 302.4C435.512 302.4 437.052 303.24 437.972 304.58V298.2H439.132V313H438.172L438.032 310.96C437.132 312.38 435.552 313.26 433.612 313.26ZM429.472 307.82C429.472 310.36 431.212 312.14 433.752 312.14C436.272 312.14 438.012 310.36 438.012 307.82C438.012 305.3 436.272 303.52 433.752 303.52C431.212 303.52 429.472 305.3 429.472 307.82ZM452.678 317.26C450.138 317.26 448.258 315.92 447.858 313.82H449.038C449.378 315.26 450.778 316.16 452.678 316.16C455.058 316.16 456.578 314.76 456.578 312.54V310.86C455.658 312.12 454.178 312.88 452.418 312.88C449.398 312.88 447.238 310.68 447.238 307.64C447.238 304.6 449.398 302.4 452.418 302.4C454.238 302.4 455.738 303.2 456.658 304.52L456.758 302.66H457.738V312.58C457.738 315.36 455.698 317.26 452.678 317.26ZM448.398 307.64C448.398 310.06 450.098 311.74 452.538 311.74C454.958 311.74 456.658 310.06 456.658 307.64C456.658 305.22 454.958 303.52 452.538 303.52C450.098 303.52 448.398 305.22 448.398 307.64ZM461.849 313V302.66H463.009V313H461.849ZM461.369 299.72C461.369 299.14 461.789 298.68 462.429 298.68C463.069 298.68 463.489 299.14 463.489 299.72C463.489 300.32 463.069 300.78 462.429 300.78C461.789 300.78 461.369 300.32 461.369 299.72ZM467.123 313V298.2H468.283V307.2H469.803C471.723 307.2 472.563 306.7 473.223 304.96L474.103 302.66H475.342L474.303 305.4C473.843 306.56 473.303 307.3 472.483 307.74L475.843 313H474.463L471.403 308.14C470.923 308.24 470.383 308.28 469.763 308.28H468.283V313H467.123ZM478.705 313V298.2H479.865V307.2H481.385C483.305 307.2 484.145 306.7 484.805 304.96L485.685 302.66H486.925L485.885 305.4C485.425 306.56 484.885 307.3 484.065 307.74L487.425 313H486.045L482.985 308.14C482.505 308.24 481.965 308.28 481.345 308.28H479.865V313H478.705ZM499.358 313.26C496.158 313.26 493.918 311.02 493.918 307.82C493.918 304.64 496.158 302.4 499.358 302.4C502.538 302.4 504.778 304.64 504.778 307.82C504.778 311.02 502.538 313.26 499.358 313.26ZM495.078 307.82C495.078 310.38 496.818 312.14 499.358 312.14C501.878 312.14 503.618 310.38 503.618 307.82C503.618 305.28 501.878 303.52 499.358 303.52C496.818 303.52 495.078 305.28 495.078 307.82ZM519.268 313C517.028 313 515.888 311.76 515.888 309.32V303.72H509.888V313H508.728V303.72H506.368V302.66H508.728V301.46C508.728 299.12 509.908 297.94 512.248 297.94H513.808V299.04H512.348C510.628 299.04 509.888 299.78 509.888 301.54V302.66H514.948C515.728 302.66 515.948 302.46 516.028 301.7L516.128 300.12H517.048V302.66H520.628V303.72H517.048V309.28C517.048 311.08 517.748 311.88 519.308 311.88H520.768V313H519.268ZM527.733 313.26C524.593 313.26 522.453 311.04 522.453 307.82C522.453 304.62 524.613 302.4 527.753 302.4C531.013 302.4 533.113 304.8 533.033 308.3H523.633C523.833 310.64 525.433 312.16 527.733 312.16C529.413 312.16 530.753 311.38 531.433 310.04L532.733 310.06C531.933 312.04 530.053 313.26 527.733 313.26ZM523.633 307.28H531.893C531.613 304.94 530.013 303.5 527.753 303.5C525.453 303.5 523.833 305 523.633 307.28ZM546.607 313.26C544.707 313.26 543.167 312.4 542.247 311.04V317H541.087V302.66H542.067L542.187 304.72C543.087 303.28 544.667 302.4 546.607 302.4C549.747 302.4 551.907 304.68 551.907 307.82C551.907 310.96 549.747 313.26 546.607 313.26ZM542.207 307.82C542.207 310.36 543.947 312.14 546.487 312.14C549.027 312.14 550.747 310.36 550.747 307.82C550.747 305.3 549.027 303.52 546.487 303.52C543.947 303.52 542.207 305.3 542.207 307.82ZM558.234 313.16C555.834 313.16 554.334 311.98 554.334 310.08C554.334 308.24 555.734 307.08 557.854 307.08H562.414V306.34C562.414 304.62 561.154 303.48 559.234 303.48C557.674 303.48 556.454 304.28 556.034 305.52H554.854C555.354 303.6 557.014 302.4 559.214 302.4C561.794 302.4 563.574 303.98 563.574 306.28V313H562.614L562.494 311.22C561.594 312.46 560.074 313.16 558.234 313.16ZM555.494 310.06C555.494 311.32 556.554 312.12 558.274 312.12C560.674 312.12 562.434 310.62 562.434 308.54V308.1H557.894C556.474 308.1 555.494 308.88 555.494 310.06ZM557.014 299.1C557.014 297.84 557.954 296.96 559.214 296.96C560.474 296.96 561.414 297.84 561.414 299.1C561.414 300.36 560.474 301.22 559.214 301.22C557.954 301.22 557.014 300.36 557.014 299.1ZM557.874 299.1C557.874 299.88 558.434 300.44 559.214 300.44C559.994 300.44 560.554 299.88 560.554 299.1C560.554 298.3 559.994 297.74 559.214 297.74C558.434 297.74 557.874 298.3 557.874 299.1ZM303.58 342.26C301.64 342.26 300.06 341.36 299.16 339.94L299.04 342H298.06V327.2H299.22V333.62C300.14 332.24 301.68 331.4 303.58 331.4C306.72 331.4 308.88 333.68 308.88 336.82C308.88 339.96 306.72 342.26 303.58 342.26ZM299.18 336.82C299.18 339.36 300.92 341.14 303.46 341.14C306 341.14 307.72 339.36 307.72 336.82C307.72 334.3 306 332.52 303.46 332.52C300.92 332.52 299.18 334.3 299.18 336.82ZM316.483 342.26C313.343 342.26 311.203 340.04 311.203 336.82C311.203 333.62 313.363 331.4 316.503 331.4C319.763 331.4 321.863 333.8 321.783 337.3H312.383C312.583 339.64 314.183 341.16 316.483 341.16C318.163 341.16 319.503 340.38 320.183 339.04L321.483 339.06C320.683 341.04 318.803 342.26 316.483 342.26ZM312.383 336.28H320.643C320.363 333.94 318.763 332.5 316.503 332.5C314.203 332.5 312.583 334 312.383 336.28ZM324.955 342V327.2H326.115V336.2H327.635C329.555 336.2 330.395 335.7 331.055 333.96L331.935 331.66H333.175L332.135 334.4C331.675 335.56 331.135 336.3 330.315 336.74L333.675 342H332.295L329.235 337.14C328.755 337.24 328.215 337.28 327.595 337.28H326.115V342H324.955ZM340.745 342.26C337.545 342.26 335.305 340.02 335.305 336.82C335.305 333.64 337.545 331.4 340.745 331.4C343.925 331.4 346.165 333.64 346.165 336.82C346.165 340.02 343.925 342.26 340.745 342.26ZM336.465 336.82C336.465 339.38 338.205 341.14 340.745 341.14C343.265 341.14 345.005 339.38 345.005 336.82C345.005 334.28 343.265 332.52 340.745 332.52C338.205 332.52 336.465 334.28 336.465 336.82ZM352.948 342.26C350.328 342.26 348.668 340.94 348.588 338.88H349.728C349.848 340.34 350.988 341.2 352.968 341.2C354.788 341.2 355.888 340.5 355.888 339.36C355.888 338.28 354.908 337.62 352.708 337.24C350.008 336.78 348.788 335.82 348.788 334.24C348.788 332.48 350.288 331.4 352.708 331.4C355.148 331.4 356.688 332.56 356.848 334.54H355.688C355.568 333.18 354.508 332.44 352.708 332.44C350.988 332.44 349.948 333.14 349.948 334.26C349.948 335.28 350.808 335.84 353.108 336.28C355.728 336.78 357.028 337.82 357.028 339.38C357.028 341.12 355.448 342.26 352.948 342.26ZM364.291 342C362.091 342 360.911 340.76 360.911 338.42V332.72H358.651V331.66H359.971C360.751 331.66 360.971 331.46 361.051 330.7L361.151 329.12H362.071V331.66H365.651V332.72H362.071V338.38C362.071 340.08 362.771 340.88 364.331 340.88H365.791V342H364.291ZM368.9 342V331.66H369.88L369.98 333.66C370.8 332.18 372.24 331.4 373.9 331.4C376.6 331.4 378.26 333.3 378.26 336.28V342H377.1V336.38C377.1 334 375.82 332.52 373.76 332.52C371.58 332.52 370.06 334.18 370.06 336.64V342H368.9ZM382.162 342V331.66H383.322V342H382.162ZM381.682 328.72C381.682 328.14 382.102 327.68 382.742 327.68C383.382 327.68 383.802 328.14 383.802 328.72C383.802 329.32 383.382 329.78 382.742 329.78C382.102 329.78 381.682 329.32 381.682 328.72ZM387.435 342V331.66H388.415L388.515 333.66C389.335 332.18 390.775 331.4 392.435 331.4C395.135 331.4 396.795 333.3 396.795 336.28V342H395.635V336.38C395.635 334 394.355 332.52 392.295 332.52C390.115 332.52 388.595 334.18 388.595 336.64V342H387.435ZM405.237 346.26C402.697 346.26 400.817 344.92 400.417 342.82H401.597C401.937 344.26 403.337 345.16 405.237 345.16C407.617 345.16 409.137 343.76 409.137 341.54V339.86C408.217 341.12 406.737 341.88 404.977 341.88C401.957 341.88 399.797 339.68 399.797 336.64C399.797 333.6 401.957 331.4 404.977 331.4C406.797 331.4 408.297 332.2 409.217 333.52L409.317 331.66H410.297V341.58C410.297 344.36 408.257 346.26 405.237 346.26ZM400.957 336.64C400.957 339.06 402.657 340.74 405.097 340.74C407.517 340.74 409.217 339.06 409.217 336.64C409.217 334.22 407.517 332.52 405.097 332.52C402.657 332.52 400.957 334.22 400.957 336.64ZM422.999 342.16C420.599 342.16 419.099 340.98 419.099 339.08C419.099 337.24 420.499 336.08 422.619 336.08H427.179V335.34C427.179 333.62 425.919 332.48 423.999 332.48C422.439 332.48 421.219 333.28 420.799 334.52H419.619C420.119 332.6 421.779 331.4 423.979 331.4C426.559 331.4 428.339 332.98 428.339 335.28V342H427.379L427.259 340.22C426.359 341.46 424.839 342.16 422.999 342.16ZM420.259 339.06C420.259 340.32 421.319 341.12 423.039 341.12C425.439 341.12 427.199 339.62 427.199 337.54V337.1H422.659C421.239 337.1 420.259 337.88 420.259 339.06ZM434.77 342L430.15 331.66H431.41L433.21 335.66L435.35 340.48L437.47 335.66L439.29 331.66H440.53L435.91 342H434.77ZM448.103 330.46C448.103 328.1 449.263 326.94 451.563 326.94H453.183V328.04H451.663C449.983 328.04 449.263 328.78 449.263 330.54V331.66H453.083V332.72H449.263V342H448.103V332.72H445.743V331.66H448.103V330.46ZM455.443 342V331.66H456.423L456.543 333.98C457.243 332.42 458.423 331.66 460.343 331.66H461.203V332.74H460.303C458.083 332.74 456.603 334.1 456.603 337.24V342H455.443ZM464.115 342V331.66H465.275V342H464.115ZM463.635 328.72C463.635 328.14 464.055 327.68 464.695 327.68C465.335 327.68 465.755 328.14 465.755 328.72C465.755 329.32 465.335 329.78 464.695 329.78C464.055 329.78 463.635 329.32 463.635 328.72ZM473.588 342C471.388 342 470.208 340.76 470.208 338.42V332.72H467.948V331.66H469.268C470.048 331.66 470.268 331.46 470.348 330.7L470.448 329.12H471.368V331.66H474.948V332.72H471.368V338.38C471.368 340.08 472.068 340.88 473.628 340.88H475.088V342H473.588ZM478.197 342V331.66H479.357V342H478.197ZM477.717 328.72C477.717 328.14 478.137 327.68 478.777 327.68C479.417 327.68 479.837 328.14 479.837 328.72C479.837 329.32 479.417 329.78 478.777 329.78C478.137 329.78 477.717 329.32 477.717 328.72ZM487.87 342.26C484.75 342.26 482.57 339.96 482.57 336.82C482.57 333.68 484.75 331.4 487.87 331.4C489.77 331.4 491.31 332.24 492.23 333.58V327.2H493.39V342H492.43L492.29 339.96C491.39 341.38 489.81 342.26 487.87 342.26ZM483.73 336.82C483.73 339.36 485.47 341.14 488.01 341.14C490.53 341.14 492.27 339.36 492.27 336.82C492.27 334.3 490.53 332.52 488.01 332.52C485.47 332.52 483.73 334.3 483.73 336.82Z" fill="black"/>
<path d="M2.26 208V194H6.7C9.94 194 11.86 195.7 11.86 198.6C11.86 201.5 9.94 203.2 6.7 203.2H3.48V208H2.26ZM3.48 202.08H6.68C9.3 202.08 10.64 200.9 10.64 198.62C10.64 196.34 9.3 195.16 6.68 195.16H3.48V202.08ZM14.853 208V197.66H15.833L15.953 199.98C16.653 198.42 17.833 197.66 19.753 197.66H20.613V198.74H19.713C17.493 198.74 16.013 200.1 16.013 203.24V208H14.853ZM23.5248 208V197.66H24.6848V208H23.5248ZM23.0448 194.72C23.0448 194.14 23.4648 193.68 24.1048 193.68C24.7448 193.68 25.1648 194.14 25.1648 194.72C25.1648 195.32 24.7448 195.78 24.1048 195.78C23.4648 195.78 23.0448 195.32 23.0448 194.72ZM33.3383 208.26C30.1383 208.26 27.8983 206.02 27.8983 202.82C27.8983 199.64 30.1383 197.4 33.3383 197.4C36.5183 197.4 38.7583 199.64 38.7583 202.82C38.7583 206.02 36.5183 208.26 33.3383 208.26ZM29.0583 202.82C29.0583 205.38 30.7983 207.14 33.3383 207.14C35.8583 207.14 37.5983 205.38 37.5983 202.82C37.5983 200.28 35.8583 198.52 33.3383 198.52C30.7983 198.52 29.0583 200.28 29.0583 202.82ZM41.9819 208V197.66H42.9619L43.0819 199.98C43.7819 198.42 44.9619 197.66 46.8819 197.66H47.7419V198.74H46.8419C44.6219 198.74 43.1419 200.1 43.1419 203.24V208H41.9819ZM50.6538 208V197.66H51.8138V208H50.6538ZM50.1738 194.72C50.1738 194.14 50.5938 193.68 51.2337 193.68C51.8738 193.68 52.2938 194.14 52.2938 194.72C52.2938 195.32 51.8738 195.78 51.2337 195.78C50.5938 195.78 50.1738 195.32 50.1738 194.72ZM60.1272 208C57.9272 208 56.7472 206.76 56.7472 204.42V198.72H54.4872V197.66H55.8072C56.5872 197.66 56.8072 197.46 56.8872 196.7L56.9872 195.12H57.9072V197.66H61.4872V198.72H57.9072V204.38C57.9072 206.08 58.6072 206.88 60.1672 206.88H61.6272V208H60.1272ZM68.608 208.26C65.468 208.26 63.328 206.04 63.328 202.82C63.328 199.62 65.488 197.4 68.628 197.4C71.888 197.4 73.988 199.8 73.908 203.3H64.508C64.708 205.64 66.308 207.16 68.608 207.16C70.288 207.16 71.628 206.38 72.308 205.04L73.608 205.06C72.808 207.04 70.928 208.26 68.608 208.26ZM64.508 202.28H72.768C72.488 199.94 70.888 198.5 68.628 198.5C66.328 198.5 64.708 200 64.508 202.28ZM77.0795 208V197.66H78.0595L78.1795 199.98C78.8795 198.42 80.0595 197.66 81.9795 197.66H82.8395V198.74H81.9395C79.7195 198.74 78.2395 200.1 78.2395 203.24V208H77.0795ZM85.7514 208V197.66H86.9114V208H85.7514ZM85.2714 194.72C85.2714 194.14 85.6914 193.68 86.3314 193.68C86.9714 193.68 87.3914 194.14 87.3914 194.72C87.3914 195.32 86.9714 195.78 86.3314 195.78C85.6914 195.78 85.2714 195.32 85.2714 194.72ZM91.0248 208V197.66H92.0048L92.1048 199.66C92.9248 198.18 94.3648 197.4 96.0248 197.4C98.7248 197.4 100.385 199.3 100.385 202.28V208H99.2248V202.38C99.2248 200 97.9448 198.52 95.8848 198.52C93.7048 198.52 92.1848 200.18 92.1848 202.64V208H91.0248ZM108.827 212.26C106.287 212.26 104.407 210.92 104.007 208.82H105.187C105.527 210.26 106.927 211.16 108.827 211.16C111.207 211.16 112.727 209.76 112.727 207.54V205.86C111.807 207.12 110.327 207.88 108.567 207.88C105.547 207.88 103.387 205.68 103.387 202.64C103.387 199.6 105.547 197.4 108.567 197.4C110.387 197.4 111.887 198.2 112.807 199.52L112.907 197.66H113.887V207.58C113.887 210.36 111.847 212.26 108.827 212.26ZM104.547 202.64C104.547 205.06 106.247 206.74 108.687 206.74C111.107 206.74 112.807 205.06 112.807 202.64C112.807 200.22 111.107 198.52 108.687 198.52C106.247 198.52 104.547 200.22 104.547 202.64ZM126.589 208.16C124.189 208.16 122.689 206.98 122.689 205.08C122.689 203.24 124.089 202.08 126.209 202.08H130.769V201.34C130.769 199.62 129.509 198.48 127.589 198.48C126.029 198.48 124.809 199.28 124.389 200.52H123.209C123.709 198.6 125.369 197.4 127.569 197.4C130.149 197.4 131.929 198.98 131.929 201.28V208H130.969L130.849 206.22C129.949 207.46 128.429 208.16 126.589 208.16ZM123.849 205.06C123.849 206.32 124.909 207.12 126.629 207.12C129.029 207.12 130.789 205.62 130.789 203.54V203.1H126.249C124.829 203.1 123.849 203.88 123.849 205.06ZM138.36 208L133.74 197.66H135L136.8 201.66L138.94 206.48L141.06 201.66L142.88 197.66H144.12L139.5 208H138.36ZM155.405 208.26C152.285 208.26 150.105 205.96 150.105 202.82C150.105 199.68 152.285 197.4 155.405 197.4C157.305 197.4 158.845 198.24 159.765 199.58V193.2H160.925V208H159.965L159.825 205.96C158.925 207.38 157.345 208.26 155.405 208.26ZM151.265 202.82C151.265 205.36 153.005 207.14 155.545 207.14C158.065 207.14 159.805 205.36 159.805 202.82C159.805 200.3 158.065 198.52 155.545 198.52C153.005 198.52 151.265 200.3 151.265 202.82ZM168.288 208.16C165.888 208.16 164.388 206.98 164.388 205.08C164.388 203.24 165.788 202.08 167.908 202.08H172.468V201.34C172.468 199.62 171.208 198.48 169.288 198.48C167.728 198.48 166.508 199.28 166.088 200.52H164.908C165.408 198.6 167.068 197.4 169.268 197.4C171.848 197.4 173.628 198.98 173.628 201.28V208H172.668L172.548 206.22C171.648 207.46 170.128 208.16 168.288 208.16ZM165.548 205.06C165.548 206.32 166.608 207.12 168.328 207.12C170.728 207.12 172.488 205.62 172.488 203.54V203.1H167.948C166.528 203.1 165.548 203.88 165.548 205.06ZM182.069 212.26C179.529 212.26 177.649 210.92 177.249 208.82H178.429C178.769 210.26 180.169 211.16 182.069 211.16C184.449 211.16 185.969 209.76 185.969 207.54V205.86C185.049 207.12 183.569 207.88 181.809 207.88C178.789 207.88 176.629 205.68 176.629 202.64C176.629 199.6 178.789 197.4 181.809 197.4C183.629 197.4 185.129 198.2 186.049 199.52L186.149 197.66H187.129V207.58C187.129 210.36 185.089 212.26 182.069 212.26ZM177.789 202.64C177.789 205.06 179.489 206.74 181.929 206.74C184.349 206.74 186.049 205.06 186.049 202.64C186.049 200.22 184.349 198.52 181.929 198.52C179.489 198.52 177.789 200.22 177.789 202.64ZM191.24 208V193.2H192.4V208H191.24ZM196.513 208V197.66H197.673V208H196.513ZM196.033 194.72C196.033 194.14 196.453 193.68 197.093 193.68C197.733 193.68 198.153 194.14 198.153 194.72C198.153 195.32 197.733 195.78 197.093 195.78C196.453 195.78 196.033 195.32 196.033 194.72ZM206.327 212.26C203.787 212.26 201.907 210.92 201.507 208.82H202.687C203.027 210.26 204.427 211.16 206.327 211.16C208.707 211.16 210.227 209.76 210.227 207.54V205.86C209.307 207.12 207.827 207.88 206.067 207.88C203.047 207.88 200.887 205.68 200.887 202.64C200.887 199.6 203.047 197.4 206.067 197.4C207.887 197.4 209.387 198.2 210.307 199.52L210.407 197.66H211.387V207.58C211.387 210.36 209.347 212.26 206.327 212.26ZM202.047 202.64C202.047 205.06 203.747 206.74 206.187 206.74C208.607 206.74 210.307 205.06 210.307 202.64C210.307 200.22 208.607 198.52 206.187 198.52C203.747 198.52 202.047 200.22 202.047 202.64ZM219.878 208.26C216.738 208.26 214.598 206.04 214.598 202.82C214.598 199.62 216.758 197.4 219.898 197.4C223.158 197.4 225.258 199.8 225.178 203.3H215.778C215.978 205.64 217.578 207.16 219.878 207.16C221.558 207.16 222.898 206.38 223.578 205.04L224.878 205.06C224.078 207.04 222.198 208.26 219.878 208.26ZM215.778 202.28H224.038C223.758 199.94 222.158 198.5 219.898 198.5C217.598 198.5 215.978 200 215.778 202.28ZM237.303 208.26C234.103 208.26 231.863 206.02 231.863 202.82C231.863 199.64 234.103 197.4 237.303 197.4C240.483 197.4 242.723 199.64 242.723 202.82C242.723 206.02 240.483 208.26 237.303 208.26ZM233.023 202.82C233.023 205.38 234.763 207.14 237.303 207.14C239.823 207.14 241.563 205.38 241.563 202.82C241.563 200.28 239.823 198.52 237.303 198.52C234.763 198.52 233.023 200.28 233.023 202.82ZM251.467 208.26C249.567 208.26 248.027 207.4 247.107 206.04V212H245.947V197.66H246.927L247.047 199.72C247.947 198.28 249.527 197.4 251.467 197.4C254.607 197.4 256.767 199.68 256.767 202.82C256.767 205.96 254.607 208.26 251.467 208.26ZM247.067 202.82C247.067 205.36 248.807 207.14 251.347 207.14C253.887 207.14 255.607 205.36 255.607 202.82C255.607 200.3 253.887 198.52 251.347 198.52C248.807 198.52 247.067 200.3 247.067 202.82ZM265.51 208.26C263.61 208.26 262.07 207.4 261.15 206.04V212H259.99V197.66H260.97L261.09 199.72C261.99 198.28 263.57 197.4 265.51 197.4C268.65 197.4 270.81 199.68 270.81 202.82C270.81 205.96 268.65 208.26 265.51 208.26ZM261.11 202.82C261.11 205.36 262.85 207.14 265.39 207.14C267.93 207.14 269.65 205.36 269.65 202.82C269.65 200.3 267.93 198.52 265.39 198.52C262.85 198.52 261.11 200.3 261.11 202.82ZM278.573 212.26C276.033 212.26 274.153 210.92 273.753 208.82H274.933C275.273 210.26 276.673 211.16 278.573 211.16C280.953 211.16 282.473 209.76 282.473 207.54V205.86C281.553 207.12 280.073 207.88 278.313 207.88C275.293 207.88 273.133 205.68 273.133 202.64C273.133 199.6 275.293 197.4 278.313 197.4C280.133 197.4 281.633 198.2 282.553 199.52L282.653 197.66H283.633V207.58C283.633 210.36 281.593 212.26 278.573 212.26ZM274.293 202.64C274.293 205.06 275.993 206.74 278.433 206.74C280.853 206.74 282.553 205.06 282.553 202.64C282.553 200.22 280.853 198.52 278.433 198.52C275.993 198.52 274.293 200.22 274.293 202.64ZM290.984 208.16C288.584 208.16 287.084 206.98 287.084 205.08C287.084 203.24 288.484 202.08 290.604 202.08H295.164V201.34C295.164 199.62 293.904 198.48 291.984 198.48C290.424 198.48 289.204 199.28 288.784 200.52H287.604C288.104 198.6 289.764 197.4 291.964 197.4C294.544 197.4 296.324 198.98 296.324 201.28V208H295.364L295.244 206.22C294.344 207.46 292.824 208.16 290.984 208.16ZM288.244 205.06C288.244 206.32 289.304 207.12 291.024 207.12C293.424 207.12 295.184 205.62 295.184 203.54V203.1H290.644C289.224 203.1 288.244 203.88 288.244 205.06ZM302.754 208L298.134 197.66H299.394L301.194 201.66L303.334 206.48L305.454 201.66L307.274 197.66H308.514L303.894 208H302.754ZM314.975 208.26C311.835 208.26 309.695 206.04 309.695 202.82C309.695 199.62 311.855 197.4 314.995 197.4C318.255 197.4 320.355 199.8 320.275 203.3H310.875C311.075 205.64 312.675 207.16 314.975 207.16C316.655 207.16 317.995 206.38 318.675 205.04L319.975 205.06C319.175 207.04 317.295 208.26 314.975 208.26ZM310.875 202.28H319.135C318.855 199.94 317.255 198.5 314.995 198.5C312.695 198.5 311.075 200 310.875 202.28ZM323.447 208V197.66H324.427L324.547 199.98C325.247 198.42 326.427 197.66 328.347 197.66H329.207V198.74H328.307C326.087 198.74 324.607 200.1 324.607 203.24V208H323.447ZM339.629 208L335.009 197.66H336.269L338.069 201.66L340.209 206.48L342.329 201.66L344.149 197.66H345.389L340.769 208H339.629ZM350.554 208.16C348.154 208.16 346.654 206.98 346.654 205.08C346.654 203.24 348.054 202.08 350.174 202.08H354.734V201.34C354.734 199.62 353.474 198.48 351.554 198.48C349.994 198.48 348.774 199.28 348.354 200.52H347.174C347.674 198.6 349.334 197.4 351.534 197.4C354.114 197.4 355.894 198.98 355.894 201.28V208H354.934L354.814 206.22C353.914 207.46 352.394 208.16 350.554 208.16ZM347.814 205.06C347.814 206.32 348.874 207.12 350.594 207.12C352.994 207.12 354.754 205.62 354.754 203.54V203.1H350.214C348.794 203.1 347.814 203.88 347.814 205.06ZM359.794 208V197.66H360.774L360.894 199.98C361.594 198.42 362.774 197.66 364.694 197.66H365.554V198.74H364.654C362.434 198.74 360.954 200.1 360.954 203.24V208H359.794ZM6.44 237.26C3.3 237.26 1.16 235.04 1.16 231.82C1.16 228.62 3.32 226.4 6.46 226.4C9.72 226.4 11.82 228.8 11.74 232.3H2.34C2.54 234.64 4.14 236.16 6.44 236.16C8.12 236.16 9.46 235.38 10.14 234.04L11.44 234.06C10.64 236.04 8.76 237.26 6.44 237.26ZM2.34 231.28H10.6C10.32 228.94 8.72 227.5 6.46 227.5C4.16 227.5 2.54 229 2.34 231.28ZM14.9116 237V226.66H15.8916L15.9916 228.66C16.8116 227.18 18.2516 226.4 19.9116 226.4C22.6116 226.4 24.2716 228.3 24.2716 231.28V237H23.1116V231.38C23.1116 229 21.8316 227.52 19.7716 227.52C17.5916 227.52 16.0716 229.18 16.0716 231.64V237H14.9116ZM37.5072 237.26C34.8472 237.26 33.2072 235.36 33.2072 232.38V226.66H34.3672V232.28C34.3672 234.64 35.6272 236.14 37.6672 236.14C39.8072 236.14 41.2872 234.46 41.2872 232V226.66H42.4472V237H41.4872L41.3672 234.98C40.5672 236.48 39.1272 237.26 37.5072 237.26ZM50.7717 237C48.5717 237 47.3917 235.76 47.3917 233.42V227.72H45.1317V226.66H46.4517C47.2317 226.66 47.4517 226.46 47.5317 225.7L47.6317 224.12H48.5517V226.66H52.1317V227.72H48.5517V233.38C48.5517 235.08 49.2517 235.88 50.8117 235.88H52.2717V237H50.7717ZM56.2631 225.46C56.2631 223.1 57.4231 221.94 59.7231 221.94H61.3431V223.04H59.8231C58.1431 223.04 57.4231 223.78 57.4231 225.54V226.66H61.2431V227.72H57.4231V237H56.2631V227.72H53.9031V226.66H56.2631V225.46ZM67.8109 237.26C64.6109 237.26 62.3709 235.02 62.3709 231.82C62.3709 228.64 64.6109 226.4 67.8109 226.4C70.9909 226.4 73.2309 228.64 73.2309 231.82C73.2309 235.02 70.9909 237.26 67.8109 237.26ZM63.5309 231.82C63.5309 234.38 65.2709 236.14 67.8109 236.14C70.3309 236.14 72.0709 234.38 72.0709 231.82C72.0709 229.28 70.3309 227.52 67.8109 227.52C65.2709 227.52 63.5309 229.28 63.5309 231.82ZM76.4545 237V226.66H77.4345L77.5545 228.98C78.2545 227.42 79.4345 226.66 81.3545 226.66H82.2145V227.74H81.3145C79.0945 227.74 77.6145 229.1 77.6145 232.24V237H76.4545ZM88.7256 237.26C85.6056 237.26 83.4256 234.96 83.4256 231.82C83.4256 228.68 85.6056 226.4 88.7256 226.4C90.6256 226.4 92.1656 227.24 93.0856 228.58V222.2H94.2456V237H93.2856L93.1456 234.96C92.2456 236.38 90.6656 237.26 88.7256 237.26ZM84.5856 231.82C84.5856 234.36 86.3256 236.14 88.8656 236.14C91.3856 236.14 93.1256 234.36 93.1256 231.82C93.1256 229.3 91.3856 227.52 88.8656 227.52C86.3256 227.52 84.5856 229.3 84.5856 231.82ZM98.3686 237V226.66H99.3486L99.4686 228.98C100.169 227.42 101.349 226.66 103.269 226.66H104.129V227.74H103.229C101.009 227.74 99.5286 229.1 99.5286 232.24V237H98.3686ZM107.04 237V226.66H108.2V237H107.04ZM106.56 223.72C106.56 223.14 106.98 222.68 107.62 222.68C108.26 222.68 108.68 223.14 108.68 223.72C108.68 224.32 108.26 224.78 107.62 224.78C106.98 224.78 106.56 224.32 106.56 223.72ZM112.314 237V226.66H113.294L113.394 228.66C114.214 227.18 115.654 226.4 117.314 226.4C120.014 226.4 121.674 228.3 121.674 231.28V237H120.514V231.38C120.514 229 119.234 227.52 117.174 227.52C114.994 227.52 113.474 229.18 113.474 231.64V237H112.314ZM130.116 241.26C127.576 241.26 125.696 239.92 125.296 237.82H126.476C126.816 239.26 128.216 240.16 130.116 240.16C132.496 240.16 134.016 238.76 134.016 236.54V234.86C133.096 236.12 131.616 236.88 129.856 236.88C126.836 236.88 124.676 234.68 124.676 231.64C124.676 228.6 126.836 226.4 129.856 226.4C131.676 226.4 133.176 227.2 134.096 228.52L134.196 226.66H135.176V236.58C135.176 239.36 133.136 241.26 130.116 241.26ZM125.836 231.64C125.836 234.06 127.536 235.74 129.976 235.74C132.396 235.74 134.096 234.06 134.096 231.64C134.096 229.22 132.396 227.52 129.976 227.52C127.536 227.52 125.836 229.22 125.836 231.64Z" fill="black"/>
</svg>
