<svg width="822" height="420" viewBox="0 0 822 420" fill="none" xmlns="http://www.w3.org/2000/svg">
<g filter="url(#filter0_d_882_44645)">
<ellipse cx="643.578" cy="142.403" rx="153.422" ry="121.403" fill="#F6F5FF"/>
</g>
<path d="M604 197.323V213.999H620.676L669.86 164.815L653.184 148.139L604 197.323ZM616.985 205.105H612.894V201.014L653.184 160.724L657.275 164.815L616.985 205.105ZM682.756 145.649L672.35 135.243C671.461 134.353 670.349 133.953 669.193 133.953C668.037 133.953 666.925 134.398 666.08 135.243L657.942 143.381L674.618 160.057L682.756 151.919C684.491 150.185 684.491 147.383 682.756 145.649Z" fill="black" fill-opacity="0.54"/>
<g filter="url(#filter1_d_882_44645)">
<ellipse cx="178.422" cy="142.403" rx="153.422" ry="121.403" fill="#F6F5FF"/>
</g>
<g clip-path="url(#clip0_882_44645)">
<path d="M151.417 143.252L140.558 135.502L144.703 160.314L169.515 156.17L158.656 148.419C167.207 136.438 183.894 133.651 195.875 142.202C199.53 144.811 202.359 148.196 204.201 151.969L213.258 150.457C210.821 144.456 206.724 139.019 201.042 134.963C185.043 123.544 162.836 127.254 151.417 143.252ZM202.092 179.42C193.541 191.401 176.854 194.189 164.873 185.638C161.218 183.028 158.389 179.643 156.547 175.87L147.49 177.383C149.927 183.384 154.024 188.821 159.706 192.877C175.705 204.296 197.912 200.586 209.331 184.587L220.19 192.338L216.045 167.525L191.233 171.67L202.092 179.42Z" fill="black" fill-opacity="0.54"/>
</g>
<g filter="url(#filter2_d_882_44645)">
<ellipse cx="409.22" cy="263.807" rx="175.212" ry="138.747" fill="#F6F5FF"/>
</g>
<g clip-path="url(#clip1_882_44645)">
<path d="M390.543 291.152C399.126 291.152 406.108 284.171 406.108 275.588C406.108 267.005 399.126 260.023 390.543 260.023C381.96 260.023 374.979 267.005 374.979 275.588C374.979 284.171 381.96 291.152 390.543 291.152ZM390.543 268.917C394.234 268.917 397.214 271.897 397.214 275.588C397.214 279.279 394.234 282.258 390.543 282.258C386.852 282.258 383.873 279.279 383.873 275.588C383.873 271.897 386.852 268.917 390.543 268.917ZM390.765 313.387H371.732C376.135 311.164 383.739 308.94 390.543 308.94C391.032 308.94 391.566 308.985 392.055 308.985C393.567 305.739 396.191 303.07 399.348 300.936C396.102 300.358 393.033 300.046 390.543 300.046C380.137 300.046 359.414 305.249 359.414 315.611V322.282H390.543V315.611C390.543 314.855 390.632 314.099 390.765 313.387ZM423.896 302.27C415.713 302.27 399.437 306.761 399.437 315.611V322.282H448.354V315.611C448.354 306.761 432.078 302.27 423.896 302.27ZM429.277 294.176C432.656 292.264 435.013 288.662 435.013 284.482C435.013 278.345 430.033 273.364 423.896 273.364C417.759 273.364 412.778 278.345 412.778 284.482C412.778 288.662 415.135 292.264 418.515 294.176C420.116 295.066 421.939 295.599 423.896 295.599C425.852 295.599 427.676 295.066 429.277 294.176Z" fill="black" fill-opacity="0.54"/>
</g>
<path d="M561.034 88.5527V75.9527H567.982V76.9787H562.132V81.9287H567.514V82.9367H562.132V88.5527H561.034ZM574.071 88.7867C571.677 88.7867 570.201 87.0767 570.201 84.3947V79.2467H571.245V84.3047C571.245 86.4287 572.379 87.7787 574.215 87.7787C576.141 87.7787 577.473 86.2667 577.473 84.0527V79.2467H578.517V88.5527H577.653L577.545 86.7347C576.825 88.0847 575.529 88.7867 574.071 88.7867ZM582.229 88.5527V75.2327H583.273V88.5527H582.229ZM586.975 88.5527V75.2327H588.019V88.5527H586.975ZM591.145 92.1527V91.1627H591.919C593.233 91.1627 593.647 90.8927 594.133 89.7227L594.655 88.4087L590.227 79.2467H591.397L593.593 83.8367L595.195 87.1487L596.527 83.8367L598.417 79.2467H599.515L595.069 90.1187C594.421 91.7387 593.701 92.1527 592.027 92.1527H591.145ZM611.103 88.7867C609.393 88.7867 608.007 88.0127 607.179 86.7887V92.1527H606.135V79.2467H607.017L607.125 81.1007C607.935 79.8047 609.357 79.0127 611.103 79.0127C613.929 79.0127 615.873 81.0647 615.873 83.8907C615.873 86.7167 613.929 88.7867 611.103 88.7867ZM607.143 83.8907C607.143 86.1767 608.709 87.7787 610.995 87.7787C613.281 87.7787 614.829 86.1767 614.829 83.8907C614.829 81.6227 613.281 80.0207 610.995 80.0207C608.709 80.0207 607.143 81.6227 607.143 83.8907ZM622.716 88.7867C619.89 88.7867 617.964 86.7887 617.964 83.8907C617.964 81.0107 619.908 79.0127 622.734 79.0127C625.668 79.0127 627.558 81.1727 627.486 84.3227H619.026C619.206 86.4287 620.646 87.7967 622.716 87.7967C624.228 87.7967 625.434 87.0947 626.046 85.8887L627.216 85.9067C626.496 87.6887 624.804 88.7867 622.716 88.7867ZM619.026 83.4047H626.46C626.208 81.2987 624.768 80.0027 622.734 80.0027C620.664 80.0027 619.206 81.3527 619.026 83.4047ZM630.34 88.5527V79.2467H631.222L631.33 81.3347C631.96 79.9307 633.022 79.2467 634.75 79.2467H635.524V80.2187H634.714C632.716 80.2187 631.384 81.4427 631.384 84.2687V88.5527H630.34ZM640.822 88.7867C638.464 88.7867 636.97 87.5987 636.898 85.7447H637.924C638.032 87.0587 639.058 87.8327 640.84 87.8327C642.478 87.8327 643.468 87.2027 643.468 86.1767C643.468 85.2047 642.586 84.6107 640.606 84.2687C638.176 83.8547 637.078 82.9907 637.078 81.5687C637.078 79.9847 638.428 79.0127 640.606 79.0127C642.802 79.0127 644.188 80.0567 644.332 81.8387H643.288C643.18 80.6147 642.226 79.9487 640.606 79.9487C639.058 79.9487 638.122 80.5787 638.122 81.5867C638.122 82.5047 638.896 83.0087 640.966 83.4047C643.324 83.8547 644.494 84.7907 644.494 86.1947C644.494 87.7607 643.072 88.7867 640.822 88.7867ZM651.6 88.7867C648.72 88.7867 646.704 86.7707 646.704 83.8907C646.704 81.0287 648.72 79.0127 651.6 79.0127C654.462 79.0127 656.478 81.0287 656.478 83.8907C656.478 86.7707 654.462 88.7867 651.6 88.7867ZM647.748 83.8907C647.748 86.1947 649.314 87.7787 651.6 87.7787C653.868 87.7787 655.434 86.1947 655.434 83.8907C655.434 81.6047 653.868 80.0207 651.6 80.0207C649.314 80.0207 647.748 81.6047 647.748 83.8907ZM659.379 88.5527V79.2467H660.261L660.351 81.0467C661.089 79.7147 662.385 79.0127 663.879 79.0127C666.309 79.0127 667.803 80.7227 667.803 83.4047V88.5527H666.759V83.4947C666.759 81.3527 665.607 80.0207 663.753 80.0207C661.791 80.0207 660.423 81.5147 660.423 83.7287V88.5527H659.379ZM674.231 88.6967C672.071 88.6967 670.721 87.6347 670.721 85.9247C670.721 84.2687 671.981 83.2247 673.889 83.2247H677.993V82.5587C677.993 81.0107 676.859 79.9847 675.131 79.9847C673.727 79.9847 672.629 80.7047 672.251 81.8207H671.189C671.639 80.0927 673.133 79.0127 675.113 79.0127C677.435 79.0127 679.037 80.4347 679.037 82.5047V88.5527H678.173L678.065 86.9507C677.255 88.0667 675.887 88.6967 674.231 88.6967ZM671.765 85.9067C671.765 87.0407 672.719 87.7607 674.267 87.7607C676.427 87.7607 678.011 86.4107 678.011 84.5387V84.1427H673.925C672.647 84.1427 671.765 84.8447 671.765 85.9067ZM682.547 88.5527V75.2327H683.591V88.5527H682.547ZM687.293 88.5527V79.2467H688.337V88.5527H687.293ZM686.861 76.6007C686.861 76.0787 687.239 75.6647 687.815 75.6647C688.391 75.6647 688.769 76.0787 688.769 76.6007C688.769 77.1407 688.391 77.5547 687.815 77.5547C687.239 77.5547 686.861 77.1407 686.861 76.6007ZM691.14 88.5527V87.7427L697.188 80.2007H691.356V79.2467H698.592V80.0387L692.58 87.5807H698.718V88.5527H691.14ZM705.175 88.7867C702.349 88.7867 700.423 86.7887 700.423 83.8907C700.423 81.0107 702.367 79.0127 705.193 79.0127C708.127 79.0127 710.017 81.1727 709.945 84.3227H701.485C701.665 86.4287 703.105 87.7967 705.175 87.7967C706.687 87.7967 707.893 87.0947 708.505 85.8887L709.675 85.9067C708.955 87.6887 707.263 88.7867 705.175 88.7867ZM701.485 83.4047H708.919C708.667 81.2987 707.227 80.0027 705.193 80.0027C703.123 80.0027 701.665 81.3527 701.485 83.4047ZM716.759 88.7867C713.951 88.7867 711.989 86.7167 711.989 83.8907C711.989 81.0647 713.951 79.0127 716.759 79.0127C718.469 79.0127 719.855 79.7687 720.683 80.9747V75.2327H721.727V88.5527H720.863L720.737 86.7167C719.927 87.9947 718.505 88.7867 716.759 88.7867ZM713.033 83.8907C713.033 86.1767 714.599 87.7787 716.885 87.7787C719.153 87.7787 720.719 86.1767 720.719 83.8907C720.719 81.6227 719.153 80.0207 716.885 80.0207C714.599 80.0207 713.033 81.6227 713.033 83.8907ZM563.77 114.697C561.61 114.697 560.26 113.635 560.26 111.925C560.26 110.269 561.52 109.225 563.428 109.225H567.532V108.559C567.532 107.011 566.398 105.985 564.67 105.985C563.266 105.985 562.168 106.705 561.79 107.821H560.728C561.178 106.093 562.672 105.013 564.652 105.013C566.974 105.013 568.576 106.435 568.576 108.505V114.553H567.712L567.604 112.951C566.794 114.067 565.426 114.697 563.77 114.697ZM561.304 111.907C561.304 113.041 562.258 113.761 563.806 113.761C565.966 113.761 567.55 112.411 567.55 110.539V110.143H563.464C562.186 110.143 561.304 110.845 561.304 111.907ZM572.086 114.553V105.247H572.968L573.058 107.047C573.796 105.715 575.092 105.013 576.586 105.013C579.016 105.013 580.51 106.723 580.51 109.405V114.553H579.466V109.495C579.466 107.353 578.314 106.021 576.46 106.021C574.498 106.021 573.13 107.515 573.13 109.729V114.553H572.086ZM587.982 114.787C585.174 114.787 583.212 112.717 583.212 109.891C583.212 107.065 585.174 105.013 587.982 105.013C589.692 105.013 591.078 105.769 591.906 106.975V101.233H592.95V114.553H592.086L591.96 112.717C591.15 113.995 589.728 114.787 587.982 114.787ZM584.256 109.891C584.256 112.177 585.822 113.779 588.108 113.779C590.376 113.779 591.942 112.177 591.942 109.891C591.942 107.623 590.376 106.021 588.108 106.021C585.822 106.021 584.256 107.623 584.256 109.891ZM604.997 114.787C602.207 114.787 600.245 112.753 600.245 109.891C600.245 107.029 602.207 105.013 604.997 105.013C607.211 105.013 609.029 106.327 609.569 108.343H608.507C607.895 106.867 606.599 106.021 604.997 106.021C602.801 106.021 601.289 107.605 601.289 109.891C601.289 112.195 602.801 113.779 604.997 113.779C606.707 113.779 608.039 112.825 608.561 111.295H609.659C609.029 113.473 607.283 114.787 604.997 114.787ZM616.171 114.787C613.777 114.787 612.301 113.077 612.301 110.395V105.247H613.345V110.305C613.345 112.429 614.479 113.779 616.315 113.779C618.241 113.779 619.573 112.267 619.573 110.053V105.247H620.617V114.553H619.753L619.645 112.735C618.925 114.085 617.629 114.787 616.171 114.787ZM627.533 114.787C625.175 114.787 623.681 113.599 623.609 111.745H624.635C624.743 113.059 625.769 113.833 627.551 113.833C629.189 113.833 630.179 113.203 630.179 112.177C630.179 111.205 629.297 110.611 627.317 110.269C624.887 109.855 623.789 108.991 623.789 107.569C623.789 105.985 625.139 105.013 627.317 105.013C629.513 105.013 630.899 106.057 631.043 107.839H629.999C629.891 106.615 628.937 105.949 627.317 105.949C625.769 105.949 624.833 106.579 624.833 107.587C624.833 108.505 625.607 109.009 627.677 109.405C630.035 109.855 631.205 110.791 631.205 112.195C631.205 113.761 629.783 114.787 627.533 114.787ZM637.741 114.553C635.761 114.553 634.699 113.437 634.699 111.331V106.201H632.665V105.247H633.853C634.555 105.247 634.753 105.067 634.825 104.383L634.915 102.961H635.743V105.247H638.965V106.201H635.743V111.295C635.743 112.825 636.373 113.545 637.777 113.545H639.091V114.553H637.741ZM645.518 114.787C642.638 114.787 640.622 112.771 640.622 109.891C640.622 107.029 642.638 105.013 645.518 105.013C648.38 105.013 650.396 107.029 650.396 109.891C650.396 112.771 648.38 114.787 645.518 114.787ZM641.666 109.891C641.666 112.195 643.232 113.779 645.518 113.779C647.786 113.779 649.352 112.195 649.352 109.891C649.352 107.605 647.786 106.021 645.518 106.021C643.232 106.021 641.666 107.605 641.666 109.891ZM653.297 114.553V105.247H654.179L654.269 106.759C654.917 105.625 656.051 105.013 657.491 105.013C659.111 105.013 660.353 105.823 660.893 107.245C661.523 105.823 662.801 105.013 664.439 105.013C666.779 105.013 668.291 106.615 668.291 109.207V114.553H667.247V109.369C667.247 107.299 666.095 106.021 664.313 106.021C662.495 106.021 661.307 107.335 661.307 109.441V114.553H660.263V109.369C660.263 107.299 659.129 106.021 657.347 106.021C655.529 106.021 654.341 107.335 654.341 109.441V114.553H653.297ZM671.79 114.553V105.247H672.834V114.553H671.79ZM671.358 102.601C671.358 102.079 671.736 101.665 672.312 101.665C672.888 101.665 673.266 102.079 673.266 102.601C673.266 103.141 672.888 103.555 672.312 103.555C671.736 103.555 671.358 103.141 671.358 102.601ZM675.636 114.553V113.743L681.684 106.201H675.852V105.247H683.088V106.039L677.076 113.581H683.214V114.553H675.636ZM688.715 114.697C686.555 114.697 685.205 113.635 685.205 111.925C685.205 110.269 686.465 109.225 688.373 109.225H692.477V108.559C692.477 107.011 691.343 105.985 689.615 105.985C688.211 105.985 687.113 106.705 686.735 107.821H685.673C686.123 106.093 687.617 105.013 689.597 105.013C691.919 105.013 693.521 106.435 693.521 108.505V114.553H692.657L692.549 112.951C691.739 114.067 690.371 114.697 688.715 114.697ZM686.249 111.907C686.249 113.041 687.203 113.761 688.751 113.761C690.911 113.761 692.495 112.411 692.495 110.539V110.143H688.409C687.131 110.143 686.249 110.845 686.249 111.907ZM702 114.787C700.254 114.787 698.832 113.977 698.022 112.699L697.914 114.553H697.032V101.233H698.076V107.011C698.904 105.769 700.29 105.013 702 105.013C704.826 105.013 706.77 107.065 706.77 109.891C706.77 112.717 704.826 114.787 702 114.787ZM698.04 109.891C698.04 112.177 699.606 113.779 701.892 113.779C704.178 113.779 705.726 112.177 705.726 109.891C705.726 107.623 704.178 106.021 701.892 106.021C699.606 106.021 698.04 107.623 698.04 109.891ZM709.67 114.553V101.233H710.714V114.553H709.67ZM718.359 114.787C715.533 114.787 713.607 112.789 713.607 109.891C713.607 107.011 715.551 105.013 718.377 105.013C721.311 105.013 723.201 107.173 723.129 110.323H714.669C714.849 112.429 716.289 113.797 718.359 113.797C719.871 113.797 721.077 113.095 721.689 111.889L722.859 111.907C722.139 113.689 720.447 114.787 718.359 114.787ZM714.669 109.405H722.103C721.851 107.299 720.411 106.003 718.377 106.003C716.307 106.003 714.849 107.353 714.669 109.405Z" fill="black"/>
<path d="M319.022 180.553V168.997H314.684V167.953H324.458V168.997H320.102V180.553H319.022ZM326.735 180.553V167.233H327.779V172.939C328.517 171.661 329.813 171.013 331.271 171.013C333.683 171.013 335.159 172.687 335.159 175.369V180.553H334.115V175.459C334.115 173.317 332.981 172.021 331.127 172.021C329.165 172.021 327.779 173.479 327.779 175.711V180.553H326.735ZM342.612 180.787C339.786 180.787 337.86 178.789 337.86 175.891C337.86 173.011 339.804 171.013 342.63 171.013C345.564 171.013 347.454 173.173 347.382 176.323H338.922C339.102 178.429 340.542 179.797 342.612 179.797C344.124 179.797 345.33 179.095 345.942 177.889L347.112 177.907C346.392 179.689 344.7 180.787 342.612 180.787ZM338.922 175.405H346.356C346.104 173.299 344.664 172.003 342.63 172.003C340.56 172.003 339.102 173.353 338.922 175.405ZM358.169 180.787C355.361 180.787 353.399 178.717 353.399 175.891C353.399 173.065 355.361 171.013 358.169 171.013C359.879 171.013 361.265 171.769 362.093 172.975V167.233H363.137V180.553H362.273L362.147 178.717C361.337 179.995 359.915 180.787 358.169 180.787ZM354.443 175.891C354.443 178.177 356.009 179.779 358.295 179.779C360.563 179.779 362.129 178.177 362.129 175.891C362.129 173.623 360.563 172.021 358.295 172.021C356.009 172.021 354.443 173.623 354.443 175.891ZM370.79 180.787C367.964 180.787 366.038 178.789 366.038 175.891C366.038 173.011 367.982 171.013 370.808 171.013C373.742 171.013 375.632 173.173 375.56 176.323H367.1C367.28 178.429 368.72 179.797 370.79 179.797C372.302 179.797 373.508 179.095 374.12 177.889L375.29 177.907C374.57 179.689 372.878 180.787 370.79 180.787ZM367.1 175.405H374.534C374.282 173.299 372.842 172.003 370.808 172.003C368.738 172.003 367.28 173.353 367.1 175.405ZM381.619 180.787C379.261 180.787 377.767 179.599 377.695 177.745H378.721C378.829 179.059 379.855 179.833 381.637 179.833C383.275 179.833 384.265 179.203 384.265 178.177C384.265 177.205 383.383 176.611 381.403 176.269C378.973 175.855 377.875 174.991 377.875 173.569C377.875 171.985 379.225 171.013 381.403 171.013C383.599 171.013 384.985 172.057 385.129 173.839H384.085C383.977 172.615 383.023 171.949 381.403 171.949C379.855 171.949 378.919 172.579 378.919 173.587C378.919 174.505 379.693 175.009 381.763 175.405C384.121 175.855 385.291 176.791 385.291 178.195C385.291 179.761 383.869 180.787 381.619 180.787ZM388.311 180.553V171.247H389.355V180.553H388.311ZM387.879 168.601C387.879 168.079 388.257 167.665 388.833 167.665C389.409 167.665 389.787 168.079 389.787 168.601C389.787 169.141 389.409 169.555 388.833 169.555C388.257 169.555 387.879 169.141 387.879 168.601ZM397.143 184.387C394.857 184.387 393.165 183.181 392.805 181.291H393.867C394.173 182.587 395.433 183.397 397.143 183.397C399.285 183.397 400.653 182.137 400.653 180.139V178.627C399.825 179.761 398.493 180.445 396.909 180.445C394.191 180.445 392.247 178.465 392.247 175.729C392.247 172.993 394.191 171.013 396.909 171.013C398.547 171.013 399.897 171.733 400.725 172.921L400.815 171.247H401.697V180.175C401.697 182.677 399.861 184.387 397.143 184.387ZM393.291 175.729C393.291 177.907 394.821 179.419 397.017 179.419C399.195 179.419 400.725 177.907 400.725 175.729C400.725 173.551 399.195 172.021 397.017 172.021C394.821 172.021 393.291 173.551 393.291 175.729ZM405.397 180.553V171.247H406.279L406.369 173.047C407.107 171.715 408.403 171.013 409.897 171.013C412.327 171.013 413.821 172.723 413.821 175.405V180.553H412.777V175.495C412.777 173.353 411.625 172.021 409.771 172.021C407.809 172.021 406.441 173.515 406.441 175.729V180.553H405.397ZM422.149 180.553V171.247H423.193V180.553H422.149ZM421.717 168.601C421.717 168.079 422.095 167.665 422.671 167.665C423.247 167.665 423.625 168.079 423.625 168.601C423.625 169.141 423.247 169.555 422.671 169.555C422.095 169.555 421.717 169.141 421.717 168.601ZM430.099 180.787C427.741 180.787 426.247 179.599 426.175 177.745H427.201C427.309 179.059 428.335 179.833 430.117 179.833C431.755 179.833 432.745 179.203 432.745 178.177C432.745 177.205 431.863 176.611 429.883 176.269C427.453 175.855 426.355 174.991 426.355 173.569C426.355 171.985 427.705 171.013 429.883 171.013C432.079 171.013 433.465 172.057 433.609 173.839H432.565C432.457 172.615 431.503 171.949 429.883 171.949C428.335 171.949 427.399 172.579 427.399 173.587C427.399 174.505 428.173 175.009 430.243 175.405C432.601 175.855 433.771 176.791 433.771 178.195C433.771 179.761 432.349 180.787 430.099 180.787ZM319.634 206.553C317.654 206.553 316.592 205.437 316.592 203.331V198.201H314.558V197.247H315.746C316.448 197.247 316.646 197.067 316.718 196.383L316.808 194.961H317.636V197.247H320.858V198.201H317.636V203.295C317.636 204.825 318.266 205.545 319.67 205.545H320.984V206.553H319.634ZM326.381 206.697C324.221 206.697 322.871 205.635 322.871 203.925C322.871 202.269 324.131 201.225 326.039 201.225H330.143V200.559C330.143 199.011 329.009 197.985 327.281 197.985C325.877 197.985 324.779 198.705 324.401 199.821H323.339C323.789 198.093 325.283 197.013 327.263 197.013C329.585 197.013 331.187 198.435 331.187 200.505V206.553H330.323L330.215 204.951C329.405 206.067 328.037 206.697 326.381 206.697ZM323.915 203.907C323.915 205.041 324.869 205.761 326.417 205.761C328.577 205.761 330.161 204.411 330.161 202.539V202.143H326.075C324.797 202.143 323.915 202.845 323.915 203.907ZM334.698 206.553V197.247H335.742V206.553H334.698ZM334.266 194.601C334.266 194.079 334.644 193.665 335.22 193.665C335.796 193.665 336.174 194.079 336.174 194.601C336.174 195.141 335.796 195.555 335.22 195.555C334.644 195.555 334.266 195.141 334.266 194.601ZM339.444 206.553V193.233H340.488V206.553H339.444ZM348.276 206.787C345.396 206.787 343.38 204.771 343.38 201.891C343.38 199.029 345.396 197.013 348.276 197.013C351.138 197.013 353.154 199.029 353.154 201.891C353.154 204.771 351.138 206.787 348.276 206.787ZM344.424 201.891C344.424 204.195 345.99 205.779 348.276 205.779C350.544 205.779 352.11 204.195 352.11 201.891C352.11 199.605 350.544 198.021 348.276 198.021C345.99 198.021 344.424 199.605 344.424 201.891ZM356.055 206.553V197.247H356.937L357.045 199.335C357.675 197.931 358.737 197.247 360.465 197.247H361.239V198.219H360.429C358.431 198.219 357.099 199.443 357.099 202.269V206.553H356.055ZM367.081 206.787C364.255 206.787 362.329 204.789 362.329 201.891C362.329 199.011 364.273 197.013 367.099 197.013C370.033 197.013 371.923 199.173 371.851 202.323H363.391C363.571 204.429 365.011 205.797 367.081 205.797C368.593 205.797 369.799 205.095 370.411 203.889L371.581 203.907C370.861 205.689 369.169 206.787 367.081 206.787ZM363.391 201.405H370.825C370.573 199.299 369.133 198.003 367.099 198.003C365.029 198.003 363.571 199.353 363.391 201.405ZM378.666 206.787C375.858 206.787 373.896 204.717 373.896 201.891C373.896 199.065 375.858 197.013 378.666 197.013C380.376 197.013 381.762 197.769 382.59 198.975V193.233H383.634V206.553H382.77L382.644 204.717C381.834 205.995 380.412 206.787 378.666 206.787ZM374.94 201.891C374.94 204.177 376.506 205.779 378.792 205.779C381.06 205.779 382.626 204.177 382.626 201.891C382.626 199.623 381.06 198.021 378.792 198.021C376.506 198.021 374.94 199.623 374.94 201.891ZM394.978 206.787C392.62 206.787 391.126 205.599 391.054 203.745H392.08C392.188 205.059 393.214 205.833 394.996 205.833C396.634 205.833 397.624 205.203 397.624 204.177C397.624 203.205 396.742 202.611 394.762 202.269C392.332 201.855 391.234 200.991 391.234 199.569C391.234 197.985 392.584 197.013 394.762 197.013C396.958 197.013 398.344 198.057 398.488 199.839H397.444C397.336 198.615 396.382 197.949 394.762 197.949C393.214 197.949 392.278 198.579 392.278 199.587C392.278 200.505 393.052 201.009 395.122 201.405C397.48 201.855 398.65 202.791 398.65 204.195C398.65 205.761 397.228 206.787 394.978 206.787ZM406.638 206.787C404.928 206.787 403.542 206.013 402.714 204.789V210.153H401.67V197.247H402.552L402.66 199.101C403.47 197.805 404.892 197.013 406.638 197.013C409.464 197.013 411.408 199.065 411.408 201.891C411.408 204.717 409.464 206.787 406.638 206.787ZM402.678 201.891C402.678 204.177 404.244 205.779 406.53 205.779C408.816 205.779 410.364 204.177 410.364 201.891C410.364 199.623 408.816 198.021 406.53 198.021C404.244 198.021 402.678 199.623 402.678 201.891ZM418.251 206.787C415.425 206.787 413.499 204.789 413.499 201.891C413.499 199.011 415.443 197.013 418.269 197.013C421.203 197.013 423.093 199.173 423.021 202.323H414.561C414.741 204.429 416.181 205.797 418.251 205.797C419.763 205.797 420.969 205.095 421.581 203.889L422.751 203.907C422.031 205.689 420.339 206.787 418.251 206.787ZM414.561 201.405H421.995C421.743 199.299 420.303 198.003 418.269 198.003C416.199 198.003 414.741 199.353 414.561 201.405ZM429.817 206.787C427.027 206.787 425.065 204.753 425.065 201.891C425.065 199.029 427.027 197.013 429.817 197.013C432.031 197.013 433.849 198.327 434.389 200.343H433.327C432.715 198.867 431.419 198.021 429.817 198.021C427.621 198.021 426.109 199.605 426.109 201.891C426.109 204.195 427.621 205.779 429.817 205.779C431.527 205.779 432.859 204.825 433.381 203.295H434.479C433.849 205.473 432.103 206.787 429.817 206.787ZM437.319 206.553V197.247H438.363V206.553H437.319ZM436.887 194.601C436.887 194.079 437.265 193.665 437.841 193.665C438.417 193.665 438.795 194.079 438.795 194.601C438.795 195.141 438.417 195.555 437.841 195.555C437.265 195.555 436.887 195.141 436.887 194.601ZM449.877 206.553V198.201H444.009V206.553H442.965V198.201H440.841V197.247H442.965V196.167C442.965 194.061 444.027 192.999 446.133 192.999H447.483V193.989H446.223C444.675 193.989 444.009 194.655 444.009 196.239V197.247H450.921V206.553H449.877ZM449.427 194.601C449.427 194.079 449.823 193.665 450.399 193.665C450.957 193.665 451.353 194.079 451.353 194.601C451.353 195.141 450.957 195.555 450.399 195.555C449.823 195.555 449.427 195.141 449.427 194.601ZM458.575 206.787C455.785 206.787 453.823 204.753 453.823 201.891C453.823 199.029 455.785 197.013 458.575 197.013C460.789 197.013 462.607 198.327 463.147 200.343H462.085C461.473 198.867 460.177 198.021 458.575 198.021C456.379 198.021 454.867 199.605 454.867 201.891C454.867 204.195 456.379 205.779 458.575 205.779C460.285 205.779 461.617 204.825 462.139 203.295H463.237C462.607 205.473 460.861 206.787 458.575 206.787ZM468.87 206.697C466.71 206.697 465.36 205.635 465.36 203.925C465.36 202.269 466.62 201.225 468.528 201.225H472.632V200.559C472.632 199.011 471.498 197.985 469.77 197.985C468.366 197.985 467.268 198.705 466.89 199.821H465.828C466.278 198.093 467.772 197.013 469.752 197.013C472.074 197.013 473.676 198.435 473.676 200.505V206.553H472.812L472.704 204.951C471.894 206.067 470.526 206.697 468.87 206.697ZM466.404 203.907C466.404 205.041 467.358 205.761 468.906 205.761C471.066 205.761 472.65 204.411 472.65 202.539V202.143H468.564C467.286 202.143 466.404 202.845 466.404 203.907ZM477.186 206.553V193.233H478.23V206.553H477.186ZM481.932 206.553V193.233H482.976V206.553H481.932ZM486.102 210.153V209.163H486.876C488.19 209.163 488.604 208.893 489.09 207.723L489.612 206.409L485.184 197.247H486.354L488.55 201.837L490.152 205.149L491.484 201.837L493.374 197.247H494.472L490.026 208.119C489.378 209.739 488.658 210.153 486.984 210.153H486.102ZM319.634 232.553C317.654 232.553 316.592 231.437 316.592 229.331V224.201H314.558V223.247H315.746C316.448 223.247 316.646 223.067 316.718 222.383L316.808 220.961H317.636V223.247H320.858V224.201H317.636V229.295C317.636 230.825 318.266 231.545 319.67 231.545H320.984V232.553H319.634ZM327.411 232.787C324.531 232.787 322.515 230.771 322.515 227.891C322.515 225.029 324.531 223.013 327.411 223.013C330.273 223.013 332.289 225.029 332.289 227.891C332.289 230.771 330.273 232.787 327.411 232.787ZM323.559 227.891C323.559 230.195 325.125 231.779 327.411 231.779C329.679 231.779 331.245 230.195 331.245 227.891C331.245 225.605 329.679 224.021 327.411 224.021C325.125 224.021 323.559 225.605 323.559 227.891ZM342.837 232.553C340.857 232.553 339.795 231.437 339.795 229.331V224.201H337.761V223.247H338.949C339.651 223.247 339.849 223.067 339.921 222.383L340.011 220.961H340.839V223.247H344.061V224.201H340.839V229.295C340.839 230.825 341.469 231.545 342.873 231.545H344.187V232.553H342.837ZM346.985 232.553V219.233H348.029V224.939C348.767 223.661 350.063 223.013 351.521 223.013C353.933 223.013 355.409 224.687 355.409 227.369V232.553H354.365V227.459C354.365 225.317 353.231 224.021 351.377 224.021C349.415 224.021 348.029 225.479 348.029 227.711V232.553H346.985ZM362.862 232.787C360.036 232.787 358.11 230.789 358.11 227.891C358.11 225.011 360.054 223.013 362.88 223.013C365.814 223.013 367.704 225.173 367.632 228.323H359.172C359.352 230.429 360.792 231.797 362.862 231.797C364.374 231.797 365.58 231.095 366.192 229.889L367.362 229.907C366.642 231.689 364.95 232.787 362.862 232.787ZM359.172 227.405H366.606C366.354 225.299 364.914 224.003 362.88 224.003C360.81 224.003 359.352 225.353 359.172 227.405ZM378.465 232.787C376.071 232.787 374.595 231.077 374.595 228.395V223.247H375.639V228.305C375.639 230.429 376.773 231.779 378.609 231.779C380.535 231.779 381.867 230.267 381.867 228.053V223.247H382.911V232.553H382.047L381.939 230.735C381.219 232.085 379.923 232.787 378.465 232.787ZM389.828 232.787C387.47 232.787 385.976 231.599 385.904 229.745H386.93C387.038 231.059 388.064 231.833 389.846 231.833C391.484 231.833 392.474 231.203 392.474 230.177C392.474 229.205 391.592 228.611 389.612 228.269C387.182 227.855 386.084 226.991 386.084 225.569C386.084 223.985 387.434 223.013 389.612 223.013C391.808 223.013 393.194 224.057 393.338 225.839H392.294C392.186 224.615 391.232 223.949 389.612 223.949C388.064 223.949 387.128 224.579 387.128 225.587C387.128 226.505 387.902 227.009 389.972 227.405C392.33 227.855 393.5 228.791 393.5 230.195C393.5 231.761 392.078 232.787 389.828 232.787ZM400.462 232.787C397.636 232.787 395.71 230.789 395.71 227.891C395.71 225.011 397.654 223.013 400.48 223.013C403.414 223.013 405.304 225.173 405.232 228.323H396.772C396.952 230.429 398.392 231.797 400.462 231.797C401.974 231.797 403.18 231.095 403.792 229.889L404.962 229.907C404.242 231.689 402.55 232.787 400.462 232.787ZM396.772 227.405H404.206C403.954 225.299 402.514 224.003 400.48 224.003C398.41 224.003 396.952 225.353 396.772 227.405ZM408.086 232.553V223.247H408.968L409.076 225.335C409.706 223.931 410.768 223.247 412.496 223.247H413.27V224.219H412.46C410.462 224.219 409.13 225.443 409.13 228.269V232.553H408.086Z" fill="black"/>
<path d="M74.034 87.5527V74.9527H78.696C81.234 74.9527 82.89 76.4827 82.89 78.8767C82.89 80.9647 81.648 82.3867 79.668 82.7287L83.088 87.5527H81.774L78.39 82.8187H75.132V87.5527H74.034ZM75.132 81.7747H78.588C80.586 81.7747 81.774 80.6767 81.774 78.8767C81.774 77.0947 80.586 75.9967 78.588 75.9967H75.132V81.7747ZM89.2569 87.7867C86.4309 87.7867 84.5049 85.7887 84.5049 82.8907C84.5049 80.0107 86.4489 78.0127 89.2749 78.0127C92.2089 78.0127 94.0989 80.1727 94.0269 83.3227H85.5669C85.7469 85.4287 87.1869 86.7967 89.2569 86.7967C90.7689 86.7967 91.9749 86.0947 92.5869 84.8887L93.7569 84.9067C93.0369 86.6887 91.3449 87.7867 89.2569 87.7867ZM85.5669 82.4047H93.0009C92.7489 80.2987 91.3089 79.0027 89.2749 79.0027C87.2049 79.0027 85.7469 80.3527 85.5669 82.4047ZM100.363 87.5527C98.3825 87.5527 97.3205 86.4367 97.3205 84.3307V79.2007H95.2865V78.2467H96.4745C97.1765 78.2467 97.3745 78.0667 97.4465 77.3827L97.5365 75.9607H98.3645V78.2467H101.587V79.2007H98.3645V84.2947C98.3645 85.8247 98.9945 86.5447 100.399 86.5447H101.713V87.5527H100.363ZM104.51 87.5527V78.2467H105.392L105.5 80.3347C106.13 78.9307 107.192 78.2467 108.92 78.2467H109.694V79.2187H108.884C106.886 79.2187 105.554 80.4427 105.554 83.2687V87.5527H104.51ZM112.315 87.5527V78.2467H113.359V87.5527H112.315ZM111.883 75.6007C111.883 75.0787 112.261 74.6647 112.837 74.6647C113.413 74.6647 113.791 75.0787 113.791 75.6007C113.791 76.1407 113.413 76.5547 112.837 76.5547C112.261 76.5547 111.883 76.1407 111.883 75.6007ZM121.003 87.7867C118.177 87.7867 116.251 85.7887 116.251 82.8907C116.251 80.0107 118.195 78.0127 121.021 78.0127C123.955 78.0127 125.845 80.1727 125.773 83.3227H117.313C117.493 85.4287 118.933 86.7967 121.003 86.7967C122.515 86.7967 123.721 86.0947 124.333 84.8887L125.503 84.9067C124.783 86.6887 123.091 87.7867 121.003 87.7867ZM117.313 82.4047H124.747C124.495 80.2987 123.055 79.0027 121.021 79.0027C118.951 79.0027 117.493 80.3527 117.313 82.4047ZM130.94 87.5527L126.782 78.2467H127.916L129.536 81.8467L131.462 86.1847L133.37 81.8467L135.008 78.2467H136.124L131.966 87.5527H130.94ZM138.348 87.5527V78.2467H139.392V87.5527H138.348ZM137.916 75.6007C137.916 75.0787 138.294 74.6647 138.87 74.6647C139.446 74.6647 139.824 75.0787 139.824 75.6007C139.824 76.1407 139.446 76.5547 138.87 76.5547C138.294 76.5547 137.916 76.1407 137.916 75.6007ZM143.094 87.5527V78.2467H143.976L144.066 80.0467C144.804 78.7147 146.1 78.0127 147.594 78.0127C150.024 78.0127 151.518 79.7227 151.518 82.4047V87.5527H150.474V82.4947C150.474 80.3527 149.322 79.0207 147.468 79.0207C145.506 79.0207 144.138 80.5147 144.138 82.7287V87.5527H143.094ZM159.116 91.3867C156.83 91.3867 155.138 90.1807 154.778 88.2907H155.84C156.146 89.5867 157.406 90.3967 159.116 90.3967C161.258 90.3967 162.626 89.1367 162.626 87.1387V85.6267C161.798 86.7607 160.466 87.4447 158.882 87.4447C156.164 87.4447 154.22 85.4647 154.22 82.7287C154.22 79.9927 156.164 78.0127 158.882 78.0127C160.52 78.0127 161.87 78.7327 162.698 79.9207L162.788 78.2467H163.67V87.1747C163.67 89.6767 161.834 91.3867 159.116 91.3867ZM155.264 82.7287C155.264 84.9067 156.794 86.4187 158.99 86.4187C161.168 86.4187 162.698 84.9067 162.698 82.7287C162.698 80.5507 161.168 79.0207 158.99 79.0207C156.794 79.0207 155.264 80.5507 155.264 82.7287ZM175.724 87.7867C172.916 87.7867 170.954 85.7167 170.954 82.8907C170.954 80.0647 172.916 78.0127 175.724 78.0127C177.434 78.0127 178.82 78.7687 179.648 79.9747V74.2327H180.692V87.5527H179.828L179.702 85.7167C178.892 86.9947 177.47 87.7867 175.724 87.7867ZM171.998 82.8907C171.998 85.1767 173.564 86.7787 175.85 86.7787C178.118 86.7787 179.684 85.1767 179.684 82.8907C179.684 80.6227 178.118 79.0207 175.85 79.0207C173.564 79.0207 171.998 80.6227 171.998 82.8907ZM187.319 87.6967C185.159 87.6967 183.809 86.6347 183.809 84.9247C183.809 83.2687 185.069 82.2247 186.977 82.2247H191.081V81.5587C191.081 80.0107 189.947 78.9847 188.219 78.9847C186.815 78.9847 185.717 79.7047 185.339 80.8207H184.277C184.727 79.0927 186.221 78.0127 188.201 78.0127C190.523 78.0127 192.125 79.4347 192.125 81.5047V87.5527H191.261L191.153 85.9507C190.343 87.0667 188.975 87.6967 187.319 87.6967ZM184.853 84.9067C184.853 86.0407 185.807 86.7607 187.355 86.7607C189.515 86.7607 191.099 85.4107 191.099 83.5387V83.1427H187.013C185.735 83.1427 184.853 83.8447 184.853 84.9067ZM199.116 87.5527C197.136 87.5527 196.074 86.4367 196.074 84.3307V79.2007H194.04V78.2467H195.228C195.93 78.2467 196.128 78.0667 196.2 77.3827L196.29 75.9607H197.118V78.2467H200.34V79.2007H197.118V84.2947C197.118 85.8247 197.748 86.5447 199.152 86.5447H200.466V87.5527H199.116ZM205.864 87.6967C203.704 87.6967 202.354 86.6347 202.354 84.9247C202.354 83.2687 203.614 82.2247 205.522 82.2247H209.626V81.5587C209.626 80.0107 208.492 78.9847 206.764 78.9847C205.36 78.9847 204.262 79.7047 203.884 80.8207H202.822C203.272 79.0927 204.766 78.0127 206.746 78.0127C209.068 78.0127 210.67 79.4347 210.67 81.5047V87.5527H209.806L209.698 85.9507C208.888 87.0667 207.52 87.6967 205.864 87.6967ZM203.398 84.9067C203.398 86.0407 204.352 86.7607 205.9 86.7607C208.06 86.7607 209.644 85.4107 209.644 83.5387V83.1427H205.558C204.28 83.1427 203.398 83.8447 203.398 84.9067ZM222.535 87.7867C219.727 87.7867 217.765 85.7167 217.765 82.8907C217.765 80.0647 219.727 78.0127 222.535 78.0127C224.245 78.0127 225.631 78.7687 226.459 79.9747V74.2327H227.503V87.5527H226.639L226.513 85.7167C225.703 86.9947 224.281 87.7867 222.535 87.7867ZM218.809 82.8907C218.809 85.1767 220.375 86.7787 222.661 86.7787C224.929 86.7787 226.495 85.1767 226.495 82.8907C226.495 80.6227 224.929 79.0207 222.661 79.0207C220.375 79.0207 218.809 80.6227 218.809 82.8907ZM234.885 87.7867C232.491 87.7867 231.015 86.0767 231.015 83.3947V78.2467H232.059V83.3047C232.059 85.4287 233.193 86.7787 235.029 86.7787C236.955 86.7787 238.287 85.2667 238.287 83.0527V78.2467H239.331V87.5527H238.467L238.359 85.7347C237.639 87.0847 236.343 87.7867 234.885 87.7867ZM243.043 87.5527V78.2467H243.925L244.033 80.3347C244.663 78.9307 245.725 78.2467 247.453 78.2467H248.227V79.2187H247.417C245.419 79.2187 244.087 80.4427 244.087 83.2687V87.5527H243.043ZM250.848 87.5527V78.2467H251.892V87.5527H250.848ZM250.416 75.6007C250.416 75.0787 250.794 74.6647 251.37 74.6647C251.946 74.6647 252.324 75.0787 252.324 75.6007C252.324 76.1407 251.946 76.5547 251.37 76.5547C250.794 76.5547 250.416 76.1407 250.416 75.6007ZM255.594 87.5527V78.2467H256.476L256.566 80.0467C257.304 78.7147 258.6 78.0127 260.094 78.0127C262.524 78.0127 264.018 79.7227 264.018 82.4047V87.5527H262.974V82.4947C262.974 80.3527 261.822 79.0207 259.968 79.0207C258.006 79.0207 256.638 80.5147 256.638 82.7287V87.5527H255.594ZM271.616 91.3867C269.33 91.3867 267.638 90.1807 267.278 88.2907H268.34C268.646 89.5867 269.906 90.3967 271.616 90.3967C273.758 90.3967 275.126 89.1367 275.126 87.1387V85.6267C274.298 86.7607 272.966 87.4447 271.382 87.4447C268.664 87.4447 266.72 85.4647 266.72 82.7287C266.72 79.9927 268.664 78.0127 271.382 78.0127C273.02 78.0127 274.37 78.7327 275.198 79.9207L275.288 78.2467H276.17V87.1747C276.17 89.6767 274.334 91.3867 271.616 91.3867ZM267.764 82.7287C267.764 84.9067 269.294 86.4187 271.49 86.4187C273.668 86.4187 275.198 84.9067 275.198 82.7287C275.198 80.5507 273.668 79.0207 271.49 79.0207C269.294 79.0207 267.764 80.5507 267.764 82.7287ZM77.634 113.553C75.654 113.553 74.592 112.437 74.592 110.331V105.201H72.558V104.247H73.746C74.448 104.247 74.646 104.067 74.718 103.383L74.808 101.961H75.636V104.247H78.858V105.201H75.636V110.295C75.636 111.825 76.266 112.545 77.67 112.545H78.984V113.553H77.634ZM81.7817 113.553V100.233H82.8257V105.939C83.5637 104.661 84.8597 104.013 86.3177 104.013C88.7297 104.013 90.2057 105.687 90.2057 108.369V113.553H89.1617V108.459C89.1617 106.317 88.0277 105.021 86.1737 105.021C84.2117 105.021 82.8257 106.479 82.8257 108.711V113.553H81.7817ZM93.7173 113.553V104.247H94.5993L94.7073 106.335C95.3373 104.931 96.3993 104.247 98.1273 104.247H98.9013V105.219H98.0913C96.0933 105.219 94.7613 106.443 94.7613 109.269V113.553H93.7173ZM104.743 113.787C101.917 113.787 99.9913 111.789 99.9913 108.891C99.9913 106.011 101.935 104.013 104.761 104.013C107.695 104.013 109.585 106.173 109.513 109.323H101.053C101.233 111.429 102.673 112.797 104.743 112.797C106.255 112.797 107.461 112.095 108.073 110.889L109.243 110.907C108.523 112.689 106.831 113.787 104.743 113.787ZM101.053 108.405H108.487C108.235 106.299 106.795 105.003 104.761 105.003C102.691 105.003 101.233 106.353 101.053 108.405ZM116.31 113.787C113.484 113.787 111.558 111.789 111.558 108.891C111.558 106.011 113.502 104.013 116.328 104.013C119.262 104.013 121.152 106.173 121.08 109.323H112.62C112.8 111.429 114.24 112.797 116.31 112.797C117.822 112.797 119.028 112.095 119.64 110.889L120.81 110.907C120.09 112.689 118.398 113.787 116.31 113.787ZM112.62 108.405H120.054C119.802 106.299 118.362 105.003 116.328 105.003C114.258 105.003 112.8 106.353 112.62 108.405ZM131.146 113.787C128.788 113.787 127.294 112.599 127.222 110.745H128.248C128.356 112.059 129.382 112.833 131.164 112.833C132.802 112.833 133.792 112.203 133.792 111.177C133.792 110.205 132.91 109.611 130.93 109.269C128.5 108.855 127.402 107.991 127.402 106.569C127.402 104.985 128.752 104.013 130.93 104.013C133.126 104.013 134.512 105.057 134.656 106.839H133.612C133.504 105.615 132.55 104.949 130.93 104.949C129.382 104.949 128.446 105.579 128.446 106.587C128.446 107.505 129.22 108.009 131.29 108.405C133.648 108.855 134.818 109.791 134.818 111.195C134.818 112.761 133.396 113.787 131.146 113.787ZM141.355 113.553C139.375 113.553 138.313 112.437 138.313 110.331V105.201H136.279V104.247H137.467C138.169 104.247 138.367 104.067 138.439 103.383L138.529 101.961H139.357V104.247H142.579V105.201H139.357V110.295C139.357 111.825 139.987 112.545 141.391 112.545H142.705V113.553H141.355ZM148.102 113.697C145.942 113.697 144.592 112.635 144.592 110.925C144.592 109.269 145.852 108.225 147.76 108.225H151.864V107.559C151.864 106.011 150.73 104.985 149.002 104.985C147.598 104.985 146.5 105.705 146.122 106.821H145.06C145.51 105.093 147.004 104.013 148.984 104.013C151.306 104.013 152.908 105.435 152.908 107.505V113.553H152.044L151.936 111.951C151.126 113.067 149.758 113.697 148.102 113.697ZM145.636 110.907C145.636 112.041 146.59 112.761 148.138 112.761C150.298 112.761 151.882 111.411 151.882 109.539V109.143H147.796C146.518 109.143 145.636 109.845 145.636 110.907ZM160.504 117.387C158.218 117.387 156.526 116.181 156.166 114.291H157.228C157.534 115.587 158.794 116.397 160.504 116.397C162.646 116.397 164.014 115.137 164.014 113.139V111.627C163.186 112.761 161.854 113.445 160.27 113.445C157.552 113.445 155.608 111.465 155.608 108.729C155.608 105.993 157.552 104.013 160.27 104.013C161.908 104.013 163.258 104.733 164.086 105.921L164.176 104.247H165.058V113.175C165.058 115.677 163.222 117.387 160.504 117.387ZM156.652 108.729C156.652 110.907 158.182 112.419 160.378 112.419C162.556 112.419 164.086 110.907 164.086 108.729C164.086 106.551 162.556 105.021 160.378 105.021C158.182 105.021 156.652 106.551 156.652 108.729ZM172.7 113.787C169.874 113.787 167.948 111.789 167.948 108.891C167.948 106.011 169.892 104.013 172.718 104.013C175.652 104.013 177.542 106.173 177.47 109.323H169.01C169.19 111.429 170.63 112.797 172.7 112.797C174.212 112.797 175.418 112.095 176.03 110.889L177.2 110.907C176.48 112.689 174.788 113.787 172.7 113.787ZM169.01 108.405H176.444C176.192 106.299 174.752 105.003 172.718 105.003C170.648 105.003 169.19 106.353 169.01 108.405ZM183.529 113.787C181.171 113.787 179.677 112.599 179.605 110.745H180.631C180.739 112.059 181.765 112.833 183.547 112.833C185.185 112.833 186.175 112.203 186.175 111.177C186.175 110.205 185.293 109.611 183.313 109.269C180.883 108.855 179.785 107.991 179.785 106.569C179.785 104.985 181.135 104.013 183.313 104.013C185.509 104.013 186.895 105.057 187.039 106.839H185.995C185.887 105.615 184.933 104.949 183.313 104.949C181.765 104.949 180.829 105.579 180.829 106.587C180.829 107.505 181.603 108.009 183.673 108.405C186.031 108.855 187.201 109.791 187.201 111.195C187.201 112.761 185.779 113.787 183.529 113.787ZM198.315 113.787C195.435 113.787 193.419 111.771 193.419 108.891C193.419 106.029 195.435 104.013 198.315 104.013C201.177 104.013 203.193 106.029 203.193 108.891C203.193 111.771 201.177 113.787 198.315 113.787ZM194.463 108.891C194.463 111.195 196.029 112.779 198.315 112.779C200.583 112.779 202.149 111.195 202.149 108.891C202.149 106.605 200.583 105.021 198.315 105.021C196.029 105.021 194.463 106.605 194.463 108.891ZM206.748 103.167C206.748 101.043 207.792 99.9987 209.862 99.9987H211.32V100.989H209.952C208.44 100.989 207.792 101.655 207.792 103.239V104.247H211.23V105.201H207.792V113.553H206.748V105.201H204.624V104.247H206.748V103.167ZM221.245 113.787C218.851 113.787 217.375 112.077 217.375 109.395V104.247H218.419V109.305C218.419 111.429 219.553 112.779 221.389 112.779C223.315 112.779 224.647 111.267 224.647 109.053V104.247H225.691V113.553H224.827L224.719 111.735C223.999 113.085 222.703 113.787 221.245 113.787ZM232.607 113.787C230.249 113.787 228.755 112.599 228.683 110.745H229.709C229.817 112.059 230.843 112.833 232.625 112.833C234.263 112.833 235.253 112.203 235.253 111.177C235.253 110.205 234.371 109.611 232.391 109.269C229.961 108.855 228.863 107.991 228.863 106.569C228.863 104.985 230.213 104.013 232.391 104.013C234.587 104.013 235.973 105.057 236.117 106.839H235.073C234.965 105.615 234.011 104.949 232.391 104.949C230.843 104.949 229.907 105.579 229.907 106.587C229.907 107.505 230.681 108.009 232.751 108.405C235.109 108.855 236.279 109.791 236.279 111.195C236.279 112.761 234.857 113.787 232.607 113.787ZM243.241 113.787C240.415 113.787 238.489 111.789 238.489 108.891C238.489 106.011 240.433 104.013 243.259 104.013C246.193 104.013 248.083 106.173 248.011 109.323H239.551C239.731 111.429 241.171 112.797 243.241 112.797C244.753 112.797 245.959 112.095 246.571 110.889L247.741 110.907C247.021 112.689 245.329 113.787 243.241 113.787ZM239.551 108.405H246.985C246.733 106.299 245.293 105.003 243.259 105.003C241.189 105.003 239.731 106.353 239.551 108.405Z" fill="black"/>
<defs>
<filter id="filter0_d_882_44645" x="465.156" y="0" width="356.844" height="292.807" filterUnits="userSpaceOnUse" color-interpolation-filters="sRGB">
<feFlood flood-opacity="0" result="BackgroundImageFix"/>
<feColorMatrix in="SourceAlpha" type="matrix" values="0 0 0 0 0 0 0 0 0 0 0 0 0 0 0 0 0 0 127 0" result="hardAlpha"/>
<feMorphology radius="5" operator="dilate" in="SourceAlpha" result="effect1_dropShadow_882_44645"/>
<feOffset dy="4"/>
<feGaussianBlur stdDeviation="10"/>
<feComposite in2="hardAlpha" operator="out"/>
<feColorMatrix type="matrix" values="0 0 0 0 0 0 0 0 0 0 0 0 0 0 0 0 0 0 0.1 0"/>
<feBlend mode="normal" in2="BackgroundImageFix" result="effect1_dropShadow_882_44645"/>
<feBlend mode="normal" in="SourceGraphic" in2="effect1_dropShadow_882_44645" result="shape"/>
</filter>
<filter id="filter1_d_882_44645" x="0" y="0" width="356.844" height="292.807" filterUnits="userSpaceOnUse" color-interpolation-filters="sRGB">
<feFlood flood-opacity="0" result="BackgroundImageFix"/>
<feColorMatrix in="SourceAlpha" type="matrix" values="0 0 0 0 0 0 0 0 0 0 0 0 0 0 0 0 0 0 127 0" result="hardAlpha"/>
<feMorphology radius="5" operator="dilate" in="SourceAlpha" result="effect1_dropShadow_882_44645"/>
<feOffset dy="4"/>
<feGaussianBlur stdDeviation="10"/>
<feComposite in2="hardAlpha" operator="out"/>
<feColorMatrix type="matrix" values="0 0 0 0 0 0 0 0 0 0 0 0 0 0 0 0 0 0 0.1 0"/>
<feBlend mode="normal" in2="BackgroundImageFix" result="effect1_dropShadow_882_44645"/>
<feBlend mode="normal" in="SourceGraphic" in2="effect1_dropShadow_882_44645" result="shape"/>
</filter>
<filter id="filter2_d_882_44645" x="209.008" y="104.061" width="400.422" height="327.492" filterUnits="userSpaceOnUse" color-interpolation-filters="sRGB">
<feFlood flood-opacity="0" result="BackgroundImageFix"/>
<feColorMatrix in="SourceAlpha" type="matrix" values="0 0 0 0 0 0 0 0 0 0 0 0 0 0 0 0 0 0 127 0" result="hardAlpha"/>
<feMorphology radius="5" operator="dilate" in="SourceAlpha" result="effect1_dropShadow_882_44645"/>
<feOffset dy="4"/>
<feGaussianBlur stdDeviation="10"/>
<feComposite in2="hardAlpha" operator="out"/>
<feColorMatrix type="matrix" values="0 0 0 0 0 0 0 0 0 0 0 0 0 0 0 0 0 0 0.1 0"/>
<feBlend mode="normal" in2="BackgroundImageFix" result="effect1_dropShadow_882_44645"/>
<feBlend mode="normal" in="SourceGraphic" in2="effect1_dropShadow_882_44645" result="shape"/>
</filter>
<clipPath id="clip0_882_44645">
<rect width="106.728" height="106.728" fill="white" transform="translate(105.938 176.355) rotate(-54.4833)"/>
</clipPath>
<clipPath id="clip1_882_44645">
<rect width="106.728" height="106.728" fill="white" transform="translate(359.414 250.465)"/>
</clipPath>
</defs>
</svg>
