<svg width="1241" height="458" viewBox="0 0 1241 458" fill="none" xmlns="http://www.w3.org/2000/svg">
<path d="M45.712 50V33.2H52.096C55.192 33.2 57.184 34.904 57.184 37.568C57.184 39.392 56.224 40.76 54.592 41.336C56.536 41.912 57.664 43.376 57.664 45.416C57.664 48.248 55.624 50 52.36 50H45.712ZM47.176 48.632H52.312C54.736 48.632 56.176 47.408 56.176 45.368C56.176 43.304 54.736 42.104 52.24 42.104H47.176V48.632ZM47.176 40.76H52.048C54.352 40.76 55.696 39.608 55.696 37.664C55.696 35.744 54.352 34.568 52.072 34.568H47.176V40.76ZM66.5868 50.312C63.3948 50.312 61.4268 48.032 61.4268 44.456V37.592H62.8188V44.336C62.8188 47.168 64.3308 48.968 66.7788 48.968C69.3468 48.968 71.1228 46.952 71.1228 44V37.592H72.5148V50H71.3628L71.2188 47.576C70.2588 49.376 68.5308 50.312 66.5868 50.312ZM81.7362 50.312C78.5922 50.312 76.6002 48.728 76.5042 46.256H77.8722C78.0162 48.008 79.3842 49.04 81.7602 49.04C83.9442 49.04 85.2642 48.2 85.2642 46.832C85.2642 45.536 84.0882 44.744 81.4482 44.288C78.2082 43.736 76.7442 42.584 76.7442 40.688C76.7442 38.576 78.5442 37.28 81.4482 37.28C84.3762 37.28 86.2242 38.672 86.4162 41.048H85.0242C84.8802 39.416 83.6082 38.528 81.4482 38.528C79.3842 38.528 78.1362 39.368 78.1362 40.712C78.1362 41.936 79.1682 42.608 81.9282 43.136C85.0722 43.736 86.6322 44.984 86.6322 46.856C86.6322 48.944 84.7362 50.312 81.7362 50.312ZM89.4931 54.8V53.48H90.5251C92.2771 53.48 92.8291 53.12 93.4771 51.56L94.1731 49.808L88.2691 37.592H89.8291L92.7571 43.712L94.8931 48.128L96.6691 43.712L99.1891 37.592H100.653L94.7251 52.088C93.8611 54.248 92.9011 54.8 90.6691 54.8H89.4931ZM105.952 54.872V53.552H107.128C108.88 53.552 109.504 52.976 109.504 50.912V37.592H110.896V50.936C110.896 53.672 109.936 54.872 107.2 54.872H105.952ZM108.928 34.064C108.928 33.368 109.432 32.816 110.2 32.816C110.968 32.816 111.472 33.368 111.472 34.064C111.472 34.784 110.968 35.336 110.2 35.336C109.432 35.336 108.928 34.784 108.928 34.064ZM121.279 50.312C117.439 50.312 114.751 47.624 114.751 43.784C114.751 39.968 117.439 37.28 121.279 37.28C125.095 37.28 127.783 39.968 127.783 43.784C127.783 47.624 125.095 50.312 121.279 50.312ZM116.143 43.784C116.143 46.856 118.231 48.968 121.279 48.968C124.303 48.968 126.391 46.856 126.391 43.784C126.391 40.736 124.303 38.624 121.279 38.624C118.231 38.624 116.143 40.736 116.143 43.784ZM136.548 50.312C133.356 50.312 131.388 48.032 131.388 44.456V37.592H132.78V44.336C132.78 47.168 134.292 48.968 136.74 48.968C139.308 48.968 141.084 46.952 141.084 44V37.592H142.476V50H141.324L141.18 47.576C140.22 49.376 138.492 50.312 136.548 50.312ZM147.425 50V37.592H148.601L148.745 40.376C149.585 38.504 151.001 37.592 153.305 37.592H154.337V38.888H153.257C150.593 38.888 148.817 40.52 148.817 44.288V50H147.425ZM157.831 50V37.592H159.007L159.127 39.992C160.111 38.216 161.839 37.28 163.831 37.28C167.071 37.28 169.063 39.56 169.063 43.136V50H167.671V43.256C167.671 40.4 166.135 38.624 163.663 38.624C161.047 38.624 159.223 40.616 159.223 43.568V50H157.831ZM177.633 50.192C174.753 50.192 172.953 48.776 172.953 46.496C172.953 44.288 174.633 42.896 177.177 42.896H182.649V42.008C182.649 39.944 181.137 38.576 178.833 38.576C176.961 38.576 175.497 39.536 174.993 41.024H173.577C174.177 38.72 176.169 37.28 178.809 37.28C181.905 37.28 184.041 39.176 184.041 41.936V50H182.889L182.745 47.864C181.665 49.352 179.841 50.192 177.633 50.192ZM174.345 46.472C174.345 47.984 175.617 48.944 177.681 48.944C180.561 48.944 182.673 47.144 182.673 44.648V44.12H177.225C175.521 44.12 174.345 45.056 174.345 46.472ZM188.722 50V32.24H190.114V50H188.722ZM195.05 50V37.592H196.442V50H195.05ZM194.474 34.064C194.474 33.368 194.978 32.816 195.746 32.816C196.514 32.816 197.018 33.368 197.018 34.064C197.018 34.784 196.514 35.336 195.746 35.336C194.978 35.336 194.474 34.784 194.474 34.064ZM205.65 50.312C202.506 50.312 200.514 48.728 200.418 46.256H201.786C201.93 48.008 203.298 49.04 205.674 49.04C207.858 49.04 209.178 48.2 209.178 46.832C209.178 45.536 208.002 44.744 205.362 44.288C202.122 43.736 200.658 42.584 200.658 40.688C200.658 38.576 202.458 37.28 205.362 37.28C208.29 37.28 210.138 38.672 210.33 41.048H208.938C208.794 39.416 207.522 38.528 205.362 38.528C203.298 38.528 202.05 39.368 202.05 40.712C202.05 41.936 203.082 42.608 205.842 43.136C208.986 43.736 210.546 44.984 210.546 46.856C210.546 48.944 208.65 50.312 205.65 50.312ZM219.262 50C216.622 50 215.206 48.512 215.206 45.704V38.864H212.494V37.592H214.078C215.014 37.592 215.278 37.352 215.374 36.44L215.494 34.544H216.598V37.592H220.894V38.864H216.598V45.656C216.598 47.696 217.438 48.656 219.31 48.656H221.062V50H219.262ZM234.971 50.312C231.827 50.312 229.835 48.728 229.739 46.256H231.107C231.251 48.008 232.619 49.04 234.995 49.04C237.179 49.04 238.499 48.2 238.499 46.832C238.499 45.536 237.323 44.744 234.683 44.288C231.443 43.736 229.979 42.584 229.979 40.688C229.979 38.576 231.779 37.28 234.683 37.28C237.611 37.28 239.459 38.672 239.651 41.048H238.259C238.115 39.416 236.843 38.528 234.683 38.528C232.619 38.528 231.371 39.368 231.371 40.712C231.371 41.936 232.403 42.608 235.163 43.136C238.307 43.736 239.867 44.984 239.867 46.856C239.867 48.944 237.971 50.312 234.971 50.312ZM248.582 50C245.942 50 244.526 48.512 244.526 45.704V38.864H241.814V37.592H243.398C244.334 37.592 244.598 37.352 244.694 36.44L244.814 34.544H245.918V37.592H250.214V38.864H245.918V45.656C245.918 47.696 246.758 48.656 248.63 48.656H250.382V50H248.582ZM258.845 50.312C255.653 50.312 253.685 48.032 253.685 44.456V37.592H255.077V44.336C255.077 47.168 256.589 48.968 259.037 48.968C261.605 48.968 263.381 46.952 263.381 44V37.592H264.773V50H263.621L263.477 47.576C262.517 49.376 260.789 50.312 258.845 50.312ZM275.002 50.312C271.258 50.312 268.642 47.552 268.642 43.784C268.642 40.016 271.258 37.28 275.002 37.28C277.282 37.28 279.13 38.288 280.234 39.896V32.24H281.626V50H280.474L280.306 47.552C279.226 49.256 277.33 50.312 275.002 50.312ZM270.034 43.784C270.034 46.832 272.122 48.968 275.17 48.968C278.194 48.968 280.282 46.832 280.282 43.784C280.282 40.76 278.194 38.624 275.17 38.624C272.122 38.624 270.034 40.76 270.034 43.784ZM291.83 50.312C288.062 50.312 285.494 47.648 285.494 43.784C285.494 39.944 288.086 37.28 291.854 37.28C295.766 37.28 298.286 40.16 298.19 44.36H286.91C287.15 47.168 289.07 48.992 291.83 48.992C293.846 48.992 295.454 48.056 296.27 46.448L297.83 46.472C296.87 48.848 294.614 50.312 291.83 50.312ZM286.91 43.136H296.822C296.486 40.328 294.566 38.6 291.854 38.6C289.094 38.6 287.15 40.4 286.91 43.136ZM301.995 50V37.592H303.171L303.291 39.992C304.275 38.216 306.003 37.28 307.995 37.28C311.235 37.28 313.227 39.56 313.227 43.136V50H311.835V43.256C311.835 40.4 310.299 38.624 307.827 38.624C305.211 38.624 303.387 40.616 303.387 43.568V50H301.995ZM322.551 50C319.911 50 318.495 48.512 318.495 45.704V38.864H315.783V37.592H317.367C318.303 37.592 318.567 37.352 318.663 36.44L318.783 34.544H319.887V37.592H324.183V38.864H319.887V45.656C319.887 47.696 320.727 48.656 322.599 48.656H324.351V50H322.551Z" fill="black"/>
<path d="M327.712 111V94.2H329.08L336.064 104.712L343.048 94.2H344.392V111H342.952V96.888L336.664 106.32H335.464L329.176 96.888V111H327.712ZM354.47 111.312C351.278 111.312 349.31 109.032 349.31 105.456V98.592H350.702V105.336C350.702 108.168 352.214 109.968 354.662 109.968C357.23 109.968 359.006 107.952 359.006 105V98.592H360.398V111H359.246L359.102 108.576C358.142 110.376 356.414 111.312 354.47 111.312ZM369.619 111.312C366.475 111.312 364.483 109.728 364.387 107.256H365.755C365.899 109.008 367.267 110.04 369.643 110.04C371.827 110.04 373.147 109.2 373.147 107.832C373.147 106.536 371.971 105.744 369.331 105.288C366.091 104.736 364.627 103.584 364.627 101.688C364.627 99.576 366.427 98.28 369.331 98.28C372.259 98.28 374.107 99.672 374.299 102.048H372.907C372.763 100.416 371.491 99.528 369.331 99.528C367.267 99.528 366.019 100.368 366.019 101.712C366.019 102.936 367.051 103.608 369.811 104.136C372.955 104.736 374.515 105.984 374.515 107.856C374.515 109.944 372.619 111.312 369.619 111.312ZM378.542 111V98.592H379.934V111H378.542ZM377.966 95.064C377.966 94.368 378.47 93.816 379.238 93.816C380.006 93.816 380.51 94.368 380.51 95.064C380.51 95.784 380.006 96.336 379.238 96.336C378.47 96.336 377.966 95.784 377.966 95.064ZM390.126 111.312C386.406 111.312 383.79 108.6 383.79 104.784C383.79 100.968 386.406 98.28 390.126 98.28C393.078 98.28 395.502 100.032 396.222 102.72H394.806C393.99 100.752 392.262 99.624 390.126 99.624C387.198 99.624 385.182 101.736 385.182 104.784C385.182 107.856 387.198 109.968 390.126 109.968C392.406 109.968 394.182 108.696 394.878 106.656H396.342C395.502 109.56 393.174 111.312 390.126 111.312ZM400.128 111V98.592H401.52V111H400.128ZM399.552 95.064C399.552 94.368 400.056 93.816 400.824 93.816C401.592 93.816 402.096 94.368 402.096 95.064C402.096 95.784 401.592 96.336 400.824 96.336C400.056 96.336 399.552 95.784 399.552 95.064ZM410.344 111.192C407.464 111.192 405.664 109.776 405.664 107.496C405.664 105.288 407.344 103.896 409.888 103.896H415.36V103.008C415.36 100.944 413.848 99.576 411.544 99.576C409.672 99.576 408.208 100.536 407.704 102.024H406.288C406.888 99.72 408.88 98.28 411.52 98.28C414.616 98.28 416.752 100.176 416.752 102.936V111H415.6L415.456 108.864C414.376 110.352 412.552 111.192 410.344 111.192ZM407.056 107.472C407.056 108.984 408.328 109.944 410.392 109.944C413.272 109.944 415.384 108.144 415.384 105.648V105.12H409.936C408.232 105.12 407.056 106.056 407.056 107.472ZM421.433 111V98.592H422.609L422.729 100.992C423.713 99.216 425.441 98.28 427.433 98.28C430.673 98.28 432.665 100.56 432.665 104.136V111H431.273V104.256C431.273 101.4 429.737 99.624 427.265 99.624C424.649 99.624 422.825 101.616 422.825 104.568V111H421.433Z" fill="black"/>
<path d="M581.016 26V18.128H571.176V26H569.712V9.2H571.176V16.736H581.016V9.2H582.48V26H581.016ZM591.548 26.192C588.668 26.192 586.868 24.776 586.868 22.496C586.868 20.288 588.548 18.896 591.092 18.896H596.564V18.008C596.564 15.944 595.052 14.576 592.748 14.576C590.876 14.576 589.412 15.536 588.908 17.024H587.492C588.092 14.72 590.084 13.28 592.724 13.28C595.82 13.28 597.956 15.176 597.956 17.936V26H596.804L596.66 23.864C595.58 25.352 593.756 26.192 591.548 26.192ZM588.26 22.472C588.26 23.984 589.532 24.944 591.596 24.944C594.476 24.944 596.588 23.144 596.588 20.648V20.12H591.14C589.436 20.12 588.26 21.056 588.26 22.472ZM607.916 26.312C604.172 26.312 601.556 23.552 601.556 19.784C601.556 16.016 604.172 13.28 607.916 13.28C610.196 13.28 612.044 14.288 613.148 15.896V8.24H614.54V26H613.388L613.22 23.552C612.14 25.256 610.244 26.312 607.916 26.312ZM602.948 19.784C602.948 22.832 605.036 24.968 608.084 24.968C611.108 24.968 613.196 22.832 613.196 19.784C613.196 16.76 611.108 14.624 608.084 14.624C605.036 14.624 602.948 16.76 602.948 19.784ZM627.867 26L623.403 13.592H624.891L628.563 23.912L630.315 19.4L632.547 13.592H633.843L636.099 19.4L637.851 23.912L641.547 13.592H643.011L638.523 26H637.179L635.043 20.456L633.195 15.632L629.211 26H627.867ZM650.806 26.312C647.038 26.312 644.47 23.648 644.47 19.784C644.47 15.944 647.062 13.28 650.83 13.28C654.742 13.28 657.262 16.16 657.166 20.36H645.886C646.126 23.168 648.046 24.992 650.806 24.992C652.822 24.992 654.43 24.056 655.246 22.448L656.806 22.472C655.846 24.848 653.59 26.312 650.806 26.312ZM645.886 19.136H655.798C655.462 16.328 653.542 14.6 650.83 14.6C648.07 14.6 646.126 16.4 645.886 19.136ZM666.228 26.312C662.46 26.312 659.892 23.648 659.892 19.784C659.892 15.944 662.484 13.28 666.252 13.28C670.164 13.28 672.684 16.16 672.588 20.36H661.308C661.548 23.168 663.468 24.992 666.228 24.992C668.244 24.992 669.852 24.056 670.668 22.448L672.228 22.472C671.268 24.848 669.012 26.312 666.228 26.312ZM661.308 19.136H671.22C670.884 16.328 668.964 14.6 666.252 14.6C663.492 14.6 661.548 16.4 661.308 19.136ZM676.394 26V8.24H677.786V19.04H679.61C681.914 19.04 682.922 18.44 683.714 16.352L684.77 13.592H686.258L685.01 16.88C684.458 18.272 683.81 19.16 682.826 19.688L686.858 26H685.202L681.53 20.168C680.954 20.288 680.306 20.336 679.562 20.336H677.786V26H676.394ZM690.292 26V8.24H691.684V26H690.292ZM695.852 30.8V29.48H696.884C698.636 29.48 699.188 29.12 699.836 27.56L700.532 25.808L694.628 13.592H696.188L699.116 19.712L701.252 24.128L703.028 19.712L705.548 13.592H707.012L701.084 28.088C700.22 30.248 699.26 30.8 697.028 30.8H695.852ZM719.727 26.192C716.847 26.192 715.047 24.776 715.047 22.496C715.047 20.288 716.727 18.896 719.271 18.896H724.743V18.008C724.743 15.944 723.231 14.576 720.927 14.576C719.055 14.576 717.591 15.536 717.087 17.024H715.671C716.271 14.72 718.263 13.28 720.903 13.28C723.999 13.28 726.135 15.176 726.135 17.936V26H724.983L724.839 23.864C723.759 25.352 721.935 26.192 719.727 26.192ZM716.439 22.472C716.439 23.984 717.711 24.944 719.775 24.944C722.655 24.944 724.767 23.144 724.767 20.648V20.12H719.319C717.615 20.12 716.439 21.056 716.439 22.472ZM735.088 26.312C731.944 26.312 729.952 24.728 729.856 22.256H731.224C731.368 24.008 732.736 25.04 735.112 25.04C737.296 25.04 738.616 24.2 738.616 22.832C738.616 21.536 737.44 20.744 734.8 20.288C731.56 19.736 730.096 18.584 730.096 16.688C730.096 14.576 731.896 13.28 734.8 13.28C737.728 13.28 739.576 14.672 739.768 17.048H738.376C738.232 15.416 736.96 14.528 734.8 14.528C732.736 14.528 731.488 15.368 731.488 16.712C731.488 17.936 732.52 18.608 735.28 19.136C738.424 19.736 739.984 20.984 739.984 22.856C739.984 24.944 738.088 26.312 735.088 26.312ZM748.283 26.312C745.139 26.312 743.147 24.728 743.051 22.256H744.419C744.563 24.008 745.931 25.04 748.307 25.04C750.491 25.04 751.811 24.2 751.811 22.832C751.811 21.536 750.635 20.744 747.995 20.288C744.755 19.736 743.291 18.584 743.291 16.688C743.291 14.576 745.091 13.28 747.995 13.28C750.923 13.28 752.771 14.672 752.963 17.048H751.571C751.427 15.416 750.155 14.528 747.995 14.528C745.931 14.528 744.683 15.368 744.683 16.712C744.683 17.936 745.715 18.608 748.475 19.136C751.619 19.736 753.179 20.984 753.179 22.856C753.179 24.944 751.283 26.312 748.283 26.312ZM757.206 26V13.592H758.598V26H757.206ZM756.63 10.064C756.63 9.368 757.134 8.816 757.902 8.816C758.67 8.816 759.174 9.368 759.174 10.064C759.174 10.784 758.67 11.336 757.902 11.336C757.134 11.336 756.63 10.784 756.63 10.064ZM768.983 31.112C765.935 31.112 763.679 29.504 763.199 26.984H764.615C765.023 28.712 766.703 29.792 768.983 29.792C771.839 29.792 773.663 28.112 773.663 25.448V23.432C772.559 24.944 770.783 25.856 768.671 25.856C765.047 25.856 762.455 23.216 762.455 19.568C762.455 15.92 765.047 13.28 768.671 13.28C770.855 13.28 772.655 14.24 773.759 15.824L773.879 13.592H775.055V25.496C775.055 28.832 772.607 31.112 768.983 31.112ZM763.847 19.568C763.847 22.472 765.887 24.488 768.815 24.488C771.719 24.488 773.759 22.472 773.759 19.568C773.759 16.664 771.719 14.624 768.815 14.624C765.887 14.624 763.847 16.664 763.847 19.568ZM779.988 26V13.592H781.164L781.284 15.992C782.268 14.216 783.996 13.28 785.988 13.28C789.228 13.28 791.22 15.56 791.22 19.136V26H789.828V19.256C789.828 16.4 788.292 14.624 785.82 14.624C783.204 14.624 781.38 16.616 781.38 19.568V26H779.988ZM795.902 26V13.592H797.078L797.198 15.608C798.062 14.096 799.574 13.28 801.494 13.28C803.654 13.28 805.31 14.36 806.03 16.256C806.87 14.36 808.574 13.28 810.758 13.28C813.878 13.28 815.894 15.416 815.894 18.872V26H814.502V19.088C814.502 16.328 812.966 14.624 810.59 14.624C808.166 14.624 806.582 16.376 806.582 19.184V26H805.19V19.088C805.19 16.328 803.678 14.624 801.302 14.624C798.878 14.624 797.294 16.376 797.294 19.184V26H795.902ZM825.814 26.312C822.046 26.312 819.478 23.648 819.478 19.784C819.478 15.944 822.07 13.28 825.838 13.28C829.75 13.28 832.27 16.16 832.174 20.36H820.894C821.134 23.168 823.054 24.992 825.814 24.992C827.83 24.992 829.438 24.056 830.254 22.448L831.814 22.472C830.854 24.848 828.598 26.312 825.814 26.312ZM820.894 19.136H830.806C830.47 16.328 828.55 14.6 825.838 14.6C823.078 14.6 821.134 16.4 820.894 19.136ZM835.98 26V13.592H837.156L837.276 15.992C838.26 14.216 839.988 13.28 841.98 13.28C845.22 13.28 847.212 15.56 847.212 19.136V26H845.82V19.256C845.82 16.4 844.284 14.624 841.812 14.624C839.196 14.624 837.372 16.616 837.372 19.568V26H835.98ZM856.535 26C853.895 26 852.479 24.512 852.479 21.704V14.864H849.767V13.592H851.351C852.287 13.592 852.551 13.352 852.647 12.44L852.767 10.544H853.871V13.592H858.167V14.864H853.871V21.656C853.871 23.696 854.711 24.656 856.583 24.656H858.335V26H856.535ZM866.103 26.312C862.959 26.312 860.967 24.728 860.871 22.256H862.239C862.383 24.008 863.751 25.04 866.127 25.04C868.311 25.04 869.631 24.2 869.631 22.832C869.631 21.536 868.455 20.744 865.815 20.288C862.575 19.736 861.111 18.584 861.111 16.688C861.111 14.576 862.911 13.28 865.815 13.28C868.743 13.28 870.591 14.672 870.783 17.048H869.391C869.247 15.416 867.975 14.528 865.815 14.528C863.751 14.528 862.503 15.368 862.503 16.712C862.503 17.936 863.535 18.608 866.295 19.136C869.439 19.736 870.999 20.984 870.999 22.856C870.999 24.944 869.103 26.312 866.103 26.312ZM884.821 26.192C881.941 26.192 880.141 24.776 880.141 22.496C880.141 20.288 881.821 18.896 884.365 18.896H889.837V18.008C889.837 15.944 888.325 14.576 886.021 14.576C884.149 14.576 882.685 15.536 882.181 17.024H880.765C881.365 14.72 883.357 13.28 885.997 13.28C889.093 13.28 891.229 15.176 891.229 17.936V26H890.077L889.933 23.864C888.853 25.352 887.029 26.192 884.821 26.192ZM881.533 22.472C881.533 23.984 882.805 24.944 884.869 24.944C887.749 24.944 889.861 23.144 889.861 20.648V20.12H884.413C882.709 20.12 881.533 21.056 881.533 22.472ZM895.91 26V13.592H897.086L897.206 15.992C898.19 14.216 899.918 13.28 901.91 13.28C905.15 13.28 907.142 15.56 907.142 19.136V26H905.75V19.256C905.75 16.4 904.214 14.624 901.742 14.624C899.126 14.624 897.302 16.616 897.302 19.568V26H895.91ZM917.104 26.312C913.36 26.312 910.744 23.552 910.744 19.784C910.744 16.016 913.36 13.28 917.104 13.28C919.384 13.28 921.232 14.288 922.336 15.896V8.24H923.728V26H922.576L922.408 23.552C921.328 25.256 919.432 26.312 917.104 26.312ZM912.136 19.784C912.136 22.832 914.224 24.968 917.272 24.968C920.296 24.968 922.384 22.832 922.384 19.784C922.384 16.76 920.296 14.624 917.272 14.624C914.224 14.624 912.136 16.76 912.136 19.784ZM938.853 26.312C935.709 26.312 933.717 24.728 933.621 22.256H934.989C935.133 24.008 936.501 25.04 938.877 25.04C941.061 25.04 942.381 24.2 942.381 22.832C942.381 21.536 941.205 20.744 938.565 20.288C935.325 19.736 933.861 18.584 933.861 16.688C933.861 14.576 935.661 13.28 938.565 13.28C941.493 13.28 943.341 14.672 943.533 17.048H942.141C941.997 15.416 940.725 14.528 938.565 14.528C936.501 14.528 935.253 15.368 935.253 16.712C935.253 17.936 936.285 18.608 939.045 19.136C942.189 19.736 943.749 20.984 943.749 22.856C943.749 24.944 941.853 26.312 938.853 26.312ZM952.673 26.312C949.481 26.312 947.513 24.032 947.513 20.456V13.592H948.905V20.336C948.905 23.168 950.417 24.968 952.865 24.968C955.433 24.968 957.209 22.952 957.209 20V13.592H958.601V26H957.449L957.305 23.576C956.345 25.376 954.617 26.312 952.673 26.312ZM970.174 26.312C967.846 26.312 965.95 25.232 964.87 23.528L964.726 26H963.55V8.24H964.942V15.944C966.046 14.288 967.894 13.28 970.174 13.28C973.942 13.28 976.534 16.016 976.534 19.784C976.534 23.552 973.942 26.312 970.174 26.312ZM964.894 19.784C964.894 22.832 966.982 24.968 970.03 24.968C973.078 24.968 975.142 22.832 975.142 19.784C975.142 16.76 973.078 14.624 970.03 14.624C966.982 14.624 964.894 16.76 964.894 19.784ZM980.402 26V13.592H981.578L981.698 15.608C982.562 14.096 984.074 13.28 985.994 13.28C988.154 13.28 989.81 14.36 990.53 16.256C991.37 14.36 993.074 13.28 995.258 13.28C998.378 13.28 1000.39 15.416 1000.39 18.872V26H999.002V19.088C999.002 16.328 997.466 14.624 995.09 14.624C992.666 14.624 991.082 16.376 991.082 19.184V26H989.69V19.088C989.69 16.328 988.178 14.624 985.802 14.624C983.378 14.624 981.794 16.376 981.794 19.184V26H980.402ZM1005.06 26V13.592H1006.45V26H1005.06ZM1004.48 10.064C1004.48 9.368 1004.99 8.816 1005.75 8.816C1006.52 8.816 1007.03 9.368 1007.03 10.064C1007.03 10.784 1006.52 11.336 1005.75 11.336C1004.99 11.336 1004.48 10.784 1004.48 10.064ZM1015.66 26.312C1012.51 26.312 1010.52 24.728 1010.43 22.256H1011.79C1011.94 24.008 1013.31 25.04 1015.68 25.04C1017.87 25.04 1019.19 24.2 1019.19 22.832C1019.19 21.536 1018.01 20.744 1015.37 20.288C1012.13 19.736 1010.67 18.584 1010.67 16.688C1010.67 14.576 1012.47 13.28 1015.37 13.28C1018.3 13.28 1020.15 14.672 1020.34 17.048H1018.95C1018.8 15.416 1017.53 14.528 1015.37 14.528C1013.31 14.528 1012.06 15.368 1012.06 16.712C1012.06 17.936 1013.09 18.608 1015.85 19.136C1018.99 19.736 1020.55 20.984 1020.55 22.856C1020.55 24.944 1018.66 26.312 1015.66 26.312ZM1028.85 26.312C1025.71 26.312 1023.72 24.728 1023.62 22.256H1024.99C1025.13 24.008 1026.5 25.04 1028.88 25.04C1031.06 25.04 1032.38 24.2 1032.38 22.832C1032.38 21.536 1031.21 20.744 1028.57 20.288C1025.33 19.736 1023.86 18.584 1023.86 16.688C1023.86 14.576 1025.66 13.28 1028.57 13.28C1031.49 13.28 1033.34 14.672 1033.53 17.048H1032.14C1032 15.416 1030.73 14.528 1028.57 14.528C1026.5 14.528 1025.25 15.368 1025.25 16.712C1025.25 17.936 1026.29 18.608 1029.05 19.136C1032.19 19.736 1033.75 20.984 1033.75 22.856C1033.75 24.944 1031.85 26.312 1028.85 26.312ZM1037.78 26V13.592H1039.17V26H1037.78ZM1037.2 10.064C1037.2 9.368 1037.7 8.816 1038.47 8.816C1039.24 8.816 1039.74 9.368 1039.74 10.064C1039.74 10.784 1039.24 11.336 1038.47 11.336C1037.7 11.336 1037.2 10.784 1037.2 10.064ZM1049.55 26.312C1045.71 26.312 1043.02 23.624 1043.02 19.784C1043.02 15.968 1045.71 13.28 1049.55 13.28C1053.37 13.28 1056.06 15.968 1056.06 19.784C1056.06 23.624 1053.37 26.312 1049.55 26.312ZM1044.42 19.784C1044.42 22.856 1046.5 24.968 1049.55 24.968C1052.58 24.968 1054.66 22.856 1054.66 19.784C1054.66 16.736 1052.58 14.624 1049.55 14.624C1046.5 14.624 1044.42 16.736 1044.42 19.784ZM1059.93 26V13.592H1061.1L1061.22 15.992C1062.21 14.216 1063.93 13.28 1065.93 13.28C1069.17 13.28 1071.16 15.56 1071.16 19.136V26H1069.77V19.256C1069.77 16.4 1068.23 14.624 1065.76 14.624C1063.14 14.624 1061.32 16.616 1061.32 19.568V26H1059.93ZM1080.11 26.312C1076.97 26.312 1074.98 24.728 1074.88 22.256H1076.25C1076.39 24.008 1077.76 25.04 1080.14 25.04C1082.32 25.04 1083.64 24.2 1083.64 22.832C1083.64 21.536 1082.46 20.744 1079.82 20.288C1076.58 19.736 1075.12 18.584 1075.12 16.688C1075.12 14.576 1076.92 13.28 1079.82 13.28C1082.75 13.28 1084.6 14.672 1084.79 17.048H1083.4C1083.26 15.416 1081.98 14.528 1079.82 14.528C1077.76 14.528 1076.51 15.368 1076.51 16.712C1076.51 17.936 1077.54 18.608 1080.3 19.136C1083.45 19.736 1085.01 20.984 1085.01 22.856C1085.01 24.944 1083.11 26.312 1080.11 26.312Z" fill="black"/>
<path d="M543.016 169V161.128H533.176V169H531.712V152.2H533.176V159.736H543.016V152.2H544.48V169H543.016ZM554.916 169.312C551.148 169.312 548.58 166.648 548.58 162.784C548.58 158.944 551.172 156.28 554.94 156.28C558.852 156.28 561.372 159.16 561.276 163.36H549.996C550.236 166.168 552.156 167.992 554.916 167.992C556.932 167.992 558.54 167.056 559.356 165.448L560.916 165.472C559.956 167.848 557.7 169.312 554.916 169.312ZM549.996 162.136H559.908C559.572 159.328 557.652 157.6 554.94 157.6C552.18 157.6 550.236 159.4 549.996 162.136ZM572.898 169L568.434 156.592H569.922L573.594 166.912L575.346 162.4L577.578 156.592H578.874L581.13 162.4L582.882 166.912L586.578 156.592H588.042L583.554 169H582.21L580.074 163.456L578.226 158.632L574.242 169H572.898ZM594.282 169.192C591.402 169.192 589.602 167.776 589.602 165.496C589.602 163.288 591.282 161.896 593.826 161.896H599.298V161.008C599.298 158.944 597.786 157.576 595.482 157.576C593.61 157.576 592.146 158.536 591.642 160.024H590.226C590.826 157.72 592.818 156.28 595.458 156.28C598.554 156.28 600.69 158.176 600.69 160.936V169H599.538L599.394 166.864C598.314 168.352 596.49 169.192 594.282 169.192ZM590.994 165.472C590.994 166.984 592.266 167.944 594.33 167.944C597.21 167.944 599.322 166.144 599.322 163.648V163.12H593.874C592.17 163.12 590.994 164.056 590.994 165.472ZM609.642 169.312C606.498 169.312 604.506 167.728 604.41 165.256H605.778C605.922 167.008 607.29 168.04 609.666 168.04C611.85 168.04 613.17 167.2 613.17 165.832C613.17 164.536 611.994 163.744 609.354 163.288C606.114 162.736 604.65 161.584 604.65 159.688C604.65 157.576 606.45 156.28 609.354 156.28C612.282 156.28 614.13 157.672 614.322 160.048H612.93C612.786 158.416 611.514 157.528 609.354 157.528C607.29 157.528 606.042 158.368 606.042 159.712C606.042 160.936 607.074 161.608 609.834 162.136C612.978 162.736 614.538 163.984 614.538 165.856C614.538 167.944 612.642 169.312 609.642 169.312ZM629.251 169.312C626.059 169.312 624.091 167.032 624.091 163.456V156.592H625.483V163.336C625.483 166.168 626.995 167.968 629.443 167.968C632.011 167.968 633.787 165.952 633.787 163V156.592H635.179V169H634.027L633.883 166.576C632.923 168.376 631.195 169.312 629.251 169.312ZM644.4 169.312C641.256 169.312 639.264 167.728 639.168 165.256H640.536C640.68 167.008 642.048 168.04 644.424 168.04C646.608 168.04 647.928 167.2 647.928 165.832C647.928 164.536 646.752 163.744 644.112 163.288C640.872 162.736 639.408 161.584 639.408 159.688C639.408 157.576 641.208 156.28 644.112 156.28C647.04 156.28 648.888 157.672 649.08 160.048H647.688C647.544 158.416 646.272 157.528 644.112 157.528C642.048 157.528 640.8 158.368 640.8 159.712C640.8 160.936 641.832 161.608 644.592 162.136C647.736 162.736 649.296 163.984 649.296 165.856C649.296 167.944 647.4 169.312 644.4 169.312ZM658.58 169.312C654.812 169.312 652.244 166.648 652.244 162.784C652.244 158.944 654.836 156.28 658.604 156.28C662.516 156.28 665.036 159.16 664.94 163.36H653.66C653.9 166.168 655.82 167.992 658.58 167.992C660.596 167.992 662.204 167.056 663.02 165.448L664.58 165.472C663.62 167.848 661.364 169.312 658.58 169.312ZM653.66 162.136H663.572C663.236 159.328 661.316 157.6 658.604 157.6C655.844 157.6 653.9 159.4 653.66 162.136ZM674.025 169.312C670.281 169.312 667.665 166.552 667.665 162.784C667.665 159.016 670.281 156.28 674.025 156.28C676.305 156.28 678.153 157.288 679.257 158.896V151.24H680.649V169H679.497L679.329 166.552C678.249 168.256 676.353 169.312 674.025 169.312ZM669.057 162.784C669.057 165.832 671.145 167.968 674.193 167.968C677.217 167.968 679.305 165.832 679.305 162.784C679.305 159.76 677.217 157.624 674.193 157.624C671.145 157.624 669.057 159.76 669.057 162.784ZM696.356 169C693.716 169 692.3 167.512 692.3 164.704V157.864H689.588V156.592H691.172C692.108 156.592 692.372 156.352 692.468 155.44L692.588 153.544H693.692V156.592H697.988V157.864H693.692V164.656C693.692 166.696 694.532 167.656 696.404 167.656H698.156V169H696.356ZM706.725 169.312C702.885 169.312 700.197 166.624 700.197 162.784C700.197 158.968 702.885 156.28 706.725 156.28C710.541 156.28 713.229 158.968 713.229 162.784C713.229 166.624 710.541 169.312 706.725 169.312ZM701.589 162.784C701.589 165.856 703.677 167.968 706.725 167.968C709.749 167.968 711.837 165.856 711.837 162.784C711.837 159.736 709.749 157.624 706.725 157.624C703.677 157.624 701.589 159.736 701.589 162.784ZM727.735 169.312C724.543 169.312 722.575 167.032 722.575 163.456V156.592H723.967V163.336C723.967 166.168 725.479 167.968 727.927 167.968C730.495 167.968 732.271 165.952 732.271 163V156.592H733.663V169H732.511L732.367 166.576C731.407 168.376 729.679 169.312 727.735 169.312ZM742.885 169.312C739.741 169.312 737.749 167.728 737.653 165.256H739.021C739.165 167.008 740.533 168.04 742.909 168.04C745.093 168.04 746.413 167.2 746.413 165.832C746.413 164.536 745.237 163.744 742.597 163.288C739.357 162.736 737.893 161.584 737.893 159.688C737.893 157.576 739.693 156.28 742.597 156.28C745.525 156.28 747.373 157.672 747.565 160.048H746.173C746.029 158.416 744.757 157.528 742.597 157.528C740.533 157.528 739.285 158.368 739.285 159.712C739.285 160.936 740.317 161.608 743.077 162.136C746.221 162.736 747.781 163.984 747.781 165.856C747.781 167.944 745.885 169.312 742.885 169.312ZM751.808 169V156.592H753.2V169H751.808ZM751.232 153.064C751.232 152.368 751.736 151.816 752.504 151.816C753.272 151.816 753.776 152.368 753.776 153.064C753.776 153.784 753.272 154.336 752.504 154.336C751.736 154.336 751.232 153.784 751.232 153.064ZM758.136 169V156.592H759.312L759.432 158.992C760.416 157.216 762.144 156.28 764.136 156.28C767.376 156.28 769.368 158.56 769.368 162.136V169H767.976V162.256C767.976 159.4 766.44 157.624 763.968 157.624C761.352 157.624 759.528 159.616 759.528 162.568V169H758.136ZM779.498 174.112C776.45 174.112 774.194 172.504 773.714 169.984H775.13C775.538 171.712 777.218 172.792 779.498 172.792C782.354 172.792 784.178 171.112 784.178 168.448V166.432C783.074 167.944 781.298 168.856 779.186 168.856C775.562 168.856 772.97 166.216 772.97 162.568C772.97 158.92 775.562 156.28 779.186 156.28C781.37 156.28 783.17 157.24 784.274 158.824L784.394 156.592H785.57V168.496C785.57 171.832 783.122 174.112 779.498 174.112ZM774.362 162.568C774.362 165.472 776.402 167.488 779.33 167.488C782.234 167.488 784.274 165.472 784.274 162.568C784.274 159.664 782.234 157.624 779.33 157.624C776.402 157.624 774.362 159.664 774.362 162.568ZM800.813 169.192C797.933 169.192 796.133 167.776 796.133 165.496C796.133 163.288 797.813 161.896 800.357 161.896H805.829V161.008C805.829 158.944 804.317 157.576 802.013 157.576C800.141 157.576 798.677 158.536 798.173 160.024H796.757C797.357 157.72 799.349 156.28 801.989 156.28C805.085 156.28 807.221 158.176 807.221 160.936V169H806.069L805.925 166.864C804.845 168.352 803.021 169.192 800.813 169.192ZM797.525 165.472C797.525 166.984 798.797 167.944 800.861 167.944C803.741 167.944 805.853 166.144 805.853 163.648V163.12H800.405C798.701 163.12 797.525 164.056 797.525 165.472ZM823.017 169.312C819.297 169.312 816.681 166.6 816.681 162.784C816.681 158.968 819.297 156.28 823.017 156.28C825.969 156.28 828.393 158.032 829.113 160.72H827.697C826.881 158.752 825.153 157.624 823.017 157.624C820.089 157.624 818.073 159.736 818.073 162.784C818.073 165.856 820.089 167.968 823.017 167.968C825.297 167.968 827.073 166.696 827.769 164.656H829.233C828.393 167.56 826.065 169.312 823.017 169.312ZM836.743 169.192C833.863 169.192 832.063 167.776 832.063 165.496C832.063 163.288 833.743 161.896 836.287 161.896H841.759V161.008C841.759 158.944 840.247 157.576 837.943 157.576C836.071 157.576 834.607 158.536 834.103 160.024H832.687C833.287 157.72 835.279 156.28 837.919 156.28C841.015 156.28 843.151 158.176 843.151 160.936V169H841.999L841.855 166.864C840.775 168.352 838.951 169.192 836.743 169.192ZM833.455 165.472C833.455 166.984 834.727 167.944 836.791 167.944C839.671 167.944 841.783 166.144 841.783 163.648V163.12H836.335C834.631 163.12 833.455 164.056 833.455 165.472ZM847.831 169V151.24H849.223V169H847.831ZM859.416 169.312C855.648 169.312 853.08 166.648 853.08 162.784C853.08 158.944 855.672 156.28 859.44 156.28C863.352 156.28 865.872 159.16 865.776 163.36H854.496C854.736 166.168 856.656 167.992 859.416 167.992C861.432 167.992 863.04 167.056 863.856 165.448L865.416 165.472C864.456 167.848 862.2 169.312 859.416 169.312ZM854.496 162.136H864.408C864.072 159.328 862.152 157.6 859.44 157.6C856.68 157.6 854.736 159.4 854.496 162.136ZM869.581 169V156.592H870.757L870.877 158.992C871.861 157.216 873.589 156.28 875.581 156.28C878.821 156.28 880.813 158.56 880.813 162.136V169H879.421V162.256C879.421 159.4 877.885 157.624 875.413 157.624C872.797 157.624 870.973 159.616 870.973 162.568V169H869.581ZM890.775 169.312C887.031 169.312 884.415 166.552 884.415 162.784C884.415 159.016 887.031 156.28 890.775 156.28C893.055 156.28 894.903 157.288 896.007 158.896V151.24H897.399V169H896.247L896.079 166.552C894.999 168.256 893.103 169.312 890.775 169.312ZM885.807 162.784C885.807 165.832 887.895 167.968 890.943 167.968C893.967 167.968 896.055 165.832 896.055 162.784C896.055 159.76 893.967 157.624 890.943 157.624C887.895 157.624 885.807 159.76 885.807 162.784ZM906.235 169.192C903.355 169.192 901.555 167.776 901.555 165.496C901.555 163.288 903.235 161.896 905.779 161.896H911.251V161.008C911.251 158.944 909.739 157.576 907.435 157.576C905.563 157.576 904.099 158.536 903.595 160.024H902.179C902.779 157.72 904.771 156.28 907.411 156.28C910.507 156.28 912.643 158.176 912.643 160.936V169H911.491L911.347 166.864C910.267 168.352 908.443 169.192 906.235 169.192ZM902.947 165.472C902.947 166.984 904.219 167.944 906.283 167.944C909.163 167.944 911.275 166.144 911.275 163.648V163.12H905.827C904.123 163.12 902.947 164.056 902.947 165.472ZM917.324 169V156.592H918.5L918.644 159.376C919.484 157.504 920.9 156.592 923.204 156.592H924.236V157.888H923.156C920.492 157.888 918.716 159.52 918.716 163.288V169H917.324Z" fill="black"/>
<path d="M57.712 449V432.2H59.08L69.304 446.48V432.2H70.744V449H69.376L59.152 434.696V449H57.712ZM81.3653 449.312C77.5253 449.312 74.8373 446.624 74.8373 442.784C74.8373 438.968 77.5253 436.28 81.3653 436.28C85.1813 436.28 87.8693 438.968 87.8693 442.784C87.8693 446.624 85.1813 449.312 81.3653 449.312ZM76.2293 442.784C76.2293 445.856 78.3173 447.968 81.3653 447.968C84.3893 447.968 86.4773 445.856 86.4773 442.784C86.4773 439.736 84.3893 437.624 81.3653 437.624C78.3173 437.624 76.2293 439.736 76.2293 442.784ZM96.3792 449C93.7392 449 92.3232 447.512 92.3232 444.704V437.864H89.6112V436.592H91.1952C92.1312 436.592 92.3952 436.352 92.4912 435.44L92.6112 433.544H93.7152V436.592H98.0112V437.864H93.7152V444.656C93.7152 446.696 94.5552 447.656 96.4272 447.656H98.1792V449H96.3792ZM112.668 449C110.028 449 108.612 447.512 108.612 444.704V437.864H105.9V436.592H107.484C108.42 436.592 108.684 436.352 108.78 435.44L108.9 433.544H110.004V436.592H114.3V437.864H110.004V444.656C110.004 446.696 110.844 447.656 112.716 447.656H114.468V449H112.668ZM122.845 449.312C119.077 449.312 116.509 446.648 116.509 442.784C116.509 438.944 119.101 436.28 122.869 436.28C126.781 436.28 129.301 439.16 129.205 443.36H117.925C118.165 446.168 120.085 447.992 122.845 447.992C124.861 447.992 126.469 447.056 127.285 445.448L128.845 445.472C127.885 447.848 125.629 449.312 122.845 449.312ZM117.925 442.136H127.837C127.501 439.328 125.581 437.6 122.869 437.6C120.109 437.6 118.165 439.4 117.925 442.136ZM138.267 449.312C134.547 449.312 131.931 446.6 131.931 442.784C131.931 438.968 134.547 436.28 138.267 436.28C141.219 436.28 143.643 438.032 144.363 440.72H142.947C142.131 438.752 140.403 437.624 138.267 437.624C135.339 437.624 133.323 439.736 133.323 442.784C133.323 445.856 135.339 447.968 138.267 447.968C140.547 447.968 142.323 446.696 143.019 444.656H144.483C143.643 447.56 141.315 449.312 138.267 449.312ZM148.269 449V431.24H149.661V438.848C150.645 437.144 152.373 436.28 154.317 436.28C157.533 436.28 159.501 438.512 159.501 442.088V449H158.109V442.208C158.109 439.352 156.597 437.624 154.125 437.624C151.509 437.624 149.661 439.568 149.661 442.544V449H148.269ZM164.183 449V436.592H165.359L165.479 438.992C166.463 437.216 168.191 436.28 170.183 436.28C173.423 436.28 175.415 438.56 175.415 442.136V449H174.023V442.256C174.023 439.4 172.487 437.624 170.015 437.624C167.399 437.624 165.575 439.616 165.575 442.568V449H164.183ZM185.545 449.312C181.705 449.312 179.017 446.624 179.017 442.784C179.017 438.968 181.705 436.28 185.545 436.28C189.361 436.28 192.049 438.968 192.049 442.784C192.049 446.624 189.361 449.312 185.545 449.312ZM180.409 442.784C180.409 445.856 182.497 447.968 185.545 447.968C188.569 447.968 190.657 445.856 190.657 442.784C190.657 439.736 188.569 437.624 185.545 437.624C182.497 437.624 180.409 439.736 180.409 442.784ZM195.917 449V431.24H197.309V449H195.917ZM207.693 449.312C203.853 449.312 201.165 446.624 201.165 442.784C201.165 438.968 203.853 436.28 207.693 436.28C211.509 436.28 214.197 438.968 214.197 442.784C214.197 446.624 211.509 449.312 207.693 449.312ZM202.557 442.784C202.557 445.856 204.645 447.968 207.693 447.968C210.717 447.968 212.805 445.856 212.805 442.784C212.805 439.736 210.717 437.624 207.693 437.624C204.645 437.624 202.557 439.736 202.557 442.784ZM223.514 454.112C220.466 454.112 218.21 452.504 217.73 449.984H219.146C219.554 451.712 221.234 452.792 223.514 452.792C226.37 452.792 228.194 451.112 228.194 448.448V446.432C227.09 447.944 225.314 448.856 223.202 448.856C219.578 448.856 216.986 446.216 216.986 442.568C216.986 438.92 219.578 436.28 223.202 436.28C225.386 436.28 227.186 437.24 228.29 438.824L228.41 436.592H229.586V448.496C229.586 451.832 227.138 454.112 223.514 454.112ZM218.378 442.568C218.378 445.472 220.418 447.488 223.346 447.488C226.25 447.488 228.29 445.472 228.29 442.568C228.29 439.664 226.25 437.624 223.346 437.624C220.418 437.624 218.378 439.664 218.378 442.568ZM234.519 449V436.592H235.911V449H234.519ZM233.943 433.064C233.943 432.368 234.447 431.816 235.215 431.816C235.983 431.816 236.487 432.368 236.487 433.064C236.487 433.784 235.983 434.336 235.215 434.336C234.447 434.336 233.943 433.784 233.943 433.064ZM246.103 449.312C242.383 449.312 239.767 446.6 239.767 442.784C239.767 438.968 242.383 436.28 246.103 436.28C249.055 436.28 251.479 438.032 252.199 440.72H250.783C249.967 438.752 248.239 437.624 246.103 437.624C243.175 437.624 241.159 439.736 241.159 442.784C241.159 445.856 243.175 447.968 246.103 447.968C248.383 447.968 250.159 446.696 250.855 444.656H252.319C251.479 447.56 249.151 449.312 246.103 449.312ZM259.829 449.192C256.949 449.192 255.149 447.776 255.149 445.496C255.149 443.288 256.829 441.896 259.373 441.896H264.845V441.008C264.845 438.944 263.333 437.576 261.029 437.576C259.157 437.576 257.693 438.536 257.189 440.024H255.773C256.373 437.72 258.365 436.28 261.005 436.28C264.101 436.28 266.237 438.176 266.237 440.936V449H265.085L264.941 446.864C263.861 448.352 262.037 449.192 259.829 449.192ZM256.541 445.472C256.541 446.984 257.813 447.944 259.877 447.944C262.757 447.944 264.869 446.144 264.869 443.648V443.12H259.421C257.717 443.12 256.541 444.056 256.541 445.472ZM270.917 449V431.24H272.309V449H270.917ZM277.245 449V431.24H278.637V449H277.245ZM282.806 453.8V452.48H283.838C285.59 452.48 286.142 452.12 286.79 450.56L287.486 448.808L281.582 436.592H283.142L286.07 442.712L288.206 447.128L289.982 442.712L292.502 436.592H293.966L288.038 451.088C287.174 453.248 286.214 453.8 283.982 453.8H282.806ZM302.792 449V436.592H304.184V449H302.792ZM302.216 433.064C302.216 432.368 302.72 431.816 303.488 431.816C304.256 431.816 304.76 432.368 304.76 433.064C304.76 433.784 304.256 434.336 303.488 434.336C302.72 434.336 302.216 433.784 302.216 433.064ZM309.12 449V436.592H310.296L310.416 438.992C311.4 437.216 313.128 436.28 315.12 436.28C318.36 436.28 320.352 438.56 320.352 442.136V449H318.96V442.256C318.96 439.4 317.424 437.624 314.952 437.624C312.336 437.624 310.512 439.616 310.512 442.568V449H309.12ZM330.291 449.312C326.571 449.312 323.955 446.6 323.955 442.784C323.955 438.968 326.571 436.28 330.291 436.28C333.243 436.28 335.667 438.032 336.387 440.72H334.971C334.155 438.752 332.427 437.624 330.291 437.624C327.363 437.624 325.347 439.736 325.347 442.784C325.347 445.856 327.363 447.968 330.291 447.968C332.571 447.968 334.347 446.696 335.043 444.656H336.507C335.667 447.56 333.339 449.312 330.291 449.312ZM340.292 449V431.24H341.684V449H340.292ZM346.62 449V436.592H348.012V449H346.62ZM346.044 433.064C346.044 432.368 346.548 431.816 347.316 431.816C348.084 431.816 348.588 432.368 348.588 433.064C348.588 433.784 348.084 434.336 347.316 434.336C346.548 434.336 346.044 433.784 346.044 433.064ZM352.949 449V436.592H354.125L354.245 438.992C355.229 437.216 356.957 436.28 358.949 436.28C362.189 436.28 364.181 438.56 364.181 442.136V449H362.789V442.256C362.789 439.4 361.253 437.624 358.781 437.624C356.165 437.624 354.341 439.616 354.341 442.568V449H352.949ZM374.119 449.312C370.351 449.312 367.783 446.648 367.783 442.784C367.783 438.944 370.375 436.28 374.143 436.28C378.055 436.28 380.575 439.16 380.479 443.36H369.199C369.439 446.168 371.359 447.992 374.119 447.992C376.135 447.992 377.743 447.056 378.559 445.448L380.119 445.472C379.159 447.848 376.903 449.312 374.119 449.312ZM369.199 442.136H379.111C378.775 439.328 376.855 437.6 374.143 437.6C371.383 437.6 369.439 439.4 369.199 442.136ZM389.565 449.312C385.821 449.312 383.205 446.552 383.205 442.784C383.205 439.016 385.821 436.28 389.565 436.28C391.845 436.28 393.693 437.288 394.797 438.896V431.24H396.189V449H395.036L394.869 446.552C393.789 448.256 391.893 449.312 389.565 449.312ZM384.597 442.784C384.597 445.832 386.685 447.968 389.733 447.968C392.757 447.968 394.845 445.832 394.845 442.784C394.845 439.76 392.757 437.624 389.733 437.624C386.685 437.624 384.597 439.76 384.597 442.784Z" fill="black"/>
<path d="M645.712 284V267.2H647.08L654.064 277.712L661.048 267.2H662.392V284H660.952V269.888L654.664 279.32H653.464L647.176 269.888V284H645.712ZM673.022 284.312C669.182 284.312 666.494 281.624 666.494 277.784C666.494 273.968 669.182 271.28 673.022 271.28C676.838 271.28 679.526 273.968 679.526 277.784C679.526 281.624 676.838 284.312 673.022 284.312ZM667.886 277.784C667.886 280.856 669.974 282.968 673.022 282.968C676.046 282.968 678.134 280.856 678.134 277.784C678.134 274.736 676.046 272.624 673.022 272.624C669.974 272.624 667.886 274.736 667.886 277.784ZM687.666 284.312C684.522 284.312 682.53 282.728 682.434 280.256H683.802C683.946 282.008 685.314 283.04 687.69 283.04C689.874 283.04 691.194 282.2 691.194 280.832C691.194 279.536 690.018 278.744 687.378 278.288C684.138 277.736 682.674 276.584 682.674 274.688C682.674 272.576 684.474 271.28 687.378 271.28C690.306 271.28 692.154 272.672 692.346 275.048H690.954C690.81 273.416 689.538 272.528 687.378 272.528C685.314 272.528 684.066 273.368 684.066 274.712C684.066 275.936 685.098 276.608 687.858 277.136C691.002 277.736 692.562 278.984 692.562 280.856C692.562 282.944 690.666 284.312 687.666 284.312ZM701.278 284C698.638 284 697.222 282.512 697.222 279.704V272.864H694.51V271.592H696.094C697.03 271.592 697.294 271.352 697.39 270.44L697.51 268.544H698.614V271.592H702.91V272.864H698.614V279.656C698.614 281.696 699.454 282.656 701.326 282.656H703.078V284H701.278ZM706.808 284V266.24H708.2V284H706.808ZM712.368 288.8V287.48H713.4C715.152 287.48 715.704 287.12 716.352 285.56L717.048 283.808L711.144 271.592H712.704L715.632 277.712L717.768 282.128L719.544 277.712L722.064 271.592H723.528L717.6 286.088C716.736 288.248 715.776 288.8 713.544 288.8H712.368ZM737.134 284.312C733.942 284.312 731.974 282.032 731.974 278.456V271.592H733.366V278.336C733.366 281.168 734.878 282.968 737.326 282.968C739.894 282.968 741.67 280.952 741.67 278V271.592H743.062V284H741.91L741.766 281.576C740.806 283.376 739.078 284.312 737.134 284.312ZM752.283 284.312C749.139 284.312 747.147 282.728 747.051 280.256H748.419C748.563 282.008 749.931 283.04 752.307 283.04C754.491 283.04 755.811 282.2 755.811 280.832C755.811 279.536 754.635 278.744 751.995 278.288C748.755 277.736 747.291 276.584 747.291 274.688C747.291 272.576 749.091 271.28 751.995 271.28C754.923 271.28 756.771 272.672 756.963 275.048H755.571C755.427 273.416 754.155 272.528 751.995 272.528C749.931 272.528 748.683 273.368 748.683 274.712C748.683 275.936 749.715 276.608 752.475 277.136C755.619 277.736 757.179 278.984 757.179 280.856C757.179 282.944 755.283 284.312 752.283 284.312ZM766.462 284.312C762.694 284.312 760.126 281.648 760.126 277.784C760.126 273.944 762.718 271.28 766.486 271.28C770.398 271.28 772.918 274.16 772.822 278.36H761.542C761.782 281.168 763.702 282.992 766.462 282.992C768.478 282.992 770.086 282.056 770.902 280.448L772.462 280.472C771.502 282.848 769.246 284.312 766.462 284.312ZM761.542 277.136H771.454C771.118 274.328 769.198 272.6 766.486 272.6C763.726 272.6 761.782 274.4 761.542 277.136ZM781.908 284.312C778.164 284.312 775.548 281.552 775.548 277.784C775.548 274.016 778.164 271.28 781.908 271.28C784.188 271.28 786.036 272.288 787.14 273.896V266.24H788.532V284H787.38L787.212 281.552C786.132 283.256 784.236 284.312 781.908 284.312ZM776.94 277.784C776.94 280.832 779.028 282.968 782.076 282.968C785.1 282.968 787.188 280.832 787.188 277.784C787.188 274.76 785.1 272.624 782.076 272.624C779.028 272.624 776.94 274.76 776.94 277.784ZM799.902 284V266.24H801.294V273.848C802.278 272.144 804.006 271.28 805.95 271.28C809.166 271.28 811.134 273.512 811.134 277.088V284H809.742V277.208C809.742 274.352 808.23 272.624 805.758 272.624C803.142 272.624 801.294 274.568 801.294 277.544V284H799.902ZM815.816 284V271.592H817.208V284H815.816ZM815.24 268.064C815.24 267.368 815.744 266.816 816.512 266.816C817.28 266.816 817.784 267.368 817.784 268.064C817.784 268.784 817.28 269.336 816.512 269.336C815.744 269.336 815.24 268.784 815.24 268.064ZM826.416 284.312C823.272 284.312 821.28 282.728 821.184 280.256H822.552C822.696 282.008 824.064 283.04 826.44 283.04C828.624 283.04 829.944 282.2 829.944 280.832C829.944 279.536 828.768 278.744 826.128 278.288C822.888 277.736 821.424 276.584 821.424 274.688C821.424 272.576 823.224 271.28 826.128 271.28C829.056 271.28 830.904 272.672 831.096 275.048H829.704C829.56 273.416 828.288 272.528 826.128 272.528C824.064 272.528 822.816 273.368 822.816 274.712C822.816 275.936 823.848 276.608 826.608 277.136C829.752 277.736 831.312 278.984 831.312 280.856C831.312 282.944 829.416 284.312 826.416 284.312ZM841.245 284V271.592H842.637V284H841.245ZM840.669 268.064C840.669 267.368 841.173 266.816 841.941 266.816C842.709 266.816 843.213 267.368 843.213 268.064C843.213 268.784 842.709 269.336 841.941 269.336C841.173 269.336 840.669 268.784 840.669 268.064ZM847.814 284V267.2H853.142C857.03 267.2 859.334 269.24 859.334 272.72C859.334 276.2 857.03 278.24 853.142 278.24H849.278V284H847.814ZM849.278 276.896H853.118C856.262 276.896 857.87 275.48 857.87 272.744C857.87 270.008 856.262 268.592 853.118 268.592H849.278V276.896ZM862.925 284V266.24H864.317V273.848C865.301 272.144 867.029 271.28 868.973 271.28C872.189 271.28 874.157 273.512 874.157 277.088V284H872.765V277.208C872.765 274.352 871.253 272.624 868.781 272.624C866.165 272.624 864.317 274.568 864.317 277.544V284H862.925ZM884.287 284.312C880.447 284.312 877.759 281.624 877.759 277.784C877.759 273.968 880.447 271.28 884.287 271.28C888.103 271.28 890.791 273.968 890.791 277.784C890.791 281.624 888.103 284.312 884.287 284.312ZM879.151 277.784C879.151 280.856 881.239 282.968 884.287 282.968C887.311 282.968 889.399 280.856 889.399 277.784C889.399 274.736 887.311 272.624 884.287 272.624C881.239 272.624 879.151 274.736 879.151 277.784ZM894.66 284V271.592H895.836L895.956 273.992C896.94 272.216 898.668 271.28 900.66 271.28C903.9 271.28 905.892 273.56 905.892 277.136V284H904.5V277.256C904.5 274.4 902.964 272.624 900.492 272.624C897.876 272.624 896.052 274.616 896.052 277.568V284H894.66ZM915.83 284.312C912.062 284.312 909.494 281.648 909.494 277.784C909.494 273.944 912.086 271.28 915.854 271.28C919.766 271.28 922.286 274.16 922.19 278.36H910.91C911.15 281.168 913.07 282.992 915.83 282.992C917.846 282.992 919.454 282.056 920.27 280.448L921.83 280.472C920.87 282.848 918.614 284.312 915.83 284.312ZM910.91 277.136H920.822C920.486 274.328 918.566 272.6 915.854 272.6C913.094 272.6 911.15 274.4 910.91 277.136Z" fill="black"/>
<path d="M821.016 396V388.128H811.176V396H809.712V379.2H811.176V386.736H821.016V379.2H822.48V396H821.016ZM832.916 396.312C829.148 396.312 826.58 393.648 826.58 389.784C826.58 385.944 829.172 383.28 832.94 383.28C836.852 383.28 839.372 386.16 839.276 390.36H827.996C828.236 393.168 830.156 394.992 832.916 394.992C834.932 394.992 836.54 394.056 837.356 392.448L838.916 392.472C837.956 394.848 835.7 396.312 832.916 396.312ZM827.996 389.136H837.908C837.572 386.328 835.652 384.6 832.94 384.6C830.18 384.6 828.236 386.4 827.996 389.136ZM853.72 396.312C850.528 396.312 848.56 394.032 848.56 390.456V383.592H849.952V390.336C849.952 393.168 851.464 394.968 853.912 394.968C856.48 394.968 858.256 392.952 858.256 390V383.592H859.648V396H858.496L858.352 393.576C857.392 395.376 855.664 396.312 853.72 396.312ZM868.869 396.312C865.725 396.312 863.733 394.728 863.637 392.256H865.005C865.149 394.008 866.517 395.04 868.893 395.04C871.077 395.04 872.397 394.2 872.397 392.832C872.397 391.536 871.221 390.744 868.581 390.288C865.341 389.736 863.877 388.584 863.877 386.688C863.877 384.576 865.677 383.28 868.581 383.28C871.509 383.28 873.357 384.672 873.549 387.048H872.157C872.013 385.416 870.741 384.528 868.581 384.528C866.517 384.528 865.269 385.368 865.269 386.712C865.269 387.936 866.301 388.608 869.061 389.136C872.205 389.736 873.765 390.984 873.765 392.856C873.765 394.944 871.869 396.312 868.869 396.312ZM883.048 396.312C879.28 396.312 876.712 393.648 876.712 389.784C876.712 385.944 879.304 383.28 883.072 383.28C886.984 383.28 889.504 386.16 889.408 390.36H878.128C878.368 393.168 880.288 394.992 883.048 394.992C885.064 394.992 886.672 394.056 887.488 392.448L889.048 392.472C888.088 394.848 885.832 396.312 883.048 396.312ZM878.128 389.136H888.04C887.704 386.328 885.784 384.6 883.072 384.6C880.312 384.6 878.368 386.4 878.128 389.136ZM897.486 396.312C894.342 396.312 892.35 394.728 892.254 392.256H893.622C893.766 394.008 895.134 395.04 897.51 395.04C899.694 395.04 901.014 394.2 901.014 392.832C901.014 391.536 899.838 390.744 897.198 390.288C893.958 389.736 892.494 388.584 892.494 386.688C892.494 384.576 894.294 383.28 897.198 383.28C900.126 383.28 901.974 384.672 902.166 387.048H900.774C900.63 385.416 899.358 384.528 897.198 384.528C895.134 384.528 893.886 385.368 893.886 386.712C893.886 387.936 894.918 388.608 897.678 389.136C900.822 389.736 902.382 390.984 902.382 392.856C902.382 394.944 900.486 396.312 897.486 396.312ZM912.316 396V378.24H913.708V396H912.316ZM918.644 396V383.592H920.036V396H918.644ZM918.068 380.064C918.068 379.368 918.572 378.816 919.34 378.816C920.108 378.816 920.612 379.368 920.612 380.064C920.612 380.784 920.108 381.336 919.34 381.336C918.572 381.336 918.068 380.784 918.068 380.064ZM929.244 396.312C926.1 396.312 924.108 394.728 924.012 392.256H925.38C925.524 394.008 926.892 395.04 929.268 395.04C931.452 395.04 932.772 394.2 932.772 392.832C932.772 391.536 931.596 390.744 928.956 390.288C925.716 389.736 924.252 388.584 924.252 386.688C924.252 384.576 926.052 383.28 928.956 383.28C931.884 383.28 933.732 384.672 933.924 387.048H932.532C932.388 385.416 931.116 384.528 928.956 384.528C926.892 384.528 925.644 385.368 925.644 386.712C925.644 387.936 926.676 388.608 929.436 389.136C932.58 389.736 934.14 390.984 934.14 392.856C934.14 394.944 932.244 396.312 929.244 396.312ZM942.856 396C940.216 396 938.8 394.512 938.8 391.704V384.864H936.088V383.592H937.672C938.608 383.592 938.872 383.352 938.968 382.44L939.088 380.544H940.192V383.592H944.488V384.864H940.192V391.656C940.192 393.696 941.032 394.656 942.904 394.656H944.656V396H942.856ZM952.424 396.312C949.28 396.312 947.288 394.728 947.192 392.256H948.56C948.704 394.008 950.072 395.04 952.448 395.04C954.632 395.04 955.952 394.2 955.952 392.832C955.952 391.536 954.776 390.744 952.136 390.288C948.896 389.736 947.432 388.584 947.432 386.688C947.432 384.576 949.232 383.28 952.136 383.28C955.064 383.28 956.912 384.672 957.104 387.048H955.712C955.568 385.416 954.296 384.528 952.136 384.528C950.072 384.528 948.824 385.368 948.824 386.712C948.824 387.936 949.856 388.608 952.616 389.136C955.76 389.736 957.32 390.984 957.32 392.856C957.32 394.944 955.424 396.312 952.424 396.312ZM971.141 396.192C968.261 396.192 966.461 394.776 966.461 392.496C966.461 390.288 968.141 388.896 970.685 388.896H976.157V388.008C976.157 385.944 974.645 384.576 972.341 384.576C970.469 384.576 969.005 385.536 968.501 387.024H967.085C967.685 384.72 969.677 383.28 972.317 383.28C975.413 383.28 977.549 385.176 977.549 387.936V396H976.397L976.253 393.864C975.173 395.352 973.349 396.192 971.141 396.192ZM967.853 392.472C967.853 393.984 969.125 394.944 971.189 394.944C974.069 394.944 976.181 393.144 976.181 390.648V390.12H970.733C969.029 390.12 967.853 391.056 967.853 392.472ZM982.23 396V383.592H983.406L983.526 385.992C984.51 384.216 986.238 383.28 988.23 383.28C991.47 383.28 993.462 385.56 993.462 389.136V396H992.07V389.256C992.07 386.4 990.534 384.624 988.062 384.624C985.446 384.624 983.622 386.616 983.622 389.568V396H982.23ZM1003.42 396.312C999.68 396.312 997.064 393.552 997.064 389.784C997.064 386.016 999.68 383.28 1003.42 383.28C1005.7 383.28 1007.55 384.288 1008.66 385.896V378.24H1010.05V396H1008.9L1008.73 393.552C1007.65 395.256 1005.75 396.312 1003.42 396.312ZM998.456 389.784C998.456 392.832 1000.54 394.968 1003.59 394.968C1006.62 394.968 1008.7 392.832 1008.7 389.784C1008.7 386.76 1006.62 384.624 1003.59 384.624C1000.54 384.624 998.456 386.76 998.456 389.784ZM1021.42 396V383.592H1022.59L1022.74 386.376C1023.58 384.504 1024.99 383.592 1027.3 383.592H1028.33V384.888H1027.25C1024.59 384.888 1022.81 386.52 1022.81 390.288V396H1021.42ZM1036.12 396.312C1032.35 396.312 1029.78 393.648 1029.78 389.784C1029.78 385.944 1032.37 383.28 1036.14 383.28C1040.05 383.28 1042.57 386.16 1042.48 390.36H1031.2C1031.44 393.168 1033.36 394.992 1036.12 394.992C1038.13 394.992 1039.74 394.056 1040.56 392.448L1042.12 392.472C1041.16 394.848 1038.9 396.312 1036.12 396.312ZM1031.2 389.136H1041.11C1040.77 386.328 1038.85 384.6 1036.14 384.6C1033.38 384.6 1031.44 386.4 1031.2 389.136ZM1046.28 396V383.592H1047.46L1047.58 385.608C1048.44 384.096 1049.96 383.28 1051.88 383.28C1054.04 383.28 1055.69 384.36 1056.41 386.256C1057.25 384.36 1058.96 383.28 1061.14 383.28C1064.26 383.28 1066.28 385.416 1066.28 388.872V396H1064.88V389.088C1064.88 386.328 1063.35 384.624 1060.97 384.624C1058.55 384.624 1056.96 386.376 1056.96 389.184V396H1055.57V389.088C1055.57 386.328 1054.06 384.624 1051.68 384.624C1049.26 384.624 1047.68 386.376 1047.68 389.184V396H1046.28ZM1070.94 396V383.592H1072.33V396H1070.94ZM1070.36 380.064C1070.36 379.368 1070.87 378.816 1071.64 378.816C1072.4 378.816 1072.91 379.368 1072.91 380.064C1072.91 380.784 1072.4 381.336 1071.64 381.336C1070.87 381.336 1070.36 380.784 1070.36 380.064ZM1077.27 396V383.592H1078.44L1078.56 385.992C1079.55 384.216 1081.28 383.28 1083.27 383.28C1086.51 383.28 1088.5 385.56 1088.5 389.136V396H1087.11V389.256C1087.11 386.4 1085.57 384.624 1083.1 384.624C1080.48 384.624 1078.66 386.616 1078.66 389.568V396H1077.27ZM1098.46 396.312C1094.72 396.312 1092.1 393.552 1092.1 389.784C1092.1 386.016 1094.72 383.28 1098.46 383.28C1100.74 383.28 1102.59 384.288 1103.69 385.896V378.24H1105.09V396H1103.93L1103.77 393.552C1102.69 395.256 1100.79 396.312 1098.46 396.312ZM1093.49 389.784C1093.49 392.832 1095.58 394.968 1098.63 394.968C1101.65 394.968 1103.74 392.832 1103.74 389.784C1103.74 386.76 1101.65 384.624 1098.63 384.624C1095.58 384.624 1093.49 386.76 1093.49 389.784ZM1115.29 396.312C1111.52 396.312 1108.95 393.648 1108.95 389.784C1108.95 385.944 1111.55 383.28 1115.31 383.28C1119.23 383.28 1121.75 386.16 1121.65 390.36H1110.37C1110.61 393.168 1112.53 394.992 1115.29 394.992C1117.31 394.992 1118.91 394.056 1119.73 392.448L1121.29 392.472C1120.33 394.848 1118.07 396.312 1115.29 396.312ZM1110.37 389.136H1120.28C1119.95 386.328 1118.03 384.6 1115.31 384.6C1112.55 384.6 1110.61 386.4 1110.37 389.136ZM1125.46 396V383.592H1126.63L1126.78 386.376C1127.62 384.504 1129.03 383.592 1131.34 383.592H1132.37V384.888H1131.29C1128.62 384.888 1126.85 386.52 1126.85 390.288V396H1125.46ZM1145.77 396.192C1142.89 396.192 1141.09 394.776 1141.09 392.496C1141.09 390.288 1142.77 388.896 1145.32 388.896H1150.79V388.008C1150.79 385.944 1149.28 384.576 1146.97 384.576C1145.1 384.576 1143.64 385.536 1143.13 387.024H1141.72C1142.32 384.72 1144.31 383.28 1146.95 383.28C1150.05 383.28 1152.18 385.176 1152.18 387.936V396H1151.03L1150.89 393.864C1149.81 395.352 1147.98 396.192 1145.77 396.192ZM1142.49 392.472C1142.49 393.984 1143.76 394.944 1145.82 394.944C1148.7 394.944 1150.81 393.144 1150.81 390.648V390.12H1145.37C1143.66 390.12 1142.49 391.056 1142.49 392.472ZM1163.49 396.312C1161.21 396.312 1159.36 395.28 1158.25 393.648V400.8H1156.86V383.592H1158.04L1158.18 386.064C1159.26 384.336 1161.16 383.28 1163.49 383.28C1167.25 383.28 1169.85 386.016 1169.85 389.784C1169.85 393.552 1167.25 396.312 1163.49 396.312ZM1158.21 389.784C1158.21 392.832 1160.29 394.968 1163.34 394.968C1166.39 394.968 1168.45 392.832 1168.45 389.784C1168.45 386.76 1166.39 384.624 1163.34 384.624C1160.29 384.624 1158.21 386.76 1158.21 389.784ZM1180.34 396.312C1178.06 396.312 1176.21 395.28 1175.11 393.648V400.8H1173.71V383.592H1174.89L1175.03 386.064C1176.11 384.336 1178.01 383.28 1180.34 383.28C1184.11 383.28 1186.7 386.016 1186.7 389.784C1186.7 393.552 1184.11 396.312 1180.34 396.312ZM1175.06 389.784C1175.06 392.832 1177.15 394.968 1180.19 394.968C1183.24 394.968 1185.31 392.832 1185.31 389.784C1185.31 386.76 1183.24 384.624 1180.19 384.624C1177.15 384.624 1175.06 386.76 1175.06 389.784ZM1194.84 396.312C1191.69 396.312 1189.7 394.728 1189.61 392.256H1190.97C1191.12 394.008 1192.49 395.04 1194.86 395.04C1197.05 395.04 1198.37 394.2 1198.37 392.832C1198.37 391.536 1197.19 390.744 1194.55 390.288C1191.31 389.736 1189.85 388.584 1189.85 386.688C1189.85 384.576 1191.65 383.28 1194.55 383.28C1197.48 383.28 1199.33 384.672 1199.52 387.048H1198.13C1197.98 385.416 1196.71 384.528 1194.55 384.528C1192.49 384.528 1191.24 385.368 1191.24 386.712C1191.24 387.936 1192.27 388.608 1195.03 389.136C1198.17 389.736 1199.73 390.984 1199.73 392.856C1199.73 394.944 1197.84 396.312 1194.84 396.312ZM1214 396C1211.36 396 1209.95 394.512 1209.95 391.704V384.864H1207.24V383.592H1208.82C1209.76 383.592 1210.02 383.352 1210.12 382.44L1210.24 380.544H1211.34V383.592H1215.64V384.864H1211.34V391.656C1211.34 393.696 1212.18 394.656 1214.05 394.656H1215.8V396H1214ZM1224.37 396.312C1220.53 396.312 1217.85 393.624 1217.85 389.784C1217.85 385.968 1220.53 383.28 1224.37 383.28C1228.19 383.28 1230.88 385.968 1230.88 389.784C1230.88 393.624 1228.19 396.312 1224.37 396.312ZM1219.24 389.784C1219.24 392.856 1221.33 394.968 1224.37 394.968C1227.4 394.968 1229.49 392.856 1229.49 389.784C1229.49 386.736 1227.4 384.624 1224.37 384.624C1221.33 384.624 1219.24 386.736 1219.24 389.784ZM814.92 431.312C811.08 431.312 808.392 428.624 808.392 424.784C808.392 420.968 811.08 418.28 814.92 418.28C818.736 418.28 821.424 420.968 821.424 424.784C821.424 428.624 818.736 431.312 814.92 431.312ZM809.784 424.784C809.784 427.856 811.872 429.968 814.92 429.968C817.944 429.968 820.032 427.856 820.032 424.784C820.032 421.736 817.944 419.624 814.92 419.624C811.872 419.624 809.784 421.736 809.784 424.784ZM825.292 431V418.592H826.468L826.612 421.376C827.452 419.504 828.868 418.592 831.172 418.592H832.204V419.888H831.124C828.46 419.888 826.684 421.52 826.684 425.288V431H825.292ZM840.186 436.112C837.138 436.112 834.882 434.504 834.402 431.984H835.818C836.226 433.712 837.906 434.792 840.186 434.792C843.042 434.792 844.866 433.112 844.866 430.448V428.432C843.762 429.944 841.986 430.856 839.874 430.856C836.25 430.856 833.658 428.216 833.658 424.568C833.658 420.92 836.25 418.28 839.874 418.28C842.058 418.28 843.858 419.24 844.962 420.824L845.082 418.592H846.258V430.496C846.258 433.832 843.81 436.112 840.186 436.112ZM835.05 424.568C835.05 427.472 837.09 429.488 840.018 429.488C842.922 429.488 844.962 427.472 844.962 424.568C844.962 421.664 842.922 419.624 840.018 419.624C837.09 419.624 835.05 421.664 835.05 424.568ZM855.079 431.192C852.199 431.192 850.399 429.776 850.399 427.496C850.399 425.288 852.079 423.896 854.623 423.896H860.095V423.008C860.095 420.944 858.583 419.576 856.279 419.576C854.407 419.576 852.943 420.536 852.439 422.024H851.023C851.623 419.72 853.615 418.28 856.255 418.28C859.351 418.28 861.487 420.176 861.487 422.936V431H860.335L860.191 428.864C859.111 430.352 857.287 431.192 855.079 431.192ZM851.791 427.472C851.791 428.984 853.063 429.944 855.127 429.944C858.007 429.944 860.119 428.144 860.119 425.648V425.12H854.671C852.967 425.12 851.791 426.056 851.791 427.472ZM866.167 431V418.592H867.343L867.463 420.992C868.447 419.216 870.175 418.28 872.167 418.28C875.407 418.28 877.399 420.56 877.399 424.136V431H876.007V424.256C876.007 421.4 874.471 419.624 871.999 419.624C869.383 419.624 867.559 421.616 867.559 424.568V431H866.167ZM882.081 431V418.592H883.473V431H882.081ZM881.505 415.064C881.505 414.368 882.009 413.816 882.777 413.816C883.545 413.816 884.049 414.368 884.049 415.064C884.049 415.784 883.545 416.336 882.777 416.336C882.009 416.336 881.505 415.784 881.505 415.064ZM887.21 431V429.92L895.274 419.864H887.498V418.592H897.146V419.648L889.13 429.704H897.314V431H887.21ZM905.923 431.312C902.155 431.312 899.587 428.648 899.587 424.784C899.587 420.944 902.179 418.28 905.947 418.28C909.859 418.28 912.379 421.16 912.283 425.36H901.003C901.243 428.168 903.163 429.992 905.923 429.992C907.939 429.992 909.547 429.056 910.363 427.448L911.923 427.472C910.963 429.848 908.707 431.312 905.923 431.312ZM901.003 424.136H910.915C910.579 421.328 908.659 419.6 905.947 419.6C903.187 419.6 901.243 421.4 901.003 424.136ZM923.906 431L919.442 418.592H920.93L924.602 428.912L926.354 424.4L928.586 418.592H929.882L932.138 424.4L933.89 428.912L937.586 418.592H939.05L934.562 431H933.218L931.082 425.456L929.234 420.632L925.25 431H923.906ZM946.845 431.312C943.077 431.312 940.509 428.648 940.509 424.784C940.509 420.944 943.101 418.28 946.869 418.28C950.781 418.28 953.301 421.16 953.205 425.36H941.925C942.165 428.168 944.085 429.992 946.845 429.992C948.861 429.992 950.469 429.056 951.285 427.448L952.845 427.472C951.885 429.848 949.629 431.312 946.845 431.312ZM941.925 424.136H951.837C951.501 421.328 949.581 419.6 946.869 419.6C944.109 419.6 942.165 421.4 941.925 424.136ZM962.267 431.312C958.499 431.312 955.931 428.648 955.931 424.784C955.931 420.944 958.523 418.28 962.291 418.28C966.203 418.28 968.723 421.16 968.627 425.36H957.347C957.587 428.168 959.507 429.992 962.267 429.992C964.283 429.992 965.891 429.056 966.707 427.448L968.267 427.472C967.307 429.848 965.051 431.312 962.267 431.312ZM957.347 424.136H967.259C966.923 421.328 965.003 419.6 962.291 419.6C959.531 419.6 957.587 421.4 957.347 424.136ZM972.433 431V413.24H973.825V424.04H975.649C977.953 424.04 978.961 423.44 979.753 421.352L980.809 418.592H982.297L981.049 421.88C980.497 423.272 979.849 424.16 978.865 424.688L982.897 431H981.241L977.569 425.168C976.993 425.288 976.345 425.336 975.601 425.336H973.825V431H972.433ZM986.331 431V413.24H987.723V431H986.331ZM991.892 435.8V434.48H992.924C994.676 434.48 995.228 434.12 995.876 432.56L996.572 430.808L990.668 418.592H992.228L995.156 424.712L997.292 429.128L999.068 424.712L1001.59 418.592H1003.05L997.124 433.088C996.26 435.248 995.3 435.8 993.068 435.8H991.892ZM1016.22 431C1013.58 431 1012.16 429.512 1012.16 426.704V419.864H1009.45V418.592H1011.03C1011.97 418.592 1012.23 418.352 1012.33 417.44L1012.45 415.544H1013.55V418.592H1017.85V419.864H1013.55V426.656C1013.55 428.696 1014.39 429.656 1016.26 429.656H1018.02V431H1016.22ZM1025.21 431.192C1022.33 431.192 1020.53 429.776 1020.53 427.496C1020.53 425.288 1022.21 423.896 1024.76 423.896H1030.23V423.008C1030.23 420.944 1028.72 419.576 1026.41 419.576C1024.54 419.576 1023.08 420.536 1022.57 422.024H1021.16C1021.76 419.72 1023.75 418.28 1026.39 418.28C1029.48 418.28 1031.62 420.176 1031.62 422.936V431H1030.47L1030.32 428.864C1029.24 430.352 1027.42 431.192 1025.21 431.192ZM1021.92 427.472C1021.92 428.984 1023.2 429.944 1025.26 429.944C1028.14 429.944 1030.25 428.144 1030.25 425.648V425.12H1024.8C1023.1 425.12 1021.92 426.056 1021.92 427.472ZM1040.57 431.312C1037.43 431.312 1035.44 429.728 1035.34 427.256H1036.71C1036.85 429.008 1038.22 430.04 1040.6 430.04C1042.78 430.04 1044.1 429.2 1044.1 427.832C1044.1 426.536 1042.92 425.744 1040.28 425.288C1037.04 424.736 1035.58 423.584 1035.58 421.688C1035.58 419.576 1037.38 418.28 1040.28 418.28C1043.21 418.28 1045.06 419.672 1045.25 422.048H1043.86C1043.72 420.416 1042.44 419.528 1040.28 419.528C1038.22 419.528 1036.97 420.368 1036.97 421.712C1036.97 422.936 1038 423.608 1040.76 424.136C1043.91 424.736 1045.47 425.984 1045.47 427.856C1045.47 429.944 1043.57 431.312 1040.57 431.312ZM1049.5 431V413.24H1050.89V424.04H1052.71C1055.02 424.04 1056.02 423.44 1056.82 421.352L1057.87 418.592H1059.36L1058.11 421.88C1057.56 423.272 1056.91 424.16 1055.93 424.688L1059.96 431H1058.3L1054.63 425.168C1054.06 425.288 1053.41 425.336 1052.66 425.336H1050.89V431H1049.5ZM1067.36 431.312C1064.22 431.312 1062.23 429.728 1062.13 427.256H1063.5C1063.64 429.008 1065.01 430.04 1067.39 430.04C1069.57 430.04 1070.89 429.2 1070.89 427.832C1070.89 426.536 1069.71 425.744 1067.07 425.288C1063.83 424.736 1062.37 423.584 1062.37 421.688C1062.37 419.576 1064.17 418.28 1067.07 418.28C1070 418.28 1071.85 419.672 1072.04 422.048H1070.65C1070.51 420.416 1069.23 419.528 1067.07 419.528C1065.01 419.528 1063.76 420.368 1063.76 421.712C1063.76 422.936 1064.79 423.608 1067.55 424.136C1070.7 424.736 1072.26 425.984 1072.26 427.856C1072.26 429.944 1070.36 431.312 1067.36 431.312Z" fill="black"/>
<path d="M296.528 318L303.488 301.2H304.88L311.84 318H310.304L308.552 313.776H299.816L298.088 318H296.528ZM300.392 312.432H308L304.184 303.192L300.392 312.432ZM319.689 318.312C315.969 318.312 313.353 315.6 313.353 311.784C313.353 307.968 315.969 305.28 319.689 305.28C322.641 305.28 325.065 307.032 325.785 309.72H324.369C323.553 307.752 321.825 306.624 319.689 306.624C316.761 306.624 314.745 308.736 314.745 311.784C314.745 314.856 316.761 316.968 319.689 316.968C321.969 316.968 323.745 315.696 324.441 313.656H325.905C325.065 316.56 322.737 318.312 319.689 318.312ZM333.415 318.192C330.535 318.192 328.735 316.776 328.735 314.496C328.735 312.288 330.415 310.896 332.959 310.896H338.431V310.008C338.431 307.944 336.919 306.576 334.615 306.576C332.743 306.576 331.279 307.536 330.775 309.024H329.359C329.959 306.72 331.951 305.28 334.591 305.28C337.687 305.28 339.823 307.176 339.823 309.936V318H338.671L338.527 315.864C337.447 317.352 335.623 318.192 333.415 318.192ZM330.127 314.472C330.127 315.984 331.399 316.944 333.463 316.944C336.343 316.944 338.455 315.144 338.455 312.648V312.12H333.007C331.303 312.12 330.127 313.056 330.127 314.472ZM349.783 318.312C346.039 318.312 343.423 315.552 343.423 311.784C343.423 308.016 346.039 305.28 349.783 305.28C352.063 305.28 353.911 306.288 355.015 307.896V300.24H356.407V318H355.255L355.087 315.552C354.007 317.256 352.111 318.312 349.783 318.312ZM344.815 311.784C344.815 314.832 346.903 316.968 349.951 316.968C352.975 316.968 355.063 314.832 355.063 311.784C355.063 308.76 352.975 306.624 349.951 306.624C346.903 306.624 344.815 308.76 344.815 311.784ZM366.611 318.312C362.843 318.312 360.275 315.648 360.275 311.784C360.275 307.944 362.867 305.28 366.635 305.28C370.547 305.28 373.067 308.16 372.971 312.36H361.691C361.931 315.168 363.851 316.992 366.611 316.992C368.627 316.992 370.235 316.056 371.051 314.448L372.611 314.472C371.651 316.848 369.395 318.312 366.611 318.312ZM361.691 311.136H371.603C371.267 308.328 369.347 306.6 366.635 306.6C363.875 306.6 361.931 308.4 361.691 311.136ZM376.777 318V305.592H377.953L378.073 307.608C378.937 306.096 380.449 305.28 382.369 305.28C384.529 305.28 386.185 306.36 386.905 308.256C387.745 306.36 389.449 305.28 391.633 305.28C394.753 305.28 396.769 307.416 396.769 310.872V318H395.377V311.088C395.377 308.328 393.841 306.624 391.465 306.624C389.041 306.624 387.457 308.376 387.457 311.184V318H386.065V311.088C386.065 308.328 384.553 306.624 382.177 306.624C379.753 306.624 378.169 308.376 378.169 311.184V318H376.777ZM401.433 318V305.592H402.825V318H401.433ZM400.857 302.064C400.857 301.368 401.361 300.816 402.129 300.816C402.897 300.816 403.401 301.368 403.401 302.064C403.401 302.784 402.897 303.336 402.129 303.336C401.361 303.336 400.857 302.784 400.857 302.064ZM413.017 318.312C409.297 318.312 406.681 315.6 406.681 311.784C406.681 307.968 409.297 305.28 413.017 305.28C415.969 305.28 418.393 307.032 419.113 309.72H417.697C416.881 307.752 415.153 306.624 413.017 306.624C410.089 306.624 408.073 308.736 408.073 311.784C408.073 314.856 410.089 316.968 413.017 316.968C415.297 316.968 417.073 315.696 417.769 313.656H419.233C418.393 316.56 416.065 318.312 413.017 318.312ZM433.215 318C430.575 318 429.159 316.512 429.159 313.704V306.864H426.447V305.592H428.031C428.967 305.592 429.231 305.352 429.327 304.44L429.447 302.544H430.551V305.592H434.847V306.864H430.551V313.656C430.551 315.696 431.391 316.656 433.263 316.656H435.015V318H433.215ZM438.745 318V305.592H440.137V318H438.745ZM438.169 302.064C438.169 301.368 438.673 300.816 439.441 300.816C440.209 300.816 440.713 301.368 440.713 302.064C440.713 302.784 440.209 303.336 439.441 303.336C438.673 303.336 438.169 302.784 438.169 302.064ZM445.074 318V305.592H446.25L446.37 307.608C447.234 306.096 448.746 305.28 450.666 305.28C452.826 305.28 454.482 306.36 455.202 308.256C456.042 306.36 457.746 305.28 459.93 305.28C463.05 305.28 465.066 307.416 465.066 310.872V318H463.674V311.088C463.674 308.328 462.138 306.624 459.762 306.624C457.338 306.624 455.754 308.376 455.754 311.184V318H454.362V311.088C454.362 308.328 452.85 306.624 450.474 306.624C448.05 306.624 446.466 308.376 446.466 311.184V318H445.074ZM474.986 318.312C471.218 318.312 468.65 315.648 468.65 311.784C468.65 307.944 471.242 305.28 475.01 305.28C478.922 305.28 481.442 308.16 481.346 312.36H470.066C470.306 315.168 472.226 316.992 474.986 316.992C477.002 316.992 478.61 316.056 479.426 314.448L480.986 314.472C480.026 316.848 477.77 318.312 474.986 318.312ZM470.066 311.136H479.978C479.642 308.328 477.722 306.6 475.01 306.6C472.25 306.6 470.306 308.4 470.066 311.136ZM495.897 318.312C492.057 318.312 489.369 315.624 489.369 311.784C489.369 307.968 492.057 305.28 495.897 305.28C499.713 305.28 502.401 307.968 502.401 311.784C502.401 315.624 499.713 318.312 495.897 318.312ZM490.761 311.784C490.761 314.856 492.849 316.968 495.897 316.968C498.921 316.968 501.009 314.856 501.009 311.784C501.009 308.736 498.921 306.624 495.897 306.624C492.849 306.624 490.761 308.736 490.761 311.784ZM519.789 318C517.101 318 515.733 316.512 515.733 313.584V306.864H508.533V318H507.141V306.864H504.309V305.592H507.141V304.152C507.141 301.344 508.557 299.928 511.365 299.928H513.237V301.248H511.485C509.421 301.248 508.533 302.136 508.533 304.248V305.592H514.605C515.541 305.592 515.805 305.352 515.901 304.44L516.021 302.544H517.125V305.592H521.421V306.864H517.125V313.536C517.125 315.696 517.965 316.656 519.837 316.656H521.589V318H519.789ZM529.947 318.312C526.179 318.312 523.611 315.648 523.611 311.784C523.611 307.944 526.203 305.28 529.971 305.28C533.883 305.28 536.403 308.16 536.307 312.36H525.027C525.267 315.168 527.187 316.992 529.947 316.992C531.963 316.992 533.571 316.056 534.387 314.448L535.947 314.472C534.987 316.848 532.731 318.312 529.947 318.312ZM525.027 311.136H534.939C534.603 308.328 532.683 306.6 529.971 306.6C527.211 306.6 525.267 308.4 525.027 311.136ZM540.113 318V305.592H541.289L541.409 307.992C542.393 306.216 544.121 305.28 546.113 305.28C549.353 305.28 551.345 307.56 551.345 311.136V318H549.953V311.256C549.953 308.4 548.417 306.624 545.945 306.624C543.329 306.624 541.505 308.616 541.505 311.568V318H540.113ZM303.728 353.312C299.96 353.312 297.392 350.648 297.392 346.784C297.392 342.944 299.984 340.28 303.752 340.28C307.664 340.28 310.184 343.16 310.088 347.36H298.808C299.048 350.168 300.968 351.992 303.728 351.992C305.744 351.992 307.352 351.056 308.168 349.448L309.728 349.472C308.768 351.848 306.512 353.312 303.728 353.312ZM298.808 346.136H308.72C308.384 343.328 306.464 341.6 303.752 341.6C300.992 341.6 299.048 343.4 298.808 346.136ZM313.894 353V340.592H315.07L315.19 342.992C316.174 341.216 317.902 340.28 319.894 340.28C323.134 340.28 325.126 342.56 325.126 346.136V353H323.734V346.256C323.734 343.4 322.198 341.624 319.726 341.624C317.11 341.624 315.286 343.616 315.286 346.568V353H313.894ZM335.064 353.312C331.344 353.312 328.728 350.6 328.728 346.784C328.728 342.968 331.344 340.28 335.064 340.28C338.016 340.28 340.44 342.032 341.16 344.72H339.744C338.928 342.752 337.2 341.624 335.064 341.624C332.136 341.624 330.12 343.736 330.12 346.784C330.12 349.856 332.136 351.968 335.064 351.968C337.344 351.968 339.12 350.696 339.816 348.656H341.28C340.44 351.56 338.112 353.312 335.064 353.312ZM345.066 353V340.592H346.242L346.386 343.376C347.226 341.504 348.642 340.592 350.946 340.592H351.978V341.888H350.898C348.234 341.888 346.458 343.52 346.458 347.288V353H345.066ZM359.959 353.312C356.119 353.312 353.431 350.624 353.431 346.784C353.431 342.968 356.119 340.28 359.959 340.28C363.775 340.28 366.463 342.968 366.463 346.784C366.463 350.624 363.775 353.312 359.959 353.312ZM354.823 346.784C354.823 349.856 356.911 351.968 359.959 351.968C362.983 351.968 365.071 349.856 365.071 346.784C365.071 343.736 362.983 341.624 359.959 341.624C356.911 341.624 354.823 343.736 354.823 346.784ZM374.055 353.192C371.175 353.192 369.375 351.776 369.375 349.496C369.375 347.288 371.055 345.896 373.599 345.896H379.071V345.008C379.071 342.944 377.559 341.576 375.255 341.576C373.383 341.576 371.919 342.536 371.415 344.024H369.999C370.599 341.72 372.591 340.28 375.231 340.28C378.327 340.28 380.463 342.176 380.463 344.936V353H379.311L379.167 350.864C378.087 352.352 376.263 353.192 374.055 353.192ZM370.767 349.472C370.767 350.984 372.039 351.944 374.103 351.944C376.983 351.944 379.095 350.144 379.095 347.648V347.12H373.647C371.943 347.12 370.767 348.056 370.767 349.472ZM390.4 353.312C386.68 353.312 384.064 350.6 384.064 346.784C384.064 342.968 386.68 340.28 390.4 340.28C393.352 340.28 395.776 342.032 396.496 344.72H395.08C394.264 342.752 392.536 341.624 390.4 341.624C387.472 341.624 385.456 343.736 385.456 346.784C385.456 349.856 387.472 351.968 390.4 351.968C392.68 351.968 394.456 350.696 395.152 348.656H396.616C395.776 351.56 393.448 353.312 390.4 353.312ZM400.402 353V335.24H401.794V342.848C402.778 341.144 404.506 340.28 406.45 340.28C409.666 340.28 411.634 342.512 411.634 346.088V353H410.242V346.208C410.242 343.352 408.73 341.624 406.258 341.624C403.642 341.624 401.794 343.568 401.794 346.544V353H400.402ZM421.572 353.312C417.804 353.312 415.236 350.648 415.236 346.784C415.236 342.944 417.828 340.28 421.596 340.28C425.508 340.28 428.028 343.16 427.932 347.36H416.652C416.892 350.168 418.812 351.992 421.572 351.992C423.588 351.992 425.196 351.056 426.012 349.448L427.572 349.472C426.612 351.848 424.356 353.312 421.572 353.312ZM416.652 346.136H426.564C426.228 343.328 424.308 341.6 421.596 341.6C418.836 341.6 416.892 343.4 416.652 346.136ZM437.018 353.312C433.274 353.312 430.658 350.552 430.658 346.784C430.658 343.016 433.274 340.28 437.018 340.28C439.298 340.28 441.146 341.288 442.25 342.896V335.24H443.642V353H442.49L442.322 350.552C441.242 352.256 439.346 353.312 437.018 353.312ZM432.05 346.784C432.05 349.832 434.138 351.968 437.186 351.968C440.21 351.968 442.298 349.832 442.298 346.784C442.298 343.76 440.21 341.624 437.186 341.624C434.138 341.624 432.05 343.76 432.05 346.784ZM459.897 353.312C456.057 353.312 453.369 350.624 453.369 346.784C453.369 342.968 456.057 340.28 459.897 340.28C463.713 340.28 466.401 342.968 466.401 346.784C466.401 350.624 463.713 353.312 459.897 353.312ZM454.761 346.784C454.761 349.856 456.849 351.968 459.897 351.968C462.921 351.968 465.009 349.856 465.009 346.784C465.009 343.736 462.921 341.624 459.897 341.624C456.849 341.624 454.761 343.736 454.761 346.784ZM470.269 353V340.592H471.445L471.565 342.992C472.549 341.216 474.277 340.28 476.269 340.28C479.509 340.28 481.501 342.56 481.501 346.136V353H480.109V346.256C480.109 343.4 478.573 341.624 476.101 341.624C473.485 341.624 471.661 343.616 471.661 346.568V353H470.269ZM492.867 339.152C492.867 336.32 494.259 334.928 497.019 334.928H498.963V336.248H497.139C495.123 336.248 494.259 337.136 494.259 339.248V340.592H498.843V341.864H494.259V353H492.867V341.864H490.035V340.592H492.867V339.152ZM501.675 353V340.592H502.851L502.995 343.376C503.835 341.504 505.251 340.592 507.555 340.592H508.587V341.888H507.507C504.843 341.888 503.067 343.52 503.067 347.288V353H501.675ZM516.376 353.312C512.608 353.312 510.04 350.648 510.04 346.784C510.04 342.944 512.632 340.28 516.4 340.28C520.312 340.28 522.832 343.16 522.736 347.36H511.456C511.696 350.168 513.616 351.992 516.376 351.992C518.392 351.992 520 351.056 520.816 349.448L522.376 349.472C521.416 351.848 519.16 353.312 516.376 353.312ZM511.456 346.136H521.368C521.032 343.328 519.112 341.6 516.4 341.6C513.64 341.6 511.696 343.4 511.456 346.136ZM531.798 353.312C528.03 353.312 525.462 350.648 525.462 346.784C525.462 342.944 528.054 340.28 531.822 340.28C535.734 340.28 538.254 343.16 538.158 347.36H526.878C527.118 350.168 529.038 351.992 531.798 351.992C533.814 351.992 535.422 351.056 536.238 349.448L537.798 349.472C536.838 351.848 534.582 353.312 531.798 353.312ZM526.878 346.136H536.79C536.454 343.328 534.534 341.6 531.822 341.6C529.062 341.6 527.118 343.4 526.878 346.136ZM552.16 353C549.52 353 548.104 351.512 548.104 348.704V341.864H545.392V340.592H546.976C547.912 340.592 548.176 340.352 548.272 339.44L548.392 337.544H549.496V340.592H553.792V341.864H549.496V348.656C549.496 350.696 550.336 351.656 552.208 351.656H553.96V353H552.16ZM557.691 353V340.592H559.083V353H557.691ZM557.115 337.064C557.115 336.368 557.619 335.816 558.387 335.816C559.155 335.816 559.659 336.368 559.659 337.064C559.659 337.784 559.155 338.336 558.387 338.336C557.619 338.336 557.115 337.784 557.115 337.064ZM564.019 353V340.592H565.195L565.315 342.608C566.179 341.096 567.691 340.28 569.611 340.28C571.771 340.28 573.427 341.36 574.147 343.256C574.987 341.36 576.691 340.28 578.875 340.28C581.995 340.28 584.011 342.416 584.011 345.872V353H582.619V346.088C582.619 343.328 581.083 341.624 578.707 341.624C576.283 341.624 574.699 343.376 574.699 346.184V353H573.307V346.088C573.307 343.328 571.795 341.624 569.419 341.624C566.995 341.624 565.411 343.376 565.411 346.184V353H564.019ZM593.931 353.312C590.163 353.312 587.595 350.648 587.595 346.784C587.595 342.944 590.187 340.28 593.955 340.28C597.867 340.28 600.387 343.16 600.291 347.36H589.011C589.251 350.168 591.171 351.992 593.931 351.992C595.947 351.992 597.555 351.056 598.371 349.448L599.931 349.472C598.971 351.848 596.715 353.312 593.931 353.312ZM589.011 346.136H598.923C598.587 343.328 596.667 341.6 593.955 341.6C591.195 341.6 589.251 343.4 589.011 346.136Z" fill="black"/>
<path d="M2.712 213V196.2H8.04C11.928 196.2 14.232 198.24 14.232 201.72C14.232 205.2 11.928 207.24 8.04 207.24H4.176V213H2.712ZM4.176 205.896H8.016C11.16 205.896 12.768 204.48 12.768 201.744C12.768 199.008 11.16 197.592 8.016 197.592H4.176V205.896ZM17.8236 213V200.592H18.9996L19.1436 203.376C19.9836 201.504 21.3996 200.592 23.7036 200.592H24.7356V201.888H23.6556C20.9916 201.888 19.2156 203.52 19.2156 207.288V213H17.8236ZM28.2298 213V200.592H29.6218V213H28.2298ZM27.6538 197.064C27.6538 196.368 28.1578 195.816 28.9258 195.816C29.6938 195.816 30.1978 196.368 30.1978 197.064C30.1978 197.784 29.6938 198.336 28.9258 198.336C28.1578 198.336 27.6538 197.784 27.6538 197.064ZM40.0059 213.312C36.1659 213.312 33.4779 210.624 33.4779 206.784C33.4779 202.968 36.1659 200.28 40.0059 200.28C43.8219 200.28 46.5099 202.968 46.5099 206.784C46.5099 210.624 43.8219 213.312 40.0059 213.312ZM34.8699 206.784C34.8699 209.856 36.9579 211.968 40.0059 211.968C43.0299 211.968 45.1179 209.856 45.1179 206.784C45.1179 203.736 43.0299 201.624 40.0059 201.624C36.9579 201.624 34.8699 203.736 34.8699 206.784ZM50.3783 213V200.592H51.5543L51.6983 203.376C52.5383 201.504 53.9543 200.592 56.2583 200.592H57.2903V201.888H56.2103C53.5463 201.888 51.7703 203.52 51.7703 207.288V213H50.3783ZM60.7845 213V200.592H62.1765V213H60.7845ZM60.2085 197.064C60.2085 196.368 60.7125 195.816 61.4805 195.816C62.2485 195.816 62.7525 196.368 62.7525 197.064C62.7525 197.784 62.2485 198.336 61.4805 198.336C60.7125 198.336 60.2085 197.784 60.2085 197.064ZM72.1526 213C69.5126 213 68.0966 211.512 68.0966 208.704V201.864H65.3846V200.592H66.9686C67.9046 200.592 68.1686 200.352 68.2646 199.44L68.3846 197.544H69.4886V200.592H73.7846V201.864H69.4886V208.656C69.4886 210.696 70.3286 211.656 72.2006 211.656H73.9526V213H72.1526ZM77.6829 213V200.592H79.0749V213H77.6829ZM77.1069 197.064C77.1069 196.368 77.6109 195.816 78.3789 195.816C79.1469 195.816 79.6509 196.368 79.6509 197.064C79.6509 197.784 79.1469 198.336 78.3789 198.336C77.6109 198.336 77.1069 197.784 77.1069 197.064ZM82.8111 213V211.92L90.8751 201.864H83.0991V200.592H92.7471V201.648L84.7311 211.704H92.9151V213H82.8111ZM96.597 213V200.592H97.989V213H96.597ZM96.021 197.064C96.021 196.368 96.525 195.816 97.293 195.816C98.061 195.816 98.565 196.368 98.565 197.064C98.565 197.784 98.061 198.336 97.293 198.336C96.525 198.336 96.021 197.784 96.021 197.064ZM102.925 213V200.592H104.101L104.221 202.992C105.205 201.216 106.933 200.28 108.925 200.28C112.165 200.28 114.157 202.56 114.157 206.136V213H112.765V206.256C112.765 203.4 111.229 201.624 108.757 201.624C106.141 201.624 104.317 203.616 104.317 206.568V213H102.925ZM124.287 218.112C121.239 218.112 118.983 216.504 118.503 213.984H119.919C120.327 215.712 122.007 216.792 124.287 216.792C127.143 216.792 128.967 215.112 128.967 212.448V210.432C127.863 211.944 126.087 212.856 123.975 212.856C120.351 212.856 117.759 210.216 117.759 206.568C117.759 202.92 120.351 200.28 123.975 200.28C126.159 200.28 127.959 201.24 129.063 202.824L129.183 200.592H130.359V212.496C130.359 215.832 127.911 218.112 124.287 218.112ZM119.151 206.568C119.151 209.472 121.191 211.488 124.119 211.488C127.023 211.488 129.063 209.472 129.063 206.568C129.063 203.664 127.023 201.624 124.119 201.624C121.191 201.624 119.151 203.664 119.151 206.568ZM146.432 213.312C142.688 213.312 140.072 210.552 140.072 206.784C140.072 203.016 142.688 200.28 146.432 200.28C148.712 200.28 150.56 201.288 151.664 202.896V195.24H153.056V213H151.904L151.736 210.552C150.656 212.256 148.76 213.312 146.432 213.312ZM141.464 206.784C141.464 209.832 143.552 211.968 146.6 211.968C149.624 211.968 151.712 209.832 151.712 206.784C151.712 203.76 149.624 201.624 146.6 201.624C143.552 201.624 141.464 203.76 141.464 206.784ZM161.891 213.192C159.011 213.192 157.211 211.776 157.211 209.496C157.211 207.288 158.891 205.896 161.435 205.896H166.907V205.008C166.907 202.944 165.395 201.576 163.091 201.576C161.219 201.576 159.755 202.536 159.251 204.024H157.835C158.435 201.72 160.427 200.28 163.067 200.28C166.163 200.28 168.299 202.176 168.299 204.936V213H167.147L167.003 210.864C165.923 212.352 164.099 213.192 161.891 213.192ZM158.603 209.472C158.603 210.984 159.875 211.944 161.939 211.944C164.819 211.944 166.931 210.144 166.931 207.648V207.12H161.483C159.779 207.12 158.603 208.056 158.603 209.472ZM172.98 213V200.592H174.372V213H172.98ZM172.404 197.064C172.404 196.368 172.908 195.816 173.676 195.816C174.444 195.816 174.948 196.368 174.948 197.064C174.948 197.784 174.444 198.336 173.676 198.336C172.908 198.336 172.404 197.784 172.404 197.064ZM179.308 213V195.24H180.7V213H179.308ZM184.868 217.8V216.48H185.9C187.652 216.48 188.204 216.12 188.852 214.56L189.548 212.808L183.644 200.592H185.204L188.132 206.712L190.268 211.128L192.044 206.712L194.564 200.592H196.028L190.1 215.088C189.236 217.248 188.276 217.8 186.044 217.8H184.868ZM209.192 213C206.552 213 205.136 211.512 205.136 208.704V201.864H202.424V200.592H204.008C204.944 200.592 205.208 200.352 205.304 199.44L205.424 197.544H206.528V200.592H210.824V201.864H206.528V208.656C206.528 210.696 207.368 211.656 209.24 211.656H210.992V213H209.192ZM218.188 213.192C215.308 213.192 213.508 211.776 213.508 209.496C213.508 207.288 215.188 205.896 217.732 205.896H223.204V205.008C223.204 202.944 221.692 201.576 219.388 201.576C217.516 201.576 216.052 202.536 215.548 204.024H214.132C214.732 201.72 216.724 200.28 219.364 200.28C222.46 200.28 224.596 202.176 224.596 204.936V213H223.444L223.3 210.864C222.22 212.352 220.396 213.192 218.188 213.192ZM214.9 209.472C214.9 210.984 216.172 211.944 218.236 211.944C221.116 211.944 223.228 210.144 223.228 207.648V207.12H217.78C216.076 207.12 214.9 208.056 214.9 209.472ZM233.549 213.312C230.405 213.312 228.413 211.728 228.317 209.256H229.685C229.829 211.008 231.197 212.04 233.573 212.04C235.757 212.04 237.077 211.2 237.077 209.832C237.077 208.536 235.901 207.744 233.261 207.288C230.021 206.736 228.557 205.584 228.557 203.688C228.557 201.576 230.357 200.28 233.261 200.28C236.189 200.28 238.037 201.672 238.229 204.048H236.837C236.693 202.416 235.421 201.528 233.261 201.528C231.197 201.528 229.949 202.368 229.949 203.712C229.949 204.936 230.981 205.608 233.741 206.136C236.885 206.736 238.445 207.984 238.445 209.856C238.445 211.944 236.549 213.312 233.549 213.312ZM242.472 213V195.24H243.864V206.04H245.688C247.992 206.04 249 205.44 249.792 203.352L250.848 200.592H252.336L251.088 203.88C250.536 205.272 249.888 206.16 248.904 206.688L252.936 213H251.28L247.608 207.168C247.032 207.288 246.384 207.336 245.64 207.336H243.864V213H242.472ZM260.338 213.312C257.194 213.312 255.202 211.728 255.106 209.256H256.474C256.618 211.008 257.986 212.04 260.362 212.04C262.546 212.04 263.866 211.2 263.866 209.832C263.866 208.536 262.69 207.744 260.05 207.288C256.81 206.736 255.346 205.584 255.346 203.688C255.346 201.576 257.146 200.28 260.05 200.28C262.978 200.28 264.826 201.672 265.018 204.048H263.626C263.482 202.416 262.21 201.528 260.05 201.528C257.986 201.528 256.738 202.368 256.738 203.712C256.738 204.936 257.77 205.608 260.53 206.136C263.674 206.736 265.234 207.984 265.234 209.856C265.234 211.944 263.338 213.312 260.338 213.312ZM277.125 213L272.661 200.592H274.149L277.821 210.912L279.573 206.4L281.805 200.592H283.101L285.357 206.4L287.109 210.912L290.805 200.592H292.269L287.781 213H286.437L284.301 207.456L282.453 202.632L278.469 213H277.125ZM298.508 213.192C295.628 213.192 293.828 211.776 293.828 209.496C293.828 207.288 295.508 205.896 298.052 205.896H303.524V205.008C303.524 202.944 302.012 201.576 299.708 201.576C297.836 201.576 296.372 202.536 295.868 204.024H294.452C295.052 201.72 297.044 200.28 299.684 200.28C302.78 200.28 304.916 202.176 304.916 204.936V213H303.764L303.62 210.864C302.54 212.352 300.716 213.192 298.508 213.192ZM295.22 209.472C295.22 210.984 296.492 211.944 298.556 211.944C301.436 211.944 303.548 210.144 303.548 207.648V207.12H298.1C296.396 207.12 295.22 208.056 295.22 209.472ZM313.869 213.312C310.725 213.312 308.733 211.728 308.637 209.256H310.005C310.149 211.008 311.517 212.04 313.893 212.04C316.077 212.04 317.397 211.2 317.397 209.832C317.397 208.536 316.221 207.744 313.581 207.288C310.341 206.736 308.877 205.584 308.877 203.688C308.877 201.576 310.677 200.28 313.581 200.28C316.509 200.28 318.357 201.672 318.549 204.048H317.157C317.013 202.416 315.741 201.528 313.581 201.528C311.517 201.528 310.269 202.368 310.269 203.712C310.269 204.936 311.301 205.608 314.061 206.136C317.205 206.736 318.765 207.984 318.765 209.856C318.765 211.944 316.869 213.312 313.869 213.312ZM332.587 213.192C329.707 213.192 327.907 211.776 327.907 209.496C327.907 207.288 329.587 205.896 332.131 205.896H337.603V205.008C337.603 202.944 336.091 201.576 333.787 201.576C331.915 201.576 330.451 202.536 329.947 204.024H328.531C329.131 201.72 331.123 200.28 333.763 200.28C336.859 200.28 338.995 202.176 338.995 204.936V213H337.843L337.699 210.864C336.619 212.352 334.795 213.192 332.587 213.192ZM329.299 209.472C329.299 210.984 330.571 211.944 332.635 211.944C335.515 211.944 337.627 210.144 337.627 207.648V207.12H332.179C330.475 207.12 329.299 208.056 329.299 209.472ZM7.728 248.312C4.008 248.312 1.392 245.6 1.392 241.784C1.392 237.968 4.008 235.28 7.728 235.28C10.68 235.28 13.104 237.032 13.824 239.72H12.408C11.592 237.752 9.864 236.624 7.728 236.624C4.8 236.624 2.784 238.736 2.784 241.784C2.784 244.856 4.8 246.968 7.728 246.968C10.008 246.968 11.784 245.696 12.48 243.656H13.944C13.104 246.56 10.776 248.312 7.728 248.312ZM17.7298 248V230.24H19.1218V237.848C20.1058 236.144 21.8338 235.28 23.7778 235.28C26.9938 235.28 28.9618 237.512 28.9618 241.088V248H27.5698V241.208C27.5698 238.352 26.0578 236.624 23.5858 236.624C20.9698 236.624 19.1218 238.568 19.1218 241.544V248H17.7298ZM37.5319 248.192C34.6519 248.192 32.8519 246.776 32.8519 244.496C32.8519 242.288 34.5319 240.896 37.0759 240.896H42.5479V240.008C42.5479 237.944 41.0359 236.576 38.7319 236.576C36.8599 236.576 35.3959 237.536 34.8919 239.024H33.4759C34.0759 236.72 36.0679 235.28 38.7079 235.28C41.8039 235.28 43.9399 237.176 43.9399 239.936V248H42.7879L42.6439 245.864C41.5639 247.352 39.7399 248.192 37.5319 248.192ZM34.2439 244.472C34.2439 245.984 35.5159 246.944 37.5799 246.944C40.4599 246.944 42.5719 245.144 42.5719 242.648V242.12H37.1239C35.4199 242.12 34.2439 243.056 34.2439 244.472ZM48.6204 248V230.24H50.0124V248H48.6204ZM54.9486 248V230.24H56.3406V248H54.9486ZM66.5327 248.312C62.7647 248.312 60.1967 245.648 60.1967 241.784C60.1967 237.944 62.7887 235.28 66.5567 235.28C70.4687 235.28 72.9887 238.16 72.8927 242.36H61.6127C61.8527 245.168 63.7727 246.992 66.5327 246.992C68.5487 246.992 70.1567 246.056 70.9727 244.448L72.5327 244.472C71.5727 246.848 69.3167 248.312 66.5327 248.312ZM61.6127 241.136H71.5247C71.1887 238.328 69.2687 236.6 66.5567 236.6C63.7967 236.6 61.8527 238.4 61.6127 241.136ZM76.6986 248V235.592H77.8746L77.9946 237.992C78.9786 236.216 80.7066 235.28 82.6986 235.28C85.9386 235.28 87.9306 237.56 87.9306 241.136V248H86.5386V241.256C86.5386 238.4 85.0026 236.624 82.5306 236.624C79.9146 236.624 78.0906 238.616 78.0906 241.568V248H76.6986ZM98.0606 253.112C95.0126 253.112 92.7566 251.504 92.2766 248.984H93.6926C94.1006 250.712 95.7806 251.792 98.0606 251.792C100.917 251.792 102.741 250.112 102.741 247.448V245.432C101.637 246.944 99.8606 247.856 97.7486 247.856C94.1246 247.856 91.5326 245.216 91.5326 241.568C91.5326 237.92 94.1246 235.28 97.7486 235.28C99.9326 235.28 101.733 236.24 102.837 237.824L102.957 235.592H104.133V247.496C104.133 250.832 101.685 253.112 98.0606 253.112ZM92.9246 241.568C92.9246 244.472 94.9646 246.488 97.8926 246.488C100.797 246.488 102.837 244.472 102.837 241.568C102.837 238.664 100.797 236.624 97.8926 236.624C94.9646 236.624 92.9246 238.664 92.9246 241.568ZM114.322 248.312C110.554 248.312 107.986 245.648 107.986 241.784C107.986 237.944 110.578 235.28 114.346 235.28C118.258 235.28 120.778 238.16 120.682 242.36H109.402C109.642 245.168 111.562 246.992 114.322 246.992C116.338 246.992 117.946 246.056 118.762 244.448L120.322 244.472C119.362 246.848 117.106 248.312 114.322 248.312ZM109.402 241.136H119.314C118.978 238.328 117.058 236.6 114.346 236.6C111.586 236.6 109.642 238.4 109.402 241.136Z" fill="black"/>
</svg>
