{
	"asset":{
		"generator":"Khronos glTF Blender I/O v3.5.30",
		"version":"2.0"
	},
	"scene":0,
	"scenes":[
		{
			"name":"Scene",
			"nodes":[
				18
			]
		}
	],
	"nodes":[
		{
			"mesh":0,
			"name":"Text",
			"rotation":[
				0.8324272632598877,
				-0.0021673564333468676,
				-0.003033018670976162,
				0.5541220307350159
			],
			"scale":[
				9.083293914794922,
				9.083291053771973,
				9.08328914642334
			],
			"translation":[
				-8.338156700134277,
				11.362505912780762,
				21.5152587890625
			]
		},
		{
			"mesh":1,
			"name":"Bodymy01_17 - Default_0"
		},
		{
			"children":[
				1
			],
			"name":"Bodymy01",
			"rotation":[
				-0.70710688829422,
				0,
				0,
				0.7071066498756409
			]
		},
		{
			"mesh":2,
			"name":"Logo_Royal_typewriter_Label_0",
			"translation":[
				0,
				-0.3165372610092163,
				0
			]
		},
		{
			"children":[
				3
			],
			"name":"Logo",
			"rotation":[
				-0.70710688829422,
				0,
				0,
				0.7071066498756409
			],
			"translation":[
				-0.0001285076141357422,
				13.949603080749512,
				11.370923042297363
			]
		},
		{
			"mesh":3,
			"name":"Neri_Metal_Chrome_0"
		},
		{
			"mesh":4,
			"name":"Neri_Royal_typewriter_Buttons_0"
		},
		{
			"mesh":5,
			"name":"Neri_Royal_typewriter_Measure_0"
		},
		{
			"mesh":6,
			"name":"Neri_Royal_typewriter_Metal_black_0"
		},
		{
			"mesh":7,
			"name":"Neri_Royal_typewriter_Paper_0",
			"translation":[
				0,
				-0.36569416522979736,
				0.18362095952033997
			]
		},
		{
			"mesh":8,
			"name":"Neri_Royal_typewriter_Plastic_0"
		},
		{
			"mesh":9,
			"name":"Neri_Royal_typewriter_Rubber_0",
			"translation":[
				0,
				-0.10233587771654129,
				0
			]
		},
		{
			"mesh":10,
			"name":"Neri_Royal_typewriter_Tape_0"
		},
		{
			"children":[
				5,
				6,
				7,
				8,
				9,
				10,
				11,
				12
			],
			"name":"Neri",
			"rotation":[
				-0.70710688829422,
				0,
				0,
				0.7071066498756409
			]
		},
		{
			"mesh":11,
			"name":"Targa_Material #51_0"
		},
		{
			"children":[
				14
			],
			"name":"Targa",
			"rotation":[
				-0.70710688829422,
				0,
				0,
				0.7071066498756409
			]
		},
		{
			"children":[
				2,
				4,
				13,
				15
			],
			"name":"RootNode"
		},
		{
			"children":[
				16
			],
			"name":"Typewriter.fbx",
			"rotation":[
				0.70710688829422,
				0,
				0,
				0.7071066498756409
			]
		},
		{
			"children":[
				0,
				17
			],
			"name":"Sketchfab_model",
			"rotation":[
				-0.70710688829422,
				0,
				0,
				0.7071066498756409
			],
			"scale":[
				0.02309238538146019,
				0.02309238538146019,
				0.02309238538146019
			]
		}
	],
	"animations":[
		{
			"channels":[
				{
					"sampler":0,
					"target":{
						"node":18,
						"path":"scale"
					}
				},
				{
					"sampler":1,
					"target":{
						"node":18,
						"path":"rotation"
					}
				},
				{
					"sampler":2,
					"target":{
						"node":18,
						"path":"translation"
					}
				}
			],
			"name":"Sketchfab_modelAction",
			"samplers":[
				{
					"input":48,
					"interpolation":"LINEAR",
					"output":49
				},
				{
					"input":48,
					"interpolation":"LINEAR",
					"output":50
				},
				{
					"input":48,
					"interpolation":"LINEAR",
					"output":51
				}
			]
		}
	],
	"materials":[
		{
			"doubleSided":true,
			"name":"Material.001",
			"pbrMetallicRoughness":{
				"baseColorFactor":[
					0,
					0,
					0,
					1
				],
				"metallicFactor":0,
				"roughnessFactor":0.5
			}
		},
		{
			"doubleSided":true,
			"name":"17_-_Default",
			"pbrMetallicRoughness":{
				"baseColorTexture":{
					"index":0
				},
				"metallicFactor":0,
				"roughnessFactor":0.5001379251480103
			}
		},
		{
			"doubleSided":true,
			"name":"Royal_typewriter_Label",
			"pbrMetallicRoughness":{
				"baseColorTexture":{
					"index":1
				},
				"metallicFactor":0.21405497193336487,
				"roughnessFactor":0.09231754392385483
			}
		},
		{
			"doubleSided":true,
			"name":"Metal_Chrome",
			"normalTexture":{
				"index":2
			},
			"pbrMetallicRoughness":{
				"baseColorFactor":[
					0.4658348560333252,
					0.4658348560333252,
					0.4658348560333252,
					1
				],
				"metallicRoughnessTexture":{
					"index":3
				}
			}
		},
		{
			"doubleSided":true,
			"name":"Royal_typewriter_Buttons",
			"normalTexture":{
				"index":4,
				"scale":0.420525461435318
			},
			"pbrMetallicRoughness":{
				"baseColorTexture":{
					"index":5
				},
				"metallicFactor":0.29927119612693787,
				"roughnessFactor":0.7131784558296204
			}
		},
		{
			"doubleSided":true,
			"name":"Royal_typewriter_Measure",
			"pbrMetallicRoughness":{
				"baseColorFactor":[
					0.09157700091600418,
					0.01831500045955181,
					0.01831500045955181,
					1
				],
				"metallicFactor":0,
				"roughnessFactor":0.761349081993103
			}
		},
		{
			"doubleSided":true,
			"name":"Royal_typewriter_Metal_black",
			"normalTexture":{
				"index":6
			},
			"pbrMetallicRoughness":{
				"baseColorFactor":[
					0.44672921299934387,
					0.44393205642700195,
					0.4081647992134094,
					1
				],
				"metallicRoughnessTexture":{
					"index":7
				},
				"roughnessFactor":0.40883487462997437
			}
		},
		{
			"alphaMode":"BLEND",
			"doubleSided":true,
			"name":"Royal_typewriter_Paper",
			"normalTexture":{
				"index":8
			},
			"occlusionTexture":{
				"index":9
			},
			"pbrMetallicRoughness":{
				"baseColorTexture":{
					"index":10
				},
				"metallicFactor":0,
				"metallicRoughnessTexture":{
					"index":9
				}
			}
		},
		{
			"doubleSided":true,
			"name":"Royal_typewriter_Plastic",
			"normalTexture":{
				"index":11
			},
			"pbrMetallicRoughness":{
				"baseColorTexture":{
					"index":12
				},
				"metallicRoughnessTexture":{
					"index":13
				},
				"roughnessFactor":0.8470896482467651
			}
		},
		{
			"doubleSided":true,
			"name":"Royal_typewriter_Rubber",
			"pbrMetallicRoughness":{
				"baseColorFactor":[
					0.031280893832445145,
					0.031474437564611435,
					0.02819214016199112,
					1
				],
				"metallicFactor":0
			}
		},
		{
			"doubleSided":true,
			"name":"Royal_typewriter_Tape",
			"pbrMetallicRoughness":{
				"baseColorFactor":[
					0.1615999937057495,
					0.1443219929933548,
					0.22453400492668152,
					1
				],
				"metallicFactor":0,
				"roughnessFactor":0.45144298672676086
			}
		},
		{
			"doubleSided":true,
			"name":"Material_51",
			"pbrMetallicRoughness":{
				"baseColorFactor":[
					0.3310827314853668,
					0.3288038671016693,
					0.299740195274353,
					1
				],
				"metallicRoughnessTexture":{
					"index":14
				}
			}
		}
	],
	"meshes":[
		{
			"name":"Text.002",
			"primitives":[
				{
					"attributes":{
						"POSITION":0,
						"TEXCOORD_0":1,
						"NORMAL":2
					},
					"indices":3,
					"material":0
				}
			]
		},
		{
			"name":"Bodymy01_17 - Default_0",
			"primitives":[
				{
					"attributes":{
						"POSITION":4,
						"TEXCOORD_0":5,
						"NORMAL":6
					},
					"indices":7,
					"material":1
				}
			]
		},
		{
			"name":"Logo_Royal_typewriter_Label_0",
			"primitives":[
				{
					"attributes":{
						"POSITION":8,
						"TEXCOORD_0":9,
						"NORMAL":10
					},
					"indices":11,
					"material":2
				}
			]
		},
		{
			"name":"Neri_Metal_Chrome_0",
			"primitives":[
				{
					"attributes":{
						"POSITION":12,
						"TEXCOORD_0":13,
						"NORMAL":14
					},
					"indices":15,
					"material":3
				}
			]
		},
		{
			"name":"Neri_Royal_typewriter_Buttons_0",
			"primitives":[
				{
					"attributes":{
						"POSITION":16,
						"TEXCOORD_0":17,
						"NORMAL":18
					},
					"indices":19,
					"material":4
				}
			]
		},
		{
			"name":"Neri_Royal_typewriter_Measure_0",
			"primitives":[
				{
					"attributes":{
						"POSITION":20,
						"TEXCOORD_0":21,
						"NORMAL":22
					},
					"indices":23,
					"material":5
				}
			]
		},
		{
			"name":"Neri_Royal_typewriter_Metal_black_0",
			"primitives":[
				{
					"attributes":{
						"POSITION":24,
						"TEXCOORD_0":25,
						"NORMAL":26
					},
					"indices":27,
					"material":6
				}
			]
		},
		{
			"name":"Neri_Royal_typewriter_Paper_0",
			"primitives":[
				{
					"attributes":{
						"POSITION":28,
						"TEXCOORD_0":29,
						"NORMAL":30
					},
					"indices":31,
					"material":7
				}
			]
		},
		{
			"name":"Neri_Royal_typewriter_Plastic_0",
			"primitives":[
				{
					"attributes":{
						"POSITION":32,
						"TEXCOORD_0":33,
						"NORMAL":34
					},
					"indices":35,
					"material":8
				}
			]
		},
		{
			"name":"Neri_Royal_typewriter_Rubber_0",
			"primitives":[
				{
					"attributes":{
						"POSITION":36,
						"TEXCOORD_0":37,
						"NORMAL":38
					},
					"indices":39,
					"material":9
				}
			]
		},
		{
			"name":"Neri_Royal_typewriter_Tape_0",
			"primitives":[
				{
					"attributes":{
						"POSITION":40,
						"TEXCOORD_0":41,
						"NORMAL":42
					},
					"indices":43,
					"material":10
				}
			]
		},
		{
			"name":"Targa_Material #51_0",
			"primitives":[
				{
					"attributes":{
						"POSITION":44,
						"TEXCOORD_0":45,
						"NORMAL":46
					},
					"indices":47,
					"material":11
				}
			]
		}
	],
	"textures":[
		{
			"sampler":0,
			"source":0
		},
		{
			"sampler":0,
			"source":1
		},
		{
			"sampler":0,
			"source":2
		},
		{
			"sampler":0,
			"source":3
		},
		{
			"sampler":0,
			"source":4
		},
		{
			"sampler":0,
			"source":5
		},
		{
			"sampler":0,
			"source":4
		},
		{
			"sampler":0,
			"source":3
		},
		{
			"sampler":0,
			"source":6
		},
		{
			"sampler":0,
			"source":7
		},
		{
			"sampler":0,
			"source":8
		},
		{
			"sampler":0,
			"source":2
		},
		{
			"sampler":0,
			"source":9
		},
		{
			"sampler":0,
			"source":3
		},
		{
			"sampler":0,
			"source":3
		}
	],
	"images":[
		{
			"mimeType":"image/jpeg",
			"name":"17_-_Default_baseColor",
			"uri":"17_-_Default_baseColor.jpg"
		},
		{
			"mimeType":"image/jpeg",
			"name":"Royal_typewriter_Label_baseColor",
			"uri":"Royal_typewriter_Label_baseColor.jpg"
		},
		{
			"mimeType":"image/png",
			"name":"Royal_typewriter_Plastic_normal",
			"uri":"Royal_typewriter_Plastic_normal.png"
		},
		{
			"mimeType":"image/png",
			"name":"Royal_typewriter_Plastic_metallicRoughness",
			"uri":"Royal_typewriter_Plastic_metallicRoughness.png"
		},
		{
			"mimeType":"image/jpeg",
			"name":"Royal_typewriter_Buttons_normal",
			"uri":"Royal_typewriter_Buttons_normal.jpg"
		},
		{
			"mimeType":"image/jpeg",
			"name":"Royal_typewriter_Buttons_baseColor",
			"uri":"Royal_typewriter_Buttons_baseColor.jpg"
		},
		{
			"mimeType":"image/jpeg",
			"name":"Royal_typewriter_Paper_normal",
			"uri":"Royal_typewriter_Paper_normal.jpg"
		},
		{
			"mimeType":"image/png",
			"name":"Royal_typewriter_Paper_metallicRoughness",
			"uri":"Royal_typewriter_Paper_metallicRoughness.png"
		},
		{
			"mimeType":"image/png",
			"name":"Royal_typewriter_Paper_baseColor",
			"uri":"Royal_typewriter_Paper_baseColor.png"
		},
		{
			"mimeType":"image/png",
			"name":"Royal_typewriter_Plastic_baseColor",
			"uri":"Royal_typewriter_Plastic_baseColor.png"
		}
	],
	"accessors":[
		{
			"bufferView":0,
			"componentType":5126,
			"count":15791,
			"max":[
				1.9850581884384155,
				0,
				0.615564227104187
			],
			"min":[
				0.004513619001954794,
				0,
				-0.05758754536509514
			],
			"type":"VEC3"
		},
		{
			"bufferView":1,
			"componentType":5126,
			"count":15791,
			"type":"VEC2"
		},
		{
			"bufferView":2,
			"componentType":5126,
			"count":15791,
			"type":"VEC3"
		},
		{
			"bufferView":3,
			"componentType":5123,
			"count":46320,
			"type":"SCALAR"
		},
		{
			"bufferView":4,
			"componentType":5126,
			"count":47078,
			"max":[
				15.627248764038086,
				19.7560977935791,
				21.616924285888672
			],
			"min":[
				-16.795490264892578,
				-23.292673110961914,
				1.0192999839782715
			],
			"type":"VEC3"
		},
		{
			"bufferView":5,
			"componentType":5126,
			"count":47078,
			"type":"VEC2"
		},
		{
			"bufferView":6,
			"componentType":5126,
			"count":47078,
			"type":"VEC3"
		},
		{
			"bufferView":7,
			"componentType":5123,
			"count":222504,
			"type":"SCALAR"
		},
		{
			"bufferView":8,
			"componentType":5126,
			"count":40,
			"max":[
				2.1737453937530518,
				0.42338085174560547,
				1.004298210144043
			],
			"min":[
				-2.1737453937530518,
				-0.42338085174560547,
				-1.0042972564697266
			],
			"type":"VEC3"
		},
		{
			"bufferView":9,
			"componentType":5126,
			"count":40,
			"type":"VEC2"
		},
		{
			"bufferView":10,
			"componentType":5126,
			"count":40,
			"type":"VEC3"
		},
		{
			"bufferView":11,
			"componentType":5123,
			"count":162,
			"type":"SCALAR"
		},
		{
			"bufferView":12,
			"componentType":5126,
			"count":6785,
			"max":[
				16.979963302612305,
				19.343231201171875,
				21.40097427368164
			],
			"min":[
				-21.19645881652832,
				-13.085693359375,
				10.875645637512207
			],
			"type":"VEC3"
		},
		{
			"bufferView":13,
			"componentType":5126,
			"count":6785,
			"type":"VEC2"
		},
		{
			"bufferView":14,
			"componentType":5126,
			"count":6785,
			"type":"VEC3"
		},
		{
			"bufferView":15,
			"componentType":5123,
			"count":22959,
			"type":"SCALAR"
		},
		{
			"bufferView":16,
			"componentType":5126,
			"count":6381,
			"max":[
				13.866514205932617,
				-11.275184631347656,
				9.886863708496094
			],
			"min":[
				-12.236146926879883,
				-23.012907028198242,
				2.9894790649414062
			],
			"type":"VEC3"
		},
		{
			"bufferView":17,
			"componentType":5126,
			"count":6381,
			"type":"VEC2"
		},
		{
			"bufferView":18,
			"componentType":5126,
			"count":6381,
			"type":"VEC3"
		},
		{
			"bufferView":19,
			"componentType":5123,
			"count":29964,
			"type":"SCALAR"
		},
		{
			"bufferView":20,
			"componentType":5126,
			"count":94,
			"max":[
				-4.891630172729492,
				12.354644775390625,
				20.631513595581055
			],
			"min":[
				-11.070555686950684,
				11.763567924499512,
				20.17547607421875
			],
			"type":"VEC3"
		},
		{
			"bufferView":21,
			"componentType":5126,
			"count":94,
			"type":"VEC2"
		},
		{
			"bufferView":22,
			"componentType":5126,
			"count":94,
			"type":"VEC3"
		},
		{
			"bufferView":23,
			"componentType":5123,
			"count":306,
			"type":"SCALAR"
		},
		{
			"bufferView":24,
			"componentType":5126,
			"count":4771,
			"max":[
				13.539579391479492,
				13.801188468933105,
				16.324493408203125
			],
			"min":[
				-13.539557456970215,
				-22.453231811523438,
				-6.000000212225132e-06
			],
			"type":"VEC3"
		},
		{
			"bufferView":25,
			"componentType":5126,
			"count":4771,
			"type":"VEC2"
		},
		{
			"bufferView":26,
			"componentType":5126,
			"count":4771,
			"type":"VEC3"
		},
		{
			"bufferView":27,
			"componentType":5123,
			"count":17916,
			"type":"SCALAR"
		},
		{
			"bufferView":28,
			"componentType":5126,
			"count":133,
			"max":[
				10.898560523986816,
				13.303698539733887,
				22.060009002685547
			],
			"min":[
				-10.065887451171875,
				4.04636287689209,
				14.667555809020996
			],
			"type":"VEC3"
		},
		{
			"bufferView":29,
			"componentType":5126,
			"count":133,
			"type":"VEC2"
		},
		{
			"bufferView":30,
			"componentType":5126,
			"count":133,
			"type":"VEC3"
		},
		{
			"bufferView":31,
			"componentType":5123,
			"count":648,
			"type":"SCALAR"
		},
		{
			"bufferView":32,
			"componentType":5126,
			"count":1952,
			"max":[
				18.8045597076416,
				16.85297393798828,
				21.354854583740234
			],
			"min":[
				-18.80454444885254,
				0.5602279901504517,
				9.153658866882324
			],
			"type":"VEC3"
		},
		{
			"bufferView":33,
			"componentType":5126,
			"count":1952,
			"type":"VEC2"
		},
		{
			"bufferView":34,
			"componentType":5126,
			"count":1952,
			"type":"VEC3"
		},
		{
			"bufferView":35,
			"componentType":5123,
			"count":8604,
			"type":"SCALAR"
		},
		{
			"bufferView":36,
			"componentType":5126,
			"count":775,
			"max":[
				13.790247917175293,
				8.318294525146484,
				20.284076690673828
			],
			"min":[
				-11.639135360717773,
				4.049026012420654,
				14.670220375061035
			],
			"type":"VEC3"
		},
		{
			"bufferView":37,
			"componentType":5126,
			"count":775,
			"type":"VEC2"
		},
		{
			"bufferView":38,
			"componentType":5126,
			"count":775,
			"type":"VEC3"
		},
		{
			"bufferView":39,
			"componentType":5123,
			"count":3240,
			"type":"SCALAR"
		},
		{
			"bufferView":40,
			"componentType":5126,
			"count":174,
			"max":[
				6.687668800354004,
				3.8804779052734375,
				16.258371353149414
			],
			"min":[
				-6.687646865844727,
				-2.2090229988098145,
				14.550015449523926
			],
			"type":"VEC3"
		},
		{
			"bufferView":41,
			"componentType":5126,
			"count":174,
			"type":"VEC2"
		},
		{
			"bufferView":42,
			"componentType":5126,
			"count":174,
			"type":"VEC3"
		},
		{
			"bufferView":43,
			"componentType":5123,
			"count":708,
			"type":"SCALAR"
		},
		{
			"bufferView":44,
			"componentType":5126,
			"count":561,
			"max":[
				2.252751111984253,
				-10.773977279663086,
				14.999923706054688
			],
			"min":[
				-2.253009080886841,
				-11.833996772766113,
				12.84181022644043
			],
			"type":"VEC3"
		},
		{
			"bufferView":45,
			"componentType":5126,
			"count":561,
			"type":"VEC2"
		},
		{
			"bufferView":46,
			"componentType":5126,
			"count":561,
			"type":"VEC3"
		},
		{
			"bufferView":47,
			"componentType":5123,
			"count":2880,
			"type":"SCALAR"
		},
		{
			"bufferView":48,
			"componentType":5126,
			"count":41,
			"max":[
				1.6666666666666667
			],
			"min":[
				0
			],
			"type":"SCALAR"
		},
		{
			"bufferView":49,
			"componentType":5126,
			"count":41,
			"type":"VEC3"
		},
		{
			"bufferView":50,
			"componentType":5126,
			"count":41,
			"type":"VEC4"
		},
		{
			"bufferView":51,
			"componentType":5126,
			"count":41,
			"type":"VEC3"
		}
	],
	"bufferViews":[
		{
			"buffer":0,
			"byteLength":189492,
			"byteOffset":0,
			"target":34962
		},
		{
			"buffer":0,
			"byteLength":126328,
			"byteOffset":189492,
			"target":34962
		},
		{
			"buffer":0,
			"byteLength":189492,
			"byteOffset":315820,
			"target":34962
		},
		{
			"buffer":0,
			"byteLength":92640,
			"byteOffset":505312,
			"target":34963
		},
		{
			"buffer":0,
			"byteLength":564936,
			"byteOffset":597952,
			"target":34962
		},
		{
			"buffer":0,
			"byteLength":376624,
			"byteOffset":1162888,
			"target":34962
		},
		{
			"buffer":0,
			"byteLength":564936,
			"byteOffset":1539512,
			"target":34962
		},
		{
			"buffer":0,
			"byteLength":445008,
			"byteOffset":2104448,
			"target":34963
		},
		{
			"buffer":0,
			"byteLength":480,
			"byteOffset":2549456,
			"target":34962
		},
		{
			"buffer":0,
			"byteLength":320,
			"byteOffset":2549936,
			"target":34962
		},
		{
			"buffer":0,
			"byteLength":480,
			"byteOffset":2550256,
			"target":34962
		},
		{
			"buffer":0,
			"byteLength":324,
			"byteOffset":2550736,
			"target":34963
		},
		{
			"buffer":0,
			"byteLength":81420,
			"byteOffset":2551060,
			"target":34962
		},
		{
			"buffer":0,
			"byteLength":54280,
			"byteOffset":2632480,
			"target":34962
		},
		{
			"buffer":0,
			"byteLength":81420,
			"byteOffset":2686760,
			"target":34962
		},
		{
			"buffer":0,
			"byteLength":45918,
			"byteOffset":2768180,
			"target":34963
		},
		{
			"buffer":0,
			"byteLength":76572,
			"byteOffset":2814100,
			"target":34962
		},
		{
			"buffer":0,
			"byteLength":51048,
			"byteOffset":2890672,
			"target":34962
		},
		{
			"buffer":0,
			"byteLength":76572,
			"byteOffset":2941720,
			"target":34962
		},
		{
			"buffer":0,
			"byteLength":59928,
			"byteOffset":3018292,
			"target":34963
		},
		{
			"buffer":0,
			"byteLength":1128,
			"byteOffset":3078220,
			"target":34962
		},
		{
			"buffer":0,
			"byteLength":752,
			"byteOffset":3079348,
			"target":34962
		},
		{
			"buffer":0,
			"byteLength":1128,
			"byteOffset":3080100,
			"target":34962
		},
		{
			"buffer":0,
			"byteLength":612,
			"byteOffset":3081228,
			"target":34963
		},
		{
			"buffer":0,
			"byteLength":57252,
			"byteOffset":3081840,
			"target":34962
		},
		{
			"buffer":0,
			"byteLength":38168,
			"byteOffset":3139092,
			"target":34962
		},
		{
			"buffer":0,
			"byteLength":57252,
			"byteOffset":3177260,
			"target":34962
		},
		{
			"buffer":0,
			"byteLength":35832,
			"byteOffset":3234512,
			"target":34963
		},
		{
			"buffer":0,
			"byteLength":1596,
			"byteOffset":3270344,
			"target":34962
		},
		{
			"buffer":0,
			"byteLength":1064,
			"byteOffset":3271940,
			"target":34962
		},
		{
			"buffer":0,
			"byteLength":1596,
			"byteOffset":3273004,
			"target":34962
		},
		{
			"buffer":0,
			"byteLength":1296,
			"byteOffset":3274600,
			"target":34963
		},
		{
			"buffer":0,
			"byteLength":23424,
			"byteOffset":3275896,
			"target":34962
		},
		{
			"buffer":0,
			"byteLength":15616,
			"byteOffset":3299320,
			"target":34962
		},
		{
			"buffer":0,
			"byteLength":23424,
			"byteOffset":3314936,
			"target":34962
		},
		{
			"buffer":0,
			"byteLength":17208,
			"byteOffset":3338360,
			"target":34963
		},
		{
			"buffer":0,
			"byteLength":9300,
			"byteOffset":3355568,
			"target":34962
		},
		{
			"buffer":0,
			"byteLength":6200,
			"byteOffset":3364868,
			"target":34962
		},
		{
			"buffer":0,
			"byteLength":9300,
			"byteOffset":3371068,
			"target":34962
		},
		{
			"buffer":0,
			"byteLength":6480,
			"byteOffset":3380368,
			"target":34963
		},
		{
			"buffer":0,
			"byteLength":2088,
			"byteOffset":3386848,
			"target":34962
		},
		{
			"buffer":0,
			"byteLength":1392,
			"byteOffset":3388936,
			"target":34962
		},
		{
			"buffer":0,
			"byteLength":2088,
			"byteOffset":3390328,
			"target":34962
		},
		{
			"buffer":0,
			"byteLength":1416,
			"byteOffset":3392416,
			"target":34963
		},
		{
			"buffer":0,
			"byteLength":6732,
			"byteOffset":3393832,
			"target":34962
		},
		{
			"buffer":0,
			"byteLength":4488,
			"byteOffset":3400564,
			"target":34962
		},
		{
			"buffer":0,
			"byteLength":6732,
			"byteOffset":3405052,
			"target":34962
		},
		{
			"buffer":0,
			"byteLength":5760,
			"byteOffset":3411784,
			"target":34963
		},
		{
			"buffer":0,
			"byteLength":164,
			"byteOffset":3417544
		},
		{
			"buffer":0,
			"byteLength":492,
			"byteOffset":3417708
		},
		{
			"buffer":0,
			"byteLength":656,
			"byteOffset":3418200
		},
		{
			"buffer":0,
			"byteLength":492,
			"byteOffset":3418856
		}
	],
	"samplers":[
		{
			"magFilter":9729,
			"minFilter":9987
		}
	],
	"buffers":[
		{
			"byteLength":3419348,
			"uri":"typewriterFr.bin"
		}
	]
}
