{
	"asset":{
		"generator":"Khronos glTF Blender I/O v3.5.30",
		"version":"2.0"
	},
	"scene":0,
	"scenes":[
		{
			"name":"Scene",
			"nodes":[
				0
			]
		}
	],
	"nodes":[
		{
			"mesh":0,
			"name":"p.0045",
			"translation":[
				0.04356515035033226,
				0.6846038699150085,
				-0.29942843317985535
			]
		}
	],
	"materials":[
		{
			"doubleSided":true,
			"name":"Standard_BDBAE3",
			"pbrMetallicRoughness":{
				"baseColorFactor":[
					0.7411764860153198,
					0.729411780834198,
					0.8901960849761963,
					1
				],
				"metallicFactor":0,
				"roughnessFactor":0.5527864098548889
			}
		}
	],
	"meshes":[
		{
			"name":"p.0045",
			"primitives":[
				{
					"attributes":{
						"POSITION":0,
						"TEXCOORD_0":1,
						"TEXCOORD_1":2,
						"NORMAL":3
					},
					"indices":4,
					"material":0
				}
			]
		}
	],
	"accessors":[
		{
			"bufferView":0,
			"componentType":5126,
			"count":30268,
			"max":[
				0.32743868231773376,
				1.4953937530517578,
				0.48388880491256714
			],
			"min":[
				-0.833903431892395,
				-0.6464711427688599,
				-0.48978835344314575
			],
			"type":"VEC3"
		},
		{
			"bufferView":1,
			"componentType":5126,
			"count":30268,
			"type":"VEC2"
		},
		{
			"bufferView":2,
			"componentType":5126,
			"count":30268,
			"type":"VEC2"
		},
		{
			"bufferView":3,
			"componentType":5126,
			"count":30268,
			"type":"VEC3"
		},
		{
			"bufferView":4,
			"componentType":5123,
			"count":151200,
			"type":"SCALAR"
		}
	],
	"bufferViews":[
		{
			"buffer":0,
			"byteLength":363216,
			"byteOffset":0,
			"target":34962
		},
		{
			"buffer":0,
			"byteLength":242144,
			"byteOffset":363216,
			"target":34962
		},
		{
			"buffer":0,
			"byteLength":242144,
			"byteOffset":605360,
			"target":34962
		},
		{
			"buffer":0,
			"byteLength":363216,
			"byteOffset":847504,
			"target":34962
		},
		{
			"buffer":0,
			"byteLength":302400,
			"byteOffset":1210720,
			"target":34963
		}
	],
	"buffers":[
		{
			"byteLength":1513120,
			"uri":"lamp.bin"
		}
	]
}
