{
  "accessors": [
    {
      "bufferView": 2,
      "componentType": 5126,
      "count": 590,
      "max": [
        2.9034252166748047,
        2.9034266471862793,
        56.69377899169922
      ],
      "min": [
        -2.903425931930542,
        -2.903425931930542,
        0.0
      ],
      "type": "VEC3"
    },
    {
      "bufferView": 2,
      "byteOffset": 7080,
      "componentType": 5126,
      "count": 590,
      "max": [
        1.0,
        1.0,
        1.0
      ],
      "min": [
        -1.0,
        -1.0,
        -1.0
      ],
      "type": "VEC3"
    },
    {
      "bufferView": 1,
      "componentType": 5126,
      "count": 590,
      "max": [
        0.9674307107925415,
        0.9885218739509583
      ],
      "min": [
        0.0335359126329422,
        0.014592290855944157
      ],
      "type": "VEC2"
    },
    {
      "bufferView": 0,
      "componentType": 5125,
      "count": 2772,
      "type": "SCALAR"
    },
    {
      "bufferView": 2,
      "byteOffset": 14160,
      "componentType": 5126,
      "count": 329,
      "max": [
        3.3467748165130615,
        3.3467748165130615,
        29.08806610107422
      ],
      "min": [
        -3.3467748165130615,
        -3.8870091438293457,
        0.0
      ],
      "type": "VEC3"
    },
    {
      "bufferView": 2,
      "byteOffset": 18108,
      "componentType": 5126,
      "count": 329,
      "max": [
        0.9999521970748901,
        0.9999521970748901,
        1.0
      ],
      "min": [
        -0.9999521970748901,
        -0.9999521970748901,
        -1.0
      ],
      "type": "VEC3"
    },
    {
      "bufferView": 1,
      "byteOffset": 4720,
      "componentType": 5126,
      "count": 329,
      "max": [
        0.9729685187339783,
        0.9165128469467163
      ],
      "min": [
        0.027657803148031235,
        0.06677427887916565
      ],
      "type": "VEC2"
    },
    {
      "bufferView": 0,
      "byteOffset": 11088,
      "componentType": 5125,
      "count": 1632,
      "type": "SCALAR"
    }
  ],
  "asset": {
    "extras": {
      "author": "Etherlyte (https://sketchfab.com/etherlyte)",
      "license": "CC-BY-4.0 (http://creativecommons.org/licenses/by/4.0/)",
      "source": "https://sketchfab.com/3d-models/fountain-pen-196c00b1bb5d4958816a17e8947bd65a",
      "title": "Fountain Pen"
    },
    "generator": "Sketchfab-12.67.0",
    "version": "2.0"
  },
  "bufferViews": [
    {
      "buffer": 0,
      "byteLength": 17616,
      "name": "floatBufferViews",
      "target": 34963
    },
    {
      "buffer": 0,
      "byteLength": 7352,
      "byteOffset": 17616,
      "byteStride": 8,
      "name": "floatBufferViews",
      "target": 34962
    },
    {
      "buffer": 0,
      "byteLength": 22056,
      "byteOffset": 24968,
      "byteStride": 12,
      "name": "floatBufferViews",
      "target": 34962
    }
  ],
  "buffers": [
    {
      "byteLength": 47024,
      "uri": "scene.bin"
    }
  ],
  "images": [
    {
      "uri": "textures/Material_28_baseColor.png"
    },
    {
      "uri": "textures/Material_28_metallicRoughness.png"
    },
    {
      "uri": "textures/Material_29_baseColor.png"
    },
    {
      "uri": "textures/Material_29_metallicRoughness.png"
    }
  ],
  "materials": [
    {
      "doubleSided": true,
      "name": "Material_28",
      "pbrMetallicRoughness": {
        "baseColorTexture": {
          "index": 0
        },
        "metallicRoughnessTexture": {
          "index": 1
        }
      }
    },
    {
      "doubleSided": true,
      "name": "Material_29",
      "pbrMetallicRoughness": {
        "baseColorTexture": {
          "index": 2
        },
        "metallicFactor": 0.7700076219512195,
        "metallicRoughnessTexture": {
          "index": 3
        }
      }
    }
  ],
  "meshes": [
    {
      "name": "Cylinder001_Material #28_0",
      "primitives": [
        {
          "attributes": {
            "NORMAL": 1,
            "POSITION": 0,
            "TEXCOORD_0": 2
          },
          "indices": 3,
          "material": 0,
          "mode": 4
        }
      ]
    },
    {
      "name": "Cylinder002_Material #29_0",
      "primitives": [
        {
          "attributes": {
            "NORMAL": 5,
            "POSITION": 4,
            "TEXCOORD_0": 6
          },
          "indices": 7,
          "material": 1,
          "mode": 4
        }
      ]
    }
  ],
  "nodes": [
    {
      "children": [
        1
      ],
      "matrix": [
        0.000343265921553447,
        -0.0675818414768159,
        -1.1460403054578682e-07,
        0.0,
        0.0675818414768159,
        0.000343265921553447,
        5.8210388697987e-10,
        0.0,
        3.0012752983939113e-17,
        -1.1460550573262168e-07,
        0.06758271157741547,
        0.0,
        -20.50859832763672,
        9.03497505187989,
        -29.701602935791012,
        1.0
      ],
      "name": "Sketchfab_model"
    },
    {
      "children": [
        2
      ],
      "matrix": [
        1.0,
        0.0,
        0.0,
        0.0,
        0.0,
        0.0,
        1.0,
        0.0,
        0.0,
        -1.0,
        0.0,
        0.0,
        0.0,
        0.0,
        0.0,
        1.0
      ],
      "name": "2eae3c73d5f243b0a8f8a81320782f3e.fbx"
    },
    {
      "children": [
        3,
        6
      ],
      "name": "RootNode"
    },
    {
      "children": [
        4
      ],
      "matrix": [
        -0.9659257959444179,
        2.3849760971694778e-08,
        0.25881915835027014,
        0.0,
        0.25881915835027125,
        8.742277535223053e-08,
        0.965925795944414,
        0.0,
        4.104102335755755e-10,
        0.9999999999999959,
        -9.061668881926721e-08,
        0.0,
        -14.786744117736816,
        28.21222686767578,
        0.4766578674316406,
        1.0
      ],
      "name": "Cylinder001"
    },
    {
      "children": [
        5
      ],
      "matrix": [
        1.0,
        0.0,
        -0.0,
        0.0,
        0.0,
        1.0,
        0.0,
        0.0,
        0.0,
        0.0,
        1.0,
        0.0,
        4.899006853520405e-07,
        -3.5762786865234375e-07,
        -28.335033416748047,
        1.0
      ],
      "name": "Object_4"
    },
    {
      "mesh": 0,
      "name": "Cylinder001_Material #28_0"
    },
    {
      "children": [
        7
      ],
      "matrix": [
        0.9659257546987301,
        0.0,
        -0.2588193122811524,
        0.0,
        -0.2588193122811524,
        1.1102230246251565e-16,
        -0.9659257546987301,
        0.0,
        0.0,
        1.0,
        1.1102230246251565e-16,
        0.0,
        -27.488523483276367,
        46.52790832519531,
        0.7674703598022461,
        1.0
      ],
      "name": "Cylinder002"
    },
    {
      "children": [
        8
      ],
      "matrix": [
        1.0,
        0.0,
        -0.0,
        0.0,
        0.0,
        1.0,
        0.0,
        0.0,
        0.0,
        0.0,
        1.0,
        0.0,
        -7.227063179016113e-07,
        0.2685466408729553,
        -14.544032096862793,
        1.0
      ],
      "name": "Object_7"
    },
    {
      "mesh": 1,
      "name": "Cylinder002_Material #29_0"
    }
  ],
  "samplers": [
    {
      "magFilter": 9729,
      "minFilter": 9987,
      "wrapS": 10497,
      "wrapT": 10497
    }
  ],
  "scene": 0,
  "scenes": [
    {
      "name": "Sketchfab_Scene",
      "nodes": [
        0
      ]
    }
  ],
  "textures": [
    {
      "sampler": 0,
      "source": 0
    },
    {
      "sampler": 0,
      "source": 1
    },
    {
      "sampler": 0,
      "source": 2
    },
    {
      "sampler": 0,
      "source": 3
    }
  ]
}
