<svg width="1104" height="276" viewBox="0 0 1104 276" fill="none" xmlns="http://www.w3.org/2000/svg">
<path d="M464.68 21V14.44H456.48V21H455.26V7H456.48V13.28H464.68V7H465.9V21H464.68ZM474.756 21.26C471.556 21.26 469.316 19.02 469.316 15.82C469.316 12.64 471.556 10.4 474.756 10.4C477.936 10.4 480.176 12.64 480.176 15.82C480.176 19.02 477.936 21.26 474.756 21.26ZM470.476 15.82C470.476 18.38 472.216 20.14 474.756 20.14C477.276 20.14 479.016 18.38 479.016 15.82C479.016 13.28 477.276 11.52 474.756 11.52C472.216 11.52 470.476 13.28 470.476 15.82ZM485.109 21L481.389 10.66H482.629L485.689 19.26L487.149 15.5L489.009 10.66H490.089L491.969 15.5L493.429 19.26L496.509 10.66H497.729L493.989 21H492.869L491.089 16.38L489.549 12.36L486.229 21H485.109ZM509.05 21.26C505.93 21.26 503.75 18.96 503.75 15.82C503.75 12.68 505.93 10.4 509.05 10.4C510.95 10.4 512.49 11.24 513.41 12.58V6.2H514.57V21H513.61L513.47 18.96C512.57 20.38 510.99 21.26 509.05 21.26ZM504.91 15.82C504.91 18.36 506.65 20.14 509.19 20.14C511.71 20.14 513.45 18.36 513.45 15.82C513.45 13.3 511.71 11.52 509.19 11.52C506.65 11.52 504.91 13.3 504.91 15.82ZM523.233 21.26C520.033 21.26 517.793 19.02 517.793 15.82C517.793 12.64 520.033 10.4 523.233 10.4C526.413 10.4 528.653 12.64 528.653 15.82C528.653 19.02 526.413 21.26 523.233 21.26ZM518.953 15.82C518.953 18.38 520.693 20.14 523.233 20.14C525.753 20.14 527.493 18.38 527.493 15.82C527.493 13.28 525.753 11.52 523.233 11.52C520.693 11.52 518.953 13.28 518.953 15.82ZM538.39 21L534.67 10.66H535.91L538.97 19.26L540.43 15.5L542.29 10.66H543.37L545.25 15.5L546.71 19.26L549.79 10.66H551.01L547.27 21H546.15L544.37 16.38L542.83 12.36L539.51 21H538.39ZM557.506 21.26C554.366 21.26 552.226 19.04 552.226 15.82C552.226 12.62 554.386 10.4 557.526 10.4C560.786 10.4 562.886 12.8 562.806 16.3H553.406C553.606 18.64 555.206 20.16 557.506 20.16C559.186 20.16 560.526 19.38 561.206 18.04L562.506 18.06C561.706 20.04 559.826 21.26 557.506 21.26ZM553.406 15.28H561.666C561.386 12.94 559.786 11.5 557.526 11.5C555.226 11.5 553.606 13 553.406 15.28ZM570.861 21V10.66H571.841L571.961 12.98C572.661 11.42 573.841 10.66 575.761 10.66H576.621V11.74H575.721C573.501 11.74 572.021 13.1 572.021 16.24V21H570.861ZM583.112 21.26C579.972 21.26 577.832 19.04 577.832 15.82C577.832 12.62 579.992 10.4 583.132 10.4C586.392 10.4 588.492 12.8 588.412 16.3H579.012C579.212 18.64 580.812 20.16 583.112 20.16C584.792 20.16 586.132 19.38 586.812 18.04L588.112 18.06C587.312 20.04 585.432 21.26 583.112 21.26ZM579.012 15.28H587.272C586.992 12.94 585.392 11.5 583.132 11.5C580.832 11.5 579.212 13 579.012 15.28ZM594.687 21.16C592.287 21.16 590.787 19.98 590.787 18.08C590.787 16.24 592.187 15.08 594.307 15.08H598.867V14.34C598.867 12.62 597.607 11.48 595.687 11.48C594.127 11.48 592.907 12.28 592.487 13.52H591.307C591.807 11.6 593.467 10.4 595.667 10.4C598.247 10.4 600.027 11.98 600.027 14.28V21H599.067L598.947 19.22C598.047 20.46 596.527 21.16 594.687 21.16ZM591.947 18.06C591.947 19.32 593.007 20.12 594.727 20.12C597.127 20.12 598.887 18.62 598.887 16.54V16.1H594.347C592.927 16.1 591.947 16.88 591.947 18.06ZM608.307 21.26C605.207 21.26 603.027 19 603.027 15.82C603.027 12.64 605.207 10.4 608.307 10.4C610.767 10.4 612.787 11.86 613.387 14.1H612.207C611.527 12.46 610.087 11.52 608.307 11.52C605.867 11.52 604.187 13.28 604.187 15.82C604.187 18.38 605.867 20.14 608.307 20.14C610.207 20.14 611.687 19.08 612.267 17.38H613.487C612.787 19.8 610.847 21.26 608.307 21.26ZM616.642 21V6.2H617.802V12.54C618.622 11.12 620.062 10.4 621.682 10.4C624.362 10.4 626.002 12.26 626.002 15.24V21H624.842V15.34C624.842 12.96 623.582 11.52 621.522 11.52C619.342 11.52 617.802 13.14 617.802 15.62V21H616.642ZM639.327 21.26C636.127 21.26 633.887 19.02 633.887 15.82C633.887 12.64 636.127 10.4 639.327 10.4C642.507 10.4 644.747 12.64 644.747 15.82C644.747 19.02 642.507 21.26 639.327 21.26ZM635.047 15.82C635.047 18.38 636.787 20.14 639.327 20.14C641.847 20.14 643.587 18.38 643.587 15.82C643.587 13.28 641.847 11.52 639.327 11.52C636.787 11.52 635.047 13.28 635.047 15.82ZM652.05 21.26C649.39 21.26 647.75 19.36 647.75 16.38V10.66H648.91V16.28C648.91 18.64 650.17 20.14 652.21 20.14C654.35 20.14 655.83 18.46 655.83 16V10.66H656.99V21H656.03L655.91 18.98C655.11 20.48 653.67 21.26 652.05 21.26ZM665.315 21C663.115 21 661.935 19.76 661.935 17.42V11.72H659.675V10.66H660.995C661.775 10.66 661.995 10.46 662.075 9.7L662.175 8.12H663.095V10.66H666.675V11.72H663.095V17.38C663.095 19.08 663.795 19.88 665.355 19.88H666.815V21H665.315ZM678.889 21C676.689 21 675.509 19.76 675.509 17.42V11.72H673.249V10.66H674.569C675.349 10.66 675.569 10.46 675.649 9.7L675.749 8.12H676.669V10.66H680.249V11.72H676.669V17.38C676.669 19.08 677.369 19.88 678.929 19.88H680.389V21H678.889ZM687.53 21.26C684.33 21.26 682.09 19.02 682.09 15.82C682.09 12.64 684.33 10.4 687.53 10.4C690.71 10.4 692.95 12.64 692.95 15.82C692.95 19.02 690.71 21.26 687.53 21.26ZM683.25 15.82C683.25 18.38 684.99 20.14 687.53 20.14C690.05 20.14 691.79 18.38 691.79 15.82C691.79 13.28 690.05 11.52 687.53 11.52C684.99 11.52 683.25 13.28 683.25 15.82ZM704.67 21C702.47 21 701.29 19.76 701.29 17.42V11.72H699.03V10.66H700.35C701.13 10.66 701.35 10.46 701.43 9.7L701.53 8.12H702.45V10.66H706.03V11.72H702.45V17.38C702.45 19.08 703.15 19.88 704.71 19.88H706.17V21H704.67ZM709.279 21V6.2H710.439V12.54C711.259 11.12 712.699 10.4 714.319 10.4C716.999 10.4 718.639 12.26 718.639 15.24V21H717.479V15.34C717.479 12.96 716.219 11.52 714.159 11.52C711.979 11.52 710.439 13.14 710.439 15.62V21H709.279ZM726.92 21.26C723.78 21.26 721.64 19.04 721.64 15.82C721.64 12.62 723.8 10.4 726.94 10.4C730.2 10.4 732.3 12.8 732.22 16.3H722.82C723.02 18.64 724.62 20.16 726.92 20.16C728.6 20.16 729.94 19.38 730.62 18.04L731.92 18.06C731.12 20.04 729.24 21.26 726.92 21.26ZM722.82 15.28H731.08C730.8 12.94 729.2 11.5 726.94 11.5C724.64 11.5 723.02 13 722.82 15.28ZM744.257 21.26C741.597 21.26 739.957 19.36 739.957 16.38V10.66H741.117V16.28C741.117 18.64 742.377 20.14 744.417 20.14C746.557 20.14 748.037 18.46 748.037 16V10.66H749.197V21H748.237L748.117 18.98C747.317 20.48 745.877 21.26 744.257 21.26ZM756.882 21.26C754.262 21.26 752.602 19.94 752.522 17.88H753.662C753.782 19.34 754.922 20.2 756.902 20.2C758.722 20.2 759.822 19.5 759.822 18.36C759.822 17.28 758.842 16.62 756.642 16.24C753.942 15.78 752.722 14.82 752.722 13.24C752.722 11.48 754.222 10.4 756.642 10.4C759.082 10.4 760.622 11.56 760.782 13.54H759.622C759.502 12.18 758.442 11.44 756.642 11.44C754.922 11.44 753.882 12.14 753.882 13.26C753.882 14.28 754.742 14.84 757.042 15.28C759.662 15.78 760.962 16.82 760.962 18.38C760.962 20.12 759.382 21.26 756.882 21.26ZM768.698 21.26C765.558 21.26 763.418 19.04 763.418 15.82C763.418 12.62 765.578 10.4 768.718 10.4C771.978 10.4 774.078 12.8 773.998 16.3H764.598C764.798 18.64 766.398 20.16 768.698 20.16C770.378 20.16 771.718 19.38 772.398 18.04L773.698 18.06C772.898 20.04 771.018 21.26 768.698 21.26ZM764.598 15.28H772.858C772.578 12.94 770.978 11.5 768.718 11.5C766.418 11.5 764.798 13 764.598 15.28ZM777.169 21V10.66H778.149L778.269 12.98C778.969 11.42 780.149 10.66 782.069 10.66H782.929V11.74H782.029C779.809 11.74 778.329 13.1 778.329 16.24V21H777.169ZM459.6 54.26C457.06 54.26 455.18 52.92 454.78 50.82H455.96C456.3 52.26 457.7 53.16 459.6 53.16C461.98 53.16 463.5 51.76 463.5 49.54V47.86C462.58 49.12 461.1 49.88 459.34 49.88C456.32 49.88 454.16 47.68 454.16 44.64C454.16 41.6 456.32 39.4 459.34 39.4C461.16 39.4 462.66 40.2 463.58 41.52L463.68 39.66H464.66V49.58C464.66 52.36 462.62 54.26 459.6 54.26ZM455.32 44.64C455.32 47.06 457.02 48.74 459.46 48.74C461.88 48.74 463.58 47.06 463.58 44.64C463.58 42.22 461.88 40.52 459.46 40.52C457.02 40.52 455.32 42.22 455.32 44.64ZM468.771 50V39.66H469.751L469.871 41.98C470.571 40.42 471.751 39.66 473.671 39.66H474.531V40.74H473.631C471.411 40.74 469.931 42.1 469.931 45.24V50H468.771ZM481.182 50.26C477.982 50.26 475.742 48.02 475.742 44.82C475.742 41.64 477.982 39.4 481.182 39.4C484.362 39.4 486.602 41.64 486.602 44.82C486.602 48.02 484.362 50.26 481.182 50.26ZM476.902 44.82C476.902 47.38 478.642 49.14 481.182 49.14C483.702 49.14 485.442 47.38 485.442 44.82C485.442 42.28 483.702 40.52 481.182 40.52C478.642 40.52 476.902 42.28 476.902 44.82ZM493.906 50.26C491.246 50.26 489.606 48.36 489.606 45.38V39.66H490.766V45.28C490.766 47.64 492.026 49.14 494.066 49.14C496.206 49.14 497.686 47.46 497.686 45V39.66H498.846V50H497.886L497.766 47.98C496.966 49.48 495.526 50.26 493.906 50.26ZM508.49 50.26C506.59 50.26 505.05 49.4 504.13 48.04V54H502.97V39.66H503.95L504.07 41.72C504.97 40.28 506.55 39.4 508.49 39.4C511.63 39.4 513.79 41.68 513.79 44.82C513.79 47.96 511.63 50.26 508.49 50.26ZM504.09 44.82C504.09 47.36 505.83 49.14 508.37 49.14C510.91 49.14 512.63 47.36 512.63 44.82C512.63 42.3 510.91 40.52 508.37 40.52C505.83 40.52 504.09 42.3 504.09 44.82ZM519.504 45.64C519.504 44.26 520.064 43.38 521.564 42.46C523.044 41.52 523.564 40.76 523.564 39.56C523.564 37.9 522.404 36.9 520.424 36.9C518.464 36.9 517.184 37.92 517.084 39.64H515.904C516.044 37.22 517.744 35.74 520.384 35.74C523.004 35.74 524.744 37.24 524.744 39.52C524.744 41.04 523.984 42.24 522.204 43.36C521.004 44.1 520.684 44.64 520.684 45.72V46.16H519.504V45.64ZM519.024 49.08C519.024 48.46 519.464 48.04 520.104 48.04C520.724 48.04 521.164 48.46 521.164 49.08C521.164 49.7 520.724 50.12 520.104 50.12C519.464 50.12 519.024 49.7 519.024 49.08Z" fill="black"/>
<path d="M213.06 224L208.48 210H209.76L211.84 216.38L213.68 222.1L215.78 216.38L218.1 210H219.26L223.7 222.12L225.56 216.38L227.62 210H228.9L224.3 224H223.16L218.68 211.84L216.2 218.6L214.22 224H213.06ZM231.447 224V209.2H232.607V215.54C233.427 214.12 234.867 213.4 236.487 213.4C239.167 213.4 240.807 215.26 240.807 218.24V224H239.647V218.34C239.647 215.96 238.387 214.52 236.327 214.52C234.147 214.52 232.607 216.14 232.607 218.62V224H231.447ZM247.948 224.16C245.548 224.16 244.048 222.98 244.048 221.08C244.048 219.24 245.448 218.08 247.568 218.08H252.128V217.34C252.128 215.62 250.868 214.48 248.948 214.48C247.388 214.48 246.168 215.28 245.748 216.52H244.568C245.068 214.6 246.728 213.4 248.928 213.4C251.508 213.4 253.288 214.98 253.288 217.28V224H252.328L252.208 222.22C251.308 223.46 249.788 224.16 247.948 224.16ZM245.208 221.06C245.208 222.32 246.268 223.12 247.988 223.12C250.388 223.12 252.148 221.62 252.148 219.54V219.1H247.608C246.188 219.1 245.208 219.88 245.208 221.06ZM261.057 224C258.857 224 257.677 222.76 257.677 220.42V214.72H255.417V213.66H256.737C257.517 213.66 257.737 213.46 257.817 212.7L257.917 211.12H258.837V213.66H262.417V214.72H258.837V220.38C258.837 222.08 259.537 222.88 261.097 222.88H262.557V224H261.057ZM274.948 224.26C271.828 224.26 269.648 221.96 269.648 218.82C269.648 215.68 271.828 213.4 274.948 213.4C276.848 213.4 278.388 214.24 279.308 215.58V209.2H280.468V224H279.508L279.368 221.96C278.468 223.38 276.888 224.26 274.948 224.26ZM270.808 218.82C270.808 221.36 272.548 223.14 275.088 223.14C277.608 223.14 279.348 221.36 279.348 218.82C279.348 216.3 277.608 214.52 275.088 214.52C272.548 214.52 270.808 216.3 270.808 218.82ZM289.131 224.26C285.931 224.26 283.691 222.02 283.691 218.82C283.691 215.64 285.931 213.4 289.131 213.4C292.311 213.4 294.551 215.64 294.551 218.82C294.551 222.02 292.311 224.26 289.131 224.26ZM284.851 218.82C284.851 221.38 286.591 223.14 289.131 223.14C291.651 223.14 293.391 221.38 293.391 218.82C293.391 216.28 291.651 214.52 289.131 214.52C286.591 214.52 284.851 216.28 284.851 218.82ZM302.155 224.26C299.015 224.26 296.875 222.04 296.875 218.82C296.875 215.62 299.035 213.4 302.175 213.4C305.435 213.4 307.535 215.8 307.455 219.3H298.055C298.255 221.64 299.855 223.16 302.155 223.16C303.835 223.16 305.175 222.38 305.855 221.04L307.155 221.06C306.355 223.04 304.475 224.26 302.155 224.26ZM298.055 218.28H306.315C306.035 215.94 304.435 214.5 302.175 214.5C299.875 214.5 298.255 216 298.055 218.28ZM314.186 224.26C311.566 224.26 309.906 222.94 309.826 220.88H310.966C311.086 222.34 312.226 223.2 314.206 223.2C316.026 223.2 317.126 222.5 317.126 221.36C317.126 220.28 316.146 219.62 313.946 219.24C311.246 218.78 310.026 217.82 310.026 216.24C310.026 214.48 311.526 213.4 313.946 213.4C316.386 213.4 317.926 214.56 318.086 216.54H316.926C316.806 215.18 315.746 214.44 313.946 214.44C312.226 214.44 311.186 215.14 311.186 216.26C311.186 217.28 312.046 217.84 314.346 218.28C316.966 218.78 318.266 219.82 318.266 221.38C318.266 223.12 316.686 224.26 314.186 224.26ZM330.158 224C327.958 224 326.778 222.76 326.778 220.42V214.72H324.518V213.66H325.838C326.618 213.66 326.838 213.46 326.918 212.7L327.018 211.12H327.938V213.66H331.518V214.72H327.938V220.38C327.938 222.08 328.638 222.88 330.198 222.88H331.658V224H330.158ZM337.655 224.16C335.255 224.16 333.755 222.98 333.755 221.08C333.755 219.24 335.155 218.08 337.275 218.08H341.835V217.34C341.835 215.62 340.575 214.48 338.655 214.48C337.095 214.48 335.875 215.28 335.455 216.52H334.275C334.775 214.6 336.435 213.4 338.635 213.4C341.215 213.4 342.995 214.98 342.995 217.28V224H342.035L341.915 222.22C341.015 223.46 339.495 224.16 337.655 224.16ZM334.915 221.06C334.915 222.32 335.975 223.12 337.695 223.12C340.095 223.12 341.855 221.62 341.855 219.54V219.1H337.315C335.895 219.1 334.915 219.88 334.915 221.06ZM350.456 224.26C347.836 224.26 346.176 222.94 346.096 220.88H347.236C347.356 222.34 348.496 223.2 350.476 223.2C352.296 223.2 353.396 222.5 353.396 221.36C353.396 220.28 352.416 219.62 350.216 219.24C347.516 218.78 346.296 217.82 346.296 216.24C346.296 214.48 347.796 213.4 350.216 213.4C352.656 213.4 354.196 214.56 354.356 216.54H353.196C353.076 215.18 352.016 214.44 350.216 214.44C348.496 214.44 347.456 215.14 347.456 216.26C347.456 217.28 348.316 217.84 350.616 218.28C353.236 218.78 354.536 219.82 354.536 221.38C354.536 223.12 352.956 224.26 350.456 224.26ZM357.892 224V209.2H359.052V218.2H360.572C362.492 218.2 363.332 217.7 363.992 215.96L364.872 213.66H366.112L365.072 216.4C364.612 217.56 364.072 218.3 363.252 218.74L366.612 224H365.232L362.172 219.14C361.692 219.24 361.152 219.28 360.532 219.28H359.052V224H357.892ZM374.474 224V213.66H375.454L375.554 215.34C376.274 214.08 377.534 213.4 379.134 213.4C380.934 213.4 382.314 214.3 382.914 215.88C383.614 214.3 385.034 213.4 386.854 213.4C389.454 213.4 391.134 215.18 391.134 218.06V224H389.974V218.24C389.974 215.94 388.694 214.52 386.714 214.52C384.694 214.52 383.374 215.98 383.374 218.32V224H382.214V218.24C382.214 215.94 380.954 214.52 378.974 214.52C376.954 214.52 375.634 215.98 375.634 218.32V224H374.474ZM398.261 224.16C395.861 224.16 394.361 222.98 394.361 221.08C394.361 219.24 395.761 218.08 397.881 218.08H402.441V217.34C402.441 215.62 401.181 214.48 399.261 214.48C397.701 214.48 396.481 215.28 396.061 216.52H394.881C395.381 214.6 397.041 213.4 399.241 213.4C401.821 213.4 403.601 214.98 403.601 217.28V224H402.641L402.521 222.22C401.621 223.46 400.101 224.16 398.261 224.16ZM395.521 221.06C395.521 222.32 396.581 223.12 398.301 223.12C400.701 223.12 402.461 221.62 402.461 219.54V219.1H397.921C396.501 219.1 395.521 219.88 395.521 221.06ZM407.501 224V213.66H408.481L408.581 215.66C409.401 214.18 410.841 213.4 412.501 213.4C415.201 213.4 416.861 215.3 416.861 218.28V224H415.701V218.38C415.701 216 414.421 214.52 412.361 214.52C410.181 214.52 408.661 216.18 408.661 218.64V224H407.501ZM424.003 224.16C421.603 224.16 420.103 222.98 420.103 221.08C420.103 219.24 421.503 218.08 423.623 218.08H428.183V217.34C428.183 215.62 426.923 214.48 425.003 214.48C423.443 214.48 422.223 215.28 421.803 216.52H420.623C421.123 214.6 422.783 213.4 424.983 213.4C427.563 213.4 429.343 214.98 429.343 217.28V224H428.383L428.263 222.22C427.363 223.46 425.843 224.16 424.003 224.16ZM421.263 221.06C421.263 222.32 422.323 223.12 424.043 223.12C426.443 223.12 428.203 221.62 428.203 219.54V219.1H423.663C422.243 219.1 421.263 219.88 421.263 221.06ZM437.784 228.26C435.244 228.26 433.364 226.92 432.964 224.82H434.144C434.484 226.26 435.884 227.16 437.784 227.16C440.164 227.16 441.684 225.76 441.684 223.54V221.86C440.764 223.12 439.284 223.88 437.524 223.88C434.504 223.88 432.344 221.68 432.344 218.64C432.344 215.6 434.504 213.4 437.524 213.4C439.344 213.4 440.844 214.2 441.764 215.52L441.864 213.66H442.844V223.58C442.844 226.36 440.804 228.26 437.784 228.26ZM433.504 218.64C433.504 221.06 435.204 222.74 437.644 222.74C440.064 222.74 441.764 221.06 441.764 218.64C441.764 216.22 440.064 214.52 437.644 214.52C435.204 214.52 433.504 216.22 433.504 218.64ZM451.335 224.26C448.195 224.26 446.055 222.04 446.055 218.82C446.055 215.62 448.215 213.4 451.355 213.4C454.615 213.4 456.715 215.8 456.635 219.3H447.235C447.435 221.64 449.035 223.16 451.335 223.16C453.015 223.16 454.355 222.38 455.035 221.04L456.335 221.06C455.535 223.04 453.655 224.26 451.335 224.26ZM447.235 218.28H455.495C455.215 215.94 453.615 214.5 451.355 214.5C449.055 214.5 447.435 216 447.235 218.28ZM459.806 224V213.66H460.786L460.886 215.34C461.606 214.08 462.866 213.4 464.466 213.4C466.266 213.4 467.646 214.3 468.246 215.88C468.946 214.3 470.366 213.4 472.186 213.4C474.786 213.4 476.466 215.18 476.466 218.06V224H475.306V218.24C475.306 215.94 474.026 214.52 472.046 214.52C470.026 214.52 468.706 215.98 468.706 218.32V224H467.546V218.24C467.546 215.94 466.286 214.52 464.306 214.52C462.286 214.52 460.966 215.98 460.966 218.32V224H459.806ZM484.733 224.26C481.593 224.26 479.453 222.04 479.453 218.82C479.453 215.62 481.613 213.4 484.753 213.4C488.013 213.4 490.113 215.8 490.033 219.3H480.633C480.833 221.64 482.433 223.16 484.733 223.16C486.413 223.16 487.753 222.38 488.433 221.04L489.733 221.06C488.933 223.04 487.053 224.26 484.733 224.26ZM480.633 218.28H488.893C488.613 215.94 487.013 214.5 484.753 214.5C482.453 214.5 480.833 216 480.633 218.28ZM493.205 224V213.66H494.185L494.285 215.66C495.105 214.18 496.545 213.4 498.205 213.4C500.905 213.4 502.565 215.3 502.565 218.28V224H501.405V218.38C501.405 216 500.125 214.52 498.065 214.52C495.885 214.52 494.365 216.18 494.365 218.64V224H493.205ZM510.334 224C508.134 224 506.954 222.76 506.954 220.42V214.72H504.694V213.66H506.014C506.794 213.66 507.014 213.46 507.094 212.7L507.194 211.12H508.114V213.66H511.694V214.72H508.114V220.38C508.114 222.08 508.814 222.88 510.374 222.88H511.834V224H510.334ZM210.06 253V242.66H211.04L211.14 244.34C211.86 243.08 213.12 242.4 214.72 242.4C216.52 242.4 217.9 243.3 218.5 244.88C219.2 243.3 220.62 242.4 222.44 242.4C225.04 242.4 226.72 244.18 226.72 247.06V253H225.56V247.24C225.56 244.94 224.28 243.52 222.3 243.52C220.28 243.52 218.96 244.98 218.96 247.32V253H217.8V247.24C217.8 244.94 216.54 243.52 214.56 243.52C212.54 243.52 211.22 244.98 211.22 247.32V253H210.06ZM234.987 253.26C231.847 253.26 229.707 251.04 229.707 247.82C229.707 244.62 231.867 242.4 235.007 242.4C238.267 242.4 240.367 244.8 240.287 248.3H230.887C231.087 250.64 232.687 252.16 234.987 252.16C236.667 252.16 238.007 251.38 238.687 250.04L239.987 250.06C239.187 252.04 237.307 253.26 234.987 253.26ZM230.887 247.28H239.147C238.867 244.94 237.267 243.5 235.007 243.5C232.707 243.5 231.087 245 230.887 247.28ZM246.562 253.16C244.162 253.16 242.662 251.98 242.662 250.08C242.662 248.24 244.062 247.08 246.182 247.08H250.742V246.34C250.742 244.62 249.482 243.48 247.562 243.48C246.002 243.48 244.782 244.28 244.362 245.52H243.182C243.682 243.6 245.342 242.4 247.542 242.4C250.122 242.4 251.902 243.98 251.902 246.28V253H250.942L250.822 251.22C249.922 252.46 248.402 253.16 246.562 253.16ZM243.822 250.06C243.822 251.32 244.882 252.12 246.602 252.12C249.002 252.12 250.762 250.62 250.762 248.54V248.1H246.222C244.802 248.1 243.822 248.88 243.822 250.06ZM255.802 253V242.66H256.782L256.882 244.66C257.702 243.18 259.142 242.4 260.802 242.4C263.502 242.4 265.162 244.3 265.162 247.28V253H264.002V247.38C264.002 245 262.722 243.52 260.662 243.52C258.482 243.52 256.962 245.18 256.962 247.64V253H255.802ZM271.457 248.64C271.457 247.26 272.017 246.38 273.517 245.46C274.997 244.52 275.517 243.76 275.517 242.56C275.517 240.9 274.357 239.9 272.377 239.9C270.417 239.9 269.137 240.92 269.037 242.64H267.857C267.997 240.22 269.697 238.74 272.337 238.74C274.957 238.74 276.697 240.24 276.697 242.52C276.697 244.04 275.937 245.24 274.157 246.36C272.957 247.1 272.637 247.64 272.637 248.72V249.16H271.457V248.64ZM270.977 252.08C270.977 251.46 271.417 251.04 272.057 251.04C272.677 251.04 273.117 251.46 273.117 252.08C273.117 252.7 272.677 253.12 272.057 253.12C271.417 253.12 270.977 252.7 270.977 252.08Z" fill="black"/>
<path d="M657.06 239L652.48 225H653.76L655.84 231.38L657.68 237.1L659.78 231.38L662.1 225H663.26L667.7 237.12L669.56 231.38L671.62 225H672.9L668.3 239H667.16L662.68 226.84L660.2 233.6L658.22 239H657.06ZM675.447 239V224.2H676.607V230.54C677.427 229.12 678.867 228.4 680.487 228.4C683.167 228.4 684.807 230.26 684.807 233.24V239H683.647V233.34C683.647 230.96 682.387 229.52 680.327 229.52C678.147 229.52 676.607 231.14 676.607 233.62V239H675.447ZM691.948 239.16C689.548 239.16 688.048 237.98 688.048 236.08C688.048 234.24 689.448 233.08 691.568 233.08H696.128V232.34C696.128 230.62 694.868 229.48 692.948 229.48C691.388 229.48 690.168 230.28 689.748 231.52H688.568C689.068 229.6 690.728 228.4 692.928 228.4C695.508 228.4 697.288 229.98 697.288 232.28V239H696.328L696.208 237.22C695.308 238.46 693.788 239.16 691.948 239.16ZM689.208 236.06C689.208 237.32 690.268 238.12 691.988 238.12C694.388 238.12 696.148 236.62 696.148 234.54V234.1H691.608C690.188 234.1 689.208 234.88 689.208 236.06ZM705.057 239C702.857 239 701.677 237.76 701.677 235.42V229.72H699.417V228.66H700.737C701.517 228.66 701.737 228.46 701.817 227.7L701.917 226.12H702.837V228.66H706.417V229.72H702.837V235.38C702.837 237.08 703.537 237.88 705.097 237.88H706.557V239H705.057ZM715.017 239V228.66H715.997L716.097 230.34C716.817 229.08 718.077 228.4 719.677 228.4C721.477 228.4 722.857 229.3 723.457 230.88C724.157 229.3 725.577 228.4 727.397 228.4C729.997 228.4 731.677 230.18 731.677 233.06V239H730.517V233.24C730.517 230.94 729.237 229.52 727.257 229.52C725.237 229.52 723.917 230.98 723.917 233.32V239H722.757V233.24C722.757 230.94 721.497 229.52 719.517 229.52C717.497 229.52 716.177 230.98 716.177 233.32V239H715.017ZM739.944 239.26C736.804 239.26 734.664 237.04 734.664 233.82C734.664 230.62 736.824 228.4 739.964 228.4C743.224 228.4 745.324 230.8 745.244 234.3H735.844C736.044 236.64 737.644 238.16 739.944 238.16C741.624 238.16 742.964 237.38 743.644 236.04L744.944 236.06C744.144 238.04 742.264 239.26 739.944 239.26ZM735.844 233.28H744.104C743.824 230.94 742.224 229.5 739.964 229.5C737.664 229.5 736.044 231 735.844 233.28ZM752.283 239C750.083 239 748.903 237.76 748.903 235.42V229.72H746.643V228.66H747.963C748.743 228.66 748.963 228.46 749.043 227.7L749.143 226.12H750.063V228.66H753.643V229.72H750.063V235.38C750.063 237.08 750.763 237.88 752.323 237.88H753.783V239H752.283ZM756.892 239V224.2H758.052V230.54C758.872 229.12 760.312 228.4 761.932 228.4C764.612 228.4 766.252 230.26 766.252 233.24V239H765.092V233.34C765.092 230.96 763.832 229.52 761.772 229.52C759.592 229.52 758.052 231.14 758.052 233.62V239H756.892ZM774.694 239.26C771.494 239.26 769.254 237.02 769.254 233.82C769.254 230.64 771.494 228.4 774.694 228.4C777.874 228.4 780.114 230.64 780.114 233.82C780.114 237.02 777.874 239.26 774.694 239.26ZM770.414 233.82C770.414 236.38 772.154 238.14 774.694 238.14C777.214 238.14 778.954 236.38 778.954 233.82C778.954 231.28 777.214 229.52 774.694 229.52C772.154 229.52 770.414 231.28 770.414 233.82ZM787.737 239.26C784.617 239.26 782.437 236.96 782.437 233.82C782.437 230.68 784.617 228.4 787.737 228.4C789.637 228.4 791.177 229.24 792.097 230.58V224.2H793.257V239H792.297L792.157 236.96C791.257 238.38 789.677 239.26 787.737 239.26ZM783.597 233.82C783.597 236.36 785.337 238.14 787.877 238.14C790.397 238.14 792.137 236.36 792.137 233.82C792.137 231.3 790.397 229.52 787.877 229.52C785.337 229.52 783.597 231.3 783.597 233.82ZM800.94 239.26C798.32 239.26 796.66 237.94 796.58 235.88H797.72C797.84 237.34 798.98 238.2 800.96 238.2C802.78 238.2 803.88 237.5 803.88 236.36C803.88 235.28 802.9 234.62 800.7 234.24C798 233.78 796.78 232.82 796.78 231.24C796.78 229.48 798.28 228.4 800.7 228.4C803.14 228.4 804.68 229.56 804.84 231.54H803.68C803.56 230.18 802.5 229.44 800.7 229.44C798.98 229.44 797.94 230.14 797.94 231.26C797.94 232.28 798.8 232.84 801.1 233.28C803.72 233.78 805.02 234.82 805.02 236.38C805.02 238.12 803.44 239.26 800.94 239.26ZM816.538 239.16C814.138 239.16 812.638 237.98 812.638 236.08C812.638 234.24 814.038 233.08 816.158 233.08H820.718V232.34C820.718 230.62 819.458 229.48 817.538 229.48C815.978 229.48 814.758 230.28 814.338 231.52H813.158C813.658 229.6 815.318 228.4 817.518 228.4C820.098 228.4 821.878 229.98 821.878 232.28V239H820.918L820.798 237.22C819.898 238.46 818.378 239.16 816.538 239.16ZM813.798 236.06C813.798 237.32 814.858 238.12 816.578 238.12C818.978 238.12 820.738 236.62 820.738 234.54V234.1H816.198C814.778 234.1 813.798 234.88 813.798 236.06ZM825.779 239V228.66H826.759L826.879 230.98C827.579 229.42 828.759 228.66 830.679 228.66H831.539V229.74H830.639C828.419 229.74 826.939 231.1 826.939 234.24V239H825.779ZM838.03 239.26C834.89 239.26 832.75 237.04 832.75 233.82C832.75 230.62 834.91 228.4 838.05 228.4C841.31 228.4 843.41 230.8 843.33 234.3H833.93C834.13 236.64 835.73 238.16 838.03 238.16C839.71 238.16 841.05 237.38 841.73 236.04L843.03 236.06C842.23 238.04 840.35 239.26 838.03 239.26ZM833.93 233.28H842.19C841.91 230.94 840.31 229.5 838.05 229.5C835.75 229.5 834.13 231 833.93 233.28ZM854.998 239C852.798 239 851.618 237.76 851.618 235.42V229.72H849.358V228.66H850.678C851.458 228.66 851.678 228.46 851.758 227.7L851.858 226.12H852.778V228.66H856.358V229.72H852.778V235.38C852.778 237.08 853.478 237.88 855.038 237.88H856.498V239H854.998ZM859.607 239V224.2H860.767V230.54C861.587 229.12 863.027 228.4 864.647 228.4C867.327 228.4 868.967 230.26 868.967 233.24V239H867.807V233.34C867.807 230.96 866.547 229.52 864.487 229.52C862.307 229.52 860.767 231.14 860.767 233.62V239H859.607ZM877.249 239.26C874.109 239.26 871.969 237.04 871.969 233.82C871.969 230.62 874.129 228.4 877.269 228.4C880.529 228.4 882.629 230.8 882.549 234.3H873.149C873.349 236.64 874.949 238.16 877.249 238.16C878.929 238.16 880.269 237.38 880.949 236.04L882.249 236.06C881.449 238.04 879.569 239.26 877.249 239.26ZM873.149 233.28H881.409C881.129 230.94 879.529 229.5 877.269 229.5C874.969 229.5 873.349 231 873.149 233.28ZM885.72 239V228.66H886.7L886.82 230.98C887.52 229.42 888.7 228.66 890.62 228.66H891.48V229.74H890.58C888.36 229.74 886.88 231.1 886.88 234.24V239H885.72ZM897.971 239.26C894.831 239.26 892.691 237.04 892.691 233.82C892.691 230.62 894.851 228.4 897.991 228.4C901.251 228.4 903.351 230.8 903.271 234.3H893.871C894.071 236.64 895.671 238.16 897.971 238.16C899.651 238.16 900.991 237.38 901.671 236.04L902.971 236.06C902.171 238.04 900.291 239.26 897.971 239.26ZM893.871 233.28H902.131C901.851 230.94 900.251 229.5 897.991 229.5C895.691 229.5 894.071 231 893.871 233.28ZM911.544 227.46C911.544 225.1 912.704 223.94 915.004 223.94H916.624V225.04H915.104C913.424 225.04 912.704 225.78 912.704 227.54V228.66H916.524V229.72H912.704V239H911.544V229.72H909.184V228.66H911.544V227.46ZM923.092 239.26C919.892 239.26 917.652 237.02 917.652 233.82C917.652 230.64 919.892 228.4 923.092 228.4C926.272 228.4 928.512 230.64 928.512 233.82C928.512 237.02 926.272 239.26 923.092 239.26ZM918.812 233.82C918.812 236.38 920.552 238.14 923.092 238.14C925.612 238.14 927.352 236.38 927.352 233.82C927.352 231.28 925.612 229.52 923.092 229.52C920.552 229.52 918.812 231.28 918.812 233.82ZM931.736 239V228.66H932.716L932.836 230.98C933.536 229.42 934.716 228.66 936.636 228.66H937.496V229.74H936.596C934.376 229.74 932.896 231.1 932.896 234.24V239H931.736ZM949.041 239C946.841 239 945.661 237.76 945.661 235.42V229.72H943.401V228.66H944.721C945.501 228.66 945.721 228.46 945.801 227.7L945.901 226.12H946.821V228.66H950.401V229.72H946.821V235.38C946.821 237.08 947.521 237.88 949.081 237.88H950.541V239H949.041ZM956.538 239.16C954.138 239.16 952.638 237.98 952.638 236.08C952.638 234.24 954.038 233.08 956.158 233.08H960.718V232.34C960.718 230.62 959.458 229.48 957.538 229.48C955.978 229.48 954.758 230.28 954.338 231.52H953.158C953.658 229.6 955.318 228.4 957.518 228.4C960.098 228.4 961.878 229.98 961.878 232.28V239H960.918L960.798 237.22C959.898 238.46 958.378 239.16 956.538 239.16ZM953.798 236.06C953.798 237.32 954.858 238.12 956.578 238.12C958.978 238.12 960.738 236.62 960.738 234.54V234.1H956.198C954.778 234.1 953.798 234.88 953.798 236.06ZM969.339 239.26C966.719 239.26 965.059 237.94 964.979 235.88H966.119C966.239 237.34 967.379 238.2 969.359 238.2C971.179 238.2 972.279 237.5 972.279 236.36C972.279 235.28 971.299 234.62 969.099 234.24C966.399 233.78 965.179 232.82 965.179 231.24C965.179 229.48 966.679 228.4 969.099 228.4C971.539 228.4 973.079 229.56 973.239 231.54H972.079C971.959 230.18 970.899 229.44 969.099 229.44C967.379 229.44 966.339 230.14 966.339 231.26C966.339 232.28 967.199 232.84 969.499 233.28C972.119 233.78 973.419 234.82 973.419 236.38C973.419 238.12 971.839 239.26 969.339 239.26ZM976.775 239V224.2H977.935V233.2H979.455C981.375 233.2 982.215 232.7 982.875 230.96L983.755 228.66H984.995L983.955 231.4C983.495 232.56 982.955 233.3 982.135 233.74L985.495 239H984.115L981.055 234.14C980.575 234.24 980.035 234.28 979.415 234.28H977.935V239H976.775ZM654.06 268V257.66H655.04L655.14 259.34C655.86 258.08 657.12 257.4 658.72 257.4C660.52 257.4 661.9 258.3 662.5 259.88C663.2 258.3 664.62 257.4 666.44 257.4C669.04 257.4 670.72 259.18 670.72 262.06V268H669.56V262.24C669.56 259.94 668.28 258.52 666.3 258.52C664.28 258.52 662.96 259.98 662.96 262.32V268H661.8V262.24C661.8 259.94 660.54 258.52 658.56 258.52C656.54 258.52 655.22 259.98 655.22 262.32V268H654.06ZM677.847 268.16C675.447 268.16 673.947 266.98 673.947 265.08C673.947 263.24 675.347 262.08 677.467 262.08H682.027V261.34C682.027 259.62 680.767 258.48 678.847 258.48C677.287 258.48 676.067 259.28 675.647 260.52H674.467C674.967 258.6 676.627 257.4 678.827 257.4C681.407 257.4 683.187 258.98 683.187 261.28V268H682.227L682.107 266.22C681.207 267.46 679.687 268.16 677.847 268.16ZM675.107 265.06C675.107 266.32 676.167 267.12 677.887 267.12C680.287 267.12 682.047 265.62 682.047 263.54V263.1H677.507C676.087 263.1 675.107 263.88 675.107 265.06ZM687.087 268V257.66H688.067L688.167 259.66C688.987 258.18 690.427 257.4 692.087 257.4C694.787 257.4 696.447 259.3 696.447 262.28V268H695.287V262.38C695.287 260 694.007 258.52 691.947 258.52C689.767 258.52 688.247 260.18 688.247 262.64V268H687.087ZM703.589 268.16C701.189 268.16 699.689 266.98 699.689 265.08C699.689 263.24 701.089 262.08 703.209 262.08H707.769V261.34C707.769 259.62 706.509 258.48 704.589 258.48C703.029 258.48 701.809 259.28 701.389 260.52H700.209C700.709 258.6 702.369 257.4 704.569 257.4C707.149 257.4 708.929 258.98 708.929 261.28V268H707.969L707.849 266.22C706.949 267.46 705.429 268.16 703.589 268.16ZM700.849 265.06C700.849 266.32 701.909 267.12 703.629 267.12C706.029 267.12 707.789 265.62 707.789 263.54V263.1H703.249C701.829 263.1 700.849 263.88 700.849 265.06ZM717.37 272.26C714.83 272.26 712.95 270.92 712.55 268.82H713.73C714.07 270.26 715.47 271.16 717.37 271.16C719.75 271.16 721.27 269.76 721.27 267.54V265.86C720.35 267.12 718.87 267.88 717.11 267.88C714.09 267.88 711.93 265.68 711.93 262.64C711.93 259.6 714.09 257.4 717.11 257.4C718.93 257.4 720.43 258.2 721.35 259.52L721.45 257.66H722.43V267.58C722.43 270.36 720.39 272.26 717.37 272.26ZM713.09 262.64C713.09 265.06 714.79 266.74 717.23 266.74C719.65 266.74 721.35 265.06 721.35 262.64C721.35 260.22 719.65 258.52 717.23 258.52C714.79 258.52 713.09 260.22 713.09 262.64ZM730.92 268.26C727.78 268.26 725.64 266.04 725.64 262.82C725.64 259.62 727.8 257.4 730.94 257.4C734.2 257.4 736.3 259.8 736.22 263.3H726.82C727.02 265.64 728.62 267.16 730.92 267.16C732.6 267.16 733.94 266.38 734.62 265.04L735.92 265.06C735.12 267.04 733.24 268.26 730.92 268.26ZM726.82 262.28H735.08C734.8 259.94 733.2 258.5 730.94 258.5C728.64 258.5 727.02 260 726.82 262.28ZM739.392 268V257.66H740.372L740.472 259.34C741.192 258.08 742.452 257.4 744.052 257.4C745.852 257.4 747.232 258.3 747.832 259.88C748.532 258.3 749.952 257.4 751.772 257.4C754.372 257.4 756.052 259.18 756.052 262.06V268H754.892V262.24C754.892 259.94 753.612 258.52 751.632 258.52C749.612 258.52 748.292 259.98 748.292 262.32V268H747.132V262.24C747.132 259.94 745.872 258.52 743.892 258.52C741.872 258.52 740.552 259.98 740.552 262.32V268H739.392ZM764.319 268.26C761.179 268.26 759.039 266.04 759.039 262.82C759.039 259.62 761.199 257.4 764.339 257.4C767.599 257.4 769.699 259.8 769.619 263.3H760.219C760.419 265.64 762.019 267.16 764.319 267.16C765.999 267.16 767.339 266.38 768.019 265.04L769.319 265.06C768.519 267.04 766.639 268.26 764.319 268.26ZM760.219 262.28H768.479C768.199 259.94 766.599 258.5 764.339 258.5C762.039 258.5 760.419 260 760.219 262.28ZM772.79 268V257.66H773.77L773.87 259.66C774.69 258.18 776.13 257.4 777.79 257.4C780.49 257.4 782.15 259.3 782.15 262.28V268H780.99V262.38C780.99 260 779.71 258.52 777.65 258.52C775.47 258.52 773.95 260.18 773.95 262.64V268H772.79ZM789.92 268C787.72 268 786.54 266.76 786.54 264.42V258.72H784.28V257.66H785.6C786.38 257.66 786.6 257.46 786.68 256.7L786.78 255.12H787.7V257.66H791.28V258.72H787.7V264.38C787.7 266.08 788.4 266.88 789.96 266.88H791.42V268H789.92ZM803.494 268C801.294 268 800.114 266.76 800.114 264.42V258.72H797.854V257.66H799.174C799.954 257.66 800.174 257.46 800.254 256.7L800.354 255.12H801.274V257.66H804.854V258.72H801.274V264.38C801.274 266.08 801.974 266.88 803.534 266.88H804.994V268H803.494ZM812.135 268.26C808.935 268.26 806.695 266.02 806.695 262.82C806.695 259.64 808.935 257.4 812.135 257.4C815.315 257.4 817.555 259.64 817.555 262.82C817.555 266.02 815.315 268.26 812.135 268.26ZM807.855 262.82C807.855 265.38 809.595 267.14 812.135 267.14C814.655 267.14 816.395 265.38 816.395 262.82C816.395 260.28 814.655 258.52 812.135 258.52C809.595 258.52 807.855 260.28 807.855 262.82ZM825.179 268.26C822.059 268.26 819.879 265.96 819.879 262.82C819.879 259.68 822.059 257.4 825.179 257.4C827.079 257.4 828.619 258.24 829.539 259.58V253.2H830.699V268H829.739L829.599 265.96C828.699 267.38 827.119 268.26 825.179 268.26ZM821.039 262.82C821.039 265.36 822.779 267.14 825.319 267.14C827.839 267.14 829.579 265.36 829.579 262.82C829.579 260.3 827.839 258.52 825.319 258.52C822.779 258.52 821.039 260.3 821.039 262.82ZM838.062 268.16C835.662 268.16 834.162 266.98 834.162 265.08C834.162 263.24 835.562 262.08 837.682 262.08H842.242V261.34C842.242 259.62 840.982 258.48 839.062 258.48C837.502 258.48 836.282 259.28 835.862 260.52H834.682C835.182 258.6 836.842 257.4 839.042 257.4C841.622 257.4 843.402 258.98 843.402 261.28V268H842.442L842.322 266.22C841.422 267.46 839.902 268.16 838.062 268.16ZM835.322 265.06C835.322 266.32 836.382 267.12 838.102 267.12C840.502 267.12 842.262 265.62 842.262 263.54V263.1H837.722C836.302 263.1 835.322 263.88 835.322 265.06ZM846.233 272V270.9H847.093C848.553 270.9 849.013 270.6 849.553 269.3L850.133 267.84L845.213 257.66H846.513L848.953 262.76L850.733 266.44L852.213 262.76L854.313 257.66H855.533L850.593 269.74C849.873 271.54 849.073 272 847.213 272H846.233ZM860.945 263.64C860.945 262.26 861.505 261.38 863.005 260.46C864.485 259.52 865.005 258.76 865.005 257.56C865.005 255.9 863.845 254.9 861.865 254.9C859.905 254.9 858.625 255.92 858.525 257.64H857.345C857.485 255.22 859.185 253.74 861.825 253.74C864.445 253.74 866.185 255.24 866.185 257.52C866.185 259.04 865.425 260.24 863.645 261.36C862.445 262.1 862.125 262.64 862.125 263.72V264.16H860.945V263.64ZM860.465 267.08C860.465 266.46 860.905 266.04 861.545 266.04C862.165 266.04 862.605 266.46 862.605 267.08C862.605 267.7 862.165 268.12 861.545 268.12C860.905 268.12 860.465 267.7 860.465 267.08Z" fill="black"/>
<path d="M753.68 87V80.44H745.48V87H744.26V73H745.48V79.28H753.68V73H754.9V87H753.68ZM763.756 87.26C760.556 87.26 758.316 85.02 758.316 81.82C758.316 78.64 760.556 76.4 763.756 76.4C766.936 76.4 769.176 78.64 769.176 81.82C769.176 85.02 766.936 87.26 763.756 87.26ZM759.476 81.82C759.476 84.38 761.216 86.14 763.756 86.14C766.276 86.14 768.016 84.38 768.016 81.82C768.016 79.28 766.276 77.52 763.756 77.52C761.216 77.52 759.476 79.28 759.476 81.82ZM774.109 87L770.389 76.66H771.629L774.689 85.26L776.149 81.5L778.009 76.66H779.089L780.969 81.5L782.429 85.26L785.509 76.66H786.729L782.989 87H781.869L780.089 82.38L778.549 78.36L775.229 87H774.109ZM798.05 87.26C794.93 87.26 792.75 84.96 792.75 81.82C792.75 78.68 794.93 76.4 798.05 76.4C799.95 76.4 801.49 77.24 802.41 78.58V72.2H803.57V87H802.61L802.47 84.96C801.57 86.38 799.99 87.26 798.05 87.26ZM793.91 81.82C793.91 84.36 795.65 86.14 798.19 86.14C800.71 86.14 802.45 84.36 802.45 81.82C802.45 79.3 800.71 77.52 798.19 77.52C795.65 77.52 793.91 79.3 793.91 81.82ZM812.233 87.26C809.033 87.26 806.793 85.02 806.793 81.82C806.793 78.64 809.033 76.4 812.233 76.4C815.413 76.4 817.653 78.64 817.653 81.82C817.653 85.02 815.413 87.26 812.233 87.26ZM807.953 81.82C807.953 84.38 809.693 86.14 812.233 86.14C814.753 86.14 816.493 84.38 816.493 81.82C816.493 79.28 814.753 77.52 812.233 77.52C809.693 77.52 807.953 79.28 807.953 81.82ZM827.39 87L823.67 76.66H824.91L827.97 85.26L829.43 81.5L831.29 76.66H832.37L834.25 81.5L835.71 85.26L838.79 76.66H840.01L836.27 87H835.15L833.37 82.38L831.83 78.36L828.51 87H827.39ZM846.506 87.26C843.366 87.26 841.226 85.04 841.226 81.82C841.226 78.62 843.386 76.4 846.526 76.4C849.786 76.4 851.886 78.8 851.806 82.3H842.406C842.606 84.64 844.206 86.16 846.506 86.16C848.186 86.16 849.526 85.38 850.206 84.04L851.506 84.06C850.706 86.04 848.826 87.26 846.506 87.26ZM842.406 81.28H850.666C850.386 78.94 848.786 77.5 846.526 77.5C844.226 77.5 842.606 79 842.406 81.28ZM867.76 87V77.72H861.24V87H860.08V77.72H857.72V76.66H860.08V75.46C860.08 73.12 861.26 71.94 863.6 71.94H865.1V73.04H863.7C861.98 73.04 861.24 73.78 861.24 75.54V76.66H868.92V87H867.76ZM867.26 73.72C867.26 73.14 867.7 72.68 868.34 72.68C868.96 72.68 869.4 73.14 869.4 73.72C869.4 74.32 868.96 74.78 868.34 74.78C867.7 74.78 867.26 74.32 867.26 73.72ZM873.044 87V76.66H874.024L874.124 78.66C874.944 77.18 876.384 76.4 878.044 76.4C880.744 76.4 882.404 78.3 882.404 81.28V87H881.244V81.38C881.244 79 879.964 77.52 877.904 77.52C875.724 77.52 874.204 79.18 874.204 81.64V87H873.044ZM890.706 87.26C887.586 87.26 885.406 84.96 885.406 81.82C885.406 78.68 887.586 76.4 890.706 76.4C892.606 76.4 894.146 77.24 895.066 78.58V72.2H896.226V87H895.266L895.126 84.96C894.226 86.38 892.646 87.26 890.706 87.26ZM886.566 81.82C886.566 84.36 888.306 86.14 890.846 86.14C893.366 86.14 895.106 84.36 895.106 81.82C895.106 79.3 893.366 77.52 890.846 77.52C888.306 77.52 886.566 79.3 886.566 81.82ZM909.772 87.26C906.572 87.26 904.332 85.02 904.332 81.82C904.332 78.64 906.572 76.4 909.772 76.4C912.952 76.4 915.192 78.64 915.192 81.82C915.192 85.02 912.952 87.26 909.772 87.26ZM905.492 81.82C905.492 84.38 907.232 86.14 909.772 86.14C912.292 86.14 914.032 84.38 914.032 81.82C914.032 79.28 912.292 77.52 909.772 77.52C907.232 77.52 905.492 79.28 905.492 81.82ZM922.495 87.26C919.835 87.26 918.195 85.36 918.195 82.38V76.66H919.355V82.28C919.355 84.64 920.615 86.14 922.655 86.14C924.795 86.14 926.275 84.46 926.275 82V76.66H927.435V87H926.475L926.355 84.98C925.555 86.48 924.115 87.26 922.495 87.26ZM935.76 87C933.56 87 932.38 85.76 932.38 83.42V77.72H930.12V76.66H931.44C932.22 76.66 932.44 76.46 932.52 75.7L932.62 74.12H933.54V76.66H937.12V77.72H933.54V83.38C933.54 85.08 934.24 85.88 935.8 85.88H937.26V87H935.76ZM947.351 87L943.631 76.66H944.871L947.931 85.26L949.391 81.5L951.251 76.66H952.331L954.211 81.5L955.671 85.26L958.751 76.66H959.971L956.231 87H955.111L953.331 82.38L951.791 78.36L948.471 87H947.351ZM962.478 87V72.2H963.638V78.54C964.458 77.12 965.898 76.4 967.518 76.4C970.198 76.4 971.838 78.26 971.838 81.24V87H970.678V81.34C970.678 78.96 969.418 77.52 967.358 77.52C965.178 77.52 963.638 79.14 963.638 81.62V87H962.478ZM978.98 87.16C976.58 87.16 975.08 85.98 975.08 84.08C975.08 82.24 976.48 81.08 978.6 81.08H983.16V80.34C983.16 78.62 981.9 77.48 979.98 77.48C978.42 77.48 977.2 78.28 976.78 79.52H975.6C976.1 77.6 977.76 76.4 979.96 76.4C982.54 76.4 984.32 77.98 984.32 80.28V87H983.36L983.24 85.22C982.34 86.46 980.82 87.16 978.98 87.16ZM976.24 84.06C976.24 85.32 977.3 86.12 979.02 86.12C981.42 86.12 983.18 84.62 983.18 82.54V82.1H978.64C977.22 82.1 976.24 82.88 976.24 84.06ZM992.088 87C989.888 87 988.708 85.76 988.708 83.42V77.72H986.448V76.66H987.768C988.548 76.66 988.768 76.46 988.848 75.7L988.948 74.12H989.868V76.66H993.448V77.72H989.868V83.38C989.868 85.08 990.568 85.88 992.128 85.88H993.588V87H992.088ZM1002.05 87V76.66H1003.21V87H1002.05ZM1001.57 73.72C1001.57 73.14 1001.99 72.68 1002.63 72.68C1003.27 72.68 1003.69 73.14 1003.69 73.72C1003.69 74.32 1003.27 74.78 1002.63 74.78C1001.99 74.78 1001.57 74.32 1001.57 73.72ZM1010.88 87.26C1008.26 87.26 1006.6 85.94 1006.52 83.88H1007.66C1007.78 85.34 1008.92 86.2 1010.9 86.2C1012.72 86.2 1013.82 85.5 1013.82 84.36C1013.82 83.28 1012.84 82.62 1010.64 82.24C1007.94 81.78 1006.72 80.82 1006.72 79.24C1006.72 77.48 1008.22 76.4 1010.64 76.4C1013.08 76.4 1014.62 77.56 1014.78 79.54H1013.62C1013.5 78.18 1012.44 77.44 1010.64 77.44C1008.92 77.44 1007.88 78.14 1007.88 79.26C1007.88 80.28 1008.74 80.84 1011.04 81.28C1013.66 81.78 1014.96 82.82 1014.96 84.38C1014.96 86.12 1013.38 87.26 1010.88 87.26ZM744.06 116V105.66H745.04L745.16 107.98C745.86 106.42 747.04 105.66 748.96 105.66H749.82V106.74H748.92C746.7 106.74 745.22 108.1 745.22 111.24V116H744.06ZM756.311 116.26C753.171 116.26 751.031 114.04 751.031 110.82C751.031 107.62 753.191 105.4 756.331 105.4C759.591 105.4 761.691 107.8 761.611 111.3H752.211C752.411 113.64 754.011 115.16 756.311 115.16C757.991 115.16 759.331 114.38 760.011 113.04L761.311 113.06C760.511 115.04 758.631 116.26 756.311 116.26ZM752.211 110.28H760.471C760.191 107.94 758.591 106.5 756.331 106.5C754.031 106.5 752.411 108 752.211 110.28ZM764.783 116V101.2H765.943V116H764.783ZM774.436 116.26C771.296 116.26 769.156 114.04 769.156 110.82C769.156 107.62 771.316 105.4 774.456 105.4C777.716 105.4 779.816 107.8 779.736 111.3H770.336C770.536 113.64 772.136 115.16 774.436 115.16C776.116 115.16 777.456 114.38 778.136 113.04L779.436 113.06C778.636 115.04 776.756 116.26 774.436 116.26ZM770.336 110.28H778.596C778.316 107.94 776.716 106.5 774.456 106.5C772.156 106.5 770.536 108 770.336 110.28ZM785.477 116L780.857 105.66H782.117L783.917 109.66L786.057 114.48L788.177 109.66L789.997 105.66H791.237L786.617 116H785.477ZM796.402 116.16C794.002 116.16 792.502 114.98 792.502 113.08C792.502 111.24 793.902 110.08 796.022 110.08H800.582V109.34C800.582 107.62 799.322 106.48 797.402 106.48C795.842 106.48 794.622 107.28 794.202 108.52H793.022C793.522 106.6 795.182 105.4 797.382 105.4C799.962 105.4 801.742 106.98 801.742 109.28V116H800.782L800.662 114.22C799.762 115.46 798.242 116.16 796.402 116.16ZM793.662 113.06C793.662 114.32 794.722 115.12 796.442 115.12C798.842 115.12 800.602 113.62 800.602 111.54V111.1H796.062C794.642 111.1 793.662 111.88 793.662 113.06ZM805.642 116V105.66H806.622L806.722 107.66C807.542 106.18 808.982 105.4 810.642 105.4C813.342 105.4 815.002 107.3 815.002 110.28V116H813.842V110.38C813.842 108 812.562 106.52 810.502 106.52C808.322 106.52 806.802 108.18 806.802 110.64V116H805.642ZM822.772 116C820.572 116 819.392 114.76 819.392 112.42V106.72H817.132V105.66H818.452C819.232 105.66 819.452 105.46 819.532 104.7L819.632 103.12H820.552V105.66H824.132V106.72H820.552V112.38C820.552 114.08 821.252 114.88 822.812 114.88H824.272V116H822.772ZM832.951 104.46C832.951 102.1 834.111 100.94 836.411 100.94H838.031V102.04H836.511C834.831 102.04 834.111 102.78 834.111 104.54V105.66H837.931V106.72H834.111V116H832.951V106.72H830.591V105.66H832.951V104.46ZM844.498 116.26C841.298 116.26 839.058 114.02 839.058 110.82C839.058 107.64 841.298 105.4 844.498 105.4C847.678 105.4 849.918 107.64 849.918 110.82C849.918 114.02 847.678 116.26 844.498 116.26ZM840.218 110.82C840.218 113.38 841.958 115.14 844.498 115.14C847.018 115.14 848.758 113.38 848.758 110.82C848.758 108.28 847.018 106.52 844.498 106.52C841.958 106.52 840.218 108.28 840.218 110.82ZM853.142 116V105.66H854.122L854.242 107.98C854.942 106.42 856.122 105.66 858.042 105.66H858.902V106.74H858.002C855.782 106.74 854.302 108.1 854.302 111.24V116H853.142ZM870.745 116.26C867.605 116.26 865.465 114.04 865.465 110.82C865.465 107.62 867.625 105.4 870.765 105.4C874.025 105.4 876.125 107.8 876.045 111.3H866.645C866.845 113.64 868.445 115.16 870.745 115.16C872.425 115.16 873.765 114.38 874.445 113.04L875.745 113.06C874.945 115.04 873.065 116.26 870.745 116.26ZM866.645 110.28H874.905C874.625 107.94 873.025 106.5 870.765 106.5C868.465 106.5 866.845 108 866.645 110.28ZM882.32 116.16C879.92 116.16 878.42 114.98 878.42 113.08C878.42 111.24 879.82 110.08 881.94 110.08H886.5V109.34C886.5 107.62 885.24 106.48 883.32 106.48C881.76 106.48 880.54 107.28 880.12 108.52H878.94C879.44 106.6 881.1 105.4 883.3 105.4C885.88 105.4 887.66 106.98 887.66 109.28V116H886.7L886.58 114.22C885.68 115.46 884.16 116.16 882.32 116.16ZM879.58 113.06C879.58 114.32 880.64 115.12 882.36 115.12C884.76 115.12 886.52 113.62 886.52 111.54V111.1H881.98C880.56 111.1 879.58 111.88 879.58 113.06ZM895.94 116.26C892.84 116.26 890.66 114 890.66 110.82C890.66 107.64 892.84 105.4 895.94 105.4C898.4 105.4 900.42 106.86 901.02 109.1H899.84C899.16 107.46 897.72 106.52 895.94 106.52C893.5 106.52 891.82 108.28 891.82 110.82C891.82 113.38 893.5 115.14 895.94 115.14C897.84 115.14 899.32 114.08 899.9 112.38H901.12C900.42 114.8 898.48 116.26 895.94 116.26ZM904.275 116V101.2H905.435V107.54C906.255 106.12 907.695 105.4 909.315 105.4C911.995 105.4 913.635 107.26 913.635 110.24V116H912.475V110.34C912.475 107.96 911.215 106.52 909.155 106.52C906.975 106.52 905.435 108.14 905.435 110.62V116H904.275ZM922.888 116V105.66H924.048V116H922.888ZM922.408 102.72C922.408 102.14 922.828 101.68 923.468 101.68C924.108 101.68 924.528 102.14 924.528 102.72C924.528 103.32 924.108 103.78 923.468 103.78C922.828 103.78 922.408 103.32 922.408 102.72ZM928.162 116V105.66H929.142L929.242 107.66C930.062 106.18 931.502 105.4 933.162 105.4C935.862 105.4 937.522 107.3 937.522 110.28V116H936.362V110.38C936.362 108 935.082 106.52 933.022 106.52C930.842 106.52 929.322 108.18 929.322 110.64V116H928.162ZM945.823 116.26C942.703 116.26 940.523 113.96 940.523 110.82C940.523 107.68 942.703 105.4 945.823 105.4C947.723 105.4 949.263 106.24 950.183 107.58V101.2H951.343V116H950.383L950.243 113.96C949.343 115.38 947.763 116.26 945.823 116.26ZM941.683 110.82C941.683 113.36 943.423 115.14 945.963 115.14C948.483 115.14 950.223 113.36 950.223 110.82C950.223 108.3 948.483 106.52 945.963 106.52C943.423 106.52 941.683 108.3 941.683 110.82ZM955.466 116V105.66H956.626V116H955.466ZM954.986 102.72C954.986 102.14 955.406 101.68 956.046 101.68C956.686 101.68 957.106 102.14 957.106 102.72C957.106 103.32 956.686 103.78 956.046 103.78C955.406 103.78 954.986 103.32 954.986 102.72ZM963.7 116L959.08 105.66H960.34L962.14 109.66L964.28 114.48L966.4 109.66L968.22 105.66H969.46L964.84 116H963.7ZM971.931 116V105.66H973.091V116H971.931ZM971.451 102.72C971.451 102.14 971.871 101.68 972.511 101.68C973.151 101.68 973.571 102.14 973.571 102.72C973.571 103.32 973.151 103.78 972.511 103.78C971.871 103.78 971.451 103.32 971.451 102.72ZM981.605 116.26C978.485 116.26 976.305 113.96 976.305 110.82C976.305 107.68 978.485 105.4 981.605 105.4C983.505 105.4 985.045 106.24 985.965 107.58V101.2H987.125V116H986.165L986.025 113.96C985.125 115.38 983.545 116.26 981.605 116.26ZM977.465 110.82C977.465 113.36 979.205 115.14 981.745 115.14C984.265 115.14 986.005 113.36 986.005 110.82C986.005 108.3 984.265 106.52 981.745 106.52C979.205 106.52 977.465 108.3 977.465 110.82ZM995.328 116.26C992.668 116.26 991.028 114.36 991.028 111.38V105.66H992.188V111.28C992.188 113.64 993.448 115.14 995.488 115.14C997.628 115.14 999.108 113.46 999.108 111V105.66H1000.27V116H999.308L999.188 113.98C998.388 115.48 996.948 116.26 995.328 116.26ZM1007.63 116.16C1005.23 116.16 1003.73 114.98 1003.73 113.08C1003.73 111.24 1005.13 110.08 1007.25 110.08H1011.81V109.34C1011.81 107.62 1010.55 106.48 1008.63 106.48C1007.07 106.48 1005.85 107.28 1005.43 108.52H1004.25C1004.75 106.6 1006.41 105.4 1008.61 105.4C1011.19 105.4 1012.97 106.98 1012.97 109.28V116H1012.01L1011.89 114.22C1010.99 115.46 1009.47 116.16 1007.63 116.16ZM1004.89 113.06C1004.89 114.32 1005.95 115.12 1007.67 115.12C1010.07 115.12 1011.83 113.62 1011.83 111.54V111.1H1007.29C1005.87 111.1 1004.89 111.88 1004.89 113.06ZM1016.87 116V101.2H1018.03V116H1016.87ZM1025.09 111.64C1025.09 110.26 1025.65 109.38 1027.15 108.46C1028.63 107.52 1029.15 106.76 1029.15 105.56C1029.15 103.9 1027.99 102.9 1026.01 102.9C1024.05 102.9 1022.77 103.92 1022.67 105.64H1021.49C1021.63 103.22 1023.33 101.74 1025.97 101.74C1028.59 101.74 1030.33 103.24 1030.33 105.52C1030.33 107.04 1029.57 108.24 1027.79 109.36C1026.59 110.1 1026.27 110.64 1026.27 111.72V112.16H1025.09V111.64ZM1024.61 115.08C1024.61 114.46 1025.05 114.04 1025.69 114.04C1026.31 114.04 1026.75 114.46 1026.75 115.08C1026.75 115.7 1026.31 116.12 1025.69 116.12C1025.05 116.12 1024.61 115.7 1024.61 115.08Z" fill="black"/>
<path d="M5.06 58L0.48 44H1.76L3.84 50.38L5.68 56.1L7.78 50.38L10.1 44H11.26L15.7 56.12L17.56 50.38L19.62 44H20.9L16.3 58H15.16L10.68 45.84L8.2 52.6L6.22 58H5.06ZM23.4467 58V43.2H24.6067V49.54C25.4267 48.12 26.8667 47.4 28.4867 47.4C31.1667 47.4 32.8067 49.26 32.8067 52.24V58H31.6467V52.34C31.6467 49.96 30.3867 48.52 28.3267 48.52C26.1467 48.52 24.6067 50.14 24.6067 52.62V58H23.4467ZM36.7084 58V47.66H37.8684V58H36.7084ZM36.2284 44.72C36.2284 44.14 36.6484 43.68 37.2884 43.68C37.9284 43.68 38.3484 44.14 38.3484 44.72C38.3484 45.32 37.9284 45.78 37.2884 45.78C36.6484 45.78 36.2284 45.32 36.2284 44.72ZM46.3619 58.26C43.2619 58.26 41.0819 56 41.0819 52.82C41.0819 49.64 43.2619 47.4 46.3619 47.4C48.8219 47.4 50.8419 48.86 51.4419 51.1H50.2619C49.5819 49.46 48.1419 48.52 46.3619 48.52C43.9219 48.52 42.2419 50.28 42.2419 52.82C42.2419 55.38 43.9219 57.14 46.3619 57.14C48.2619 57.14 49.7419 56.08 50.3219 54.38H51.5419C50.8419 56.8 48.9019 58.26 46.3619 58.26ZM54.6967 58V43.2H55.8567V49.54C56.6767 48.12 58.1167 47.4 59.7367 47.4C62.4167 47.4 64.0567 49.26 64.0567 52.24V58H62.8967V52.34C62.8967 49.96 61.6367 48.52 59.5767 48.52C57.3967 48.52 55.8567 50.14 55.8567 52.62V58H54.6967ZM77.3813 62.26C74.8413 62.26 72.9613 60.92 72.5613 58.82H73.7413C74.0813 60.26 75.4813 61.16 77.3813 61.16C79.7613 61.16 81.2813 59.76 81.2813 57.54V55.86C80.3613 57.12 78.8813 57.88 77.1213 57.88C74.1013 57.88 71.9413 55.68 71.9413 52.64C71.9413 49.6 74.1013 47.4 77.1213 47.4C78.9413 47.4 80.4413 48.2 81.3613 49.52L81.4613 47.66H82.4413V57.58C82.4413 60.36 80.4013 62.26 77.3813 62.26ZM73.1013 52.64C73.1013 55.06 74.8013 56.74 77.2413 56.74C79.6613 56.74 81.3613 55.06 81.3613 52.64C81.3613 50.22 79.6613 48.52 77.2413 48.52C74.8013 48.52 73.1013 50.22 73.1013 52.64ZM86.5522 58V47.66H87.5322L87.6522 49.98C88.3522 48.42 89.5322 47.66 91.4522 47.66H92.3122V48.74H91.4122C89.1922 48.74 87.7122 50.1 87.7122 53.24V58H86.5522ZM98.9633 58.26C95.7633 58.26 93.5233 56.02 93.5233 52.82C93.5233 49.64 95.7633 47.4 98.9633 47.4C102.143 47.4 104.383 49.64 104.383 52.82C104.383 56.02 102.143 58.26 98.9633 58.26ZM94.6833 52.82C94.6833 55.38 96.4233 57.14 98.9633 57.14C101.483 57.14 103.223 55.38 103.223 52.82C103.223 50.28 101.483 48.52 98.9633 48.52C96.4233 48.52 94.6833 50.28 94.6833 52.82ZM111.687 58.26C109.027 58.26 107.387 56.36 107.387 53.38V47.66H108.547V53.28C108.547 55.64 109.807 57.14 111.847 57.14C113.987 57.14 115.467 55.46 115.467 53V47.66H116.627V58H115.667L115.547 55.98C114.747 57.48 113.307 58.26 111.687 58.26ZM126.271 58.26C124.371 58.26 122.831 57.4 121.911 56.04V62H120.751V47.66H121.731L121.851 49.72C122.751 48.28 124.331 47.4 126.271 47.4C129.411 47.4 131.571 49.68 131.571 52.82C131.571 55.96 129.411 58.26 126.271 58.26ZM121.871 52.82C121.871 55.36 123.611 57.14 126.151 57.14C128.691 57.14 130.411 55.36 130.411 52.82C130.411 50.3 128.691 48.52 126.151 48.52C123.611 48.52 121.871 50.3 121.871 52.82ZM143.748 58.26C140.548 58.26 138.308 56.02 138.308 52.82C138.308 49.64 140.548 47.4 143.748 47.4C146.928 47.4 149.168 49.64 149.168 52.82C149.168 56.02 146.928 58.26 143.748 58.26ZM139.468 52.82C139.468 55.38 141.208 57.14 143.748 57.14C146.268 57.14 148.008 55.38 148.008 52.82C148.008 50.28 146.268 48.52 143.748 48.52C141.208 48.52 139.468 50.28 139.468 52.82ZM153.119 46.46C153.119 44.1 154.279 42.94 156.579 42.94H158.199V44.04H156.679C154.999 44.04 154.279 44.78 154.279 46.54V47.66H158.099V48.72H154.279V58H153.119V48.72H150.759V47.66H153.119V46.46ZM164.135 62V60.9H164.995C166.455 60.9 166.915 60.6 167.455 59.3L168.035 57.84L163.115 47.66H164.415L166.855 52.76L168.635 56.44L170.115 52.76L172.215 47.66H173.435L168.495 59.74C167.775 61.54 166.975 62 165.115 62H164.135ZM180.057 58.26C176.857 58.26 174.617 56.02 174.617 52.82C174.617 49.64 176.857 47.4 180.057 47.4C183.237 47.4 185.477 49.64 185.477 52.82C185.477 56.02 183.237 58.26 180.057 58.26ZM175.777 52.82C175.777 55.38 177.517 57.14 180.057 57.14C182.577 57.14 184.317 55.38 184.317 52.82C184.317 50.28 182.577 48.52 180.057 48.52C177.517 48.52 175.777 50.28 175.777 52.82ZM192.781 58.26C190.121 58.26 188.481 56.36 188.481 53.38V47.66H189.641V53.28C189.641 55.64 190.901 57.14 192.941 57.14C195.081 57.14 196.561 55.46 196.561 53V47.66H197.721V58H196.761L196.641 55.98C195.841 57.48 194.401 58.26 192.781 58.26ZM201.845 58V47.66H202.825L202.925 49.66C203.745 48.18 205.185 47.4 206.845 47.4C209.545 47.4 211.205 49.3 211.205 52.28V58H210.045V52.38C210.045 50 208.765 48.52 206.705 48.52C204.525 48.52 203.005 50.18 203.005 52.64V58H201.845ZM219.647 62.26C217.107 62.26 215.227 60.92 214.827 58.82H216.007C216.347 60.26 217.747 61.16 219.647 61.16C222.027 61.16 223.547 59.76 223.547 57.54V55.86C222.627 57.12 221.147 57.88 219.387 57.88C216.367 57.88 214.207 55.68 214.207 52.64C214.207 49.6 216.367 47.4 219.387 47.4C221.207 47.4 222.707 48.2 223.627 49.52L223.727 47.66H224.707V57.58C224.707 60.36 222.667 62.26 219.647 62.26ZM215.367 52.64C215.367 55.06 217.067 56.74 219.507 56.74C221.927 56.74 223.627 55.06 223.627 52.64C223.627 50.22 221.927 48.52 219.507 48.52C217.067 48.52 215.367 50.22 215.367 52.64ZM239.689 58.26C237.789 58.26 236.249 57.4 235.329 56.04V62H234.169V47.66H235.149L235.269 49.72C236.169 48.28 237.749 47.4 239.689 47.4C242.829 47.4 244.989 49.68 244.989 52.82C244.989 55.96 242.829 58.26 239.689 58.26ZM235.289 52.82C235.289 55.36 237.029 57.14 239.569 57.14C242.109 57.14 243.829 55.36 243.829 52.82C243.829 50.3 242.109 48.52 239.569 48.52C237.029 48.52 235.289 50.3 235.289 52.82ZM252.592 58.26C249.452 58.26 247.312 56.04 247.312 52.82C247.312 49.62 249.472 47.4 252.612 47.4C255.872 47.4 257.972 49.8 257.892 53.3H248.492C248.692 55.64 250.292 57.16 252.592 57.16C254.272 57.16 255.612 56.38 256.292 55.04L257.592 55.06C256.792 57.04 254.912 58.26 252.592 58.26ZM248.492 52.28H256.752C256.472 49.94 254.872 48.5 252.612 48.5C250.312 48.5 248.692 50 248.492 52.28ZM265.604 58.26C262.404 58.26 260.164 56.02 260.164 52.82C260.164 49.64 262.404 47.4 265.604 47.4C268.784 47.4 271.024 49.64 271.024 52.82C271.024 56.02 268.784 58.26 265.604 58.26ZM261.324 52.82C261.324 55.38 263.064 57.14 265.604 57.14C268.124 57.14 269.864 55.38 269.864 52.82C269.864 50.28 268.124 48.52 265.604 48.52C263.064 48.52 261.324 50.28 261.324 52.82ZM279.768 58.26C277.868 58.26 276.328 57.4 275.408 56.04V62H274.248V47.66H275.228L275.348 49.72C276.248 48.28 277.828 47.4 279.768 47.4C282.908 47.4 285.068 49.68 285.068 52.82C285.068 55.96 282.908 58.26 279.768 58.26ZM275.368 52.82C275.368 55.36 277.108 57.14 279.648 57.14C282.188 57.14 283.908 55.36 283.908 52.82C283.908 50.3 282.188 48.52 279.648 48.52C277.108 48.52 275.368 50.3 275.368 52.82ZM288.29 58V43.2H289.45V58H288.29ZM297.944 58.26C294.804 58.26 292.664 56.04 292.664 52.82C292.664 49.62 294.824 47.4 297.964 47.4C301.224 47.4 303.324 49.8 303.244 53.3H293.844C294.044 55.64 295.644 57.16 297.944 57.16C299.624 57.16 300.964 56.38 301.644 55.04L302.944 55.06C302.144 57.04 300.264 58.26 297.944 58.26ZM293.844 52.28H302.104C301.824 49.94 300.224 48.5 297.964 48.5C295.664 48.5 294.044 50 293.844 52.28ZM5.62 87.26C3 87.26 1.34 85.94 1.26 83.88H2.4C2.52 85.34 3.66 86.2 5.64 86.2C7.46 86.2 8.56 85.5 8.56 84.36C8.56 83.28 7.58 82.62 5.38 82.24C2.68 81.78 1.46 80.82 1.46 79.24C1.46 77.48 2.96 76.4 5.38 76.4C7.82 76.4 9.36 77.56 9.52 79.54H8.36C8.24 78.18 7.18 77.44 5.38 77.44C3.66 77.44 2.62 78.14 2.62 79.26C2.62 80.28 3.48 80.84 5.78 81.28C8.4 81.78 9.7 82.82 9.7 84.38C9.7 86.12 8.12 87.26 5.62 87.26ZM13.0561 87V72.2H14.2161V78.54C15.0361 77.12 16.4761 76.4 18.0961 76.4C20.7761 76.4 22.4161 78.26 22.4161 81.24V87H21.2561V81.34C21.2561 78.96 19.9961 77.52 17.9361 77.52C15.7561 77.52 14.2161 79.14 14.2161 81.62V87H13.0561ZM30.8578 87.26C27.6578 87.26 25.4178 85.02 25.4178 81.82C25.4178 78.64 27.6578 76.4 30.8578 76.4C34.0378 76.4 36.2778 78.64 36.2778 81.82C36.2778 85.02 34.0378 87.26 30.8578 87.26ZM26.5778 81.82C26.5778 84.38 28.3178 86.14 30.8578 86.14C33.3778 86.14 35.1178 84.38 35.1178 81.82C35.1178 79.28 33.3778 77.52 30.8578 77.52C28.3178 77.52 26.5778 79.28 26.5778 81.82ZM43.5814 87.26C40.9214 87.26 39.2814 85.36 39.2814 82.38V76.66H40.4414V82.28C40.4414 84.64 41.7014 86.14 43.7414 86.14C45.8814 86.14 47.3614 84.46 47.3614 82V76.66H48.5214V87H47.5614L47.4414 84.98C46.6414 86.48 45.2014 87.26 43.5814 87.26ZM52.6459 87V72.2H53.8059V87H52.6459ZM62.3194 87.26C59.1994 87.26 57.0194 84.96 57.0194 81.82C57.0194 78.68 59.1994 76.4 62.3194 76.4C64.2194 76.4 65.7594 77.24 66.6794 78.58V72.2H67.8394V87H66.8794L66.7394 84.96C65.8394 86.38 64.2594 87.26 62.3194 87.26ZM58.1794 81.82C58.1794 84.36 59.9194 86.14 62.4594 86.14C64.9794 86.14 66.7194 84.36 66.7194 81.82C66.7194 79.3 64.9794 77.52 62.4594 77.52C59.9194 77.52 58.1794 79.3 58.1794 81.82ZM78.9452 87L75.2252 76.66H76.4652L79.5252 85.26L80.9852 81.5L82.8452 76.66H83.9252L85.8052 81.5L87.2652 85.26L90.3452 76.66H91.5652L87.8252 87H86.7052L84.9252 82.38L83.3852 78.36L80.0652 87H78.9452ZM98.0611 87.26C94.9211 87.26 92.7811 85.04 92.7811 81.82C92.7811 78.62 94.9411 76.4 98.0811 76.4C101.341 76.4 103.441 78.8 103.361 82.3H93.9611C94.1611 84.64 95.7611 86.16 98.0611 86.16C99.7411 86.16 101.081 85.38 101.761 84.04L103.061 84.06C102.261 86.04 100.381 87.26 98.0611 87.26ZM93.9611 81.28H102.221C101.941 78.94 100.341 77.5 98.0811 77.5C95.7811 77.5 94.1611 79 93.9611 81.28ZM111.634 75.46C111.634 73.1 112.794 71.94 115.094 71.94H116.714V73.04H115.194C113.514 73.04 112.794 73.78 112.794 75.54V76.66H116.614V77.72H112.794V87H111.634V77.72H109.274V76.66H111.634V75.46ZM123.182 87.26C119.982 87.26 117.742 85.02 117.742 81.82C117.742 78.64 119.982 76.4 123.182 76.4C126.362 76.4 128.602 78.64 128.602 81.82C128.602 85.02 126.362 87.26 123.182 87.26ZM118.902 81.82C118.902 84.38 120.642 86.14 123.182 86.14C125.702 86.14 127.442 84.38 127.442 81.82C127.442 79.28 125.702 77.52 123.182 77.52C120.642 77.52 118.902 79.28 118.902 81.82ZM136.206 87.26C133.106 87.26 130.926 85 130.926 81.82C130.926 78.64 133.106 76.4 136.206 76.4C138.666 76.4 140.686 77.86 141.286 80.1H140.106C139.426 78.46 137.986 77.52 136.206 77.52C133.766 77.52 132.086 79.28 132.086 81.82C132.086 84.38 133.766 86.14 136.206 86.14C138.106 86.14 139.586 85.08 140.166 83.38H141.386C140.686 85.8 138.746 87.26 136.206 87.26ZM148.62 87.26C145.96 87.26 144.32 85.36 144.32 82.38V76.66H145.48V82.28C145.48 84.64 146.74 86.14 148.78 86.14C150.92 86.14 152.4 84.46 152.4 82V76.66H153.56V87H152.6L152.48 84.98C151.68 86.48 150.24 87.26 148.62 87.26ZM161.245 87.26C158.625 87.26 156.965 85.94 156.885 83.88H158.025C158.145 85.34 159.285 86.2 161.265 86.2C163.085 86.2 164.185 85.5 164.185 84.36C164.185 83.28 163.205 82.62 161.005 82.24C158.305 81.78 157.085 80.82 157.085 79.24C157.085 77.48 158.585 76.4 161.005 76.4C163.445 76.4 164.985 77.56 165.145 79.54H163.985C163.865 78.18 162.805 77.44 161.005 77.44C159.285 77.44 158.245 78.14 158.245 79.26C158.245 80.28 159.105 80.84 161.405 81.28C164.025 81.78 165.325 82.82 165.325 84.38C165.325 86.12 163.745 87.26 161.245 87.26ZM177.674 87.26C174.474 87.26 172.234 85.02 172.234 81.82C172.234 78.64 174.474 76.4 177.674 76.4C180.854 76.4 183.094 78.64 183.094 81.82C183.094 85.02 180.854 87.26 177.674 87.26ZM173.394 81.82C173.394 84.38 175.134 86.14 177.674 86.14C180.194 86.14 181.934 84.38 181.934 81.82C181.934 79.28 180.194 77.52 177.674 77.52C175.134 77.52 173.394 79.28 173.394 81.82ZM186.318 87V76.66H187.298L187.398 78.66C188.218 77.18 189.658 76.4 191.318 76.4C194.018 76.4 195.678 78.3 195.678 81.28V87H194.518V81.38C194.518 79 193.238 77.52 191.178 77.52C188.998 77.52 187.478 79.18 187.478 81.64V87H186.318ZM201.973 82.64C201.973 81.26 202.533 80.38 204.033 79.46C205.513 78.52 206.033 77.76 206.033 76.56C206.033 74.9 204.873 73.9 202.893 73.9C200.933 73.9 199.653 74.92 199.553 76.64H198.373C198.513 74.22 200.213 72.74 202.853 72.74C205.473 72.74 207.213 74.24 207.213 76.52C207.213 78.04 206.453 79.24 204.673 80.36C203.473 81.1 203.153 81.64 203.153 82.72V83.16H201.973V82.64ZM201.493 86.08C201.493 85.46 201.933 85.04 202.573 85.04C203.193 85.04 203.633 85.46 203.633 86.08C203.633 86.7 203.193 87.12 202.573 87.12C201.933 87.12 201.493 86.7 201.493 86.08Z" fill="black"/>
</svg>
