<svg width="1104" height="305" viewBox="0 0 1104 305" fill="none" xmlns="http://www.w3.org/2000/svg">
<path d="M461.38 21.26C457.26 21.26 454.28 18.26 454.28 14C454.28 9.74 457.26 6.74 461.38 6.74C464.58 6.74 467.2 8.6 468.12 11.54H466.84C466.04 9.32 463.96 7.96 461.4 7.96C457.98 7.96 455.52 10.42 455.52 14C455.52 17.58 457.98 20.04 461.4 20.04C464.02 20.04 466.18 18.62 466.96 16.3H468.24C467.38 19.32 464.68 21.26 461.38 21.26ZM475.909 21.26C472.709 21.26 470.469 19.02 470.469 15.82C470.469 12.64 472.709 10.4 475.909 10.4C479.089 10.4 481.329 12.64 481.329 15.82C481.329 19.02 479.089 21.26 475.909 21.26ZM471.629 15.82C471.629 18.38 473.369 20.14 475.909 20.14C478.429 20.14 480.169 18.38 480.169 15.82C480.169 13.28 478.429 11.52 475.909 11.52C473.369 11.52 471.629 13.28 471.629 15.82ZM484.552 21V10.66H485.532L485.632 12.34C486.352 11.08 487.612 10.4 489.212 10.4C491.012 10.4 492.392 11.3 492.992 12.88C493.692 11.3 495.112 10.4 496.932 10.4C499.532 10.4 501.212 12.18 501.212 15.06V21H500.052V15.24C500.052 12.94 498.772 11.52 496.792 11.52C494.772 11.52 493.452 12.98 493.452 15.32V21H492.292V15.24C492.292 12.94 491.032 11.52 489.052 11.52C487.032 11.52 485.712 12.98 485.712 15.32V21H484.552ZM505.099 21V10.66H506.079L506.179 12.34C506.899 11.08 508.159 10.4 509.759 10.4C511.559 10.4 512.939 11.3 513.539 12.88C514.239 11.3 515.659 10.4 517.479 10.4C520.079 10.4 521.759 12.18 521.759 15.06V21H520.599V15.24C520.599 12.94 519.319 11.52 517.339 11.52C515.319 11.52 513.999 12.98 513.999 15.32V21H512.839V15.24C512.839 12.94 511.579 11.52 509.599 11.52C507.579 11.52 506.259 12.98 506.259 15.32V21H505.099ZM530.026 21.26C526.886 21.26 524.746 19.04 524.746 15.82C524.746 12.62 526.906 10.4 530.046 10.4C533.306 10.4 535.406 12.8 535.326 16.3H525.926C526.126 18.64 527.726 20.16 530.026 20.16C531.706 20.16 533.046 19.38 533.726 18.04L535.026 18.06C534.226 20.04 532.346 21.26 530.026 21.26ZM525.926 15.28H534.186C533.906 12.94 532.306 11.5 530.046 11.5C527.746 11.5 526.126 13 525.926 15.28ZM538.498 21V10.66H539.478L539.578 12.66C540.398 11.18 541.838 10.4 543.498 10.4C546.198 10.4 547.858 12.3 547.858 15.28V21H546.698V15.38C546.698 13 545.418 11.52 543.358 11.52C541.178 11.52 539.658 13.18 539.658 15.64V21H538.498ZM555.627 21C553.427 21 552.247 19.76 552.247 17.42V11.72H549.987V10.66H551.307C552.087 10.66 552.307 10.46 552.387 9.7L552.487 8.12H553.407V10.66H556.987V11.72H553.407V17.38C553.407 19.08 554.107 19.88 555.667 19.88H557.127V21H555.627ZM568.827 21.16C566.427 21.16 564.927 19.98 564.927 18.08C564.927 16.24 566.327 15.08 568.447 15.08H573.007V14.34C573.007 12.62 571.747 11.48 569.827 11.48C568.267 11.48 567.047 12.28 566.627 13.52H565.447C565.947 11.6 567.607 10.4 569.807 10.4C572.387 10.4 574.167 11.98 574.167 14.28V21H573.207L573.087 19.22C572.187 20.46 570.667 21.16 568.827 21.16ZM566.087 18.06C566.087 19.32 567.147 20.12 568.867 20.12C571.267 20.12 573.027 18.62 573.027 16.54V16.1H568.487C567.067 16.1 566.087 16.88 566.087 18.06ZM581.936 21C579.736 21 578.556 19.76 578.556 17.42V11.72H576.296V10.66H577.616C578.396 10.66 578.616 10.46 578.696 9.7L578.796 8.12H579.716V10.66H583.296V11.72H579.716V17.38C579.716 19.08 580.416 19.88 581.976 19.88H583.436V21H581.936ZM590.744 21C588.544 21 587.364 19.76 587.364 17.42V11.72H585.104V10.66H586.424C587.204 10.66 587.424 10.46 587.504 9.7L587.604 8.12H588.524V10.66H592.104V11.72H588.524V17.38C588.524 19.08 589.224 19.88 590.784 19.88H592.244V21H590.744ZM599.225 21.26C596.085 21.26 593.945 19.04 593.945 15.82C593.945 12.62 596.105 10.4 599.245 10.4C602.505 10.4 604.605 12.8 604.525 16.3H595.125C595.325 18.64 596.925 20.16 599.225 20.16C600.905 20.16 602.245 19.38 602.925 18.04L604.225 18.06C603.425 20.04 601.545 21.26 599.225 21.26ZM595.125 15.28H603.385C603.105 12.94 601.505 11.5 599.245 11.5C596.945 11.5 595.325 13 595.125 15.28ZM607.697 21V10.66H608.857V21H607.697ZM607.217 7.72C607.217 7.14 607.637 6.68 608.277 6.68C608.917 6.68 609.337 7.14 609.337 7.72C609.337 8.32 608.917 8.78 608.277 8.78C607.637 8.78 607.217 8.32 607.217 7.72ZM617.51 25.26C614.97 25.26 613.09 23.92 612.69 21.82H613.87C614.21 23.26 615.61 24.16 617.51 24.16C619.89 24.16 621.41 22.76 621.41 20.54V18.86C620.49 20.12 619.01 20.88 617.25 20.88C614.23 20.88 612.07 18.68 612.07 15.64C612.07 12.6 614.23 10.4 617.25 10.4C619.07 10.4 620.57 11.2 621.49 12.52L621.59 10.66H622.57V20.58C622.57 23.36 620.53 25.26 617.51 25.26ZM613.23 15.64C613.23 18.06 614.93 19.74 617.37 19.74C619.79 19.74 621.49 18.06 621.49 15.64C621.49 13.22 619.79 11.52 617.37 11.52C614.93 11.52 613.23 13.22 613.23 15.64ZM626.681 21V10.66H627.661L627.761 12.66C628.581 11.18 630.021 10.4 631.681 10.4C634.381 10.4 636.041 12.3 636.041 15.28V21H634.881V15.38C634.881 13 633.601 11.52 631.541 11.52C629.361 11.52 627.841 13.18 627.841 15.64V21H626.681ZM644.483 21.26C641.283 21.26 639.043 19.02 639.043 15.82C639.043 12.64 641.283 10.4 644.483 10.4C647.663 10.4 649.903 12.64 649.903 15.82C649.903 19.02 647.663 21.26 644.483 21.26ZM640.203 15.82C640.203 18.38 641.943 20.14 644.483 20.14C647.003 20.14 648.743 18.38 648.743 15.82C648.743 13.28 647.003 11.52 644.483 11.52C641.943 11.52 640.203 13.28 640.203 15.82ZM653.126 21V10.66H654.106L654.206 12.66C655.026 11.18 656.466 10.4 658.126 10.4C660.826 10.4 662.486 12.3 662.486 15.28V21H661.326V15.38C661.326 13 660.046 11.52 657.986 11.52C655.806 11.52 654.286 13.18 654.286 15.64V21H653.126ZM669.948 21.26C667.328 21.26 665.668 19.94 665.588 17.88H666.728C666.848 19.34 667.988 20.2 669.968 20.2C671.788 20.2 672.888 19.5 672.888 18.36C672.888 17.28 671.908 16.62 669.708 16.24C667.008 15.78 665.788 14.82 665.788 13.24C665.788 11.48 667.288 10.4 669.708 10.4C672.148 10.4 673.688 11.56 673.848 13.54H672.688C672.568 12.18 671.508 11.44 669.708 11.44C667.988 11.44 666.948 12.14 666.948 13.26C666.948 14.28 667.808 14.84 670.108 15.28C672.728 15.78 674.028 16.82 674.028 18.38C674.028 20.12 672.448 21.26 669.948 21.26ZM676.924 16.46V15.38H682.824V16.46H676.924ZM686.486 21V10.66H687.466L687.566 12.66C688.386 11.18 689.826 10.4 691.486 10.4C694.186 10.4 695.846 12.3 695.846 15.28V21H694.686V15.38C694.686 13 693.406 11.52 691.346 11.52C689.166 11.52 687.646 13.18 687.646 15.64V21H686.486ZM704.288 21.26C701.088 21.26 698.848 19.02 698.848 15.82C698.848 12.64 701.088 10.4 704.288 10.4C707.468 10.4 709.708 12.64 709.708 15.82C709.708 19.02 707.468 21.26 704.288 21.26ZM700.008 15.82C700.008 18.38 701.748 20.14 704.288 20.14C706.808 20.14 708.548 18.38 708.548 15.82C708.548 13.28 706.808 11.52 704.288 11.52C701.748 11.52 700.008 13.28 700.008 15.82ZM717.011 21.26C714.351 21.26 712.711 19.36 712.711 16.38V10.66H713.871V16.28C713.871 18.64 715.131 20.14 717.171 20.14C719.311 20.14 720.791 18.46 720.791 16V10.66H721.951V21H720.991L720.871 18.98C720.071 20.48 718.631 21.26 717.011 21.26ZM729.636 21.26C727.016 21.26 725.356 19.94 725.276 17.88H726.416C726.536 19.34 727.676 20.2 729.656 20.2C731.476 20.2 732.576 19.5 732.576 18.36C732.576 17.28 731.596 16.62 729.396 16.24C726.696 15.78 725.476 14.82 725.476 13.24C725.476 11.48 726.976 10.4 729.396 10.4C731.836 10.4 733.376 11.56 733.536 13.54H732.376C732.256 12.18 731.196 11.44 729.396 11.44C727.676 11.44 726.636 12.14 726.636 13.26C726.636 14.28 727.496 14.84 729.796 15.28C732.416 15.78 733.716 16.82 733.716 18.38C733.716 20.12 732.136 21.26 729.636 21.26ZM741.994 21V6.2H743.154V21H741.994ZM751.647 21.26C748.507 21.26 746.367 19.04 746.367 15.82C746.367 12.62 748.527 10.4 751.667 10.4C754.927 10.4 757.027 12.8 756.947 16.3H747.547C747.747 18.64 749.347 20.16 751.647 20.16C753.327 20.16 754.667 19.38 755.347 18.04L756.647 18.06C755.847 20.04 753.967 21.26 751.647 21.26ZM747.547 15.28H755.807C755.527 12.94 753.927 11.5 751.667 11.5C749.367 11.5 747.747 13 747.547 15.28ZM459.6 54.26C457.06 54.26 455.18 52.92 454.78 50.82H455.96C456.3 52.26 457.7 53.16 459.6 53.16C461.98 53.16 463.5 51.76 463.5 49.54V47.86C462.58 49.12 461.1 49.88 459.34 49.88C456.32 49.88 454.16 47.68 454.16 44.64C454.16 41.6 456.32 39.4 459.34 39.4C461.16 39.4 462.66 40.2 463.58 41.52L463.68 39.66H464.66V49.58C464.66 52.36 462.62 54.26 459.6 54.26ZM455.32 44.64C455.32 47.06 457.02 48.74 459.46 48.74C461.88 48.74 463.58 47.06 463.58 44.64C463.58 42.22 461.88 40.52 459.46 40.52C457.02 40.52 455.32 42.22 455.32 44.64ZM468.771 50V39.66H469.751L469.871 41.98C470.571 40.42 471.751 39.66 473.671 39.66H474.531V40.74H473.631C471.411 40.74 469.931 42.1 469.931 45.24V50H468.771ZM481.182 50.26C477.982 50.26 475.742 48.02 475.742 44.82C475.742 41.64 477.982 39.4 481.182 39.4C484.362 39.4 486.602 41.64 486.602 44.82C486.602 48.02 484.362 50.26 481.182 50.26ZM476.902 44.82C476.902 47.38 478.642 49.14 481.182 49.14C483.702 49.14 485.442 47.38 485.442 44.82C485.442 42.28 483.702 40.52 481.182 40.52C478.642 40.52 476.902 42.28 476.902 44.82ZM493.906 50.26C491.246 50.26 489.606 48.36 489.606 45.38V39.66H490.766V45.28C490.766 47.64 492.026 49.14 494.066 49.14C496.206 49.14 497.686 47.46 497.686 45V39.66H498.846V50H497.886L497.766 47.98C496.966 49.48 495.526 50.26 493.906 50.26ZM508.49 50.26C506.59 50.26 505.05 49.4 504.13 48.04V54H502.97V39.66H503.95L504.07 41.72C504.97 40.28 506.55 39.4 508.49 39.4C511.63 39.4 513.79 41.68 513.79 44.82C513.79 47.96 511.63 50.26 508.49 50.26ZM504.09 44.82C504.09 47.36 505.83 49.14 508.37 49.14C510.91 49.14 512.63 47.36 512.63 44.82C512.63 42.3 510.91 40.52 508.37 40.52C505.83 40.52 504.09 42.3 504.09 44.82ZM521.393 50.26C518.253 50.26 516.113 48.04 516.113 44.82C516.113 41.62 518.273 39.4 521.413 39.4C524.673 39.4 526.773 41.8 526.693 45.3H517.293C517.493 47.64 519.093 49.16 521.393 49.16C523.073 49.16 524.413 48.38 525.093 47.04L526.393 47.06C525.593 49.04 523.713 50.26 521.393 50.26ZM517.293 44.28H525.553C525.273 41.94 523.673 40.5 521.413 40.5C519.113 40.5 517.493 42 517.293 44.28ZM538.679 50.26C535.559 50.26 533.379 47.96 533.379 44.82C533.379 41.68 535.559 39.4 538.679 39.4C540.579 39.4 542.119 40.24 543.039 41.58V35.2H544.199V50H543.239L543.099 47.96C542.199 49.38 540.619 50.26 538.679 50.26ZM534.539 44.82C534.539 47.36 536.279 49.14 538.819 49.14C541.339 49.14 543.079 47.36 543.079 44.82C543.079 42.3 541.339 40.52 538.819 40.52C536.279 40.52 534.539 42.3 534.539 44.82ZM547.942 40.86L547.902 36H549.002L548.962 40.86H547.942ZM556.796 50.26C554.136 50.26 552.496 48.36 552.496 45.38V39.66H553.656V45.28C553.656 47.64 554.916 49.14 556.956 49.14C559.096 49.14 560.576 47.46 560.576 45V39.66H561.736V50H560.776L560.656 47.98C559.856 49.48 558.416 50.26 556.796 50.26ZM570.061 50C567.861 50 566.681 48.76 566.681 46.42V40.72H564.421V39.66H565.741C566.521 39.66 566.741 39.46 566.821 38.7L566.921 37.12H567.841V39.66H571.421V40.72H567.841V46.38C567.841 48.08 568.541 48.88 570.101 48.88H571.561V50H570.061ZM574.669 50V39.66H575.829V50H574.669ZM574.189 36.72C574.189 36.14 574.609 35.68 575.249 35.68C575.889 35.68 576.309 36.14 576.309 36.72C576.309 37.32 575.889 37.78 575.249 37.78C574.609 37.78 574.189 37.32 574.189 36.72ZM579.943 50V35.2H581.103V50H579.943ZM585.216 50V39.66H586.376V50H585.216ZM584.736 36.72C584.736 36.14 585.156 35.68 585.796 35.68C586.436 35.68 586.856 36.14 586.856 36.72C586.856 37.32 586.436 37.78 585.796 37.78C585.156 37.78 584.736 37.32 584.736 36.72ZM594.05 50.26C591.43 50.26 589.77 48.94 589.69 46.88H590.83C590.95 48.34 592.09 49.2 594.07 49.2C595.89 49.2 596.99 48.5 596.99 47.36C596.99 46.28 596.01 45.62 593.81 45.24C591.11 44.78 589.89 43.82 589.89 42.24C589.89 40.48 591.39 39.4 593.81 39.4C596.25 39.4 597.79 40.56 597.95 42.54H596.79C596.67 41.18 595.61 40.44 593.81 40.44C592.09 40.44 591.05 41.14 591.05 42.26C591.05 43.28 591.91 43.84 594.21 44.28C596.83 44.78 598.13 45.82 598.13 47.38C598.13 49.12 596.55 50.26 594.05 50.26ZM604.609 50.16C602.209 50.16 600.709 48.98 600.709 47.08C600.709 45.24 602.109 44.08 604.229 44.08H608.789V43.34C608.789 41.62 607.529 40.48 605.609 40.48C604.049 40.48 602.829 41.28 602.409 42.52H601.229C601.729 40.6 603.389 39.4 605.589 39.4C608.169 39.4 609.949 40.98 609.949 43.28V50H608.989L608.869 48.22C607.969 49.46 606.449 50.16 604.609 50.16ZM601.869 47.06C601.869 48.32 602.929 49.12 604.649 49.12C607.049 49.12 608.809 47.62 608.809 45.54V45.1H604.269C602.849 45.1 601.869 45.88 601.869 47.06ZM617.717 50C615.517 50 614.337 48.76 614.337 46.42V40.72H612.077V39.66H613.397C614.177 39.66 614.397 39.46 614.477 38.7L614.577 37.12H615.497V39.66H619.077V40.72H615.497V46.38C615.497 48.08 616.197 48.88 617.757 48.88H619.217V50H617.717ZM626.198 50.26C623.058 50.26 620.918 48.04 620.918 44.82C620.918 41.62 623.078 39.4 626.218 39.4C629.478 39.4 631.578 41.8 631.498 45.3H622.098C622.298 47.64 623.898 49.16 626.198 49.16C627.878 49.16 629.218 48.38 629.898 47.04L631.198 47.06C630.398 49.04 628.518 50.26 626.198 50.26ZM622.098 44.28H630.358C630.078 41.94 628.478 40.5 626.218 40.5C623.918 40.5 622.298 42 622.098 44.28ZM638.749 50.26C636.089 50.26 634.449 48.36 634.449 45.38V39.66H635.609V45.28C635.609 47.64 636.869 49.14 638.909 49.14C641.049 49.14 642.529 47.46 642.529 45V39.66H643.689V50H642.729L642.609 47.98C641.809 49.48 640.369 50.26 638.749 50.26ZM647.814 50V39.66H648.794L648.914 41.98C649.614 40.42 650.794 39.66 652.714 39.66H653.574V40.74H652.674C650.454 40.74 648.974 42.1 648.974 45.24V50H647.814ZM659.46 50.26C656.84 50.26 655.18 48.94 655.1 46.88H656.24C656.36 48.34 657.5 49.2 659.48 49.2C661.3 49.2 662.4 48.5 662.4 47.36C662.4 46.28 661.42 45.62 659.22 45.24C656.52 44.78 655.3 43.82 655.3 42.24C655.3 40.48 656.8 39.4 659.22 39.4C661.66 39.4 663.2 40.56 663.36 42.54H662.2C662.08 41.18 661.02 40.44 659.22 40.44C657.5 40.44 656.46 41.14 656.46 42.26C656.46 43.28 657.32 43.84 659.62 44.28C662.24 44.78 663.54 45.82 663.54 47.38C663.54 49.12 661.96 50.26 659.46 50.26ZM674.055 45.64C674.055 44.26 674.615 43.38 676.115 42.46C677.595 41.52 678.115 40.76 678.115 39.56C678.115 37.9 676.955 36.9 674.975 36.9C673.015 36.9 671.735 37.92 671.635 39.64H670.455C670.595 37.22 672.295 35.74 674.935 35.74C677.555 35.74 679.295 37.24 679.295 39.52C679.295 41.04 678.535 42.24 676.755 43.36C675.555 44.1 675.235 44.64 675.235 45.72V46.16H674.055V45.64ZM673.575 49.08C673.575 48.46 674.015 48.04 674.655 48.04C675.275 48.04 675.715 48.46 675.715 49.08C675.715 49.7 675.275 50.12 674.655 50.12C674.015 50.12 673.575 49.7 673.575 49.08Z" fill="black"/>
<path d="M216.5 224.26C212.24 224.26 209.28 221.28 209.28 217C209.28 212.72 212.24 209.74 216.5 209.74C220.78 209.74 223.72 212.72 223.72 217C223.72 220.52 221.74 223.16 218.66 223.98L218.84 224.42C219.42 225.8 220.12 226.24 221.84 226.24H222.96V227.4H221.76C219.66 227.4 218.46 226.66 217.7 224.86L217.44 224.22C217.14 224.24 216.82 224.26 216.5 224.26ZM210.52 217C210.52 220.58 212.96 223.04 216.5 223.04C220.06 223.04 222.5 220.58 222.5 217C222.5 213.4 220.06 210.96 216.5 210.96C212.96 210.96 210.52 213.4 210.52 217ZM231.132 224.26C228.472 224.26 226.832 222.36 226.832 219.38V213.66H227.992V219.28C227.992 221.64 229.252 223.14 231.292 223.14C233.432 223.14 234.912 221.46 234.912 219V213.66H236.072V224H235.112L234.992 221.98C234.192 223.48 232.752 224.26 231.132 224.26ZM244.577 224.26C241.437 224.26 239.297 222.04 239.297 218.82C239.297 215.62 241.457 213.4 244.597 213.4C247.857 213.4 249.957 215.8 249.877 219.3H240.477C240.677 221.64 242.277 223.16 244.577 223.16C246.257 223.16 247.597 222.38 248.277 221.04L249.577 221.06C248.777 223.04 246.897 224.26 244.577 224.26ZM240.477 218.28H248.737C248.457 215.94 246.857 214.5 244.597 214.5C242.297 214.5 240.677 216 240.477 218.28ZM261.061 224.26C258.441 224.26 256.781 222.94 256.701 220.88H257.841C257.961 222.34 259.101 223.2 261.081 223.2C262.901 223.2 264.001 222.5 264.001 221.36C264.001 220.28 263.021 219.62 260.821 219.24C258.121 218.78 256.901 217.82 256.901 216.24C256.901 214.48 258.401 213.4 260.821 213.4C263.261 213.4 264.801 214.56 264.961 216.54H263.801C263.681 215.18 262.621 214.44 260.821 214.44C259.101 214.44 258.061 215.14 258.061 216.26C258.061 217.28 258.921 217.84 261.221 218.28C263.841 218.78 265.141 219.82 265.141 221.38C265.141 223.12 263.561 224.26 261.061 224.26ZM268.498 224V213.66H269.658V224H268.498ZM268.018 210.72C268.018 210.14 268.438 209.68 269.077 209.68C269.718 209.68 270.138 210.14 270.138 210.72C270.138 211.32 269.718 211.78 269.077 211.78C268.438 211.78 268.018 211.32 268.018 210.72ZM278.311 228.26C275.771 228.26 273.891 226.92 273.491 224.82H274.671C275.011 226.26 276.411 227.16 278.311 227.16C280.691 227.16 282.211 225.76 282.211 223.54V221.86C281.291 223.12 279.811 223.88 278.051 223.88C275.031 223.88 272.871 221.68 272.871 218.64C272.871 215.6 275.031 213.4 278.051 213.4C279.871 213.4 281.371 214.2 282.291 215.52L282.391 213.66H283.371V223.58C283.371 226.36 281.331 228.26 278.311 228.26ZM274.031 218.64C274.031 221.06 275.731 222.74 278.171 222.74C280.591 222.74 282.291 221.06 282.291 218.64C282.291 216.22 280.591 214.52 278.171 214.52C275.731 214.52 274.031 216.22 274.031 218.64ZM287.482 224V213.66H288.462L288.562 215.66C289.382 214.18 290.822 213.4 292.482 213.4C295.182 213.4 296.842 215.3 296.842 218.28V224H295.682V218.38C295.682 216 294.402 214.52 292.342 214.52C290.162 214.52 288.642 216.18 288.642 218.64V224H287.482ZM300.744 224V213.66H301.904V224H300.744ZM300.264 210.72C300.264 210.14 300.684 209.68 301.324 209.68C301.964 209.68 302.384 210.14 302.384 210.72C302.384 211.32 301.964 211.78 301.324 211.78C300.684 211.78 300.264 211.32 300.264 210.72ZM314.697 224V214.72H308.177V224H307.017V214.72H304.657V213.66H307.017V212.46C307.017 210.12 308.197 208.94 310.537 208.94H312.037V210.04H310.637C308.917 210.04 308.177 210.78 308.177 212.54V213.66H315.857V224H314.697ZM314.197 210.72C314.197 210.14 314.637 209.68 315.277 209.68C315.897 209.68 316.337 210.14 316.337 210.72C316.337 211.32 315.897 211.78 315.277 211.78C314.637 211.78 314.197 211.32 314.197 210.72ZM324.362 224.26C321.222 224.26 319.082 222.04 319.082 218.82C319.082 215.62 321.242 213.4 324.382 213.4C327.642 213.4 329.742 215.8 329.662 219.3H320.262C320.462 221.64 322.062 223.16 324.362 223.16C326.042 223.16 327.382 222.38 328.062 221.04L329.362 221.06C328.562 223.04 326.682 224.26 324.362 224.26ZM320.262 218.28H328.522C328.242 215.94 326.642 214.5 324.382 214.5C322.082 214.5 320.462 216 320.262 218.28ZM337.716 224V209.2H338.876V224H337.716ZM346.23 224.16C343.83 224.16 342.33 222.98 342.33 221.08C342.33 219.24 343.73 218.08 345.85 218.08H350.41V217.34C350.41 215.62 349.15 214.48 347.23 214.48C345.67 214.48 344.45 215.28 344.03 216.52H342.85C343.35 214.6 345.01 213.4 347.21 213.4C349.79 213.4 351.57 214.98 351.57 217.28V224H350.61L350.49 222.22C349.59 223.46 348.07 224.16 346.23 224.16ZM343.49 221.06C343.49 222.32 344.55 223.12 346.27 223.12C348.67 223.12 350.43 221.62 350.43 219.54V219.1H345.89C344.47 219.1 343.49 219.88 343.49 221.06ZM364.893 228.26C362.353 228.26 360.473 226.92 360.073 224.82H361.253C361.593 226.26 362.993 227.16 364.893 227.16C367.273 227.16 368.793 225.76 368.793 223.54V221.86C367.873 223.12 366.393 223.88 364.633 223.88C361.613 223.88 359.453 221.68 359.453 218.64C359.453 215.6 361.613 213.4 364.633 213.4C366.453 213.4 367.953 214.2 368.873 215.52L368.973 213.66H369.953V223.58C369.953 226.36 367.913 228.26 364.893 228.26ZM360.613 218.64C360.613 221.06 362.313 222.74 364.753 222.74C367.173 222.74 368.873 221.06 368.873 218.64C368.873 216.22 367.173 214.52 364.753 214.52C362.313 214.52 360.613 216.22 360.613 218.64ZM378.444 224.26C375.304 224.26 373.164 222.04 373.164 218.82C373.164 215.62 375.324 213.4 378.464 213.4C381.724 213.4 383.824 215.8 383.744 219.3H374.344C374.544 221.64 376.144 223.16 378.444 223.16C380.124 223.16 381.464 222.38 382.144 221.04L383.444 221.06C382.644 223.04 380.764 224.26 378.444 224.26ZM374.344 218.28H382.604C382.324 215.94 380.724 214.5 378.464 214.5C376.164 214.5 374.544 216 374.344 218.28ZM390.475 224.26C387.855 224.26 386.195 222.94 386.115 220.88H387.255C387.375 222.34 388.515 223.2 390.495 223.2C392.315 223.2 393.415 222.5 393.415 221.36C393.415 220.28 392.435 219.62 390.235 219.24C387.535 218.78 386.315 217.82 386.315 216.24C386.315 214.48 387.815 213.4 390.235 213.4C392.675 213.4 394.215 214.56 394.375 216.54H393.215C393.095 215.18 392.035 214.44 390.235 214.44C388.515 214.44 387.475 215.14 387.475 216.26C387.475 217.28 388.335 217.84 390.635 218.28C393.255 218.78 394.555 219.82 394.555 221.38C394.555 223.12 392.975 224.26 390.475 224.26ZM401.819 224C399.619 224 398.439 222.76 398.439 220.42V214.72H396.179V213.66H397.499C398.279 213.66 398.499 213.46 398.579 212.7L398.679 211.12H399.599V213.66H403.179V214.72H399.599V220.38C399.599 222.08 400.299 222.88 401.859 222.88H403.319V224H401.819ZM406.427 224V213.66H407.587V224H406.427ZM405.947 210.72C405.947 210.14 406.367 209.68 407.007 209.68C407.647 209.68 408.067 210.14 408.067 210.72C408.067 211.32 407.647 211.78 407.007 211.78C406.367 211.78 405.947 211.32 405.947 210.72ZM416.241 224.26C413.041 224.26 410.801 222.02 410.801 218.82C410.801 215.64 413.041 213.4 416.241 213.4C419.421 213.4 421.661 215.64 421.661 218.82C421.661 222.02 419.421 224.26 416.241 224.26ZM411.961 218.82C411.961 221.38 413.701 223.14 416.241 223.14C418.761 223.14 420.501 221.38 420.501 218.82C420.501 216.28 418.761 214.52 416.241 214.52C413.701 214.52 411.961 216.28 411.961 218.82ZM424.884 224V213.66H425.864L425.964 215.66C426.784 214.18 428.224 213.4 429.884 213.4C432.584 213.4 434.244 215.3 434.244 218.28V224H433.084V218.38C433.084 216 431.804 214.52 429.744 214.52C427.564 214.52 426.044 216.18 426.044 218.64V224H424.884ZM447.429 224.26C444.309 224.26 442.129 221.96 442.129 218.82C442.129 215.68 444.309 213.4 447.429 213.4C449.329 213.4 450.869 214.24 451.789 215.58V209.2H452.949V224H451.989L451.849 221.96C450.949 223.38 449.369 224.26 447.429 224.26ZM443.289 218.82C443.289 221.36 445.029 223.14 447.569 223.14C450.089 223.14 451.829 221.36 451.829 218.82C451.829 216.3 450.089 214.52 447.569 214.52C445.029 214.52 443.289 216.3 443.289 218.82ZM461.452 224.26C458.312 224.26 456.172 222.04 456.172 218.82C456.172 215.62 458.332 213.4 461.472 213.4C464.732 213.4 466.832 215.8 466.752 219.3H457.352C457.552 221.64 459.152 223.16 461.452 223.16C463.132 223.16 464.472 222.38 465.152 221.04L466.452 221.06C465.652 223.04 463.772 224.26 461.452 224.26ZM457.352 218.28H465.612C465.332 215.94 463.732 214.5 461.472 214.5C459.172 214.5 457.552 216 457.352 218.28ZM473.483 224.26C470.863 224.26 469.203 222.94 469.123 220.88H470.263C470.383 222.34 471.523 223.2 473.503 223.2C475.323 223.2 476.423 222.5 476.423 221.36C476.423 220.28 475.443 219.62 473.243 219.24C470.543 218.78 469.323 217.82 469.323 216.24C469.323 214.48 470.823 213.4 473.243 213.4C475.683 213.4 477.223 214.56 477.383 216.54H476.223C476.103 215.18 475.043 214.44 473.243 214.44C471.523 214.44 470.483 215.14 470.483 216.26C470.483 217.28 471.343 217.84 473.643 218.28C476.263 218.78 477.563 219.82 477.563 221.38C477.563 223.12 475.983 224.26 473.483 224.26ZM489.455 224C487.255 224 486.075 222.76 486.075 220.42V214.72H483.815V213.66H485.135C485.915 213.66 486.135 213.46 486.215 212.7L486.315 211.12H487.235V213.66H490.815V214.72H487.235V220.38C487.235 222.08 487.935 222.88 489.495 222.88H490.955V224H489.455ZM496.952 224.16C494.552 224.16 493.052 222.98 493.052 221.08C493.052 219.24 494.452 218.08 496.572 218.08H501.132V217.34C501.132 215.62 499.872 214.48 497.952 214.48C496.392 214.48 495.172 215.28 494.752 216.52H493.572C494.072 214.6 495.732 213.4 497.932 213.4C500.512 213.4 502.292 214.98 502.292 217.28V224H501.332L501.212 222.22C500.312 223.46 498.792 224.16 496.952 224.16ZM494.212 221.06C494.212 222.32 495.272 223.12 496.992 223.12C499.392 223.12 501.152 221.62 501.152 219.54V219.1H496.612C495.192 219.1 494.212 219.88 494.212 221.06ZM494.992 211.94L497.472 208.92H498.392L500.872 211.94H499.612L497.932 209.84L496.252 211.94H494.992ZM510.573 224.26C507.473 224.26 505.293 222 505.293 218.82C505.293 215.64 507.473 213.4 510.573 213.4C513.033 213.4 515.053 214.86 515.653 217.1H514.473C513.793 215.46 512.353 214.52 510.573 214.52C508.133 214.52 506.453 216.28 506.453 218.82C506.453 221.38 508.133 223.14 510.573 223.14C512.473 223.14 513.953 222.08 514.533 220.38H515.753C515.053 222.8 513.113 224.26 510.573 224.26ZM518.908 224V209.2H520.068V215.54C520.888 214.12 522.328 213.4 523.948 213.4C526.628 213.4 528.268 215.26 528.268 218.24V224H527.108V218.34C527.108 215.96 525.848 214.52 523.788 214.52C521.608 214.52 520.068 216.14 520.068 218.62V224H518.908ZM536.549 224.26C533.409 224.26 531.269 222.04 531.269 218.82C531.269 215.62 533.429 213.4 536.569 213.4C539.829 213.4 541.929 215.8 541.849 219.3H532.449C532.649 221.64 534.249 223.16 536.549 223.16C538.229 223.16 539.569 222.38 540.249 221.04L541.549 221.06C540.749 223.04 538.869 224.26 536.549 224.26ZM532.449 218.28H540.709C540.429 215.94 538.829 214.5 536.569 214.5C534.269 214.5 532.649 216 532.449 218.28ZM548.581 224.26C545.961 224.26 544.301 222.94 544.221 220.88H545.361C545.481 222.34 546.621 223.2 548.601 223.2C550.421 223.2 551.521 222.5 551.521 221.36C551.521 220.28 550.541 219.62 548.341 219.24C545.641 218.78 544.421 217.82 544.421 216.24C544.421 214.48 545.921 213.4 548.341 213.4C550.781 213.4 552.321 214.56 552.481 216.54H551.321C551.201 215.18 550.141 214.44 548.341 214.44C546.621 214.44 545.581 215.14 545.581 216.26C545.581 217.28 546.441 217.84 548.741 218.28C551.361 218.78 552.661 219.82 552.661 221.38C552.661 223.12 551.081 224.26 548.581 224.26ZM563.176 219.64C563.176 218.26 563.736 217.38 565.236 216.46C566.716 215.52 567.236 214.76 567.236 213.56C567.236 211.9 566.076 210.9 564.096 210.9C562.136 210.9 560.856 211.92 560.756 213.64H559.576C559.716 211.22 561.416 209.74 564.056 209.74C566.676 209.74 568.416 211.24 568.416 213.52C568.416 215.04 567.656 216.24 565.876 217.36C564.676 218.1 564.356 218.64 564.356 219.72V220.16H563.176V219.64ZM562.696 223.08C562.696 222.46 563.136 222.04 563.776 222.04C564.396 222.04 564.836 222.46 564.836 223.08C564.836 223.7 564.396 224.12 563.776 224.12C563.136 224.12 562.696 223.7 562.696 223.08Z" fill="black"/>
<path d="M660.5 239.26C656.24 239.26 653.28 236.28 653.28 232C653.28 227.72 656.24 224.74 660.5 224.74C664.78 224.74 667.72 227.72 667.72 232C667.72 235.52 665.74 238.16 662.66 238.98L662.84 239.42C663.42 240.8 664.12 241.24 665.84 241.24H666.96V242.4H665.76C663.66 242.4 662.46 241.66 661.7 239.86L661.44 239.22C661.14 239.24 660.82 239.26 660.5 239.26ZM654.52 232C654.52 235.58 656.96 238.04 660.5 238.04C664.06 238.04 666.5 235.58 666.5 232C666.5 228.4 664.06 225.96 660.5 225.96C656.96 225.96 654.52 228.4 654.52 232ZM675.132 239.26C672.472 239.26 670.832 237.36 670.832 234.38V228.66H671.992V234.28C671.992 236.64 673.252 238.14 675.292 238.14C677.432 238.14 678.912 236.46 678.912 234V228.66H680.072V239H679.112L678.992 236.98C678.192 238.48 676.752 239.26 675.132 239.26ZM688.577 239.26C685.437 239.26 683.297 237.04 683.297 233.82C683.297 230.62 685.457 228.4 688.597 228.4C691.857 228.4 693.957 230.8 693.877 234.3H684.477C684.677 236.64 686.277 238.16 688.577 238.16C690.257 238.16 691.597 237.38 692.277 236.04L693.577 236.06C692.777 238.04 690.897 239.26 688.577 239.26ZM684.477 233.28H692.737C692.457 230.94 690.857 229.5 688.597 229.5C686.297 229.5 684.677 231 684.477 233.28ZM697.048 239V224.2H698.208V239H697.048ZM702.322 239V224.2H703.482V239H702.322ZM711.975 239.26C708.835 239.26 706.695 237.04 706.695 233.82C706.695 230.62 708.855 228.4 711.995 228.4C715.255 228.4 717.355 230.8 717.275 234.3H707.875C708.075 236.64 709.675 238.16 711.975 238.16C713.655 238.16 714.995 237.38 715.675 236.04L716.975 236.06C716.175 238.04 714.295 239.26 711.975 239.26ZM707.875 233.28H716.135C715.855 230.94 714.255 229.5 711.995 229.5C709.695 229.5 708.075 231 707.875 233.28ZM724.007 239.26C721.387 239.26 719.727 237.94 719.647 235.88H720.787C720.907 237.34 722.047 238.2 724.027 238.2C725.847 238.2 726.947 237.5 726.947 236.36C726.947 235.28 725.967 234.62 723.767 234.24C721.067 233.78 719.847 232.82 719.847 231.24C719.847 229.48 721.347 228.4 723.767 228.4C726.207 228.4 727.747 229.56 727.907 231.54H726.747C726.627 230.18 725.567 229.44 723.767 229.44C722.047 229.44 721.007 230.14 721.007 231.26C721.007 232.28 721.867 232.84 724.167 233.28C726.787 233.78 728.087 234.82 728.087 236.38C728.087 238.12 726.507 239.26 724.007 239.26ZM736.365 239V228.66H737.345L737.445 230.34C738.165 229.08 739.425 228.4 741.025 228.4C742.825 228.4 744.205 229.3 744.805 230.88C745.505 229.3 746.925 228.4 748.745 228.4C751.345 228.4 753.025 230.18 753.025 233.06V239H751.865V233.24C751.865 230.94 750.585 229.52 748.605 229.52C746.585 229.52 745.265 230.98 745.265 233.32V239H744.105V233.24C744.105 230.94 742.845 229.52 740.865 229.52C738.845 229.52 737.525 230.98 737.525 233.32V239H736.365ZM761.292 239.26C758.152 239.26 756.012 237.04 756.012 233.82C756.012 230.62 758.172 228.4 761.312 228.4C764.572 228.4 766.672 230.8 766.592 234.3H757.192C757.392 236.64 758.992 238.16 761.292 238.16C762.972 238.16 764.312 237.38 764.992 236.04L766.292 236.06C765.492 238.04 763.612 239.26 761.292 239.26ZM757.192 233.28H765.452C765.172 230.94 763.572 229.5 761.312 229.5C759.012 229.5 757.392 231 757.192 233.28ZM760.552 226.94L761.652 223.92H762.912L761.652 226.94H760.552ZM773.631 239C771.431 239 770.251 237.76 770.251 235.42V229.72H767.991V228.66H769.311C770.091 228.66 770.311 228.46 770.391 227.7L770.491 226.12H771.411V228.66H774.991V229.72H771.411V235.38C771.411 237.08 772.111 237.88 773.671 237.88H775.131V239H773.631ZM778.24 239V224.2H779.4V230.54C780.22 229.12 781.66 228.4 783.28 228.4C785.96 228.4 787.6 230.26 787.6 233.24V239H786.44V233.34C786.44 230.96 785.18 229.52 783.12 229.52C780.94 229.52 779.4 231.14 779.4 233.62V239H778.24ZM796.041 239.26C792.841 239.26 790.601 237.02 790.601 233.82C790.601 230.64 792.841 228.4 796.041 228.4C799.221 228.4 801.461 230.64 801.461 233.82C801.461 237.02 799.221 239.26 796.041 239.26ZM791.761 233.82C791.761 236.38 793.501 238.14 796.041 238.14C798.561 238.14 800.301 236.38 800.301 233.82C800.301 231.28 798.561 229.52 796.041 229.52C793.501 229.52 791.761 231.28 791.761 233.82ZM809.085 239.26C805.965 239.26 803.785 236.96 803.785 233.82C803.785 230.68 805.965 228.4 809.085 228.4C810.985 228.4 812.525 229.24 813.445 230.58V224.2H814.605V239H813.645L813.505 236.96C812.605 238.38 811.025 239.26 809.085 239.26ZM804.945 233.82C804.945 236.36 806.685 238.14 809.225 238.14C811.745 238.14 813.485 236.36 813.485 233.82C813.485 231.3 811.745 229.52 809.225 229.52C806.685 229.52 804.945 231.3 804.945 233.82ZM823.108 239.26C819.968 239.26 817.828 237.04 817.828 233.82C817.828 230.62 819.988 228.4 823.128 228.4C826.388 228.4 828.488 230.8 828.408 234.3H819.008C819.208 236.64 820.808 238.16 823.108 238.16C824.788 238.16 826.128 237.38 826.808 236.04L828.108 236.06C827.308 238.04 825.428 239.26 823.108 239.26ZM819.008 233.28H827.268C826.988 230.94 825.388 229.5 823.128 229.5C820.828 229.5 819.208 231 819.008 233.28ZM835.14 239.26C832.52 239.26 830.86 237.94 830.78 235.88H831.92C832.04 237.34 833.18 238.2 835.16 238.2C836.98 238.2 838.08 237.5 838.08 236.36C838.08 235.28 837.1 234.62 834.9 234.24C832.2 233.78 830.98 232.82 830.98 231.24C830.98 229.48 832.48 228.4 834.9 228.4C837.34 228.4 838.88 229.56 839.04 231.54H837.88C837.76 230.18 836.7 229.44 834.9 229.44C833.18 229.44 832.14 230.14 832.14 231.26C832.14 232.28 833 232.84 835.3 233.28C837.92 233.78 839.22 234.82 839.22 236.38C839.22 238.12 837.64 239.26 835.14 239.26ZM851.409 239.26C848.269 239.26 846.129 237.04 846.129 233.82C846.129 230.62 848.289 228.4 851.429 228.4C854.689 228.4 856.789 230.8 856.709 234.3H847.309C847.509 236.64 849.109 238.16 851.409 238.16C853.089 238.16 854.429 237.38 855.109 236.04L856.409 236.06C855.609 238.04 853.729 239.26 851.409 239.26ZM847.309 233.28H855.569C855.289 230.94 853.689 229.5 851.429 229.5C849.129 229.5 847.509 231 847.309 233.28ZM858.132 239L862.212 233.7L858.392 228.66H859.772L861.872 231.4L862.972 232.88L864.072 231.4L866.172 228.66H867.572L863.752 233.7L867.832 239H866.412L864.152 236.06L862.992 234.52L861.812 236.06L859.552 239H858.132ZM870.701 239V228.66H871.861V239H870.701ZM870.221 225.72C870.221 225.14 870.641 224.68 871.281 224.68C871.921 224.68 872.341 225.14 872.341 225.72C872.341 226.32 871.921 226.78 871.281 226.78C870.641 226.78 870.221 226.32 870.221 225.72ZM879.534 239.26C876.914 239.26 875.254 237.94 875.174 235.88H876.314C876.434 237.34 877.574 238.2 879.554 238.2C881.374 238.2 882.474 237.5 882.474 236.36C882.474 235.28 881.494 234.62 879.294 234.24C876.594 233.78 875.374 232.82 875.374 231.24C875.374 229.48 876.874 228.4 879.294 228.4C881.734 228.4 883.274 229.56 883.434 231.54H882.274C882.154 230.18 881.094 229.44 879.294 229.44C877.574 229.44 876.534 230.14 876.534 231.26C876.534 232.28 877.394 232.84 879.694 233.28C882.314 233.78 883.614 234.82 883.614 236.38C883.614 238.12 882.034 239.26 879.534 239.26ZM890.877 239C888.677 239 887.497 237.76 887.497 235.42V229.72H885.237V228.66H886.557C887.337 228.66 887.557 228.46 887.637 227.7L887.737 226.12H888.657V228.66H892.237V229.72H888.657V235.38C888.657 237.08 889.357 237.88 890.917 237.88H892.377V239H890.877ZM899.358 239.26C896.218 239.26 894.078 237.04 894.078 233.82C894.078 230.62 896.238 228.4 899.378 228.4C902.638 228.4 904.738 230.8 904.658 234.3H895.258C895.458 236.64 897.058 238.16 899.358 238.16C901.038 238.16 902.378 237.38 903.058 236.04L904.358 236.06C903.558 238.04 901.678 239.26 899.358 239.26ZM895.258 233.28H903.518C903.238 230.94 901.638 229.5 899.378 229.5C897.078 229.5 895.458 231 895.258 233.28ZM907.83 239V228.66H908.81L908.91 230.66C909.73 229.18 911.17 228.4 912.83 228.4C915.53 228.4 917.19 230.3 917.19 233.28V239H916.03V233.38C916.03 231 914.75 229.52 912.69 229.52C910.51 229.52 908.99 231.18 908.99 233.64V239H907.83ZM924.959 239C922.759 239 921.579 237.76 921.579 235.42V229.72H919.319V228.66H920.639C921.419 228.66 921.639 228.46 921.719 227.7L921.819 226.12H922.739V228.66H926.319V229.72H922.739V235.38C922.739 237.08 923.439 237.88 924.999 237.88H926.459V239H924.959ZM657.3 268.16C654.9 268.16 653.4 266.98 653.4 265.08C653.4 263.24 654.8 262.08 656.92 262.08H661.48V261.34C661.48 259.62 660.22 258.48 658.3 258.48C656.74 258.48 655.52 259.28 655.1 260.52H653.92C654.42 258.6 656.08 257.4 658.28 257.4C660.86 257.4 662.64 258.98 662.64 261.28V268H661.68L661.56 266.22C660.66 267.46 659.14 268.16 657.3 268.16ZM654.56 265.06C654.56 266.32 655.62 267.12 657.34 267.12C659.74 267.12 661.5 265.62 661.5 263.54V263.1H656.96C655.54 263.1 654.56 263.88 654.56 265.06ZM670.62 268.26C667.96 268.26 666.32 266.36 666.32 263.38V257.66H667.48V263.28C667.48 265.64 668.74 267.14 670.78 267.14C672.92 267.14 674.4 265.46 674.4 263V257.66H675.56V268H674.6L674.48 265.98C673.68 267.48 672.24 268.26 670.62 268.26ZM676.745 272.06V270.96H677.725C679.185 270.96 679.705 270.48 679.705 268.76V257.66H680.865V268.78C680.865 271.06 680.065 272.06 677.785 272.06H676.745ZM679.225 254.72C679.225 254.14 679.645 253.68 680.285 253.68C680.925 253.68 681.345 254.14 681.345 254.72C681.345 255.32 680.925 255.78 680.285 255.78C679.645 255.78 679.225 255.32 679.225 254.72ZM689.518 268.26C686.318 268.26 684.078 266.02 684.078 262.82C684.078 259.64 686.318 257.4 689.518 257.4C692.698 257.4 694.938 259.64 694.938 262.82C694.938 266.02 692.698 268.26 689.518 268.26ZM685.238 262.82C685.238 265.38 686.978 267.14 689.518 267.14C692.038 267.14 693.778 265.38 693.778 262.82C693.778 260.28 692.038 258.52 689.518 258.52C686.978 258.52 685.238 260.28 685.238 262.82ZM702.242 268.26C699.582 268.26 697.942 266.36 697.942 263.38V257.66H699.102V263.28C699.102 265.64 700.362 267.14 702.402 267.14C704.542 267.14 706.022 265.46 706.022 263V257.66H707.182V268H706.222L706.102 265.98C705.302 267.48 703.862 268.26 702.242 268.26ZM711.306 268V257.66H712.286L712.406 259.98C713.106 258.42 714.286 257.66 716.206 257.66H717.066V258.74H716.166C713.946 258.74 712.466 260.1 712.466 263.24V268H711.306ZM723.577 268.26C720.457 268.26 718.277 265.96 718.277 262.82C718.277 259.68 720.457 257.4 723.577 257.4C725.477 257.4 727.017 258.24 727.937 259.58V253.2H729.097V268H728.137L727.997 265.96C727.097 267.38 725.517 268.26 723.577 268.26ZM719.437 262.82C719.437 265.36 721.177 267.14 723.717 267.14C726.237 267.14 727.977 265.36 727.977 262.82C727.977 260.3 726.237 258.52 723.717 258.52C721.177 258.52 719.437 260.3 719.437 262.82ZM732.84 258.86L732.8 254H733.9L733.86 258.86H732.84ZM737.615 268V253.2H738.775V259.54C739.595 258.12 741.035 257.4 742.655 257.4C745.335 257.4 746.975 259.26 746.975 262.24V268H745.815V262.34C745.815 259.96 744.555 258.52 742.495 258.52C740.315 258.52 738.775 260.14 738.775 262.62V268H737.615ZM754.956 268.26C752.296 268.26 750.656 266.36 750.656 263.38V257.66H751.816V263.28C751.816 265.64 753.076 267.14 755.116 267.14C757.256 267.14 758.736 265.46 758.736 263V257.66H759.896V268H758.936L758.816 265.98C758.016 267.48 756.576 268.26 754.956 268.26ZM764.021 268V257.66H765.181V268H764.021ZM763.541 254.72C763.541 254.14 763.961 253.68 764.601 253.68C765.241 253.68 765.661 254.14 765.661 254.72C765.661 255.32 765.241 255.78 764.601 255.78C763.961 255.78 763.541 255.32 763.541 254.72ZM780.166 268.26C778.266 268.26 776.726 267.4 775.806 266.04V272H774.646V257.66H775.626L775.746 259.72C776.646 258.28 778.226 257.4 780.166 257.4C783.306 257.4 785.466 259.68 785.466 262.82C785.466 265.96 783.306 268.26 780.166 268.26ZM775.766 262.82C775.766 265.36 777.506 267.14 780.046 267.14C782.586 267.14 784.306 265.36 784.306 262.82C784.306 260.3 782.586 258.52 780.046 258.52C777.506 258.52 775.766 260.3 775.766 262.82ZM793.229 268.26C790.029 268.26 787.789 266.02 787.789 262.82C787.789 259.64 790.029 257.4 793.229 257.4C796.409 257.4 798.649 259.64 798.649 262.82C798.649 266.02 796.409 268.26 793.229 268.26ZM788.949 262.82C788.949 265.38 790.689 267.14 793.229 267.14C795.749 267.14 797.489 265.38 797.489 262.82C797.489 260.28 795.749 258.52 793.229 258.52C790.689 258.52 788.949 260.28 788.949 262.82ZM805.953 268.26C803.293 268.26 801.653 266.36 801.653 263.38V257.66H802.813V263.28C802.813 265.64 804.073 267.14 806.113 267.14C808.253 267.14 809.733 265.46 809.733 263V257.66H810.893V268H809.933L809.812 265.98C809.013 267.48 807.573 268.26 805.953 268.26ZM815.017 268V257.66H815.997L816.117 259.98C816.817 258.42 817.997 257.66 819.917 257.66H820.777V258.74H819.877C817.657 258.74 816.177 260.1 816.177 263.24V268H815.017ZM828.708 268V253.2H829.868V268H828.708ZM837.222 268.16C834.822 268.16 833.322 266.98 833.322 265.08C833.322 263.24 834.722 262.08 836.842 262.08H841.402V261.34C841.402 259.62 840.142 258.48 838.222 258.48C836.662 258.48 835.442 259.28 835.022 260.52H833.842C834.342 258.6 836.002 257.4 838.202 257.4C840.782 257.4 842.562 258.98 842.562 261.28V268H841.602L841.482 266.22C840.582 267.46 839.062 268.16 837.222 268.16ZM834.482 265.06C834.482 266.32 835.542 267.12 837.262 267.12C839.662 267.12 841.422 265.62 841.422 263.54V263.1H836.882C835.462 263.1 834.482 263.88 834.482 265.06ZM855.885 272.26C853.345 272.26 851.465 270.92 851.065 268.82H852.245C852.585 270.26 853.985 271.16 855.885 271.16C858.265 271.16 859.785 269.76 859.785 267.54V265.86C858.865 267.12 857.385 267.88 855.625 267.88C852.605 267.88 850.445 265.68 850.445 262.64C850.445 259.6 852.605 257.4 855.625 257.4C857.445 257.4 858.945 258.2 859.865 259.52L859.965 257.66H860.945V267.58C860.945 270.36 858.905 272.26 855.885 272.26ZM851.605 262.64C851.605 265.06 853.305 266.74 855.745 266.74C858.165 266.74 859.865 265.06 859.865 262.64C859.865 260.22 858.165 258.52 855.745 258.52C853.305 258.52 851.605 260.22 851.605 262.64ZM869.436 268.26C866.296 268.26 864.156 266.04 864.156 262.82C864.156 259.62 866.316 257.4 869.456 257.4C872.716 257.4 874.816 259.8 874.736 263.3H865.336C865.536 265.64 867.136 267.16 869.436 267.16C871.116 267.16 872.456 266.38 873.136 265.04L874.436 265.06C873.636 267.04 871.756 268.26 869.436 268.26ZM865.336 262.28H873.596C873.316 259.94 871.716 258.5 869.456 258.5C867.156 258.5 865.536 260 865.336 262.28ZM881.468 268.26C878.848 268.26 877.188 266.94 877.108 264.88H878.248C878.368 266.34 879.508 267.2 881.488 267.2C883.308 267.2 884.408 266.5 884.408 265.36C884.408 264.28 883.428 263.62 881.228 263.24C878.528 262.78 877.308 261.82 877.308 260.24C877.308 258.48 878.808 257.4 881.228 257.4C883.668 257.4 885.208 258.56 885.368 260.54H884.208C884.088 259.18 883.028 258.44 881.228 258.44C879.508 258.44 878.468 259.14 878.468 260.26C878.468 261.28 879.328 261.84 881.628 262.28C884.248 262.78 885.548 263.82 885.548 265.38C885.548 267.12 883.968 268.26 881.468 268.26ZM892.811 268C890.611 268 889.431 266.76 889.431 264.42V258.72H887.171V257.66H888.491C889.271 257.66 889.491 257.46 889.571 256.7L889.671 255.12H890.591V257.66H894.171V258.72H890.591V264.38C890.591 266.08 891.291 266.88 892.851 266.88H894.311V268H892.811ZM897.419 268V257.66H898.579V268H897.419ZM896.939 254.72C896.939 254.14 897.359 253.68 897.999 253.68C898.639 253.68 899.059 254.14 899.059 254.72C899.059 255.32 898.639 255.78 897.999 255.78C897.359 255.78 896.939 255.32 896.939 254.72ZM907.233 268.26C904.033 268.26 901.793 266.02 901.793 262.82C901.793 259.64 904.033 257.4 907.233 257.4C910.413 257.4 912.653 259.64 912.653 262.82C912.653 266.02 910.413 268.26 907.233 268.26ZM902.953 262.82C902.953 265.38 904.693 267.14 907.233 267.14C909.753 267.14 911.493 265.38 911.493 262.82C911.493 260.28 909.753 258.52 907.233 258.52C904.693 258.52 902.953 260.28 902.953 262.82ZM915.876 268V257.66H916.856L916.956 259.66C917.776 258.18 919.216 257.4 920.876 257.4C923.576 257.4 925.236 259.3 925.236 262.28V268H924.076V262.38C924.076 260 922.796 258.52 920.736 258.52C918.556 258.52 917.036 260.18 917.036 262.64V268H915.876ZM938.421 268.26C935.301 268.26 933.121 265.96 933.121 262.82C933.121 259.68 935.301 257.4 938.421 257.4C940.321 257.4 941.861 258.24 942.781 259.58V253.2H943.941V268H942.981L942.841 265.96C941.941 267.38 940.361 268.26 938.421 268.26ZM934.281 262.82C934.281 265.36 936.021 267.14 938.561 267.14C941.081 267.14 942.821 265.36 942.821 262.82C942.821 260.3 941.081 258.52 938.561 258.52C936.021 258.52 934.281 260.3 934.281 262.82ZM952.444 268.26C949.304 268.26 947.164 266.04 947.164 262.82C947.164 259.62 949.324 257.4 952.464 257.4C955.724 257.4 957.824 259.8 957.744 263.3H948.344C948.544 265.64 950.144 267.16 952.444 267.16C954.124 267.16 955.464 266.38 956.144 265.04L957.444 265.06C956.644 267.04 954.764 268.26 952.444 268.26ZM948.344 262.28H956.604C956.324 259.94 954.724 258.5 952.464 258.5C950.164 258.5 948.544 260 948.344 262.28ZM964.475 268.26C961.855 268.26 960.195 266.94 960.115 264.88H961.255C961.375 266.34 962.515 267.2 964.495 267.2C966.315 267.2 967.415 266.5 967.415 265.36C967.415 264.28 966.435 263.62 964.235 263.24C961.535 262.78 960.315 261.82 960.315 260.24C960.315 258.48 961.815 257.4 964.235 257.4C966.675 257.4 968.215 258.56 968.375 260.54H967.215C967.095 259.18 966.035 258.44 964.235 258.44C962.515 258.44 961.475 259.14 961.475 260.26C961.475 261.28 962.335 261.84 964.635 262.28C967.255 262.78 968.555 263.82 968.555 265.38C968.555 267.12 966.975 268.26 964.475 268.26ZM658.26 297C656.06 297 654.88 295.76 654.88 293.42V287.72H652.62V286.66H653.94C654.72 286.66 654.94 286.46 655.02 285.7L655.12 284.12H656.04V286.66H659.62V287.72H656.04V293.38C656.04 295.08 656.74 295.88 658.3 295.88H659.76V297H658.26ZM665.757 297.16C663.357 297.16 661.857 295.98 661.857 294.08C661.857 292.24 663.257 291.08 665.377 291.08H669.937V290.34C669.937 288.62 668.677 287.48 666.757 287.48C665.197 287.48 663.977 288.28 663.557 289.52H662.377C662.877 287.6 664.537 286.4 666.737 286.4C669.317 286.4 671.097 287.98 671.097 290.28V297H670.137L670.017 295.22C669.117 296.46 667.597 297.16 665.757 297.16ZM663.017 294.06C663.017 295.32 664.077 296.12 665.797 296.12C668.197 296.12 669.957 294.62 669.957 292.54V292.1H665.417C663.997 292.1 663.017 292.88 663.017 294.06ZM663.797 284.94L666.277 281.92H667.197L669.677 284.94H668.417L666.737 282.84L665.057 284.94H663.797ZM679.378 297.26C676.278 297.26 674.098 295 674.098 291.82C674.098 288.64 676.278 286.4 679.378 286.4C681.838 286.4 683.858 287.86 684.458 290.1H683.278C682.598 288.46 681.158 287.52 679.378 287.52C676.938 287.52 675.258 289.28 675.258 291.82C675.258 294.38 676.938 296.14 679.378 296.14C681.278 296.14 682.758 295.08 683.338 293.38H684.558C683.858 295.8 681.918 297.26 679.378 297.26ZM687.712 297V282.2H688.872V288.54C689.692 287.12 691.132 286.4 692.752 286.4C695.432 286.4 697.072 288.26 697.072 291.24V297H695.912V291.34C695.912 288.96 694.652 287.52 692.592 287.52C690.412 287.52 688.872 289.14 688.872 291.62V297H687.712ZM705.354 297.26C702.214 297.26 700.074 295.04 700.074 291.82C700.074 288.62 702.234 286.4 705.374 286.4C708.634 286.4 710.734 288.8 710.654 292.3H701.254C701.454 294.64 703.054 296.16 705.354 296.16C707.034 296.16 708.374 295.38 709.054 294.04L710.354 294.06C709.554 296.04 707.674 297.26 705.354 297.26ZM701.254 291.28H709.514C709.234 288.94 707.634 287.5 705.374 287.5C703.074 287.5 701.454 289 701.254 291.28ZM717.386 297.26C714.766 297.26 713.106 295.94 713.026 293.88H714.166C714.286 295.34 715.426 296.2 717.406 296.2C719.226 296.2 720.326 295.5 720.326 294.36C720.326 293.28 719.346 292.62 717.146 292.24C714.446 291.78 713.226 290.82 713.226 289.24C713.226 287.48 714.726 286.4 717.146 286.4C719.586 286.4 721.126 287.56 721.286 289.54H720.126C720.006 288.18 718.946 287.44 717.146 287.44C715.426 287.44 714.386 288.14 714.386 289.26C714.386 290.28 715.246 290.84 717.546 291.28C720.166 291.78 721.466 292.82 721.466 294.38C721.466 296.12 719.886 297.26 717.386 297.26ZM731.98 292.64C731.98 291.26 732.54 290.38 734.04 289.46C735.52 288.52 736.04 287.76 736.04 286.56C736.04 284.9 734.88 283.9 732.9 283.9C730.94 283.9 729.66 284.92 729.56 286.64H728.38C728.52 284.22 730.22 282.74 732.86 282.74C735.48 282.74 737.22 284.24 737.22 286.52C737.22 288.04 736.46 289.24 734.68 290.36C733.48 291.1 733.16 291.64 733.16 292.72V293.16H731.98V292.64ZM731.5 296.08C731.5 295.46 731.94 295.04 732.58 295.04C733.2 295.04 733.64 295.46 733.64 296.08C733.64 296.7 733.2 297.12 732.58 297.12C731.94 297.12 731.5 296.7 731.5 296.08Z" fill="black"/>
<path d="M750.38 87.26C746.26 87.26 743.28 84.26 743.28 80C743.28 75.74 746.26 72.74 750.38 72.74C753.58 72.74 756.2 74.6 757.12 77.54H755.84C755.04 75.32 752.96 73.96 750.4 73.96C746.98 73.96 744.52 76.42 744.52 80C744.52 83.58 746.98 86.04 750.4 86.04C753.02 86.04 755.18 84.62 755.96 82.3H757.24C756.38 85.32 753.68 87.26 750.38 87.26ZM764.909 87.26C761.709 87.26 759.469 85.02 759.469 81.82C759.469 78.64 761.709 76.4 764.909 76.4C768.089 76.4 770.329 78.64 770.329 81.82C770.329 85.02 768.089 87.26 764.909 87.26ZM760.629 81.82C760.629 84.38 762.369 86.14 764.909 86.14C767.429 86.14 769.169 84.38 769.169 81.82C769.169 79.28 767.429 77.52 764.909 77.52C762.369 77.52 760.629 79.28 760.629 81.82ZM773.552 87V76.66H774.532L774.632 78.34C775.352 77.08 776.612 76.4 778.212 76.4C780.012 76.4 781.392 77.3 781.992 78.88C782.692 77.3 784.112 76.4 785.932 76.4C788.532 76.4 790.212 78.18 790.212 81.06V87H789.052V81.24C789.052 78.94 787.772 77.52 785.792 77.52C783.772 77.52 782.452 78.98 782.452 81.32V87H781.292V81.24C781.292 78.94 780.032 77.52 778.052 77.52C776.032 77.52 774.712 78.98 774.712 81.32V87H773.552ZM794.099 87V76.66H795.079L795.179 78.34C795.899 77.08 797.159 76.4 798.759 76.4C800.559 76.4 801.939 77.3 802.539 78.88C803.239 77.3 804.659 76.4 806.479 76.4C809.079 76.4 810.759 78.18 810.759 81.06V87H809.599V81.24C809.599 78.94 808.319 77.52 806.339 77.52C804.319 77.52 802.999 78.98 802.999 81.32V87H801.839V81.24C801.839 78.94 800.579 77.52 798.599 77.52C796.579 77.52 795.259 78.98 795.259 81.32V87H794.099ZM819.026 87.26C815.886 87.26 813.746 85.04 813.746 81.82C813.746 78.62 815.906 76.4 819.046 76.4C822.306 76.4 824.406 78.8 824.326 82.3H814.926C815.126 84.64 816.726 86.16 819.026 86.16C820.706 86.16 822.046 85.38 822.726 84.04L824.026 84.06C823.226 86.04 821.346 87.26 819.026 87.26ZM814.926 81.28H823.186C822.906 78.94 821.306 77.5 819.046 77.5C816.746 77.5 815.126 79 814.926 81.28ZM827.498 87V76.66H828.478L828.578 78.66C829.398 77.18 830.838 76.4 832.498 76.4C835.198 76.4 836.858 78.3 836.858 81.28V87H835.698V81.38C835.698 79 834.418 77.52 832.358 77.52C830.178 77.52 828.658 79.18 828.658 81.64V87H827.498ZM844.627 87C842.427 87 841.247 85.76 841.247 83.42V77.72H838.987V76.66H840.307C841.087 76.66 841.307 76.46 841.387 75.7L841.487 74.12H842.407V76.66H845.987V77.72H842.407V83.38C842.407 85.08 843.107 85.88 844.667 85.88H846.127V87H844.627ZM858.519 87.26C855.399 87.26 853.219 84.96 853.219 81.82C853.219 78.68 855.399 76.4 858.519 76.4C860.419 76.4 861.959 77.24 862.879 78.58V72.2H864.039V87H863.079L862.939 84.96C862.039 86.38 860.459 87.26 858.519 87.26ZM854.379 81.82C854.379 84.36 856.119 86.14 858.659 86.14C861.179 86.14 862.919 84.36 862.919 81.82C862.919 79.3 861.179 77.52 858.659 77.52C856.119 77.52 854.379 79.3 854.379 81.82ZM872.542 87.26C869.402 87.26 867.262 85.04 867.262 81.82C867.262 78.62 869.422 76.4 872.562 76.4C875.822 76.4 877.922 78.8 877.842 82.3H868.442C868.642 84.64 870.242 86.16 872.542 86.16C874.222 86.16 875.562 85.38 876.242 84.04L877.542 84.06C876.742 86.04 874.862 87.26 872.542 87.26ZM868.442 81.28H876.702C876.422 78.94 874.822 77.5 872.562 77.5C870.262 77.5 868.642 79 868.442 81.28ZM871.802 74.94L872.902 71.92H874.162L872.902 74.94H871.802ZM884.881 87C882.681 87 881.501 85.76 881.501 83.42V77.72H879.241V76.66H880.561C881.341 76.66 881.561 76.46 881.641 75.7L881.741 74.12H882.661V76.66H886.241V77.72H882.661V83.38C882.661 85.08 883.361 85.88 884.921 85.88H886.381V87H884.881ZM893.362 87.26C890.222 87.26 888.082 85.04 888.082 81.82C888.082 78.62 890.242 76.4 893.382 76.4C896.642 76.4 898.742 78.8 898.662 82.3H889.262C889.462 84.64 891.062 86.16 893.362 86.16C895.042 86.16 896.382 85.38 897.062 84.04L898.362 84.06C897.562 86.04 895.682 87.26 893.362 87.26ZM889.262 81.28H897.522C897.242 78.94 895.642 77.5 893.382 77.5C891.082 77.5 889.462 79 889.262 81.28ZM901.833 87V76.66H902.813L902.933 78.98C903.633 77.42 904.813 76.66 906.733 76.66H907.593V77.74H906.693C904.473 77.74 902.993 79.1 902.993 82.24V87H901.833ZM910.505 87V76.66H911.485L911.585 78.34C912.305 77.08 913.565 76.4 915.165 76.4C916.965 76.4 918.345 77.3 918.945 78.88C919.645 77.3 921.065 76.4 922.885 76.4C925.485 76.4 927.165 78.18 927.165 81.06V87H926.005V81.24C926.005 78.94 924.725 77.52 922.745 77.52C920.725 77.52 919.405 78.98 919.405 81.32V87H918.245V81.24C918.245 78.94 916.985 77.52 915.005 77.52C912.985 77.52 911.665 78.98 911.665 81.32V87H910.505ZM931.052 87V76.66H932.212V87H931.052ZM930.572 73.72C930.572 73.14 930.992 72.68 931.632 72.68C932.272 72.68 932.692 73.14 932.692 73.72C932.692 74.32 932.272 74.78 931.632 74.78C930.992 74.78 930.572 74.32 930.572 73.72ZM936.326 87V76.66H937.306L937.406 78.66C938.226 77.18 939.666 76.4 941.326 76.4C944.026 76.4 945.686 78.3 945.686 81.28V87H944.526V81.38C944.526 79 943.246 77.52 941.186 77.52C939.006 77.52 937.486 79.18 937.486 81.64V87H936.326ZM954.127 87.26C950.927 87.26 948.687 85.02 948.687 81.82C948.687 78.64 950.927 76.4 954.127 76.4C957.307 76.4 959.547 78.64 959.547 81.82C959.547 85.02 957.307 87.26 954.127 87.26ZM949.847 81.82C949.847 84.38 951.587 86.14 954.127 86.14C956.647 86.14 958.387 84.38 958.387 81.82C958.387 79.28 956.647 77.52 954.127 77.52C951.587 77.52 949.847 79.28 949.847 81.82ZM962.771 87V76.66H963.751L963.851 78.66C964.671 77.18 966.111 76.4 967.771 76.4C970.471 76.4 972.131 78.3 972.131 81.28V87H970.971V81.38C970.971 79 969.691 77.52 967.631 77.52C965.451 77.52 963.931 79.18 963.931 81.64V87H962.771ZM979.593 87.26C976.973 87.26 975.313 85.94 975.233 83.88H976.373C976.493 85.34 977.633 86.2 979.613 86.2C981.433 86.2 982.533 85.5 982.533 84.36C982.533 83.28 981.553 82.62 979.353 82.24C976.653 81.78 975.433 80.82 975.433 79.24C975.433 77.48 976.933 76.4 979.353 76.4C981.793 76.4 983.333 77.56 983.493 79.54H982.333C982.213 78.18 981.153 77.44 979.353 77.44C977.633 77.44 976.593 78.14 976.593 79.26C976.593 80.28 977.453 80.84 979.753 81.28C982.373 81.78 983.673 82.82 983.673 84.38C983.673 86.12 982.093 87.26 979.593 87.26ZM986.569 82.46V81.38H992.469V82.46H986.569ZM996.13 87V76.66H997.11L997.21 78.66C998.03 77.18 999.47 76.4 1001.13 76.4C1003.83 76.4 1005.49 78.3 1005.49 81.28V87H1004.33V81.38C1004.33 79 1003.05 77.52 1000.99 77.52C998.81 77.52 997.29 79.18 997.29 81.64V87H996.13ZM1013.93 87.26C1010.73 87.26 1008.49 85.02 1008.49 81.82C1008.49 78.64 1010.73 76.4 1013.93 76.4C1017.11 76.4 1019.35 78.64 1019.35 81.82C1019.35 85.02 1017.11 87.26 1013.93 87.26ZM1009.65 81.82C1009.65 84.38 1011.39 86.14 1013.93 86.14C1016.45 86.14 1018.19 84.38 1018.19 81.82C1018.19 79.28 1016.45 77.52 1013.93 77.52C1011.39 77.52 1009.65 79.28 1009.65 81.82ZM1026.66 87.26C1024 87.26 1022.36 85.36 1022.36 82.38V76.66H1023.52V82.28C1023.52 84.64 1024.78 86.14 1026.82 86.14C1028.96 86.14 1030.44 84.46 1030.44 82V76.66H1031.6V87H1030.64L1030.52 84.98C1029.72 86.48 1028.28 87.26 1026.66 87.26ZM1039.28 87.26C1036.66 87.26 1035 85.94 1034.92 83.88H1036.06C1036.18 85.34 1037.32 86.2 1039.3 86.2C1041.12 86.2 1042.22 85.5 1042.22 84.36C1042.22 83.28 1041.24 82.62 1039.04 82.24C1036.34 81.78 1035.12 80.82 1035.12 79.24C1035.12 77.48 1036.62 76.4 1039.04 76.4C1041.48 76.4 1043.02 77.56 1043.18 79.54H1042.02C1041.9 78.18 1040.84 77.44 1039.04 77.44C1037.32 77.44 1036.28 78.14 1036.28 79.26C1036.28 80.28 1037.14 80.84 1039.44 81.28C1042.06 81.78 1043.36 82.82 1043.36 84.38C1043.36 86.12 1041.78 87.26 1039.28 87.26ZM1055.55 87.26C1052.45 87.26 1050.27 85 1050.27 81.82C1050.27 78.64 1052.45 76.4 1055.55 76.4C1058.01 76.4 1060.03 77.86 1060.63 80.1H1059.45C1058.77 78.46 1057.33 77.52 1055.55 77.52C1053.11 77.52 1051.43 79.28 1051.43 81.82C1051.43 84.38 1053.11 86.14 1055.55 86.14C1057.45 86.14 1058.93 85.08 1059.51 83.38H1060.73C1060.03 85.8 1058.09 87.26 1055.55 87.26ZM1068.26 87.26C1065.12 87.26 1062.98 85.04 1062.98 81.82C1062.98 78.62 1065.14 76.4 1068.28 76.4C1071.54 76.4 1073.64 78.8 1073.56 82.3H1064.16C1064.36 84.64 1065.96 86.16 1068.26 86.16C1069.94 86.16 1071.28 85.38 1071.96 84.04L1073.26 84.06C1072.46 86.04 1070.58 87.26 1068.26 87.26ZM1064.16 81.28H1072.42C1072.14 78.94 1070.54 77.5 1068.28 77.5C1065.98 77.5 1064.36 79 1064.16 81.28ZM748.46 116.26C745.34 116.26 743.16 113.96 743.16 110.82C743.16 107.68 745.34 105.4 748.46 105.4C750.4 105.4 751.98 106.28 752.9 107.7L753.02 105.66H753.98V120H752.82V114.06C751.9 115.42 750.36 116.26 748.46 116.26ZM744.32 110.82C744.32 113.36 746.06 115.14 748.6 115.14C751.12 115.14 752.86 113.36 752.86 110.82C752.86 108.3 751.12 106.52 748.6 106.52C746.06 106.52 744.32 108.3 744.32 110.82ZM762.183 116.26C759.523 116.26 757.883 114.36 757.883 111.38V105.66H759.043V111.28C759.043 113.64 760.303 115.14 762.343 115.14C764.483 115.14 765.963 113.46 765.963 111V105.66H767.123V116H766.163L766.043 113.98C765.243 115.48 763.803 116.26 762.183 116.26ZM771.248 116V105.66H772.408V116H771.248ZM770.768 102.72C770.768 102.14 771.188 101.68 771.827 101.68C772.468 101.68 772.888 102.14 772.888 102.72C772.888 103.32 772.468 103.78 771.827 103.78C771.188 103.78 770.768 103.32 770.768 102.72ZM785.784 116.26C782.644 116.26 780.504 114.04 780.504 110.82C780.504 107.62 782.664 105.4 785.804 105.4C789.064 105.4 791.164 107.8 791.084 111.3H781.684C781.884 113.64 783.484 115.16 785.784 115.16C787.464 115.16 788.804 114.38 789.484 113.04L790.784 113.06C789.984 115.04 788.104 116.26 785.784 116.26ZM781.684 110.28H789.944C789.664 107.94 788.064 106.5 785.804 106.5C783.504 106.5 781.884 108 781.684 110.28ZM797.815 116.26C795.195 116.26 793.535 114.94 793.455 112.88H794.595C794.715 114.34 795.855 115.2 797.835 115.2C799.655 115.2 800.755 114.5 800.755 113.36C800.755 112.28 799.775 111.62 797.575 111.24C794.875 110.78 793.655 109.82 793.655 108.24C793.655 106.48 795.155 105.4 797.575 105.4C800.015 105.4 801.555 106.56 801.715 108.54H800.555C800.435 107.18 799.375 106.44 797.575 106.44C795.855 106.44 794.815 107.14 794.815 108.26C794.815 109.28 795.675 109.84 797.975 110.28C800.595 110.78 801.895 111.82 801.895 113.38C801.895 115.12 800.315 116.26 797.815 116.26ZM809.158 116C806.958 116 805.778 114.76 805.778 112.42V106.72H803.518V105.66H804.838C805.618 105.66 805.838 105.46 805.918 104.7L806.018 103.12H806.938V105.66H810.518V106.72H806.938V112.38C806.938 114.08 807.638 114.88 809.198 114.88H810.658V116H809.158ZM824.639 116.26C822.739 116.26 821.199 115.4 820.279 114.04V120H819.119V105.66H820.099L820.219 107.72C821.119 106.28 822.699 105.4 824.639 105.4C827.779 105.4 829.939 107.68 829.939 110.82C829.939 113.96 827.779 116.26 824.639 116.26ZM820.239 110.82C820.239 113.36 821.979 115.14 824.519 115.14C827.059 115.14 828.779 113.36 828.779 110.82C828.779 108.3 827.059 106.52 824.519 106.52C821.979 106.52 820.239 108.3 820.239 110.82ZM837.542 116.26C834.402 116.26 832.262 114.04 832.262 110.82C832.262 107.62 834.422 105.4 837.562 105.4C840.822 105.4 842.922 107.8 842.842 111.3H833.442C833.642 113.64 835.242 115.16 837.542 115.16C839.222 115.16 840.562 114.38 841.242 113.04L842.542 113.06C841.742 115.04 839.862 116.26 837.542 116.26ZM833.442 110.28H841.702C841.422 107.94 839.822 106.5 837.562 106.5C835.262 106.5 833.642 108 833.442 110.28ZM846.013 116V105.66H846.993L847.113 107.98C847.813 106.42 848.993 105.66 850.913 105.66H851.773V106.74H850.873C848.653 106.74 847.173 108.1 847.173 111.24V116H846.013ZM858.885 116C856.685 116 855.505 114.76 855.505 112.42V106.72H853.245V105.66H854.565C855.345 105.66 855.565 105.46 855.645 104.7L855.745 103.12H856.665V105.66H860.245V106.72H856.665V112.38C856.665 114.08 857.365 114.88 858.925 114.88H860.385V116H858.885ZM863.494 116V105.66H864.654V116H863.494ZM863.014 102.72C863.014 102.14 863.434 101.68 864.074 101.68C864.714 101.68 865.134 102.14 865.134 102.72C865.134 103.32 864.714 103.78 864.074 103.78C863.434 103.78 863.014 103.32 863.014 102.72ZM868.767 116V105.66H869.747L869.847 107.66C870.667 106.18 872.107 105.4 873.767 105.4C876.467 105.4 878.127 107.3 878.127 110.28V116H876.967V110.38C876.967 108 875.687 106.52 873.627 106.52C871.447 106.52 869.927 108.18 869.927 110.64V116H868.767ZM886.409 116.26C883.269 116.26 881.129 114.04 881.129 110.82C881.129 107.62 883.289 105.4 886.429 105.4C889.689 105.4 891.789 107.8 891.709 111.3H882.309C882.509 113.64 884.109 115.16 886.409 115.16C888.089 115.16 889.429 114.38 890.109 113.04L891.409 113.06C890.609 115.04 888.729 116.26 886.409 116.26ZM882.309 110.28H890.569C890.289 107.94 888.689 106.5 886.429 106.5C884.129 106.5 882.509 108 882.309 110.28ZM894.88 116V105.66H895.86L895.96 107.66C896.78 106.18 898.22 105.4 899.88 105.4C902.58 105.4 904.24 107.3 904.24 110.28V116H903.08V110.38C903.08 108 901.8 106.52 899.74 106.52C897.56 106.52 896.04 108.18 896.04 110.64V116H894.88ZM912.01 116C909.81 116 908.63 114.76 908.63 112.42V106.72H906.37V105.66H907.69C908.47 105.66 908.69 105.46 908.77 104.7L908.87 103.12H909.79V105.66H913.37V106.72H909.79V112.38C909.79 114.08 910.49 114.88 912.05 114.88H913.51V116H912.01ZM927.49 116.26C925.59 116.26 924.05 115.4 923.13 114.04V120H921.97V105.66H922.95L923.07 107.72C923.97 106.28 925.55 105.4 927.49 105.4C930.63 105.4 932.79 107.68 932.79 110.82C932.79 113.96 930.63 116.26 927.49 116.26ZM923.09 110.82C923.09 113.36 924.83 115.14 927.37 115.14C929.91 115.14 931.63 113.36 931.63 110.82C931.63 108.3 929.91 106.52 927.37 106.52C924.83 106.52 923.09 108.3 923.09 110.82ZM940.553 116.26C937.353 116.26 935.113 114.02 935.113 110.82C935.113 107.64 937.353 105.4 940.553 105.4C943.733 105.4 945.973 107.64 945.973 110.82C945.973 114.02 943.733 116.26 940.553 116.26ZM936.273 110.82C936.273 113.38 938.013 115.14 940.553 115.14C943.073 115.14 944.813 113.38 944.813 110.82C944.813 108.28 943.073 106.52 940.553 106.52C938.013 106.52 936.273 108.28 936.273 110.82ZM953.277 116.26C950.617 116.26 948.977 114.36 948.977 111.38V105.66H950.137V111.28C950.137 113.64 951.397 115.14 953.437 115.14C955.577 115.14 957.057 113.46 957.057 111V105.66H958.217V116H957.257L957.137 113.98C956.337 115.48 954.897 116.26 953.277 116.26ZM962.341 116V105.66H963.321L963.441 107.98C964.141 106.42 965.321 105.66 967.241 105.66H968.101V106.74H967.201C964.981 106.74 963.501 108.1 963.501 111.24V116H962.341ZM979.944 116.26C976.844 116.26 974.664 114 974.664 110.82C974.664 107.64 976.844 105.4 979.944 105.4C982.404 105.4 984.424 106.86 985.024 109.1H983.844C983.164 107.46 981.724 106.52 979.944 106.52C977.504 106.52 975.824 108.28 975.824 110.82C975.824 113.38 977.504 115.14 979.944 115.14C981.844 115.14 983.324 114.08 983.904 112.38H985.124C984.424 114.8 982.484 116.26 979.944 116.26ZM988.279 116V101.2H989.439V107.54C990.259 106.12 991.699 105.4 993.319 105.4C995.999 105.4 997.639 107.26 997.639 110.24V116H996.479V110.34C996.479 107.96 995.219 106.52 993.159 106.52C990.979 106.52 989.439 108.14 989.439 110.62V116H988.279ZM1004.78 116.16C1002.38 116.16 1000.88 114.98 1000.88 113.08C1000.88 111.24 1002.28 110.08 1004.4 110.08H1008.96V109.34C1008.96 107.62 1007.7 106.48 1005.78 106.48C1004.22 106.48 1003 107.28 1002.58 108.52H1001.4C1001.9 106.6 1003.56 105.4 1005.76 105.4C1008.34 105.4 1010.12 106.98 1010.12 109.28V116H1009.16L1009.04 114.22C1008.14 115.46 1006.62 116.16 1004.78 116.16ZM1002.04 113.06C1002.04 114.32 1003.1 115.12 1004.82 115.12C1007.22 115.12 1008.98 113.62 1008.98 111.54V111.1H1004.44C1003.02 111.1 1002.04 111.88 1002.04 113.06ZM1018.42 116.26C1015.3 116.26 1013.12 113.96 1013.12 110.82C1013.12 107.68 1015.3 105.4 1018.42 105.4C1020.36 105.4 1021.94 106.28 1022.86 107.7L1022.98 105.66H1023.94V120H1022.78V114.06C1021.86 115.42 1020.32 116.26 1018.42 116.26ZM1014.28 110.82C1014.28 113.36 1016.02 115.14 1018.56 115.14C1021.08 115.14 1022.82 113.36 1022.82 110.82C1022.82 108.3 1021.08 106.52 1018.56 106.52C1016.02 106.52 1014.28 108.3 1014.28 110.82ZM1032.14 116.26C1029.48 116.26 1027.84 114.36 1027.84 111.38V105.66H1029V111.28C1029 113.64 1030.26 115.14 1032.3 115.14C1034.44 115.14 1035.92 113.46 1035.92 111V105.66H1037.08V116H1036.12L1036 113.98C1035.2 115.48 1033.76 116.26 1032.14 116.26ZM1045.59 116.26C1042.45 116.26 1040.31 114.04 1040.31 110.82C1040.31 107.62 1042.47 105.4 1045.61 105.4C1048.87 105.4 1050.97 107.8 1050.89 111.3H1041.49C1041.69 113.64 1043.29 115.16 1045.59 115.16C1047.27 115.16 1048.61 114.38 1049.29 113.04L1050.59 113.06C1049.79 115.04 1047.91 116.26 1045.59 116.26ZM1041.49 110.28H1049.75C1049.47 107.94 1047.87 106.5 1045.61 106.5C1043.31 106.5 1041.69 108 1041.49 110.28ZM744.06 145V134.66H745.22V145H744.06ZM743.58 131.72C743.58 131.14 744 130.68 744.64 130.68C745.28 130.68 745.7 131.14 745.7 131.72C745.7 132.32 745.28 132.78 744.64 132.78C744 132.78 743.58 132.32 743.58 131.72ZM749.333 145V134.66H750.313L750.413 136.66C751.233 135.18 752.673 134.4 754.333 134.4C757.033 134.4 758.693 136.3 758.693 139.28V145H757.533V139.38C757.533 137 756.253 135.52 754.193 135.52C752.013 135.52 750.493 137.18 750.493 139.64V145H749.333ZM766.995 145.26C763.875 145.26 761.695 142.96 761.695 139.82C761.695 136.68 763.875 134.4 766.995 134.4C768.895 134.4 770.435 135.24 771.355 136.58V130.2H772.515V145H771.555L771.415 142.96C770.515 144.38 768.935 145.26 766.995 145.26ZM762.855 139.82C762.855 142.36 764.595 144.14 767.135 144.14C769.655 144.14 771.395 142.36 771.395 139.82C771.395 137.3 769.655 135.52 767.135 135.52C764.595 135.52 762.855 137.3 762.855 139.82ZM776.638 145V134.66H777.798V145H776.638ZM776.158 131.72C776.158 131.14 776.578 130.68 777.218 130.68C777.858 130.68 778.278 131.14 778.278 131.72C778.278 132.32 777.858 132.78 777.218 132.78C776.578 132.78 776.158 132.32 776.158 131.72ZM784.872 145L780.252 134.66H781.512L783.312 138.66L785.452 143.48L787.572 138.66L789.392 134.66H790.632L786.012 145H784.872ZM793.103 145V134.66H794.263V145H793.103ZM792.623 131.72C792.623 131.14 793.043 130.68 793.683 130.68C794.323 130.68 794.743 131.14 794.743 131.72C794.743 132.32 794.323 132.78 793.683 132.78C793.043 132.78 792.623 132.32 792.623 131.72ZM802.776 145.26C799.656 145.26 797.476 142.96 797.476 139.82C797.476 136.68 799.656 134.4 802.776 134.4C804.676 134.4 806.216 135.24 807.136 136.58V130.2H808.296V145H807.336L807.196 142.96C806.296 144.38 804.716 145.26 802.776 145.26ZM798.636 139.82C798.636 142.36 800.376 144.14 802.916 144.14C805.436 144.14 807.176 142.36 807.176 139.82C807.176 137.3 805.436 135.52 802.916 135.52C800.376 135.52 798.636 137.3 798.636 139.82ZM816.499 145.26C813.839 145.26 812.199 143.36 812.199 140.38V134.66H813.359V140.28C813.359 142.64 814.619 144.14 816.659 144.14C818.799 144.14 820.279 142.46 820.279 140V134.66H821.439V145H820.479L820.359 142.98C819.559 144.48 818.119 145.26 816.499 145.26ZM833.152 140.64C833.152 139.26 833.712 138.38 835.212 137.46C836.692 136.52 837.212 135.76 837.212 134.56C837.212 132.9 836.052 131.9 834.072 131.9C832.112 131.9 830.832 132.92 830.732 134.64H829.552C829.692 132.22 831.392 130.74 834.032 130.74C836.652 130.74 838.392 132.24 838.392 134.52C838.392 136.04 837.632 137.24 835.852 138.36C834.652 139.1 834.332 139.64 834.332 140.72V141.16H833.152V140.64ZM832.672 144.08C832.672 143.46 833.112 143.04 833.752 143.04C834.372 143.04 834.812 143.46 834.812 144.08C834.812 144.7 834.372 145.12 833.752 145.12C833.112 145.12 832.672 144.7 832.672 144.08Z" fill="black"/>
<path d="M6.76 58.26C3.56 58.26 1.5 56.54 1.4 53.84H2.6C2.72 55.9 4.34 57.1 6.76 57.1C9.06 57.1 10.48 56.08 10.48 54.46C10.48 53 9.34 52.14 6.52 51.52C3.08 50.72 1.62 49.56 1.62 47.46C1.62 45.22 3.44 43.74 6.42 43.74C9.5 43.74 11.38 45.3 11.48 48H10.28C10.18 46.02 8.76 44.9 6.42 44.9C4.16 44.9 2.84 45.92 2.84 47.46C2.84 48.86 3.88 49.72 6.82 50.38C10.36 51.2 11.72 52.44 11.72 54.44C11.72 56.78 9.8 58.26 6.76 58.26ZM19.2845 58.26C16.6245 58.26 14.9845 56.36 14.9845 53.38V47.66H16.1445V53.28C16.1445 55.64 17.4045 57.14 19.4445 57.14C21.5845 57.14 23.0645 55.46 23.0645 53V47.66H24.2245V58H23.2645L23.1445 55.98C22.3445 57.48 20.9045 58.26 19.2845 58.26ZM28.3491 58V47.66H29.3291L29.4491 49.98C30.1491 48.42 31.3291 47.66 33.2491 47.66H34.1091V48.74H33.2091C30.9891 48.74 29.5091 50.1 29.5091 53.24V58H28.3491ZM45.9717 58.26C42.8517 58.26 40.6717 55.96 40.6717 52.82C40.6717 49.68 42.8517 47.4 45.9717 47.4C47.9117 47.4 49.4917 48.28 50.4117 49.7L50.5317 47.66H51.4917V62H50.3317V56.06C49.4117 57.42 47.8717 58.26 45.9717 58.26ZM41.8317 52.82C41.8317 55.36 43.5717 57.14 46.1117 57.14C48.6317 57.14 50.3717 55.36 50.3717 52.82C50.3717 50.3 48.6317 48.52 46.1117 48.52C43.5717 48.52 41.8317 50.3 41.8317 52.82ZM59.6947 58.26C57.0347 58.26 55.3947 56.36 55.3947 53.38V47.66H56.5547V53.28C56.5547 55.64 57.8147 57.14 59.8547 57.14C61.9947 57.14 63.4747 55.46 63.4747 53V47.66H64.6347V58H63.6747L63.5547 55.98C62.7547 57.48 61.3147 58.26 59.6947 58.26ZM73.1392 58.26C69.9992 58.26 67.8592 56.04 67.8592 52.82C67.8592 49.62 70.0192 47.4 73.1592 47.4C76.4192 47.4 78.5192 49.8 78.4392 53.3H69.0392C69.2392 55.64 70.8392 57.16 73.1392 57.16C74.8192 57.16 76.1592 56.38 76.8392 55.04L78.1392 55.06C77.3392 57.04 75.4592 58.26 73.1392 58.26ZM69.0392 52.28H77.2992C77.0192 49.94 75.4192 48.5 73.1592 48.5C70.8592 48.5 69.2392 50 69.0392 52.28ZM81.6108 58V43.2H82.7708V58H81.6108ZM96.307 62.26C93.767 62.26 91.887 60.92 91.487 58.82H92.667C93.007 60.26 94.407 61.16 96.307 61.16C98.687 61.16 100.207 59.76 100.207 57.54V55.86C99.287 57.12 97.807 57.88 96.047 57.88C93.027 57.88 90.867 55.68 90.867 52.64C90.867 49.6 93.027 47.4 96.047 47.4C97.867 47.4 99.367 48.2 100.287 49.52L100.387 47.66H101.367V57.58C101.367 60.36 99.327 62.26 96.307 62.26ZM92.027 52.64C92.027 55.06 93.727 56.74 96.167 56.74C98.587 56.74 100.287 55.06 100.287 52.64C100.287 50.22 98.587 48.52 96.167 48.52C93.727 48.52 92.027 50.22 92.027 52.64ZM105.478 58V47.66H106.458L106.578 49.98C107.278 48.42 108.458 47.66 110.378 47.66H111.238V48.74H110.338C108.118 48.74 106.638 50.1 106.638 53.24V58H105.478ZM117.889 58.26C114.689 58.26 112.449 56.02 112.449 52.82C112.449 49.64 114.689 47.4 117.889 47.4C121.069 47.4 123.309 49.64 123.309 52.82C123.309 56.02 121.069 58.26 117.889 58.26ZM113.609 52.82C113.609 55.38 115.349 57.14 117.889 57.14C120.409 57.14 122.149 55.38 122.149 52.82C122.149 50.28 120.409 48.52 117.889 48.52C115.349 48.52 113.609 50.28 113.609 52.82ZM130.613 58.26C127.953 58.26 126.313 56.36 126.313 53.38V47.66H127.473V53.28C127.473 55.64 128.733 57.14 130.773 57.14C132.913 57.14 134.393 55.46 134.393 53V47.66H135.553V58H134.593L134.473 55.98C133.673 57.48 132.233 58.26 130.613 58.26ZM145.197 58.26C143.297 58.26 141.757 57.4 140.837 56.04V62H139.677V47.66H140.657L140.777 49.72C141.677 48.28 143.257 47.4 145.197 47.4C148.337 47.4 150.497 49.68 150.497 52.82C150.497 55.96 148.337 58.26 145.197 58.26ZM140.797 52.82C140.797 55.36 142.537 57.14 145.077 57.14C147.617 57.14 149.337 55.36 149.337 52.82C149.337 50.3 147.617 48.52 145.077 48.52C142.537 48.52 140.797 50.3 140.797 52.82ZM158.1 58.26C154.96 58.26 152.82 56.04 152.82 52.82C152.82 49.62 154.98 47.4 158.12 47.4C161.38 47.4 163.48 49.8 163.4 53.3H154C154.2 55.64 155.8 57.16 158.1 57.16C159.78 57.16 161.12 56.38 161.8 55.04L163.1 55.06C162.3 57.04 160.42 58.26 158.1 58.26ZM154 52.28H162.26C161.98 49.94 160.38 48.5 158.12 48.5C155.82 48.5 154.2 50 154 52.28ZM175.386 58.26C172.266 58.26 170.086 55.96 170.086 52.82C170.086 49.68 172.266 47.4 175.386 47.4C177.286 47.4 178.826 48.24 179.746 49.58V43.2H180.906V58H179.946L179.806 55.96C178.906 57.38 177.326 58.26 175.386 58.26ZM171.246 52.82C171.246 55.36 172.986 57.14 175.526 57.14C178.046 57.14 179.786 55.36 179.786 52.82C179.786 50.3 178.046 48.52 175.526 48.52C172.986 48.52 171.246 50.3 171.246 52.82ZM189.409 58.26C186.269 58.26 184.129 56.04 184.129 52.82C184.129 49.62 186.289 47.4 189.429 47.4C192.689 47.4 194.789 49.8 194.709 53.3H185.309C185.509 55.64 187.109 57.16 189.409 57.16C191.089 57.16 192.429 56.38 193.109 55.04L194.409 55.06C193.609 57.04 191.729 58.26 189.409 58.26ZM185.309 52.28H193.569C193.289 49.94 191.689 48.5 189.429 48.5C187.129 48.5 185.509 50 185.309 52.28ZM199.823 62.06V60.96H200.803C202.263 60.96 202.783 60.48 202.783 58.76V47.66H203.943V58.78C203.943 61.06 203.143 62.06 200.863 62.06H199.823ZM202.303 44.72C202.303 44.14 202.723 43.68 203.363 43.68C204.003 43.68 204.423 44.14 204.423 44.72C204.423 45.32 204.003 45.78 203.363 45.78C202.723 45.78 202.303 45.32 202.303 44.72ZM212.436 58.26C209.296 58.26 207.156 56.04 207.156 52.82C207.156 49.62 209.316 47.4 212.456 47.4C215.716 47.4 217.816 49.8 217.736 53.3H208.336C208.536 55.64 210.136 57.16 212.436 57.16C214.116 57.16 215.456 56.38 216.136 55.04L217.436 55.06C216.636 57.04 214.756 58.26 212.436 58.26ZM208.336 52.28H216.596C216.316 49.94 214.716 48.5 212.456 48.5C210.156 48.5 208.536 50 208.336 52.28ZM224.988 58.26C222.328 58.26 220.688 56.36 220.688 53.38V47.66H221.848V53.28C221.848 55.64 223.108 57.14 225.148 57.14C227.288 57.14 228.768 55.46 228.768 53V47.66H229.928V58H228.968L228.848 55.98C228.048 57.48 226.608 58.26 224.988 58.26ZM234.052 58V47.66H235.032L235.132 49.66C235.952 48.18 237.392 47.4 239.052 47.4C241.752 47.4 243.412 49.3 243.412 52.28V58H242.252V52.38C242.252 50 240.972 48.52 238.912 48.52C236.732 48.52 235.212 50.18 235.212 52.64V58H234.052ZM251.694 58.26C248.554 58.26 246.414 56.04 246.414 52.82C246.414 49.62 248.574 47.4 251.714 47.4C254.974 47.4 257.074 49.8 256.994 53.3H247.594C247.794 55.64 249.394 57.16 251.694 57.16C253.374 57.16 254.714 56.38 255.394 55.04L256.694 55.06C255.894 57.04 254.014 58.26 251.694 58.26ZM247.594 52.28H255.854C255.574 49.94 253.974 48.5 251.714 48.5C249.414 48.5 247.794 50 247.594 52.28ZM263.725 58.26C261.105 58.26 259.445 56.94 259.365 54.88H260.505C260.625 56.34 261.765 57.2 263.745 57.2C265.565 57.2 266.665 56.5 266.665 55.36C266.665 54.28 265.685 53.62 263.485 53.24C260.785 52.78 259.565 51.82 259.565 50.24C259.565 48.48 261.065 47.4 263.485 47.4C265.925 47.4 267.465 48.56 267.625 50.54H266.465C266.345 49.18 265.285 48.44 263.485 48.44C261.765 48.44 260.725 49.14 260.725 50.26C260.725 51.28 261.585 51.84 263.885 52.28C266.505 52.78 267.805 53.82 267.805 55.38C267.805 57.12 266.225 58.26 263.725 58.26ZM6.46 87.26C3.34 87.26 1.16 84.96 1.16 81.82C1.16 78.68 3.34 76.4 6.46 76.4C8.36 76.4 9.9 77.24 10.82 78.58V72.2H11.98V87H11.02L10.88 84.96C9.98 86.38 8.4 87.26 6.46 87.26ZM2.32 81.82C2.32 84.36 4.06 86.14 6.6 86.14C9.12 86.14 10.86 84.36 10.86 81.82C10.86 79.3 9.12 77.52 6.6 77.52C4.06 77.52 2.32 79.3 2.32 81.82ZM20.483 87.26C17.343 87.26 15.203 85.04 15.203 81.82C15.203 78.62 17.363 76.4 20.503 76.4C23.763 76.4 25.863 78.8 25.783 82.3H16.383C16.583 84.64 18.183 86.16 20.483 86.16C22.163 86.16 23.503 85.38 24.183 84.04L25.483 84.06C24.683 86.04 22.803 87.26 20.483 87.26ZM16.383 81.28H24.643C24.363 78.94 22.763 77.5 20.503 77.5C18.203 77.5 16.583 79 16.383 81.28ZM31.5239 87L26.9039 76.66H28.1639L29.9639 80.66L32.1039 85.48L34.2239 80.66L36.0439 76.66H37.2839L32.6639 87H31.5239ZM39.7553 87V76.66H40.7353L40.8553 78.98C41.5553 77.42 42.7353 76.66 44.6553 76.66H45.5153V77.74H44.6153C42.3953 77.74 40.9153 79.1 40.9153 82.24V87H39.7553ZM48.4272 87V76.66H49.5872V87H48.4272ZM47.9472 73.72C47.9472 73.14 48.3672 72.68 49.0072 72.68C49.6472 72.68 50.0672 73.14 50.0672 73.72C50.0672 74.32 49.6472 74.78 49.0072 74.78C48.3672 74.78 47.9472 74.32 47.9472 73.72ZM58.2406 87.26C55.0406 87.26 52.8006 85.02 52.8006 81.82C52.8006 78.64 55.0406 76.4 58.2406 76.4C61.4206 76.4 63.6606 78.64 63.6606 81.82C63.6606 85.02 61.4206 87.26 58.2406 87.26ZM53.9606 81.82C53.9606 84.38 55.7006 86.14 58.2406 86.14C60.7606 86.14 62.5006 84.38 62.5006 81.82C62.5006 79.28 60.7606 77.52 58.2406 77.52C55.7006 77.52 53.9606 79.28 53.9606 81.82ZM66.8842 87V76.66H67.8642L67.9642 78.66C68.7842 77.18 70.2242 76.4 71.8842 76.4C74.5842 76.4 76.2442 78.3 76.2442 81.28V87H75.0842V81.38C75.0842 79 73.8042 77.52 71.7442 77.52C69.5642 77.52 68.0442 79.18 68.0442 81.64V87H66.8842ZM83.7059 87.26C81.0859 87.26 79.4259 85.94 79.3459 83.88H80.4859C80.6059 85.34 81.7459 86.2 83.7259 86.2C85.5459 86.2 86.6459 85.5 86.6459 84.36C86.6459 83.28 85.6659 82.62 83.4659 82.24C80.7659 81.78 79.5459 80.82 79.5459 79.24C79.5459 77.48 81.0459 76.4 83.4659 76.4C85.9059 76.4 87.4459 77.56 87.6059 79.54H86.4459C86.3259 78.18 85.2659 77.44 83.4659 77.44C81.7459 77.44 80.7059 78.14 80.7059 79.26C80.7059 80.28 81.5659 80.84 83.8659 81.28C86.4859 81.78 87.7859 82.82 87.7859 84.38C87.7859 86.12 86.2059 87.26 83.7059 87.26ZM90.682 82.46V81.38H96.582V82.46H90.682ZM100.244 87V76.66H101.224L101.324 78.66C102.144 77.18 103.584 76.4 105.244 76.4C107.944 76.4 109.604 78.3 109.604 81.28V87H108.444V81.38C108.444 79 107.164 77.52 105.104 77.52C102.924 77.52 101.404 79.18 101.404 81.64V87H100.244ZM118.045 87.26C114.845 87.26 112.605 85.02 112.605 81.82C112.605 78.64 114.845 76.4 118.045 76.4C121.225 76.4 123.465 78.64 123.465 81.82C123.465 85.02 121.225 87.26 118.045 87.26ZM113.765 81.82C113.765 84.38 115.505 86.14 118.045 86.14C120.565 86.14 122.305 84.38 122.305 81.82C122.305 79.28 120.565 77.52 118.045 77.52C115.505 77.52 113.765 79.28 113.765 81.82ZM130.769 87.26C128.109 87.26 126.469 85.36 126.469 82.38V76.66H127.629V82.28C127.629 84.64 128.889 86.14 130.929 86.14C133.069 86.14 134.549 84.46 134.549 82V76.66H135.709V87H134.749L134.629 84.98C133.829 86.48 132.389 87.26 130.769 87.26ZM143.393 87.26C140.773 87.26 139.113 85.94 139.033 83.88H140.173C140.293 85.34 141.433 86.2 143.413 86.2C145.233 86.2 146.333 85.5 146.333 84.36C146.333 83.28 145.353 82.62 143.153 82.24C140.453 81.78 139.233 80.82 139.233 79.24C139.233 77.48 140.733 76.4 143.153 76.4C145.593 76.4 147.133 77.56 147.293 79.54H146.133C146.013 78.18 144.953 77.44 143.153 77.44C141.433 77.44 140.393 78.14 140.393 79.26C140.393 80.28 141.253 80.84 143.553 81.28C146.173 81.78 147.473 82.82 147.473 84.38C147.473 86.12 145.893 87.26 143.393 87.26ZM155.751 87V76.66H156.731L156.831 78.66C157.651 77.18 159.091 76.4 160.751 76.4C163.451 76.4 165.111 78.3 165.111 81.28V87H163.951V81.38C163.951 79 162.671 77.52 160.611 77.52C158.431 77.52 156.911 79.18 156.911 81.64V87H155.751ZM173.553 87.26C170.353 87.26 168.113 85.02 168.113 81.82C168.113 78.64 170.353 76.4 173.553 76.4C176.733 76.4 178.973 78.64 178.973 81.82C178.973 85.02 176.733 87.26 173.553 87.26ZM169.273 81.82C169.273 84.38 171.013 86.14 173.553 86.14C176.073 86.14 177.813 84.38 177.813 81.82C177.813 79.28 176.073 77.52 173.553 77.52C171.013 77.52 169.273 79.28 169.273 81.82ZM186.277 87.26C183.617 87.26 181.977 85.36 181.977 82.38V76.66H183.137V82.28C183.137 84.64 184.397 86.14 186.437 86.14C188.577 86.14 190.057 84.46 190.057 82V76.66H191.217V87H190.257L190.137 84.98C189.337 86.48 187.897 87.26 186.277 87.26ZM198.901 87.26C196.281 87.26 194.621 85.94 194.541 83.88H195.681C195.801 85.34 196.941 86.2 198.921 86.2C200.741 86.2 201.841 85.5 201.841 84.36C201.841 83.28 200.861 82.62 198.661 82.24C195.961 81.78 194.741 80.82 194.741 79.24C194.741 77.48 196.241 76.4 198.661 76.4C201.101 76.4 202.641 77.56 202.801 79.54H201.641C201.521 78.18 200.461 77.44 198.661 77.44C196.941 77.44 195.901 78.14 195.901 79.26C195.901 80.28 196.761 80.84 199.061 81.28C201.681 81.78 202.981 82.82 202.981 84.38C202.981 86.12 201.401 87.26 198.901 87.26ZM215.17 87.26C212.07 87.26 209.89 85 209.89 81.82C209.89 78.64 212.07 76.4 215.17 76.4C217.63 76.4 219.65 77.86 220.25 80.1H219.07C218.39 78.46 216.95 77.52 215.17 77.52C212.73 77.52 211.05 79.28 211.05 81.82C211.05 84.38 212.73 86.14 215.17 86.14C217.07 86.14 218.55 85.08 219.13 83.38H220.35C219.65 85.8 217.71 87.26 215.17 87.26ZM228.045 87.26C224.845 87.26 222.605 85.02 222.605 81.82C222.605 78.64 224.845 76.4 228.045 76.4C231.225 76.4 233.465 78.64 233.465 81.82C233.465 85.02 231.225 87.26 228.045 87.26ZM223.765 81.82C223.765 84.38 225.505 86.14 228.045 86.14C230.565 86.14 232.305 84.38 232.305 81.82C232.305 79.28 230.565 77.52 228.045 77.52C225.505 77.52 223.765 79.28 223.765 81.82ZM236.689 87V76.66H237.669L237.769 78.66C238.589 77.18 240.029 76.4 241.689 76.4C244.389 76.4 246.049 78.3 246.049 81.28V87H244.889V81.38C244.889 79 243.609 77.52 241.549 77.52C239.369 77.52 237.849 79.18 237.849 81.64V87H236.689ZM254.331 87.26C251.231 87.26 249.051 85 249.051 81.82C249.051 78.64 251.231 76.4 254.331 76.4C256.791 76.4 258.811 77.86 259.411 80.1H258.231C257.551 78.46 256.111 77.52 254.331 77.52C251.891 77.52 250.211 79.28 250.211 81.82C250.211 84.38 251.891 86.14 254.331 86.14C256.231 86.14 257.711 85.08 258.291 83.38H259.511C258.811 85.8 256.871 87.26 254.331 87.26ZM267.045 87.26C263.905 87.26 261.765 85.04 261.765 81.82C261.765 78.62 263.925 76.4 267.065 76.4C270.325 76.4 272.425 78.8 272.345 82.3H262.945C263.145 84.64 264.745 86.16 267.045 86.16C268.725 86.16 270.065 85.38 270.745 84.04L272.045 84.06C271.245 86.04 269.365 87.26 267.045 87.26ZM262.945 81.28H271.205C270.925 78.94 269.325 77.5 267.065 77.5C264.765 77.5 263.145 79 262.945 81.28ZM275.517 87V76.66H276.497L276.597 78.66C277.417 77.18 278.857 76.4 280.517 76.4C283.217 76.4 284.877 78.3 284.877 81.28V87H283.717V81.38C283.717 79 282.437 77.52 280.377 77.52C278.197 77.52 276.677 79.18 276.677 81.64V87H275.517ZM292.647 87C290.447 87 289.267 85.76 289.267 83.42V77.72H287.007V76.66H288.327C289.107 76.66 289.327 76.46 289.407 75.7L289.507 74.12H290.427V76.66H294.007V77.72H290.427V83.38C290.427 85.08 291.127 85.88 292.687 85.88H294.147V87H292.647ZM297.255 87V76.66H298.235L298.355 78.98C299.055 77.42 300.235 76.66 302.155 76.66H303.015V77.74H302.115C299.895 77.74 298.415 79.1 298.415 82.24V87H297.255ZM309.506 87.26C306.366 87.26 304.226 85.04 304.226 81.82C304.226 78.62 306.386 76.4 309.526 76.4C312.786 76.4 314.886 78.8 314.806 82.3H305.406C305.606 84.64 307.206 86.16 309.506 86.16C311.186 86.16 312.526 85.38 313.206 84.04L314.506 84.06C313.706 86.04 311.826 87.26 309.506 87.26ZM305.406 81.28H313.666C313.386 78.94 311.786 77.5 309.526 77.5C307.226 77.5 305.606 79 305.406 81.28ZM317.978 87V76.66H318.958L319.078 78.98C319.778 77.42 320.958 76.66 322.878 76.66H323.738V77.74H322.838C320.618 77.74 319.138 79.1 319.138 82.24V87H317.978ZM333.906 82.64C333.906 81.26 334.466 80.38 335.966 79.46C337.446 78.52 337.966 77.76 337.966 76.56C337.966 74.9 336.806 73.9 334.826 73.9C332.866 73.9 331.586 74.92 331.486 76.64H330.306C330.446 74.22 332.146 72.74 334.786 72.74C337.406 72.74 339.146 74.24 339.146 76.52C339.146 78.04 338.386 79.24 336.606 80.36C335.406 81.1 335.086 81.64 335.086 82.72V83.16H333.906V82.64ZM333.426 86.08C333.426 85.46 333.866 85.04 334.506 85.04C335.126 85.04 335.566 85.46 335.566 86.08C335.566 86.7 335.126 87.12 334.506 87.12C333.866 87.12 333.426 86.7 333.426 86.08Z" fill="black"/>
</svg>
