<svg width="636" height="316" viewBox="0 0 636 316" fill="none" xmlns="http://www.w3.org/2000/svg">
<path fill-rule="evenodd" clip-rule="evenodd" d="M476.313 315.369L476.109 315.165V0.205368L476.313 0.00146484H477.534L635.218 157.685L477.534 315.369H476.313Z" fill="#F6F5FF"/>
<mask id="path-2-inside-1_995_44952" fill="white">
<path fill-rule="evenodd" clip-rule="evenodd" d="M158.704 315.369L158.5 315.165V0.20488L158.704 0.000976562H159.925L317.609 157.685L159.925 315.369H158.704Z"/>
</mask>
<path fill-rule="evenodd" clip-rule="evenodd" d="M158.704 315.369L158.5 315.165V0.20488L158.704 0.000976562H159.925L317.609 157.685L159.925 315.369H158.704Z" fill="#DAD7FF"/>
<path d="M158.704 315.369L157.997 316.076L158.29 316.369H158.704V315.369ZM158.5 315.165H157.5V315.579L157.793 315.872L158.5 315.165ZM158.5 0.20488L157.793 -0.502227L157.5 -0.209334V0.20488H158.5ZM158.704 0.000976562V-0.999023H158.29L157.997 -0.70613L158.704 0.000976562ZM159.925 0.000976562L160.632 -0.70613L160.339 -0.999023H159.925V0.000976562ZM317.609 157.685L318.316 158.392L319.023 157.685L318.316 156.978L317.609 157.685ZM159.925 315.369V316.369H160.339L160.632 316.076L159.925 315.369ZM159.411 314.662L159.207 314.458L157.793 315.872L157.997 316.076L159.411 314.662ZM159.5 315.165V0.20488H157.5V315.165H159.5ZM159.207 0.911987L159.411 0.708083L157.997 -0.70613L157.793 -0.502227L159.207 0.911987ZM158.704 1.00098H159.925V-0.999023H158.704V1.00098ZM159.218 0.708083L316.902 158.392L318.316 156.978L160.632 -0.70613L159.218 0.708083ZM316.902 156.978L159.218 314.662L160.632 316.076L318.316 158.392L316.902 156.978ZM159.925 314.369H158.704V316.369H159.925V314.369Z" fill="#F6F5FF" mask="url(#path-2-inside-1_995_44952)"/>
<path fill-rule="evenodd" clip-rule="evenodd" d="M476.507 -1.78288e-08L476.711 0.203949L476.711 315.164L476.507 315.368L475.286 315.368L317.602 157.684L475.286 -1.24573e-07L476.507 -1.78288e-08Z" fill="#F6F5FF"/>
<path fill-rule="evenodd" clip-rule="evenodd" d="M158.905 0.000976545L159.109 0.204926L159.109 315.165L158.905 315.369L157.684 315.369L0.00057836 157.685L157.684 0.000976438L158.905 0.000976545Z" fill="#F6F5FF"/>
<path d="M56.0366 162V149.384H60.0198C64.039 149.384 66.5803 151.889 66.5803 155.692C66.5803 159.495 64.039 162 60.0198 162H56.0366ZM57.1361 160.955H60.0198C63.3721 160.955 65.4629 158.9 65.4629 155.692C65.4629 152.484 63.3541 150.429 59.9838 150.429H57.1361V160.955ZM69.5851 162V152.682H70.6305V162H69.5851ZM69.1526 150.032C69.1526 149.51 69.5311 149.095 70.1078 149.095C70.6846 149.095 71.063 149.51 71.063 150.032C71.063 150.573 70.6846 150.988 70.1078 150.988C69.5311 150.988 69.1526 150.573 69.1526 150.032ZM77.5455 162.234C75.1845 162.234 73.6885 161.045 73.6164 159.188H74.6438C74.7519 160.504 75.7792 161.279 77.5636 161.279C79.2037 161.279 80.195 160.648 80.195 159.621C80.195 158.648 79.3118 158.053 77.3293 157.71C74.8961 157.296 73.7967 156.431 73.7967 155.007C73.7967 153.421 75.1484 152.448 77.3293 152.448C79.5281 152.448 80.9159 153.493 81.0601 155.277H80.0147C79.9066 154.052 78.9514 153.385 77.3293 153.385C75.7792 153.385 74.842 154.016 74.842 155.025C74.842 155.944 75.617 156.449 77.6897 156.845C80.0508 157.296 81.2223 158.233 81.2223 159.639C81.2223 161.207 79.7985 162.234 77.5455 162.234ZM88.1938 162.234C85.4002 162.234 83.4356 160.198 83.4356 157.332C83.4356 154.466 85.4002 152.448 88.1938 152.448C90.4107 152.448 92.231 153.763 92.7717 155.782H91.7084C91.0956 154.304 89.7979 153.457 88.1938 153.457C85.995 153.457 84.481 155.043 84.481 157.332C84.481 159.639 85.995 161.225 88.1938 161.225C89.906 161.225 91.2398 160.27 91.7624 158.738H92.8619C92.231 160.919 90.4828 162.234 88.1938 162.234ZM99.7962 162.234C96.9125 162.234 94.8939 160.216 94.8939 157.332C94.8939 154.466 96.9125 152.448 99.7962 152.448C102.662 152.448 104.681 154.466 104.681 157.332C104.681 160.216 102.662 162.234 99.7962 162.234ZM95.9392 157.332C95.9392 159.639 97.5072 161.225 99.7962 161.225C102.067 161.225 103.635 159.639 103.635 157.332C103.635 155.043 102.067 153.457 99.7962 153.457C97.5072 153.457 95.9392 155.043 95.9392 157.332ZM109.901 162L105.738 152.682H106.873L108.495 156.287L110.424 160.63L112.334 156.287L113.974 152.682H115.092L110.928 162H109.901ZM120.914 162.234C118.084 162.234 116.156 160.234 116.156 157.332C116.156 154.448 118.102 152.448 120.932 152.448C123.87 152.448 125.762 154.61 125.69 157.765H117.219C117.399 159.873 118.841 161.243 120.914 161.243C122.428 161.243 123.635 160.54 124.248 159.333L125.42 159.351C124.699 161.135 123.005 162.234 120.914 162.234ZM117.219 156.845H124.663C124.41 154.737 122.969 153.439 120.932 153.439C118.859 153.439 117.399 154.791 117.219 156.845ZM128.548 162V152.682H129.431L129.54 154.773C130.17 153.367 131.234 152.682 132.964 152.682H133.739V153.655H132.928C130.927 153.655 129.594 154.881 129.594 157.71V162H128.548Z" fill="black"/>
<path d="M383.037 162V149.384H387.02C391.039 149.384 393.58 151.889 393.58 155.692C393.58 159.495 391.039 162 387.02 162H383.037ZM384.136 160.955H387.02C390.372 160.955 392.463 158.9 392.463 155.692C392.463 152.484 390.354 150.429 386.984 150.429H384.136V160.955ZM400.409 162.234C397.579 162.234 395.651 160.234 395.651 157.332C395.651 154.448 397.597 152.448 400.427 152.448C403.365 152.448 405.257 154.61 405.185 157.765H396.714C396.894 159.873 398.336 161.243 400.409 161.243C401.923 161.243 403.131 160.54 403.743 159.333L404.915 159.351C404.194 161.135 402.5 162.234 400.409 162.234ZM396.714 156.845H404.158C403.906 154.737 402.464 153.439 400.427 153.439C398.354 153.439 396.894 154.791 396.714 156.845ZM410.359 162L406.195 152.682H407.331L408.953 156.287L410.881 160.63L412.792 156.287L414.432 152.682H415.549L411.386 162H410.359ZM421.372 162.234C418.542 162.234 416.614 160.234 416.614 157.332C416.614 154.448 418.56 152.448 421.39 152.448C424.328 152.448 426.22 154.61 426.148 157.765H417.677C417.857 159.873 419.299 161.243 421.372 161.243C422.886 161.243 424.093 160.54 424.706 159.333L425.878 159.351C425.157 161.135 423.462 162.234 421.372 162.234ZM417.677 156.845H425.121C424.868 154.737 423.426 153.439 421.39 153.439C419.317 153.439 417.857 154.791 417.677 156.845ZM429.006 162V148.663H430.051V162H429.006ZM437.85 162.234C434.966 162.234 432.947 160.216 432.947 157.332C432.947 154.466 434.966 152.448 437.85 152.448C440.715 152.448 442.734 154.466 442.734 157.332C442.734 160.216 440.715 162.234 437.85 162.234ZM433.993 157.332C433.993 159.639 435.561 161.225 437.85 161.225C440.121 161.225 441.689 159.639 441.689 157.332C441.689 155.043 440.121 153.457 437.85 153.457C435.561 153.457 433.993 155.043 433.993 157.332ZM450.613 162.234C448.901 162.234 447.513 161.459 446.684 160.234V165.605H445.639V152.682H446.522L446.63 154.538C447.441 153.241 448.865 152.448 450.613 152.448C453.443 152.448 455.39 154.502 455.39 157.332C455.39 160.162 453.443 162.234 450.613 162.234ZM446.648 157.332C446.648 159.621 448.216 161.225 450.505 161.225C452.794 161.225 454.344 159.621 454.344 157.332C454.344 155.061 452.794 153.457 450.505 153.457C448.216 153.457 446.648 155.061 446.648 157.332Z" fill="black"/>
<path d="M185.037 162V149.384H189.02C193.039 149.384 195.58 151.889 195.58 155.692C195.58 159.495 193.039 162 189.02 162H185.037ZM186.136 160.955H189.02C192.372 160.955 194.463 158.9 194.463 155.692C194.463 152.484 192.354 150.429 188.984 150.429H186.136V160.955ZM202.409 162.234C199.579 162.234 197.651 160.234 197.651 157.332C197.651 154.448 199.597 152.448 202.427 152.448C205.365 152.448 207.257 154.61 207.185 157.765H198.714C198.894 159.873 200.336 161.243 202.409 161.243C203.923 161.243 205.131 160.54 205.743 159.333L206.915 159.351C206.194 161.135 204.5 162.234 202.409 162.234ZM198.714 156.845H206.158C205.906 154.737 204.464 153.439 202.427 153.439C200.354 153.439 198.894 154.791 198.714 156.845ZM217.619 162V153.637H211.743V162H210.698V153.637H208.571V152.682H210.698V151.601C210.698 149.492 211.761 148.428 213.87 148.428H215.222V149.42H213.96C212.41 149.42 211.743 150.087 211.743 151.673V152.682H218.664V162H217.619ZM217.168 150.032C217.168 149.51 217.565 149.095 218.142 149.095C218.7 149.095 219.097 149.51 219.097 150.032C219.097 150.573 218.7 150.988 218.142 150.988C217.565 150.988 217.168 150.573 217.168 150.032ZM222.382 162V152.682H223.265L223.355 154.484C224.094 153.151 225.391 152.448 226.887 152.448C229.321 152.448 230.817 154.16 230.817 156.845V162H229.771V156.935C229.771 154.791 228.618 153.457 226.761 153.457C224.797 153.457 223.427 154.953 223.427 157.17V162H222.382ZM238.28 162.234C235.45 162.234 233.522 160.234 233.522 157.332C233.522 154.448 235.468 152.448 238.298 152.448C241.236 152.448 243.128 154.61 243.056 157.765H234.585C234.765 159.873 236.207 161.243 238.28 161.243C239.794 161.243 241.001 160.54 241.614 159.333L242.786 159.351C242.065 161.135 240.37 162.234 238.28 162.234ZM234.585 156.845H242.029C241.776 154.737 240.334 153.439 238.298 153.439C236.225 153.439 234.765 154.791 234.585 156.845Z" fill="black"/>
<path d="M502.513 162.482V149.866H506.496C510.516 149.866 513.057 152.371 513.057 156.174C513.057 159.977 510.516 162.482 506.496 162.482H502.513ZM503.613 161.437H506.496C509.849 161.437 511.939 159.382 511.939 156.174C511.939 152.966 509.831 150.911 506.46 150.911H503.613V161.437ZM519.886 162.717C517.056 162.717 515.127 160.716 515.127 157.814C515.127 154.931 517.074 152.93 519.904 152.93C522.841 152.93 524.734 155.093 524.662 158.247H516.191C516.371 160.356 517.813 161.725 519.886 161.725C521.4 161.725 522.607 161.023 523.22 159.815L524.391 159.833C523.671 161.617 521.976 162.717 519.886 162.717ZM516.191 157.328H523.634C523.382 155.219 521.94 153.921 519.904 153.921C517.831 153.921 516.371 155.273 516.191 157.328ZM527.52 162.482V149.145H528.565V162.482H527.52ZM532.272 162.482V153.164H533.318V162.482H532.272ZM531.84 150.515C531.84 149.992 532.218 149.578 532.795 149.578C533.372 149.578 533.75 149.992 533.75 150.515C533.75 151.056 533.372 151.47 532.795 151.47C532.218 151.47 531.84 151.056 531.84 150.515ZM539.692 162.482L535.528 153.164H536.664L538.286 156.769L540.215 161.113L542.125 156.769L543.765 153.164H544.883L540.719 162.482H539.692ZM550.705 162.717C547.875 162.717 545.947 160.716 545.947 157.814C545.947 154.931 547.893 152.93 550.723 152.93C553.661 152.93 555.553 155.093 555.481 158.247H547.01C547.19 160.356 548.632 161.725 550.705 161.725C552.219 161.725 553.426 161.023 554.039 159.815L555.211 159.833C554.49 161.617 552.796 162.717 550.705 162.717ZM547.01 157.328H554.454C554.201 155.219 552.759 153.921 550.723 153.921C548.65 153.921 547.19 155.273 547.01 157.328ZM558.339 162.482V153.164H559.222L559.33 155.255C559.961 153.849 561.025 153.164 562.755 153.164H563.53V154.138H562.719C560.718 154.138 559.384 155.363 559.384 158.193V162.482H558.339Z" fill="black"/>
<line x1="158.5" y1="2.18552e-08" x2="158.5" y2="315" stroke="black"/>
<line x1="476.5" y1="2.18552e-08" x2="476.5" y2="315" stroke="black"/>
</svg>
