<svg width="636" height="316" viewBox="0 0 636 316" fill="none" xmlns="http://www.w3.org/2000/svg">
<path fill-rule="evenodd" clip-rule="evenodd" d="M476.313 315.369L476.109 315.165V0.205368L476.313 0.00146484H477.534L635.218 157.685L477.534 315.369H476.313Z" fill="#F6F5FF"/>
<mask id="path-2-inside-1_995_45124" fill="white">
<path fill-rule="evenodd" clip-rule="evenodd" d="M158.704 315.369L158.5 315.165V0.20488L158.704 0.000976562H159.925L317.609 157.685L159.925 315.369H158.704Z"/>
</mask>
<path fill-rule="evenodd" clip-rule="evenodd" d="M158.704 315.369L158.5 315.165V0.20488L158.704 0.000976562H159.925L317.609 157.685L159.925 315.369H158.704Z" fill="#DAD7FF"/>
<path d="M158.704 315.369L157.997 316.076L158.29 316.369H158.704V315.369ZM158.5 315.165H157.5V315.579L157.793 315.872L158.5 315.165ZM158.5 0.20488L157.793 -0.502227L157.5 -0.209334V0.20488H158.5ZM158.704 0.000976562V-0.999023H158.29L157.997 -0.70613L158.704 0.000976562ZM159.925 0.000976562L160.632 -0.70613L160.339 -0.999023H159.925V0.000976562ZM317.609 157.685L318.316 158.392L319.023 157.685L318.316 156.978L317.609 157.685ZM159.925 315.369V316.369H160.339L160.632 316.076L159.925 315.369ZM159.411 314.662L159.207 314.458L157.793 315.872L157.997 316.076L159.411 314.662ZM159.5 315.165V0.20488H157.5V315.165H159.5ZM159.207 0.911987L159.411 0.708083L157.997 -0.70613L157.793 -0.502227L159.207 0.911987ZM158.704 1.00098H159.925V-0.999023H158.704V1.00098ZM159.218 0.708083L316.902 158.392L318.316 156.978L160.632 -0.70613L159.218 0.708083ZM316.902 156.978L159.218 314.662L160.632 316.076L318.316 158.392L316.902 156.978ZM159.925 314.369H158.704V316.369H159.925V314.369Z" fill="#F6F5FF" mask="url(#path-2-inside-1_995_45124)"/>
<path fill-rule="evenodd" clip-rule="evenodd" d="M476.507 -1.78288e-08L476.711 0.203949L476.711 315.164L476.507 315.368L475.286 315.368L317.602 157.684L475.286 -1.24573e-07L476.507 -1.78288e-08Z" fill="#F6F5FF"/>
<path fill-rule="evenodd" clip-rule="evenodd" d="M158.905 0.000976545L159.109 0.204926L159.109 315.165L158.905 315.369L157.684 315.369L0.00057836 157.685L157.684 0.000976438L158.905 0.000976545Z" fill="#F6F5FF"/>
<path d="M56.0366 162V149.384H63.4623V150.411H57.1361V155.061H62.9937V156.07H57.1361V160.973H63.6605V162H56.0366ZM66.8394 162V152.682H67.7225L67.8307 154.773C68.4615 153.367 69.5249 152.682 71.2551 152.682H72.0301V153.655H71.2191C69.2185 153.655 67.8847 154.881 67.8847 157.71V162H66.8394ZM74.6542 162V148.663H75.6996V156.773H77.0693C78.7996 156.773 79.5565 156.323 80.1513 154.755L80.9443 152.682H82.0618L81.1246 155.151C80.71 156.196 80.2234 156.863 79.4845 157.26L82.5124 162H81.2688L78.5112 157.62C78.0786 157.71 77.592 157.746 77.0333 157.746H75.6996V162H74.6542ZM88.5395 162.234C86.1424 162.234 84.6645 160.522 84.6645 157.837V152.682H85.7098V157.746C85.7098 159.873 86.8453 161.225 88.6837 161.225C90.6122 161.225 91.9459 159.711 91.9459 157.494V152.682H92.9913V162H92.1261L92.018 160.18C91.2971 161.531 89.9994 162.234 88.5395 162.234ZM96.7082 162V152.682H97.5913L97.6814 154.484C98.4204 153.151 99.7181 152.448 101.214 152.448C103.647 152.448 105.143 154.16 105.143 156.845V162H104.098V156.935C104.098 154.791 102.944 153.457 101.088 153.457C99.1233 153.457 97.7535 154.953 97.7535 157.17V162H96.7082ZM112.624 162.234C109.813 162.234 107.848 160.162 107.848 157.332C107.848 154.502 109.813 152.448 112.624 152.448C114.337 152.448 115.724 153.205 116.553 154.412V148.663H117.599V162H116.734L116.607 160.162C115.796 161.441 114.373 162.234 112.624 162.234ZM108.893 157.332C108.893 159.621 110.462 161.225 112.75 161.225C115.021 161.225 116.589 159.621 116.589 157.332C116.589 155.061 115.021 153.457 112.75 153.457C110.462 153.457 108.893 155.061 108.893 157.332ZM125.261 162.234C122.432 162.234 120.503 160.234 120.503 157.332C120.503 154.448 122.45 152.448 125.279 152.448C128.217 152.448 130.11 154.61 130.038 157.765H121.567C121.747 159.873 123.189 161.243 125.261 161.243C126.775 161.243 127.983 160.54 128.596 159.333L129.767 159.351C129.046 161.135 127.352 162.234 125.261 162.234ZM121.567 156.845H129.01C128.758 154.737 127.316 153.439 125.279 153.439C123.207 153.439 121.747 154.791 121.567 156.845ZM132.896 162V152.682H133.779L133.869 154.484C134.608 153.151 135.906 152.448 137.402 152.448C139.835 152.448 141.331 154.16 141.331 156.845V162H140.285V156.935C140.285 154.791 139.132 153.457 137.275 153.457C135.311 153.457 133.941 154.953 133.941 157.17V162H132.896Z" fill="black"/>
<path d="M362.037 162V149.384H369.462V150.411H363.136V155.061H368.994V156.07H363.136V160.973H369.661V162H362.037ZM372.839 162V152.682H373.723L373.813 154.484C374.552 153.151 375.849 152.448 377.345 152.448C379.778 152.448 381.274 154.16 381.274 156.845V162H380.229V156.935C380.229 154.791 379.075 153.457 377.219 153.457C375.255 153.457 373.885 154.953 373.885 157.17V162H372.839ZM388.276 162C386.294 162 385.23 160.883 385.23 158.774V153.637H383.194V152.682H384.383C385.086 152.682 385.284 152.502 385.356 151.817L385.446 150.393H386.276V152.682H389.502V153.637H386.276V158.738C386.276 160.27 386.906 160.991 388.312 160.991H389.628V162H388.276ZM394.163 162L390.811 152.682H391.928L394.686 160.432L396.002 157.044L397.678 152.682H398.651L400.345 157.044L401.661 160.432L404.437 152.682H405.536L402.166 162H401.156L399.552 157.837L398.164 154.214L395.173 162H394.163ZM407.795 162V152.682H408.84V162H407.795ZM407.362 150.032C407.362 149.51 407.741 149.095 408.318 149.095C408.894 149.095 409.273 149.51 409.273 150.032C409.273 150.573 408.894 150.988 408.318 150.988C407.741 150.988 407.362 150.573 407.362 150.032ZM416.494 162.234C413.701 162.234 411.736 160.198 411.736 157.332C411.736 154.466 413.701 152.448 416.494 152.448C418.711 152.448 420.531 153.763 421.072 155.782H420.009C419.396 154.304 418.098 153.457 416.494 153.457C414.295 153.457 412.781 155.043 412.781 157.332C412.781 159.639 414.295 161.225 416.494 161.225C418.206 161.225 419.54 160.27 420.063 158.738H421.162C420.531 160.919 418.783 162.234 416.494 162.234ZM424.005 162V148.663H425.051V156.773H426.42C428.151 156.773 428.908 156.323 429.502 154.755L430.295 152.682H431.413L430.476 155.151C430.061 156.196 429.574 156.863 428.836 157.26L431.863 162H430.62L427.862 157.62C427.43 157.71 426.943 157.746 426.384 157.746H425.051V162H424.005ZM438.091 162.234C435.261 162.234 433.332 160.234 433.332 157.332C433.332 154.448 435.279 152.448 438.109 152.448C441.046 152.448 442.939 154.61 442.867 157.765H434.396C434.576 159.873 436.018 161.243 438.091 161.243C439.604 161.243 440.812 160.54 441.425 159.333L442.596 159.351C441.875 161.135 440.181 162.234 438.091 162.234ZM434.396 156.845H441.839C441.587 154.737 440.145 153.439 438.109 153.439C436.036 153.439 434.576 154.791 434.396 156.845ZM445.725 162V148.663H446.77V162H445.725ZM450.477 162V152.682H451.36L451.45 154.484C452.189 153.151 453.487 152.448 454.983 152.448C457.416 152.448 458.912 154.16 458.912 156.845V162H457.867V156.935C457.867 154.791 456.713 153.457 454.857 153.457C452.892 153.457 451.522 154.953 451.522 157.17V162H450.477Z" fill="black"/>
<path d="M175.037 162V149.384H179.02C183.039 149.384 185.58 151.889 185.58 155.692C185.58 159.495 183.039 162 179.02 162H175.037ZM176.136 160.955H179.02C182.372 160.955 184.463 158.9 184.463 155.692C184.463 152.484 182.354 150.429 178.984 150.429H176.136V160.955ZM192.409 162.234C189.579 162.234 187.651 160.234 187.651 157.332C187.651 154.448 189.597 152.448 192.427 152.448C195.365 152.448 197.257 154.61 197.185 157.765H188.714C188.894 159.873 190.336 161.243 192.409 161.243C193.923 161.243 195.131 160.54 195.743 159.333L196.915 159.351C196.194 161.135 194.5 162.234 192.409 162.234ZM188.714 156.845H196.158C195.906 154.737 194.464 153.439 192.427 153.439C190.354 153.439 188.894 154.791 188.714 156.845ZM207.619 162V153.637H201.743V162H200.698V153.637H198.571V152.682H200.698V151.601C200.698 149.492 201.761 148.428 203.87 148.428H205.222V149.42H203.96C202.41 149.42 201.743 150.087 201.743 151.673V152.682H208.664V162H207.619ZM207.168 150.032C207.168 149.51 207.565 149.095 208.142 149.095C208.7 149.095 209.097 149.51 209.097 150.032C209.097 150.573 208.7 150.988 208.142 150.988C207.565 150.988 207.168 150.573 207.168 150.032ZM212.382 162V152.682H213.265L213.355 154.484C214.094 153.151 215.391 152.448 216.887 152.448C219.321 152.448 220.817 154.16 220.817 156.845V162H219.771V156.935C219.771 154.791 218.618 153.457 216.761 153.457C214.797 153.457 213.427 154.953 213.427 157.17V162H212.382ZM224.333 162V152.682H225.378V162H224.333ZM223.9 150.032C223.9 149.51 224.279 149.095 224.855 149.095C225.432 149.095 225.811 149.51 225.811 150.032C225.811 150.573 225.432 150.988 224.855 150.988C224.279 150.988 223.9 150.573 223.9 150.032ZM233.032 162.234C230.202 162.234 228.274 160.234 228.274 157.332C228.274 154.448 230.22 152.448 233.05 152.448C235.988 152.448 237.88 154.61 237.808 157.765H229.337C229.517 159.873 230.959 161.243 233.032 161.243C234.546 161.243 235.754 160.54 236.366 159.333L237.538 159.351C236.817 161.135 235.123 162.234 233.032 162.234ZM229.337 156.845H236.781C236.529 154.737 235.087 153.439 233.05 153.439C230.977 153.439 229.517 154.791 229.337 156.845ZM240.666 162V152.682H241.549L241.658 154.773C242.288 153.367 243.352 152.682 245.082 152.682H245.857V153.655H245.046C243.045 153.655 241.712 154.881 241.712 157.71V162H240.666ZM251.707 162.234C248.877 162.234 246.948 160.234 246.948 157.332C246.948 154.448 248.895 152.448 251.725 152.448C254.662 152.448 256.555 154.61 256.483 157.765H248.012C248.192 159.873 249.634 161.243 251.707 161.243C253.221 161.243 254.428 160.54 255.041 159.333L256.212 159.351C255.491 161.135 253.797 162.234 251.707 162.234ZM248.012 156.845H255.455C255.203 154.737 253.761 153.439 251.725 153.439C249.652 153.439 248.192 154.791 248.012 156.845ZM259.341 162V152.682H260.224L260.314 154.484C261.053 153.151 262.351 152.448 263.847 152.448C266.28 152.448 267.776 154.16 267.776 156.845V162H266.73V156.935C266.73 154.791 265.577 153.457 263.721 153.457C261.756 153.457 260.386 154.953 260.386 157.17V162H259.341Z" fill="black"/>
<path d="M505.513 162.482V149.866H506.613V161.437H513.011V162.482H505.513ZM515.489 162.482V153.164H516.534V162.482H515.489ZM515.056 150.515C515.056 149.992 515.435 149.578 516.011 149.578C516.588 149.578 516.967 149.992 516.967 150.515C516.967 151.056 516.588 151.47 516.011 151.47C515.435 151.47 515.056 151.056 515.056 150.515ZM524.188 162.717C521.358 162.717 519.43 160.716 519.43 157.814C519.43 154.931 521.376 152.93 524.206 152.93C527.144 152.93 529.036 155.093 528.964 158.247H520.493C520.674 160.356 522.115 161.725 524.188 161.725C525.702 161.725 526.91 161.023 527.522 159.815L528.694 159.833C527.973 161.617 526.279 162.717 524.188 162.717ZM520.493 157.328H527.937C527.685 155.219 526.243 153.921 524.206 153.921C522.133 153.921 520.674 155.273 520.493 157.328ZM532.477 152.083C532.477 149.956 533.522 148.911 535.595 148.911H537.055V149.902H535.685C534.171 149.902 533.522 150.569 533.522 152.155V153.164H536.965V154.12H533.522V162.482H532.477V154.12H530.35V153.164H532.477V152.083ZM542.739 162.717C539.91 162.717 537.981 160.716 537.981 157.814C537.981 154.931 539.928 152.93 542.757 152.93C545.695 152.93 547.588 155.093 547.516 158.247H539.045C539.225 160.356 540.667 161.725 542.739 161.725C544.253 161.725 545.461 161.023 546.074 159.815L547.245 159.833C546.524 161.617 544.83 162.717 542.739 162.717ZM539.045 157.328H546.488C546.236 155.219 544.794 153.921 542.757 153.921C540.685 153.921 539.225 155.273 539.045 157.328ZM550.374 162.482V153.164H551.257L551.365 155.255C551.996 153.849 553.059 153.164 554.789 153.164H555.564V154.138H554.753C552.753 154.138 551.419 155.363 551.419 158.193V162.482H550.374ZM558.189 162.482V153.164H559.072L559.162 154.967C559.901 153.633 561.198 152.93 562.694 152.93C565.128 152.93 566.623 154.642 566.623 157.328V162.482H565.578V157.418C565.578 155.273 564.425 153.939 562.568 153.939C560.604 153.939 559.234 155.435 559.234 157.652V162.482H558.189Z" fill="black"/>
<line x1="158.5" y1="2.18552e-08" x2="158.5" y2="315" stroke="black"/>
<line x1="476.5" y1="2.18552e-08" x2="476.5" y2="315" stroke="black"/>
</svg>
