<svg width="636" height="316" viewBox="0 0 636 316" fill="none" xmlns="http://www.w3.org/2000/svg">
<path fill-rule="evenodd" clip-rule="evenodd" d="M476.313 315.37L476.109 315.166V0.205856L476.313 0.00195312H477.534L635.218 157.686L477.534 315.37H476.313Z" fill="#F6F5FF"/>
<mask id="path-2-inside-1_854_45907" fill="white">
<path fill-rule="evenodd" clip-rule="evenodd" d="M158.704 315.37L158.5 315.166V0.205856L158.704 0.00195312H159.925L317.609 157.686L159.925 315.37H158.704Z"/>
</mask>
<path fill-rule="evenodd" clip-rule="evenodd" d="M158.704 315.37L158.5 315.166V0.205856L158.704 0.00195312H159.925L317.609 157.686L159.925 315.37H158.704Z" fill="#F6F5FF"/>
<path d="M158.704 315.37L157.997 316.077L158.29 316.37H158.704V315.37ZM158.5 315.166H157.5V315.58L157.793 315.873L158.5 315.166ZM158.5 0.205856L157.793 -0.50125L157.5 -0.208357V0.205856H158.5ZM158.704 0.00195312V-0.998047H158.29L157.997 -0.705154L158.704 0.00195312ZM159.925 0.00195312L160.632 -0.705154L160.339 -0.998047H159.925V0.00195312ZM317.609 157.686L318.316 158.393L319.023 157.686L318.316 156.979L317.609 157.686ZM159.925 315.37V316.37H160.339L160.632 316.077L159.925 315.37ZM159.411 314.663L159.207 314.459L157.793 315.873L157.997 316.077L159.411 314.663ZM159.5 315.166V0.205856H157.5V315.166H159.5ZM159.207 0.912963L159.411 0.70906L157.997 -0.705154L157.793 -0.50125L159.207 0.912963ZM158.704 1.00195H159.925V-0.998047H158.704V1.00195ZM159.218 0.70906L316.902 158.393L318.316 156.979L160.632 -0.705154L159.218 0.70906ZM316.902 156.979L159.218 314.663L160.632 316.077L318.316 158.393L316.902 156.979ZM159.925 314.37H158.704V316.37H159.925V314.37Z" fill="#F6F5FF" mask="url(#path-2-inside-1_854_45907)"/>
<path fill-rule="evenodd" clip-rule="evenodd" d="M476.507 -0.000488299L476.711 0.203461L476.711 315.163L476.507 315.367L475.286 315.367L317.602 157.683L475.286 -0.000488406L476.507 -0.000488299Z" fill="#F6F5FF"/>
<mask id="path-5-inside-2_854_45907" fill="white">
<path fill-rule="evenodd" clip-rule="evenodd" d="M158.905 0.00146483L159.109 0.205414L159.109 315.165L158.905 315.369L157.684 315.369L0.00057836 157.685L157.684 0.00146472L158.905 0.00146483Z"/>
</mask>
<path fill-rule="evenodd" clip-rule="evenodd" d="M158.905 0.00146483L159.109 0.205414L159.109 315.165L158.905 315.369L157.684 315.369L0.00057836 157.685L157.684 0.00146472L158.905 0.00146483Z" fill="#DAD7FF"/>
<path d="M158.905 0.00146483L159.613 -0.705627L159.32 -0.998535L158.905 -0.998535L158.905 0.00146483ZM159.109 0.205414L160.109 0.205414L160.109 -0.208801L159.817 -0.501678L159.109 0.205414ZM159.109 315.165L159.816 315.872L160.109 315.579L160.109 315.165L159.109 315.165ZM158.905 315.369L158.905 316.369L159.32 316.369L159.613 316.076L158.905 315.369ZM157.684 315.369L156.977 316.076L157.27 316.369L157.684 316.369L157.684 315.369ZM0.00057836 157.685L-0.706529 156.978L-1.41364 157.685L-0.706529 158.392L0.00057836 157.685ZM157.684 0.00146472L157.684 -0.998535L157.27 -0.998535L156.977 -0.705628L157.684 0.00146472ZM158.198 0.708557L158.402 0.912506L159.817 -0.501678L159.613 -0.705627L158.198 0.708557ZM158.109 0.205414L158.109 315.165L160.109 315.165L160.109 0.205414L158.109 0.205414ZM158.402 314.458L158.198 314.662L159.613 316.076L159.816 315.872L158.402 314.458ZM158.905 314.369L157.684 314.369L157.684 316.369L158.905 316.369L158.905 314.369ZM158.392 314.662L0.707686 156.978L-0.706529 158.392L156.977 316.076L158.392 314.662ZM0.707686 158.392L158.392 0.708557L156.977 -0.705628L-0.706529 156.978L0.707686 158.392ZM157.684 1.00146L158.905 1.00146L158.905 -0.998535L157.684 -0.998535L157.684 1.00146Z" fill="#DAD7FF" mask="url(#path-5-inside-2_854_45907)"/>
<path d="M60.6326 162.216C57.6768 162.216 55.8744 160.27 55.8744 157.026V149.384H56.9558V156.971C56.9558 159.657 58.2896 161.153 60.6326 161.153C62.9756 161.153 64.3094 159.657 64.3094 156.971V149.384H65.3908V157.026C65.3908 160.27 63.5884 162.216 60.6326 162.216ZM72.9124 162C70.9298 162 69.8665 160.883 69.8665 158.774V153.637H67.8298V152.682H69.0194C69.7223 152.682 69.9205 152.502 69.9926 151.817L70.0827 150.393H70.9118V152.682H74.138V153.637H70.9118V158.738C70.9118 160.27 71.5426 160.991 72.9485 160.991H74.2642V162H72.9124ZM77.8611 151.601C77.8611 149.474 78.9064 148.428 80.9791 148.428H82.439V149.42H81.0692C79.5553 149.42 78.9064 150.087 78.9064 151.673V152.682H82.3489V153.637H78.9064V162H77.8611V153.637H75.7343V152.682H77.8611V151.601ZM88.2676 162.234C85.3839 162.234 83.3652 160.216 83.3652 157.332C83.3652 154.466 85.3839 152.448 88.2676 152.448C91.1333 152.448 93.1519 154.466 93.1519 157.332C93.1519 160.216 91.1333 162.234 88.2676 162.234ZM84.4106 157.332C84.4106 159.639 85.9786 161.225 88.2676 161.225C90.5385 161.225 92.1066 159.639 92.1066 157.332C92.1066 155.043 90.5385 153.457 88.2676 153.457C85.9786 153.457 84.4106 155.043 84.4106 157.332ZM96.0569 162V152.682H96.9401L97.0482 154.773C97.679 153.367 98.7424 152.682 100.473 152.682H101.248V153.655H100.437C98.436 153.655 97.1023 154.881 97.1023 157.71V162H96.0569ZM106.552 162.234C104.191 162.234 102.695 161.045 102.623 159.188H103.65C103.758 160.504 104.786 161.279 106.57 161.279C108.21 161.279 109.201 160.648 109.201 159.621C109.201 158.648 108.318 158.053 106.336 157.71C103.902 157.296 102.803 156.431 102.803 155.007C102.803 153.421 104.155 152.448 106.336 152.448C108.534 152.448 109.922 153.493 110.066 155.277H109.021C108.913 154.052 107.958 153.385 106.336 153.385C104.786 153.385 103.848 154.016 103.848 155.025C103.848 155.944 104.623 156.449 106.696 156.845C109.057 157.296 110.229 158.233 110.229 159.639C110.229 161.207 108.805 162.234 106.552 162.234ZM113.253 162V148.663H114.298V156.773H115.668C117.398 156.773 118.155 156.323 118.75 154.755L119.543 152.682H120.661L119.723 155.151C119.309 156.196 118.822 156.863 118.083 157.26L121.111 162H119.868L117.11 157.62C116.677 157.71 116.191 157.746 115.632 157.746H114.298V162H113.253Z" fill="black"/>
<path d="M387.633 162.216C384.677 162.216 382.874 160.27 382.874 157.026V149.384H383.956V156.971C383.956 159.657 385.29 161.153 387.633 161.153C389.976 161.153 391.309 159.657 391.309 156.971V149.384H392.391V157.026C392.391 160.27 390.588 162.216 387.633 162.216ZM399.912 162C397.93 162 396.866 160.883 396.866 158.774V153.637H394.83V152.682H396.019C396.722 152.682 396.921 152.502 396.993 151.817L397.083 150.393H397.912V152.682H401.138V153.637H397.912V158.738C397.912 160.27 398.543 160.991 399.948 160.991H401.264V162H399.912ZM406.575 162L402.411 152.682H403.547L405.169 156.287L407.097 160.63L409.008 156.287L410.648 152.682H411.765L407.602 162H406.575ZM413.992 162V152.682H415.038V162H413.992ZM413.56 150.032C413.56 149.51 413.938 149.095 414.515 149.095C415.092 149.095 415.47 149.51 415.47 150.032C415.47 150.573 415.092 150.988 414.515 150.988C413.938 150.988 413.56 150.573 413.56 150.032ZM418.745 162V148.663H419.79V156.773H421.16C422.89 156.773 423.647 156.323 424.242 154.755L425.035 152.682H426.152L425.215 155.151C424.801 156.196 424.314 156.863 423.575 157.26L426.603 162H425.359L422.602 157.62C422.169 157.71 421.683 157.746 421.124 157.746H419.79V162H418.745ZM429.182 162V148.663H430.227V162H429.182ZM437.881 162.234C435.052 162.234 433.123 160.234 433.123 157.332C433.123 154.448 435.07 152.448 437.899 152.448C440.837 152.448 442.73 154.61 442.658 157.765H434.187C434.367 159.873 435.809 161.243 437.881 161.243C439.395 161.243 440.603 160.54 441.216 159.333L442.387 159.351C441.666 161.135 439.972 162.234 437.881 162.234ZM434.187 156.845H441.63C441.378 154.737 439.936 153.439 437.899 153.439C435.827 153.439 434.367 154.791 434.187 156.845Z" fill="black"/>
<path d="M185.037 162V149.384H189.02C193.039 149.384 195.58 151.889 195.58 155.692C195.58 159.495 193.039 162 189.02 162H185.037ZM186.136 160.955H189.02C192.372 160.955 194.463 158.9 194.463 155.692C194.463 152.484 192.354 150.429 188.984 150.429H186.136V160.955ZM202.409 162.234C199.579 162.234 197.651 160.234 197.651 157.332C197.651 154.448 199.597 152.448 202.427 152.448C205.365 152.448 207.257 154.61 207.185 157.765H198.714C198.894 159.873 200.336 161.243 202.409 161.243C203.923 161.243 205.131 160.54 205.743 159.333L206.915 159.351C206.194 161.135 204.5 162.234 202.409 162.234ZM198.714 156.845H206.158C205.906 154.737 204.464 153.439 202.427 153.439C200.354 153.439 198.894 154.791 198.714 156.845ZM217.619 162V153.637H211.743V162H210.698V153.637H208.571V152.682H210.698V151.601C210.698 149.492 211.761 148.428 213.87 148.428H215.222V149.42H213.96C212.41 149.42 211.743 150.087 211.743 151.673V152.682H218.664V162H217.619ZM217.168 150.032C217.168 149.51 217.565 149.095 218.142 149.095C218.7 149.095 219.097 149.51 219.097 150.032C219.097 150.573 218.7 150.988 218.142 150.988C217.565 150.988 217.168 150.573 217.168 150.032ZM222.382 162V152.682H223.265L223.355 154.484C224.094 153.151 225.391 152.448 226.887 152.448C229.321 152.448 230.817 154.16 230.817 156.845V162H229.771V156.935C229.771 154.791 228.618 153.457 226.761 153.457C224.797 153.457 223.427 154.953 223.427 157.17V162H222.382ZM238.28 162.234C235.45 162.234 233.522 160.234 233.522 157.332C233.522 154.448 235.468 152.448 238.298 152.448C241.236 152.448 243.128 154.61 243.056 157.765H234.585C234.765 159.873 236.207 161.243 238.28 161.243C239.794 161.243 241.001 160.54 241.614 159.333L242.786 159.351C242.065 161.135 240.37 162.234 238.28 162.234ZM234.585 156.845H242.029C241.776 154.737 240.334 153.439 238.298 153.439C236.225 153.439 234.765 154.791 234.585 156.845ZM245.914 162V152.682H246.797L246.905 154.773C247.536 153.367 248.6 152.682 250.33 152.682H251.105V153.655H250.294C248.293 153.655 246.959 154.881 246.959 157.71V162H245.914Z" fill="black"/>
<path d="M511.037 162V149.384H512.136V160.955H518.534V162H511.037ZM524.132 162.234C521.302 162.234 519.374 160.234 519.374 157.332C519.374 154.448 521.32 152.448 524.15 152.448C527.088 152.448 528.98 154.61 528.908 157.765H520.437C520.617 159.873 522.059 161.243 524.132 161.243C525.646 161.243 526.854 160.54 527.466 159.333L528.638 159.351C527.917 161.135 526.223 162.234 524.132 162.234ZM520.437 156.845H527.881C527.629 154.737 526.187 153.439 524.15 153.439C522.077 153.439 520.617 154.791 520.437 156.845ZM534.082 162L529.918 152.682H531.054L532.676 156.287L534.604 160.63L536.515 156.287L538.155 152.682H539.272L535.109 162H534.082ZM545.095 162.234C542.265 162.234 540.337 160.234 540.337 157.332C540.337 154.448 542.283 152.448 545.113 152.448C548.051 152.448 549.943 154.61 549.871 157.765H541.4C541.58 159.873 543.022 161.243 545.095 161.243C546.609 161.243 547.816 160.54 548.429 159.333L549.601 159.351C548.88 161.135 547.185 162.234 545.095 162.234ZM541.4 156.845H548.844C548.591 154.737 547.149 153.439 545.113 153.439C543.04 153.439 541.58 154.791 541.4 156.845ZM552.729 162V152.682H553.612L553.72 154.773C554.351 153.367 555.414 152.682 557.145 152.682H557.92V153.655H557.109C555.108 153.655 553.774 154.881 553.774 157.71V162H552.729Z" fill="black"/>
<line x1="158.5" y1="2.18552e-08" x2="158.5" y2="315" stroke="black"/>
<line x1="476.5" y1="2.18552e-08" x2="476.5" y2="315" stroke="black"/>
</svg>
