<svg width="636" height="316" viewBox="0 0 636 316" fill="none" xmlns="http://www.w3.org/2000/svg">
<path fill-rule="evenodd" clip-rule="evenodd" d="M476.313 315.37L476.109 315.166V0.205856L476.313 0.00195312H477.534L635.218 157.686L477.534 315.37H476.313Z" fill="#F6F5FF"/>
<mask id="path-2-inside-1_924_45084" fill="white">
<path fill-rule="evenodd" clip-rule="evenodd" d="M158.704 315.37L158.5 315.166V0.205856L158.704 0.00195312H159.925L317.609 157.686L159.925 315.37H158.704Z"/>
</mask>
<path fill-rule="evenodd" clip-rule="evenodd" d="M158.704 315.37L158.5 315.166V0.205856L158.704 0.00195312H159.925L317.609 157.686L159.925 315.37H158.704Z" fill="#F6F5FF"/>
<path d="M158.704 315.37L157.997 316.077L158.29 316.37H158.704V315.37ZM158.5 315.166H157.5V315.58L157.793 315.873L158.5 315.166ZM158.5 0.205856L157.793 -0.50125L157.5 -0.208357V0.205856H158.5ZM158.704 0.00195312V-0.998047H158.29L157.997 -0.705154L158.704 0.00195312ZM159.925 0.00195312L160.632 -0.705154L160.339 -0.998047H159.925V0.00195312ZM317.609 157.686L318.316 158.393L319.023 157.686L318.316 156.979L317.609 157.686ZM159.925 315.37V316.37H160.339L160.632 316.077L159.925 315.37ZM159.411 314.663L159.207 314.459L157.793 315.873L157.997 316.077L159.411 314.663ZM159.5 315.166V0.205856H157.5V315.166H159.5ZM159.207 0.912963L159.411 0.70906L157.997 -0.705154L157.793 -0.50125L159.207 0.912963ZM158.704 1.00195H159.925V-0.998047H158.704V1.00195ZM159.218 0.70906L316.902 158.393L318.316 156.979L160.632 -0.705154L159.218 0.70906ZM316.902 156.979L159.218 314.663L160.632 316.077L318.316 158.393L316.902 156.979ZM159.925 314.37H158.704V316.37H159.925V314.37Z" fill="#F6F5FF" mask="url(#path-2-inside-1_924_45084)"/>
<path fill-rule="evenodd" clip-rule="evenodd" d="M476.507 -0.000488299L476.711 0.203461L476.711 315.163L476.507 315.367L475.286 315.367L317.602 157.683L475.286 -0.000488406L476.507 -0.000488299Z" fill="#F6F5FF"/>
<mask id="path-5-inside-2_924_45084" fill="white">
<path fill-rule="evenodd" clip-rule="evenodd" d="M158.905 0.00146483L159.109 0.205414L159.109 315.165L158.905 315.369L157.684 315.369L0.00057836 157.685L157.684 0.00146472L158.905 0.00146483Z"/>
</mask>
<path fill-rule="evenodd" clip-rule="evenodd" d="M158.905 0.00146483L159.109 0.205414L159.109 315.165L158.905 315.369L157.684 315.369L0.00057836 157.685L157.684 0.00146472L158.905 0.00146483Z" fill="#DAD7FF"/>
<path d="M158.905 0.00146483L159.613 -0.705627L159.32 -0.998535L158.905 -0.998535L158.905 0.00146483ZM159.109 0.205414L160.109 0.205414L160.109 -0.208801L159.817 -0.501678L159.109 0.205414ZM159.109 315.165L159.816 315.872L160.109 315.579L160.109 315.165L159.109 315.165ZM158.905 315.369L158.905 316.369L159.32 316.369L159.613 316.076L158.905 315.369ZM157.684 315.369L156.977 316.076L157.27 316.369L157.684 316.369L157.684 315.369ZM0.00057836 157.685L-0.706529 156.978L-1.41364 157.685L-0.706529 158.392L0.00057836 157.685ZM157.684 0.00146472L157.684 -0.998535L157.27 -0.998535L156.977 -0.705628L157.684 0.00146472ZM158.198 0.708557L158.402 0.912506L159.817 -0.501678L159.613 -0.705627L158.198 0.708557ZM158.109 0.205414L158.109 315.165L160.109 315.165L160.109 0.205414L158.109 0.205414ZM158.402 314.458L158.198 314.662L159.613 316.076L159.816 315.872L158.402 314.458ZM158.905 314.369L157.684 314.369L157.684 316.369L158.905 316.369L158.905 314.369ZM158.392 314.662L0.707686 156.978L-0.706529 158.392L156.977 316.076L158.392 314.662ZM0.707686 158.392L158.392 0.708557L156.977 -0.705628L-0.706529 156.978L0.707686 158.392ZM157.684 1.00146L158.905 1.00146L158.905 -0.998535L157.684 -0.998535L157.684 1.00146Z" fill="#DAD7FF" mask="url(#path-5-inside-2_924_45084)"/>
<path d="M56.0366 162V149.384H63.4623V150.411H57.1361V155.061H62.9937V156.07H57.1361V160.973H63.6605V162H56.0366ZM66.8394 162V152.682H67.7225L67.8307 154.773C68.4615 153.367 69.5249 152.682 71.2551 152.682H72.0301V153.655H71.2191C69.2185 153.655 67.8847 154.881 67.8847 157.71V162H66.8394ZM74.6542 162V148.663H75.6996V156.773H77.0693C78.7996 156.773 79.5565 156.323 80.1513 154.755L80.9443 152.682H82.0618L81.1246 155.151C80.71 156.196 80.2234 156.863 79.4845 157.26L82.5124 162H81.2688L78.5112 157.62C78.0786 157.71 77.592 157.746 77.0333 157.746H75.6996V162H74.6542ZM88.5395 162.234C86.1424 162.234 84.6645 160.522 84.6645 157.837V152.682H85.7098V157.746C85.7098 159.873 86.8453 161.225 88.6837 161.225C90.6122 161.225 91.9459 159.711 91.9459 157.494V152.682H92.9913V162H92.1261L92.018 160.18C91.2971 161.531 89.9994 162.234 88.5395 162.234ZM96.7082 162V152.682H97.5913L97.6814 154.484C98.4204 153.151 99.7181 152.448 101.214 152.448C103.647 152.448 105.143 154.16 105.143 156.845V162H104.098V156.935C104.098 154.791 102.944 153.457 101.088 153.457C99.1233 153.457 97.7535 154.953 97.7535 157.17V162H96.7082ZM112.624 162.234C109.813 162.234 107.848 160.162 107.848 157.332C107.848 154.502 109.813 152.448 112.624 152.448C114.337 152.448 115.724 153.205 116.553 154.412V148.663H117.599V162H116.734L116.607 160.162C115.796 161.441 114.373 162.234 112.624 162.234ZM108.893 157.332C108.893 159.621 110.462 161.225 112.75 161.225C115.021 161.225 116.589 159.621 116.589 157.332C116.589 155.061 115.021 153.457 112.75 153.457C110.462 153.457 108.893 155.061 108.893 157.332ZM125.261 162.234C122.432 162.234 120.503 160.234 120.503 157.332C120.503 154.448 122.45 152.448 125.279 152.448C128.217 152.448 130.11 154.61 130.038 157.765H121.567C121.747 159.873 123.189 161.243 125.261 161.243C126.775 161.243 127.983 160.54 128.596 159.333L129.767 159.351C129.046 161.135 127.352 162.234 125.261 162.234ZM121.567 156.845H129.01C128.758 154.737 127.316 153.439 125.279 153.439C123.207 153.439 121.747 154.791 121.567 156.845ZM132.896 162V152.682H133.779L133.869 154.484C134.608 153.151 135.906 152.448 137.402 152.448C139.835 152.448 141.331 154.16 141.331 156.845V162H140.285V156.935C140.285 154.791 139.132 153.457 137.275 153.457C135.311 153.457 133.941 154.953 133.941 157.17V162H132.896Z" fill="black"/>
<path d="M366.037 162V149.384H373.462V150.411H367.136V155.061H372.994V156.07H367.136V160.973H373.661V162H366.037ZM376.839 162V152.682H377.723L377.813 154.484C378.552 153.151 379.849 152.448 381.345 152.448C383.778 152.448 385.274 154.16 385.274 156.845V162H384.229V156.935C384.229 154.791 383.075 153.457 381.219 153.457C379.255 153.457 377.885 154.953 377.885 157.17V162H376.839ZM392.276 162C390.294 162 389.23 160.883 389.23 158.774V153.637H387.194V152.682H388.383C389.086 152.682 389.284 152.502 389.356 151.817L389.446 150.393H390.276V152.682H393.502V153.637H390.276V158.738C390.276 160.27 390.906 160.991 392.312 160.991H393.628V162H392.276ZM398.163 162L394.811 152.682H395.928L398.686 160.432L400.002 157.044L401.678 152.682H402.651L404.345 157.044L405.661 160.432L408.437 152.682H409.536L406.166 162H405.156L403.552 157.837L402.164 154.214L399.173 162H398.163ZM411.795 162V152.682H412.84V162H411.795ZM411.362 150.032C411.362 149.51 411.741 149.095 412.318 149.095C412.894 149.095 413.273 149.51 413.273 150.032C413.273 150.573 412.894 150.988 412.318 150.988C411.741 150.988 411.362 150.573 411.362 150.032ZM420.494 162.234C417.701 162.234 415.736 160.198 415.736 157.332C415.736 154.466 417.701 152.448 420.494 152.448C422.711 152.448 424.531 153.763 425.072 155.782H424.009C423.396 154.304 422.098 153.457 420.494 153.457C418.295 153.457 416.781 155.043 416.781 157.332C416.781 159.639 418.295 161.225 420.494 161.225C422.206 161.225 423.54 160.27 424.063 158.738H425.162C424.531 160.919 422.783 162.234 420.494 162.234ZM428.005 162V148.663H429.051V156.773H430.42C432.151 156.773 432.908 156.323 433.502 154.755L434.295 152.682H435.413L434.476 155.151C434.061 156.196 433.574 156.863 432.836 157.26L435.863 162H434.62L431.862 157.62C431.43 157.71 430.943 157.746 430.384 157.746H429.051V162H428.005ZM442.091 162.234C439.261 162.234 437.332 160.234 437.332 157.332C437.332 154.448 439.279 152.448 442.109 152.448C445.046 152.448 446.939 154.61 446.867 157.765H438.396C438.576 159.873 440.018 161.243 442.091 161.243C443.604 161.243 444.812 160.54 445.425 159.333L446.596 159.351C445.875 161.135 444.181 162.234 442.091 162.234ZM438.396 156.845H445.839C445.587 154.737 444.145 153.439 442.109 153.439C440.036 153.439 438.576 154.791 438.396 156.845ZM449.725 162V148.663H450.77V162H449.725ZM454.477 162V152.682H455.36L455.45 154.484C456.189 153.151 457.487 152.448 458.983 152.448C461.416 152.448 462.912 154.16 462.912 156.845V162H461.867V156.935C461.867 154.791 460.713 153.457 458.857 153.457C456.892 153.457 455.522 154.953 455.522 157.17V162H454.477Z" fill="black"/>
<path d="M185.037 162V149.384H189.02C193.039 149.384 195.58 151.889 195.58 155.692C195.58 159.495 193.039 162 189.02 162H185.037ZM186.136 160.955H189.02C192.372 160.955 194.463 158.9 194.463 155.692C194.463 152.484 192.354 150.429 188.984 150.429H186.136V160.955ZM202.409 162.234C199.579 162.234 197.651 160.234 197.651 157.332C197.651 154.448 199.597 152.448 202.427 152.448C205.365 152.448 207.257 154.61 207.185 157.765H198.714C198.894 159.873 200.336 161.243 202.409 161.243C203.923 161.243 205.131 160.54 205.743 159.333L206.915 159.351C206.194 161.135 204.5 162.234 202.409 162.234ZM198.714 156.845H206.158C205.906 154.737 204.464 153.439 202.427 153.439C200.354 153.439 198.894 154.791 198.714 156.845ZM217.619 162V153.637H211.743V162H210.698V153.637H208.571V152.682H210.698V151.601C210.698 149.492 211.761 148.428 213.87 148.428H215.222V149.42H213.96C212.41 149.42 211.743 150.087 211.743 151.673V152.682H218.664V162H217.619ZM217.168 150.032C217.168 149.51 217.565 149.095 218.142 149.095C218.7 149.095 219.097 149.51 219.097 150.032C219.097 150.573 218.7 150.988 218.142 150.988C217.565 150.988 217.168 150.573 217.168 150.032ZM222.382 162V152.682H223.265L223.355 154.484C224.094 153.151 225.391 152.448 226.887 152.448C229.321 152.448 230.817 154.16 230.817 156.845V162H229.771V156.935C229.771 154.791 228.618 153.457 226.761 153.457C224.797 153.457 223.427 154.953 223.427 157.17V162H222.382ZM234.333 162V152.682H235.378V162H234.333ZM233.9 150.032C233.9 149.51 234.279 149.095 234.855 149.095C235.432 149.095 235.811 149.51 235.811 150.032C235.811 150.573 235.432 150.988 234.855 150.988C234.279 150.988 233.9 150.573 233.9 150.032ZM243.032 162.234C240.202 162.234 238.274 160.234 238.274 157.332C238.274 154.448 240.22 152.448 243.05 152.448C245.988 152.448 247.88 154.61 247.808 157.765H239.337C239.517 159.873 240.959 161.243 243.032 161.243C244.546 161.243 245.754 160.54 246.366 159.333L247.538 159.351C246.817 161.135 245.123 162.234 243.032 162.234ZM239.337 156.845H246.781C246.529 154.737 245.087 153.439 243.05 153.439C240.977 153.439 239.517 154.791 239.337 156.845ZM250.666 162V152.682H251.549L251.658 154.773C252.288 153.367 253.352 152.682 255.082 152.682H255.857V153.655H255.046C253.045 153.655 251.712 154.881 251.712 157.71V162H250.666ZM261.707 162.234C258.877 162.234 256.948 160.234 256.948 157.332C256.948 154.448 258.895 152.448 261.725 152.448C264.662 152.448 266.555 154.61 266.483 157.765H258.012C258.192 159.873 259.634 161.243 261.707 161.243C263.221 161.243 264.428 160.54 265.041 159.333L266.212 159.351C265.491 161.135 263.797 162.234 261.707 162.234ZM258.012 156.845H265.455C265.203 154.737 263.761 153.439 261.725 153.439C259.652 153.439 258.192 154.791 258.012 156.845ZM269.341 162V152.682H270.224L270.314 154.484C271.053 153.151 272.351 152.448 273.847 152.448C276.28 152.448 277.776 154.16 277.776 156.845V162H276.73V156.935C276.73 154.791 275.577 153.457 273.721 153.457C271.756 153.457 270.386 154.953 270.386 157.17V162H269.341Z" fill="black"/>
<path d="M502.513 162.482V149.866H503.613V161.437H510.011V162.482H502.513ZM512.489 162.482V153.164H513.534V162.482H512.489ZM512.056 150.515C512.056 149.992 512.435 149.578 513.011 149.578C513.588 149.578 513.967 149.992 513.967 150.515C513.967 151.056 513.588 151.47 513.011 151.47C512.435 151.47 512.056 151.056 512.056 150.515ZM521.188 162.717C518.358 162.717 516.43 160.716 516.43 157.814C516.43 154.931 518.376 152.93 521.206 152.93C524.144 152.93 526.036 155.093 525.964 158.247H517.493C517.674 160.356 519.115 161.725 521.188 161.725C522.702 161.725 523.91 161.023 524.522 159.815L525.694 159.833C524.973 161.617 523.279 162.717 521.188 162.717ZM517.493 157.328H524.937C524.685 155.219 523.243 153.921 521.206 153.921C519.133 153.921 517.674 155.273 517.493 157.328ZM529.477 152.083C529.477 149.956 530.522 148.911 532.595 148.911H534.055V149.902H532.685C531.171 149.902 530.522 150.569 530.522 152.155V153.164H533.965V154.12H530.522V162.482H529.477V154.12H527.35V153.164H529.477V152.083ZM539.739 162.717C536.91 162.717 534.981 160.716 534.981 157.814C534.981 154.931 536.928 152.93 539.757 152.93C542.695 152.93 544.588 155.093 544.516 158.247H536.045C536.225 160.356 537.667 161.725 539.739 161.725C541.253 161.725 542.461 161.023 543.074 159.815L544.245 159.833C543.524 161.617 541.83 162.717 539.739 162.717ZM536.045 157.328H543.488C543.236 155.219 541.794 153.921 539.757 153.921C537.685 153.921 536.225 155.273 536.045 157.328ZM547.374 162.482V153.164H548.257L548.365 155.255C548.996 153.849 550.059 153.164 551.789 153.164H552.564V154.138H551.753C549.753 154.138 548.419 155.363 548.419 158.193V162.482H547.374ZM555.189 162.482V153.164H556.072L556.162 154.967C556.901 153.633 558.198 152.93 559.694 152.93C562.128 152.93 563.623 154.642 563.623 157.328V162.482H562.578V157.418C562.578 155.273 561.425 153.939 559.568 153.939C557.604 153.939 556.234 155.435 556.234 157.652V162.482H555.189Z" fill="black"/>
<line x1="158.5" y1="2.18552e-08" x2="158.5" y2="315" stroke="black"/>
<line x1="476.5" y1="2.18552e-08" x2="476.5" y2="315" stroke="black"/>
</svg>
