<svg width="636" height="316" viewBox="0 0 636 316" fill="none" xmlns="http://www.w3.org/2000/svg">
<path fill-rule="evenodd" clip-rule="evenodd" d="M476.313 315.37L476.109 315.166V0.205856L476.313 0.00195312H477.534L635.218 157.686L477.534 315.37H476.313Z" fill="#F6F5FF"/>
<mask id="path-2-inside-1_924_44986" fill="white">
<path fill-rule="evenodd" clip-rule="evenodd" d="M158.704 315.37L158.5 315.166V0.205856L158.704 0.00195312H159.925L317.609 157.686L159.925 315.37H158.704Z"/>
</mask>
<path fill-rule="evenodd" clip-rule="evenodd" d="M158.704 315.37L158.5 315.166V0.205856L158.704 0.00195312H159.925L317.609 157.686L159.925 315.37H158.704Z" fill="#F6F5FF"/>
<path d="M158.704 315.37L157.997 316.077L158.29 316.37H158.704V315.37ZM158.5 315.166H157.5V315.58L157.793 315.873L158.5 315.166ZM158.5 0.205856L157.793 -0.50125L157.5 -0.208357V0.205856H158.5ZM158.704 0.00195312V-0.998047H158.29L157.997 -0.705154L158.704 0.00195312ZM159.925 0.00195312L160.632 -0.705154L160.339 -0.998047H159.925V0.00195312ZM317.609 157.686L318.316 158.393L319.023 157.686L318.316 156.979L317.609 157.686ZM159.925 315.37V316.37H160.339L160.632 316.077L159.925 315.37ZM159.411 314.663L159.207 314.459L157.793 315.873L157.997 316.077L159.411 314.663ZM159.5 315.166V0.205856H157.5V315.166H159.5ZM159.207 0.912963L159.411 0.70906L157.997 -0.705154L157.793 -0.50125L159.207 0.912963ZM158.704 1.00195H159.925V-0.998047H158.704V1.00195ZM159.218 0.70906L316.902 158.393L318.316 156.979L160.632 -0.705154L159.218 0.70906ZM316.902 156.979L159.218 314.663L160.632 316.077L318.316 158.393L316.902 156.979ZM159.925 314.37H158.704V316.37H159.925V314.37Z" fill="#F6F5FF" mask="url(#path-2-inside-1_924_44986)"/>
<path fill-rule="evenodd" clip-rule="evenodd" d="M476.507 -0.000488299L476.711 0.203461L476.711 315.163L476.507 315.367L475.286 315.367L317.602 157.683L475.286 -0.000488406L476.507 -0.000488299Z" fill="#F6F5FF"/>
<mask id="path-5-inside-2_924_44986" fill="white">
<path fill-rule="evenodd" clip-rule="evenodd" d="M158.905 0.00146483L159.109 0.205414L159.109 315.165L158.905 315.369L157.684 315.369L0.00057836 157.685L157.684 0.00146472L158.905 0.00146483Z"/>
</mask>
<path fill-rule="evenodd" clip-rule="evenodd" d="M158.905 0.00146483L159.109 0.205414L159.109 315.165L158.905 315.369L157.684 315.369L0.00057836 157.685L157.684 0.00146472L158.905 0.00146483Z" fill="#DAD7FF"/>
<path d="M158.905 0.00146483L159.613 -0.705627L159.32 -0.998535L158.905 -0.998535L158.905 0.00146483ZM159.109 0.205414L160.109 0.205414L160.109 -0.208801L159.817 -0.501678L159.109 0.205414ZM159.109 315.165L159.816 315.872L160.109 315.579L160.109 315.165L159.109 315.165ZM158.905 315.369L158.905 316.369L159.32 316.369L159.613 316.076L158.905 315.369ZM157.684 315.369L156.977 316.076L157.27 316.369L157.684 316.369L157.684 315.369ZM0.00057836 157.685L-0.706529 156.978L-1.41364 157.685L-0.706529 158.392L0.00057836 157.685ZM157.684 0.00146472L157.684 -0.998535L157.27 -0.998535L156.977 -0.705628L157.684 0.00146472ZM158.198 0.708557L158.402 0.912506L159.817 -0.501678L159.613 -0.705627L158.198 0.708557ZM158.109 0.205414L158.109 315.165L160.109 315.165L160.109 0.205414L158.109 0.205414ZM158.402 314.458L158.198 314.662L159.613 316.076L159.816 315.872L158.402 314.458ZM158.905 314.369L157.684 314.369L157.684 316.369L158.905 316.369L158.905 314.369ZM158.392 314.662L0.707686 156.978L-0.706529 158.392L156.977 316.076L158.392 314.662ZM0.707686 158.392L158.392 0.708557L156.977 -0.705628L-0.706529 156.978L0.707686 158.392ZM157.684 1.00146L158.905 1.00146L158.905 -0.998535L157.684 -0.998535L157.684 1.00146Z" fill="#DAD7FF" mask="url(#path-5-inside-2_924_44986)"/>
<path d="M56.0366 162V149.384H63.4623V150.411H57.1361V155.061H62.9937V156.07H57.1361V160.973H63.6605V162H56.0366ZM69.8011 162.234C67.4401 162.234 65.9441 161.045 65.872 159.188H66.8994C67.0075 160.504 68.0348 161.279 69.8192 161.279C71.4593 161.279 72.4506 160.648 72.4506 159.621C72.4506 158.648 71.5674 158.053 69.5848 157.71C67.1517 157.296 66.0523 156.431 66.0523 155.007C66.0523 153.421 67.404 152.448 69.5848 152.448C71.7837 152.448 73.1715 153.493 73.3157 155.277H72.2703C72.1622 154.052 71.2069 153.385 69.5848 153.385C68.0348 153.385 67.0976 154.016 67.0976 155.025C67.0976 155.944 67.8726 156.449 69.9453 156.845C72.3064 157.296 73.4779 158.233 73.4779 159.639C73.4779 161.207 72.054 162.234 69.8011 162.234ZM81.4767 162.234C79.7645 162.234 78.3767 161.459 77.5476 160.234V165.605H76.5023V152.682H77.3854L77.4936 154.538C78.3046 153.241 79.7285 152.448 81.4767 152.448C84.3064 152.448 86.2529 154.502 86.2529 157.332C86.2529 160.162 84.3064 162.234 81.4767 162.234ZM77.5116 157.332C77.5116 159.621 79.0796 161.225 81.3686 161.225C83.6576 161.225 85.2076 159.621 85.2076 157.332C85.2076 155.061 83.6576 153.457 81.3686 153.457C79.0796 153.457 77.5116 155.061 77.5116 157.332ZM89.1574 162V148.663H90.2027V162H89.1574ZM98.0009 162.234C95.1172 162.234 93.0986 160.216 93.0986 157.332C93.0986 154.466 95.1172 152.448 98.0009 152.448C100.867 152.448 102.885 154.466 102.885 157.332C102.885 160.216 100.867 162.234 98.0009 162.234ZM94.1439 157.332C94.1439 159.639 95.7119 161.225 98.0009 161.225C100.272 161.225 101.84 159.639 101.84 157.332C101.84 155.043 100.272 153.457 98.0009 153.457C95.7119 153.457 94.1439 155.043 94.1439 157.332ZM105.79 162V152.682H106.673L106.782 154.773C107.412 153.367 108.476 152.682 110.206 152.682H110.981V153.655H110.17C108.169 153.655 106.836 154.881 106.836 157.71V162H105.79ZM115.768 162.144C113.605 162.144 112.253 161.081 112.253 159.369C112.253 157.71 113.515 156.665 115.426 156.665H119.535V155.998C119.535 154.448 118.399 153.421 116.669 153.421C115.263 153.421 114.164 154.142 113.785 155.259H112.722C113.173 153.529 114.669 152.448 116.651 152.448C118.976 152.448 120.58 153.871 120.58 155.944V162H119.715L119.607 160.396C118.796 161.513 117.426 162.144 115.768 162.144ZM113.299 159.351C113.299 160.486 114.254 161.207 115.804 161.207C117.967 161.207 119.553 159.855 119.553 157.981V157.584H115.462C114.182 157.584 113.299 158.287 113.299 159.351Z" fill="black"/>
<path d="M373.092 162.234C370.208 162.234 368.352 160.684 368.262 158.251H369.343C369.451 160.108 370.911 161.189 373.092 161.189C375.165 161.189 376.444 160.27 376.444 158.81C376.444 157.494 375.417 156.719 372.876 156.16C369.776 155.44 368.46 154.394 368.46 152.502C368.46 150.483 370.1 149.149 372.785 149.149C375.561 149.149 377.255 150.555 377.345 152.988H376.264C376.174 151.204 374.894 150.195 372.785 150.195C370.749 150.195 369.559 151.114 369.559 152.502C369.559 153.763 370.497 154.538 373.146 155.133C376.336 155.872 377.562 156.99 377.562 158.792C377.562 160.901 375.831 162.234 373.092 162.234ZM382.947 162L378.783 152.682H379.919L381.541 156.287L383.47 160.63L385.38 156.287L387.02 152.682H388.138L383.974 162H382.947ZM390.365 162V152.682H391.41V162H390.365ZM389.932 150.032C389.932 149.51 390.311 149.095 390.887 149.095C391.464 149.095 391.843 149.51 391.843 150.032C391.843 150.573 391.464 150.988 390.887 150.988C390.311 150.988 389.932 150.573 389.932 150.032ZM395.117 162V148.663H396.162V162H395.117ZM403.546 162.234C401.149 162.234 399.671 160.522 399.671 157.837V152.682H400.716V157.746C400.716 159.873 401.852 161.225 403.69 161.225C405.619 161.225 406.952 159.711 406.952 157.494V152.682H407.998V162H407.133L407.025 160.18C406.304 161.531 405.006 162.234 403.546 162.234ZM416.689 162.234C414.977 162.234 413.589 161.459 412.76 160.234V165.605H411.715V152.682H412.598L412.706 154.538C413.517 153.241 414.941 152.448 416.689 152.448C419.519 152.448 421.465 154.502 421.465 157.332C421.465 160.162 419.519 162.234 416.689 162.234ZM412.724 157.332C412.724 159.621 414.292 161.225 416.581 161.225C418.87 161.225 420.42 159.621 420.42 157.332C420.42 155.061 418.87 153.457 416.581 153.457C414.292 153.457 412.724 155.061 412.724 157.332ZM429.344 162.234C427.632 162.234 426.244 161.459 425.415 160.234V165.605H424.37V152.682H425.253L425.361 154.538C426.172 153.241 427.596 152.448 429.344 152.448C432.174 152.448 434.12 154.502 434.12 157.332C434.12 160.162 432.174 162.234 429.344 162.234ZM425.379 157.332C425.379 159.621 426.947 161.225 429.236 161.225C431.525 161.225 433.075 159.621 433.075 157.332C433.075 155.061 431.525 153.457 429.236 153.457C426.947 153.457 425.379 155.061 425.379 157.332ZM439.821 162.144C437.659 162.144 436.307 161.081 436.307 159.369C436.307 157.71 437.568 156.665 439.479 156.665H443.588V155.998C443.588 154.448 442.453 153.421 440.723 153.421C439.317 153.421 438.217 154.142 437.839 155.259H436.775C437.226 153.529 438.722 152.448 440.705 152.448C443.03 152.448 444.634 153.871 444.634 155.944V162H443.768L443.66 160.396C442.849 161.513 441.48 162.144 439.821 162.144ZM437.352 159.351C437.352 160.486 438.307 161.207 439.857 161.207C442.02 161.207 443.606 159.855 443.606 157.981V157.584H439.515C438.235 157.584 437.352 158.287 437.352 159.351ZM448.149 162V152.682H449.032L449.14 154.773C449.771 153.367 450.834 152.682 452.564 152.682H453.339V153.655H452.528C450.528 153.655 449.194 154.881 449.194 157.71V162H448.149ZM459.189 162.234C456.359 162.234 454.431 160.234 454.431 157.332C454.431 154.448 456.377 152.448 459.207 152.448C462.145 152.448 464.037 154.61 463.965 157.765H455.494C455.674 159.873 457.116 161.243 459.189 161.243C460.703 161.243 461.91 160.54 462.523 159.333L463.695 159.351C462.974 161.135 461.28 162.234 459.189 162.234ZM455.494 156.845H462.938C462.685 154.737 461.244 153.439 459.207 153.439C457.134 153.439 455.674 154.791 455.494 156.845Z" fill="black"/>
<path d="M185.037 162V149.384H189.02C193.039 149.384 195.58 151.889 195.58 155.692C195.58 159.495 193.039 162 189.02 162H185.037ZM186.136 160.955H189.02C192.372 160.955 194.463 158.9 194.463 155.692C194.463 152.484 192.354 150.429 188.984 150.429H186.136V160.955ZM202.409 162.234C199.579 162.234 197.651 160.234 197.651 157.332C197.651 154.448 199.597 152.448 202.427 152.448C205.365 152.448 207.257 154.61 207.185 157.765H198.714C198.894 159.873 200.336 161.243 202.409 161.243C203.923 161.243 205.131 160.54 205.743 159.333L206.915 159.351C206.194 161.135 204.5 162.234 202.409 162.234ZM198.714 156.845H206.158C205.906 154.737 204.464 153.439 202.427 153.439C200.354 153.439 198.894 154.791 198.714 156.845ZM217.619 162V153.637H211.743V162H210.698V153.637H208.571V152.682H210.698V151.601C210.698 149.492 211.761 148.428 213.87 148.428H215.222V149.42H213.96C212.41 149.42 211.743 150.087 211.743 151.673V152.682H218.664V162H217.619ZM217.168 150.032C217.168 149.51 217.565 149.095 218.142 149.095C218.7 149.095 219.097 149.51 219.097 150.032C219.097 150.573 218.7 150.988 218.142 150.988C217.565 150.988 217.168 150.573 217.168 150.032ZM222.382 162V152.682H223.265L223.355 154.484C224.094 153.151 225.391 152.448 226.887 152.448C229.321 152.448 230.817 154.16 230.817 156.845V162H229.771V156.935C229.771 154.791 228.618 153.457 226.761 153.457C224.797 153.457 223.427 154.953 223.427 157.17V162H222.382ZM234.333 162V152.682H235.378V162H234.333ZM233.9 150.032C233.9 149.51 234.279 149.095 234.855 149.095C235.432 149.095 235.811 149.51 235.811 150.032C235.811 150.573 235.432 150.988 234.855 150.988C234.279 150.988 233.9 150.573 233.9 150.032ZM242.293 162.234C239.932 162.234 238.436 161.045 238.364 159.188H239.391C239.499 160.504 240.527 161.279 242.311 161.279C243.951 161.279 244.942 160.648 244.942 159.621C244.942 158.648 244.059 158.053 242.077 157.71C239.644 157.296 238.544 156.431 238.544 155.007C238.544 153.421 239.896 152.448 242.077 152.448C244.276 152.448 245.663 153.493 245.808 155.277H244.762C244.654 154.052 243.699 153.385 242.077 153.385C240.527 153.385 239.59 154.016 239.59 155.025C239.59 155.944 240.365 156.449 242.437 156.845C244.798 157.296 245.97 158.233 245.97 159.639C245.97 161.207 244.546 162.234 242.293 162.234ZM252.941 162.234C250.148 162.234 248.183 160.198 248.183 157.332C248.183 154.466 250.148 152.448 252.941 152.448C255.158 152.448 256.979 153.763 257.519 155.782H256.456C255.843 154.304 254.545 153.457 252.941 153.457C250.742 153.457 249.228 155.043 249.228 157.332C249.228 159.639 250.742 161.225 252.941 161.225C254.654 161.225 255.987 160.27 256.51 158.738H257.609C256.979 160.919 255.23 162.234 252.941 162.234ZM260.452 162V152.682H261.498V162H260.452ZM260.02 150.032C260.02 149.51 260.398 149.095 260.975 149.095C261.552 149.095 261.93 149.51 261.93 150.032C261.93 150.573 261.552 150.988 260.975 150.988C260.398 150.988 260.02 150.573 260.02 150.032Z" fill="black"/>
<path d="M499.552 162.234C495.839 162.234 493.153 159.531 493.153 155.692C493.153 151.853 495.839 149.149 499.552 149.149C502.436 149.149 504.797 150.826 505.626 153.475H504.472C503.751 151.474 501.877 150.249 499.57 150.249C496.488 150.249 494.271 152.466 494.271 155.692C494.271 158.918 496.488 161.135 499.57 161.135C501.931 161.135 503.877 159.855 504.58 157.765H505.734C504.959 160.486 502.526 162.234 499.552 162.234ZM512.644 162.234C509.761 162.234 507.742 160.216 507.742 157.332C507.742 154.466 509.761 152.448 512.644 152.448C515.51 152.448 517.529 154.466 517.529 157.332C517.529 160.216 515.51 162.234 512.644 162.234ZM508.787 157.332C508.787 159.639 510.356 161.225 512.644 161.225C514.915 161.225 516.483 159.639 516.483 157.332C516.483 155.043 514.915 153.457 512.644 153.457C510.356 153.457 508.787 155.043 508.787 157.332ZM520.434 162V152.682H521.317L521.407 154.484C522.146 153.151 523.444 152.448 524.94 152.448C527.373 152.448 528.869 154.16 528.869 156.845V162H527.823V156.935C527.823 154.791 526.67 153.457 524.813 153.457C522.849 153.457 521.479 154.953 521.479 157.17V162H520.434ZM535.593 162.234C533.232 162.234 531.736 161.045 531.664 159.188H532.691C532.799 160.504 533.827 161.279 535.611 161.279C537.251 161.279 538.242 160.648 538.242 159.621C538.242 158.648 537.359 158.053 535.377 157.71C532.944 157.296 531.844 156.431 531.844 155.007C531.844 153.421 533.196 152.448 535.377 152.448C537.576 152.448 538.963 153.493 539.108 155.277H538.062C537.954 154.052 536.999 153.385 535.377 153.385C533.827 153.385 532.889 154.016 532.889 155.025C532.889 155.944 533.664 156.449 535.737 156.845C538.098 157.296 539.27 158.233 539.27 159.639C539.27 161.207 537.846 162.234 535.593 162.234ZM546.241 162.234C543.412 162.234 541.483 160.234 541.483 157.332C541.483 154.448 543.43 152.448 546.259 152.448C549.197 152.448 551.09 154.61 551.017 157.765H542.546C542.727 159.873 544.169 161.243 546.241 161.243C547.755 161.243 548.963 160.54 549.576 159.333L550.747 159.351C550.026 161.135 548.332 162.234 546.241 162.234ZM542.546 156.845H549.99C549.738 154.737 548.296 153.439 546.259 153.439C544.187 153.439 542.727 154.791 542.546 156.845ZM557.967 165.839C555.678 165.839 553.984 164.631 553.623 162.739H554.687C554.993 164.037 556.255 164.848 557.967 164.848C560.112 164.848 561.481 163.586 561.481 161.585V160.072C560.652 161.207 559.319 161.892 557.733 161.892C555.011 161.892 553.065 159.909 553.065 157.17C553.065 154.43 555.011 152.448 557.733 152.448C559.373 152.448 560.724 153.169 561.554 154.358L561.644 152.682H562.527V161.622C562.527 164.127 560.688 165.839 557.967 165.839ZM554.11 157.17C554.11 159.351 555.642 160.865 557.841 160.865C560.022 160.865 561.554 159.351 561.554 157.17C561.554 154.989 560.022 153.457 557.841 153.457C555.642 153.457 554.11 154.989 554.11 157.17ZM566.231 162V152.682H567.115L567.205 154.484C567.944 153.151 569.241 152.448 570.737 152.448C573.17 152.448 574.666 154.16 574.666 156.845V162H573.621V156.935C573.621 154.791 572.467 153.457 570.611 153.457C568.647 153.457 567.277 154.953 567.277 157.17V162H566.231ZM581.102 162.144C578.939 162.144 577.588 161.081 577.588 159.369C577.588 157.71 578.849 156.665 580.76 156.665H584.869V155.998C584.869 154.448 583.734 153.421 582.003 153.421C580.598 153.421 579.498 154.142 579.12 155.259H578.056C578.507 153.529 580.003 152.448 581.985 152.448C584.31 152.448 585.914 153.871 585.914 155.944V162H585.049L584.941 160.396C584.13 161.513 582.76 162.144 581.102 162.144ZM578.633 159.351C578.633 160.486 579.588 161.207 581.138 161.207C583.301 161.207 584.887 159.855 584.887 157.981V157.584H580.796C579.516 157.584 578.633 158.287 578.633 159.351ZM589.429 162V152.682H590.313L590.421 154.773C591.052 153.367 592.115 152.682 593.845 152.682H594.62V153.655H593.809C591.809 153.655 590.475 154.881 590.475 157.71V162H589.429ZM600.47 162.234C597.64 162.234 595.712 160.234 595.712 157.332C595.712 154.448 597.658 152.448 600.488 152.448C603.426 152.448 605.318 154.61 605.246 157.765H596.775C596.955 159.873 598.397 161.243 600.47 161.243C601.984 161.243 603.191 160.54 603.804 159.333L604.976 159.351C604.255 161.135 602.56 162.234 600.47 162.234ZM596.775 156.845H604.219C603.966 154.737 602.524 153.439 600.488 153.439C598.415 153.439 596.955 154.791 596.775 156.845Z" fill="black"/>
<line x1="158.5" y1="2.18552e-08" x2="158.5" y2="315" stroke="black"/>
<line x1="476.5" y1="2.18552e-08" x2="476.5" y2="315" stroke="black"/>
</svg>
