<svg width="822" height="420" viewBox="0 0 822 420" fill="none" xmlns="http://www.w3.org/2000/svg">
<g filter="url(#filter0_d_882_44645)">
<ellipse cx="643.578" cy="142.403" rx="153.422" ry="121.403" fill="#F6F5FF"/>
</g>
<path d="M604 197.323V213.999H620.676L669.86 164.815L653.184 148.139L604 197.323ZM616.985 205.105H612.894V201.014L653.184 160.724L657.275 164.815L616.985 205.105ZM682.756 145.649L672.35 135.243C671.461 134.353 670.349 133.953 669.193 133.953C668.037 133.953 666.925 134.398 666.08 135.243L657.942 143.381L674.618 160.057L682.756 151.919C684.491 150.185 684.491 147.383 682.756 145.649Z" fill="#323232"/>
<g filter="url(#filter1_d_882_44645)">
<ellipse cx="178.422" cy="142.403" rx="153.422" ry="121.403" fill="#F6F5FF"/>
</g>
<g clip-path="url(#clip0_882_44645)">
<path d="M151.417 143.252L140.558 135.502L144.703 160.314L169.515 156.17L158.656 148.419C167.207 136.438 183.894 133.651 195.875 142.202C199.53 144.811 202.359 148.196 204.201 151.969L213.258 150.457C210.821 144.456 206.724 139.019 201.042 134.963C185.043 123.544 162.836 127.254 151.417 143.252ZM202.092 179.42C193.541 191.401 176.854 194.189 164.873 185.638C161.218 183.028 158.389 179.643 156.547 175.87L147.49 177.383C149.927 183.384 154.024 188.821 159.706 192.877C175.705 204.296 197.912 200.586 209.331 184.587L220.19 192.338L216.045 167.525L191.233 171.67L202.092 179.42Z" fill="#323232"/>
</g>
<g filter="url(#filter2_d_882_44645)">
<ellipse cx="409.22" cy="263.807" rx="175.212" ry="138.747" fill="#F6F5FF"/>
</g>
<g clip-path="url(#clip1_882_44645)">
<path d="M390.543 291.152C399.126 291.152 406.108 284.171 406.108 275.588C406.108 267.005 399.126 260.023 390.543 260.023C381.96 260.023 374.979 267.005 374.979 275.588C374.979 284.171 381.96 291.152 390.543 291.152ZM390.543 268.917C394.234 268.917 397.214 271.897 397.214 275.588C397.214 279.279 394.234 282.258 390.543 282.258C386.852 282.258 383.873 279.279 383.873 275.588C383.873 271.897 386.852 268.917 390.543 268.917ZM390.765 313.387H371.732C376.135 311.164 383.739 308.94 390.543 308.94C391.032 308.94 391.566 308.985 392.055 308.985C393.567 305.739 396.191 303.07 399.348 300.936C396.102 300.358 393.033 300.046 390.543 300.046C380.137 300.046 359.414 305.249 359.414 315.611V322.282H390.543V315.611C390.543 314.855 390.632 314.099 390.765 313.387ZM423.896 302.27C415.713 302.27 399.437 306.761 399.437 315.611V322.282H448.354V315.611C448.354 306.761 432.078 302.27 423.896 302.27ZM429.277 294.176C432.656 292.264 435.013 288.662 435.013 284.482C435.013 278.345 430.033 273.364 423.896 273.364C417.759 273.364 412.778 278.345 412.778 284.482C412.778 288.662 415.135 292.264 418.515 294.176C420.116 295.066 421.939 295.599 423.896 295.599C425.852 295.599 427.676 295.066 429.277 294.176Z" fill="#323232"/>
</g>
<path d="M537.034 89V76.4H543.982V77.426H538.132V82.376H543.514V83.384H538.132V89H537.034ZM550.071 89.234C547.677 89.234 546.201 87.524 546.201 84.842V79.694H547.245V84.752C547.245 86.876 548.379 88.226 550.215 88.226C552.141 88.226 553.473 86.714 553.473 84.5V79.694H554.517V89H553.653L553.545 87.182C552.825 88.532 551.529 89.234 550.071 89.234ZM558.229 89V75.68H559.273V89H558.229ZM562.975 89V75.68H564.019V89H562.975ZM570.925 89.234C568.567 89.234 567.073 88.046 567.001 86.192H568.027C568.135 87.506 569.161 88.28 570.943 88.28C572.581 88.28 573.571 87.65 573.571 86.624C573.571 85.652 572.689 85.058 570.709 84.716C568.279 84.302 567.181 83.438 567.181 82.016C567.181 80.432 568.531 79.46 570.709 79.46C572.905 79.46 574.291 80.504 574.435 82.286H573.391C573.283 81.062 572.329 80.396 570.709 80.396C569.161 80.396 568.225 81.026 568.225 82.034C568.225 82.952 568.999 83.456 571.069 83.852C573.427 84.302 574.597 85.238 574.597 86.642C574.597 88.208 573.175 89.234 570.925 89.234ZM581.134 89C579.154 89 578.092 87.884 578.092 85.778V80.648H576.058V79.694H577.246C577.948 79.694 578.146 79.514 578.218 78.83L578.308 77.408H579.136V79.694H582.358V80.648H579.136V85.742C579.136 87.272 579.766 87.992 581.17 87.992H582.484V89H581.134ZM588.767 89.234C585.941 89.234 584.015 87.236 584.015 84.338C584.015 81.458 585.959 79.46 588.785 79.46C591.719 79.46 593.609 81.62 593.537 84.77H585.077C585.257 86.876 586.697 88.244 588.767 88.244C590.279 88.244 591.485 87.542 592.097 86.336L593.267 86.354C592.547 88.136 590.855 89.234 588.767 89.234ZM585.077 83.852H592.511C592.259 81.746 590.819 80.45 588.785 80.45C586.715 80.45 585.257 81.8 585.077 83.852ZM596.391 89V79.694H597.273L597.363 81.494C598.101 80.162 599.397 79.46 600.891 79.46C603.321 79.46 604.815 81.17 604.815 83.852V89H603.771V83.942C603.771 81.8 602.619 80.468 600.765 80.468C598.803 80.468 597.435 81.962 597.435 84.176V89H596.391ZM612.287 89.234C609.479 89.234 607.517 87.164 607.517 84.338C607.517 81.512 609.479 79.46 612.287 79.46C613.997 79.46 615.383 80.216 616.211 81.422V75.68H617.255V89H616.391L616.265 87.164C615.455 88.442 614.033 89.234 612.287 89.234ZM608.561 84.338C608.561 86.624 610.127 88.226 612.413 88.226C614.681 88.226 616.247 86.624 616.247 84.338C616.247 82.07 614.681 80.468 612.413 80.468C610.127 80.468 608.561 82.07 608.561 84.338ZM620.965 89V79.694H622.009V89H620.965ZM620.533 77.048C620.533 76.526 620.911 76.112 621.487 76.112C622.063 76.112 622.441 76.526 622.441 77.048C622.441 77.588 622.063 78.002 621.487 78.002C620.911 78.002 620.533 77.588 620.533 77.048ZM629.797 92.834C627.511 92.834 625.819 91.628 625.459 89.738H626.521C626.827 91.034 628.087 91.844 629.797 91.844C631.939 91.844 633.307 90.584 633.307 88.586V87.074C632.479 88.208 631.147 88.892 629.563 88.892C626.845 88.892 624.901 86.912 624.901 84.176C624.901 81.44 626.845 79.46 629.563 79.46C631.201 79.46 632.551 80.18 633.379 81.368L633.469 79.694H634.351V88.622C634.351 91.124 632.515 92.834 629.797 92.834ZM625.945 84.176C625.945 86.354 627.475 87.866 629.671 87.866C631.849 87.866 633.379 86.354 633.379 84.176C633.379 81.998 631.849 80.468 629.671 80.468C627.475 80.468 625.945 81.998 625.945 84.176ZM647.836 89.234C646.126 89.234 644.74 88.46 643.912 87.236V92.6H642.868V79.694H643.75L643.858 81.548C644.668 80.252 646.09 79.46 647.836 79.46C650.662 79.46 652.606 81.512 652.606 84.338C652.606 87.164 650.662 89.234 647.836 89.234ZM643.876 84.338C643.876 86.624 645.442 88.226 647.728 88.226C650.014 88.226 651.562 86.624 651.562 84.338C651.562 82.07 650.014 80.468 647.728 80.468C645.442 80.468 643.876 82.07 643.876 84.338ZM659.448 89.234C656.622 89.234 654.696 87.236 654.696 84.338C654.696 81.458 656.64 79.46 659.466 79.46C662.4 79.46 664.29 81.62 664.218 84.77H655.758C655.938 86.876 657.378 88.244 659.448 88.244C660.96 88.244 662.166 87.542 662.778 86.336L663.948 86.354C663.228 88.136 661.536 89.234 659.448 89.234ZM655.758 83.852H663.192C662.94 81.746 661.5 80.45 659.466 80.45C657.396 80.45 655.938 81.8 655.758 83.852ZM667.073 89V79.694H667.955L668.063 81.782C668.693 80.378 669.755 79.694 671.483 79.694H672.257V80.666H671.447C669.449 80.666 668.117 81.89 668.117 84.716V89H667.073ZM677.554 89.234C675.196 89.234 673.702 88.046 673.63 86.192H674.656C674.764 87.506 675.79 88.28 677.572 88.28C679.21 88.28 680.2 87.65 680.2 86.624C680.2 85.652 679.318 85.058 677.338 84.716C674.908 84.302 673.81 83.438 673.81 82.016C673.81 80.432 675.16 79.46 677.338 79.46C679.534 79.46 680.92 80.504 681.064 82.286H680.02C679.912 81.062 678.958 80.396 677.338 80.396C675.79 80.396 674.854 81.026 674.854 82.034C674.854 82.952 675.628 83.456 677.698 83.852C680.056 84.302 681.226 85.238 681.226 86.642C681.226 88.208 679.804 89.234 677.554 89.234ZM688.333 89.234C685.453 89.234 683.437 87.218 683.437 84.338C683.437 81.476 685.453 79.46 688.333 79.46C691.195 79.46 693.211 81.476 693.211 84.338C693.211 87.218 691.195 89.234 688.333 89.234ZM684.481 84.338C684.481 86.642 686.047 88.226 688.333 88.226C690.601 88.226 692.167 86.642 692.167 84.338C692.167 82.052 690.601 80.468 688.333 80.468C686.047 80.468 684.481 82.052 684.481 84.338ZM696.112 89V79.694H696.994L697.084 81.494C697.822 80.162 699.118 79.46 700.612 79.46C703.042 79.46 704.536 81.17 704.536 83.852V89H703.492V83.942C703.492 81.8 702.34 80.468 700.486 80.468C698.524 80.468 697.156 81.962 697.156 84.176V89H696.112ZM708.047 89V75.68H709.091V89H708.047ZM712.793 89V79.694H713.837V89H712.793ZM712.361 77.048C712.361 76.526 712.739 76.112 713.315 76.112C713.891 76.112 714.269 76.526 714.269 77.048C714.269 77.588 713.891 78.002 713.315 78.002C712.739 78.002 712.361 77.588 712.361 77.048ZM721.626 92.834C719.34 92.834 717.648 91.628 717.288 89.738H718.35C718.656 91.034 719.916 91.844 721.626 91.844C723.768 91.844 725.136 90.584 725.136 88.586V87.074C724.308 88.208 722.976 88.892 721.392 88.892C718.674 88.892 716.73 86.912 716.73 84.176C716.73 81.44 718.674 79.46 721.392 79.46C723.03 79.46 724.38 80.18 725.208 81.368L725.298 79.694H726.18V88.622C726.18 91.124 724.344 92.834 721.626 92.834ZM717.774 84.176C717.774 86.354 719.304 87.866 721.5 87.866C723.678 87.866 725.208 86.354 725.208 84.176C725.208 81.998 723.678 80.468 721.5 80.468C719.304 80.468 717.774 81.998 717.774 84.176ZM733.965 92.834C731.679 92.834 729.987 91.628 729.627 89.738H730.689C730.995 91.034 732.255 91.844 733.965 91.844C736.107 91.844 737.475 90.584 737.475 88.586V87.074C736.647 88.208 735.315 88.892 733.731 88.892C731.013 88.892 729.069 86.912 729.069 84.176C729.069 81.44 731.013 79.46 733.731 79.46C735.369 79.46 736.719 80.18 737.547 81.368L737.637 79.694H738.519V88.622C738.519 91.124 736.683 92.834 733.965 92.834ZM730.113 84.176C730.113 86.354 731.643 87.866 733.839 87.866C736.017 87.866 737.547 86.354 737.547 84.176C737.547 81.998 736.017 80.468 733.839 80.468C731.643 80.468 730.113 81.998 730.113 84.176ZM739.573 92.654V91.664H740.455C741.769 91.664 742.237 91.232 742.237 89.684V79.694H743.281V89.702C743.281 91.754 742.561 92.654 740.509 92.654H739.573ZM741.805 77.048C741.805 76.526 742.183 76.112 742.759 76.112C743.335 76.112 743.713 76.526 743.713 77.048C743.713 77.588 743.335 78.002 742.759 78.002C742.183 78.002 741.805 77.588 741.805 77.048ZM751.069 89.234C748.189 89.234 746.173 87.218 746.173 84.338C746.173 81.476 748.189 79.46 751.069 79.46C753.931 79.46 755.947 81.476 755.947 84.338C755.947 87.218 753.931 89.234 751.069 89.234ZM747.217 84.338C747.217 86.642 748.783 88.226 751.069 88.226C753.337 88.226 754.903 86.642 754.903 84.338C754.903 82.052 753.337 80.468 751.069 80.468C748.783 80.468 747.217 82.052 747.217 84.338ZM758.848 89V79.694H759.73L759.838 81.782C760.468 80.378 761.53 79.694 763.258 79.694H764.032V80.666H763.222C761.224 80.666 759.892 81.89 759.892 84.716V89H758.848ZM770.433 89C768.453 89 767.391 87.884 767.391 85.778V80.648H765.357V79.694H766.545C767.247 79.694 767.445 79.514 767.517 78.83L767.607 77.408H768.435V79.694H771.657V80.648H768.435V85.742C768.435 87.272 769.065 87.992 770.469 87.992H771.783V89H770.433ZM540.94 115.234C538.06 115.234 536.044 113.218 536.044 110.338C536.044 107.476 538.06 105.46 540.94 105.46C543.802 105.46 545.818 107.476 545.818 110.338C545.818 113.218 543.802 115.234 540.94 115.234ZM537.088 110.338C537.088 112.642 538.654 114.226 540.94 114.226C543.208 114.226 544.774 112.642 544.774 110.338C544.774 108.052 543.208 106.468 540.94 106.468C538.654 106.468 537.088 108.052 537.088 110.338ZM552.805 118.834C550.519 118.834 548.827 117.628 548.467 115.738H549.529C549.835 117.034 551.095 117.844 552.805 117.844C554.947 117.844 556.315 116.584 556.315 114.586V113.074C555.487 114.208 554.155 114.892 552.571 114.892C549.853 114.892 547.909 112.912 547.909 110.176C547.909 107.44 549.853 105.46 552.571 105.46C554.209 105.46 555.559 106.18 556.387 107.368L556.477 105.694H557.359V114.622C557.359 117.124 555.523 118.834 552.805 118.834ZM548.953 110.176C548.953 112.354 550.483 113.866 552.679 113.866C554.857 113.866 556.387 112.354 556.387 110.176C556.387 107.998 554.857 106.468 552.679 106.468C550.483 106.468 548.953 107.998 548.953 110.176ZM569.128 115C567.148 115 566.086 113.884 566.086 111.778V106.648H564.052V105.694H565.24C565.942 105.694 566.14 105.514 566.212 104.83L566.302 103.408H567.13V105.694H570.352V106.648H567.13V111.742C567.13 113.272 567.76 113.992 569.164 113.992H570.478V115H569.128ZM573.276 115V105.694H574.32V115H573.276ZM572.844 103.048C572.844 102.526 573.222 102.112 573.798 102.112C574.374 102.112 574.752 102.526 574.752 103.048C574.752 103.588 574.374 104.002 573.798 104.002C573.222 104.002 572.844 103.588 572.844 103.048ZM578.022 115V101.68H579.066V115H578.022ZM587.736 115.234C586.026 115.234 584.64 114.46 583.812 113.236V118.6H582.768V105.694H583.65L583.758 107.548C584.568 106.252 585.99 105.46 587.736 105.46C590.562 105.46 592.506 107.512 592.506 110.338C592.506 113.164 590.562 115.234 587.736 115.234ZM583.776 110.338C583.776 112.624 585.342 114.226 587.628 114.226C589.914 114.226 591.462 112.624 591.462 110.338C591.462 108.07 589.914 106.468 587.628 106.468C585.342 106.468 583.776 108.07 583.776 110.338ZM598.2 115.144C596.04 115.144 594.69 114.082 594.69 112.372C594.69 110.716 595.95 109.672 597.858 109.672H601.962V109.006C601.962 107.458 600.828 106.432 599.1 106.432C597.696 106.432 596.598 107.152 596.22 108.268H595.158C595.608 106.54 597.102 105.46 599.082 105.46C601.404 105.46 603.006 106.882 603.006 108.952V115H602.142L602.034 113.398C601.224 114.514 599.856 115.144 598.2 115.144ZM595.734 112.354C595.734 113.488 596.688 114.208 598.236 114.208C600.396 114.208 601.98 112.858 601.98 110.986V110.59H597.894C596.616 110.59 595.734 111.292 595.734 112.354ZM609.72 115.234C607.362 115.234 605.868 114.046 605.796 112.192H606.822C606.93 113.506 607.956 114.28 609.738 114.28C611.376 114.28 612.366 113.65 612.366 112.624C612.366 111.652 611.484 111.058 609.504 110.716C607.074 110.302 605.976 109.438 605.976 108.016C605.976 106.432 607.326 105.46 609.504 105.46C611.7 105.46 613.086 106.504 613.23 108.286H612.186C612.078 107.062 611.124 106.396 609.504 106.396C607.956 106.396 607.02 107.026 607.02 108.034C607.02 108.952 607.794 109.456 609.864 109.852C612.222 110.302 613.392 111.238 613.392 112.642C613.392 114.208 611.97 115.234 609.72 115.234ZM619.617 115.234C617.259 115.234 615.765 114.046 615.693 112.192H616.719C616.827 113.506 617.853 114.28 619.635 114.28C621.273 114.28 622.263 113.65 622.263 112.624C622.263 111.652 621.381 111.058 619.401 110.716C616.971 110.302 615.873 109.438 615.873 108.016C615.873 106.432 617.223 105.46 619.401 105.46C621.597 105.46 622.983 106.504 623.127 108.286H622.083C621.975 107.062 621.021 106.396 619.401 106.396C617.853 106.396 616.917 107.026 616.917 108.034C616.917 108.952 617.691 109.456 619.761 109.852C622.119 110.302 623.289 111.238 623.289 112.642C623.289 114.208 621.867 115.234 619.617 115.234ZM631.277 115.234C629.531 115.234 628.109 114.424 627.299 113.146L627.191 115H626.309V101.68H627.353V107.458C628.181 106.216 629.567 105.46 631.277 105.46C634.103 105.46 636.047 107.512 636.047 110.338C636.047 113.164 634.103 115.234 631.277 115.234ZM627.317 110.338C627.317 112.624 628.883 114.226 631.169 114.226C633.455 114.226 635.003 112.624 635.003 110.338C635.003 108.07 633.455 106.468 631.169 106.468C628.883 106.468 627.317 108.07 627.317 110.338ZM641.741 115.144C639.581 115.144 638.231 114.082 638.231 112.372C638.231 110.716 639.491 109.672 641.399 109.672H645.503V109.006C645.503 107.458 644.369 106.432 642.641 106.432C641.237 106.432 640.139 107.152 639.761 108.268H638.699C639.149 106.54 640.643 105.46 642.623 105.46C644.945 105.46 646.547 106.882 646.547 108.952V115H645.683L645.575 113.398C644.765 114.514 643.397 115.144 641.741 115.144ZM639.275 112.354C639.275 113.488 640.229 114.208 641.777 114.208C643.937 114.208 645.521 112.858 645.521 110.986V110.59H641.435C640.157 110.59 639.275 111.292 639.275 112.354ZM650.057 115V105.694H650.939L651.047 107.782C651.677 106.378 652.739 105.694 654.467 105.694H655.241V106.666H654.431C652.433 106.666 651.101 107.89 651.101 110.716V115H650.057ZM661.642 115C659.662 115 658.6 113.884 658.6 111.778V106.648H656.566V105.694H657.754C658.456 105.694 658.654 105.514 658.726 104.83L658.816 103.408H659.644V105.694H662.866V106.648H659.644V111.742C659.644 113.272 660.274 113.992 661.678 113.992H662.992V115H661.642Z" fill="black"/>
<path d="M316.034 181V168.4H320.012C324.026 168.4 326.564 170.902 326.564 174.7C326.564 178.498 324.026 181 320.012 181H316.034ZM317.132 179.956H320.012C323.36 179.956 325.448 177.904 325.448 174.7C325.448 171.496 323.342 169.444 319.976 169.444H317.132V179.956ZM333.384 181.234C330.558 181.234 328.632 179.236 328.632 176.338C328.632 173.458 330.576 171.46 333.402 171.46C336.336 171.46 338.226 173.62 338.154 176.77H329.694C329.874 178.876 331.314 180.244 333.384 180.244C334.896 180.244 336.102 179.542 336.714 178.336L337.884 178.354C337.164 180.136 335.472 181.234 333.384 181.234ZM329.694 175.852H337.128C336.876 173.746 335.436 172.45 333.402 172.45C331.332 172.45 329.874 173.8 329.694 175.852ZM344.212 181.234C341.854 181.234 340.36 180.046 340.288 178.192H341.314C341.422 179.506 342.448 180.28 344.23 180.28C345.868 180.28 346.858 179.65 346.858 178.624C346.858 177.652 345.976 177.058 343.996 176.716C341.566 176.302 340.468 175.438 340.468 174.016C340.468 172.432 341.818 171.46 343.996 171.46C346.192 171.46 347.578 172.504 347.722 174.286H346.678C346.57 173.062 345.616 172.396 343.996 172.396C342.448 172.396 341.512 173.026 341.512 174.034C341.512 174.952 342.286 175.456 344.356 175.852C346.714 176.302 347.884 177.238 347.884 178.642C347.884 180.208 346.462 181.234 344.212 181.234ZM350.905 181V171.694H351.949V181H350.905ZM350.473 169.048C350.473 168.526 350.851 168.112 351.427 168.112C352.003 168.112 352.381 168.526 352.381 169.048C352.381 169.588 352.003 170.002 351.427 170.002C350.851 170.002 350.473 169.588 350.473 169.048ZM359.737 184.834C357.451 184.834 355.759 183.628 355.399 181.738H356.461C356.767 183.034 358.027 183.844 359.737 183.844C361.879 183.844 363.247 182.584 363.247 180.586V179.074C362.419 180.208 361.087 180.892 359.503 180.892C356.785 180.892 354.841 178.912 354.841 176.176C354.841 173.44 356.785 171.46 359.503 171.46C361.141 171.46 362.491 172.18 363.319 173.368L363.409 171.694H364.291V180.622C364.291 183.124 362.455 184.834 359.737 184.834ZM355.885 176.176C355.885 178.354 357.415 179.866 359.611 179.866C361.789 179.866 363.319 178.354 363.319 176.176C363.319 173.998 361.789 172.468 359.611 172.468C357.415 172.468 355.885 173.998 355.885 176.176ZM367.991 181V171.694H368.873L368.963 173.494C369.701 172.162 370.997 171.46 372.491 171.46C374.921 171.46 376.415 173.17 376.415 175.852V181H375.371V175.942C375.371 173.8 374.219 172.468 372.365 172.468C370.403 172.468 369.035 173.962 369.035 176.176V181H367.991ZM383.868 181.234C381.042 181.234 379.116 179.236 379.116 176.338C379.116 173.458 381.06 171.46 383.886 171.46C386.82 171.46 388.71 173.62 388.638 176.77H380.178C380.358 178.876 381.798 180.244 383.868 180.244C385.38 180.244 386.586 179.542 387.198 178.336L388.368 178.354C387.648 180.136 385.956 181.234 383.868 181.234ZM380.178 175.852H387.612C387.36 173.746 385.92 172.45 383.886 172.45C381.816 172.45 380.358 173.8 380.178 175.852ZM394.974 181C392.994 181 391.932 179.884 391.932 177.778V172.648H389.898V171.694H391.086C391.788 171.694 391.986 171.514 392.058 170.83L392.148 169.408H392.976V171.694H396.198V172.648H392.976V177.742C392.976 179.272 393.606 179.992 395.01 179.992H396.324V181H394.974ZM407.458 181.234C404.632 181.234 402.706 179.236 402.706 176.338C402.706 173.458 404.65 171.46 407.476 171.46C410.41 171.46 412.3 173.62 412.228 176.77H403.768C403.948 178.876 405.388 180.244 407.458 180.244C408.97 180.244 410.176 179.542 410.788 178.336L411.958 178.354C411.238 180.136 409.546 181.234 407.458 181.234ZM403.768 175.852H411.202C410.95 173.746 409.51 172.45 407.476 172.45C405.406 172.45 403.948 173.8 403.768 175.852ZM415.083 181V171.694H415.965L416.073 173.782C416.703 172.378 417.765 171.694 419.493 171.694H420.267V172.666H419.457C417.459 172.666 416.127 173.89 416.127 176.716V181H415.083ZM319.058 207.234C316.7 207.234 315.206 206.046 315.134 204.192H316.16C316.268 205.506 317.294 206.28 319.076 206.28C320.714 206.28 321.704 205.65 321.704 204.624C321.704 203.652 320.822 203.058 318.842 202.716C316.412 202.302 315.314 201.438 315.314 200.016C315.314 198.432 316.664 197.46 318.842 197.46C321.038 197.46 322.424 198.504 322.568 200.286H321.524C321.416 199.062 320.462 198.396 318.842 198.396C317.294 198.396 316.358 199.026 316.358 200.034C316.358 200.952 317.132 201.456 319.202 201.852C321.56 202.302 322.73 203.238 322.73 204.642C322.73 206.208 321.308 207.234 319.058 207.234ZM325.75 207V193.68H326.794V201.78H328.162C329.89 201.78 330.646 201.33 331.24 199.764L332.032 197.694H333.148L332.212 200.16C331.798 201.204 331.312 201.87 330.574 202.266L333.598 207H332.356L329.602 202.626C329.17 202.716 328.684 202.752 328.126 202.752H326.794V207H325.75ZM336.174 207V197.694H337.056L337.164 199.782C337.794 198.378 338.856 197.694 340.584 197.694H341.358V198.666H340.548C338.55 198.666 337.218 199.89 337.218 202.716V207H336.174ZM347.2 207.234C344.374 207.234 342.448 205.236 342.448 202.338C342.448 199.458 344.392 197.46 347.218 197.46C350.152 197.46 352.042 199.62 351.97 202.77H343.51C343.69 204.876 345.13 206.244 347.2 206.244C348.712 206.244 349.918 205.542 350.53 204.336L351.7 204.354C350.98 206.136 349.288 207.234 347.2 207.234ZM343.51 201.852H350.944C350.692 199.746 349.252 198.45 347.218 198.45C345.148 198.45 343.69 199.8 343.51 201.852ZM358.785 207.234C355.977 207.234 354.015 205.164 354.015 202.338C354.015 199.512 355.977 197.46 358.785 197.46C360.495 197.46 361.881 198.216 362.709 199.422V193.68H363.753V207H362.889L362.763 205.164C361.953 206.442 360.531 207.234 358.785 207.234ZM355.059 202.338C355.059 204.624 356.625 206.226 358.911 206.226C361.179 206.226 362.745 204.624 362.745 202.338C362.745 200.07 361.179 198.468 358.911 198.468C356.625 198.468 355.059 200.07 355.059 202.338ZM371.423 207.234C368.615 207.234 366.653 205.164 366.653 202.338C366.653 199.512 368.615 197.46 371.423 197.46C373.133 197.46 374.519 198.216 375.347 199.422V193.68H376.391V207H375.527L375.401 205.164C374.591 206.442 373.169 207.234 371.423 207.234ZM367.697 202.338C367.697 204.624 369.263 206.226 371.549 206.226C373.817 206.226 375.383 204.624 375.383 202.338C375.383 200.07 373.817 198.468 371.549 198.468C369.263 198.468 367.697 200.07 367.697 202.338ZM384.044 207.234C381.218 207.234 379.292 205.236 379.292 202.338C379.292 199.458 381.236 197.46 384.062 197.46C386.996 197.46 388.886 199.62 388.814 202.77H380.354C380.534 204.876 381.974 206.244 384.044 206.244C385.556 206.244 386.762 205.542 387.374 204.336L388.544 204.354C387.824 206.136 386.132 207.234 384.044 207.234ZM380.354 201.852H387.788C387.536 199.746 386.096 198.45 384.062 198.45C381.992 198.45 380.534 199.8 380.354 201.852ZM391.668 207V197.694H392.55L392.658 199.782C393.288 198.378 394.35 197.694 396.078 197.694H396.852V198.666H396.042C394.044 198.666 392.712 199.89 392.712 202.716V207H391.668ZM402.15 207.234C399.792 207.234 398.298 206.046 398.226 204.192H399.252C399.36 205.506 400.386 206.28 402.168 206.28C403.806 206.28 404.796 205.65 404.796 204.624C404.796 203.652 403.914 203.058 401.934 202.716C399.504 202.302 398.406 201.438 398.406 200.016C398.406 198.432 399.756 197.46 401.934 197.46C404.13 197.46 405.516 198.504 405.66 200.286H404.616C404.508 199.062 403.554 198.396 401.934 198.396C400.386 198.396 399.45 199.026 399.45 200.034C399.45 200.952 400.224 201.456 402.294 201.852C404.652 202.302 405.822 203.238 405.822 204.642C405.822 206.208 404.4 207.234 402.15 207.234ZM407.967 210.6V209.61H408.741C410.055 209.61 410.469 209.34 410.955 208.17L411.477 206.856L407.049 197.694H408.219L410.415 202.284L412.017 205.596L413.349 202.284L415.239 197.694H416.337L411.891 208.566C411.243 210.186 410.523 210.6 408.849 210.6H407.967ZM422.171 207.234C419.363 207.234 417.401 205.164 417.401 202.338C417.401 199.512 419.363 197.46 422.171 197.46C423.881 197.46 425.267 198.216 426.095 199.422V193.68H427.139V207H426.275L426.149 205.164C425.339 206.442 423.917 207.234 422.171 207.234ZM418.445 202.338C418.445 204.624 420.011 206.226 422.297 206.226C424.565 206.226 426.131 204.624 426.131 202.338C426.131 200.07 424.565 198.468 422.297 198.468C420.011 198.468 418.445 200.07 418.445 202.338ZM434.81 207.234C432.002 207.234 430.04 205.164 430.04 202.338C430.04 199.512 432.002 197.46 434.81 197.46C436.52 197.46 437.906 198.216 438.734 199.422V193.68H439.778V207H438.914L438.788 205.164C437.978 206.442 436.556 207.234 434.81 207.234ZM431.084 202.338C431.084 204.624 432.65 206.226 434.936 206.226C437.204 206.226 438.77 204.624 438.77 202.338C438.77 200.07 437.204 198.468 434.936 198.468C432.65 198.468 431.084 200.07 431.084 202.338ZM451.122 207.234C448.764 207.234 447.27 206.046 447.198 204.192H448.224C448.332 205.506 449.358 206.28 451.14 206.28C452.778 206.28 453.768 205.65 453.768 204.624C453.768 203.652 452.886 203.058 450.906 202.716C448.476 202.302 447.378 201.438 447.378 200.016C447.378 198.432 448.728 197.46 450.906 197.46C453.102 197.46 454.488 198.504 454.632 200.286H453.588C453.48 199.062 452.526 198.396 450.906 198.396C449.358 198.396 448.422 199.026 448.422 200.034C448.422 200.952 449.196 201.456 451.266 201.852C453.624 202.302 454.794 203.238 454.794 204.642C454.794 206.208 453.372 207.234 451.122 207.234ZM462.783 207.234C461.073 207.234 459.687 206.46 458.859 205.236V210.6H457.815V197.694H458.697L458.805 199.548C459.615 198.252 461.037 197.46 462.783 197.46C465.609 197.46 467.553 199.512 467.553 202.338C467.553 205.164 465.609 207.234 462.783 207.234ZM458.823 202.338C458.823 204.624 460.389 206.226 462.675 206.226C464.961 206.226 466.509 204.624 466.509 202.338C466.509 200.07 464.961 198.468 462.675 198.468C460.389 198.468 458.823 200.07 458.823 202.338ZM474.396 207.234C471.57 207.234 469.644 205.236 469.644 202.338C469.644 199.458 471.588 197.46 474.414 197.46C477.348 197.46 479.238 199.62 479.166 202.77H470.706C470.886 204.876 472.326 206.244 474.396 206.244C475.908 206.244 477.114 205.542 477.726 204.336L478.896 204.354C478.176 206.136 476.484 207.234 474.396 207.234ZM470.706 201.852H478.14C477.888 199.746 476.448 198.45 474.414 198.45C472.344 198.45 470.886 199.8 470.706 201.852ZM485.224 207.234C482.866 207.234 481.372 206.046 481.3 204.192H482.326C482.434 205.506 483.46 206.28 485.242 206.28C486.88 206.28 487.87 205.65 487.87 204.624C487.87 203.652 486.988 203.058 485.008 202.716C482.578 202.302 481.48 201.438 481.48 200.016C481.48 198.432 482.83 197.46 485.008 197.46C487.204 197.46 488.59 198.504 488.734 200.286H487.69C487.582 199.062 486.628 198.396 485.008 198.396C483.46 198.396 482.524 199.026 482.524 200.034C482.524 200.952 483.298 201.456 485.368 201.852C487.726 202.302 488.896 203.238 488.896 204.642C488.896 206.208 487.474 207.234 485.224 207.234ZM491.917 207V197.694H492.961V207H491.917ZM491.485 195.048C491.485 194.526 491.863 194.112 492.438 194.112C493.015 194.112 493.393 194.526 493.393 195.048C493.393 195.588 493.015 196.002 492.438 196.002C491.863 196.002 491.485 195.588 491.485 195.048ZM500.605 207.234C497.779 207.234 495.853 205.236 495.853 202.338C495.853 199.458 497.797 197.46 500.623 197.46C503.557 197.46 505.447 199.62 505.375 202.77H496.915C497.095 204.876 498.535 206.244 500.605 206.244C502.117 206.244 503.323 205.542 503.935 204.336L505.105 204.354C504.385 206.136 502.693 207.234 500.605 207.234ZM496.915 201.852H504.349C504.097 199.746 502.657 198.45 500.623 198.45C498.553 198.45 497.095 199.8 496.915 201.852ZM508.229 207V193.68H509.273V207H508.229ZM516.755 207C514.775 207 513.713 205.884 513.713 203.778V198.648H511.679V197.694H512.867C513.569 197.694 513.767 197.514 513.839 196.83L513.929 195.408H514.757V197.694H517.979V198.648H514.757V203.742C514.757 205.272 515.387 205.992 516.791 205.992H518.105V207H516.755ZM316.754 222.614C316.754 220.49 317.798 219.446 319.868 219.446H321.326V220.436H319.958C318.446 220.436 317.798 221.102 317.798 222.686V223.694H321.236V224.648H317.798V233H316.754V224.648H314.63V223.694H316.754V222.614ZM327.147 233.234C324.267 233.234 322.251 231.218 322.251 228.338C322.251 225.476 324.267 223.46 327.147 223.46C330.009 223.46 332.025 225.476 332.025 228.338C332.025 231.218 330.009 233.234 327.147 233.234ZM323.295 228.338C323.295 230.642 324.861 232.226 327.147 232.226C329.415 232.226 330.981 230.642 330.981 228.338C330.981 226.052 329.415 224.468 327.147 224.468C324.861 224.468 323.295 226.052 323.295 228.338ZM334.926 233V223.694H335.808L335.916 225.782C336.546 224.378 337.608 223.694 339.336 223.694H340.11V224.666H339.3C337.302 224.666 335.97 225.89 335.97 228.716V233H334.926ZM352.217 233.234C350.471 233.234 349.049 232.424 348.239 231.146L348.131 233H347.249V219.68H348.293V225.458C349.121 224.216 350.507 223.46 352.217 223.46C355.043 223.46 356.987 225.512 356.987 228.338C356.987 231.164 355.043 233.234 352.217 233.234ZM348.257 228.338C348.257 230.624 349.823 232.226 352.109 232.226C354.395 232.226 355.943 230.624 355.943 228.338C355.943 226.07 354.395 224.468 352.109 224.468C349.823 224.468 348.257 226.07 348.257 228.338ZM359.887 233V223.694H360.769L360.877 225.782C361.507 224.378 362.569 223.694 364.297 223.694H365.071V224.666H364.261C362.263 224.666 360.931 225.89 360.931 228.716V233H359.887ZM371.364 233.234C368.97 233.234 367.494 231.524 367.494 228.842V223.694H368.538V228.752C368.538 230.876 369.672 232.226 371.508 232.226C373.434 232.226 374.766 230.714 374.766 228.5V223.694H375.81V233H374.946L374.838 231.182C374.118 232.532 372.822 233.234 371.364 233.234ZM379.522 233V219.68H380.566V227.78H381.934C383.662 227.78 384.418 227.33 385.012 225.764L385.804 223.694H386.92L385.984 226.16C385.57 227.204 385.084 227.87 384.346 228.266L387.37 233H386.128L383.374 228.626C382.942 228.716 382.456 228.752 381.898 228.752H380.566V233H379.522ZM393.589 233.234C390.763 233.234 388.837 231.236 388.837 228.338C388.837 225.458 390.781 223.46 393.607 223.46C396.541 223.46 398.431 225.62 398.359 228.77H389.899C390.079 230.876 391.519 232.244 393.589 232.244C395.101 232.244 396.307 231.542 396.919 230.336L398.089 230.354C397.369 232.136 395.677 233.234 393.589 233.234ZM389.899 227.852H397.333C397.081 225.746 395.641 224.45 393.607 224.45C391.537 224.45 390.079 225.8 389.899 227.852ZM401.213 233V223.694H402.095L402.203 225.782C402.833 224.378 403.895 223.694 405.623 223.694H406.397V224.666H405.587C403.589 224.666 402.257 225.89 402.257 228.716V233H401.213ZM412.239 233.234C409.413 233.234 407.487 231.236 407.487 228.338C407.487 225.458 409.431 223.46 412.257 223.46C415.191 223.46 417.081 225.62 417.009 228.77H408.549C408.729 230.876 410.169 232.244 412.239 232.244C413.751 232.244 414.957 231.542 415.569 230.336L416.739 230.354C416.019 232.136 414.327 233.234 412.239 233.234ZM408.549 227.852H415.983C415.731 225.746 414.291 224.45 412.257 224.45C410.187 224.45 408.729 225.8 408.549 227.852ZM419.864 233V223.694H420.746L420.836 225.494C421.574 224.162 422.87 223.46 424.364 223.46C426.794 223.46 428.288 225.17 428.288 227.852V233H427.244V227.942C427.244 225.8 426.092 224.468 424.238 224.468C422.276 224.468 420.908 225.962 420.908 228.176V233H419.864Z" fill="black"/>
<path d="M74.034 88V75.4H75.132V88H74.034ZM79.022 88V78.694H79.904L79.994 80.494C80.732 79.162 82.028 78.46 83.522 78.46C85.952 78.46 87.446 80.17 87.446 82.852V88H86.402V82.942C86.402 80.8 85.25 79.468 83.396 79.468C81.434 79.468 80.066 80.962 80.066 83.176V88H79.022ZM90.9575 88V78.694H91.8395L91.9295 80.494C92.6675 79.162 93.9635 78.46 95.4575 78.46C97.8875 78.46 99.3815 80.17 99.3815 82.852V88H98.3375V82.942C98.3375 80.8 97.1855 79.468 95.3315 79.468C93.3695 79.468 92.0015 80.962 92.0015 83.176V88H90.9575ZM102.893 88V74.68H103.937V80.386C104.675 79.108 105.971 78.46 107.429 78.46C109.841 78.46 111.317 80.134 111.317 82.816V88H110.273V82.906C110.273 80.764 109.139 79.468 107.285 79.468C105.323 79.468 103.937 80.926 103.937 83.158V88H102.893ZM118.771 88.234C115.945 88.234 114.019 86.236 114.019 83.338C114.019 80.458 115.963 78.46 118.789 78.46C121.723 78.46 123.613 80.62 123.541 83.77H115.081C115.261 85.876 116.701 87.244 118.771 87.244C120.283 87.244 121.489 86.542 122.101 85.336L123.271 85.354C122.551 87.136 120.859 88.234 118.771 88.234ZM115.081 82.852H122.515C122.263 80.746 120.823 79.45 118.789 79.45C116.719 79.45 115.261 80.8 115.081 82.852ZM126.395 88V78.694H127.277L127.367 80.494C128.105 79.162 129.401 78.46 130.895 78.46C133.325 78.46 134.819 80.17 134.819 82.852V88H133.775V82.942C133.775 80.8 132.623 79.468 130.769 79.468C128.807 79.468 127.439 80.962 127.439 83.176V88H126.395ZM141.812 88C139.832 88 138.77 86.884 138.77 84.778V79.648H136.736V78.694H137.924C138.626 78.694 138.824 78.514 138.896 77.83L138.986 76.408H139.814V78.694H143.036V79.648H139.814V84.742C139.814 86.272 140.444 86.992 141.848 86.992H143.162V88H141.812ZM145.959 88V78.694H147.003V88H145.959ZM145.527 76.048C145.527 75.526 145.905 75.112 146.481 75.112C147.057 75.112 147.435 75.526 147.435 76.048C147.435 76.588 147.057 77.002 146.481 77.002C145.905 77.002 145.527 76.588 145.527 76.048ZM150.706 88V78.694H151.588L151.678 80.494C152.416 79.162 153.712 78.46 155.206 78.46C157.636 78.46 159.13 80.17 159.13 82.852V88H158.086V82.942C158.086 80.8 156.934 79.468 155.08 79.468C153.118 79.468 151.75 80.962 151.75 83.176V88H150.706ZM166.727 91.834C164.441 91.834 162.749 90.628 162.389 88.738H163.451C163.757 90.034 165.017 90.844 166.727 90.844C168.869 90.844 170.237 89.584 170.237 87.586V86.074C169.409 87.208 168.077 87.892 166.493 87.892C163.775 87.892 161.831 85.912 161.831 83.176C161.831 80.44 163.775 78.46 166.493 78.46C168.131 78.46 169.481 79.18 170.309 80.368L170.399 78.694H171.281V87.622C171.281 90.124 169.445 91.834 166.727 91.834ZM162.875 83.176C162.875 85.354 164.405 86.866 166.601 86.866C168.779 86.866 170.309 85.354 170.309 83.176C170.309 80.998 168.779 79.468 166.601 79.468C164.405 79.468 162.875 80.998 162.875 83.176ZM182.713 88.144C180.553 88.144 179.203 87.082 179.203 85.372C179.203 83.716 180.463 82.672 182.371 82.672H186.475V82.006C186.475 80.458 185.341 79.432 183.613 79.432C182.209 79.432 181.111 80.152 180.733 81.268H179.671C180.121 79.54 181.615 78.46 183.595 78.46C185.917 78.46 187.519 79.882 187.519 81.952V88H186.655L186.547 86.398C185.737 87.514 184.369 88.144 182.713 88.144ZM180.247 85.354C180.247 86.488 181.201 87.208 182.749 87.208C184.909 87.208 186.493 85.858 186.493 83.986V83.59H182.407C181.129 83.59 180.247 84.292 180.247 85.354ZM193.307 88L189.149 78.694H190.283L191.903 82.294L193.829 86.632L195.737 82.294L197.375 78.694H198.491L194.333 88H193.307ZM208.648 88.234C205.84 88.234 203.878 86.164 203.878 83.338C203.878 80.512 205.84 78.46 208.648 78.46C210.358 78.46 211.744 79.216 212.572 80.422V74.68H213.616V88H212.752L212.626 86.164C211.816 87.442 210.394 88.234 208.648 88.234ZM204.922 83.338C204.922 85.624 206.488 87.226 208.774 87.226C211.042 87.226 212.608 85.624 212.608 83.338C212.608 81.07 211.042 79.468 208.774 79.468C206.488 79.468 204.922 81.07 204.922 83.338ZM220.243 88.144C218.083 88.144 216.733 87.082 216.733 85.372C216.733 83.716 217.993 82.672 219.901 82.672H224.005V82.006C224.005 80.458 222.871 79.432 221.143 79.432C219.739 79.432 218.641 80.152 218.263 81.268H217.201C217.651 79.54 219.145 78.46 221.125 78.46C223.447 78.46 225.049 79.882 225.049 81.952V88H224.185L224.077 86.398C223.267 87.514 221.899 88.144 220.243 88.144ZM217.777 85.354C217.777 86.488 218.731 87.208 220.279 87.208C222.439 87.208 224.023 85.858 224.023 83.986V83.59H219.937C218.659 83.59 217.777 84.292 217.777 85.354ZM232.04 88C230.06 88 228.998 86.884 228.998 84.778V79.648H226.964V78.694H228.152C228.854 78.694 229.052 78.514 229.124 77.83L229.214 76.408H230.042V78.694H233.264V79.648H230.042V84.742C230.042 86.272 230.672 86.992 232.076 86.992H233.39V88H232.04ZM238.788 88.144C236.628 88.144 235.278 87.082 235.278 85.372C235.278 83.716 236.538 82.672 238.446 82.672H242.55V82.006C242.55 80.458 241.416 79.432 239.688 79.432C238.284 79.432 237.186 80.152 236.808 81.268H235.746C236.196 79.54 237.69 78.46 239.67 78.46C241.992 78.46 243.594 79.882 243.594 81.952V88H242.73L242.622 86.398C241.812 87.514 240.444 88.144 238.788 88.144ZM236.322 85.354C236.322 86.488 237.276 87.208 238.824 87.208C240.984 87.208 242.568 85.858 242.568 83.986V83.59H238.482C237.204 83.59 236.322 84.292 236.322 85.354ZM77.526 114.234C75.132 114.234 73.656 112.524 73.656 109.842V104.694H74.7V109.752C74.7 111.876 75.834 113.226 77.67 113.226C79.596 113.226 80.928 111.714 80.928 109.5V104.694H81.972V114H81.108L81 112.182C80.28 113.532 78.984 114.234 77.526 114.234ZM85.6841 114V104.694H86.5661L86.6561 106.494C87.3941 105.162 88.6901 104.46 90.1841 104.46C92.6141 104.46 94.1081 106.17 94.1081 108.852V114H93.0641V108.942C93.0641 106.8 91.9121 105.468 90.0581 105.468C88.0961 105.468 86.7281 106.962 86.7281 109.176V114H85.6841ZM101.58 114.234C98.7716 114.234 96.8096 112.164 96.8096 109.338C96.8096 106.512 98.7716 104.46 101.58 104.46C103.29 104.46 104.676 105.216 105.504 106.422V100.68H106.548V114H105.684L105.558 112.164C104.748 113.442 103.326 114.234 101.58 114.234ZM97.8536 109.338C97.8536 111.624 99.4196 113.226 101.706 113.226C103.974 113.226 105.54 111.624 105.54 109.338C105.54 107.07 103.974 105.468 101.706 105.468C99.4196 105.468 97.8536 107.07 97.8536 109.338ZM114.2 114.234C111.374 114.234 109.448 112.236 109.448 109.338C109.448 106.458 111.392 104.46 114.218 104.46C117.152 104.46 119.042 106.62 118.97 109.77H110.51C110.69 111.876 112.13 113.244 114.2 113.244C115.712 113.244 116.918 112.542 117.53 111.336L118.7 111.354C117.98 113.136 116.288 114.234 114.2 114.234ZM110.51 108.852H117.944C117.692 106.746 116.252 105.45 114.218 105.45C112.148 105.45 110.69 106.8 110.51 108.852ZM121.825 114V104.694H122.707L122.815 106.782C123.445 105.378 124.507 104.694 126.235 104.694H127.009V105.666H126.199C124.201 105.666 122.869 106.89 122.869 109.716V114H121.825ZM137.4 114C135.42 114 134.358 112.884 134.358 110.778V105.648H132.324V104.694H133.512C134.214 104.694 134.412 104.514 134.484 103.83L134.574 102.408H135.402V104.694H138.624V105.648H135.402V110.742C135.402 112.272 136.032 112.992 137.436 112.992H138.75V114H137.4ZM141.547 114V104.694H142.429L142.537 106.782C143.167 105.378 144.229 104.694 145.957 104.694H146.731V105.666H145.921C143.923 105.666 142.591 106.89 142.591 109.716V114H141.547ZM152.573 114.234C149.747 114.234 147.821 112.236 147.821 109.338C147.821 106.458 149.765 104.46 152.591 104.46C155.525 104.46 157.415 106.62 157.343 109.77H148.883C149.063 111.876 150.503 113.244 152.573 113.244C154.085 113.244 155.291 112.542 155.903 111.336L157.073 111.354C156.353 113.136 154.661 114.234 152.573 114.234ZM148.883 108.852H156.317C156.065 106.746 154.625 105.45 152.591 105.45C150.521 105.45 149.063 106.8 148.883 108.852ZM169.56 114.234C167.814 114.234 166.392 113.424 165.582 112.146L165.474 114H164.592V100.68H165.636V106.458C166.464 105.216 167.85 104.46 169.56 104.46C172.386 104.46 174.33 106.512 174.33 109.338C174.33 112.164 172.386 114.234 169.56 114.234ZM165.6 109.338C165.6 111.624 167.166 113.226 169.452 113.226C171.738 113.226 173.286 111.624 173.286 109.338C173.286 107.07 171.738 105.468 169.452 105.468C167.166 105.468 165.6 107.07 165.6 109.338ZM177.231 114V104.694H178.113L178.221 106.782C178.851 105.378 179.913 104.694 181.641 104.694H182.415V105.666H181.605C179.607 105.666 178.275 106.89 178.275 109.716V114H177.231ZM188.708 114.234C186.314 114.234 184.838 112.524 184.838 109.842V104.694H185.882V109.752C185.882 111.876 187.016 113.226 188.852 113.226C190.778 113.226 192.11 111.714 192.11 109.5V104.694H193.154V114H192.29L192.182 112.182C191.462 113.532 190.166 114.234 188.708 114.234ZM196.866 114V100.68H197.91V108.78H199.278C201.006 108.78 201.762 108.33 202.356 106.764L203.148 104.694H204.264L203.328 107.16C202.914 108.204 202.428 108.87 201.69 109.266L204.714 114H203.472L200.718 109.626C200.286 109.716 199.8 109.752 199.242 109.752H197.91V114H196.866ZM210.933 114.234C208.107 114.234 206.181 112.236 206.181 109.338C206.181 106.458 208.125 104.46 210.951 104.46C213.885 104.46 215.775 106.62 215.703 109.77H207.243C207.423 111.876 208.863 113.244 210.933 113.244C212.445 113.244 213.651 112.542 214.263 111.336L215.433 111.354C214.713 113.136 213.021 114.234 210.933 114.234ZM207.243 108.852H214.677C214.425 106.746 212.985 105.45 210.951 105.45C208.881 105.45 207.423 106.8 207.243 108.852ZM218.557 114V104.694H219.439L219.547 106.782C220.177 105.378 221.239 104.694 222.967 104.694H223.741V105.666H222.931C220.933 105.666 219.601 106.89 219.601 109.716V114H218.557ZM229.038 114.234C226.68 114.234 225.186 113.046 225.114 111.192H226.14C226.248 112.506 227.274 113.28 229.056 113.28C230.694 113.28 231.684 112.65 231.684 111.624C231.684 110.652 230.802 110.058 228.822 109.716C226.392 109.302 225.294 108.438 225.294 107.016C225.294 105.432 226.644 104.46 228.822 104.46C231.018 104.46 232.404 105.504 232.548 107.286H231.504C231.396 106.062 230.442 105.396 228.822 105.396C227.274 105.396 226.338 106.026 226.338 107.034C226.338 107.952 227.112 108.456 229.182 108.852C231.54 109.302 232.71 110.238 232.71 111.642C232.71 113.208 231.288 114.234 229.038 114.234ZM239.247 114C237.267 114 236.205 112.884 236.205 110.778V105.648H234.171V104.694H235.359C236.061 104.694 236.259 104.514 236.331 103.83L236.421 102.408H237.249V104.694H240.471V105.648H237.249V110.742C237.249 112.272 237.879 112.992 239.283 112.992H240.597V114H239.247ZM245.995 114.144C243.835 114.144 242.485 113.082 242.485 111.372C242.485 109.716 243.745 108.672 245.653 108.672H249.757V108.006C249.757 106.458 248.623 105.432 246.895 105.432C245.491 105.432 244.393 106.152 244.015 107.268H242.953C243.403 105.54 244.897 104.46 246.877 104.46C249.199 104.46 250.801 105.882 250.801 107.952V114H249.937L249.829 112.398C249.019 113.514 247.651 114.144 245.995 114.144ZM243.529 111.354C243.529 112.488 244.483 113.208 246.031 113.208C248.191 113.208 249.775 111.858 249.775 109.986V109.59H245.689C244.411 109.59 243.529 110.292 243.529 111.354ZM258.271 114.234C255.463 114.234 253.501 112.164 253.501 109.338C253.501 106.512 255.463 104.46 258.271 104.46C259.981 104.46 261.367 105.216 262.195 106.422V100.68H263.239V114H262.375L262.249 112.164C261.439 113.442 260.017 114.234 258.271 114.234ZM254.545 109.338C254.545 111.624 256.111 113.226 258.397 113.226C260.665 113.226 262.231 111.624 262.231 109.338C262.231 107.07 260.665 105.468 258.397 105.468C256.111 105.468 254.545 107.07 254.545 109.338ZM266.95 114V104.694H267.994V114H266.95ZM266.518 102.048C266.518 101.526 266.896 101.112 267.472 101.112C268.048 101.112 268.426 101.526 268.426 102.048C268.426 102.588 268.048 103.002 267.472 103.002C266.896 103.002 266.518 102.588 266.518 102.048ZM275.638 114.234C272.812 114.234 270.886 112.236 270.886 109.338C270.886 106.458 272.83 104.46 275.656 104.46C278.59 104.46 280.48 106.62 280.408 109.77H271.948C272.128 111.876 273.568 113.244 275.638 113.244C277.15 113.244 278.356 112.542 278.968 111.336L280.138 111.354C279.418 113.136 277.726 114.234 275.638 114.234ZM271.948 108.852H279.382C279.13 106.746 277.69 105.45 275.656 105.45C273.586 105.45 272.128 106.8 271.948 108.852ZM283.262 114V104.694H284.144L284.252 106.782C284.882 105.378 285.944 104.694 287.672 104.694H288.446V105.666H287.636C285.638 105.666 284.306 106.89 284.306 109.716V114H283.262Z" fill="black"/>
<defs>
<filter id="filter0_d_882_44645" x="465.156" y="0" width="356.844" height="292.807" filterUnits="userSpaceOnUse" color-interpolation-filters="sRGB">
<feFlood flood-opacity="0" result="BackgroundImageFix"/>
<feColorMatrix in="SourceAlpha" type="matrix" values="0 0 0 0 0 0 0 0 0 0 0 0 0 0 0 0 0 0 127 0" result="hardAlpha"/>
<feMorphology radius="5" operator="dilate" in="SourceAlpha" result="effect1_dropShadow_882_44645"/>
<feOffset dy="4"/>
<feGaussianBlur stdDeviation="10"/>
<feComposite in2="hardAlpha" operator="out"/>
<feColorMatrix type="matrix" values="0 0 0 0 0 0 0 0 0 0 0 0 0 0 0 0 0 0 0.1 0"/>
<feBlend mode="normal" in2="BackgroundImageFix" result="effect1_dropShadow_882_44645"/>
<feBlend mode="normal" in="SourceGraphic" in2="effect1_dropShadow_882_44645" result="shape"/>
</filter>
<filter id="filter1_d_882_44645" x="0" y="0" width="356.844" height="292.807" filterUnits="userSpaceOnUse" color-interpolation-filters="sRGB">
<feFlood flood-opacity="0" result="BackgroundImageFix"/>
<feColorMatrix in="SourceAlpha" type="matrix" values="0 0 0 0 0 0 0 0 0 0 0 0 0 0 0 0 0 0 127 0" result="hardAlpha"/>
<feMorphology radius="5" operator="dilate" in="SourceAlpha" result="effect1_dropShadow_882_44645"/>
<feOffset dy="4"/>
<feGaussianBlur stdDeviation="10"/>
<feComposite in2="hardAlpha" operator="out"/>
<feColorMatrix type="matrix" values="0 0 0 0 0 0 0 0 0 0 0 0 0 0 0 0 0 0 0.1 0"/>
<feBlend mode="normal" in2="BackgroundImageFix" result="effect1_dropShadow_882_44645"/>
<feBlend mode="normal" in="SourceGraphic" in2="effect1_dropShadow_882_44645" result="shape"/>
</filter>
<filter id="filter2_d_882_44645" x="209.008" y="104.061" width="400.422" height="327.492" filterUnits="userSpaceOnUse" color-interpolation-filters="sRGB">
<feFlood flood-opacity="0" result="BackgroundImageFix"/>
<feColorMatrix in="SourceAlpha" type="matrix" values="0 0 0 0 0 0 0 0 0 0 0 0 0 0 0 0 0 0 127 0" result="hardAlpha"/>
<feMorphology radius="5" operator="dilate" in="SourceAlpha" result="effect1_dropShadow_882_44645"/>
<feOffset dy="4"/>
<feGaussianBlur stdDeviation="10"/>
<feComposite in2="hardAlpha" operator="out"/>
<feColorMatrix type="matrix" values="0 0 0 0 0 0 0 0 0 0 0 0 0 0 0 0 0 0 0.1 0"/>
<feBlend mode="normal" in2="BackgroundImageFix" result="effect1_dropShadow_882_44645"/>
<feBlend mode="normal" in="SourceGraphic" in2="effect1_dropShadow_882_44645" result="shape"/>
</filter>
<clipPath id="clip0_882_44645">
<rect width="106.728" height="106.728" fill="white" transform="translate(105.938 176.355) rotate(-54.4833)"/>
</clipPath>
<clipPath id="clip1_882_44645">
<rect width="106.728" height="106.728" fill="white" transform="translate(359.414 250.465)"/>
</clipPath>
</defs>
</svg>
