<svg width="822" height="420" viewBox="0 0 822 420" fill="none" xmlns="http://www.w3.org/2000/svg">
<g filter="url(#filter0_d_924_45213)">
<ellipse cx="643.578" cy="142.403" rx="153.422" ry="121.403" fill="#F6F5FF"/>
</g>
<path d="M604 197.323V213.999H620.676L669.86 164.815L653.184 148.139L604 197.323ZM616.985 205.105H612.894V201.014L653.184 160.724L657.275 164.815L616.985 205.105ZM682.756 145.649L672.35 135.243C671.461 134.353 670.349 133.953 669.193 133.953C668.037 133.953 666.925 134.398 666.08 135.243L657.942 143.381L674.618 160.057L682.756 151.919C684.491 150.185 684.491 147.383 682.756 145.649V145.649Z" fill="#323232"/>
<g filter="url(#filter1_d_924_45213)">
<ellipse cx="178.422" cy="142.403" rx="153.422" ry="121.403" fill="#F6F5FF"/>
</g>
<g clip-path="url(#clip0_924_45213)">
<path d="M151.417 143.252L140.558 135.502L144.703 160.314L169.515 156.17L158.656 148.419C167.207 136.438 183.894 133.651 195.875 142.202C199.53 144.811 202.359 148.196 204.201 151.969L213.258 150.457C210.821 144.456 206.724 139.019 201.042 134.963C185.043 123.544 162.836 127.254 151.417 143.252ZM202.092 179.42C193.541 191.401 176.854 194.189 164.873 185.638C161.218 183.028 158.389 179.643 156.547 175.87L147.49 177.383C149.927 183.384 154.024 188.821 159.706 192.877C175.705 204.296 197.912 200.586 209.331 184.587L220.19 192.338L216.045 167.525L191.233 171.67L202.092 179.42Z" fill="#323232"/>
</g>
<g filter="url(#filter2_d_924_45213)">
<ellipse cx="409.22" cy="263.807" rx="175.212" ry="138.747" fill="#F6F5FF"/>
</g>
<g clip-path="url(#clip1_924_45213)">
<path d="M390.543 291.152C399.126 291.152 406.108 284.171 406.108 275.588C406.108 267.005 399.126 260.023 390.543 260.023C381.96 260.023 374.979 267.005 374.979 275.588C374.979 284.171 381.96 291.152 390.543 291.152ZM390.543 268.917C394.234 268.917 397.214 271.897 397.214 275.588C397.214 279.279 394.234 282.258 390.543 282.258C386.852 282.258 383.873 279.279 383.873 275.588C383.873 271.897 386.852 268.917 390.543 268.917ZM390.765 313.387H371.732C376.135 311.164 383.739 308.94 390.543 308.94C391.032 308.94 391.566 308.985 392.055 308.985C393.567 305.739 396.191 303.07 399.348 300.936C396.102 300.358 393.033 300.046 390.543 300.046C380.137 300.046 359.414 305.249 359.414 315.611V322.282H390.543V315.611C390.543 314.855 390.632 314.099 390.765 313.387ZM423.896 302.27C415.713 302.27 399.437 306.761 399.437 315.611V322.282H448.354V315.611C448.354 306.761 432.078 302.27 423.896 302.27ZM429.277 294.176C432.656 292.264 435.013 288.662 435.013 284.482C435.013 278.345 430.032 273.364 423.896 273.364C417.759 273.364 412.778 278.345 412.778 284.482C412.778 288.662 415.135 292.264 418.515 294.176C420.116 295.066 421.939 295.599 423.896 295.599C425.852 295.599 427.676 295.066 429.277 294.176Z" fill="#323232"/>
</g>
<path d="M566.542 89.234C562.834 89.234 560.152 86.534 560.152 82.7C560.152 78.866 562.834 76.166 566.542 76.166C569.422 76.166 571.78 77.84 572.608 80.486H571.456C570.736 78.488 568.864 77.264 566.56 77.264C563.482 77.264 561.268 79.478 561.268 82.7C561.268 85.922 563.482 88.136 566.56 88.136C568.918 88.136 570.862 86.858 571.564 84.77H572.716C571.942 87.488 569.512 89.234 566.542 89.234ZM579.618 89.234C576.738 89.234 574.722 87.218 574.722 84.338C574.722 81.476 576.738 79.46 579.618 79.46C582.48 79.46 584.496 81.476 584.496 84.338C584.496 87.218 582.48 89.234 579.618 89.234ZM575.766 84.338C575.766 86.642 577.332 88.226 579.618 88.226C581.886 88.226 583.452 86.642 583.452 84.338C583.452 82.052 581.886 80.468 579.618 80.468C577.332 80.468 575.766 82.052 575.766 84.338ZM587.397 89V79.694H588.279L588.369 81.206C589.017 80.072 590.151 79.46 591.591 79.46C593.211 79.46 594.453 80.27 594.993 81.692C595.623 80.27 596.901 79.46 598.539 79.46C600.879 79.46 602.391 81.062 602.391 83.654V89H601.347V83.816C601.347 81.746 600.195 80.468 598.413 80.468C596.595 80.468 595.407 81.782 595.407 83.888V89H594.363V83.816C594.363 81.746 593.229 80.468 591.447 80.468C589.629 80.468 588.441 81.782 588.441 83.888V89H587.397ZM610.857 89.234C609.147 89.234 607.761 88.46 606.933 87.236V92.6H605.889V79.694H606.771L606.879 81.548C607.689 80.252 609.111 79.46 610.857 79.46C613.683 79.46 615.627 81.512 615.627 84.338C615.627 87.164 613.683 89.234 610.857 89.234ZM606.897 84.338C606.897 86.624 608.463 88.226 610.749 88.226C613.035 88.226 614.583 86.624 614.583 84.338C614.583 82.07 613.035 80.468 610.749 80.468C608.463 80.468 606.897 82.07 606.897 84.338ZM618.528 89V75.68H619.572V89H618.528ZM627.216 89.234C624.39 89.234 622.464 87.236 622.464 84.338C622.464 81.458 624.408 79.46 627.234 79.46C630.168 79.46 632.058 81.62 631.986 84.77H623.526C623.706 86.876 625.146 88.244 627.216 88.244C628.728 88.244 629.934 87.542 630.546 86.336L631.716 86.354C630.996 88.136 629.304 89.234 627.216 89.234ZM623.526 83.852H630.96C630.708 81.746 629.268 80.45 627.234 80.45C625.164 80.45 623.706 81.8 623.526 83.852ZM638.322 89C636.342 89 635.28 87.884 635.28 85.778V80.648H633.246V79.694H634.434C635.136 79.694 635.333 79.514 635.406 78.83L635.496 77.408H636.324V79.694H639.546V80.648H636.324V85.742C636.324 87.272 636.954 87.992 638.358 87.992H639.672V89H638.322ZM645.069 89.144C642.909 89.144 641.559 88.082 641.559 86.372C641.559 84.716 642.819 83.672 644.727 83.672H648.831V83.006C648.831 81.458 647.697 80.432 645.969 80.432C644.565 80.432 643.467 81.152 643.089 82.268H642.027C642.477 80.54 643.971 79.46 645.951 79.46C648.273 79.46 649.875 80.882 649.875 82.952V89H649.011L648.903 87.398C648.093 88.514 646.725 89.144 645.069 89.144ZM642.603 86.354C642.603 87.488 643.557 88.208 645.105 88.208C647.265 88.208 648.849 86.858 648.849 84.986V84.59H644.763C643.485 84.59 642.603 85.292 642.603 86.354ZM653.385 89V79.694H654.267L654.357 81.206C655.005 80.072 656.139 79.46 657.579 79.46C659.199 79.46 660.441 80.27 660.981 81.692C661.611 80.27 662.889 79.46 664.527 79.46C666.867 79.46 668.379 81.062 668.379 83.654V89H667.335V83.816C667.335 81.746 666.183 80.468 664.401 80.468C662.583 80.468 661.395 81.782 661.395 83.888V89H660.351V83.816C660.351 81.746 659.217 80.468 657.435 80.468C655.617 80.468 654.429 81.782 654.429 83.888V89H653.385ZM675.819 89.234C672.993 89.234 671.067 87.236 671.067 84.338C671.067 81.458 673.011 79.46 675.837 79.46C678.771 79.46 680.661 81.62 680.589 84.77H672.129C672.309 86.876 673.749 88.244 675.819 88.244C677.331 88.244 678.537 87.542 679.149 86.336L680.319 86.354C679.599 88.136 677.907 89.234 675.819 89.234ZM672.129 83.852H679.563C679.311 81.746 677.871 80.45 675.837 80.45C673.767 80.45 672.309 81.8 672.129 83.852ZM683.444 89V79.694H684.326L684.416 81.494C685.154 80.162 686.45 79.46 687.944 79.46C690.374 79.46 691.868 81.17 691.868 83.852V89H690.824V83.942C690.824 81.8 689.672 80.468 687.818 80.468C685.856 80.468 684.488 81.962 684.488 84.176V89H683.444ZM698.861 89C696.881 89 695.819 87.884 695.819 85.778V80.648H693.785V79.694H694.973C695.675 79.694 695.873 79.514 695.945 78.83L696.035 77.408H696.863V79.694H700.085V80.648H696.863V85.742C696.863 87.272 697.493 87.992 698.897 87.992H700.211V89H698.861ZM706.493 89.234C703.667 89.234 701.741 87.236 701.741 84.338C701.741 81.458 703.685 79.46 706.511 79.46C709.445 79.46 711.335 81.62 711.263 84.77H702.803C702.983 86.876 704.423 88.244 706.493 88.244C708.005 88.244 709.211 87.542 709.823 86.336L710.993 86.354C710.273 88.136 708.581 89.234 706.493 89.234ZM702.803 83.852H710.237C709.985 81.746 708.545 80.45 706.511 80.45C704.441 80.45 702.983 81.8 702.803 83.852ZM565.822 115.234C564.112 115.234 562.726 114.46 561.898 113.236V118.6H560.854V105.694H561.736L561.844 107.548C562.654 106.252 564.076 105.46 565.822 105.46C568.648 105.46 570.592 107.512 570.592 110.338C570.592 113.164 568.648 115.234 565.822 115.234ZM561.862 110.338C561.862 112.624 563.428 114.226 565.714 114.226C568 114.226 569.548 112.624 569.548 110.338C569.548 108.07 568 106.468 565.714 106.468C563.428 106.468 561.862 108.07 561.862 110.338ZM577.435 115.234C574.609 115.234 572.683 113.236 572.683 110.338C572.683 107.458 574.627 105.46 577.453 105.46C580.387 105.46 582.277 107.62 582.205 110.77H573.745C573.925 112.876 575.365 114.244 577.435 114.244C578.947 114.244 580.153 113.542 580.765 112.336L581.935 112.354C581.215 114.136 579.523 115.234 577.435 115.234ZM573.745 109.852H581.179C580.927 107.746 579.487 106.45 577.453 106.45C575.383 106.45 573.925 107.8 573.745 109.852ZM585.059 115V105.694H585.941L586.049 107.782C586.679 106.378 587.741 105.694 589.469 105.694H590.243V106.666H589.433C587.435 106.666 586.103 107.89 586.103 110.716V115H585.059ZM595.54 115.234C593.182 115.234 591.688 114.046 591.616 112.192H592.642C592.75 113.506 593.776 114.28 595.558 114.28C597.196 114.28 598.186 113.65 598.186 112.624C598.186 111.652 597.304 111.058 595.324 110.716C592.894 110.302 591.796 109.438 591.796 108.016C591.796 106.432 593.146 105.46 595.324 105.46C597.52 105.46 598.906 106.504 599.05 108.286H598.006C597.898 107.062 596.944 106.396 595.324 106.396C593.776 106.396 592.84 107.026 592.84 108.034C592.84 108.952 593.614 109.456 595.684 109.852C598.042 110.302 599.212 111.238 599.212 112.642C599.212 114.208 597.79 115.234 595.54 115.234ZM606.319 115.234C603.439 115.234 601.423 113.218 601.423 110.338C601.423 107.476 603.439 105.46 606.319 105.46C609.181 105.46 611.197 107.476 611.197 110.338C611.197 113.218 609.181 115.234 606.319 115.234ZM602.467 110.338C602.467 112.642 604.033 114.226 606.319 114.226C608.587 114.226 610.153 112.642 610.153 110.338C610.153 108.052 608.587 106.468 606.319 106.468C604.033 106.468 602.467 108.052 602.467 110.338ZM614.098 115V105.694H614.98L615.07 107.494C615.808 106.162 617.104 105.46 618.598 105.46C621.028 105.46 622.522 107.17 622.522 109.852V115H621.478V109.942C621.478 107.8 620.326 106.468 618.472 106.468C616.51 106.468 615.142 107.962 615.142 110.176V115H614.098ZM628.95 115.144C626.79 115.144 625.44 114.082 625.44 112.372C625.44 110.716 626.7 109.672 628.608 109.672H632.712V109.006C632.712 107.458 631.578 106.432 629.85 106.432C628.446 106.432 627.348 107.152 626.97 108.268H625.908C626.358 106.54 627.852 105.46 629.832 105.46C632.154 105.46 633.756 106.882 633.756 108.952V115H632.892L632.784 113.398C631.974 114.514 630.606 115.144 628.95 115.144ZM626.484 112.354C626.484 113.488 627.438 114.208 628.986 114.208C631.146 114.208 632.73 112.858 632.73 110.986V110.59H628.644C627.366 110.59 626.484 111.292 626.484 112.354ZM637.266 115V101.68H638.31V115H637.266ZM642.012 115V105.694H643.056V115H642.012ZM641.58 103.048C641.58 102.526 641.958 102.112 642.534 102.112C643.11 102.112 643.488 102.526 643.488 103.048C643.488 103.588 643.11 104.002 642.534 104.002C641.958 104.002 641.58 103.588 641.58 103.048ZM645.858 115V114.19L651.906 106.648H646.074V105.694H653.31V106.486L647.298 114.028H653.436V115H645.858ZM655.298 115V114.19L661.346 106.648H655.514V105.694H662.75V106.486L656.738 114.028H662.876V115H655.298ZM668.377 115.144C666.217 115.144 664.867 114.082 664.867 112.372C664.867 110.716 666.127 109.672 668.035 109.672H672.139V109.006C672.139 107.458 671.005 106.432 669.277 106.432C667.873 106.432 666.775 107.152 666.397 108.268H665.335C665.785 106.54 667.279 105.46 669.259 105.46C671.581 105.46 673.183 106.882 673.183 108.952V115H672.319L672.211 113.398C671.401 114.514 670.033 115.144 668.377 115.144ZM665.911 112.354C665.911 113.488 666.865 114.208 668.413 114.208C670.573 114.208 672.157 112.858 672.157 110.986V110.59H668.071C666.793 110.59 665.911 111.292 665.911 112.354ZM680.175 115C678.195 115 677.133 113.884 677.133 111.778V106.648H675.099V105.694H676.287C676.989 105.694 677.187 105.514 677.259 104.83L677.349 103.408H678.177V105.694H681.399V106.648H678.177V111.742C678.177 113.272 678.807 113.992 680.211 113.992H681.525V115H680.175ZM687.952 115.234C685.072 115.234 683.056 113.218 683.056 110.338C683.056 107.476 685.072 105.46 687.952 105.46C690.814 105.46 692.83 107.476 692.83 110.338C692.83 113.218 690.814 115.234 687.952 115.234ZM684.1 110.338C684.1 112.642 685.666 114.226 687.952 114.226C690.22 114.226 691.786 112.642 691.786 110.338C691.786 108.052 690.22 106.468 687.952 106.468C685.666 106.468 684.1 108.052 684.1 110.338ZM703.646 115.234C700.82 115.234 698.894 113.236 698.894 110.338C698.894 107.458 700.838 105.46 703.664 105.46C706.598 105.46 708.488 107.62 708.416 110.77H699.956C700.136 112.876 701.576 114.244 703.646 114.244C705.158 114.244 706.364 113.542 706.976 112.336L708.146 112.354C707.426 114.136 705.734 115.234 703.646 115.234ZM699.956 109.852H707.39C707.138 107.746 705.698 106.45 703.664 106.45C701.594 106.45 700.136 107.8 699.956 109.852ZM563.77 141.144C561.61 141.144 560.26 140.082 560.26 138.372C560.26 136.716 561.52 135.672 563.428 135.672H567.532V135.006C567.532 133.458 566.398 132.432 564.67 132.432C563.266 132.432 562.168 133.152 561.79 134.268H560.728C561.178 132.54 562.672 131.46 564.652 131.46C566.974 131.46 568.576 132.882 568.576 134.952V141H567.712L567.604 139.398C566.794 140.514 565.426 141.144 563.77 141.144ZM561.304 138.354C561.304 139.488 562.258 140.208 563.806 140.208C565.966 140.208 567.55 138.858 567.55 136.986V136.59H563.464C562.186 136.59 561.304 137.292 561.304 138.354ZM576.046 141.234C573.238 141.234 571.276 139.164 571.276 136.338C571.276 133.512 573.238 131.46 576.046 131.46C577.756 131.46 579.142 132.216 579.97 133.422V127.68H581.014V141H580.15L580.024 139.164C579.214 140.442 577.792 141.234 576.046 141.234ZM572.32 136.338C572.32 138.624 573.886 140.226 576.172 140.226C578.44 140.226 580.006 138.624 580.006 136.338C580.006 134.07 578.44 132.468 576.172 132.468C573.886 132.468 572.32 134.07 572.32 136.338ZM587.641 141.144C585.481 141.144 584.131 140.082 584.131 138.372C584.131 136.716 585.391 135.672 587.299 135.672H591.403V135.006C591.403 133.458 590.269 132.432 588.541 132.432C587.137 132.432 586.039 133.152 585.661 134.268H584.599C585.049 132.54 586.543 131.46 588.523 131.46C590.845 131.46 592.447 132.882 592.447 134.952V141H591.583L591.475 139.398C590.665 140.514 589.297 141.144 587.641 141.144ZM585.175 138.354C585.175 139.488 586.129 140.208 587.677 140.208C589.837 140.208 591.421 138.858 591.421 136.986V136.59H587.335C586.057 136.59 585.175 137.292 585.175 138.354ZM599.439 141C597.459 141 596.397 139.884 596.397 137.778V132.648H594.363V131.694H595.551C596.253 131.694 596.451 131.514 596.523 130.83L596.613 129.408H597.441V131.694H600.663V132.648H597.441V137.742C597.441 139.272 598.071 139.992 599.475 139.992H600.789V141H599.439ZM607.366 141C605.386 141 604.324 139.884 604.324 137.778V132.648H602.29V131.694H603.478C604.18 131.694 604.378 131.514 604.45 130.83L604.54 129.408H605.368V131.694H608.59V132.648H605.368V137.742C605.368 139.272 605.998 139.992 607.402 139.992H608.716V141H607.366ZM614.114 141.144C611.954 141.144 610.604 140.082 610.604 138.372C610.604 136.716 611.864 135.672 613.772 135.672H617.876V135.006C617.876 133.458 616.742 132.432 615.014 132.432C613.61 132.432 612.512 133.152 612.134 134.268H611.072C611.522 132.54 613.016 131.46 614.996 131.46C617.318 131.46 618.92 132.882 618.92 134.952V141H618.056L617.948 139.398C617.138 140.514 615.77 141.144 614.114 141.144ZM611.648 138.354C611.648 139.488 612.602 140.208 614.15 140.208C616.31 140.208 617.894 138.858 617.894 136.986V136.59H613.808C612.53 136.59 611.648 137.292 611.648 138.354ZM627.398 141.234C625.652 141.234 624.23 140.424 623.42 139.146L623.312 141H622.43V127.68H623.474V133.458C624.302 132.216 625.688 131.46 627.398 131.46C630.224 131.46 632.168 133.512 632.168 136.338C632.168 139.164 630.224 141.234 627.398 141.234ZM623.438 136.338C623.438 138.624 625.004 140.226 627.29 140.226C629.576 140.226 631.124 138.624 631.124 136.338C631.124 134.07 629.576 132.468 627.29 132.468C625.004 132.468 623.438 134.07 623.438 136.338ZM635.069 141V131.694H636.113V141H635.069ZM634.637 129.048C634.637 128.526 635.015 128.112 635.591 128.112C636.167 128.112 636.545 128.526 636.545 129.048C636.545 129.588 636.167 130.002 635.591 130.002C635.015 130.002 634.637 129.588 634.637 129.048ZM639.815 141V127.68H640.859V141H639.815ZM648.503 141.234C645.677 141.234 643.751 139.236 643.751 136.338C643.751 133.458 645.695 131.46 648.521 131.46C651.455 131.46 653.345 133.62 653.273 136.77H644.813C644.993 138.876 646.433 140.244 648.503 140.244C650.015 140.244 651.221 139.542 651.833 138.336L653.003 138.354C652.283 140.136 650.591 141.234 648.503 141.234ZM644.813 135.852H652.247C651.995 133.746 650.555 132.45 648.521 132.45C646.451 132.45 644.993 133.8 644.813 135.852Z" fill="black"/>
<path d="M316.034 180.553V167.953H317.132V180.553H316.034ZM321.022 180.553V167.233H322.066V180.553H321.022ZM334.123 180.787C331.315 180.787 329.353 178.717 329.353 175.891C329.353 173.065 331.315 171.013 334.123 171.013C335.833 171.013 337.219 171.769 338.047 172.975V167.233H339.091V180.553H338.227L338.101 178.717C337.291 179.995 335.869 180.787 334.123 180.787ZM330.397 175.891C330.397 178.177 331.963 179.779 334.249 179.779C336.517 179.779 338.083 178.177 338.083 175.891C338.083 173.623 336.517 172.021 334.249 172.021C331.963 172.021 330.397 173.623 330.397 175.891ZM346.743 180.787C343.917 180.787 341.991 178.789 341.991 175.891C341.991 173.011 343.935 171.013 346.761 171.013C349.695 171.013 351.585 173.173 351.513 176.323H343.053C343.233 178.429 344.673 179.797 346.743 179.797C348.255 179.797 349.461 179.095 350.073 177.889L351.243 177.907C350.523 179.689 348.831 180.787 346.743 180.787ZM343.053 175.405H350.487C350.235 173.299 348.795 172.003 346.761 172.003C344.691 172.003 343.233 173.353 343.053 175.405ZM357.572 180.787C355.214 180.787 353.72 179.599 353.648 177.745H354.674C354.782 179.059 355.808 179.833 357.59 179.833C359.228 179.833 360.218 179.203 360.218 178.177C360.218 177.205 359.336 176.611 357.356 176.269C354.926 175.855 353.828 174.991 353.828 173.569C353.828 171.985 355.178 171.013 357.356 171.013C359.552 171.013 360.938 172.057 361.082 173.839H360.038C359.93 172.615 358.976 171.949 357.356 171.949C355.808 171.949 354.872 172.579 354.872 173.587C354.872 174.505 355.646 175.009 357.716 175.405C360.074 175.855 361.244 176.791 361.244 178.195C361.244 179.761 359.822 180.787 357.572 180.787ZM364.264 180.553V171.247H365.308V180.553H364.264ZM363.832 168.601C363.832 168.079 364.21 167.665 364.786 167.665C365.362 167.665 365.74 168.079 365.74 168.601C365.74 169.141 365.362 169.555 364.786 169.555C364.21 169.555 363.832 169.141 363.832 168.601ZM373.096 184.387C370.81 184.387 369.118 183.181 368.758 181.291H369.82C370.126 182.587 371.386 183.397 373.096 183.397C375.238 183.397 376.606 182.137 376.606 180.139V178.627C375.778 179.761 374.446 180.445 372.862 180.445C370.144 180.445 368.2 178.465 368.2 175.729C368.2 172.993 370.144 171.013 372.862 171.013C374.5 171.013 375.85 171.733 376.678 172.921L376.768 171.247H377.65V180.175C377.65 182.677 375.814 184.387 373.096 184.387ZM369.244 175.729C369.244 177.907 370.774 179.419 372.97 179.419C375.148 179.419 376.678 177.907 376.678 175.729C376.678 173.551 375.148 172.021 372.97 172.021C370.774 172.021 369.244 173.551 369.244 175.729ZM381.35 180.553V171.247H382.232L382.322 173.047C383.06 171.715 384.356 171.013 385.85 171.013C388.28 171.013 389.774 172.723 389.774 175.405V180.553H388.73V175.495C388.73 173.353 387.578 172.021 385.724 172.021C383.762 172.021 382.394 173.515 382.394 175.729V180.553H381.35ZM401.622 180.787C398.796 180.787 396.87 178.789 396.87 175.891C396.87 173.011 398.814 171.013 401.64 171.013C404.574 171.013 406.464 173.173 406.392 176.323H397.932C398.112 178.429 399.552 179.797 401.622 179.797C403.134 179.797 404.34 179.095 404.952 177.889L406.122 177.907C405.402 179.689 403.71 180.787 401.622 180.787ZM397.932 175.405H405.366C405.114 173.299 403.674 172.003 401.64 172.003C399.57 172.003 398.112 173.353 397.932 175.405ZM400.2 166.981H401.334L402.324 169.699H401.334L400.2 166.981ZM416.458 180.787C414.1 180.787 412.606 179.599 412.534 177.745H413.56C413.668 179.059 414.694 179.833 416.476 179.833C418.114 179.833 419.104 179.203 419.104 178.177C419.104 177.205 418.222 176.611 416.242 176.269C413.812 175.855 412.714 174.991 412.714 173.569C412.714 171.985 414.064 171.013 416.242 171.013C418.438 171.013 419.824 172.057 419.968 173.839H418.924C418.816 172.615 417.862 171.949 416.242 171.949C414.694 171.949 413.758 172.579 413.758 173.587C413.758 174.505 414.532 175.009 416.602 175.405C418.96 175.855 420.13 176.791 420.13 178.195C420.13 179.761 418.708 180.787 416.458 180.787ZM426.823 180.787C424.429 180.787 422.953 179.077 422.953 176.395V171.247H423.997V176.305C423.997 178.429 425.131 179.779 426.967 179.779C428.893 179.779 430.225 178.267 430.225 176.053V171.247H431.269V180.553H430.405L430.297 178.735C429.577 180.085 428.281 180.787 426.823 180.787ZM439.797 180.553V171.247H440.679L440.769 172.759C441.417 171.625 442.551 171.013 443.991 171.013C445.611 171.013 446.853 171.823 447.393 173.245C448.023 171.823 449.301 171.013 450.939 171.013C453.279 171.013 454.791 172.615 454.791 175.207V180.553H453.747V175.369C453.747 173.299 452.595 172.021 450.813 172.021C448.995 172.021 447.807 173.335 447.807 175.441V180.553H446.763V175.369C446.763 173.299 445.629 172.021 443.847 172.021C442.029 172.021 440.841 173.335 440.841 175.441V180.553H439.797ZM458.29 180.553V171.247H459.334V180.553H458.29ZM457.858 168.601C457.858 168.079 458.236 167.665 458.812 167.665C459.388 167.665 459.766 168.079 459.766 168.601C459.766 169.141 459.388 169.555 458.812 169.555C458.236 169.555 457.858 169.141 457.858 168.601ZM466.24 180.787C463.882 180.787 462.388 179.599 462.316 177.745H463.342C463.45 179.059 464.476 179.833 466.258 179.833C467.896 179.833 468.886 179.203 468.886 178.177C468.886 177.205 468.004 176.611 466.024 176.269C463.594 175.855 462.496 174.991 462.496 173.569C462.496 171.985 463.846 171.013 466.024 171.013C468.22 171.013 469.606 172.057 469.75 173.839H468.706C468.598 172.615 467.644 171.949 466.024 171.949C464.476 171.949 463.54 172.579 463.54 173.587C463.54 174.505 464.314 175.009 466.384 175.405C468.742 175.855 469.912 176.791 469.912 178.195C469.912 179.761 468.49 180.787 466.24 180.787ZM476.604 180.787C474.21 180.787 472.734 179.077 472.734 176.395V171.247H473.778V176.305C473.778 178.429 474.912 179.779 476.748 179.779C478.674 179.779 480.006 178.267 480.006 176.053V171.247H481.05V180.553H480.186L480.078 178.735C479.358 180.085 478.062 180.787 476.604 180.787ZM484.762 180.553V171.247H485.644L485.752 173.335C486.382 171.931 487.444 171.247 489.172 171.247H489.946V172.219H489.136C487.138 172.219 485.806 173.443 485.806 176.269V180.553H484.762ZM494.727 180.697C492.567 180.697 491.217 179.635 491.217 177.925C491.217 176.269 492.477 175.225 494.385 175.225H498.489V174.559C498.489 173.011 497.355 171.985 495.627 171.985C494.223 171.985 493.125 172.705 492.747 173.821H491.685C492.135 172.093 493.629 171.013 495.609 171.013C497.931 171.013 499.533 172.435 499.533 174.505V180.553H498.669L498.561 178.951C497.751 180.067 496.383 180.697 494.727 180.697ZM492.261 177.907C492.261 179.041 493.215 179.761 494.763 179.761C496.923 179.761 498.507 178.411 498.507 176.539V176.143H494.421C493.143 176.143 492.261 176.845 492.261 177.907ZM319.058 206.787C316.7 206.787 315.206 205.599 315.134 203.745H316.16C316.268 205.059 317.294 205.833 319.076 205.833C320.714 205.833 321.704 205.203 321.704 204.177C321.704 203.205 320.822 202.611 318.842 202.269C316.412 201.855 315.314 200.991 315.314 199.569C315.314 197.985 316.664 197.013 318.842 197.013C321.038 197.013 322.424 198.057 322.568 199.839H321.524C321.416 198.615 320.462 197.949 318.842 197.949C317.294 197.949 316.358 198.579 316.358 199.587C316.358 200.505 317.132 201.009 319.202 201.405C321.56 201.855 322.73 202.791 322.73 204.195C322.73 205.761 321.308 206.787 319.058 206.787ZM330.718 206.787C329.008 206.787 327.622 206.013 326.794 204.789V210.153H325.75V197.247H326.632L326.74 199.101C327.55 197.805 328.972 197.013 330.718 197.013C333.544 197.013 335.488 199.065 335.488 201.891C335.488 204.717 333.544 206.787 330.718 206.787ZM326.758 201.891C326.758 204.177 328.324 205.779 330.61 205.779C332.896 205.779 334.444 204.177 334.444 201.891C334.444 199.623 332.896 198.021 330.61 198.021C328.324 198.021 326.758 199.623 326.758 201.891ZM342.331 206.787C339.505 206.787 337.579 204.789 337.579 201.891C337.579 199.011 339.523 197.013 342.349 197.013C345.283 197.013 347.173 199.173 347.101 202.323H338.641C338.821 204.429 340.261 205.797 342.331 205.797C343.843 205.797 345.049 205.095 345.661 203.889L346.831 203.907C346.111 205.689 344.419 206.787 342.331 206.787ZM338.641 201.405H346.075C345.823 199.299 344.383 198.003 342.349 198.003C340.279 198.003 338.821 199.353 338.641 201.405ZM353.898 206.787C351.108 206.787 349.146 204.753 349.146 201.891C349.146 199.029 351.108 197.013 353.898 197.013C356.112 197.013 357.93 198.327 358.47 200.343H357.408C356.796 198.867 355.5 198.021 353.898 198.021C351.702 198.021 350.19 199.605 350.19 201.891C350.19 204.195 351.702 205.779 353.898 205.779C355.608 205.779 356.94 204.825 357.462 203.295H358.56C357.93 205.473 356.184 206.787 353.898 206.787ZM361.399 206.553V197.247H362.443V206.553H361.399ZM360.967 194.601C360.967 194.079 361.345 193.665 361.921 193.665C362.497 193.665 362.875 194.079 362.875 194.601C362.875 195.141 362.497 195.555 361.921 195.555C361.345 195.555 360.967 195.141 360.967 194.601ZM373.957 206.553V198.201H368.089V206.553H367.045V198.201H364.921V197.247H367.045V196.167C367.045 194.061 368.107 192.999 370.213 192.999H371.563V193.989H370.303C368.755 193.989 368.089 194.655 368.089 196.239V197.247H375.001V206.553H373.957ZM373.507 194.601C373.507 194.079 373.903 193.665 374.479 193.665C375.037 193.665 375.433 194.079 375.433 194.601C375.433 195.141 375.037 195.555 374.479 195.555C373.903 195.555 373.507 195.141 373.507 194.601ZM382.655 206.787C379.865 206.787 377.903 204.753 377.903 201.891C377.903 199.029 379.865 197.013 382.655 197.013C384.869 197.013 386.687 198.327 387.227 200.343H386.165C385.553 198.867 384.257 198.021 382.655 198.021C380.459 198.021 378.947 199.605 378.947 201.891C378.947 204.195 380.459 205.779 382.655 205.779C384.365 205.779 385.697 204.825 386.219 203.295H387.317C386.687 205.473 384.941 206.787 382.655 206.787ZM392.95 206.697C390.79 206.697 389.44 205.635 389.44 203.925C389.44 202.269 390.7 201.225 392.608 201.225H396.712V200.559C396.712 199.011 395.578 197.985 393.85 197.985C392.446 197.985 391.348 198.705 390.97 199.821H389.908C390.358 198.093 391.852 197.013 393.832 197.013C396.154 197.013 397.756 198.435 397.756 200.505V206.553H396.892L396.784 204.951C395.974 206.067 394.606 206.697 392.95 206.697ZM390.484 203.907C390.484 205.041 391.438 205.761 392.986 205.761C395.146 205.761 396.73 204.411 396.73 202.539V202.143H392.644C391.366 202.143 390.484 202.845 390.484 203.907ZM401.266 206.553V197.247H402.148L402.238 198.759C402.886 197.625 404.02 197.013 405.46 197.013C407.08 197.013 408.322 197.823 408.862 199.245C409.492 197.823 410.77 197.013 412.408 197.013C414.748 197.013 416.26 198.615 416.26 201.207V206.553H415.216V201.369C415.216 199.299 414.064 198.021 412.282 198.021C410.464 198.021 409.276 199.335 409.276 201.441V206.553H408.232V201.369C408.232 199.299 407.098 198.021 405.316 198.021C403.498 198.021 402.31 199.335 402.31 201.441V206.553H401.266ZM423.7 206.787C420.874 206.787 418.948 204.789 418.948 201.891C418.948 199.011 420.892 197.013 423.718 197.013C426.652 197.013 428.542 199.173 428.47 202.323H420.01C420.19 204.429 421.63 205.797 423.7 205.797C425.212 205.797 426.418 205.095 427.03 203.889L428.2 203.907C427.48 205.689 425.788 206.787 423.7 206.787ZM420.01 201.405H427.444C427.192 199.299 425.752 198.003 423.718 198.003C421.648 198.003 420.19 199.353 420.01 201.405ZM431.325 206.553V197.247H432.207L432.297 199.047C433.035 197.715 434.331 197.013 435.825 197.013C438.255 197.013 439.749 198.723 439.749 201.405V206.553H438.705V201.495C438.705 199.353 437.553 198.021 435.699 198.021C433.737 198.021 432.369 199.515 432.369 201.729V206.553H431.325ZM446.741 206.553C444.761 206.553 443.699 205.437 443.699 203.331V198.201H441.665V197.247H442.853C443.555 197.247 443.753 197.067 443.825 196.383L443.915 194.961H444.743V197.247H447.965V198.201H444.743V203.295C444.743 204.825 445.373 205.545 446.777 205.545H448.091V206.553H446.741ZM454.374 206.787C451.548 206.787 449.622 204.789 449.622 201.891C449.622 199.011 451.566 197.013 454.392 197.013C457.326 197.013 459.216 199.173 459.144 202.323H450.684C450.864 204.429 452.304 205.797 454.374 205.797C455.886 205.797 457.092 205.095 457.704 203.889L458.874 203.907C458.154 205.689 456.462 206.787 454.374 206.787ZM450.684 201.405H458.118C457.866 199.299 456.426 198.003 454.392 198.003C452.322 198.003 450.864 199.353 450.684 201.405ZM471.361 206.787C469.651 206.787 468.265 206.013 467.437 204.789V210.153H466.393V197.247H467.275L467.383 199.101C468.193 197.805 469.615 197.013 471.361 197.013C474.187 197.013 476.131 199.065 476.131 201.891C476.131 204.717 474.187 206.787 471.361 206.787ZM467.401 201.891C467.401 204.177 468.967 205.779 471.253 205.779C473.539 205.779 475.087 204.177 475.087 201.891C475.087 199.623 473.539 198.021 471.253 198.021C468.967 198.021 467.401 199.623 467.401 201.891ZM482.974 206.787C480.148 206.787 478.222 204.789 478.222 201.891C478.222 199.011 480.166 197.013 482.992 197.013C485.926 197.013 487.816 199.173 487.744 202.323H479.284C479.464 204.429 480.904 205.797 482.974 205.797C484.486 205.797 485.692 205.095 486.304 203.889L487.474 203.907C486.754 205.689 485.062 206.787 482.974 206.787ZM479.284 201.405H486.718C486.466 199.299 485.026 198.003 482.992 198.003C480.922 198.003 479.464 199.353 479.284 201.405ZM490.598 206.553V197.247H491.48L491.588 199.335C492.218 197.931 493.28 197.247 495.008 197.247H495.782V198.219H494.972C492.974 198.219 491.642 199.443 491.642 202.269V206.553H490.598ZM315.854 232.553V219.233H316.898V232.553H315.854ZM320.258 224.327L320.222 219.953H321.212L321.176 224.327H320.258ZM328.227 232.787C325.833 232.787 324.357 231.077 324.357 228.395V223.247H325.401V228.305C325.401 230.429 326.535 231.779 328.371 231.779C330.297 231.779 331.629 230.267 331.629 228.053V223.247H332.673V232.553H331.809L331.701 230.735C330.981 232.085 329.685 232.787 328.227 232.787ZM340.165 232.553C338.185 232.553 337.123 231.437 337.123 229.331V224.201H335.089V223.247H336.277C336.979 223.247 337.177 223.067 337.249 222.383L337.339 220.961H338.167V223.247H341.389V224.201H338.167V229.295C338.167 230.825 338.797 231.545 340.201 231.545H341.515V232.553H340.165ZM347.798 232.787C344.972 232.787 343.046 230.789 343.046 227.891C343.046 225.011 344.99 223.013 347.816 223.013C350.75 223.013 352.64 225.173 352.568 228.323H344.108C344.288 230.429 345.728 231.797 347.798 231.797C349.31 231.797 350.516 231.095 351.128 229.889L352.298 229.907C351.578 231.689 349.886 232.787 347.798 232.787ZM344.108 227.405H351.542C351.29 225.299 349.85 224.003 347.816 224.003C345.746 224.003 344.288 225.353 344.108 227.405ZM355.422 232.553V223.247H356.304L356.394 225.047C357.132 223.715 358.428 223.013 359.922 223.013C362.352 223.013 363.846 224.723 363.846 227.405V232.553H362.802V227.495C362.802 225.353 361.65 224.021 359.796 224.021C357.834 224.021 356.466 225.515 356.466 227.729V232.553H355.422ZM370.839 232.553C368.859 232.553 367.797 231.437 367.797 229.331V224.201H365.763V223.247H366.951C367.653 223.247 367.851 223.067 367.923 222.383L368.013 220.961H368.841V223.247H372.063V224.201H368.841V229.295C368.841 230.825 369.471 231.545 370.875 231.545H372.189V232.553H370.839ZM378.472 232.787C375.646 232.787 373.72 230.789 373.72 227.891C373.72 225.011 375.664 223.013 378.49 223.013C381.424 223.013 383.314 225.173 383.242 228.323H374.782C374.962 230.429 376.402 231.797 378.472 231.797C379.984 231.797 381.19 231.095 381.802 229.889L382.972 229.907C382.252 231.689 380.56 232.787 378.472 232.787ZM374.782 227.405H382.216C381.964 225.299 380.524 224.003 378.49 224.003C376.42 224.003 374.962 225.353 374.782 227.405Z" fill="black"/>
<path d="M78.8504 88V75.4H83.5124C86.0504 75.4 87.7064 76.93 87.7064 79.324C87.7064 81.412 86.4644 82.834 84.4844 83.176L87.9044 88H86.5904L83.2064 83.266H79.9484V88H78.8504ZM79.9484 82.222H83.4044C85.4024 82.222 86.5904 81.124 86.5904 79.324C86.5904 77.542 85.4024 76.444 83.4044 76.444H79.9484V82.222ZM93.3638 88.144C91.2038 88.144 89.8538 87.082 89.8538 85.372C89.8538 83.716 91.1138 82.672 93.0218 82.672H97.1258V82.006C97.1258 80.458 95.9918 79.432 94.2638 79.432C92.8598 79.432 91.7618 80.152 91.3838 81.268H90.3218C90.7718 79.54 92.2658 78.46 94.2458 78.46C96.5678 78.46 98.1698 79.882 98.1698 81.952V88H97.3058L97.1978 86.398C96.3878 87.514 95.0198 88.144 93.3638 88.144ZM90.8978 85.354C90.8978 86.488 91.8518 87.208 93.3998 87.208C95.5598 87.208 97.1438 85.858 97.1438 83.986V83.59H93.0578C91.7798 83.59 90.8978 84.292 90.8978 85.354ZM105.622 88.234C102.832 88.234 100.87 86.2 100.87 83.338C100.87 80.476 102.832 78.46 105.622 78.46C107.836 78.46 109.654 79.774 110.194 81.79H109.132C108.52 80.314 107.224 79.468 105.622 79.468C103.426 79.468 101.914 81.052 101.914 83.338C101.914 85.642 103.426 87.226 105.622 87.226C107.332 87.226 108.664 86.272 109.186 84.742H110.284C109.654 86.92 107.908 88.234 105.622 88.234ZM117.066 88.234C114.276 88.234 112.314 86.2 112.314 83.338C112.314 80.476 114.276 78.46 117.066 78.46C119.28 78.46 121.098 79.774 121.638 81.79H120.576C119.964 80.314 118.668 79.468 117.066 79.468C114.87 79.468 113.358 81.052 113.358 83.338C113.358 85.642 114.87 87.226 117.066 87.226C118.776 87.226 120.108 86.272 120.63 84.742H121.728C121.098 86.92 119.352 88.234 117.066 88.234ZM128.653 88.234C125.773 88.234 123.757 86.218 123.757 83.338C123.757 80.476 125.773 78.46 128.653 78.46C131.515 78.46 133.531 80.476 133.531 83.338C133.531 86.218 131.515 88.234 128.653 88.234ZM124.801 83.338C124.801 85.642 126.367 87.226 128.653 87.226C130.921 87.226 132.487 85.642 132.487 83.338C132.487 81.052 130.921 79.468 128.653 79.468C126.367 79.468 124.801 81.052 124.801 83.338ZM136.432 88V74.68H137.476V88H136.432ZM144.958 88C142.978 88 141.916 86.884 141.916 84.778V79.648H139.882V78.694H141.07C141.772 78.694 141.97 78.514 142.042 77.83L142.132 76.408H142.96V78.694H146.182V79.648H142.96V84.742C142.96 86.272 143.59 86.992 144.994 86.992H146.308V88H144.958ZM151.706 88.144C149.546 88.144 148.196 87.082 148.196 85.372C148.196 83.716 149.456 82.672 151.364 82.672H155.468V82.006C155.468 80.458 154.334 79.432 152.606 79.432C151.202 79.432 150.104 80.152 149.726 81.268H148.664C149.114 79.54 150.608 78.46 152.588 78.46C154.91 78.46 156.512 79.882 156.512 81.952V88H155.648L155.54 86.398C154.73 87.514 153.362 88.144 151.706 88.144ZM149.24 85.354C149.24 86.488 150.194 87.208 151.742 87.208C153.902 87.208 155.486 85.858 155.486 83.986V83.59H151.4C150.122 83.59 149.24 84.292 149.24 85.354ZM168.377 88.234C165.569 88.234 163.607 86.164 163.607 83.338C163.607 80.512 165.569 78.46 168.377 78.46C170.087 78.46 171.473 79.216 172.301 80.422V74.68H173.345V88H172.48L172.355 86.164C171.545 87.442 170.123 88.234 168.377 88.234ZM164.651 83.338C164.651 85.624 166.217 87.226 168.503 87.226C170.771 87.226 172.337 85.624 172.337 83.338C172.337 81.07 170.771 79.468 168.503 79.468C166.217 79.468 164.651 81.07 164.651 83.338ZM177.055 88V78.694H178.099V88H177.055ZM176.623 76.048C176.623 75.526 177.001 75.112 177.577 75.112C178.153 75.112 178.531 75.526 178.531 76.048C178.531 76.588 178.153 77.002 177.577 77.002C177.001 77.002 176.623 76.588 176.623 76.048ZM190.156 88.234C187.348 88.234 185.386 86.164 185.386 83.338C185.386 80.512 187.348 78.46 190.156 78.46C191.866 78.46 193.252 79.216 194.08 80.422V74.68H195.124V88H194.26L194.134 86.164C193.324 87.442 191.902 88.234 190.156 88.234ZM186.43 83.338C186.43 85.624 187.996 87.226 190.282 87.226C192.55 87.226 194.116 85.624 194.116 83.338C194.116 81.07 192.55 79.468 190.282 79.468C187.996 79.468 186.43 81.07 186.43 83.338ZM201.75 88.144C199.59 88.144 198.24 87.082 198.24 85.372C198.24 83.716 199.5 82.672 201.408 82.672H205.512V82.006C205.512 80.458 204.378 79.432 202.65 79.432C201.246 79.432 200.148 80.152 199.77 81.268H198.708C199.158 79.54 200.652 78.46 202.632 78.46C204.954 78.46 206.556 79.882 206.556 81.952V88H205.692L205.584 86.398C204.774 87.514 203.406 88.144 201.75 88.144ZM199.284 85.354C199.284 86.488 200.238 87.208 201.786 87.208C203.946 87.208 205.53 85.858 205.53 83.986V83.59H201.444C200.166 83.59 199.284 84.292 199.284 85.354ZM213.548 88C211.568 88 210.506 86.884 210.506 84.778V79.648H208.472V78.694H209.66C210.362 78.694 210.56 78.514 210.632 77.83L210.722 76.408H211.55V78.694H214.772V79.648H211.55V84.742C211.55 86.272 212.18 86.992 213.584 86.992H214.898V88H213.548ZM217.696 88V78.694H218.74V88H217.696ZM217.264 76.048C217.264 75.526 217.642 75.112 218.218 75.112C218.794 75.112 219.172 75.526 219.172 76.048C219.172 76.588 218.794 77.002 218.218 77.002C217.642 77.002 217.264 76.588 217.264 76.048ZM230.796 88.234C227.988 88.234 226.026 86.164 226.026 83.338C226.026 80.512 227.988 78.46 230.796 78.46C232.506 78.46 233.892 79.216 234.72 80.422V74.68H235.764V88H234.9L234.774 86.164C233.964 87.442 232.542 88.234 230.796 88.234ZM227.07 83.338C227.07 85.624 228.636 87.226 230.922 87.226C233.19 87.226 234.756 85.624 234.756 83.338C234.756 81.07 233.19 79.468 230.922 79.468C228.636 79.468 227.07 81.07 227.07 83.338ZM243.147 88.234C240.753 88.234 239.277 86.524 239.277 83.842V78.694H240.321V83.752C240.321 85.876 241.455 87.226 243.291 87.226C245.217 87.226 246.549 85.714 246.549 83.5V78.694H247.593V88H246.729L246.621 86.182C245.901 87.532 244.605 88.234 243.147 88.234ZM251.305 88V78.694H252.187L252.295 80.782C252.925 79.378 253.987 78.694 255.715 78.694H256.489V79.666H255.679C253.681 79.666 252.349 80.89 252.349 83.716V88H251.305ZM261.27 88.144C259.11 88.144 257.76 87.082 257.76 85.372C257.76 83.716 259.02 82.672 260.928 82.672H265.032V82.006C265.032 80.458 263.898 79.432 262.17 79.432C260.766 79.432 259.668 80.152 259.29 81.268H258.228C258.678 79.54 260.172 78.46 262.152 78.46C264.474 78.46 266.076 79.882 266.076 81.952V88H265.212L265.104 86.398C264.294 87.514 262.926 88.144 261.27 88.144ZM258.804 85.354C258.804 86.488 259.758 87.208 261.306 87.208C263.466 87.208 265.05 85.858 265.05 83.986V83.59H260.964C259.686 83.59 258.804 84.292 258.804 85.354ZM269.586 88V78.694H270.468L270.558 80.494C271.296 79.162 272.592 78.46 274.086 78.46C276.516 78.46 278.01 80.17 278.01 82.852V88H276.966V82.942C276.966 80.8 275.814 79.468 273.96 79.468C271.998 79.468 270.63 80.962 270.63 83.176V88H269.586ZM285.003 88C283.023 88 281.961 86.884 281.961 84.778V79.648H279.927V78.694H281.115C281.817 78.694 282.015 78.514 282.087 77.83L282.177 76.408H283.005V78.694H286.227V79.648H283.005V84.742C283.005 86.272 283.635 86.992 285.039 86.992H286.353V88H285.003ZM292.636 88.234C289.81 88.234 287.884 86.236 287.884 83.338C287.884 80.458 289.828 78.46 292.654 78.46C295.588 78.46 297.478 80.62 297.406 83.77H288.946C289.126 85.876 290.566 87.244 292.636 87.244C294.148 87.244 295.354 86.542 295.966 85.336L297.136 85.354C296.416 87.136 294.724 88.234 292.636 88.234ZM288.946 82.852H296.38C296.128 80.746 294.688 79.45 292.654 79.45C290.584 79.45 289.126 80.8 288.946 82.852ZM77.634 114C75.654 114 74.592 112.884 74.592 110.778V105.648H72.558V104.694H73.746C74.448 104.694 74.646 104.514 74.718 103.83L74.808 102.408H75.636V104.694H78.858V105.648H75.636V110.742C75.636 112.272 76.266 112.992 77.67 112.992H78.984V114H77.634ZM81.7817 114V104.694H82.6637L82.7717 106.782C83.4017 105.378 84.4637 104.694 86.1917 104.694H86.9657V105.666H86.1557C84.1577 105.666 82.8257 106.89 82.8257 109.716V114H81.7817ZM92.8077 114.234C89.9817 114.234 88.0557 112.236 88.0557 109.338C88.0557 106.458 89.9997 104.46 92.8257 104.46C95.7597 104.46 97.6497 106.62 97.5777 109.77H89.1177C89.2977 111.876 90.7377 113.244 92.8077 113.244C94.3197 113.244 95.5257 112.542 96.1377 111.336L97.3077 111.354C96.5877 113.136 94.8957 114.234 92.8077 114.234ZM89.1177 108.852H96.5517C96.2997 106.746 94.8597 105.45 92.8257 105.45C90.7557 105.45 89.2977 106.8 89.1177 108.852ZM105.024 103.614C105.024 101.49 106.068 100.446 108.138 100.446H109.596V101.436H108.228C106.716 101.436 106.068 102.102 106.068 103.686V104.694H109.506V105.648H106.068V114H105.024V105.648H102.9V104.694H105.024V103.614ZM114.088 114.144C111.928 114.144 110.578 113.082 110.578 111.372C110.578 109.716 111.838 108.672 113.746 108.672H117.85V108.006C117.85 106.458 116.716 105.432 114.988 105.432C113.584 105.432 112.486 106.152 112.108 107.268H111.046C111.496 105.54 112.99 104.46 114.97 104.46C117.292 104.46 118.894 105.882 118.894 107.952V114H118.03L117.922 112.398C117.112 113.514 115.744 114.144 114.088 114.144ZM111.622 111.354C111.622 112.488 112.576 113.208 114.124 113.208C116.284 113.208 117.868 111.858 117.868 109.986V109.59H113.782C112.504 109.59 111.622 110.292 111.622 111.354ZM125.609 114.234C123.251 114.234 121.757 113.046 121.685 111.192H122.711C122.819 112.506 123.845 113.28 125.627 113.28C127.265 113.28 128.255 112.65 128.255 111.624C128.255 110.652 127.373 110.058 125.393 109.716C122.963 109.302 121.865 108.438 121.865 107.016C121.865 105.432 123.215 104.46 125.393 104.46C127.589 104.46 128.975 105.504 129.119 107.286H128.075C127.967 106.062 127.013 105.396 125.393 105.396C123.845 105.396 122.909 106.026 122.909 107.034C122.909 107.952 123.683 108.456 125.753 108.852C128.111 109.302 129.281 110.238 129.281 111.642C129.281 113.208 127.859 114.234 125.609 114.234ZM132.301 114V104.694H133.345V114H132.301ZM131.869 102.048C131.869 101.526 132.247 101.112 132.823 101.112C133.399 101.112 133.777 101.526 133.777 102.048C133.777 102.588 133.399 103.002 132.823 103.002C132.247 103.002 131.869 102.588 131.869 102.048ZM145.402 114.234C142.594 114.234 140.632 112.164 140.632 109.338C140.632 106.512 142.594 104.46 145.402 104.46C147.112 104.46 148.498 105.216 149.326 106.422V100.68H150.37V114H149.506L149.38 112.164C148.57 113.442 147.148 114.234 145.402 114.234ZM141.676 109.338C141.676 111.624 143.242 113.226 145.528 113.226C147.796 113.226 149.362 111.624 149.362 109.338C149.362 107.07 147.796 105.468 145.528 105.468C143.242 105.468 141.676 107.07 141.676 109.338ZM158.023 114.234C155.197 114.234 153.271 112.236 153.271 109.338C153.271 106.458 155.215 104.46 158.041 104.46C160.975 104.46 162.865 106.62 162.793 109.77H154.333C154.513 111.876 155.953 113.244 158.023 113.244C159.535 113.244 160.741 112.542 161.353 111.336L162.523 111.354C161.803 113.136 160.111 114.234 158.023 114.234ZM154.333 108.852H161.767C161.515 106.746 160.075 105.45 158.041 105.45C155.971 105.45 154.513 106.8 154.333 108.852ZM165.647 114V100.68H166.691V114H165.647ZM170.393 114V100.68H171.437V114H170.393ZM174.797 105.774L174.761 101.4H175.751L175.715 105.774H174.797ZM182.766 114.234C180.372 114.234 178.896 112.524 178.896 109.842V104.694H179.94V109.752C179.94 111.876 181.074 113.226 182.91 113.226C184.836 113.226 186.168 111.714 186.168 109.5V104.694H187.212V114H186.348L186.24 112.182C185.52 113.532 184.224 114.234 182.766 114.234ZM194.704 114C192.724 114 191.662 112.884 191.662 110.778V105.648H189.628V104.694H190.816C191.518 104.694 191.716 104.514 191.788 103.83L191.878 102.408H192.706V104.694H195.928V105.648H192.706V110.742C192.706 112.272 193.336 112.992 194.74 112.992H196.054V114H194.704ZM202.337 114.234C199.511 114.234 197.585 112.236 197.585 109.338C197.585 106.458 199.529 104.46 202.355 104.46C205.289 104.46 207.179 106.62 207.107 109.77H198.647C198.827 111.876 200.267 113.244 202.337 113.244C203.849 113.244 205.055 112.542 205.667 111.336L206.837 111.354C206.117 113.136 204.425 114.234 202.337 114.234ZM198.647 108.852H206.081C205.829 106.746 204.389 105.45 202.355 105.45C200.285 105.45 198.827 106.8 198.647 108.852ZM209.961 114V104.694H210.843L210.933 106.494C211.671 105.162 212.967 104.46 214.461 104.46C216.891 104.46 218.385 106.17 218.385 108.852V114H217.341V108.942C217.341 106.8 216.189 105.468 214.335 105.468C212.373 105.468 211.005 106.962 211.005 109.176V114H209.961ZM225.378 114C223.398 114 222.336 112.884 222.336 110.778V105.648H220.302V104.694H221.49C222.192 104.694 222.39 104.514 222.462 103.83L222.552 102.408H223.38V104.694H226.602V105.648H223.38V110.742C223.38 112.272 224.01 112.992 225.414 112.992H226.728V114H225.378ZM233.011 114.234C230.185 114.234 228.259 112.236 228.259 109.338C228.259 106.458 230.203 104.46 233.029 104.46C235.963 104.46 237.853 106.62 237.781 109.77H229.321C229.501 111.876 230.941 113.244 233.011 113.244C234.523 113.244 235.729 112.542 236.341 111.336L237.511 111.354C236.791 113.136 235.099 114.234 233.011 114.234ZM229.321 108.852H236.755C236.503 106.746 235.063 105.45 233.029 105.45C230.959 105.45 229.501 106.8 229.321 108.852Z" fill="black"/>
<defs>
<filter id="filter0_d_924_45213" x="465.156" y="0" width="356.844" height="292.807" filterUnits="userSpaceOnUse" color-interpolation-filters="sRGB">
<feFlood flood-opacity="0" result="BackgroundImageFix"/>
<feColorMatrix in="SourceAlpha" type="matrix" values="0 0 0 0 0 0 0 0 0 0 0 0 0 0 0 0 0 0 127 0" result="hardAlpha"/>
<feMorphology radius="5" operator="dilate" in="SourceAlpha" result="effect1_dropShadow_924_45213"/>
<feOffset dy="4"/>
<feGaussianBlur stdDeviation="10"/>
<feComposite in2="hardAlpha" operator="out"/>
<feColorMatrix type="matrix" values="0 0 0 0 0 0 0 0 0 0 0 0 0 0 0 0 0 0 0.1 0"/>
<feBlend mode="normal" in2="BackgroundImageFix" result="effect1_dropShadow_924_45213"/>
<feBlend mode="normal" in="SourceGraphic" in2="effect1_dropShadow_924_45213" result="shape"/>
</filter>
<filter id="filter1_d_924_45213" x="0" y="0" width="356.844" height="292.807" filterUnits="userSpaceOnUse" color-interpolation-filters="sRGB">
<feFlood flood-opacity="0" result="BackgroundImageFix"/>
<feColorMatrix in="SourceAlpha" type="matrix" values="0 0 0 0 0 0 0 0 0 0 0 0 0 0 0 0 0 0 127 0" result="hardAlpha"/>
<feMorphology radius="5" operator="dilate" in="SourceAlpha" result="effect1_dropShadow_924_45213"/>
<feOffset dy="4"/>
<feGaussianBlur stdDeviation="10"/>
<feComposite in2="hardAlpha" operator="out"/>
<feColorMatrix type="matrix" values="0 0 0 0 0 0 0 0 0 0 0 0 0 0 0 0 0 0 0.1 0"/>
<feBlend mode="normal" in2="BackgroundImageFix" result="effect1_dropShadow_924_45213"/>
<feBlend mode="normal" in="SourceGraphic" in2="effect1_dropShadow_924_45213" result="shape"/>
</filter>
<filter id="filter2_d_924_45213" x="209.008" y="104.061" width="400.422" height="327.492" filterUnits="userSpaceOnUse" color-interpolation-filters="sRGB">
<feFlood flood-opacity="0" result="BackgroundImageFix"/>
<feColorMatrix in="SourceAlpha" type="matrix" values="0 0 0 0 0 0 0 0 0 0 0 0 0 0 0 0 0 0 127 0" result="hardAlpha"/>
<feMorphology radius="5" operator="dilate" in="SourceAlpha" result="effect1_dropShadow_924_45213"/>
<feOffset dy="4"/>
<feGaussianBlur stdDeviation="10"/>
<feComposite in2="hardAlpha" operator="out"/>
<feColorMatrix type="matrix" values="0 0 0 0 0 0 0 0 0 0 0 0 0 0 0 0 0 0 0.1 0"/>
<feBlend mode="normal" in2="BackgroundImageFix" result="effect1_dropShadow_924_45213"/>
<feBlend mode="normal" in="SourceGraphic" in2="effect1_dropShadow_924_45213" result="shape"/>
</filter>
<clipPath id="clip0_924_45213">
<rect width="106.728" height="106.728" fill="white" transform="translate(105.938 176.355) rotate(-54.4833)"/>
</clipPath>
<clipPath id="clip1_924_45213">
<rect width="106.728" height="106.728" fill="white" transform="translate(359.414 250.465)"/>
</clipPath>
</defs>
</svg>
