<svg width="822" height="420" viewBox="0 0 822 420" fill="none" xmlns="http://www.w3.org/2000/svg">
<g filter="url(#filter0_d_924_45285)">
<ellipse cx="643.578" cy="142.403" rx="153.422" ry="121.403" fill="#F6F5FF"/>
</g>
<path d="M604 197.323V213.999H620.676L669.86 164.815L653.184 148.139L604 197.323ZM616.985 205.105H612.894V201.014L653.184 160.724L657.275 164.815L616.985 205.105ZM682.756 145.649L672.35 135.243C671.461 134.353 670.349 133.953 669.193 133.953C668.037 133.953 666.925 134.398 666.08 135.243L657.942 143.381L674.618 160.057L682.756 151.919C684.491 150.185 684.491 147.383 682.756 145.649Z" fill="black" fill-opacity="0.54"/>
<g filter="url(#filter1_d_924_45285)">
<ellipse cx="178.422" cy="142.403" rx="153.422" ry="121.403" fill="#F6F5FF"/>
</g>
<g clip-path="url(#clip0_924_45285)">
<path d="M151.417 143.252L140.558 135.502L144.703 160.314L169.515 156.17L158.656 148.419C167.207 136.438 183.894 133.651 195.875 142.202C199.53 144.811 202.359 148.196 204.201 151.969L213.258 150.457C210.821 144.456 206.724 139.019 201.042 134.963C185.043 123.544 162.836 127.254 151.417 143.252ZM202.092 179.42C193.541 191.401 176.854 194.189 164.873 185.638C161.218 183.028 158.389 179.643 156.547 175.87L147.49 177.383C149.927 183.384 154.024 188.821 159.706 192.877C175.705 204.296 197.912 200.586 209.331 184.587L220.19 192.338L216.045 167.525L191.233 171.67L202.092 179.42Z" fill="black" fill-opacity="0.54"/>
</g>
<g filter="url(#filter2_d_924_45285)">
<ellipse cx="409.22" cy="263.807" rx="175.212" ry="138.747" fill="#F6F5FF"/>
</g>
<g clip-path="url(#clip1_924_45285)">
<path d="M390.543 291.152C399.126 291.152 406.108 284.171 406.108 275.588C406.108 267.005 399.126 260.023 390.543 260.023C381.96 260.023 374.979 267.005 374.979 275.588C374.979 284.171 381.96 291.152 390.543 291.152ZM390.543 268.917C394.234 268.917 397.214 271.897 397.214 275.588C397.214 279.279 394.234 282.258 390.543 282.258C386.852 282.258 383.873 279.279 383.873 275.588C383.873 271.897 386.852 268.917 390.543 268.917ZM390.765 313.387H371.732C376.135 311.164 383.739 308.94 390.543 308.94C391.032 308.94 391.566 308.985 392.055 308.985C393.567 305.739 396.191 303.07 399.348 300.936C396.102 300.358 393.033 300.046 390.543 300.046C380.137 300.046 359.414 305.249 359.414 315.611V322.282H390.543V315.611C390.543 314.855 390.632 314.099 390.765 313.387ZM423.896 302.27C415.713 302.27 399.437 306.761 399.437 315.611V322.282H448.354V315.611C448.354 306.761 432.078 302.27 423.896 302.27ZM429.277 294.176C432.656 292.264 435.013 288.662 435.013 284.482C435.013 278.345 430.033 273.364 423.896 273.364C417.759 273.364 412.778 278.345 412.778 284.482C412.778 288.662 415.135 292.264 418.515 294.176C420.116 295.066 421.939 295.599 423.896 295.599C425.852 295.599 427.676 295.066 429.277 294.176Z" fill="black" fill-opacity="0.54"/>
</g>
<path d="M564.454 89L559.396 76.4H560.566L564.976 87.488L566.866 82.7L569.386 76.4H570.538L565.498 89H564.454ZM575.891 89.234C573.011 89.234 570.995 87.218 570.995 84.338C570.995 81.476 573.011 79.46 575.891 79.46C578.753 79.46 580.769 81.476 580.769 84.338C580.769 87.218 578.753 89.234 575.891 89.234ZM572.039 84.338C572.039 86.642 573.605 88.226 575.891 88.226C578.159 88.226 579.725 86.642 579.725 84.338C579.725 82.052 578.159 80.468 575.891 80.468C573.605 80.468 572.039 82.052 572.039 84.338ZM583.67 89V75.68H584.714V89H583.67ZM588.417 89V75.68H589.461V89H588.417ZM596.367 89.234C594.009 89.234 592.515 88.046 592.443 86.192H593.469C593.577 87.506 594.603 88.28 596.385 88.28C598.023 88.28 599.013 87.65 599.013 86.624C599.013 85.652 598.131 85.058 596.151 84.716C593.721 84.302 592.623 83.438 592.623 82.016C592.623 80.432 593.973 79.46 596.151 79.46C598.347 79.46 599.733 80.504 599.877 82.286H598.833C598.725 81.062 597.771 80.396 596.151 80.396C594.603 80.396 593.667 81.026 593.667 82.034C593.667 82.952 594.441 83.456 596.511 83.852C598.869 84.302 600.039 85.238 600.039 86.642C600.039 88.208 598.617 89.234 596.367 89.234ZM606.575 89C604.595 89 603.533 87.884 603.533 85.778V80.648H601.499V79.694H602.687C603.389 79.694 603.587 79.514 603.659 78.83L603.749 77.408H604.577V79.694H607.799V80.648H604.577V85.742C604.577 87.272 605.207 87.992 606.611 87.992H607.925V89H606.575ZM613.323 89.144C611.163 89.144 609.813 88.082 609.813 86.372C609.813 84.716 611.073 83.672 612.981 83.672H617.085V83.006C617.085 81.458 615.951 80.432 614.223 80.432C612.819 80.432 611.721 81.152 611.343 82.268H610.281C610.731 80.54 612.225 79.46 614.205 79.46C616.527 79.46 618.129 80.882 618.129 82.952V89H617.265L617.157 87.398C616.347 88.514 614.979 89.144 613.323 89.144ZM610.857 86.354C610.857 87.488 611.811 88.208 613.359 88.208C615.519 88.208 617.103 86.858 617.103 84.986V84.59H613.017C611.739 84.59 610.857 85.292 610.857 86.354ZM611.541 77.048C611.541 76.526 611.919 76.148 612.459 76.148C612.999 76.148 613.377 76.526 613.377 77.048C613.377 77.588 612.999 77.966 612.459 77.966C611.919 77.966 611.541 77.588 611.541 77.048ZM615.033 77.048C615.033 76.526 615.411 76.148 615.951 76.148C616.491 76.148 616.869 76.526 616.869 77.048C616.869 77.588 616.491 77.966 615.951 77.966C615.411 77.966 615.033 77.588 615.033 77.048ZM621.639 89V79.694H622.521L622.611 81.494C623.349 80.162 624.645 79.46 626.139 79.46C628.569 79.46 630.063 81.17 630.063 83.852V89H629.019V83.942C629.019 81.8 627.867 80.468 626.013 80.468C624.051 80.468 622.683 81.962 622.683 84.176V89H621.639ZM637.535 89.234C634.727 89.234 632.765 87.164 632.765 84.338C632.765 81.512 634.727 79.46 637.535 79.46C639.245 79.46 640.631 80.216 641.459 81.422V75.68H642.503V89H641.639L641.513 87.164C640.703 88.442 639.281 89.234 637.535 89.234ZM633.809 84.338C633.809 86.624 635.375 88.226 637.661 88.226C639.929 88.226 641.495 86.624 641.495 84.338C641.495 82.07 639.929 80.468 637.661 80.468C635.375 80.468 633.809 82.07 633.809 84.338ZM646.213 89V79.694H647.257V89H646.213ZM645.781 77.048C645.781 76.526 646.159 76.112 646.735 76.112C647.311 76.112 647.689 76.526 647.689 77.048C647.689 77.588 647.311 78.002 646.735 78.002C646.159 78.002 645.781 77.588 645.781 77.048ZM655.045 92.834C652.759 92.834 651.067 91.628 650.707 89.738H651.769C652.075 91.034 653.335 91.844 655.045 91.844C657.187 91.844 658.555 90.584 658.555 88.586V87.074C657.727 88.208 656.395 88.892 654.811 88.892C652.093 88.892 650.149 86.912 650.149 84.176C650.149 81.44 652.093 79.46 654.811 79.46C656.449 79.46 657.799 80.18 658.627 81.368L658.717 79.694H659.599V88.622C659.599 91.124 657.763 92.834 655.045 92.834ZM651.193 84.176C651.193 86.354 652.723 87.866 654.919 87.866C657.097 87.866 658.627 86.354 658.627 84.176C658.627 81.998 657.097 80.468 654.919 80.468C652.723 80.468 651.193 81.998 651.193 84.176ZM565.822 115.234C564.112 115.234 562.726 114.46 561.898 113.236V118.6H560.854V105.694H561.736L561.844 107.548C562.654 106.252 564.076 105.46 565.822 105.46C568.648 105.46 570.592 107.512 570.592 110.338C570.592 113.164 568.648 115.234 565.822 115.234ZM561.862 110.338C561.862 112.624 563.428 114.226 565.714 114.226C568 114.226 569.548 112.624 569.548 110.338C569.548 108.07 568 106.468 565.714 106.468C563.428 106.468 561.862 108.07 561.862 110.338ZM577.435 115.234C574.609 115.234 572.683 113.236 572.683 110.338C572.683 107.458 574.627 105.46 577.453 105.46C580.387 105.46 582.277 107.62 582.205 110.77H573.745C573.925 112.876 575.365 114.244 577.435 114.244C578.947 114.244 580.153 113.542 580.765 112.336L581.935 112.354C581.215 114.136 579.523 115.234 577.435 115.234ZM573.745 109.852H581.179C580.927 107.746 579.487 106.45 577.453 106.45C575.383 106.45 573.925 107.8 573.745 109.852ZM585.059 115V105.694H585.941L586.049 107.782C586.679 106.378 587.741 105.694 589.469 105.694H590.243V106.666H589.433C587.435 106.666 586.103 107.89 586.103 110.716V115H585.059ZM595.54 115.234C593.182 115.234 591.688 114.046 591.616 112.192H592.642C592.75 113.506 593.776 114.28 595.558 114.28C597.196 114.28 598.186 113.65 598.186 112.624C598.186 111.652 597.304 111.058 595.324 110.716C592.894 110.302 591.796 109.438 591.796 108.016C591.796 106.432 593.146 105.46 595.324 105.46C597.52 105.46 598.906 106.504 599.05 108.286H598.006C597.898 107.062 596.944 106.396 595.324 106.396C593.776 106.396 592.84 107.026 592.84 108.034C592.84 108.952 593.614 109.456 595.684 109.852C598.042 110.302 599.212 111.238 599.212 112.642C599.212 114.208 597.79 115.234 595.54 115.234ZM606.319 115.234C603.439 115.234 601.423 113.218 601.423 110.338C601.423 107.476 603.439 105.46 606.319 105.46C609.181 105.46 611.197 107.476 611.197 110.338C611.197 113.218 609.181 115.234 606.319 115.234ZM602.467 110.338C602.467 112.642 604.033 114.226 606.319 114.226C608.587 114.226 610.153 112.642 610.153 110.338C610.153 108.052 608.587 106.468 606.319 106.468C604.033 106.468 602.467 108.052 602.467 110.338ZM614.098 115V105.694H614.98L615.07 107.494C615.808 106.162 617.104 105.46 618.598 105.46C621.028 105.46 622.522 107.17 622.522 109.852V115H621.478V109.942C621.478 107.8 620.326 106.468 618.472 106.468C616.51 106.468 615.142 107.962 615.142 110.176V115H614.098ZM628.95 115.144C626.79 115.144 625.44 114.082 625.44 112.372C625.44 110.716 626.7 109.672 628.608 109.672H632.712V109.006C632.712 107.458 631.578 106.432 629.85 106.432C628.446 106.432 627.348 107.152 626.97 108.268H625.908C626.358 106.54 627.852 105.46 629.832 105.46C632.154 105.46 633.756 106.882 633.756 108.952V115H632.892L632.784 113.398C631.974 114.514 630.606 115.144 628.95 115.144ZM626.484 112.354C626.484 113.488 627.438 114.208 628.986 114.208C631.146 114.208 632.73 112.858 632.73 110.986V110.59H628.644C627.366 110.59 626.484 111.292 626.484 112.354ZM637.266 115V101.68H638.31V115H637.266ZM642.012 115V105.694H643.056V115H642.012ZM641.58 103.048C641.58 102.526 641.958 102.112 642.534 102.112C643.11 102.112 643.488 102.526 643.488 103.048C643.488 103.588 643.11 104.002 642.534 104.002C641.958 104.002 641.58 103.588 641.58 103.048ZM649.962 115.234C647.604 115.234 646.11 114.046 646.038 112.192H647.064C647.172 113.506 648.198 114.28 649.98 114.28C651.618 114.28 652.608 113.65 652.608 112.624C652.608 111.652 651.726 111.058 649.746 110.716C647.316 110.302 646.218 109.438 646.218 108.016C646.218 106.432 647.568 105.46 649.746 105.46C651.942 105.46 653.328 106.504 653.472 108.286H652.428C652.32 107.062 651.366 106.396 649.746 106.396C648.198 106.396 647.262 107.026 647.262 108.034C647.262 108.952 648.036 109.456 650.106 109.852C652.464 110.302 653.634 111.238 653.634 112.642C653.634 114.208 652.212 115.234 649.962 115.234ZM656.655 115V105.694H657.699V115H656.655ZM656.223 103.048C656.223 102.526 656.601 102.112 657.177 102.112C657.753 102.112 658.131 102.526 658.131 103.048C658.131 103.588 657.753 104.002 657.177 104.002C656.601 104.002 656.223 103.588 656.223 103.048ZM665.343 115.234C662.517 115.234 660.591 113.236 660.591 110.338C660.591 107.458 662.535 105.46 665.361 105.46C668.295 105.46 670.185 107.62 670.113 110.77H661.653C661.833 112.876 663.273 114.244 665.343 114.244C666.855 114.244 668.061 113.542 668.673 112.336L669.843 112.354C669.123 114.136 667.431 115.234 665.343 115.234ZM661.653 109.852H669.087C668.835 107.746 667.395 106.45 665.361 106.45C663.291 106.45 661.833 107.8 661.653 109.852ZM672.967 115V105.694H673.849L673.957 107.782C674.587 106.378 675.649 105.694 677.377 105.694H678.151V106.666H677.341C675.343 106.666 674.011 107.89 674.011 110.716V115H672.967ZM684.552 115C682.572 115 681.51 113.884 681.51 111.778V106.648H679.476V105.694H680.664C681.366 105.694 681.564 105.514 681.636 104.83L681.726 103.408H682.554V105.694H685.776V106.648H682.554V111.742C682.554 113.272 683.184 113.992 684.588 113.992H685.902V115H684.552ZM697.1 115.234C694.706 115.234 693.23 113.524 693.23 110.842V105.694H694.274V110.752C694.274 112.876 695.408 114.226 697.244 114.226C699.17 114.226 700.502 112.714 700.502 110.5V105.694H701.546V115H700.682L700.574 113.182C699.854 114.532 698.558 115.234 697.1 115.234ZM705.258 115V105.694H706.14L706.23 107.494C706.968 106.162 708.264 105.46 709.758 105.46C712.188 105.46 713.682 107.17 713.682 109.852V115H712.638V109.942C712.638 107.8 711.486 106.468 709.632 106.468C707.67 106.468 706.302 107.962 706.302 110.176V115H705.258ZM721.154 115.234C718.346 115.234 716.384 113.164 716.384 110.338C716.384 107.512 718.346 105.46 721.154 105.46C722.864 105.46 724.25 106.216 725.078 107.422V101.68H726.122V115H725.258L725.132 113.164C724.322 114.442 722.9 115.234 721.154 115.234ZM717.428 110.338C717.428 112.624 718.994 114.226 721.28 114.226C723.548 114.226 725.114 112.624 725.114 110.338C725.114 108.07 723.548 106.468 721.28 106.468C718.994 106.468 717.428 108.07 717.428 110.338ZM563.77 141.144C561.61 141.144 560.26 140.082 560.26 138.372C560.26 136.716 561.52 135.672 563.428 135.672H567.532V135.006C567.532 133.458 566.398 132.432 564.67 132.432C563.266 132.432 562.168 133.152 561.79 134.268H560.728C561.178 132.54 562.672 131.46 564.652 131.46C566.974 131.46 568.576 132.882 568.576 134.952V141H567.712L567.604 139.398C566.794 140.514 565.426 141.144 563.77 141.144ZM561.304 138.354C561.304 139.488 562.258 140.208 563.806 140.208C565.966 140.208 567.55 138.858 567.55 136.986V136.59H563.464C562.186 136.59 561.304 137.292 561.304 138.354ZM572.086 141V131.694H572.968L573.058 133.494C573.796 132.162 575.092 131.46 576.586 131.46C579.016 131.46 580.51 133.17 580.51 135.852V141H579.466V135.942C579.466 133.8 578.314 132.468 576.46 132.468C574.498 132.468 573.13 133.962 573.13 136.176V141H572.086ZM588.99 141.234C587.28 141.234 585.894 140.46 585.066 139.236V144.6H584.022V131.694H584.904L585.012 133.548C585.822 132.252 587.244 131.46 588.99 131.46C591.816 131.46 593.76 133.512 593.76 136.338C593.76 139.164 591.816 141.234 588.99 141.234ZM585.03 136.338C585.03 138.624 586.596 140.226 588.882 140.226C591.168 140.226 592.716 138.624 592.716 136.338C592.716 134.07 591.168 132.468 588.882 132.468C586.596 132.468 585.03 134.07 585.03 136.338ZM599.454 141.144C597.294 141.144 595.944 140.082 595.944 138.372C595.944 136.716 597.204 135.672 599.112 135.672H603.216V135.006C603.216 133.458 602.082 132.432 600.354 132.432C598.95 132.432 597.852 133.152 597.474 134.268H596.412C596.862 132.54 598.356 131.46 600.336 131.46C602.658 131.46 604.26 132.882 604.26 134.952V141H603.396L603.288 139.398C602.478 140.514 601.11 141.144 599.454 141.144ZM596.988 138.354C596.988 139.488 597.942 140.208 599.49 140.208C601.65 140.208 603.234 138.858 603.234 136.986V136.59H599.148C597.87 136.59 596.988 137.292 596.988 138.354ZM610.974 141.234C608.616 141.234 607.122 140.046 607.05 138.192H608.076C608.184 139.506 609.21 140.28 610.992 140.28C612.63 140.28 613.62 139.65 613.62 138.624C613.62 137.652 612.738 137.058 610.758 136.716C608.328 136.302 607.23 135.438 607.23 134.016C607.23 132.432 608.58 131.46 610.758 131.46C612.954 131.46 614.34 132.504 614.484 134.286H613.44C613.332 133.062 612.378 132.396 610.758 132.396C609.21 132.396 608.274 133.026 608.274 134.034C608.274 134.952 609.048 135.456 611.118 135.852C613.476 136.302 614.646 137.238 614.646 138.642C614.646 140.208 613.224 141.234 610.974 141.234ZM620.871 141.234C618.513 141.234 617.019 140.046 616.947 138.192H617.973C618.081 139.506 619.107 140.28 620.889 140.28C622.527 140.28 623.517 139.65 623.517 138.624C623.517 137.652 622.635 137.058 620.655 136.716C618.225 136.302 617.127 135.438 617.127 134.016C617.127 132.432 618.477 131.46 620.655 131.46C622.851 131.46 624.237 132.504 624.381 134.286H623.337C623.229 133.062 622.275 132.396 620.655 132.396C619.107 132.396 618.171 133.026 618.171 134.034C618.171 134.952 618.945 135.456 621.015 135.852C623.373 136.302 624.543 137.238 624.543 138.642C624.543 140.208 623.121 141.234 620.871 141.234ZM632.531 141.234C630.785 141.234 629.363 140.424 628.553 139.146L628.445 141H627.563V127.68H628.607V133.458C629.435 132.216 630.821 131.46 632.531 131.46C635.357 131.46 637.301 133.512 637.301 136.338C637.301 139.164 635.357 141.234 632.531 141.234ZM628.571 136.338C628.571 138.624 630.137 140.226 632.423 140.226C634.709 140.226 636.257 138.624 636.257 136.338C636.257 134.07 634.709 132.468 632.423 132.468C630.137 132.468 628.571 134.07 628.571 136.338ZM642.995 141.144C640.835 141.144 639.485 140.082 639.485 138.372C639.485 136.716 640.745 135.672 642.653 135.672H646.757V135.006C646.757 133.458 645.623 132.432 643.895 132.432C642.491 132.432 641.393 133.152 641.015 134.268H639.953C640.403 132.54 641.897 131.46 643.877 131.46C646.199 131.46 647.801 132.882 647.801 134.952V141H646.937L646.829 139.398C646.019 140.514 644.651 141.144 642.995 141.144ZM640.529 138.354C640.529 139.488 641.483 140.208 643.031 140.208C645.191 140.208 646.775 138.858 646.775 136.986V136.59H642.689C641.411 136.59 640.529 137.292 640.529 138.354ZM651.311 141V131.694H652.193L652.301 133.782C652.931 132.378 653.993 131.694 655.721 131.694H656.495V132.666H655.685C653.687 132.666 652.355 133.89 652.355 136.716V141H651.311Z" fill="black"/>
<path d="M310.034 181V168.4H314.012C318.026 168.4 320.564 170.902 320.564 174.7C320.564 178.498 318.026 181 314.012 181H310.034ZM311.132 179.956H314.012C317.36 179.956 319.448 177.904 319.448 174.7C319.448 171.496 317.342 169.444 313.976 169.444H311.132V179.956ZM326.34 181.144C324.18 181.144 322.83 180.082 322.83 178.372C322.83 176.716 324.09 175.672 325.998 175.672H330.102V175.006C330.102 173.458 328.968 172.432 327.24 172.432C325.836 172.432 324.738 173.152 324.36 174.268H323.298C323.748 172.54 325.242 171.46 327.222 171.46C329.544 171.46 331.146 172.882 331.146 174.952V181H330.282L330.174 179.398C329.364 180.514 327.996 181.144 326.34 181.144ZM323.874 178.354C323.874 179.488 324.828 180.208 326.376 180.208C328.536 180.208 330.12 178.858 330.12 176.986V176.59H326.034C324.756 176.59 323.874 177.292 323.874 178.354ZM337.861 181.234C335.503 181.234 334.009 180.046 333.937 178.192H334.963C335.071 179.506 336.097 180.28 337.879 180.28C339.517 180.28 340.507 179.65 340.507 178.624C340.507 177.652 339.625 177.058 337.645 176.716C335.215 176.302 334.117 175.438 334.117 174.016C334.117 172.432 335.467 171.46 337.645 171.46C339.841 171.46 341.227 172.504 341.371 174.286H340.327C340.219 173.062 339.265 172.396 337.645 172.396C336.097 172.396 335.161 173.026 335.161 174.034C335.161 174.952 335.935 175.456 338.005 175.852C340.363 176.302 341.533 177.238 341.533 178.642C341.533 180.208 340.111 181.234 337.861 181.234ZM349.163 181V168.4H353.141C357.155 168.4 359.693 170.902 359.693 174.7C359.693 178.498 357.155 181 353.141 181H349.163ZM350.261 179.956H353.141C356.489 179.956 358.577 177.904 358.577 174.7C358.577 171.496 356.471 169.444 353.105 169.444H350.261V179.956ZM366.513 181.234C363.687 181.234 361.761 179.236 361.761 176.338C361.761 173.458 363.705 171.46 366.531 171.46C369.465 171.46 371.355 173.62 371.283 176.77H362.823C363.003 178.876 364.443 180.244 366.513 180.244C368.025 180.244 369.231 179.542 369.843 178.336L371.013 178.354C370.293 180.136 368.601 181.234 366.513 181.234ZM362.823 175.852H370.257C370.005 173.746 368.565 172.45 366.531 172.45C364.461 172.45 363.003 173.8 362.823 175.852ZM377.341 181.234C374.983 181.234 373.489 180.046 373.417 178.192H374.443C374.551 179.506 375.577 180.28 377.359 180.28C378.997 180.28 379.987 179.65 379.987 178.624C379.987 177.652 379.105 177.058 377.125 176.716C374.695 176.302 373.597 175.438 373.597 174.016C373.597 172.432 374.947 171.46 377.125 171.46C379.321 171.46 380.707 172.504 380.851 174.286H379.807C379.699 173.062 378.745 172.396 377.125 172.396C375.577 172.396 374.641 173.026 374.641 174.034C374.641 174.952 375.415 175.456 377.485 175.852C379.843 176.302 381.013 177.238 381.013 178.642C381.013 180.208 379.591 181.234 377.341 181.234ZM384.034 181V171.694H385.078V181H384.034ZM383.602 169.048C383.602 168.526 383.98 168.112 384.556 168.112C385.132 168.112 385.51 168.526 385.51 169.048C385.51 169.588 385.132 170.002 384.556 170.002C383.98 170.002 383.602 169.588 383.602 169.048ZM392.866 184.834C390.58 184.834 388.888 183.628 388.528 181.738H389.59C389.896 183.034 391.156 183.844 392.866 183.844C395.008 183.844 396.376 182.584 396.376 180.586V179.074C395.548 180.208 394.216 180.892 392.632 180.892C389.914 180.892 387.97 178.912 387.97 176.176C387.97 173.44 389.914 171.46 392.632 171.46C394.27 171.46 395.62 172.18 396.448 173.368L396.538 171.694H397.42V180.622C397.42 183.124 395.584 184.834 392.866 184.834ZM389.014 176.176C389.014 178.354 390.544 179.866 392.74 179.866C394.918 179.866 396.448 178.354 396.448 176.176C396.448 173.998 394.918 172.468 392.74 172.468C390.544 172.468 389.014 173.998 389.014 176.176ZM401.12 181V171.694H402.002L402.092 173.494C402.83 172.162 404.126 171.46 405.62 171.46C408.05 171.46 409.544 173.17 409.544 175.852V181H408.5V175.942C408.5 173.8 407.348 172.468 405.494 172.468C403.532 172.468 402.164 173.962 402.164 176.176V181H401.12ZM417.872 181V171.694H418.916V181H417.872ZM417.44 169.048C417.44 168.526 417.818 168.112 418.394 168.112C418.97 168.112 419.348 168.526 419.348 169.048C419.348 169.588 418.97 170.002 418.394 170.002C417.818 170.002 417.44 169.588 417.44 169.048ZM425.822 181.234C423.464 181.234 421.97 180.046 421.898 178.192H422.924C423.032 179.506 424.058 180.28 425.84 180.28C427.478 180.28 428.468 179.65 428.468 178.624C428.468 177.652 427.586 177.058 425.606 176.716C423.176 176.302 422.078 175.438 422.078 174.016C422.078 172.432 423.428 171.46 425.606 171.46C427.802 171.46 429.188 172.504 429.332 174.286H428.288C428.18 173.062 427.226 172.396 425.606 172.396C424.058 172.396 423.122 173.026 423.122 174.034C423.122 174.952 423.896 175.456 425.966 175.852C428.324 176.302 429.494 177.238 429.494 178.642C429.494 180.208 428.072 181.234 425.822 181.234ZM436.03 181C434.05 181 432.988 179.884 432.988 177.778V172.648H430.954V171.694H432.142C432.844 171.694 433.042 171.514 433.114 170.83L433.204 169.408H434.032V171.694H437.254V172.648H434.032V177.742C434.032 179.272 434.662 179.992 436.066 179.992H437.38V181H436.03ZM447.812 181.234C445.454 181.234 443.96 180.046 443.888 178.192H444.914C445.022 179.506 446.048 180.28 447.83 180.28C449.468 180.28 450.458 179.65 450.458 178.624C450.458 177.652 449.576 177.058 447.596 176.716C445.166 176.302 444.068 175.438 444.068 174.016C444.068 172.432 445.418 171.46 447.596 171.46C449.792 171.46 451.178 172.504 451.322 174.286H450.278C450.17 173.062 449.216 172.396 447.596 172.396C446.048 172.396 445.112 173.026 445.112 174.034C445.112 174.952 445.886 175.456 447.956 175.852C450.314 176.302 451.484 177.238 451.484 178.642C451.484 180.208 450.062 181.234 447.812 181.234ZM459.472 181.234C457.762 181.234 456.376 180.46 455.548 179.236V184.6H454.504V171.694H455.386L455.494 173.548C456.304 172.252 457.726 171.46 459.472 171.46C462.298 171.46 464.242 173.512 464.242 176.338C464.242 179.164 462.298 181.234 459.472 181.234ZM455.512 176.338C455.512 178.624 457.078 180.226 459.364 180.226C461.65 180.226 463.198 178.624 463.198 176.338C463.198 174.07 461.65 172.468 459.364 172.468C457.078 172.468 455.512 174.07 455.512 176.338ZM471.085 181.234C468.259 181.234 466.333 179.236 466.333 176.338C466.333 173.458 468.277 171.46 471.103 171.46C474.037 171.46 475.927 173.62 475.855 176.77H467.395C467.575 178.876 469.015 180.244 471.085 180.244C472.597 180.244 473.803 179.542 474.415 178.336L475.585 178.354C474.865 180.136 473.173 181.234 471.085 181.234ZM467.395 175.852H474.829C474.577 173.746 473.137 172.45 471.103 172.45C469.033 172.45 467.575 173.8 467.395 175.852ZM477.563 181V180.19L483.611 172.648H477.779V171.694H485.015V172.486L479.003 180.028H485.141V181H477.563ZM487.903 181V171.694H488.947V181H487.903ZM487.471 169.048C487.471 168.526 487.849 168.112 488.425 168.112C489.001 168.112 489.379 168.526 489.379 169.048C489.379 169.588 489.001 170.002 488.425 170.002C487.849 170.002 487.471 169.588 487.471 169.048ZM496.591 181.234C493.765 181.234 491.839 179.236 491.839 176.338C491.839 173.458 493.783 171.46 496.609 171.46C499.543 171.46 501.433 173.62 501.361 176.77H492.901C493.081 178.876 494.521 180.244 496.591 180.244C498.103 180.244 499.309 179.542 499.921 178.336L501.091 178.354C500.371 180.136 498.679 181.234 496.591 181.234ZM492.901 175.852H500.335C500.083 173.746 498.643 172.45 496.609 172.45C494.539 172.45 493.081 173.8 492.901 175.852ZM504.215 181V167.68H505.259V181H504.215ZM508.961 181V167.68H510.005V181H508.961ZM312.77 207.144C310.61 207.144 309.26 206.082 309.26 204.372C309.26 202.716 310.52 201.672 312.428 201.672H316.532V201.006C316.532 199.458 315.398 198.432 313.67 198.432C312.266 198.432 311.168 199.152 310.79 200.268H309.728C310.178 198.54 311.672 197.46 313.652 197.46C315.974 197.46 317.576 198.882 317.576 200.952V207H316.712L316.604 205.398C315.794 206.514 314.426 207.144 312.77 207.144ZM310.304 204.354C310.304 205.488 311.258 206.208 312.806 206.208C314.966 206.208 316.55 204.858 316.55 202.986V202.59H312.464C311.186 202.59 310.304 203.292 310.304 204.354ZM324.758 207.234C322.364 207.234 320.888 205.524 320.888 202.842V197.694H321.932V202.752C321.932 204.876 323.066 206.226 324.902 206.226C326.828 206.226 328.16 204.714 328.16 202.5V197.694H329.204V207H328.34L328.232 205.182C327.512 206.532 326.216 207.234 324.758 207.234ZM333.817 196.614C333.817 194.49 334.861 193.446 336.931 193.446H338.389V194.436H337.021C335.509 194.436 334.861 195.102 334.861 196.686V197.694H338.299V198.648H334.861V207H333.817V198.648H331.693V197.694H333.817V196.614ZM348.267 207.234C345.459 207.234 343.497 205.164 343.497 202.338C343.497 199.512 345.459 197.46 348.267 197.46C349.977 197.46 351.363 198.216 352.191 199.422V193.68H353.235V207H352.371L352.245 205.164C351.435 206.442 350.013 207.234 348.267 207.234ZM344.541 202.338C344.541 204.624 346.107 206.226 348.393 206.226C350.661 206.226 352.227 204.624 352.227 202.338C352.227 200.07 350.661 198.468 348.393 198.468C346.107 198.468 344.541 200.07 344.541 202.338ZM360.888 207.234C358.062 207.234 356.136 205.236 356.136 202.338C356.136 199.458 358.08 197.46 360.906 197.46C363.84 197.46 365.73 199.62 365.658 202.77H357.198C357.378 204.876 358.818 206.244 360.888 206.244C362.4 206.244 363.606 205.542 364.218 204.336L365.388 204.354C364.668 206.136 362.976 207.234 360.888 207.234ZM357.198 201.852H364.632C364.38 199.746 362.94 198.45 360.906 198.45C358.836 198.45 357.378 199.8 357.198 201.852ZM368.512 207V197.694H369.394L369.484 199.494C370.222 198.162 371.518 197.46 373.012 197.46C375.442 197.46 376.936 199.17 376.936 201.852V207H375.892V201.942C375.892 199.8 374.74 198.468 372.886 198.468C370.924 198.468 369.556 199.962 369.556 202.176V207H368.512ZM385.444 207V194.4H390.232C392.554 194.4 394.048 195.678 394.048 197.676C394.048 199.044 393.328 200.07 392.104 200.502C393.562 200.934 394.408 202.032 394.408 203.562C394.408 205.686 392.878 207 390.43 207H385.444ZM386.542 205.974H390.394C392.212 205.974 393.292 205.056 393.292 203.526C393.292 201.978 392.212 201.078 390.34 201.078H386.542V205.974ZM386.542 200.07H390.196C391.924 200.07 392.932 199.206 392.932 197.748C392.932 196.308 391.924 195.426 390.214 195.426H386.542V200.07ZM401.194 207.234C398.368 207.234 396.442 205.236 396.442 202.338C396.442 199.458 398.386 197.46 401.212 197.46C404.146 197.46 406.036 199.62 405.964 202.77H397.504C397.684 204.876 399.124 206.244 401.194 206.244C402.706 206.244 403.912 205.542 404.524 204.336L405.694 204.354C404.974 206.136 403.282 207.234 401.194 207.234ZM397.504 201.852H404.938C404.686 199.746 403.246 198.45 401.212 198.45C399.142 198.45 397.684 199.8 397.504 201.852ZM408.819 207V197.694H409.701L409.791 199.494C410.529 198.162 411.825 197.46 413.319 197.46C415.749 197.46 417.243 199.17 417.243 201.852V207H416.199V201.942C416.199 199.8 415.047 198.468 413.193 198.468C411.231 198.468 409.863 199.962 409.863 202.176V207H408.819ZM424.426 207.234C422.032 207.234 420.556 205.524 420.556 202.842V197.694H421.6V202.752C421.6 204.876 422.734 206.226 424.57 206.226C426.496 206.226 427.828 204.714 427.828 202.5V197.694H428.872V207H428.008L427.9 205.182C427.18 206.532 425.884 207.234 424.426 207.234ZM436.364 207C434.384 207 433.322 205.884 433.322 203.778V198.648H431.288V197.694H432.476C433.178 197.694 433.376 197.514 433.448 196.83L433.538 195.408H434.366V197.694H437.588V198.648H434.366V203.742C434.366 205.272 434.996 205.992 436.4 205.992H437.714V207H436.364ZM439.612 207V206.19L445.66 198.648H439.828V197.694H447.064V198.486L441.052 206.028H447.19V207H439.612ZM453.648 207.234C450.822 207.234 448.896 205.236 448.896 202.338C448.896 199.458 450.84 197.46 453.666 197.46C456.6 197.46 458.49 199.62 458.418 202.77H449.958C450.138 204.876 451.578 206.244 453.648 206.244C455.16 206.244 456.366 205.542 456.978 204.336L458.148 204.354C457.428 206.136 455.736 207.234 453.648 207.234ZM449.958 201.852H457.392C457.14 199.746 455.7 198.45 453.666 198.45C451.596 198.45 450.138 199.8 449.958 201.852ZM461.272 207V197.694H462.154L462.262 199.782C462.892 198.378 463.954 197.694 465.682 197.694H466.456V198.666H465.646C463.648 198.666 462.316 199.89 462.316 202.716V207H461.272ZM308.954 233V232.19L315.002 224.648H309.17V223.694H316.406V224.486L310.394 232.028H316.532V233H308.954ZM322.825 233.234C320.431 233.234 318.955 231.524 318.955 228.842V223.694H319.999V228.752C319.999 230.876 321.133 232.226 322.969 232.226C324.895 232.226 326.227 230.714 326.227 228.5V223.694H327.271V233H326.407L326.299 231.182C325.579 232.532 324.283 233.234 322.825 233.234ZM335.069 236.834C332.783 236.834 331.091 235.628 330.731 233.738H331.793C332.099 235.034 333.359 235.844 335.069 235.844C337.211 235.844 338.579 234.584 338.579 232.586V231.074C337.751 232.208 336.419 232.892 334.835 232.892C332.117 232.892 330.173 230.912 330.173 228.176C330.173 225.44 332.117 223.46 334.835 223.46C336.473 223.46 337.823 224.18 338.651 225.368L338.741 223.694H339.623V232.622C339.623 235.124 337.787 236.834 335.069 236.834ZM331.217 228.176C331.217 230.354 332.747 231.866 334.943 231.866C337.121 231.866 338.651 230.354 338.651 228.176C338.651 225.998 337.121 224.468 334.943 224.468C332.747 224.468 331.217 225.998 331.217 228.176ZM347.265 233.234C344.439 233.234 342.513 231.236 342.513 228.338C342.513 225.458 344.457 223.46 347.283 223.46C350.217 223.46 352.107 225.62 352.035 228.77H343.575C343.755 230.876 345.195 232.244 347.265 232.244C348.777 232.244 349.983 231.542 350.595 230.336L351.765 230.354C351.045 232.136 349.353 233.234 347.265 233.234ZM343.575 227.852H351.009C350.757 225.746 349.317 224.45 347.283 224.45C345.213 224.45 343.755 225.8 343.575 227.852ZM358.093 233.234C355.735 233.234 354.241 232.046 354.169 230.192H355.195C355.303 231.506 356.329 232.28 358.111 232.28C359.749 232.28 360.739 231.65 360.739 230.624C360.739 229.652 359.857 229.058 357.877 228.716C355.447 228.302 354.349 227.438 354.349 226.016C354.349 224.432 355.699 223.46 357.877 223.46C360.073 223.46 361.459 224.504 361.603 226.286H360.559C360.451 225.062 359.497 224.396 357.877 224.396C356.329 224.396 355.393 225.026 355.393 226.034C355.393 226.952 356.167 227.456 358.237 227.852C360.595 228.302 361.765 229.238 361.765 230.642C361.765 232.208 360.343 233.234 358.093 233.234ZM368.728 233.234C365.938 233.234 363.976 231.2 363.976 228.338C363.976 225.476 365.938 223.46 368.728 223.46C370.942 223.46 372.76 224.774 373.3 226.79H372.238C371.626 225.314 370.33 224.468 368.728 224.468C366.532 224.468 365.02 226.052 365.02 228.338C365.02 230.642 366.532 232.226 368.728 232.226C370.438 232.226 371.77 231.272 372.292 229.742H373.39C372.76 231.92 371.014 233.234 368.728 233.234ZM376.229 233V219.68H377.273V225.386C378.011 224.108 379.307 223.46 380.765 223.46C383.177 223.46 384.653 225.134 384.653 227.816V233H383.609V227.906C383.609 225.764 382.475 224.468 380.621 224.468C378.659 224.468 377.273 225.926 377.273 228.158V233H376.229ZM388.165 233V223.694H389.047L389.137 225.494C389.875 224.162 391.171 223.46 392.665 223.46C395.095 223.46 396.589 225.17 396.589 227.852V233H395.545V227.942C395.545 225.8 394.393 224.468 392.539 224.468C390.577 224.468 389.209 225.962 389.209 228.176V233H388.165ZM400.1 233V223.694H401.144V233H400.1ZM399.668 221.048C399.668 220.526 400.046 220.112 400.622 220.112C401.198 220.112 401.576 220.526 401.576 221.048C401.576 221.588 401.198 222.002 400.622 222.002C400.046 222.002 399.668 221.588 399.668 221.048ZM408.626 233C406.646 233 405.584 231.884 405.584 229.778V224.648H403.55V223.694H404.738C405.44 223.694 405.638 223.514 405.71 222.83L405.8 221.408H406.628V223.694H409.85V224.648H406.628V229.742C406.628 231.272 407.258 231.992 408.662 231.992H409.976V233H408.626ZM416.554 233C414.574 233 413.512 231.884 413.512 229.778V224.648H411.478V223.694H412.666C413.368 223.694 413.566 223.514 413.638 222.83L413.728 221.408H414.556V223.694H417.778V224.648H414.556V229.742C414.556 231.272 415.186 231.992 416.59 231.992H417.904V233H416.554ZM424.187 233.234C421.361 233.234 419.435 231.236 419.435 228.338C419.435 225.458 421.379 223.46 424.205 223.46C427.139 223.46 429.029 225.62 428.957 228.77H420.497C420.677 230.876 422.117 232.244 424.187 232.244C425.699 232.244 426.905 231.542 427.517 230.336L428.687 230.354C427.967 232.136 426.275 233.234 424.187 233.234ZM420.497 227.852H427.931C427.679 225.746 426.239 224.45 424.205 224.45C422.135 224.45 420.677 225.8 420.497 227.852ZM431.811 233V223.694H432.693L432.783 225.494C433.521 224.162 434.817 223.46 436.311 223.46C438.741 223.46 440.235 225.17 440.235 227.852V233H439.191V227.942C439.191 225.8 438.039 224.468 436.185 224.468C434.223 224.468 432.855 225.962 432.855 228.176V233H431.811Z" fill="black"/>
<path d="M74.8504 88V75.4H78.8284C82.8424 75.4 85.3804 77.902 85.3804 81.7C85.3804 85.498 82.8424 88 78.8284 88H74.8504ZM75.9484 86.956H78.8284C82.1764 86.956 84.2644 84.904 84.2644 81.7C84.2644 78.496 82.1584 76.444 78.7924 76.444H75.9484V86.956ZM91.1567 88.144C88.9967 88.144 87.6467 87.082 87.6467 85.372C87.6467 83.716 88.9067 82.672 90.8147 82.672H94.9187V82.006C94.9187 80.458 93.7847 79.432 92.0567 79.432C90.6527 79.432 89.5547 80.152 89.1767 81.268H88.1147C88.5647 79.54 90.0587 78.46 92.0387 78.46C94.3607 78.46 95.9627 79.882 95.9627 81.952V88H95.0987L94.9907 86.398C94.1807 87.514 92.8127 88.144 91.1567 88.144ZM88.6907 85.354C88.6907 86.488 89.6447 87.208 91.1927 87.208C93.3527 87.208 94.9367 85.858 94.9367 83.986V83.59H90.8507C89.5727 83.59 88.6907 84.292 88.6907 85.354ZM102.954 88C100.974 88 99.9123 86.884 99.9123 84.778V79.648H97.8783V78.694H99.0663C99.7683 78.694 99.9663 78.514 100.038 77.83L100.128 76.408H100.956V78.694H104.178V79.648H100.956V84.742C100.956 86.272 101.586 86.992 102.99 86.992H104.304V88H102.954ZM110.587 88.234C107.761 88.234 105.835 86.236 105.835 83.338C105.835 80.458 107.779 78.46 110.605 78.46C113.539 78.46 115.429 80.62 115.357 83.77H106.897C107.077 85.876 108.517 87.244 110.587 87.244C112.099 87.244 113.305 86.542 113.917 85.336L115.087 85.354C114.367 87.136 112.675 88.234 110.587 88.234ZM106.897 82.852H114.331C114.079 80.746 112.639 79.45 110.605 79.45C108.535 79.45 107.077 80.8 106.897 82.852ZM118.211 88V78.694H119.093L119.183 80.494C119.921 79.162 121.217 78.46 122.711 78.46C125.141 78.46 126.635 80.17 126.635 82.852V88H125.591V82.942C125.591 80.8 124.439 79.468 122.585 79.468C120.623 79.468 119.255 80.962 119.255 83.176V88H118.211ZM134.089 88.234C131.263 88.234 129.337 86.236 129.337 83.338C129.337 80.458 131.281 78.46 134.107 78.46C137.041 78.46 138.931 80.62 138.859 83.77H130.399C130.579 85.876 132.019 87.244 134.089 87.244C135.601 87.244 136.807 86.542 137.419 85.336L138.589 85.354C137.869 87.136 136.177 88.234 134.089 88.234ZM130.399 82.852H137.833C137.581 80.746 136.141 79.45 134.107 79.45C132.037 79.45 130.579 80.8 130.399 82.852ZM141.713 88V78.694H142.595L142.703 80.782C143.333 79.378 144.395 78.694 146.123 78.694H146.897V79.666H146.087C144.089 79.666 142.757 80.89 142.757 83.716V88H141.713ZM150.418 77.614C150.418 75.49 151.462 74.446 153.532 74.446H154.99V75.436H153.622C152.11 75.436 151.462 76.102 151.462 77.686V78.694H154.9V79.648H151.462V88H150.418V79.648H148.294V78.694H150.418V77.614ZM159.483 88.144C157.323 88.144 155.973 87.082 155.973 85.372C155.973 83.716 157.233 82.672 159.141 82.672H163.245V82.006C163.245 80.458 162.111 79.432 160.383 79.432C158.979 79.432 157.881 80.152 157.503 81.268H156.441C156.891 79.54 158.385 78.46 160.365 78.46C162.687 78.46 164.289 79.882 164.289 81.952V88H163.425L163.317 86.398C162.507 87.514 161.139 88.144 159.483 88.144ZM157.017 85.354C157.017 86.488 157.971 87.208 159.519 87.208C161.679 87.208 163.263 85.858 163.263 83.986V83.59H159.177C157.899 83.59 157.017 84.292 157.017 85.354ZM171.003 88.234C168.645 88.234 167.151 87.046 167.079 85.192H168.105C168.213 86.506 169.239 87.28 171.021 87.28C172.659 87.28 173.649 86.65 173.649 85.624C173.649 84.652 172.767 84.058 170.787 83.716C168.357 83.302 167.259 82.438 167.259 81.016C167.259 79.432 168.609 78.46 170.787 78.46C172.983 78.46 174.369 79.504 174.513 81.286H173.469C173.361 80.062 172.407 79.396 170.787 79.396C169.239 79.396 168.303 80.026 168.303 81.034C168.303 81.952 169.077 82.456 171.147 82.852C173.505 83.302 174.675 84.238 174.675 85.642C174.675 87.208 173.253 88.234 171.003 88.234ZM180.9 88.234C178.542 88.234 177.048 87.046 176.976 85.192H178.002C178.11 86.506 179.136 87.28 180.918 87.28C182.556 87.28 183.546 86.65 183.546 85.624C183.546 84.652 182.664 84.058 180.684 83.716C178.254 83.302 177.156 82.438 177.156 81.016C177.156 79.432 178.506 78.46 180.684 78.46C182.88 78.46 184.266 79.504 184.41 81.286H183.366C183.258 80.062 182.304 79.396 180.684 79.396C179.136 79.396 178.2 80.026 178.2 81.034C178.2 81.952 178.974 82.456 181.044 82.852C183.402 83.302 184.572 84.238 184.572 85.642C184.572 87.208 183.15 88.234 180.9 88.234ZM191.264 88.234C188.87 88.234 187.394 86.524 187.394 83.842V78.694H188.438V83.752C188.438 85.876 189.572 87.226 191.408 87.226C193.334 87.226 194.666 85.714 194.666 83.5V78.694H195.71V88H194.846L194.738 86.182C194.018 87.532 192.722 88.234 191.264 88.234ZM199.422 88V78.694H200.304L200.394 80.494C201.132 79.162 202.428 78.46 203.922 78.46C206.352 78.46 207.846 80.17 207.846 82.852V88H206.802V82.942C206.802 80.8 205.65 79.468 203.796 79.468C201.834 79.468 200.466 80.962 200.466 83.176V88H199.422ZM215.444 91.834C213.158 91.834 211.466 90.628 211.106 88.738H212.168C212.474 90.034 213.734 90.844 215.444 90.844C217.586 90.844 218.954 89.584 218.954 87.586V86.074C218.126 87.208 216.794 87.892 215.21 87.892C212.492 87.892 210.548 85.912 210.548 83.176C210.548 80.44 212.492 78.46 215.21 78.46C216.848 78.46 218.198 79.18 219.026 80.368L219.116 78.694H219.998V87.622C219.998 90.124 218.162 91.834 215.444 91.834ZM211.592 83.176C211.592 85.354 213.122 86.866 215.318 86.866C217.496 86.866 219.026 85.354 219.026 83.176C219.026 80.998 217.496 79.468 215.318 79.468C213.122 79.468 211.592 80.998 211.592 83.176ZM229.982 88L226.634 78.694H227.75L230.504 86.434L231.818 83.05L233.492 78.694H234.464L236.156 83.05L237.47 86.434L240.242 78.694H241.34L237.974 88H236.966L235.364 83.842L233.978 80.224L230.99 88H229.982ZM246.02 88.144C243.86 88.144 242.51 87.082 242.51 85.372C242.51 83.716 243.77 82.672 245.678 82.672H249.782V82.006C249.782 80.458 248.648 79.432 246.92 79.432C245.516 79.432 244.418 80.152 244.04 81.268H242.978C243.428 79.54 244.922 78.46 246.902 78.46C249.224 78.46 250.826 79.882 250.826 81.952V88H249.962L249.854 86.398C249.044 87.514 247.676 88.144 246.02 88.144ZM243.554 85.354C243.554 86.488 244.508 87.208 246.056 87.208C248.216 87.208 249.8 85.858 249.8 83.986V83.59H245.714C244.436 83.59 243.554 84.292 243.554 85.354ZM244.238 76.048C244.238 75.526 244.616 75.148 245.156 75.148C245.696 75.148 246.074 75.526 246.074 76.048C246.074 76.588 245.696 76.966 245.156 76.966C244.616 76.966 244.238 76.588 244.238 76.048ZM247.73 76.048C247.73 75.526 248.108 75.148 248.648 75.148C249.188 75.148 249.566 75.526 249.566 76.048C249.566 76.588 249.188 76.966 248.648 76.966C248.108 76.966 247.73 76.588 247.73 76.048ZM254.336 88V74.68H255.38V80.386C256.118 79.108 257.414 78.46 258.872 78.46C261.284 78.46 262.76 80.134 262.76 82.816V88H261.716V82.906C261.716 80.764 260.582 79.468 258.728 79.468C256.766 79.468 255.38 80.926 255.38 83.158V88H254.336ZM266.272 88V78.694H267.154L267.262 80.782C267.892 79.378 268.954 78.694 270.682 78.694H271.456V79.666H270.646C268.648 79.666 267.316 80.89 267.316 83.716V88H266.272ZM277.298 88.234C274.472 88.234 272.546 86.236 272.546 83.338C272.546 80.458 274.49 78.46 277.316 78.46C280.25 78.46 282.14 80.62 282.068 83.77H273.608C273.788 85.876 275.228 87.244 277.298 87.244C278.81 87.244 280.016 86.542 280.628 85.336L281.798 85.354C281.078 87.136 279.386 88.234 277.298 88.234ZM273.608 82.852H281.042C280.79 80.746 279.35 79.45 277.316 79.45C275.246 79.45 273.788 80.8 273.608 82.852ZM284.922 88V78.694H285.804L285.894 80.494C286.632 79.162 287.928 78.46 289.422 78.46C291.852 78.46 293.346 80.17 293.346 82.852V88H292.302V82.942C292.302 80.8 291.15 79.468 289.296 79.468C287.334 79.468 285.966 80.962 285.966 83.176V88H284.922ZM300.818 88.234C298.01 88.234 296.048 86.164 296.048 83.338C296.048 80.512 298.01 78.46 300.818 78.46C302.528 78.46 303.914 79.216 304.742 80.422V74.68H305.786V88H304.922L304.796 86.164C303.986 87.442 302.564 88.234 300.818 88.234ZM297.092 83.338C297.092 85.624 298.658 87.226 300.944 87.226C303.212 87.226 304.778 85.624 304.778 83.338C304.778 81.07 303.212 79.468 300.944 79.468C298.658 79.468 297.092 81.07 297.092 83.338ZM73.814 114.234C71.006 114.234 69.044 112.164 69.044 109.338C69.044 106.512 71.006 104.46 73.814 104.46C75.524 104.46 76.91 105.216 77.738 106.422V100.68H78.782V114H77.918L77.792 112.164C76.982 113.442 75.56 114.234 73.814 114.234ZM70.088 109.338C70.088 111.624 71.654 113.226 73.94 113.226C76.208 113.226 77.774 111.624 77.774 109.338C77.774 107.07 76.208 105.468 73.94 105.468C71.654 105.468 70.088 107.07 70.088 109.338ZM82.4927 114V104.694H83.3747L83.4827 106.782C84.1127 105.378 85.1747 104.694 86.9027 104.694H87.6767V105.666H86.8667C84.8687 105.666 83.5367 106.89 83.5367 109.716V114H82.4927ZM93.5187 114.234C90.6927 114.234 88.7667 112.236 88.7667 109.338C88.7667 106.458 90.7107 104.46 93.5367 104.46C96.4707 104.46 98.3607 106.62 98.2887 109.77H89.8287C90.0087 111.876 91.4487 113.244 93.5187 113.244C95.0307 113.244 96.2367 112.542 96.8487 111.336L98.0187 111.354C97.2987 113.136 95.6067 114.234 93.5187 114.234ZM89.8287 108.852H97.2627C97.0107 106.746 95.5707 105.45 93.5367 105.45C91.4667 105.45 90.0087 106.8 89.8287 108.852ZM101.143 114V104.694H102.187V114H101.143ZM100.711 102.048C100.711 101.526 101.089 101.112 101.665 101.112C102.241 101.112 102.619 101.526 102.619 102.048C102.619 102.588 102.241 103.002 101.665 103.002C101.089 103.002 100.711 102.588 100.711 102.048ZM110.886 114V101.4H115.674C117.996 101.4 119.49 102.678 119.49 104.676C119.49 106.044 118.77 107.07 117.546 107.502C119.004 107.934 119.85 109.032 119.85 110.562C119.85 112.686 118.32 114 115.872 114H110.886ZM111.984 112.974H115.836C117.654 112.974 118.734 112.056 118.734 110.526C118.734 108.978 117.654 108.078 115.782 108.078H111.984V112.974ZM111.984 107.07H115.638C117.366 107.07 118.374 106.206 118.374 104.748C118.374 103.308 117.366 102.426 115.656 102.426H111.984V107.07ZM126.636 114.234C123.81 114.234 121.884 112.236 121.884 109.338C121.884 106.458 123.828 104.46 126.654 104.46C129.588 104.46 131.478 106.62 131.406 109.77H122.946C123.126 111.876 124.566 113.244 126.636 113.244C128.148 113.244 129.354 112.542 129.966 111.336L131.136 111.354C130.416 113.136 128.724 114.234 126.636 114.234ZM122.946 108.852H130.38C130.128 106.746 128.688 105.45 126.654 105.45C124.584 105.45 123.126 106.8 122.946 108.852ZM134.26 114V104.694H135.142L135.232 106.494C135.97 105.162 137.266 104.46 138.76 104.46C141.19 104.46 142.684 106.17 142.684 108.852V114H141.64V108.942C141.64 106.8 140.488 105.468 138.634 105.468C136.672 105.468 135.304 106.962 135.304 109.176V114H134.26ZM149.868 114.234C147.474 114.234 145.998 112.524 145.998 109.842V104.694H147.042V109.752C147.042 111.876 148.176 113.226 150.012 113.226C151.938 113.226 153.27 111.714 153.27 109.5V104.694H154.314V114H153.45L153.342 112.182C152.622 113.532 151.326 114.234 149.868 114.234ZM161.806 114C159.826 114 158.764 112.884 158.764 110.778V105.648H156.73V104.694H157.918C158.62 104.694 158.818 104.514 158.89 103.83L158.98 102.408H159.808V104.694H163.03V105.648H159.808V110.742C159.808 112.272 160.438 112.992 161.842 112.992H163.156V114H161.806ZM165.054 114V113.19L171.102 105.648H165.27V104.694H172.506V105.486L166.494 113.028H172.632V114H165.054ZM179.089 114.234C176.263 114.234 174.337 112.236 174.337 109.338C174.337 106.458 176.281 104.46 179.107 104.46C182.041 104.46 183.931 106.62 183.859 109.77H175.399C175.579 111.876 177.019 113.244 179.089 113.244C180.601 113.244 181.807 112.542 182.419 111.336L183.589 111.354C182.869 113.136 181.177 114.234 179.089 114.234ZM175.399 108.852H182.833C182.581 106.746 181.141 105.45 179.107 105.45C177.037 105.45 175.579 106.8 175.399 108.852ZM186.713 114V104.694H187.595L187.703 106.782C188.333 105.378 189.395 104.694 191.123 104.694H191.897V105.666H191.087C189.089 105.666 187.757 106.89 187.757 109.716V114H186.713ZM199.486 114.234C197.776 114.234 196.39 113.46 195.562 112.236V117.6H194.518V104.694H195.4L195.508 106.548C196.318 105.252 197.74 104.46 199.486 104.46C202.312 104.46 204.256 106.512 204.256 109.338C204.256 112.164 202.312 114.234 199.486 114.234ZM195.526 109.338C195.526 111.624 197.092 113.226 199.378 113.226C201.664 113.226 203.212 111.624 203.212 109.338C203.212 107.07 201.664 105.468 199.378 105.468C197.092 105.468 195.526 107.07 195.526 109.338ZM207.157 114V100.68H208.201V106.386C208.939 105.108 210.235 104.46 211.693 104.46C214.105 104.46 215.581 106.134 215.581 108.816V114H214.537V108.906C214.537 106.764 213.403 105.468 211.549 105.468C209.587 105.468 208.201 106.926 208.201 109.158V114H207.157ZM222.008 114.144C219.848 114.144 218.498 113.082 218.498 111.372C218.498 109.716 219.758 108.672 221.666 108.672H225.77V108.006C225.77 106.458 224.636 105.432 222.908 105.432C221.504 105.432 220.406 106.152 220.028 107.268H218.966C219.416 105.54 220.91 104.46 222.89 104.46C225.212 104.46 226.814 105.882 226.814 107.952V114H225.95L225.842 112.398C225.032 113.514 223.664 114.144 222.008 114.144ZM219.542 111.354C219.542 112.488 220.496 113.208 222.044 113.208C224.204 113.208 225.788 111.858 225.788 109.986V109.59H221.702C220.424 109.59 219.542 110.292 219.542 111.354ZM233.529 114.234C231.171 114.234 229.677 113.046 229.605 111.192H230.631C230.739 112.506 231.765 113.28 233.547 113.28C235.185 113.28 236.175 112.65 236.175 111.624C236.175 110.652 235.293 110.058 233.313 109.716C230.883 109.302 229.785 108.438 229.785 107.016C229.785 105.432 231.135 104.46 233.313 104.46C235.509 104.46 236.895 105.504 237.039 107.286H235.995C235.887 106.062 234.933 105.396 233.313 105.396C231.765 105.396 230.829 106.026 230.829 107.034C230.829 107.952 231.603 108.456 233.673 108.852C236.031 109.302 237.201 110.238 237.201 111.642C237.201 113.208 235.779 114.234 233.529 114.234ZM244.163 114.234C241.337 114.234 239.411 112.236 239.411 109.338C239.411 106.458 241.355 104.46 244.181 104.46C247.115 104.46 249.005 106.62 248.933 109.77H240.473C240.653 111.876 242.093 113.244 244.163 113.244C245.675 113.244 246.881 112.542 247.493 111.336L248.663 111.354C247.943 113.136 246.251 114.234 244.163 114.234ZM240.473 108.852H247.907C247.655 106.746 246.215 105.45 244.181 105.45C242.111 105.45 240.653 106.8 240.473 108.852ZM251.788 114V104.694H252.67L252.76 106.494C253.498 105.162 254.794 104.46 256.288 104.46C258.718 104.46 260.212 106.17 260.212 108.852V114H259.168V108.942C259.168 106.8 258.016 105.468 256.162 105.468C254.2 105.468 252.832 106.962 252.832 109.176V114H251.788Z" fill="black"/>
<defs>
<filter id="filter0_d_924_45285" x="465.156" y="0" width="356.844" height="292.807" filterUnits="userSpaceOnUse" color-interpolation-filters="sRGB">
<feFlood flood-opacity="0" result="BackgroundImageFix"/>
<feColorMatrix in="SourceAlpha" type="matrix" values="0 0 0 0 0 0 0 0 0 0 0 0 0 0 0 0 0 0 127 0" result="hardAlpha"/>
<feMorphology radius="5" operator="dilate" in="SourceAlpha" result="effect1_dropShadow_924_45285"/>
<feOffset dy="4"/>
<feGaussianBlur stdDeviation="10"/>
<feComposite in2="hardAlpha" operator="out"/>
<feColorMatrix type="matrix" values="0 0 0 0 0 0 0 0 0 0 0 0 0 0 0 0 0 0 0.1 0"/>
<feBlend mode="normal" in2="BackgroundImageFix" result="effect1_dropShadow_924_45285"/>
<feBlend mode="normal" in="SourceGraphic" in2="effect1_dropShadow_924_45285" result="shape"/>
</filter>
<filter id="filter1_d_924_45285" x="0" y="0" width="356.844" height="292.807" filterUnits="userSpaceOnUse" color-interpolation-filters="sRGB">
<feFlood flood-opacity="0" result="BackgroundImageFix"/>
<feColorMatrix in="SourceAlpha" type="matrix" values="0 0 0 0 0 0 0 0 0 0 0 0 0 0 0 0 0 0 127 0" result="hardAlpha"/>
<feMorphology radius="5" operator="dilate" in="SourceAlpha" result="effect1_dropShadow_924_45285"/>
<feOffset dy="4"/>
<feGaussianBlur stdDeviation="10"/>
<feComposite in2="hardAlpha" operator="out"/>
<feColorMatrix type="matrix" values="0 0 0 0 0 0 0 0 0 0 0 0 0 0 0 0 0 0 0.1 0"/>
<feBlend mode="normal" in2="BackgroundImageFix" result="effect1_dropShadow_924_45285"/>
<feBlend mode="normal" in="SourceGraphic" in2="effect1_dropShadow_924_45285" result="shape"/>
</filter>
<filter id="filter2_d_924_45285" x="209.008" y="104.061" width="400.422" height="327.492" filterUnits="userSpaceOnUse" color-interpolation-filters="sRGB">
<feFlood flood-opacity="0" result="BackgroundImageFix"/>
<feColorMatrix in="SourceAlpha" type="matrix" values="0 0 0 0 0 0 0 0 0 0 0 0 0 0 0 0 0 0 127 0" result="hardAlpha"/>
<feMorphology radius="5" operator="dilate" in="SourceAlpha" result="effect1_dropShadow_924_45285"/>
<feOffset dy="4"/>
<feGaussianBlur stdDeviation="10"/>
<feComposite in2="hardAlpha" operator="out"/>
<feColorMatrix type="matrix" values="0 0 0 0 0 0 0 0 0 0 0 0 0 0 0 0 0 0 0.1 0"/>
<feBlend mode="normal" in2="BackgroundImageFix" result="effect1_dropShadow_924_45285"/>
<feBlend mode="normal" in="SourceGraphic" in2="effect1_dropShadow_924_45285" result="shape"/>
</filter>
<clipPath id="clip0_924_45285">
<rect width="106.728" height="106.728" fill="white" transform="translate(105.938 176.355) rotate(-54.4833)"/>
</clipPath>
<clipPath id="clip1_924_45285">
<rect width="106.728" height="106.728" fill="white" transform="translate(359.414 250.465)"/>
</clipPath>
</defs>
</svg>
