<svg width="822" height="420" viewBox="0 0 822 420" fill="none" xmlns="http://www.w3.org/2000/svg">
<g filter="url(#filter0_d_924_45177)">
<ellipse cx="643.578" cy="142.403" rx="153.422" ry="121.403" fill="#F6F5FF"/>
</g>
<path d="M604 197.323V213.999H620.676L669.86 164.815L653.184 148.139L604 197.323ZM616.985 205.105H612.894V201.014L653.184 160.724L657.275 164.815L616.985 205.105ZM682.756 145.649L672.35 135.243C671.461 134.353 670.349 133.953 669.193 133.953C668.037 133.953 666.925 134.398 666.08 135.243L657.942 143.381L674.618 160.057L682.756 151.919C684.491 150.185 684.491 147.383 682.756 145.649Z" fill="black" fill-opacity="0.54"/>
<g filter="url(#filter1_d_924_45177)">
<ellipse cx="178.422" cy="142.403" rx="153.422" ry="121.403" fill="#F6F5FF"/>
</g>
<g clip-path="url(#clip0_924_45177)">
<path d="M151.417 161.768L140.558 154.018L144.703 178.83L169.515 174.685L158.656 166.935C167.207 154.954 183.894 152.167 195.875 160.718C199.53 163.327 202.359 166.712 204.201 170.485L213.258 168.972C210.821 162.971 206.724 157.534 201.042 153.478C185.043 142.06 162.836 145.769 151.417 161.768ZM202.092 197.936C193.541 209.917 176.854 212.704 164.873 204.153C161.218 201.544 158.389 198.159 156.547 194.386L147.49 195.899C149.927 201.9 154.024 207.336 159.706 211.392C175.705 222.811 197.912 219.102 209.331 203.103L220.19 210.853L216.045 186.041L191.233 190.186L202.092 197.936Z" fill="black" fill-opacity="0.54"/>
</g>
<g filter="url(#filter2_d_924_45177)">
<ellipse cx="409.22" cy="263.807" rx="175.212" ry="138.747" fill="#F6F5FF"/>
</g>
<g clip-path="url(#clip1_924_45177)">
<path d="M390.543 291.152C399.126 291.152 406.108 284.171 406.108 275.588C406.108 267.005 399.126 260.023 390.543 260.023C381.96 260.023 374.979 267.005 374.979 275.588C374.979 284.171 381.96 291.152 390.543 291.152ZM390.543 268.917C394.234 268.917 397.214 271.897 397.214 275.588C397.214 279.279 394.234 282.258 390.543 282.258C386.852 282.258 383.873 279.279 383.873 275.588C383.873 271.897 386.852 268.917 390.543 268.917ZM390.765 313.387H371.732C376.135 311.164 383.739 308.94 390.543 308.94C391.032 308.94 391.566 308.985 392.055 308.985C393.567 305.739 396.191 303.07 399.348 300.936C396.102 300.358 393.033 300.046 390.543 300.046C380.137 300.046 359.414 305.249 359.414 315.611V322.282H390.543V315.611C390.543 314.855 390.632 314.099 390.765 313.387ZM423.896 302.27C415.713 302.27 399.437 306.761 399.437 315.611V322.282H448.354V315.611C448.354 306.761 432.078 302.27 423.896 302.27ZM429.277 294.176C432.656 292.264 435.013 288.662 435.013 284.482C435.013 278.345 430.033 273.364 423.896 273.364C417.759 273.364 412.778 278.345 412.778 284.482C412.778 288.662 415.135 292.264 418.515 294.176C420.116 295.066 421.939 295.599 423.896 295.599C425.852 295.599 427.676 295.066 429.277 294.176Z" fill="black" fill-opacity="0.54"/>
</g>
<path d="M566.542 89.234C562.834 89.234 560.152 86.534 560.152 82.7C560.152 78.866 562.834 76.166 566.542 76.166C569.422 76.166 571.78 77.84 572.608 80.486H571.456C570.736 78.488 568.864 77.264 566.56 77.264C563.482 77.264 561.268 79.478 561.268 82.7C561.268 85.922 563.482 88.136 566.56 88.136C568.918 88.136 570.862 86.858 571.564 84.77H572.716C571.942 87.488 569.512 89.234 566.542 89.234ZM579.618 89.234C576.738 89.234 574.722 87.218 574.722 84.338C574.722 81.476 576.738 79.46 579.618 79.46C582.48 79.46 584.496 81.476 584.496 84.338C584.496 87.218 582.48 89.234 579.618 89.234ZM575.766 84.338C575.766 86.642 577.332 88.226 579.618 88.226C581.886 88.226 583.452 86.642 583.452 84.338C583.452 82.052 581.886 80.468 579.618 80.468C577.332 80.468 575.766 82.052 575.766 84.338ZM587.397 89V79.694H588.279L588.369 81.206C589.017 80.072 590.151 79.46 591.591 79.46C593.211 79.46 594.453 80.27 594.993 81.692C595.623 80.27 596.901 79.46 598.539 79.46C600.879 79.46 602.391 81.062 602.391 83.654V89H601.347V83.816C601.347 81.746 600.195 80.468 598.413 80.468C596.595 80.468 595.407 81.782 595.407 83.888V89H594.363V83.816C594.363 81.746 593.229 80.468 591.447 80.468C589.629 80.468 588.441 81.782 588.441 83.888V89H587.397ZM610.857 89.234C609.147 89.234 607.761 88.46 606.933 87.236V92.6H605.889V79.694H606.771L606.879 81.548C607.689 80.252 609.111 79.46 610.857 79.46C613.683 79.46 615.627 81.512 615.627 84.338C615.627 87.164 613.683 89.234 610.857 89.234ZM606.897 84.338C606.897 86.624 608.463 88.226 610.749 88.226C613.035 88.226 614.583 86.624 614.583 84.338C614.583 82.07 613.035 80.468 610.749 80.468C608.463 80.468 606.897 82.07 606.897 84.338ZM618.528 89V75.68H619.572V89H618.528ZM627.216 89.234C624.39 89.234 622.464 87.236 622.464 84.338C622.464 81.458 624.408 79.46 627.234 79.46C630.168 79.46 632.058 81.62 631.986 84.77H623.526C623.706 86.876 625.146 88.244 627.216 88.244C628.728 88.244 629.934 87.542 630.546 86.336L631.716 86.354C630.996 88.136 629.304 89.234 627.216 89.234ZM623.526 83.852H630.96C630.708 81.746 629.268 80.45 627.234 80.45C625.164 80.45 623.706 81.8 623.526 83.852ZM638.322 89C636.342 89 635.28 87.884 635.28 85.778V80.648H633.246V79.694H634.434C635.136 79.694 635.333 79.514 635.406 78.83L635.496 77.408H636.324V79.694H639.546V80.648H636.324V85.742C636.324 87.272 636.954 87.992 638.358 87.992H639.672V89H638.322ZM645.069 89.144C642.909 89.144 641.559 88.082 641.559 86.372C641.559 84.716 642.819 83.672 644.727 83.672H648.831V83.006C648.831 81.458 647.697 80.432 645.969 80.432C644.565 80.432 643.467 81.152 643.089 82.268H642.027C642.477 80.54 643.971 79.46 645.951 79.46C648.273 79.46 649.875 80.882 649.875 82.952V89H649.011L648.903 87.398C648.093 88.514 646.725 89.144 645.069 89.144ZM642.603 86.354C642.603 87.488 643.557 88.208 645.105 88.208C647.265 88.208 648.849 86.858 648.849 84.986V84.59H644.763C643.485 84.59 642.603 85.292 642.603 86.354ZM653.385 89V79.694H654.267L654.357 81.206C655.005 80.072 656.139 79.46 657.579 79.46C659.199 79.46 660.441 80.27 660.981 81.692C661.611 80.27 662.889 79.46 664.527 79.46C666.867 79.46 668.379 81.062 668.379 83.654V89H667.335V83.816C667.335 81.746 666.183 80.468 664.401 80.468C662.583 80.468 661.395 81.782 661.395 83.888V89H660.351V83.816C660.351 81.746 659.217 80.468 657.435 80.468C655.617 80.468 654.429 81.782 654.429 83.888V89H653.385ZM675.819 89.234C672.993 89.234 671.067 87.236 671.067 84.338C671.067 81.458 673.011 79.46 675.837 79.46C678.771 79.46 680.661 81.62 680.589 84.77H672.129C672.309 86.876 673.749 88.244 675.819 88.244C677.331 88.244 678.537 87.542 679.149 86.336L680.319 86.354C679.599 88.136 677.907 89.234 675.819 89.234ZM672.129 83.852H679.563C679.311 81.746 677.871 80.45 675.837 80.45C673.767 80.45 672.309 81.8 672.129 83.852ZM683.444 89V79.694H684.326L684.416 81.494C685.154 80.162 686.45 79.46 687.944 79.46C690.374 79.46 691.868 81.17 691.868 83.852V89H690.824V83.942C690.824 81.8 689.672 80.468 687.818 80.468C685.856 80.468 684.488 81.962 684.488 84.176V89H683.444ZM698.861 89C696.881 89 695.819 87.884 695.819 85.778V80.648H693.785V79.694H694.973C695.675 79.694 695.873 79.514 695.945 78.83L696.035 77.408H696.863V79.694H700.085V80.648H696.863V85.742C696.863 87.272 697.493 87.992 698.897 87.992H700.211V89H698.861ZM706.493 89.234C703.667 89.234 701.741 87.236 701.741 84.338C701.741 81.458 703.685 79.46 706.511 79.46C709.445 79.46 711.335 81.62 711.263 84.77H702.803C702.983 86.876 704.423 88.244 706.493 88.244C708.005 88.244 709.211 87.542 709.823 86.336L710.993 86.354C710.273 88.136 708.581 89.234 706.493 89.234ZM702.803 83.852H710.237C709.985 81.746 708.545 80.45 706.511 80.45C704.441 80.45 702.983 81.8 702.803 83.852ZM565.822 115.234C564.112 115.234 562.726 114.46 561.898 113.236V118.6H560.854V105.694H561.736L561.844 107.548C562.654 106.252 564.076 105.46 565.822 105.46C568.648 105.46 570.592 107.512 570.592 110.338C570.592 113.164 568.648 115.234 565.822 115.234ZM561.862 110.338C561.862 112.624 563.428 114.226 565.714 114.226C568 114.226 569.548 112.624 569.548 110.338C569.548 108.07 568 106.468 565.714 106.468C563.428 106.468 561.862 108.07 561.862 110.338ZM577.435 115.234C574.609 115.234 572.683 113.236 572.683 110.338C572.683 107.458 574.627 105.46 577.453 105.46C580.387 105.46 582.277 107.62 582.205 110.77H573.745C573.925 112.876 575.365 114.244 577.435 114.244C578.947 114.244 580.153 113.542 580.765 112.336L581.935 112.354C581.215 114.136 579.523 115.234 577.435 115.234ZM573.745 109.852H581.179C580.927 107.746 579.487 106.45 577.453 106.45C575.383 106.45 573.925 107.8 573.745 109.852ZM585.059 115V105.694H585.941L586.049 107.782C586.679 106.378 587.741 105.694 589.469 105.694H590.243V106.666H589.433C587.435 106.666 586.103 107.89 586.103 110.716V115H585.059ZM595.54 115.234C593.182 115.234 591.688 114.046 591.616 112.192H592.642C592.75 113.506 593.776 114.28 595.558 114.28C597.196 114.28 598.186 113.65 598.186 112.624C598.186 111.652 597.304 111.058 595.324 110.716C592.894 110.302 591.796 109.438 591.796 108.016C591.796 106.432 593.146 105.46 595.324 105.46C597.52 105.46 598.906 106.504 599.05 108.286H598.006C597.898 107.062 596.944 106.396 595.324 106.396C593.776 106.396 592.84 107.026 592.84 108.034C592.84 108.952 593.614 109.456 595.684 109.852C598.042 110.302 599.212 111.238 599.212 112.642C599.212 114.208 597.79 115.234 595.54 115.234ZM606.319 115.234C603.439 115.234 601.423 113.218 601.423 110.338C601.423 107.476 603.439 105.46 606.319 105.46C609.181 105.46 611.197 107.476 611.197 110.338C611.197 113.218 609.181 115.234 606.319 115.234ZM602.467 110.338C602.467 112.642 604.033 114.226 606.319 114.226C608.587 114.226 610.153 112.642 610.153 110.338C610.153 108.052 608.587 106.468 606.319 106.468C604.033 106.468 602.467 108.052 602.467 110.338ZM614.098 115V105.694H614.98L615.07 107.494C615.808 106.162 617.104 105.46 618.598 105.46C621.028 105.46 622.522 107.17 622.522 109.852V115H621.478V109.942C621.478 107.8 620.326 106.468 618.472 106.468C616.51 106.468 615.142 107.962 615.142 110.176V115H614.098ZM628.95 115.144C626.79 115.144 625.44 114.082 625.44 112.372C625.44 110.716 626.7 109.672 628.608 109.672H632.712V109.006C632.712 107.458 631.578 106.432 629.85 106.432C628.446 106.432 627.348 107.152 626.97 108.268H625.908C626.358 106.54 627.852 105.46 629.832 105.46C632.154 105.46 633.756 106.882 633.756 108.952V115H632.892L632.784 113.398C631.974 114.514 630.606 115.144 628.95 115.144ZM626.484 112.354C626.484 113.488 627.438 114.208 628.986 114.208C631.146 114.208 632.73 112.858 632.73 110.986V110.59H628.644C627.366 110.59 626.484 111.292 626.484 112.354ZM637.266 115V101.68H638.31V115H637.266ZM642.012 115V105.694H643.056V115H642.012ZM641.58 103.048C641.58 102.526 641.958 102.112 642.534 102.112C643.11 102.112 643.488 102.526 643.488 103.048C643.488 103.588 643.11 104.002 642.534 104.002C641.958 104.002 641.58 103.588 641.58 103.048ZM645.858 115V114.19L651.906 106.648H646.074V105.694H653.31V106.486L647.298 114.028H653.436V115H645.858ZM658.938 115.144C656.778 115.144 655.428 114.082 655.428 112.372C655.428 110.716 656.688 109.672 658.596 109.672H662.7V109.006C662.7 107.458 661.566 106.432 659.838 106.432C658.434 106.432 657.336 107.152 656.958 108.268H655.896C656.346 106.54 657.84 105.46 659.82 105.46C662.142 105.46 663.744 106.882 663.744 108.952V115H662.88L662.772 113.398C661.962 114.514 660.594 115.144 658.938 115.144ZM656.472 112.354C656.472 113.488 657.426 114.208 658.974 114.208C661.134 114.208 662.718 112.858 662.718 110.986V110.59H658.632C657.354 110.59 656.472 111.292 656.472 112.354ZM671.214 115.234C668.406 115.234 666.444 113.164 666.444 110.338C666.444 107.512 668.406 105.46 671.214 105.46C672.924 105.46 674.31 106.216 675.138 107.422V101.68H676.182V115H675.318L675.192 113.164C674.382 114.442 672.96 115.234 671.214 115.234ZM667.488 110.338C667.488 112.624 669.054 114.226 671.34 114.226C673.608 114.226 675.174 112.624 675.174 110.338C675.174 108.07 673.608 106.468 671.34 106.468C669.054 106.468 667.488 108.07 667.488 110.338ZM683.979 115.234C681.099 115.234 679.083 113.218 679.083 110.338C679.083 107.476 681.099 105.46 683.979 105.46C686.841 105.46 688.857 107.476 688.857 110.338C688.857 113.218 686.841 115.234 683.979 115.234ZM680.127 110.338C680.127 112.642 681.693 114.226 683.979 114.226C686.247 114.226 687.813 112.642 687.813 110.338C687.813 108.052 686.247 106.468 683.979 106.468C681.693 106.468 680.127 108.052 680.127 110.338ZM695.155 118.6V117.61H695.929C697.243 117.61 697.657 117.34 698.143 116.17L698.665 114.856L694.237 105.694H695.407L697.603 110.284L699.205 113.596L700.537 110.284L702.427 105.694H703.525L699.079 116.566C698.431 118.186 697.711 118.6 696.037 118.6H695.155ZM563.77 141.144C561.61 141.144 560.26 140.082 560.26 138.372C560.26 136.716 561.52 135.672 563.428 135.672H567.532V135.006C567.532 133.458 566.398 132.432 564.67 132.432C563.266 132.432 562.168 133.152 561.79 134.268H560.728C561.178 132.54 562.672 131.46 564.652 131.46C566.974 131.46 568.576 132.882 568.576 134.952V141H567.712L567.604 139.398C566.794 140.514 565.426 141.144 563.77 141.144ZM561.304 138.354C561.304 139.488 562.258 140.208 563.806 140.208C565.966 140.208 567.55 138.858 567.55 136.986V136.59H563.464C562.186 136.59 561.304 137.292 561.304 138.354ZM576.046 141.234C573.238 141.234 571.276 139.164 571.276 136.338C571.276 133.512 573.238 131.46 576.046 131.46C577.756 131.46 579.142 132.216 579.97 133.422V127.68H581.014V141H580.15L580.024 139.164C579.214 140.442 577.792 141.234 576.046 141.234ZM572.32 136.338C572.32 138.624 573.886 140.226 576.172 140.226C578.44 140.226 580.006 138.624 580.006 136.338C580.006 134.07 578.44 132.468 576.172 132.468C573.886 132.468 572.32 134.07 572.32 136.338ZM587.641 141.144C585.481 141.144 584.131 140.082 584.131 138.372C584.131 136.716 585.391 135.672 587.299 135.672H591.403V135.006C591.403 133.458 590.269 132.432 588.541 132.432C587.137 132.432 586.039 133.152 585.661 134.268H584.599C585.049 132.54 586.543 131.46 588.523 131.46C590.845 131.46 592.447 132.882 592.447 134.952V141H591.583L591.475 139.398C590.665 140.514 589.297 141.144 587.641 141.144ZM585.175 138.354C585.175 139.488 586.129 140.208 587.677 140.208C589.837 140.208 591.421 138.858 591.421 136.986V136.59H587.335C586.057 136.59 585.175 137.292 585.175 138.354ZM600.926 141.234C599.216 141.234 597.83 140.46 597.002 139.236V144.6H595.958V131.694H596.84L596.948 133.548C597.758 132.252 599.18 131.46 600.926 131.46C603.752 131.46 605.696 133.512 605.696 136.338C605.696 139.164 603.752 141.234 600.926 141.234ZM596.966 136.338C596.966 138.624 598.532 140.226 600.818 140.226C603.104 140.226 604.652 138.624 604.652 136.338C604.652 134.07 603.104 132.468 600.818 132.468C598.532 132.468 596.966 134.07 596.966 136.338ZM612.077 141C610.097 141 609.035 139.884 609.035 137.778V132.648H607.001V131.694H608.189C608.891 131.694 609.089 131.514 609.161 130.83L609.251 129.408H610.079V131.694H613.301V132.648H610.079V137.742C610.079 139.272 610.709 139.992 612.113 139.992H613.427V141H612.077ZM618.825 141.144C616.665 141.144 615.315 140.082 615.315 138.372C615.315 136.716 616.575 135.672 618.483 135.672H622.587V135.006C622.587 133.458 621.453 132.432 619.725 132.432C618.321 132.432 617.223 133.152 616.845 134.268H615.783C616.233 132.54 617.727 131.46 619.707 131.46C622.029 131.46 623.631 132.882 623.631 134.952V141H622.767L622.659 139.398C621.849 140.514 620.481 141.144 618.825 141.144ZM616.359 138.354C616.359 139.488 617.313 140.208 618.861 140.208C621.021 140.208 622.605 138.858 622.605 136.986V136.59H618.519C617.241 136.59 616.359 137.292 616.359 138.354ZM632.109 141.234C630.363 141.234 628.941 140.424 628.131 139.146L628.023 141H627.141V127.68H628.185V133.458C629.013 132.216 630.399 131.46 632.109 131.46C634.935 131.46 636.879 133.512 636.879 136.338C636.879 139.164 634.935 141.234 632.109 141.234ZM628.149 136.338C628.149 138.624 629.715 140.226 632.001 140.226C634.287 140.226 635.835 138.624 635.835 136.338C635.835 134.07 634.287 132.468 632.001 132.468C629.715 132.468 628.149 134.07 628.149 136.338ZM639.78 141V127.68H640.824V141H639.78ZM648.468 141.234C645.642 141.234 643.716 139.236 643.716 136.338C643.716 133.458 645.66 131.46 648.486 131.46C651.42 131.46 653.31 133.62 653.238 136.77H644.778C644.958 138.876 646.398 140.244 648.468 140.244C649.98 140.244 651.186 139.542 651.798 138.336L652.968 138.354C652.248 140.136 650.556 141.234 648.468 141.234ZM644.778 135.852H652.212C651.96 133.746 650.52 132.45 648.486 132.45C646.416 132.45 644.958 133.8 644.778 135.852Z" fill="black"/>
<path d="M316.034 181V168.4H323.45V169.426H317.132V174.07H322.982V175.078H317.132V179.974H323.648V181H316.034ZM326.823 181V167.68H327.867V181H326.823ZM339.923 181.234C337.115 181.234 335.153 179.164 335.153 176.338C335.153 173.512 337.115 171.46 339.923 171.46C341.633 171.46 343.019 172.216 343.847 173.422V167.68H344.891V181H344.027L343.901 179.164C343.091 180.442 341.669 181.234 339.923 181.234ZM336.197 176.338C336.197 178.624 337.763 180.226 340.049 180.226C342.317 180.226 343.883 178.624 343.883 176.338C343.883 174.07 342.317 172.468 340.049 172.468C337.763 172.468 336.197 174.07 336.197 176.338ZM348.602 181V171.694H349.646V181H348.602ZM348.17 169.048C348.17 168.526 348.548 168.112 349.124 168.112C349.7 168.112 350.078 168.526 350.078 169.048C350.078 169.588 349.7 170.002 349.124 170.002C348.548 170.002 348.17 169.588 348.17 169.048ZM356.552 181.234C354.194 181.234 352.7 180.046 352.628 178.192H353.654C353.762 179.506 354.788 180.28 356.57 180.28C358.208 180.28 359.198 179.65 359.198 178.624C359.198 177.652 358.316 177.058 356.336 176.716C353.906 176.302 352.808 175.438 352.808 174.016C352.808 172.432 354.158 171.46 356.336 171.46C358.532 171.46 359.918 172.504 360.062 174.286H359.018C358.91 173.062 357.956 172.396 356.336 172.396C354.788 172.396 353.852 173.026 353.852 174.034C353.852 174.952 354.626 175.456 356.696 175.852C359.054 176.302 360.224 177.238 360.224 178.642C360.224 180.208 358.802 181.234 356.552 181.234ZM367.187 181.234C364.361 181.234 362.435 179.236 362.435 176.338C362.435 173.458 364.379 171.46 367.205 171.46C370.139 171.46 372.029 173.62 371.957 176.77H363.497C363.677 178.876 365.117 180.244 367.187 180.244C368.699 180.244 369.905 179.542 370.517 178.336L371.687 178.354C370.967 180.136 369.275 181.234 367.187 181.234ZM363.497 175.852H370.931C370.679 173.746 369.239 172.45 367.205 172.45C365.135 172.45 363.677 173.8 363.497 175.852ZM374.811 181V171.694H375.693L375.783 173.494C376.521 172.162 377.817 171.46 379.311 171.46C381.741 171.46 383.235 173.17 383.235 175.852V181H382.191V175.942C382.191 173.8 381.039 172.468 379.185 172.468C377.223 172.468 375.855 173.962 375.855 176.176V181H374.811ZM376.341 169.912V169.57C376.341 168.598 376.881 168.004 377.745 168.004C378.969 168.004 379.185 169.102 380.049 169.102C380.481 169.102 380.733 168.814 380.733 168.31V168.04H381.579V168.382C381.579 169.354 381.039 169.948 380.175 169.948C378.951 169.948 378.735 168.85 377.871 168.85C377.421 168.85 377.187 169.138 377.187 169.642V169.912H376.341ZM390.833 181.234C387.953 181.234 385.937 179.218 385.937 176.338C385.937 173.476 387.953 171.46 390.833 171.46C393.695 171.46 395.711 173.476 395.711 176.338C395.711 179.218 393.695 181.234 390.833 181.234ZM386.981 176.338C386.981 178.642 388.547 180.226 390.833 180.226C393.101 180.226 394.667 178.642 394.667 176.338C394.667 174.052 393.101 172.468 390.833 172.468C388.547 172.468 386.981 174.052 386.981 176.338ZM406.526 181.234C403.7 181.234 401.774 179.236 401.774 176.338C401.774 173.458 403.718 171.46 406.544 171.46C409.478 171.46 411.368 173.62 411.296 176.77H402.836C403.016 178.876 404.456 180.244 406.526 180.244C408.038 180.244 409.244 179.542 409.856 178.336L411.026 178.354C410.306 180.136 408.614 181.234 406.526 181.234ZM402.836 175.852H410.27C410.018 173.746 408.578 172.45 406.544 172.45C404.474 172.45 403.016 173.8 402.836 175.852ZM417.355 181.234C414.997 181.234 413.503 180.046 413.431 178.192H414.457C414.565 179.506 415.591 180.28 417.373 180.28C419.011 180.28 420.001 179.65 420.001 178.624C420.001 177.652 419.119 177.058 417.139 176.716C414.709 176.302 413.611 175.438 413.611 174.016C413.611 172.432 414.961 171.46 417.139 171.46C419.335 171.46 420.721 172.504 420.865 174.286H419.821C419.713 173.062 418.759 172.396 417.139 172.396C415.591 172.396 414.655 173.026 414.655 174.034C414.655 174.952 415.429 175.456 417.499 175.852C419.857 176.302 421.027 177.238 421.027 178.642C421.027 180.208 419.605 181.234 417.355 181.234ZM427.564 181C425.584 181 424.522 179.884 424.522 177.778V172.648H422.488V171.694H423.676C424.378 171.694 424.576 171.514 424.648 170.83L424.738 169.408H425.566V171.694H428.788V172.648H425.566V177.742C425.566 179.272 426.196 179.992 427.6 179.992H428.914V181H427.564ZM434.311 181.144C432.151 181.144 430.801 180.082 430.801 178.372C430.801 176.716 432.061 175.672 433.969 175.672H438.073V175.006C438.073 173.458 436.939 172.432 435.211 172.432C433.807 172.432 432.709 173.152 432.331 174.268H431.269C431.719 172.54 433.213 171.46 435.193 171.46C437.515 171.46 439.117 172.882 439.117 174.952V181H438.253L438.145 179.398C437.335 180.514 435.967 181.144 434.311 181.144ZM431.845 178.354C431.845 179.488 432.799 180.208 434.347 180.208C436.507 180.208 438.091 178.858 438.091 176.986V176.59H434.005C432.727 176.59 431.845 177.292 431.845 178.354ZM434.509 170.146L435.499 167.428H436.633L435.499 170.146H434.509ZM319.796 207.234C316.97 207.234 315.044 205.236 315.044 202.338C315.044 199.458 316.988 197.46 319.814 197.46C322.748 197.46 324.638 199.62 324.566 202.77H316.106C316.286 204.876 317.726 206.244 319.796 206.244C321.308 206.244 322.514 205.542 323.126 204.336L324.296 204.354C323.576 206.136 321.884 207.234 319.796 207.234ZM316.106 201.852H323.54C323.288 199.746 321.848 198.45 319.814 198.45C317.744 198.45 316.286 199.8 316.106 201.852ZM330.624 207.234C328.266 207.234 326.772 206.046 326.7 204.192H327.726C327.834 205.506 328.86 206.28 330.642 206.28C332.28 206.28 333.27 205.65 333.27 204.624C333.27 203.652 332.388 203.058 330.408 202.716C327.978 202.302 326.88 201.438 326.88 200.016C326.88 198.432 328.23 197.46 330.408 197.46C332.604 197.46 333.99 198.504 334.134 200.286H333.09C332.982 199.062 332.028 198.396 330.408 198.396C328.86 198.396 327.924 199.026 327.924 200.034C327.924 200.952 328.698 201.456 330.768 201.852C333.126 202.302 334.296 203.238 334.296 204.642C334.296 206.208 332.874 207.234 330.624 207.234ZM342.285 207.234C340.575 207.234 339.189 206.46 338.361 205.236V210.6H337.317V197.694H338.199L338.307 199.548C339.117 198.252 340.539 197.46 342.285 197.46C345.111 197.46 347.055 199.512 347.055 202.338C347.055 205.164 345.111 207.234 342.285 207.234ZM338.325 202.338C338.325 204.624 339.891 206.226 342.177 206.226C344.463 206.226 346.011 204.624 346.011 202.338C346.011 200.07 344.463 198.468 342.177 198.468C339.891 198.468 338.325 200.07 338.325 202.338ZM353.898 207.234C351.072 207.234 349.146 205.236 349.146 202.338C349.146 199.458 351.09 197.46 353.916 197.46C356.85 197.46 358.74 199.62 358.668 202.77H350.208C350.388 204.876 351.828 206.244 353.898 206.244C355.41 206.244 356.616 205.542 357.228 204.336L358.398 204.354C357.678 206.136 355.986 207.234 353.898 207.234ZM350.208 201.852H357.642C357.39 199.746 355.95 198.45 353.916 198.45C351.846 198.45 350.388 199.8 350.208 201.852ZM365.464 207.234C362.674 207.234 360.712 205.2 360.712 202.338C360.712 199.476 362.674 197.46 365.464 197.46C367.678 197.46 369.496 198.774 370.036 200.79H368.974C368.362 199.314 367.066 198.468 365.464 198.468C363.268 198.468 361.756 200.052 361.756 202.338C361.756 204.642 363.268 206.226 365.464 206.226C367.174 206.226 368.506 205.272 369.028 203.742H370.126C369.496 205.92 367.75 207.234 365.464 207.234ZM372.965 207V197.694H374.009V207H372.965ZM372.533 195.048C372.533 194.526 372.911 194.112 373.487 194.112C374.063 194.112 374.441 194.526 374.441 195.048C374.441 195.588 374.063 196.002 373.487 196.002C372.911 196.002 372.533 195.588 372.533 195.048ZM380.627 207.144C378.467 207.144 377.117 206.082 377.117 204.372C377.117 202.716 378.377 201.672 380.285 201.672H384.389V201.006C384.389 199.458 383.255 198.432 381.527 198.432C380.123 198.432 379.025 199.152 378.647 200.268H377.585C378.035 198.54 379.529 197.46 381.509 197.46C383.831 197.46 385.433 198.882 385.433 200.952V207H384.569L384.461 205.398C383.651 206.514 382.283 207.144 380.627 207.144ZM378.161 204.354C378.161 205.488 379.115 206.208 380.663 206.208C382.823 206.208 384.407 204.858 384.407 202.986V202.59H380.321C379.043 202.59 378.161 203.292 378.161 204.354ZM388.944 207V193.68H389.988V207H388.944ZM393.69 207V197.694H394.572L394.662 199.206C395.31 198.072 396.444 197.46 397.884 197.46C399.504 197.46 400.746 198.27 401.286 199.692C401.916 198.27 403.194 197.46 404.832 197.46C407.172 197.46 408.684 199.062 408.684 201.654V207H407.64V201.816C407.64 199.746 406.488 198.468 404.706 198.468C402.888 198.468 401.7 199.782 401.7 201.888V207H400.656V201.816C400.656 199.746 399.522 198.468 397.74 198.468C395.922 198.468 394.734 199.782 394.734 201.888V207H393.69ZM416.124 207.234C413.298 207.234 411.372 205.236 411.372 202.338C411.372 199.458 413.316 197.46 416.142 197.46C419.076 197.46 420.966 199.62 420.894 202.77H412.434C412.614 204.876 414.054 206.244 416.124 206.244C417.636 206.244 418.842 205.542 419.454 204.336L420.624 204.354C419.904 206.136 418.212 207.234 416.124 207.234ZM412.434 201.852H419.868C419.616 199.746 418.176 198.45 416.142 198.45C414.072 198.45 412.614 199.8 412.434 201.852ZM423.749 207V197.694H424.631L424.721 199.494C425.459 198.162 426.755 197.46 428.249 197.46C430.679 197.46 432.173 199.17 432.173 201.852V207H431.129V201.942C431.129 199.8 429.977 198.468 428.123 198.468C426.161 198.468 424.793 199.962 424.793 202.176V207H423.749ZM439.165 207C437.185 207 436.123 205.884 436.123 203.778V198.648H434.089V197.694H435.277C435.979 197.694 436.177 197.514 436.249 196.83L436.339 195.408H437.167V197.694H440.389V198.648H437.167V203.742C437.167 205.272 437.797 205.992 439.201 205.992H440.515V207H439.165ZM446.798 207.234C443.972 207.234 442.046 205.236 442.046 202.338C442.046 199.458 443.99 197.46 446.816 197.46C449.75 197.46 451.64 199.62 451.568 202.77H443.108C443.288 204.876 444.728 206.244 446.798 206.244C448.31 206.244 449.516 205.542 450.128 204.336L451.298 204.354C450.578 206.136 448.886 207.234 446.798 207.234ZM443.108 201.852H450.542C450.29 199.746 448.85 198.45 446.816 198.45C444.746 198.45 443.288 199.8 443.108 201.852ZM461.733 207.144C459.573 207.144 458.223 206.082 458.223 204.372C458.223 202.716 459.483 201.672 461.391 201.672H465.495V201.006C465.495 199.458 464.361 198.432 462.633 198.432C461.229 198.432 460.131 199.152 459.753 200.268H458.691C459.141 198.54 460.635 197.46 462.615 197.46C464.937 197.46 466.539 198.882 466.539 200.952V207H465.675L465.567 205.398C464.757 206.514 463.389 207.144 461.733 207.144ZM459.267 204.354C459.267 205.488 460.221 206.208 461.769 206.208C463.929 206.208 465.513 204.858 465.513 202.986V202.59H461.427C460.149 202.59 459.267 203.292 459.267 204.354ZM474.009 207.234C471.201 207.234 469.239 205.164 469.239 202.338C469.239 199.512 471.201 197.46 474.009 197.46C475.719 197.46 477.105 198.216 477.933 199.422V193.68H478.977V207H478.113L477.987 205.164C477.177 206.442 475.755 207.234 474.009 207.234ZM470.283 202.338C470.283 204.624 471.849 206.226 474.135 206.226C476.403 206.226 477.969 204.624 477.969 202.338C477.969 200.07 476.403 198.468 474.135 198.468C471.849 198.468 470.283 200.07 470.283 202.338ZM485.604 207.144C483.444 207.144 482.094 206.082 482.094 204.372C482.094 202.716 483.354 201.672 485.262 201.672H489.366V201.006C489.366 199.458 488.232 198.432 486.504 198.432C485.1 198.432 484.002 199.152 483.624 200.268H482.562C483.012 198.54 484.506 197.46 486.486 197.46C488.808 197.46 490.41 198.882 490.41 200.952V207H489.546L489.438 205.398C488.628 206.514 487.26 207.144 485.604 207.144ZM483.138 204.354C483.138 205.488 484.092 206.208 485.64 206.208C487.8 206.208 489.384 204.858 489.384 202.986V202.59H485.298C484.02 202.59 483.138 203.292 483.138 204.354ZM498.888 207.234C497.178 207.234 495.792 206.46 494.964 205.236V210.6H493.92V197.694H494.802L494.91 199.548C495.72 198.252 497.142 197.46 498.888 197.46C501.714 197.46 503.658 199.512 503.658 202.338C503.658 205.164 501.714 207.234 498.888 207.234ZM494.928 202.338C494.928 204.624 496.494 206.226 498.78 206.226C501.066 206.226 502.614 204.624 502.614 202.338C502.614 200.07 501.066 198.468 498.78 198.468C496.494 198.468 494.928 200.07 494.928 202.338ZM510.04 207C508.06 207 506.998 205.884 506.998 203.778V198.648H504.964V197.694H506.152C506.854 197.694 507.052 197.514 507.124 196.83L507.214 195.408H508.042V197.694H511.264V198.648H508.042V203.742C508.042 205.272 508.672 205.992 510.076 205.992H511.39V207H510.04ZM516.788 207.144C514.628 207.144 513.278 206.082 513.278 204.372C513.278 202.716 514.538 201.672 516.446 201.672H520.55V201.006C520.55 199.458 519.416 198.432 517.688 198.432C516.284 198.432 515.186 199.152 514.808 200.268H513.746C514.196 198.54 515.69 197.46 517.67 197.46C519.992 197.46 521.594 198.882 521.594 200.952V207H520.73L520.622 205.398C519.812 206.514 518.444 207.144 516.788 207.144ZM514.322 204.354C514.322 205.488 515.276 206.208 516.824 206.208C518.984 206.208 520.568 204.858 520.568 202.986V202.59H516.482C515.204 202.59 514.322 203.292 514.322 204.354ZM529.064 207.234C526.256 207.234 524.294 205.164 524.294 202.338C524.294 199.512 526.256 197.46 529.064 197.46C530.774 197.46 532.16 198.216 532.988 199.422V193.68H534.032V207H533.168L533.042 205.164C532.232 206.442 530.81 207.234 529.064 207.234ZM525.338 202.338C525.338 204.624 526.904 206.226 529.19 206.226C531.458 206.226 533.024 204.624 533.024 202.338C533.024 200.07 531.458 198.468 529.19 198.468C526.904 198.468 525.338 200.07 525.338 202.338ZM541.829 207.234C538.949 207.234 536.933 205.218 536.933 202.338C536.933 199.476 538.949 197.46 541.829 197.46C544.691 197.46 546.707 199.476 546.707 202.338C546.707 205.218 544.691 207.234 541.829 207.234ZM537.977 202.338C537.977 204.642 539.543 206.226 541.829 206.226C544.097 206.226 545.663 204.642 545.663 202.338C545.663 200.052 544.097 198.468 541.829 198.468C539.543 198.468 537.977 200.052 537.977 202.338ZM320.822 233.234C319.112 233.234 317.726 232.46 316.898 231.236V236.6H315.854V223.694H316.736L316.844 225.548C317.654 224.252 319.076 223.46 320.822 223.46C323.648 223.46 325.592 225.512 325.592 228.338C325.592 231.164 323.648 233.234 320.822 233.234ZM316.862 228.338C316.862 230.624 318.428 232.226 320.714 232.226C323 232.226 324.548 230.624 324.548 228.338C324.548 226.07 323 224.468 320.714 224.468C318.428 224.468 316.862 226.07 316.862 228.338ZM331.286 233.144C329.126 233.144 327.776 232.082 327.776 230.372C327.776 228.716 329.036 227.672 330.944 227.672H335.048V227.006C335.048 225.458 333.914 224.432 332.186 224.432C330.782 224.432 329.684 225.152 329.306 226.268H328.244C328.694 224.54 330.188 223.46 332.168 223.46C334.49 223.46 336.092 224.882 336.092 226.952V233H335.228L335.12 231.398C334.31 232.514 332.942 233.144 331.286 233.144ZM328.82 230.354C328.82 231.488 329.774 232.208 331.322 232.208C333.482 232.208 335.066 230.858 335.066 228.986V228.59H330.98C329.702 228.59 328.82 229.292 328.82 230.354ZM339.602 233V223.694H340.484L340.592 225.782C341.222 224.378 342.284 223.694 344.012 223.694H344.786V224.666H343.976C341.978 224.666 340.646 225.89 340.646 228.716V233H339.602ZM349.567 233.144C347.407 233.144 346.057 232.082 346.057 230.372C346.057 228.716 347.317 227.672 349.225 227.672H353.329V227.006C353.329 225.458 352.195 224.432 350.467 224.432C349.063 224.432 347.965 225.152 347.587 226.268H346.525C346.975 224.54 348.469 223.46 350.449 223.46C352.771 223.46 354.373 224.882 354.373 226.952V233H353.509L353.401 231.398C352.591 232.514 351.223 233.144 349.567 233.144ZM347.101 230.354C347.101 231.488 348.055 232.208 349.603 232.208C351.763 232.208 353.347 230.858 353.347 228.986V228.59H349.261C347.983 228.59 347.101 229.292 347.101 230.354ZM366.22 233.234C363.394 233.234 361.468 231.236 361.468 228.338C361.468 225.458 363.412 223.46 366.238 223.46C369.172 223.46 371.062 225.62 370.99 228.77H362.53C362.71 230.876 364.15 232.244 366.22 232.244C367.732 232.244 368.938 231.542 369.55 230.336L370.72 230.354C370 232.136 368.308 233.234 366.22 233.234ZM362.53 227.852H369.964C369.712 225.746 368.272 224.45 366.238 224.45C364.168 224.45 362.71 225.8 362.53 227.852ZM373.844 233V219.68H374.888V233H373.844ZM386.991 233.234C384.597 233.234 383.121 231.524 383.121 228.842V223.694H384.165V228.752C384.165 230.876 385.299 232.226 387.135 232.226C389.061 232.226 390.393 230.714 390.393 228.5V223.694H391.437V233H390.573L390.465 231.182C389.745 232.532 388.449 233.234 386.991 233.234ZM398.353 233.234C395.995 233.234 394.501 232.046 394.429 230.192H395.455C395.563 231.506 396.589 232.28 398.371 232.28C400.009 232.28 400.999 231.65 400.999 230.624C400.999 229.652 400.117 229.058 398.137 228.716C395.707 228.302 394.609 227.438 394.609 226.016C394.609 224.432 395.959 223.46 398.137 223.46C400.333 223.46 401.719 224.504 401.863 226.286H400.819C400.711 225.062 399.757 224.396 398.137 224.396C396.589 224.396 395.653 225.026 395.653 226.034C395.653 226.952 396.427 227.456 398.497 227.852C400.855 228.302 402.025 229.238 402.025 230.642C402.025 232.208 400.603 233.234 398.353 233.234ZM408.717 233.234C406.323 233.234 404.847 231.524 404.847 228.842V223.694H405.891V228.752C405.891 230.876 407.025 232.226 408.861 232.226C410.787 232.226 412.119 230.714 412.119 228.5V223.694H413.163V233H412.299L412.191 231.182C411.471 232.532 410.175 233.234 408.717 233.234ZM419.791 233.144C417.631 233.144 416.281 232.082 416.281 230.372C416.281 228.716 417.541 227.672 419.449 227.672H423.553V227.006C423.553 225.458 422.419 224.432 420.691 224.432C419.287 224.432 418.189 225.152 417.811 226.268H416.749C417.199 224.54 418.693 223.46 420.673 223.46C422.995 223.46 424.597 224.882 424.597 226.952V233H423.733L423.625 231.398C422.815 232.514 421.447 233.144 419.791 233.144ZM417.325 230.354C417.325 231.488 418.279 232.208 419.827 232.208C421.987 232.208 423.571 230.858 423.571 228.986V228.59H419.485C418.207 228.59 417.325 229.292 417.325 230.354ZM428.108 233V223.694H428.99L429.098 225.782C429.728 224.378 430.79 223.694 432.518 223.694H433.292V224.666H432.482C430.484 224.666 429.152 225.89 429.152 228.716V233H428.108ZM435.913 233V223.694H436.957V233H435.913ZM435.481 221.048C435.481 220.526 435.859 220.112 436.435 220.112C437.011 220.112 437.389 220.526 437.389 221.048C437.389 221.588 437.011 222.002 436.435 222.002C435.859 222.002 435.481 221.588 435.481 221.048ZM444.745 233.234C441.865 233.234 439.849 231.218 439.849 228.338C439.849 225.476 441.865 223.46 444.745 223.46C447.607 223.46 449.623 225.476 449.623 228.338C449.623 231.218 447.607 233.234 444.745 233.234ZM440.893 228.338C440.893 230.642 442.459 232.226 444.745 232.226C447.013 232.226 448.579 230.642 448.579 228.338C448.579 226.052 447.013 224.468 444.745 224.468C442.459 224.468 440.893 226.052 440.893 228.338Z" fill="black"/>
<path d="M78.8504 88V75.4H83.5124C86.0504 75.4 87.7064 76.93 87.7064 79.324C87.7064 81.412 86.4644 82.834 84.4844 83.176L87.9044 88H86.5904L83.2064 83.266H79.9484V88H78.8504ZM79.9484 82.222H83.4044C85.4024 82.222 86.5904 81.124 86.5904 79.324C86.5904 77.542 85.4024 76.444 83.4044 76.444H79.9484V82.222ZM94.0733 88.234C91.2473 88.234 89.3213 86.236 89.3213 83.338C89.3213 80.458 91.2653 78.46 94.0913 78.46C97.0253 78.46 98.9153 80.62 98.8433 83.77H90.3833C90.5633 85.876 92.0033 87.244 94.0733 87.244C95.5853 87.244 96.7913 86.542 97.4033 85.336L98.5733 85.354C97.8533 87.136 96.1613 88.234 94.0733 88.234ZM90.3833 82.852H97.8173C97.5653 80.746 96.1253 79.45 94.0913 79.45C92.0213 79.45 90.5633 80.8 90.3833 82.852ZM105.64 88.234C102.85 88.234 100.888 86.2 100.888 83.338C100.888 80.476 102.85 78.46 105.64 78.46C107.854 78.46 109.672 79.774 110.212 81.79H109.15C108.538 80.314 107.242 79.468 105.64 79.468C103.444 79.468 101.932 81.052 101.932 83.338C101.932 85.642 103.444 87.226 105.64 87.226C107.35 87.226 108.682 86.272 109.204 84.742H110.302C109.672 86.92 107.926 88.234 105.64 88.234ZM117.227 88.234C114.347 88.234 112.331 86.218 112.331 83.338C112.331 80.476 114.347 78.46 117.227 78.46C120.089 78.46 122.105 80.476 122.105 83.338C122.105 86.218 120.089 88.234 117.227 88.234ZM113.375 83.338C113.375 85.642 114.941 87.226 117.227 87.226C119.495 87.226 121.061 85.642 121.061 83.338C121.061 81.052 119.495 79.468 117.227 79.468C114.941 79.468 113.375 81.052 113.375 83.338ZM125.006 88V74.68H126.05V88H125.006ZM133.694 88.234C130.868 88.234 128.942 86.236 128.942 83.338C128.942 80.458 130.886 78.46 133.712 78.46C136.646 78.46 138.536 80.62 138.464 83.77H130.004C130.184 85.876 131.624 87.244 133.694 87.244C135.206 87.244 136.412 86.542 137.024 85.336L138.194 85.354C137.474 87.136 135.782 88.234 133.694 88.234ZM130.004 82.852H137.438C137.186 80.746 135.746 79.45 133.712 79.45C131.642 79.45 130.184 80.8 130.004 82.852ZM145.261 88.234C142.471 88.234 140.509 86.2 140.509 83.338C140.509 80.476 142.471 78.46 145.261 78.46C147.475 78.46 149.293 79.774 149.833 81.79H148.771C148.159 80.314 146.863 79.468 145.261 79.468C143.065 79.468 141.553 81.052 141.553 83.338C141.553 85.642 143.065 87.226 145.261 87.226C146.971 87.226 148.303 86.272 148.825 84.742H149.923C149.293 86.92 147.547 88.234 145.261 88.234ZM156.704 88.234C153.914 88.234 151.952 86.2 151.952 83.338C151.952 80.476 153.914 78.46 156.704 78.46C158.918 78.46 160.736 79.774 161.276 81.79H160.214C159.602 80.314 158.306 79.468 156.704 79.468C154.508 79.468 152.996 81.052 152.996 83.338C152.996 85.642 154.508 87.226 156.704 87.226C158.414 87.226 159.746 86.272 160.268 84.742H161.366C160.736 86.92 158.99 88.234 156.704 88.234ZM164.206 88V78.694H165.25V88H164.206ZM163.774 76.048C163.774 75.526 164.152 75.112 164.728 75.112C165.304 75.112 165.682 75.526 165.682 76.048C165.682 76.588 165.304 77.002 164.728 77.002C164.152 77.002 163.774 76.588 163.774 76.048ZM173.038 88.234C170.158 88.234 168.142 86.218 168.142 83.338C168.142 80.476 170.158 78.46 173.038 78.46C175.9 78.46 177.916 80.476 177.916 83.338C177.916 86.218 175.9 88.234 173.038 88.234ZM169.186 83.338C169.186 85.642 170.752 87.226 173.038 87.226C175.306 87.226 176.872 85.642 176.872 83.338C176.872 81.052 175.306 79.468 173.038 79.468C170.752 79.468 169.186 81.052 169.186 83.338ZM172.354 77.146L173.344 74.428H174.46L173.326 77.146H172.354ZM180.817 88V78.694H181.699L181.789 80.494C182.527 79.162 183.823 78.46 185.317 78.46C187.747 78.46 189.241 80.17 189.241 82.852V88H188.197V82.942C188.197 80.8 187.045 79.468 185.191 79.468C183.229 79.468 181.861 80.962 181.861 83.176V88H180.817ZM201.107 88.234C198.299 88.234 196.337 86.164 196.337 83.338C196.337 80.512 198.299 78.46 201.107 78.46C202.817 78.46 204.203 79.216 205.031 80.422V74.68H206.075V88H205.211L205.085 86.164C204.275 87.442 202.853 88.234 201.107 88.234ZM197.381 83.338C197.381 85.624 198.947 87.226 201.233 87.226C203.501 87.226 205.067 85.624 205.067 83.338C205.067 81.07 203.501 79.468 201.233 79.468C198.947 79.468 197.381 81.07 197.381 83.338ZM213.728 88.234C210.902 88.234 208.976 86.236 208.976 83.338C208.976 80.458 210.92 78.46 213.746 78.46C216.68 78.46 218.57 80.62 218.498 83.77H210.038C210.218 85.876 211.658 87.244 213.728 87.244C215.24 87.244 216.446 86.542 217.058 85.336L218.228 85.354C217.508 87.136 215.816 88.234 213.728 88.234ZM210.038 82.852H217.472C217.22 80.746 215.78 79.45 213.746 79.45C211.676 79.45 210.218 80.8 210.038 82.852ZM229.285 88.234C226.477 88.234 224.515 86.164 224.515 83.338C224.515 80.512 226.477 78.46 229.285 78.46C230.995 78.46 232.381 79.216 233.209 80.422V74.68H234.253V88H233.389L233.263 86.164C232.453 87.442 231.031 88.234 229.285 88.234ZM225.559 83.338C225.559 85.624 227.125 87.226 229.411 87.226C231.679 87.226 233.245 85.624 233.245 83.338C233.245 81.07 231.679 79.468 229.411 79.468C227.125 79.468 225.559 81.07 225.559 83.338ZM240.879 88.144C238.719 88.144 237.369 87.082 237.369 85.372C237.369 83.716 238.629 82.672 240.537 82.672H244.641V82.006C244.641 80.458 243.507 79.432 241.779 79.432C240.375 79.432 239.277 80.152 238.899 81.268H237.837C238.287 79.54 239.781 78.46 241.761 78.46C244.083 78.46 245.685 79.882 245.685 81.952V88H244.821L244.713 86.398C243.903 87.514 242.535 88.144 240.879 88.144ZM238.413 85.354C238.413 86.488 239.367 87.208 240.915 87.208C243.075 87.208 244.659 85.858 244.659 83.986V83.59H240.573C239.295 83.59 238.413 84.292 238.413 85.354ZM252.677 88C250.697 88 249.635 86.884 249.635 84.778V79.648H247.601V78.694H248.789C249.491 78.694 249.689 78.514 249.761 77.83L249.851 76.408H250.679V78.694H253.901V79.648H250.679V84.742C250.679 86.272 251.309 86.992 252.713 86.992H254.027V88H252.677ZM260.454 88.234C257.574 88.234 255.558 86.218 255.558 83.338C255.558 80.476 257.574 78.46 260.454 78.46C263.316 78.46 265.332 80.476 265.332 83.338C265.332 86.218 263.316 88.234 260.454 88.234ZM256.602 83.338C256.602 85.642 258.168 87.226 260.454 87.226C262.722 87.226 264.288 85.642 264.288 83.338C264.288 81.052 262.722 79.468 260.454 79.468C258.168 79.468 256.602 81.052 256.602 83.338ZM271.437 88.234C269.079 88.234 267.585 87.046 267.513 85.192H268.539C268.647 86.506 269.673 87.28 271.455 87.28C273.093 87.28 274.083 86.65 274.083 85.624C274.083 84.652 273.201 84.058 271.221 83.716C268.791 83.302 267.693 82.438 267.693 81.016C267.693 79.432 269.043 78.46 271.221 78.46C273.417 78.46 274.803 79.504 274.947 81.286H273.903C273.795 80.062 272.841 79.396 271.221 79.396C269.673 79.396 268.737 80.026 268.737 81.034C268.737 81.952 269.511 82.456 271.581 82.852C273.939 83.302 275.109 84.238 275.109 85.642C275.109 87.208 273.687 88.234 271.437 88.234ZM77.814 114.234C75.006 114.234 73.044 112.164 73.044 109.338C73.044 106.512 75.006 104.46 77.814 104.46C79.524 104.46 80.91 105.216 81.738 106.422V100.68H82.782V114H81.918L81.792 112.164C80.982 113.442 79.56 114.234 77.814 114.234ZM74.088 109.338C74.088 111.624 75.654 113.226 77.94 113.226C80.208 113.226 81.774 111.624 81.774 109.338C81.774 107.07 80.208 105.468 77.94 105.468C75.654 105.468 74.088 107.07 74.088 109.338ZM90.1647 114.234C87.7707 114.234 86.2947 112.524 86.2947 109.842V104.694H87.3387V109.752C87.3387 111.876 88.4727 113.226 90.3087 113.226C92.2347 113.226 93.5667 111.714 93.5667 109.5V104.694H94.6107V114H93.7467L93.6387 112.182C92.9187 113.532 91.6227 114.234 90.1647 114.234ZM98.3228 114V104.694H99.2048L99.3128 106.782C99.9428 105.378 101.005 104.694 102.733 104.694H103.507V105.666H102.697C100.699 105.666 99.3668 106.89 99.3668 109.716V114H98.3228ZM108.288 114.144C106.128 114.144 104.778 113.082 104.778 111.372C104.778 109.716 106.038 108.672 107.946 108.672H112.05V108.006C112.05 106.458 110.916 105.432 109.188 105.432C107.784 105.432 106.686 106.152 106.308 107.268H105.246C105.696 105.54 107.19 104.46 109.17 104.46C111.492 104.46 113.094 105.882 113.094 107.952V114H112.23L112.122 112.398C111.312 113.514 109.944 114.144 108.288 114.144ZM105.822 111.354C105.822 112.488 106.776 113.208 108.324 113.208C110.484 113.208 112.068 111.858 112.068 109.986V109.59H107.982C106.704 109.59 105.822 110.292 105.822 111.354ZM116.604 114V104.694H117.486L117.576 106.494C118.314 105.162 119.61 104.46 121.104 104.46C123.534 104.46 125.028 106.17 125.028 108.852V114H123.984V108.942C123.984 106.8 122.832 105.468 120.978 105.468C119.016 105.468 117.648 106.962 117.648 109.176V114H116.604ZM132.021 114C130.041 114 128.979 112.884 128.979 110.778V105.648H126.945V104.694H128.133C128.835 104.694 129.033 104.514 129.105 103.83L129.195 102.408H130.023V104.694H133.245V105.648H130.023V110.742C130.023 112.272 130.653 112.992 132.057 112.992H133.371V114H132.021ZM139.653 114.234C136.827 114.234 134.901 112.236 134.901 109.338C134.901 106.458 136.845 104.46 139.671 104.46C142.605 104.46 144.495 106.62 144.423 109.77H135.963C136.143 111.876 137.583 113.244 139.653 113.244C141.165 113.244 142.371 112.542 142.983 111.336L144.153 111.354C143.433 113.136 141.741 114.234 139.653 114.234ZM135.963 108.852H143.397C143.145 106.746 141.705 105.45 139.671 105.45C137.601 105.45 136.143 106.8 135.963 108.852ZM154.925 114C152.945 114 151.883 112.884 151.883 110.778V105.648H149.849V104.694H151.037C151.739 104.694 151.937 104.514 152.009 103.83L152.099 102.408H152.927V104.694H156.149V105.648H152.927V110.742C152.927 112.272 153.557 112.992 154.961 112.992H156.275V114H154.925ZM159.073 114V104.694H159.955L160.063 106.782C160.693 105.378 161.755 104.694 163.483 104.694H164.257V105.666H163.447C161.449 105.666 160.117 106.89 160.117 109.716V114H159.073ZM170.099 114.234C167.273 114.234 165.347 112.236 165.347 109.338C165.347 106.458 167.291 104.46 170.117 104.46C173.051 104.46 174.941 106.62 174.869 109.77H166.409C166.589 111.876 168.029 113.244 170.099 113.244C171.611 113.244 172.817 112.542 173.429 111.336L174.599 111.354C173.879 113.136 172.187 114.234 170.099 114.234ZM166.409 108.852H173.843C173.591 106.746 172.151 105.45 170.117 105.45C168.047 105.45 166.589 106.8 166.409 108.852ZM180.927 114.234C178.569 114.234 177.075 113.046 177.003 111.192H178.029C178.137 112.506 179.163 113.28 180.945 113.28C182.583 113.28 183.573 112.65 183.573 111.624C183.573 110.652 182.691 110.058 180.711 109.716C178.281 109.302 177.183 108.438 177.183 107.016C177.183 105.432 178.533 104.46 180.711 104.46C182.907 104.46 184.293 105.504 184.437 107.286H183.393C183.285 106.062 182.331 105.396 180.711 105.396C179.163 105.396 178.227 106.026 178.227 107.034C178.227 107.952 179.001 108.456 181.071 108.852C183.429 109.302 184.599 110.238 184.599 111.642C184.599 113.208 183.177 114.234 180.927 114.234ZM195.569 114.234C192.743 114.234 190.817 112.236 190.817 109.338C190.817 106.458 192.761 104.46 195.587 104.46C198.521 104.46 200.411 106.62 200.339 109.77H191.879C192.059 111.876 193.499 113.244 195.569 113.244C197.081 113.244 198.287 112.542 198.899 111.336L200.069 111.354C199.349 113.136 197.657 114.234 195.569 114.234ZM191.879 108.852H199.313C199.061 106.746 197.621 105.45 195.587 105.45C193.517 105.45 192.059 106.8 191.879 108.852ZM206.675 114C204.695 114 203.633 112.884 203.633 110.778V105.648H201.599V104.694H202.787C203.489 104.694 203.687 104.514 203.759 103.83L203.849 102.408H204.677V104.694H207.899V105.648H204.677V110.742C204.677 112.272 205.307 112.992 206.711 112.992H208.025V114H206.675ZM213.422 114.144C211.262 114.144 209.912 113.082 209.912 111.372C209.912 109.716 211.172 108.672 213.08 108.672H217.184V108.006C217.184 106.458 216.05 105.432 214.322 105.432C212.918 105.432 211.82 106.152 211.442 107.268H210.38C210.83 105.54 212.324 104.46 214.304 104.46C216.626 104.46 218.228 105.882 218.228 107.952V114H217.364L217.256 112.398C216.446 113.514 215.078 114.144 213.422 114.144ZM210.956 111.354C210.956 112.488 211.91 113.208 213.458 113.208C215.618 113.208 217.202 111.858 217.202 109.986V109.59H213.116C211.838 109.59 210.956 110.292 210.956 111.354ZM226.707 114.234C224.997 114.234 223.611 113.46 222.783 112.236V117.6H221.739V104.694H222.621L222.729 106.548C223.539 105.252 224.961 104.46 226.707 104.46C229.533 104.46 231.477 106.512 231.477 109.338C231.477 112.164 229.533 114.234 226.707 114.234ZM222.747 109.338C222.747 111.624 224.313 113.226 226.599 113.226C228.885 113.226 230.433 111.624 230.433 109.338C230.433 107.07 228.885 105.468 226.599 105.468C224.313 105.468 222.747 107.07 222.747 109.338ZM237.17 114.144C235.01 114.144 233.66 113.082 233.66 111.372C233.66 109.716 234.92 108.672 236.828 108.672H240.932V108.006C240.932 106.458 239.798 105.432 238.07 105.432C236.666 105.432 235.568 106.152 235.19 107.268H234.128C234.578 105.54 236.072 104.46 238.052 104.46C240.374 104.46 241.976 105.882 241.976 107.952V114H241.112L241.004 112.398C240.194 113.514 238.826 114.144 237.17 114.144ZM234.704 111.354C234.704 112.488 235.658 113.208 237.206 113.208C239.366 113.208 240.95 111.858 240.95 109.986V109.59H236.864C235.586 109.59 234.704 110.292 234.704 111.354ZM248.691 114.234C246.333 114.234 244.839 113.046 244.767 111.192H245.793C245.901 112.506 246.927 113.28 248.709 113.28C250.347 113.28 251.337 112.65 251.337 111.624C251.337 110.652 250.455 110.058 248.475 109.716C246.045 109.302 244.947 108.438 244.947 107.016C244.947 105.432 246.297 104.46 248.475 104.46C250.671 104.46 252.057 105.504 252.201 107.286H251.157C251.049 106.062 250.095 105.396 248.475 105.396C246.927 105.396 245.991 106.026 245.991 107.034C245.991 107.952 246.765 108.456 248.835 108.852C251.193 109.302 252.363 110.238 252.363 111.642C252.363 113.208 250.941 114.234 248.691 114.234ZM263.351 114.234C260.543 114.234 258.581 112.164 258.581 109.338C258.581 106.512 260.543 104.46 263.351 104.46C265.061 104.46 266.447 105.216 267.275 106.422V100.68H268.319V114H267.455L267.329 112.164C266.519 113.442 265.097 114.234 263.351 114.234ZM259.625 109.338C259.625 111.624 261.191 113.226 263.477 113.226C265.745 113.226 267.311 111.624 267.311 109.338C267.311 107.07 265.745 105.468 263.477 105.468C261.191 105.468 259.625 107.07 259.625 109.338ZM275.972 114.234C273.146 114.234 271.22 112.236 271.22 109.338C271.22 106.458 273.164 104.46 275.99 104.46C278.924 104.46 280.814 106.62 280.742 109.77H272.282C272.462 111.876 273.902 113.244 275.972 113.244C277.484 113.244 278.69 112.542 279.302 111.336L280.472 111.354C279.752 113.136 278.06 114.234 275.972 114.234ZM272.282 108.852H279.716C279.464 106.746 278.024 105.45 275.99 105.45C273.92 105.45 272.462 106.8 272.282 108.852ZM283.596 114V100.68H284.64V114H283.596ZM77.526 140.234C75.132 140.234 73.656 138.524 73.656 135.842V130.694H74.7V135.752C74.7 137.876 75.834 139.226 77.67 139.226C79.596 139.226 80.928 137.714 80.928 135.5V130.694H81.972V140H81.108L81 138.182C80.28 139.532 78.984 140.234 77.526 140.234ZM88.8881 140.234C86.5301 140.234 85.0361 139.046 84.9641 137.192H85.9901C86.0981 138.506 87.1241 139.28 88.9061 139.28C90.5441 139.28 91.5341 138.65 91.5341 137.624C91.5341 136.652 90.6521 136.058 88.6721 135.716C86.2421 135.302 85.1441 134.438 85.1441 133.016C85.1441 131.432 86.4941 130.46 88.6721 130.46C90.8681 130.46 92.2541 131.504 92.3981 133.286H91.3541C91.2461 132.062 90.2921 131.396 88.6721 131.396C87.1241 131.396 86.1881 132.026 86.1881 133.034C86.1881 133.952 86.9621 134.456 89.0321 134.852C91.3901 135.302 92.5601 136.238 92.5601 137.642C92.5601 139.208 91.1381 140.234 88.8881 140.234ZM99.2526 140.234C96.8586 140.234 95.3826 138.524 95.3826 135.842V130.694H96.4266V135.752C96.4266 137.876 97.5606 139.226 99.3966 139.226C101.323 139.226 102.655 137.714 102.655 135.5V130.694H103.699V140H102.835L102.727 138.182C102.007 139.532 100.711 140.234 99.2526 140.234ZM110.327 140.144C108.167 140.144 106.817 139.082 106.817 137.372C106.817 135.716 108.077 134.672 109.985 134.672H114.089V134.006C114.089 132.458 112.955 131.432 111.227 131.432C109.823 131.432 108.725 132.152 108.347 133.268H107.285C107.735 131.54 109.229 130.46 111.209 130.46C113.531 130.46 115.133 131.882 115.133 133.952V140H114.269L114.161 138.398C113.351 139.514 111.983 140.144 110.327 140.144ZM107.861 137.354C107.861 138.488 108.815 139.208 110.363 139.208C112.523 139.208 114.107 137.858 114.107 135.986V135.59H110.021C108.743 135.59 107.861 136.292 107.861 137.354ZM118.643 140V130.694H119.525L119.633 132.782C120.263 131.378 121.325 130.694 123.053 130.694H123.827V131.666H123.017C121.019 131.666 119.687 132.89 119.687 135.716V140H118.643ZM126.448 140V130.694H127.492V140H126.448ZM126.016 128.048C126.016 127.526 126.394 127.112 126.97 127.112C127.546 127.112 127.924 127.526 127.924 128.048C127.924 128.588 127.546 129.002 126.97 129.002C126.394 129.002 126.016 128.588 126.016 128.048ZM135.28 140.234C132.4 140.234 130.384 138.218 130.384 135.338C130.384 132.476 132.4 130.46 135.28 130.46C138.142 130.46 140.158 132.476 140.158 135.338C140.158 138.218 138.142 140.234 135.28 140.234ZM131.428 135.338C131.428 137.642 132.994 139.226 135.28 139.226C137.548 139.226 139.114 137.642 139.114 135.338C139.114 133.052 137.548 131.468 135.28 131.468C132.994 131.468 131.428 133.052 131.428 135.338Z" fill="black"/>
<defs>
<filter id="filter0_d_924_45177" x="465.156" y="0" width="356.844" height="292.807" filterUnits="userSpaceOnUse" color-interpolation-filters="sRGB">
<feFlood flood-opacity="0" result="BackgroundImageFix"/>
<feColorMatrix in="SourceAlpha" type="matrix" values="0 0 0 0 0 0 0 0 0 0 0 0 0 0 0 0 0 0 127 0" result="hardAlpha"/>
<feMorphology radius="5" operator="dilate" in="SourceAlpha" result="effect1_dropShadow_924_45177"/>
<feOffset dy="4"/>
<feGaussianBlur stdDeviation="10"/>
<feComposite in2="hardAlpha" operator="out"/>
<feColorMatrix type="matrix" values="0 0 0 0 0 0 0 0 0 0 0 0 0 0 0 0 0 0 0.1 0"/>
<feBlend mode="normal" in2="BackgroundImageFix" result="effect1_dropShadow_924_45177"/>
<feBlend mode="normal" in="SourceGraphic" in2="effect1_dropShadow_924_45177" result="shape"/>
</filter>
<filter id="filter1_d_924_45177" x="0" y="0" width="356.844" height="292.807" filterUnits="userSpaceOnUse" color-interpolation-filters="sRGB">
<feFlood flood-opacity="0" result="BackgroundImageFix"/>
<feColorMatrix in="SourceAlpha" type="matrix" values="0 0 0 0 0 0 0 0 0 0 0 0 0 0 0 0 0 0 127 0" result="hardAlpha"/>
<feMorphology radius="5" operator="dilate" in="SourceAlpha" result="effect1_dropShadow_924_45177"/>
<feOffset dy="4"/>
<feGaussianBlur stdDeviation="10"/>
<feComposite in2="hardAlpha" operator="out"/>
<feColorMatrix type="matrix" values="0 0 0 0 0 0 0 0 0 0 0 0 0 0 0 0 0 0 0.1 0"/>
<feBlend mode="normal" in2="BackgroundImageFix" result="effect1_dropShadow_924_45177"/>
<feBlend mode="normal" in="SourceGraphic" in2="effect1_dropShadow_924_45177" result="shape"/>
</filter>
<filter id="filter2_d_924_45177" x="209.008" y="104.061" width="400.422" height="327.492" filterUnits="userSpaceOnUse" color-interpolation-filters="sRGB">
<feFlood flood-opacity="0" result="BackgroundImageFix"/>
<feColorMatrix in="SourceAlpha" type="matrix" values="0 0 0 0 0 0 0 0 0 0 0 0 0 0 0 0 0 0 127 0" result="hardAlpha"/>
<feMorphology radius="5" operator="dilate" in="SourceAlpha" result="effect1_dropShadow_924_45177"/>
<feOffset dy="4"/>
<feGaussianBlur stdDeviation="10"/>
<feComposite in2="hardAlpha" operator="out"/>
<feColorMatrix type="matrix" values="0 0 0 0 0 0 0 0 0 0 0 0 0 0 0 0 0 0 0.1 0"/>
<feBlend mode="normal" in2="BackgroundImageFix" result="effect1_dropShadow_924_45177"/>
<feBlend mode="normal" in="SourceGraphic" in2="effect1_dropShadow_924_45177" result="shape"/>
</filter>
<clipPath id="clip0_924_45177">
<rect width="106.728" height="106.728" fill="white" transform="translate(105.938 194.871) rotate(-54.4833)"/>
</clipPath>
<clipPath id="clip1_924_45177">
<rect width="106.728" height="106.728" fill="white" transform="translate(359.414 250.465)"/>
</clipPath>
</defs>
</svg>
