<svg width="822" height="420" viewBox="0 0 822 420" fill="none" xmlns="http://www.w3.org/2000/svg">
<g filter="url(#filter0_d_924_45249)">
<ellipse cx="643.578" cy="142.403" rx="153.422" ry="121.403" fill="#F6F5FF"/>
</g>
<path d="M612 201.323V217.999H628.676L677.86 168.815L661.184 152.139L612 201.323ZM624.985 209.105H620.894V205.014L661.184 164.724L665.275 168.815L624.985 209.105ZM690.756 149.649L680.35 139.243C679.461 138.353 678.349 137.953 677.193 137.953C676.037 137.953 674.925 138.398 674.08 139.243L665.942 147.381L682.618 164.057L690.756 155.919C692.491 154.185 692.491 151.383 690.756 149.649Z" fill="black" fill-opacity="0.54"/>
<g filter="url(#filter1_d_924_45249)">
<ellipse cx="178.422" cy="142.403" rx="153.422" ry="121.403" fill="#F6F5FF"/>
</g>
<g clip-path="url(#clip0_924_45249)">
<path d="M151.417 167.252L140.558 159.502L144.703 184.314L169.515 180.17L158.656 172.419C167.207 160.438 183.894 157.651 195.875 166.202C199.53 168.811 202.359 172.196 204.201 175.969L213.258 174.457C210.821 168.456 206.724 163.019 201.042 158.963C185.043 147.544 162.836 151.254 151.417 167.252ZM202.092 203.42C193.541 215.401 176.854 218.189 164.873 209.638C161.218 207.028 158.389 203.643 156.547 199.87L147.49 201.383C149.927 207.384 154.024 212.821 159.706 216.877C175.705 228.296 197.912 224.586 209.331 208.587L220.19 216.338L216.045 191.525L191.233 195.67L202.092 203.42Z" fill="black" fill-opacity="0.54"/>
</g>
<g filter="url(#filter2_d_924_45249)">
<ellipse cx="409.22" cy="263.807" rx="175.212" ry="138.747" fill="#F6F5FF"/>
</g>
<g clip-path="url(#clip1_924_45249)">
<path d="M390.543 291.152C399.126 291.152 406.108 284.171 406.108 275.588C406.108 267.005 399.126 260.023 390.543 260.023C381.96 260.023 374.979 267.005 374.979 275.588C374.979 284.171 381.96 291.152 390.543 291.152ZM390.543 268.917C394.234 268.917 397.214 271.897 397.214 275.588C397.214 279.279 394.234 282.258 390.543 282.258C386.852 282.258 383.873 279.279 383.873 275.588C383.873 271.897 386.852 268.917 390.543 268.917ZM390.765 313.387H371.732C376.135 311.164 383.739 308.94 390.543 308.94C391.032 308.94 391.566 308.985 392.055 308.985C393.567 305.739 396.191 303.07 399.348 300.936C396.102 300.358 393.033 300.046 390.543 300.046C380.137 300.046 359.414 305.249 359.414 315.611V322.282H390.543V315.611C390.543 314.855 390.632 314.099 390.765 313.387ZM423.896 302.27C415.713 302.27 399.437 306.761 399.437 315.611V322.282H448.354V315.611C448.354 306.761 432.078 302.27 423.896 302.27ZM429.277 294.176C432.656 292.264 435.013 288.662 435.013 284.482C435.013 278.345 430.033 273.364 423.896 273.364C417.759 273.364 412.778 278.345 412.778 284.482C412.778 288.662 415.135 292.264 418.515 294.176C420.116 295.066 421.939 295.599 423.896 295.599C425.852 295.599 427.676 295.066 429.277 294.176Z" fill="black" fill-opacity="0.54"/>
</g>
<path d="M561.034 89V76.4H568.45V77.426H562.132V82.07H567.982V83.078H562.132V87.974H568.648V89H561.034ZM571.823 89V79.694H572.705L572.795 81.494C573.533 80.162 574.829 79.46 576.323 79.46C578.753 79.46 580.247 81.17 580.247 83.852V89H579.203V83.942C579.203 81.8 578.051 80.468 576.197 80.468C574.235 80.468 572.867 81.962 572.867 84.176V89H571.823ZM587.239 89C585.259 89 584.197 87.884 584.197 85.778V80.648H582.163V79.694H583.351C584.053 79.694 584.251 79.514 584.323 78.83L584.413 77.408H585.241V79.694H588.463V80.648H585.241V85.742C585.241 87.272 585.871 87.992 587.275 87.992H588.589V89H587.239ZM591.387 89V79.694H592.431V89H591.387ZM590.955 77.048C590.955 76.526 591.333 76.112 591.909 76.112C592.485 76.112 592.863 76.526 592.863 77.048C592.863 77.588 592.485 78.002 591.909 78.002C591.333 78.002 590.955 77.588 590.955 77.048ZM600.075 89.234C597.249 89.234 595.323 87.236 595.323 84.338C595.323 81.458 597.267 79.46 600.093 79.46C603.027 79.46 604.917 81.62 604.845 84.77H596.385C596.565 86.876 598.005 88.244 600.075 88.244C601.587 88.244 602.793 87.542 603.405 86.336L604.575 86.354C603.855 88.136 602.163 89.234 600.075 89.234ZM596.385 83.852H603.819C603.567 81.746 602.127 80.45 600.093 80.45C598.023 80.45 596.565 81.8 596.385 83.852ZM598.653 75.428H599.787L600.777 78.146H599.787L598.653 75.428ZM607.7 89V79.694H608.582L608.69 81.782C609.32 80.378 610.382 79.694 612.11 79.694H612.884V80.666H612.074C610.076 80.666 608.744 81.89 608.744 84.716V89H607.7ZM618.726 89.234C615.9 89.234 613.974 87.236 613.974 84.338C613.974 81.458 615.918 79.46 618.744 79.46C621.678 79.46 623.568 81.62 623.496 84.77H615.036C615.216 86.876 616.656 88.244 618.726 88.244C620.238 88.244 621.444 87.542 622.056 86.336L623.226 86.354C622.506 88.136 620.814 89.234 618.726 89.234ZM615.036 83.852H622.47C622.218 81.746 620.778 80.45 618.744 80.45C616.674 80.45 615.216 81.8 615.036 83.852ZM626.35 89V79.694H627.232L627.322 81.206C627.97 80.072 629.104 79.46 630.544 79.46C632.164 79.46 633.406 80.27 633.946 81.692C634.576 80.27 635.854 79.46 637.492 79.46C639.832 79.46 641.344 81.062 641.344 83.654V89H640.3V83.816C640.3 81.746 639.148 80.468 637.366 80.468C635.548 80.468 634.36 81.782 634.36 83.888V89H633.316V83.816C633.316 81.746 632.182 80.468 630.4 80.468C628.582 80.468 627.394 81.782 627.394 83.888V89H626.35ZM648.784 89.234C645.958 89.234 644.032 87.236 644.032 84.338C644.032 81.458 645.976 79.46 648.802 79.46C651.736 79.46 653.626 81.62 653.554 84.77H645.094C645.274 86.876 646.714 88.244 648.784 88.244C650.296 88.244 651.502 87.542 652.114 86.336L653.284 86.354C652.564 88.136 650.872 89.234 648.784 89.234ZM645.094 83.852H652.528C652.276 81.746 650.836 80.45 648.802 80.45C646.732 80.45 645.274 81.8 645.094 83.852ZM656.409 89V79.694H657.291L657.381 81.494C658.119 80.162 659.415 79.46 660.909 79.46C663.339 79.46 664.833 81.17 664.833 83.852V89H663.789V83.942C663.789 81.8 662.637 80.468 660.783 80.468C658.821 80.468 657.453 81.962 657.453 84.176V89H656.409ZM671.825 89C669.845 89 668.783 87.884 668.783 85.778V80.648H666.749V79.694H667.937C668.639 79.694 668.837 79.514 668.909 78.83L668.999 77.408H669.827V79.694H673.049V80.648H669.827V85.742C669.827 87.272 670.457 87.992 671.861 87.992H673.175V89H671.825ZM565.822 115.234C564.112 115.234 562.726 114.46 561.898 113.236V118.6H560.854V105.694H561.736L561.844 107.548C562.654 106.252 564.076 105.46 565.822 105.46C568.648 105.46 570.592 107.512 570.592 110.338C570.592 113.164 568.648 115.234 565.822 115.234ZM561.862 110.338C561.862 112.624 563.428 114.226 565.714 114.226C568 114.226 569.548 112.624 569.548 110.338C569.548 108.07 568 106.468 565.714 106.468C563.428 106.468 561.862 108.07 561.862 110.338ZM577.435 115.234C574.609 115.234 572.683 113.236 572.683 110.338C572.683 107.458 574.627 105.46 577.453 105.46C580.387 105.46 582.277 107.62 582.205 110.77H573.745C573.925 112.876 575.365 114.244 577.435 114.244C578.947 114.244 580.153 113.542 580.765 112.336L581.935 112.354C581.215 114.136 579.523 115.234 577.435 115.234ZM573.745 109.852H581.179C580.927 107.746 579.487 106.45 577.453 106.45C575.383 106.45 573.925 107.8 573.745 109.852ZM585.059 115V105.694H585.941L586.049 107.782C586.679 106.378 587.741 105.694 589.469 105.694H590.243V106.666H589.433C587.435 106.666 586.103 107.89 586.103 110.716V115H585.059ZM595.54 115.234C593.182 115.234 591.688 114.046 591.616 112.192H592.642C592.75 113.506 593.776 114.28 595.558 114.28C597.196 114.28 598.186 113.65 598.186 112.624C598.186 111.652 597.304 111.058 595.324 110.716C592.894 110.302 591.796 109.438 591.796 108.016C591.796 106.432 593.146 105.46 595.324 105.46C597.52 105.46 598.906 106.504 599.05 108.286H598.006C597.898 107.062 596.944 106.396 595.324 106.396C593.776 106.396 592.84 107.026 592.84 108.034C592.84 108.952 593.614 109.456 595.684 109.852C598.042 110.302 599.212 111.238 599.212 112.642C599.212 114.208 597.79 115.234 595.54 115.234ZM606.319 115.234C603.439 115.234 601.423 113.218 601.423 110.338C601.423 107.476 603.439 105.46 606.319 105.46C609.181 105.46 611.197 107.476 611.197 110.338C611.197 113.218 609.181 115.234 606.319 115.234ZM602.467 110.338C602.467 112.642 604.033 114.226 606.319 114.226C608.587 114.226 610.153 112.642 610.153 110.338C610.153 108.052 608.587 106.468 606.319 106.468C604.033 106.468 602.467 108.052 602.467 110.338ZM614.098 115V105.694H614.98L615.07 107.494C615.808 106.162 617.104 105.46 618.598 105.46C621.028 105.46 622.522 107.17 622.522 109.852V115H621.478V109.942C621.478 107.8 620.326 106.468 618.472 106.468C616.51 106.468 615.142 107.962 615.142 110.176V115H614.098ZM626.034 115V105.694H626.916L627.006 107.494C627.744 106.162 629.04 105.46 630.534 105.46C632.964 105.46 634.458 107.17 634.458 109.852V115H633.414V109.942C633.414 107.8 632.262 106.468 630.408 106.468C628.446 106.468 627.078 107.962 627.078 110.176V115H626.034ZM640.885 115.144C638.725 115.144 637.375 114.082 637.375 112.372C637.375 110.716 638.635 109.672 640.543 109.672H644.647V109.006C644.647 107.458 643.513 106.432 641.785 106.432C640.381 106.432 639.283 107.152 638.905 108.268H637.843C638.293 106.54 639.787 105.46 641.767 105.46C644.089 105.46 645.691 106.882 645.691 108.952V115H644.827L644.719 113.398C643.909 114.514 642.541 115.144 640.885 115.144ZM638.419 112.354C638.419 113.488 639.373 114.208 640.921 114.208C643.081 114.208 644.665 112.858 644.665 110.986V110.59H640.579C639.301 110.59 638.419 111.292 638.419 112.354ZM649.202 115V101.68H650.246V115H649.202ZM653.948 115V105.694H654.992V115H653.948ZM653.516 103.048C653.516 102.526 653.894 102.112 654.47 102.112C655.046 102.112 655.424 102.526 655.424 103.048C655.424 103.588 655.046 104.002 654.47 104.002C653.894 104.002 653.516 103.588 653.516 103.048ZM661.898 115.234C659.54 115.234 658.046 114.046 657.974 112.192H659C659.108 113.506 660.134 114.28 661.916 114.28C663.554 114.28 664.544 113.65 664.544 112.624C664.544 111.652 663.662 111.058 661.682 110.716C659.252 110.302 658.154 109.438 658.154 108.016C658.154 106.432 659.504 105.46 661.682 105.46C663.878 105.46 665.264 106.504 665.408 108.286H664.364C664.256 107.062 663.302 106.396 661.682 106.396C660.134 106.396 659.198 107.026 659.198 108.034C659.198 108.952 659.972 109.456 662.042 109.852C664.4 110.302 665.57 111.238 665.57 112.642C665.57 114.208 664.148 115.234 661.898 115.234ZM672.532 115.234C669.706 115.234 667.78 113.236 667.78 110.338C667.78 107.458 669.724 105.46 672.55 105.46C675.484 105.46 677.374 107.62 677.302 110.77H668.842C669.022 112.876 670.462 114.244 672.532 114.244C674.044 114.244 675.25 113.542 675.862 112.336L677.032 112.354C676.312 114.136 674.62 115.234 672.532 115.234ZM668.842 109.852H676.276C676.024 107.746 674.584 106.45 672.55 106.45C670.48 106.45 669.022 107.8 668.842 109.852ZM671.866 104.146L672.856 101.428H673.99L672.856 104.146H671.866ZM688.071 115.234C685.245 115.234 683.319 113.236 683.319 110.338C683.319 107.458 685.263 105.46 688.089 105.46C691.023 105.46 692.913 107.62 692.841 110.77H684.381C684.561 112.876 686.001 114.244 688.071 114.244C689.583 114.244 690.789 113.542 691.401 112.336L692.571 112.354C691.851 114.136 690.159 115.234 688.071 115.234ZM684.381 109.852H691.815C691.563 107.746 690.123 106.45 688.089 106.45C686.019 106.45 684.561 107.8 684.381 109.852ZM699.177 115C697.197 115 696.135 113.884 696.135 111.778V106.648H694.101V105.694H695.289C695.991 105.694 696.189 105.514 696.261 104.83L696.351 103.408H697.179V105.694H700.401V106.648H697.179V111.742C697.179 113.272 697.809 113.992 699.213 113.992H700.527V115H699.177ZM563.77 141.144C561.61 141.144 560.26 140.082 560.26 138.372C560.26 136.716 561.52 135.672 563.428 135.672H567.532V135.006C567.532 133.458 566.398 132.432 564.67 132.432C563.266 132.432 562.168 133.152 561.79 134.268H560.728C561.178 132.54 562.672 131.46 564.652 131.46C566.974 131.46 568.576 132.882 568.576 134.952V141H567.712L567.604 139.398C566.794 140.514 565.426 141.144 563.77 141.144ZM561.304 138.354C561.304 139.488 562.258 140.208 563.806 140.208C565.966 140.208 567.55 138.858 567.55 136.986V136.59H563.464C562.186 136.59 561.304 137.292 561.304 138.354ZM576.046 141.234C573.238 141.234 571.276 139.164 571.276 136.338C571.276 133.512 573.238 131.46 576.046 131.46C577.756 131.46 579.142 132.216 579.97 133.422V127.68H581.014V141H580.15L580.024 139.164C579.214 140.442 577.792 141.234 576.046 141.234ZM572.32 136.338C572.32 138.624 573.886 140.226 576.172 140.226C578.44 140.226 580.006 138.624 580.006 136.338C580.006 134.07 578.44 132.468 576.172 132.468C573.886 132.468 572.32 134.07 572.32 136.338ZM587.641 141.144C585.481 141.144 584.131 140.082 584.131 138.372C584.131 136.716 585.391 135.672 587.299 135.672H591.403V135.006C591.403 133.458 590.269 132.432 588.541 132.432C587.137 132.432 586.039 133.152 585.661 134.268H584.599C585.049 132.54 586.543 131.46 588.523 131.46C590.845 131.46 592.447 132.882 592.447 134.952V141H591.583L591.475 139.398C590.665 140.514 589.297 141.144 587.641 141.144ZM585.175 138.354C585.175 139.488 586.129 140.208 587.677 140.208C589.837 140.208 591.421 138.858 591.421 136.986V136.59H587.335C586.057 136.59 585.175 137.292 585.175 138.354ZM600.926 141.234C599.216 141.234 597.83 140.46 597.002 139.236V144.6H595.958V131.694H596.84L596.948 133.548C597.758 132.252 599.18 131.46 600.926 131.46C603.752 131.46 605.696 133.512 605.696 136.338C605.696 139.164 603.752 141.234 600.926 141.234ZM596.966 136.338C596.966 138.624 598.532 140.226 600.818 140.226C603.104 140.226 604.652 138.624 604.652 136.338C604.652 134.07 603.104 132.468 600.818 132.468C598.532 132.468 596.966 134.07 596.966 136.338ZM612.077 141C610.097 141 609.035 139.884 609.035 137.778V132.648H607.001V131.694H608.189C608.891 131.694 609.089 131.514 609.161 130.83L609.251 129.408H610.079V131.694H613.301V132.648H610.079V137.742C610.079 139.272 610.709 139.992 612.113 139.992H613.427V141H612.077ZM618.825 141.144C616.665 141.144 615.315 140.082 615.315 138.372C615.315 136.716 616.575 135.672 618.483 135.672H622.587V135.006C622.587 133.458 621.453 132.432 619.725 132.432C618.321 132.432 617.223 133.152 616.845 134.268H615.783C616.233 132.54 617.727 131.46 619.707 131.46C622.029 131.46 623.631 132.882 623.631 134.952V141H622.767L622.659 139.398C621.849 140.514 620.481 141.144 618.825 141.144ZM616.359 138.354C616.359 139.488 617.313 140.208 618.861 140.208C621.021 140.208 622.605 138.858 622.605 136.986V136.59H618.519C617.241 136.59 616.359 137.292 616.359 138.354ZM632.109 141.234C630.363 141.234 628.941 140.424 628.131 139.146L628.023 141H627.141V127.68H628.185V133.458C629.013 132.216 630.399 131.46 632.109 131.46C634.935 131.46 636.879 133.512 636.879 136.338C636.879 139.164 634.935 141.234 632.109 141.234ZM628.149 136.338C628.149 138.624 629.715 140.226 632.001 140.226C634.287 140.226 635.835 138.624 635.835 136.338C635.835 134.07 634.287 132.468 632.001 132.468C629.715 132.468 628.149 134.07 628.149 136.338ZM639.78 141V127.68H640.824V141H639.78ZM648.468 141.234C645.642 141.234 643.716 139.236 643.716 136.338C643.716 133.458 645.66 131.46 648.486 131.46C651.42 131.46 653.31 133.62 653.238 136.77H644.778C644.958 138.876 646.398 140.244 648.468 140.244C649.98 140.244 651.186 139.542 651.798 138.336L652.968 138.354C652.248 140.136 650.556 141.234 648.468 141.234ZM644.778 135.852H652.212C651.96 133.746 650.52 132.45 648.486 132.45C646.416 132.45 644.958 133.8 644.778 135.852Z" fill="black"/>
<path d="M316.034 181V168.4H317.132V179.956H323.522V181H316.034ZM329.112 181.234C326.286 181.234 324.36 179.236 324.36 176.338C324.36 173.458 326.304 171.46 329.13 171.46C332.064 171.46 333.954 173.62 333.882 176.77H325.422C325.602 178.876 327.042 180.244 329.112 180.244C330.624 180.244 331.83 179.542 332.442 178.336L333.612 178.354C332.892 180.136 331.2 181.234 329.112 181.234ZM325.422 175.852H332.856C332.604 173.746 331.164 172.45 329.13 172.45C327.06 172.45 325.602 173.8 325.422 175.852ZM344.669 181.234C341.861 181.234 339.899 179.164 339.899 176.338C339.899 173.512 341.861 171.46 344.669 171.46C346.379 171.46 347.765 172.216 348.593 173.422V167.68H349.637V181H348.773L348.647 179.164C347.837 180.442 346.415 181.234 344.669 181.234ZM340.943 176.338C340.943 178.624 342.509 180.226 344.795 180.226C347.063 180.226 348.629 178.624 348.629 176.338C348.629 174.07 347.063 172.468 344.795 172.468C342.509 172.468 340.943 174.07 340.943 176.338ZM357.29 181.234C354.464 181.234 352.538 179.236 352.538 176.338C352.538 173.458 354.482 171.46 357.308 171.46C360.242 171.46 362.132 173.62 362.06 176.77H353.6C353.78 178.876 355.22 180.244 357.29 180.244C358.802 180.244 360.008 179.542 360.62 178.336L361.79 178.354C361.07 180.136 359.378 181.234 357.29 181.234ZM353.6 175.852H361.034C360.782 173.746 359.342 172.45 357.308 172.45C355.238 172.45 353.78 173.8 353.6 175.852ZM368.119 181.234C365.761 181.234 364.267 180.046 364.195 178.192H365.221C365.329 179.506 366.355 180.28 368.137 180.28C369.775 180.28 370.765 179.65 370.765 178.624C370.765 177.652 369.883 177.058 367.903 176.716C365.473 176.302 364.375 175.438 364.375 174.016C364.375 172.432 365.725 171.46 367.903 171.46C370.099 171.46 371.485 172.504 371.629 174.286H370.585C370.477 173.062 369.523 172.396 367.903 172.396C366.355 172.396 365.419 173.026 365.419 174.034C365.419 174.952 366.193 175.456 368.263 175.852C370.621 176.302 371.791 177.238 371.791 178.642C371.791 180.208 370.369 181.234 368.119 181.234ZM374.811 181V171.694H375.855V181H374.811ZM374.379 169.048C374.379 168.526 374.757 168.112 375.333 168.112C375.909 168.112 376.287 168.526 376.287 169.048C376.287 169.588 375.909 170.002 375.333 170.002C374.757 170.002 374.379 169.588 374.379 169.048ZM383.643 184.834C381.357 184.834 379.665 183.628 379.305 181.738H380.367C380.673 183.034 381.933 183.844 383.643 183.844C385.785 183.844 387.153 182.584 387.153 180.586V179.074C386.325 180.208 384.993 180.892 383.409 180.892C380.691 180.892 378.747 178.912 378.747 176.176C378.747 173.44 380.691 171.46 383.409 171.46C385.047 171.46 386.397 172.18 387.225 173.368L387.315 171.694H388.197V180.622C388.197 183.124 386.361 184.834 383.643 184.834ZM379.791 176.176C379.791 178.354 381.321 179.866 383.517 179.866C385.695 179.866 387.225 178.354 387.225 176.176C387.225 173.998 385.695 172.468 383.517 172.468C381.321 172.468 379.791 173.998 379.791 176.176ZM391.897 181V171.694H392.779L392.869 173.494C393.607 172.162 394.903 171.46 396.397 171.46C398.827 171.46 400.321 173.17 400.321 175.852V181H399.277V175.942C399.277 173.8 398.125 172.468 396.271 172.468C394.309 172.468 392.941 173.962 392.941 176.176V181H391.897ZM412.169 181.234C409.343 181.234 407.417 179.236 407.417 176.338C407.417 173.458 409.361 171.46 412.187 171.46C415.121 171.46 417.011 173.62 416.939 176.77H408.479C408.659 178.876 410.099 180.244 412.169 180.244C413.681 180.244 414.887 179.542 415.499 178.336L416.669 178.354C415.949 180.136 414.257 181.234 412.169 181.234ZM408.479 175.852H415.913C415.661 173.746 414.221 172.45 412.187 172.45C410.117 172.45 408.659 173.8 408.479 175.852ZM422.997 181.234C420.639 181.234 419.145 180.046 419.073 178.192H420.099C420.207 179.506 421.233 180.28 423.015 180.28C424.653 180.28 425.643 179.65 425.643 178.624C425.643 177.652 424.761 177.058 422.781 176.716C420.351 176.302 419.253 175.438 419.253 174.016C419.253 172.432 420.603 171.46 422.781 171.46C424.977 171.46 426.363 172.504 426.507 174.286H425.463C425.355 173.062 424.401 172.396 422.781 172.396C421.233 172.396 420.297 173.026 420.297 174.034C420.297 174.952 421.071 175.456 423.141 175.852C425.499 176.302 426.669 177.238 426.669 178.642C426.669 180.208 425.247 181.234 422.997 181.234ZM433.206 181C431.226 181 430.164 179.884 430.164 177.778V172.648H428.13V171.694H429.318C430.02 171.694 430.218 171.514 430.29 170.83L430.38 169.408H431.208V171.694H434.43V172.648H431.208V177.742C431.208 179.272 431.838 179.992 433.242 179.992H434.556V181H433.206ZM319.058 207.234C316.7 207.234 315.206 206.046 315.134 204.192H316.16C316.268 205.506 317.294 206.28 319.076 206.28C320.714 206.28 321.704 205.65 321.704 204.624C321.704 203.652 320.822 203.058 318.842 202.716C316.412 202.302 315.314 201.438 315.314 200.016C315.314 198.432 316.664 197.46 318.842 197.46C321.038 197.46 322.424 198.504 322.568 200.286H321.524C321.416 199.062 320.462 198.396 318.842 198.396C317.294 198.396 316.358 199.026 316.358 200.034C316.358 200.952 317.132 201.456 319.202 201.852C321.56 202.302 322.73 203.238 322.73 204.642C322.73 206.208 321.308 207.234 319.058 207.234ZM330.718 207.234C329.008 207.234 327.622 206.46 326.794 205.236V210.6H325.75V197.694H326.632L326.74 199.548C327.55 198.252 328.972 197.46 330.718 197.46C333.544 197.46 335.488 199.512 335.488 202.338C335.488 205.164 333.544 207.234 330.718 207.234ZM326.758 202.338C326.758 204.624 328.324 206.226 330.61 206.226C332.896 206.226 334.444 204.624 334.444 202.338C334.444 200.07 332.896 198.468 330.61 198.468C328.324 198.468 326.758 200.07 326.758 202.338ZM342.331 207.234C339.505 207.234 337.579 205.236 337.579 202.338C337.579 199.458 339.523 197.46 342.349 197.46C345.283 197.46 347.173 199.62 347.101 202.77H338.641C338.821 204.876 340.261 206.244 342.331 206.244C343.843 206.244 345.049 205.542 345.661 204.336L346.831 204.354C346.111 206.136 344.419 207.234 342.331 207.234ZM338.641 201.852H346.075C345.823 199.746 344.383 198.45 342.349 198.45C340.279 198.45 338.821 199.8 338.641 201.852ZM341.665 196.146L342.655 193.428H343.789L342.655 196.146H341.665ZM353.898 207.234C351.108 207.234 349.146 205.2 349.146 202.338C349.146 199.476 351.108 197.46 353.898 197.46C356.112 197.46 357.93 198.774 358.47 200.79H357.408C356.796 199.314 355.5 198.468 353.898 198.468C351.702 198.468 350.19 200.052 350.19 202.338C350.19 204.642 351.702 206.226 353.898 206.226C355.608 206.226 356.94 205.272 357.462 203.742H358.56C357.93 205.92 356.184 207.234 353.898 207.234ZM361.399 207V197.694H362.443V207H361.399ZM360.967 195.048C360.967 194.526 361.345 194.112 361.921 194.112C362.497 194.112 362.875 194.526 362.875 195.048C362.875 195.588 362.497 196.002 361.921 196.002C361.345 196.002 360.967 195.588 360.967 195.048ZM369.061 207.144C366.901 207.144 365.551 206.082 365.551 204.372C365.551 202.716 366.811 201.672 368.719 201.672H372.823V201.006C372.823 199.458 371.689 198.432 369.961 198.432C368.557 198.432 367.459 199.152 367.081 200.268H366.019C366.469 198.54 367.963 197.46 369.943 197.46C372.265 197.46 373.867 198.882 373.867 200.952V207H373.003L372.895 205.398C372.085 206.514 370.717 207.144 369.061 207.144ZM366.595 204.354C366.595 205.488 367.549 206.208 369.097 206.208C371.257 206.208 372.841 204.858 372.841 202.986V202.59H368.755C367.477 202.59 366.595 203.292 366.595 204.354ZM377.377 207V193.68H378.421V207H377.377ZM386.066 207.234C383.24 207.234 381.314 205.236 381.314 202.338C381.314 199.458 383.258 197.46 386.084 197.46C389.018 197.46 390.908 199.62 390.836 202.77H382.376C382.556 204.876 383.996 206.244 386.066 206.244C387.578 206.244 388.784 205.542 389.396 204.336L390.566 204.354C389.846 206.136 388.154 207.234 386.066 207.234ZM382.376 201.852H389.81C389.558 199.746 388.118 198.45 386.084 198.45C384.014 198.45 382.556 199.8 382.376 201.852ZM393.69 207V197.694H394.572L394.662 199.206C395.31 198.072 396.444 197.46 397.884 197.46C399.504 197.46 400.746 198.27 401.286 199.692C401.916 198.27 403.194 197.46 404.832 197.46C407.172 197.46 408.684 199.062 408.684 201.654V207H407.64V201.816C407.64 199.746 406.488 198.468 404.706 198.468C402.888 198.468 401.7 199.782 401.7 201.888V207H400.656V201.816C400.656 199.746 399.522 198.468 397.74 198.468C395.922 198.468 394.734 199.782 394.734 201.888V207H393.69ZM416.124 207.234C413.298 207.234 411.372 205.236 411.372 202.338C411.372 199.458 413.316 197.46 416.142 197.46C419.076 197.46 420.966 199.62 420.894 202.77H412.434C412.614 204.876 414.054 206.244 416.124 206.244C417.636 206.244 418.842 205.542 419.454 204.336L420.624 204.354C419.904 206.136 418.212 207.234 416.124 207.234ZM412.434 201.852H419.868C419.616 199.746 418.176 198.45 416.142 198.45C414.072 198.45 412.614 199.8 412.434 201.852ZM423.749 207V197.694H424.631L424.721 199.494C425.459 198.162 426.755 197.46 428.249 197.46C430.679 197.46 432.173 199.17 432.173 201.852V207H431.129V201.942C431.129 199.8 429.977 198.468 428.123 198.468C426.161 198.468 424.793 199.962 424.793 202.176V207H423.749ZM439.165 207C437.185 207 436.123 205.884 436.123 203.778V198.648H434.089V197.694H435.277C435.979 197.694 436.177 197.514 436.249 196.83L436.339 195.408H437.167V197.694H440.389V198.648H437.167V203.742C437.167 205.272 437.797 205.992 439.201 205.992H440.515V207H439.165ZM451.045 207.144C448.885 207.144 447.535 206.082 447.535 204.372C447.535 202.716 448.795 201.672 450.703 201.672H454.807V201.006C454.807 199.458 453.673 198.432 451.945 198.432C450.541 198.432 449.443 199.152 449.065 200.268H448.003C448.453 198.54 449.947 197.46 451.927 197.46C454.249 197.46 455.851 198.882 455.851 200.952V207H454.987L454.879 205.398C454.069 206.514 452.701 207.144 451.045 207.144ZM448.579 204.354C448.579 205.488 449.533 206.208 451.081 206.208C453.241 206.208 454.825 204.858 454.825 202.986V202.59H450.739C449.461 202.59 448.579 203.292 448.579 204.354ZM463.322 207.234C460.514 207.234 458.552 205.164 458.552 202.338C458.552 199.512 460.514 197.46 463.322 197.46C465.032 197.46 466.418 198.216 467.246 199.422V193.68H468.29V207H467.426L467.3 205.164C466.49 206.442 465.068 207.234 463.322 207.234ZM459.596 202.338C459.596 204.624 461.162 206.226 463.448 206.226C465.716 206.226 467.282 204.624 467.282 202.338C467.282 200.07 465.716 198.468 463.448 198.468C461.162 198.468 459.596 200.07 459.596 202.338ZM474.916 207.144C472.756 207.144 471.406 206.082 471.406 204.372C471.406 202.716 472.666 201.672 474.574 201.672H478.678V201.006C478.678 199.458 477.544 198.432 475.816 198.432C474.412 198.432 473.314 199.152 472.936 200.268H471.874C472.324 198.54 473.818 197.46 475.798 197.46C478.12 197.46 479.722 198.882 479.722 200.952V207H478.858L478.75 205.398C477.94 206.514 476.572 207.144 474.916 207.144ZM472.45 204.354C472.45 205.488 473.404 206.208 474.952 206.208C477.112 206.208 478.696 204.858 478.696 202.986V202.59H474.61C473.332 202.59 472.45 203.292 472.45 204.354ZM488.201 207.234C486.491 207.234 485.105 206.46 484.277 205.236V210.6H483.233V197.694H484.115L484.223 199.548C485.033 198.252 486.455 197.46 488.201 197.46C491.027 197.46 492.971 199.512 492.971 202.338C492.971 205.164 491.027 207.234 488.201 207.234ZM484.241 202.338C484.241 204.624 485.807 206.226 488.093 206.226C490.379 206.226 491.927 204.624 491.927 202.338C491.927 200.07 490.379 198.468 488.093 198.468C485.807 198.468 484.241 200.07 484.241 202.338ZM499.353 207C497.373 207 496.311 205.884 496.311 203.778V198.648H494.277V197.694H495.465C496.167 197.694 496.365 197.514 496.437 196.83L496.527 195.408H497.355V197.694H500.577V198.648H497.355V203.742C497.355 205.272 497.985 205.992 499.389 205.992H500.703V207H499.353ZM506.985 207.234C504.159 207.234 502.233 205.236 502.233 202.338C502.233 199.458 504.177 197.46 507.003 197.46C509.937 197.46 511.827 199.62 511.755 202.77H503.295C503.475 204.876 504.915 206.244 506.985 206.244C508.497 206.244 509.703 205.542 510.315 204.336L511.485 204.354C510.765 206.136 509.073 207.234 506.985 207.234ZM503.295 201.852H510.729C510.477 199.746 509.037 198.45 507.003 198.45C504.933 198.45 503.475 199.8 503.295 201.852ZM506.319 196.146L507.309 193.428H508.443L507.309 196.146H506.319ZM320.822 233.234C319.112 233.234 317.726 232.46 316.898 231.236V236.6H315.854V223.694H316.736L316.844 225.548C317.654 224.252 319.076 223.46 320.822 223.46C323.648 223.46 325.592 225.512 325.592 228.338C325.592 231.164 323.648 233.234 320.822 233.234ZM316.862 228.338C316.862 230.624 318.428 232.226 320.714 232.226C323 232.226 324.548 230.624 324.548 228.338C324.548 226.07 323 224.468 320.714 224.468C318.428 224.468 316.862 226.07 316.862 228.338ZM332.579 233.234C329.699 233.234 327.683 231.218 327.683 228.338C327.683 225.476 329.699 223.46 332.579 223.46C335.441 223.46 337.457 225.476 337.457 228.338C337.457 231.218 335.441 233.234 332.579 233.234ZM328.727 228.338C328.727 230.642 330.293 232.226 332.579 232.226C334.847 232.226 336.413 230.642 336.413 228.338C336.413 226.052 334.847 224.468 332.579 224.468C330.293 224.468 328.727 226.052 328.727 228.338ZM344.03 233.234C341.636 233.234 340.16 231.524 340.16 228.842V223.694H341.204V228.752C341.204 230.876 342.338 232.226 344.174 232.226C346.1 232.226 347.432 230.714 347.432 228.5V223.694H348.476V233H347.612L347.504 231.182C346.784 232.532 345.488 233.234 344.03 233.234ZM352.188 233V223.694H353.07L353.178 225.782C353.808 224.378 354.87 223.694 356.598 223.694H357.372V224.666H356.562C354.564 224.666 353.232 225.89 353.232 228.716V233H352.188ZM364.51 233V219.68H365.554V233H364.51ZM368.914 224.774L368.878 220.4H369.868L369.832 224.774H368.914ZM376.883 233.234C374.489 233.234 373.013 231.524 373.013 228.842V223.694H374.057V228.752C374.057 230.876 375.191 232.226 377.027 232.226C378.953 232.226 380.285 230.714 380.285 228.5V223.694H381.329V233H380.465L380.357 231.182C379.637 232.532 378.341 233.234 376.883 233.234ZM388.822 233C386.842 233 385.78 231.884 385.78 229.778V224.648H383.746V223.694H384.934C385.636 223.694 385.833 223.514 385.906 222.83L385.996 221.408H386.824V223.694H390.046V224.648H386.824V229.742C386.824 231.272 387.454 231.992 388.858 231.992H390.172V233H388.822ZM392.969 233V223.694H394.013V233H392.969ZM392.537 221.048C392.537 220.526 392.915 220.112 393.491 220.112C394.067 220.112 394.445 220.526 394.445 221.048C394.445 221.588 394.067 222.002 393.491 222.002C392.915 222.002 392.537 221.588 392.537 221.048ZM397.715 233V219.68H398.759V233H397.715ZM402.461 233V223.694H403.505V233H402.461ZM402.029 221.048C402.029 220.526 402.407 220.112 402.983 220.112C403.559 220.112 403.937 220.526 403.937 221.048C403.937 221.588 403.559 222.002 402.983 222.002C402.407 222.002 402.029 221.588 402.029 221.048ZM410.412 233.234C408.054 233.234 406.56 232.046 406.488 230.192H407.514C407.622 231.506 408.648 232.28 410.43 232.28C412.068 232.28 413.058 231.65 413.058 230.624C413.058 229.652 412.176 229.058 410.196 228.716C407.766 228.302 406.668 227.438 406.668 226.016C406.668 224.432 408.018 223.46 410.196 223.46C412.392 223.46 413.778 224.504 413.922 226.286H412.878C412.77 225.062 411.816 224.396 410.196 224.396C408.648 224.396 407.712 225.026 407.712 226.034C407.712 226.952 408.486 227.456 410.556 227.852C412.914 228.302 414.084 229.238 414.084 230.642C414.084 232.208 412.662 233.234 410.412 233.234ZM419.915 233.144C417.755 233.144 416.405 232.082 416.405 230.372C416.405 228.716 417.665 227.672 419.573 227.672H423.677V227.006C423.677 225.458 422.543 224.432 420.815 224.432C419.411 224.432 418.313 225.152 417.935 226.268H416.873C417.323 224.54 418.817 223.46 420.797 223.46C423.119 223.46 424.721 224.882 424.721 226.952V233H423.857L423.749 231.398C422.939 232.514 421.571 233.144 419.915 233.144ZM417.449 230.354C417.449 231.488 418.403 232.208 419.951 232.208C422.111 232.208 423.695 230.858 423.695 228.986V228.59H419.609C418.331 228.59 417.449 229.292 417.449 230.354ZM431.712 233C429.732 233 428.67 231.884 428.67 229.778V224.648H426.636V223.694H427.824C428.526 223.694 428.724 223.514 428.796 222.83L428.886 221.408H429.714V223.694H432.936V224.648H429.714V229.742C429.714 231.272 430.344 231.992 431.748 231.992H433.062V233H431.712ZM439.345 233.234C436.519 233.234 434.593 231.236 434.593 228.338C434.593 225.458 436.537 223.46 439.363 223.46C442.297 223.46 444.187 225.62 444.115 228.77H435.655C435.835 230.876 437.275 232.244 439.345 232.244C440.857 232.244 442.063 231.542 442.675 230.336L443.845 230.354C443.125 232.136 441.433 233.234 439.345 233.234ZM435.655 227.852H443.089C442.837 225.746 441.397 224.45 439.363 224.45C437.293 224.45 435.835 225.8 435.655 227.852ZM450.641 233.234C448.247 233.234 446.771 231.524 446.771 228.842V223.694H447.815V228.752C447.815 230.876 448.949 232.226 450.785 232.226C452.711 232.226 454.043 230.714 454.043 228.5V223.694H455.087V233H454.223L454.115 231.182C453.395 232.532 452.099 233.234 450.641 233.234ZM458.799 233V223.694H459.681L459.789 225.782C460.419 224.378 461.481 223.694 463.209 223.694H463.983V224.666H463.173C461.175 224.666 459.843 225.89 459.843 228.716V233H458.799Z" fill="black"/>
<path d="M79.542 88.234C75.834 88.234 73.152 85.534 73.152 81.7C73.152 77.866 75.834 75.166 79.542 75.166C82.422 75.166 84.78 76.84 85.608 79.486H84.456C83.736 77.488 81.864 76.264 79.56 76.264C76.482 76.264 74.268 78.478 74.268 81.7C74.268 84.922 76.482 87.136 79.56 87.136C81.918 87.136 83.862 85.858 84.564 83.77H85.716C84.942 86.488 82.512 88.234 79.542 88.234ZM92.6177 88.234C89.7377 88.234 87.7217 86.218 87.7217 83.338C87.7217 80.476 89.7377 78.46 92.6177 78.46C95.4797 78.46 97.4957 80.476 97.4957 83.338C97.4957 86.218 95.4797 88.234 92.6177 88.234ZM88.7657 83.338C88.7657 85.642 90.3317 87.226 92.6177 87.226C94.8857 87.226 96.4517 85.642 96.4517 83.338C96.4517 81.052 94.8857 79.468 92.6177 79.468C90.3317 79.468 88.7657 81.052 88.7657 83.338ZM100.397 88V74.68H101.441V88H100.397ZM105.143 88V74.68H106.187V88H105.143ZM113.831 88.234C111.005 88.234 109.079 86.236 109.079 83.338C109.079 80.458 111.023 78.46 113.849 78.46C116.783 78.46 118.673 80.62 118.601 83.77H110.141C110.321 85.876 111.761 87.244 113.831 87.244C115.343 87.244 116.549 86.542 117.161 85.336L118.331 85.354C117.611 87.136 115.919 88.234 113.831 88.234ZM110.141 82.852H117.575C117.323 80.746 115.883 79.45 113.849 79.45C111.779 79.45 110.321 80.8 110.141 82.852ZM125.398 88.234C122.608 88.234 120.646 86.2 120.646 83.338C120.646 80.476 122.608 78.46 125.398 78.46C127.612 78.46 129.43 79.774 129.97 81.79H128.908C128.296 80.314 127 79.468 125.398 79.468C123.202 79.468 121.69 81.052 121.69 83.338C121.69 85.642 123.202 87.226 125.398 87.226C127.108 87.226 128.44 86.272 128.962 84.742H130.06C129.43 86.92 127.684 88.234 125.398 88.234ZM136.38 88C134.4 88 133.338 86.884 133.338 84.778V79.648H131.304V78.694H132.492C133.194 78.694 133.392 78.514 133.464 77.83L133.554 76.408H134.382V78.694H137.604V79.648H134.382V84.742C134.382 86.272 135.012 86.992 136.416 86.992H137.73V88H136.38ZM144.013 88.234C141.187 88.234 139.261 86.236 139.261 83.338C139.261 80.458 141.205 78.46 144.031 78.46C146.965 78.46 148.855 80.62 148.783 83.77H140.323C140.503 85.876 141.943 87.244 144.013 87.244C145.525 87.244 146.731 86.542 147.343 85.336L148.513 85.354C147.793 87.136 146.101 88.234 144.013 88.234ZM140.323 82.852H147.757C147.505 80.746 146.065 79.45 144.031 79.45C141.961 79.45 140.503 80.8 140.323 82.852ZM159.57 88.234C156.762 88.234 154.8 86.164 154.8 83.338C154.8 80.512 156.762 78.46 159.57 78.46C161.28 78.46 162.666 79.216 163.494 80.422V74.68H164.538V88H163.674L163.548 86.164C162.738 87.442 161.316 88.234 159.57 88.234ZM155.844 83.338C155.844 85.624 157.41 87.226 159.696 87.226C161.964 87.226 163.53 85.624 163.53 83.338C163.53 81.07 161.964 79.468 159.696 79.468C157.41 79.468 155.844 81.07 155.844 83.338ZM172.191 88.234C169.365 88.234 167.439 86.236 167.439 83.338C167.439 80.458 169.383 78.46 172.209 78.46C175.143 78.46 177.033 80.62 176.961 83.77H168.501C168.681 85.876 170.121 87.244 172.191 87.244C173.703 87.244 174.909 86.542 175.521 85.336L176.691 85.354C175.971 87.136 174.279 88.234 172.191 88.234ZM168.501 82.852H175.935C175.683 80.746 174.243 79.45 172.209 79.45C170.139 79.45 168.681 80.8 168.501 82.852ZM187.748 88.234C184.94 88.234 182.978 86.164 182.978 83.338C182.978 80.512 184.94 78.46 187.748 78.46C189.458 78.46 190.844 79.216 191.672 80.422V74.68H192.716V88H191.852L191.726 86.164C190.916 87.442 189.494 88.234 187.748 88.234ZM184.022 83.338C184.022 85.624 185.588 87.226 187.874 87.226C190.142 87.226 191.708 85.624 191.708 83.338C191.708 81.07 190.142 79.468 187.874 79.468C185.588 79.468 184.022 81.07 184.022 83.338ZM200.512 88.234C197.632 88.234 195.616 86.218 195.616 83.338C195.616 80.476 197.632 78.46 200.512 78.46C203.374 78.46 205.39 80.476 205.39 83.338C205.39 86.218 203.374 88.234 200.512 88.234ZM196.66 83.338C196.66 85.642 198.226 87.226 200.512 87.226C202.78 87.226 204.346 85.642 204.346 83.338C204.346 81.052 202.78 79.468 200.512 79.468C198.226 79.468 196.66 81.052 196.66 83.338ZM208.292 88V78.694H209.174L209.264 80.494C210.002 79.162 211.298 78.46 212.792 78.46C215.222 78.46 216.716 80.17 216.716 82.852V88H215.672V82.942C215.672 80.8 214.52 79.468 212.666 79.468C210.704 79.468 209.336 80.962 209.336 83.176V88H208.292ZM220.227 88V78.694H221.109L221.199 80.494C221.937 79.162 223.233 78.46 224.727 78.46C227.157 78.46 228.651 80.17 228.651 82.852V88H227.607V82.942C227.607 80.8 226.455 79.468 224.601 79.468C222.639 79.468 221.271 80.962 221.271 83.176V88H220.227ZM236.105 88.234C233.279 88.234 231.353 86.236 231.353 83.338C231.353 80.458 233.297 78.46 236.123 78.46C239.057 78.46 240.947 80.62 240.875 83.77H232.415C232.595 85.876 234.035 87.244 236.105 87.244C237.617 87.244 238.823 86.542 239.435 85.336L240.605 85.354C239.885 87.136 238.193 88.234 236.105 88.234ZM232.415 82.852H239.849C239.597 80.746 238.157 79.45 236.123 79.45C234.053 79.45 232.595 80.8 232.415 82.852ZM235.439 77.146L236.429 74.428H237.563L236.429 77.146H235.439ZM247.671 88.234C244.845 88.234 242.919 86.236 242.919 83.338C242.919 80.458 244.863 78.46 247.689 78.46C250.623 78.46 252.513 80.62 252.441 83.77H243.981C244.161 85.876 245.601 87.244 247.671 87.244C249.183 87.244 250.389 86.542 251.001 85.336L252.171 85.354C251.451 87.136 249.759 88.234 247.671 88.234ZM243.981 82.852H251.415C251.163 80.746 249.723 79.45 247.689 79.45C245.619 79.45 244.161 80.8 243.981 82.852ZM258.499 88.234C256.141 88.234 254.647 87.046 254.575 85.192H255.601C255.709 86.506 256.735 87.28 258.517 87.28C260.155 87.28 261.145 86.65 261.145 85.624C261.145 84.652 260.263 84.058 258.283 83.716C255.853 83.302 254.755 82.438 254.755 81.016C254.755 79.432 256.105 78.46 258.283 78.46C260.479 78.46 261.865 79.504 262.009 81.286H260.965C260.857 80.062 259.903 79.396 258.283 79.396C256.735 79.396 255.799 80.026 255.799 81.034C255.799 81.952 256.573 82.456 258.643 82.852C261.001 83.302 262.171 84.238 262.171 85.642C262.171 87.208 260.749 88.234 258.499 88.234ZM78.822 114.234C77.112 114.234 75.726 113.46 74.898 112.236V117.6H73.854V104.694H74.736L74.844 106.548C75.654 105.252 77.076 104.46 78.822 104.46C81.648 104.46 83.592 106.512 83.592 109.338C83.592 112.164 81.648 114.234 78.822 114.234ZM74.862 109.338C74.862 111.624 76.428 113.226 78.714 113.226C81 113.226 82.548 111.624 82.548 109.338C82.548 107.07 81 105.468 78.714 105.468C76.428 105.468 74.862 107.07 74.862 109.338ZM90.4347 114.234C87.6087 114.234 85.6827 112.236 85.6827 109.338C85.6827 106.458 87.6267 104.46 90.4527 104.46C93.3867 104.46 95.2767 106.62 95.2047 109.77H86.7447C86.9247 111.876 88.3647 113.244 90.4347 113.244C91.9467 113.244 93.1527 112.542 93.7647 111.336L94.9347 111.354C94.2147 113.136 92.5227 114.234 90.4347 114.234ZM86.7447 108.852H94.1787C93.9267 106.746 92.4867 105.45 90.4527 105.45C88.3827 105.45 86.9247 106.8 86.7447 108.852ZM98.0591 114V104.694H98.9411L99.0311 106.494C99.7691 105.162 101.065 104.46 102.559 104.46C104.989 104.46 106.483 106.17 106.483 108.852V114H105.439V108.942C105.439 106.8 104.287 105.468 102.433 105.468C100.471 105.468 99.1031 106.962 99.1031 109.176V114H98.0591ZM113.955 114.234C111.147 114.234 109.185 112.164 109.185 109.338C109.185 106.512 111.147 104.46 113.955 104.46C115.665 104.46 117.051 105.216 117.879 106.422V100.68H118.923V114H118.059L117.933 112.164C117.123 113.442 115.701 114.234 113.955 114.234ZM110.229 109.338C110.229 111.624 111.795 113.226 114.081 113.226C116.349 113.226 117.915 111.624 117.915 109.338C117.915 107.07 116.349 105.468 114.081 105.468C111.795 105.468 110.229 107.07 110.229 109.338ZM125.549 114.144C123.389 114.144 122.039 113.082 122.039 111.372C122.039 109.716 123.299 108.672 125.207 108.672H129.311V108.006C129.311 106.458 128.177 105.432 126.449 105.432C125.045 105.432 123.947 106.152 123.569 107.268H122.507C122.957 105.54 124.451 104.46 126.431 104.46C128.753 104.46 130.355 105.882 130.355 107.952V114H129.491L129.383 112.398C128.573 113.514 127.205 114.144 125.549 114.144ZM123.083 111.354C123.083 112.488 124.037 113.208 125.585 113.208C127.745 113.208 129.329 111.858 129.329 109.986V109.59H125.243C123.965 109.59 123.083 110.292 123.083 111.354ZM133.866 114V104.694H134.748L134.838 106.494C135.576 105.162 136.872 104.46 138.366 104.46C140.796 104.46 142.29 106.17 142.29 108.852V114H141.246V108.942C141.246 106.8 140.094 105.468 138.24 105.468C136.278 105.468 134.91 106.962 134.91 109.176V114H133.866ZM149.282 114C147.302 114 146.24 112.884 146.24 110.778V105.648H144.206V104.694H145.394C146.096 104.694 146.294 104.514 146.366 103.83L146.456 102.408H147.284V104.694H150.506V105.648H147.284V110.742C147.284 112.272 147.914 112.992 149.318 112.992H150.632V114H149.282ZM161.499 114C159.519 114 158.457 112.884 158.457 110.778V105.648H156.423V104.694H157.611C158.313 104.694 158.511 104.514 158.583 103.83L158.673 102.408H159.501V104.694H162.723V105.648H159.501V110.742C159.501 112.272 160.131 112.992 161.535 112.992H162.849V114H161.499ZM165.647 114V104.694H166.529L166.637 106.782C167.267 105.378 168.329 104.694 170.057 104.694H170.831V105.666H170.021C168.023 105.666 166.691 106.89 166.691 109.716V114H165.647ZM176.817 114.234C173.937 114.234 171.921 112.218 171.921 109.338C171.921 106.476 173.937 104.46 176.817 104.46C179.679 104.46 181.695 106.476 181.695 109.338C181.695 112.218 179.679 114.234 176.817 114.234ZM172.965 109.338C172.965 111.642 174.531 113.226 176.817 113.226C179.085 113.226 180.651 111.642 180.651 109.338C180.651 107.052 179.085 105.468 176.817 105.468C174.531 105.468 172.965 107.052 172.965 109.338ZM184.596 114V104.694H185.64V114H184.596ZM184.164 102.048C184.164 101.526 184.542 101.112 185.118 101.112C185.694 101.112 186.072 101.526 186.072 102.048C186.072 102.588 185.694 103.002 185.118 103.002C184.542 103.002 184.164 102.588 184.164 102.048ZM192.546 114.234C190.188 114.234 188.694 113.046 188.622 111.192H189.648C189.756 112.506 190.782 113.28 192.564 113.28C194.202 113.28 195.192 112.65 195.192 111.624C195.192 110.652 194.31 110.058 192.33 109.716C189.9 109.302 188.802 108.438 188.802 107.016C188.802 105.432 190.152 104.46 192.33 104.46C194.526 104.46 195.912 105.504 196.056 107.286H195.012C194.904 106.062 193.95 105.396 192.33 105.396C190.782 105.396 189.846 106.026 189.846 107.034C189.846 107.952 190.62 108.456 192.69 108.852C195.048 109.302 196.218 110.238 196.218 111.642C196.218 113.208 194.796 114.234 192.546 114.234ZM207.189 114.234C204.363 114.234 202.437 112.236 202.437 109.338C202.437 106.458 204.381 104.46 207.207 104.46C210.141 104.46 212.031 106.62 211.959 109.77H203.499C203.679 111.876 205.119 113.244 207.189 113.244C208.701 113.244 209.907 112.542 210.519 111.336L211.689 111.354C210.969 113.136 209.277 114.234 207.189 114.234ZM203.499 108.852H210.933C210.681 106.746 209.241 105.45 207.207 105.45C205.137 105.45 203.679 106.8 203.499 108.852ZM206.523 103.146L207.513 100.428H208.647L207.513 103.146H206.523ZM218.294 114C216.314 114 215.252 112.884 215.252 110.778V105.648H213.218V104.694H214.406C215.108 104.694 215.306 104.514 215.378 103.83L215.468 102.408H216.296V104.694H219.518V105.648H216.296V110.742C216.296 112.272 216.926 112.992 218.33 112.992H219.644V114H218.294ZM225.041 114.144C222.881 114.144 221.531 113.082 221.531 111.372C221.531 109.716 222.791 108.672 224.699 108.672H228.803V108.006C228.803 106.458 227.669 105.432 225.941 105.432C224.537 105.432 223.439 106.152 223.061 107.268H221.999C222.449 105.54 223.943 104.46 225.923 104.46C228.245 104.46 229.847 105.882 229.847 107.952V114H228.983L228.875 112.398C228.065 113.514 226.697 114.144 225.041 114.144ZM222.575 111.354C222.575 112.488 223.529 113.208 225.077 113.208C227.237 113.208 228.821 111.858 228.821 109.986V109.59H224.735C223.457 109.59 222.575 110.292 222.575 111.354ZM238.326 114.234C236.616 114.234 235.23 113.46 234.402 112.236V117.6H233.358V104.694H234.24L234.348 106.548C235.158 105.252 236.58 104.46 238.326 104.46C241.152 104.46 243.096 106.512 243.096 109.338C243.096 112.164 241.152 114.234 238.326 114.234ZM234.366 109.338C234.366 111.624 235.932 113.226 238.218 113.226C240.504 113.226 242.052 111.624 242.052 109.338C242.052 107.07 240.504 105.468 238.218 105.468C235.932 105.468 234.366 107.07 234.366 109.338ZM249.939 114.234C247.113 114.234 245.187 112.236 245.187 109.338C245.187 106.458 247.131 104.46 249.957 104.46C252.891 104.46 254.781 106.62 254.709 109.77H246.249C246.429 111.876 247.869 113.244 249.939 113.244C251.451 113.244 252.657 112.542 253.269 111.336L254.439 111.354C253.719 113.136 252.027 114.234 249.939 114.234ZM246.249 108.852H253.683C253.431 106.746 251.991 105.45 249.957 105.45C247.887 105.45 246.429 106.8 246.249 108.852ZM260.767 114.234C258.409 114.234 256.915 113.046 256.843 111.192H257.869C257.977 112.506 259.003 113.28 260.785 113.28C262.423 113.28 263.413 112.65 263.413 111.624C263.413 110.652 262.531 110.058 260.551 109.716C258.121 109.302 257.023 108.438 257.023 107.016C257.023 105.432 258.373 104.46 260.551 104.46C262.747 104.46 264.133 105.504 264.277 107.286H263.233C263.125 106.062 262.171 105.396 260.551 105.396C259.003 105.396 258.067 106.026 258.067 107.034C258.067 107.952 258.841 108.456 260.911 108.852C263.269 109.302 264.439 110.238 264.439 111.642C264.439 113.208 263.017 114.234 260.767 114.234ZM77.814 140.234C75.006 140.234 73.044 138.164 73.044 135.338C73.044 132.512 75.006 130.46 77.814 130.46C79.524 130.46 80.91 131.216 81.738 132.422V126.68H82.782V140H81.918L81.792 138.164C80.982 139.442 79.56 140.234 77.814 140.234ZM74.088 135.338C74.088 137.624 75.654 139.226 77.94 139.226C80.208 139.226 81.774 137.624 81.774 135.338C81.774 133.07 80.208 131.468 77.94 131.468C75.654 131.468 74.088 133.07 74.088 135.338ZM90.4347 140.234C87.6087 140.234 85.6827 138.236 85.6827 135.338C85.6827 132.458 87.6267 130.46 90.4527 130.46C93.3867 130.46 95.2767 132.62 95.2047 135.77H86.7447C86.9247 137.876 88.3647 139.244 90.4347 139.244C91.9467 139.244 93.1527 138.542 93.7647 137.336L94.9347 137.354C94.2147 139.136 92.5227 140.234 90.4347 140.234ZM86.7447 134.852H94.1787C93.9267 132.746 92.4867 131.45 90.4527 131.45C88.3827 131.45 86.9247 132.8 86.7447 134.852ZM102.454 140V126.68H103.498V140H102.454ZM106.858 131.774L106.822 127.4H107.812L107.776 131.774H106.858ZM114.827 140.234C112.433 140.234 110.957 138.524 110.957 135.842V130.694H112.001V135.752C112.001 137.876 113.135 139.226 114.971 139.226C116.897 139.226 118.229 137.714 118.229 135.5V130.694H119.273V140H118.409L118.301 138.182C117.581 139.532 116.285 140.234 114.827 140.234ZM126.765 140C124.785 140 123.723 138.884 123.723 136.778V131.648H121.689V130.694H122.877C123.579 130.694 123.777 130.514 123.849 129.83L123.939 128.408H124.767V130.694H127.989V131.648H124.767V136.742C124.767 138.272 125.397 138.992 126.801 138.992H128.115V140H126.765ZM130.913 140V130.694H131.957V140H130.913ZM130.481 128.048C130.481 127.526 130.859 127.112 131.435 127.112C132.011 127.112 132.389 127.526 132.389 128.048C132.389 128.588 132.011 129.002 131.435 129.002C130.859 129.002 130.481 128.588 130.481 128.048ZM135.659 140V126.68H136.703V140H135.659ZM140.405 140V130.694H141.449V140H140.405ZM139.973 128.048C139.973 127.526 140.351 127.112 140.927 127.112C141.503 127.112 141.881 127.526 141.881 128.048C141.881 128.588 141.503 129.002 140.927 129.002C140.351 129.002 139.973 128.588 139.973 128.048ZM148.355 140.234C145.997 140.234 144.503 139.046 144.431 137.192H145.457C145.565 138.506 146.591 139.28 148.373 139.28C150.011 139.28 151.001 138.65 151.001 137.624C151.001 136.652 150.119 136.058 148.139 135.716C145.709 135.302 144.611 134.438 144.611 133.016C144.611 131.432 145.961 130.46 148.139 130.46C150.335 130.46 151.721 131.504 151.865 133.286H150.821C150.713 132.062 149.759 131.396 148.139 131.396C146.591 131.396 145.655 132.026 145.655 133.034C145.655 133.952 146.429 134.456 148.499 134.852C150.857 135.302 152.027 136.238 152.027 137.642C152.027 139.208 150.605 140.234 148.355 140.234ZM157.858 140.144C155.698 140.144 154.348 139.082 154.348 137.372C154.348 135.716 155.608 134.672 157.516 134.672H161.62V134.006C161.62 132.458 160.486 131.432 158.758 131.432C157.354 131.432 156.256 132.152 155.878 133.268H154.816C155.266 131.54 156.76 130.46 158.74 130.46C161.062 130.46 162.664 131.882 162.664 133.952V140H161.8L161.692 138.398C160.882 139.514 159.514 140.144 157.858 140.144ZM155.392 137.354C155.392 138.488 156.346 139.208 157.894 139.208C160.054 139.208 161.638 137.858 161.638 135.986V135.59H157.552C156.274 135.59 155.392 136.292 155.392 137.354ZM169.655 140C167.675 140 166.613 138.884 166.613 136.778V131.648H164.579V130.694H165.767C166.469 130.694 166.667 130.514 166.739 129.83L166.829 128.408H167.657V130.694H170.879V131.648H167.657V136.742C167.657 138.272 168.287 138.992 169.691 138.992H171.005V140H169.655ZM177.288 140.234C174.462 140.234 172.536 138.236 172.536 135.338C172.536 132.458 174.48 130.46 177.306 130.46C180.24 130.46 182.13 132.62 182.058 135.77H173.598C173.778 137.876 175.218 139.244 177.288 139.244C178.8 139.244 180.006 138.542 180.618 137.336L181.788 137.354C181.068 139.136 179.376 140.234 177.288 140.234ZM173.598 134.852H181.032C180.78 132.746 179.34 131.45 177.306 131.45C175.236 131.45 173.778 132.8 173.598 134.852ZM188.585 140.234C186.191 140.234 184.715 138.524 184.715 135.842V130.694H185.759V135.752C185.759 137.876 186.893 139.226 188.729 139.226C190.655 139.226 191.987 137.714 191.987 135.5V130.694H193.031V140H192.167L192.059 138.182C191.339 139.532 190.043 140.234 188.585 140.234ZM196.743 140V130.694H197.625L197.733 132.782C198.363 131.378 199.425 130.694 201.153 130.694H201.927V131.666H201.117C199.119 131.666 197.787 132.89 197.787 135.716V140H196.743Z" fill="black"/>
<defs>
<filter id="filter0_d_924_45249" x="465.156" y="0" width="356.844" height="292.807" filterUnits="userSpaceOnUse" color-interpolation-filters="sRGB">
<feFlood flood-opacity="0" result="BackgroundImageFix"/>
<feColorMatrix in="SourceAlpha" type="matrix" values="0 0 0 0 0 0 0 0 0 0 0 0 0 0 0 0 0 0 127 0" result="hardAlpha"/>
<feMorphology radius="5" operator="dilate" in="SourceAlpha" result="effect1_dropShadow_924_45249"/>
<feOffset dy="4"/>
<feGaussianBlur stdDeviation="10"/>
<feComposite in2="hardAlpha" operator="out"/>
<feColorMatrix type="matrix" values="0 0 0 0 0 0 0 0 0 0 0 0 0 0 0 0 0 0 0.1 0"/>
<feBlend mode="normal" in2="BackgroundImageFix" result="effect1_dropShadow_924_45249"/>
<feBlend mode="normal" in="SourceGraphic" in2="effect1_dropShadow_924_45249" result="shape"/>
</filter>
<filter id="filter1_d_924_45249" x="0" y="0" width="356.844" height="292.807" filterUnits="userSpaceOnUse" color-interpolation-filters="sRGB">
<feFlood flood-opacity="0" result="BackgroundImageFix"/>
<feColorMatrix in="SourceAlpha" type="matrix" values="0 0 0 0 0 0 0 0 0 0 0 0 0 0 0 0 0 0 127 0" result="hardAlpha"/>
<feMorphology radius="5" operator="dilate" in="SourceAlpha" result="effect1_dropShadow_924_45249"/>
<feOffset dy="4"/>
<feGaussianBlur stdDeviation="10"/>
<feComposite in2="hardAlpha" operator="out"/>
<feColorMatrix type="matrix" values="0 0 0 0 0 0 0 0 0 0 0 0 0 0 0 0 0 0 0.1 0"/>
<feBlend mode="normal" in2="BackgroundImageFix" result="effect1_dropShadow_924_45249"/>
<feBlend mode="normal" in="SourceGraphic" in2="effect1_dropShadow_924_45249" result="shape"/>
</filter>
<filter id="filter2_d_924_45249" x="209.008" y="104.061" width="400.422" height="327.492" filterUnits="userSpaceOnUse" color-interpolation-filters="sRGB">
<feFlood flood-opacity="0" result="BackgroundImageFix"/>
<feColorMatrix in="SourceAlpha" type="matrix" values="0 0 0 0 0 0 0 0 0 0 0 0 0 0 0 0 0 0 127 0" result="hardAlpha"/>
<feMorphology radius="5" operator="dilate" in="SourceAlpha" result="effect1_dropShadow_924_45249"/>
<feOffset dy="4"/>
<feGaussianBlur stdDeviation="10"/>
<feComposite in2="hardAlpha" operator="out"/>
<feColorMatrix type="matrix" values="0 0 0 0 0 0 0 0 0 0 0 0 0 0 0 0 0 0 0.1 0"/>
<feBlend mode="normal" in2="BackgroundImageFix" result="effect1_dropShadow_924_45249"/>
<feBlend mode="normal" in="SourceGraphic" in2="effect1_dropShadow_924_45249" result="shape"/>
</filter>
<clipPath id="clip0_924_45249">
<rect width="106.728" height="106.728" fill="white" transform="translate(105.938 200.355) rotate(-54.4833)"/>
</clipPath>
<clipPath id="clip1_924_45249">
<rect width="106.728" height="106.728" fill="white" transform="translate(359.414 250.465)"/>
</clipPath>
</defs>
</svg>
