<svg width="636" height="316" viewBox="0 0 636 316" fill="none" xmlns="http://www.w3.org/2000/svg">
<path fill-rule="evenodd" clip-rule="evenodd" d="M476.313 315.37L476.109 315.166V0.205856L476.313 0.00195312H477.534L635.218 157.686L477.534 315.37H476.313Z" fill="#F6F5FF"/>
<mask id="path-2-inside-1_924_44937" fill="white">
<path fill-rule="evenodd" clip-rule="evenodd" d="M158.704 315.37L158.5 315.166V0.205856L158.704 0.00195312H159.925L317.609 157.686L159.925 315.37H158.704Z"/>
</mask>
<path fill-rule="evenodd" clip-rule="evenodd" d="M158.704 315.37L158.5 315.166V0.205856L158.704 0.00195312H159.925L317.609 157.686L159.925 315.37H158.704Z" fill="#F6F5FF"/>
<path d="M158.704 315.37L157.997 316.077L158.29 316.37H158.704V315.37ZM158.5 315.166H157.5V315.58L157.793 315.873L158.5 315.166ZM158.5 0.205856L157.793 -0.50125L157.5 -0.208357V0.205856H158.5ZM158.704 0.00195312V-0.998047H158.29L157.997 -0.705154L158.704 0.00195312ZM159.925 0.00195312L160.632 -0.705154L160.339 -0.998047H159.925V0.00195312ZM317.609 157.686L318.316 158.393L319.023 157.686L318.316 156.979L317.609 157.686ZM159.925 315.37V316.37H160.339L160.632 316.077L159.925 315.37ZM159.411 314.663L159.207 314.459L157.793 315.873L157.997 316.077L159.411 314.663ZM159.5 315.166V0.205856H157.5V315.166H159.5ZM159.207 0.912963L159.411 0.70906L157.997 -0.705154L157.793 -0.50125L159.207 0.912963ZM158.704 1.00195H159.925V-0.998047H158.704V1.00195ZM159.218 0.70906L316.902 158.393L318.316 156.979L160.632 -0.705154L159.218 0.70906ZM316.902 156.979L159.218 314.663L160.632 316.077L318.316 158.393L316.902 156.979ZM159.925 314.37H158.704V316.37H159.925V314.37Z" fill="#F6F5FF" mask="url(#path-2-inside-1_924_44937)"/>
<path fill-rule="evenodd" clip-rule="evenodd" d="M476.507 -0.000488299L476.711 0.203461L476.711 315.163L476.507 315.367L475.286 315.367L317.602 157.683L475.286 -0.000488406L476.507 -0.000488299Z" fill="#F6F5FF"/>
<mask id="path-5-inside-2_924_44937" fill="white">
<path fill-rule="evenodd" clip-rule="evenodd" d="M158.905 0.00146483L159.109 0.205414L159.109 315.165L158.905 315.369L157.684 315.369L0.00057836 157.685L157.684 0.00146472L158.905 0.00146483Z"/>
</mask>
<path fill-rule="evenodd" clip-rule="evenodd" d="M158.905 0.00146483L159.109 0.205414L159.109 315.165L158.905 315.369L157.684 315.369L0.00057836 157.685L157.684 0.00146472L158.905 0.00146483Z" fill="#DAD7FF"/>
<path d="M158.905 0.00146483L159.613 -0.705627L159.32 -0.998535L158.905 -0.998535L158.905 0.00146483ZM159.109 0.205414L160.109 0.205414L160.109 -0.208801L159.817 -0.501678L159.109 0.205414ZM159.109 315.165L159.816 315.872L160.109 315.579L160.109 315.165L159.109 315.165ZM158.905 315.369L158.905 316.369L159.32 316.369L159.613 316.076L158.905 315.369ZM157.684 315.369L156.977 316.076L157.27 316.369L157.684 316.369L157.684 315.369ZM0.00057836 157.685L-0.706529 156.978L-1.41364 157.685L-0.706529 158.392L0.00057836 157.685ZM157.684 0.00146472L157.684 -0.998535L157.27 -0.998535L156.977 -0.705628L157.684 0.00146472ZM158.198 0.708557L158.402 0.912506L159.817 -0.501678L159.613 -0.705627L158.198 0.708557ZM158.109 0.205414L158.109 315.165L160.109 315.165L160.109 0.205414L158.109 0.205414ZM158.402 314.458L158.198 314.662L159.613 316.076L159.816 315.872L158.402 314.458ZM158.905 314.369L157.684 314.369L157.684 316.369L158.905 316.369L158.905 314.369ZM158.392 314.662L0.707686 156.978L-0.706529 158.392L156.977 316.076L158.392 314.662ZM0.707686 158.392L158.392 0.708557L156.977 -0.705628L-0.706529 156.978L0.707686 158.392ZM157.684 1.00146L158.905 1.00146L158.905 -0.998535L157.684 -0.998535L157.684 1.00146Z" fill="#DAD7FF" mask="url(#path-5-inside-2_924_44937)"/>
<path d="M56.0366 162V149.384H63.4623V150.411H57.1361V155.061H62.9937V156.07H57.1361V160.973H63.6605V162H56.0366ZM65.5103 162L69.1871 157.224L65.7446 152.682H66.9882L68.8807 155.151L69.872 156.485L70.8632 155.151L72.7557 152.682H74.0173L70.5749 157.224L74.2516 162H72.972L70.9353 159.351L69.89 157.963L68.8266 159.351L66.79 162H65.5103ZM81.8112 162.234C80.0989 162.234 78.7111 161.459 77.8821 160.234V165.605H76.8367V152.682H77.7199L77.828 154.538C78.639 153.241 80.0629 152.448 81.8112 152.448C84.6408 152.448 86.5873 154.502 86.5873 157.332C86.5873 160.162 84.6408 162.234 81.8112 162.234ZM77.846 157.332C77.846 159.621 79.414 161.225 81.703 161.225C83.992 161.225 85.542 159.621 85.542 157.332C85.542 155.061 83.992 153.457 81.703 153.457C79.414 153.457 77.846 155.061 77.846 157.332ZM89.4918 162V148.663H90.5371V162H89.4918ZM98.3353 162.234C95.4516 162.234 93.433 160.216 93.433 157.332C93.433 154.466 95.4516 152.448 98.3353 152.448C101.201 152.448 103.22 154.466 103.22 157.332C103.22 160.216 101.201 162.234 98.3353 162.234ZM94.4783 157.332C94.4783 159.639 96.0464 161.225 98.3353 161.225C100.606 161.225 102.174 159.639 102.174 157.332C102.174 155.043 100.606 153.457 98.3353 153.457C96.0464 153.457 94.4783 155.043 94.4783 157.332ZM106.125 162V152.682H107.008L107.116 154.773C107.747 153.367 108.81 152.682 110.54 152.682H111.315V153.655H110.504C108.504 153.655 107.17 154.881 107.17 157.71V162H106.125ZM116.102 162.144C113.94 162.144 112.588 161.081 112.588 159.369C112.588 157.71 113.849 156.665 115.76 156.665H119.869V155.998C119.869 154.448 118.734 153.421 117.004 153.421C115.598 153.421 114.498 154.142 114.12 155.259H113.056C113.507 153.529 115.003 152.448 116.986 152.448C119.311 152.448 120.915 153.871 120.915 155.944V162H120.05L119.941 160.396C119.13 161.513 117.761 162.144 116.102 162.144ZM113.633 159.351C113.633 160.486 114.588 161.207 116.138 161.207C118.301 161.207 119.887 159.855 119.887 157.981V157.584H115.796C114.516 157.584 113.633 158.287 113.633 159.351ZM124.43 162V152.682H125.313L125.421 154.773C126.052 153.367 127.115 152.682 128.845 152.682H129.62V153.655H128.809C126.809 153.655 125.475 154.881 125.475 157.71V162H124.43Z" fill="black"/>
<path d="M368.037 162V149.384H372.02C376.039 149.384 378.58 151.889 378.58 155.692C378.58 159.495 376.039 162 372.02 162H368.037ZM369.136 160.955H372.02C375.372 160.955 377.463 158.9 377.463 155.692C377.463 152.484 375.354 150.429 371.984 150.429H369.136V160.955ZM385.409 162.234C382.579 162.234 380.651 160.234 380.651 157.332C380.651 154.448 382.597 152.448 385.427 152.448C388.365 152.448 390.257 154.61 390.185 157.765H381.714C381.894 159.873 383.336 161.243 385.409 161.243C386.923 161.243 388.131 160.54 388.743 159.333L389.915 159.351C389.194 161.135 387.5 162.234 385.409 162.234ZM381.714 156.845H389.158C388.906 154.737 387.464 153.439 385.427 153.439C383.354 153.439 381.894 154.791 381.714 156.845ZM396.251 162.234C393.89 162.234 392.394 161.045 392.322 159.188H393.35C393.458 160.504 394.485 161.279 396.27 161.279C397.91 161.279 398.901 160.648 398.901 159.621C398.901 158.648 398.018 158.053 396.035 157.71C393.602 157.296 392.503 156.431 392.503 155.007C392.503 153.421 393.854 152.448 396.035 152.448C398.234 152.448 399.622 153.493 399.766 155.277H398.721C398.613 154.052 397.657 153.385 396.035 153.385C394.485 153.385 393.548 154.016 393.548 155.025C393.548 155.944 394.323 156.449 396.396 156.845C398.757 157.296 399.928 158.233 399.928 159.639C399.928 161.207 398.504 162.234 396.251 162.234ZM405.767 162.144C403.604 162.144 402.252 161.081 402.252 159.369C402.252 157.71 403.514 156.665 405.424 156.665H409.534V155.998C409.534 154.448 408.398 153.421 406.668 153.421C405.262 153.421 404.163 154.142 403.784 155.259H402.721C403.171 153.529 404.667 152.448 406.65 152.448C408.975 152.448 410.579 153.871 410.579 155.944V162H409.714L409.606 160.396C408.795 161.513 407.425 162.144 405.767 162.144ZM403.298 159.351C403.298 160.486 404.253 161.207 405.803 161.207C407.966 161.207 409.552 159.855 409.552 157.981V157.584H405.46C404.181 157.584 403.298 158.287 403.298 159.351ZM414.094 162V152.682H414.977L415.085 154.773C415.716 153.367 416.78 152.682 418.51 152.682H419.285V153.655H418.474C416.473 153.655 415.139 154.881 415.139 157.71V162H414.094ZM421.909 162V152.682H422.792L422.9 154.773C423.531 153.367 424.594 152.682 426.325 152.682H427.1V153.655H426.289C424.288 153.655 422.954 154.881 422.954 157.71V162H421.909ZM433.093 162.234C430.21 162.234 428.191 160.216 428.191 157.332C428.191 154.466 430.21 152.448 433.093 152.448C435.959 152.448 437.978 154.466 437.978 157.332C437.978 160.216 435.959 162.234 433.093 162.234ZM429.236 157.332C429.236 159.639 430.804 161.225 433.093 161.225C435.364 161.225 436.932 159.639 436.932 157.332C436.932 155.043 435.364 153.457 433.093 153.457C430.804 153.457 429.236 155.043 429.236 157.332ZM440.883 162V148.663H441.928V162H440.883ZM445.635 162V148.663H446.68V162H445.635ZM453.307 162.144C451.144 162.144 449.792 161.081 449.792 159.369C449.792 157.71 451.054 156.665 452.964 156.665H457.074V155.998C457.074 154.448 455.938 153.421 454.208 153.421C452.802 153.421 451.703 154.142 451.324 155.259H450.261C450.712 153.529 452.208 152.448 454.19 152.448C456.515 152.448 458.119 153.871 458.119 155.944V162H457.254L457.146 160.396C456.335 161.513 454.965 162.144 453.307 162.144ZM450.838 159.351C450.838 160.486 451.793 161.207 453.343 161.207C455.506 161.207 457.092 159.855 457.092 157.981V157.584H453.001C451.721 157.584 450.838 158.287 450.838 159.351ZM461.634 162V152.682H462.517L462.625 154.773C463.256 153.367 464.32 152.682 466.05 152.682H466.825V153.655H466.014C464.013 153.655 462.68 154.881 462.68 157.71V162H461.634Z" fill="black"/>
<path d="M185.037 162V149.384H189.02C193.039 149.384 195.58 151.889 195.58 155.692C195.58 159.495 193.039 162 189.02 162H185.037ZM186.136 160.955H189.02C192.372 160.955 194.463 158.9 194.463 155.692C194.463 152.484 192.354 150.429 188.984 150.429H186.136V160.955ZM202.409 162.234C199.579 162.234 197.651 160.234 197.651 157.332C197.651 154.448 199.597 152.448 202.427 152.448C205.365 152.448 207.257 154.61 207.185 157.765H198.714C198.894 159.873 200.336 161.243 202.409 161.243C203.923 161.243 205.131 160.54 205.743 159.333L206.915 159.351C206.194 161.135 204.5 162.234 202.409 162.234ZM198.714 156.845H206.158C205.906 154.737 204.464 153.439 202.427 153.439C200.354 153.439 198.894 154.791 198.714 156.845ZM217.619 162V153.637H211.743V162H210.698V153.637H208.571V152.682H210.698V151.601C210.698 149.492 211.761 148.428 213.87 148.428H215.222V149.42H213.96C212.41 149.42 211.743 150.087 211.743 151.673V152.682H218.664V162H217.619ZM217.168 150.032C217.168 149.51 217.565 149.095 218.142 149.095C218.7 149.095 219.097 149.51 219.097 150.032C219.097 150.573 218.7 150.988 218.142 150.988C217.565 150.988 217.168 150.573 217.168 150.032ZM222.382 162V152.682H223.265L223.355 154.484C224.094 153.151 225.391 152.448 226.887 152.448C229.321 152.448 230.817 154.16 230.817 156.845V162H229.771V156.935C229.771 154.791 228.618 153.457 226.761 153.457C224.797 153.457 223.427 154.953 223.427 157.17V162H222.382ZM234.333 162V152.682H235.378V162H234.333ZM233.9 150.032C233.9 149.51 234.279 149.095 234.855 149.095C235.432 149.095 235.811 149.51 235.811 150.032C235.811 150.573 235.432 150.988 234.855 150.988C234.279 150.988 233.9 150.573 233.9 150.032ZM239.085 162V152.682H239.968L240.076 154.773C240.707 153.367 241.77 152.682 243.501 152.682H244.276V153.655H243.465C241.464 153.655 240.13 154.881 240.13 157.71V162H239.085Z" fill="black"/>
<path d="M502.513 162.482V149.866H509.939V150.893H503.613V155.543H509.47V156.553H503.613V161.455H510.137V162.482H502.513ZM513.316 162.482V153.164H514.199L514.289 154.967C515.028 153.633 516.326 152.93 517.822 152.93C520.255 152.93 521.751 154.642 521.751 157.328V162.482H520.706V157.418C520.706 155.273 519.552 153.939 517.696 153.939C515.731 153.939 514.361 155.435 514.361 157.652V162.482H513.316ZM528.753 162.482C526.77 162.482 525.707 161.365 525.707 159.256V154.12H523.67V153.164H524.86C525.563 153.164 525.761 152.984 525.833 152.299L525.923 150.875H526.752V153.164H529.978V154.12H526.752V159.22C526.752 160.752 527.383 161.473 528.789 161.473H530.104V162.482H528.753ZM532.906 162.482V153.164H533.789L533.897 155.255C534.528 153.849 535.591 153.164 537.321 153.164H538.097V154.138H537.285C535.285 154.138 533.951 155.363 533.951 158.193V162.482H532.906ZM543.946 162.717C541.116 162.717 539.188 160.716 539.188 157.814C539.188 154.931 541.134 152.93 543.964 152.93C546.902 152.93 548.794 155.093 548.722 158.247H540.251C540.432 160.356 541.873 161.725 543.946 161.725C545.46 161.725 546.668 161.023 547.28 159.815L548.452 159.833C547.731 161.617 546.037 162.717 543.946 162.717ZM540.251 157.328H547.695C547.443 155.219 546.001 153.921 543.964 153.921C541.891 153.921 540.432 155.273 540.251 157.328ZM555.672 166.321C553.383 166.321 551.689 165.114 551.328 163.221H552.391C552.698 164.519 553.959 165.33 555.672 165.33C557.816 165.33 559.186 164.068 559.186 162.068V160.554C558.357 161.689 557.023 162.374 555.437 162.374C552.716 162.374 550.769 160.392 550.769 157.652C550.769 154.913 552.716 152.93 555.437 152.93C557.077 152.93 558.429 153.651 559.258 154.841L559.348 153.164H560.232V162.104C560.232 164.609 558.393 166.321 555.672 166.321ZM551.815 157.652C551.815 159.833 553.347 161.347 555.545 161.347C557.726 161.347 559.258 159.833 559.258 157.652C559.258 155.471 557.726 153.939 555.545 153.939C553.347 153.939 551.815 155.471 551.815 157.652ZM566.856 162.627C564.693 162.627 563.341 161.563 563.341 159.851C563.341 158.193 564.603 157.148 566.514 157.148H570.623V156.481C570.623 154.931 569.487 153.903 567.757 153.903C566.351 153.903 565.252 154.624 564.873 155.742H563.81C564.261 154.011 565.757 152.93 567.739 152.93C570.064 152.93 571.668 154.354 571.668 156.427V162.482H570.803L570.695 160.878C569.884 161.996 568.514 162.627 566.856 162.627ZM564.387 159.833C564.387 160.968 565.342 161.689 566.892 161.689C569.055 161.689 570.641 160.338 570.641 158.463V158.067H566.55C565.27 158.067 564.387 158.77 564.387 159.833ZM575.183 162.482V153.164H576.066L576.174 155.255C576.805 153.849 577.869 153.164 579.599 153.164H580.374V154.138H579.563C577.562 154.138 576.229 155.363 576.229 158.193V162.482H575.183Z" fill="black"/>
<line x1="158.5" y1="2.18552e-08" x2="158.5" y2="315" stroke="black"/>
<line x1="476.5" y1="2.18552e-08" x2="476.5" y2="315" stroke="black"/>
</svg>
