<svg width="636" height="316" viewBox="0 0 636 316" fill="none" xmlns="http://www.w3.org/2000/svg">
<path fill-rule="evenodd" clip-rule="evenodd" d="M476.313 315.37L476.109 315.166V0.205856L476.313 0.00195312H477.534L635.218 157.686L477.534 315.37H476.313Z" fill="#F6F5FF"/>
<mask id="path-2-inside-1_924_45035" fill="white">
<path fill-rule="evenodd" clip-rule="evenodd" d="M158.704 315.37L158.5 315.166V0.205856L158.704 0.00195312H159.925L317.609 157.686L159.925 315.37H158.704Z"/>
</mask>
<path fill-rule="evenodd" clip-rule="evenodd" d="M158.704 315.37L158.5 315.166V0.205856L158.704 0.00195312H159.925L317.609 157.686L159.925 315.37H158.704Z" fill="#F6F5FF"/>
<path d="M158.704 315.37L157.997 316.077L158.29 316.37H158.704V315.37ZM158.5 315.166H157.5V315.58L157.793 315.873L158.5 315.166ZM158.5 0.205856L157.793 -0.50125L157.5 -0.208357V0.205856H158.5ZM158.704 0.00195312V-0.998047H158.29L157.997 -0.705154L158.704 0.00195312ZM159.925 0.00195312L160.632 -0.705154L160.339 -0.998047H159.925V0.00195312ZM317.609 157.686L318.316 158.393L319.023 157.686L318.316 156.979L317.609 157.686ZM159.925 315.37V316.37H160.339L160.632 316.077L159.925 315.37ZM159.411 314.663L159.207 314.459L157.793 315.873L157.997 316.077L159.411 314.663ZM159.5 315.166V0.205856H157.5V315.166H159.5ZM159.207 0.912963L159.411 0.70906L157.997 -0.705154L157.793 -0.50125L159.207 0.912963ZM158.704 1.00195H159.925V-0.998047H158.704V1.00195ZM159.218 0.70906L316.902 158.393L318.316 156.979L160.632 -0.705154L159.218 0.70906ZM316.902 156.979L159.218 314.663L160.632 316.077L318.316 158.393L316.902 156.979ZM159.925 314.37H158.704V316.37H159.925V314.37Z" fill="#F6F5FF" mask="url(#path-2-inside-1_924_45035)"/>
<path fill-rule="evenodd" clip-rule="evenodd" d="M476.507 -0.000488299L476.711 0.203461L476.711 315.163L476.507 315.367L475.286 315.367L317.602 157.683L475.286 -0.000488406L476.507 -0.000488299Z" fill="#F6F5FF"/>
<mask id="path-5-inside-2_924_45035" fill="white">
<path fill-rule="evenodd" clip-rule="evenodd" d="M158.905 0.00146483L159.109 0.205414L159.109 315.165L158.905 315.369L157.684 315.369L0.00057836 157.685L157.684 0.00146472L158.905 0.00146483Z"/>
</mask>
<path fill-rule="evenodd" clip-rule="evenodd" d="M158.905 0.00146483L159.109 0.205414L159.109 315.165L158.905 315.369L157.684 315.369L0.00057836 157.685L157.684 0.00146472L158.905 0.00146483Z" fill="#DAD7FF"/>
<path d="M158.905 0.00146483L159.613 -0.705627L159.32 -0.998535L158.905 -0.998535L158.905 0.00146483ZM159.109 0.205414L160.109 0.205414L160.109 -0.208801L159.817 -0.501678L159.109 0.205414ZM159.109 315.165L159.816 315.872L160.109 315.579L160.109 315.165L159.109 315.165ZM158.905 315.369L158.905 316.369L159.32 316.369L159.613 316.076L158.905 315.369ZM157.684 315.369L156.977 316.076L157.27 316.369L157.684 316.369L157.684 315.369ZM0.00057836 157.685L-0.706529 156.978L-1.41364 157.685L-0.706529 158.392L0.00057836 157.685ZM157.684 0.00146472L157.684 -0.998535L157.27 -0.998535L156.977 -0.705628L157.684 0.00146472ZM158.198 0.708557L158.402 0.912506L159.817 -0.501678L159.613 -0.705627L158.198 0.708557ZM158.109 0.205414L158.109 315.165L160.109 315.165L160.109 0.205414L158.109 0.205414ZM158.402 314.458L158.198 314.662L159.613 316.076L159.816 315.872L158.402 314.458ZM158.905 314.369L157.684 314.369L157.684 316.369L158.905 316.369L158.905 314.369ZM158.392 314.662L0.707686 156.978L-0.706529 158.392L156.977 316.076L158.392 314.662ZM0.707686 158.392L158.392 0.708557L156.977 -0.705628L-0.706529 156.978L0.707686 158.392ZM157.684 1.00146L158.905 1.00146L158.905 -0.998535L157.684 -0.998535L157.684 1.00146Z" fill="#DAD7FF" mask="url(#path-5-inside-2_924_45035)"/>
<path d="M56.0366 162V149.384H63.4623V150.411H57.1361V155.061H62.9937V156.07H57.1361V160.973H63.6605V162H56.0366ZM65.5103 162L69.1871 157.224L65.7446 152.682H66.9882L68.8807 155.151L69.872 156.485L70.8632 155.151L72.7557 152.682H74.0173L70.5749 157.224L74.2516 162H72.972L70.9353 159.351L69.89 157.963L68.8266 159.351L66.79 162H65.5103ZM81.8112 162.234C80.0989 162.234 78.7111 161.459 77.8821 160.234V165.605H76.8367V152.682H77.7199L77.828 154.538C78.639 153.241 80.0629 152.448 81.8112 152.448C84.6408 152.448 86.5873 154.502 86.5873 157.332C86.5873 160.162 84.6408 162.234 81.8112 162.234ZM77.846 157.332C77.846 159.621 79.414 161.225 81.703 161.225C83.992 161.225 85.542 159.621 85.542 157.332C85.542 155.061 83.992 153.457 81.703 153.457C79.414 153.457 77.846 155.061 77.846 157.332ZM89.4918 162V148.663H90.5371V162H89.4918ZM98.3353 162.234C95.4516 162.234 93.433 160.216 93.433 157.332C93.433 154.466 95.4516 152.448 98.3353 152.448C101.201 152.448 103.22 154.466 103.22 157.332C103.22 160.216 101.201 162.234 98.3353 162.234ZM94.4783 157.332C94.4783 159.639 96.0464 161.225 98.3353 161.225C100.606 161.225 102.174 159.639 102.174 157.332C102.174 155.043 100.606 153.457 98.3353 153.457C96.0464 153.457 94.4783 155.043 94.4783 157.332ZM106.125 162V152.682H107.008L107.116 154.773C107.747 153.367 108.81 152.682 110.54 152.682H111.315V153.655H110.504C108.504 153.655 107.17 154.881 107.17 157.71V162H106.125ZM117.165 162.234C114.335 162.234 112.407 160.234 112.407 157.332C112.407 154.448 114.353 152.448 117.183 152.448C120.121 152.448 122.013 154.61 121.941 157.765H113.47C113.65 159.873 115.092 161.243 117.165 161.243C118.679 161.243 119.886 160.54 120.499 159.333L121.671 159.351C120.95 161.135 119.256 162.234 117.165 162.234ZM113.47 156.845H120.914C120.661 154.737 119.22 153.439 117.183 153.439C115.11 153.439 113.65 154.791 113.47 156.845ZM124.799 162V152.682H125.682L125.791 154.773C126.421 153.367 127.485 152.682 129.215 152.682H129.99V153.655H129.179C127.178 153.655 125.845 154.881 125.845 157.71V162H124.799Z" fill="black"/>
<path d="M360.037 162V149.384H364.02C368.039 149.384 370.58 151.889 370.58 155.692C370.58 159.495 368.039 162 364.02 162H360.037ZM361.136 160.955H364.02C367.372 160.955 369.463 158.9 369.463 155.692C369.463 152.484 367.354 150.429 363.984 150.429H361.136V160.955ZM377.409 162.234C374.579 162.234 372.651 160.234 372.651 157.332C372.651 154.448 374.597 152.448 377.427 152.448C380.365 152.448 382.257 154.61 382.185 157.765H373.714C373.894 159.873 375.336 161.243 377.409 161.243C378.923 161.243 380.131 160.54 380.743 159.333L381.915 159.351C381.194 161.135 379.5 162.234 377.409 162.234ZM373.714 156.845H381.158C380.906 154.737 379.464 153.439 377.427 153.439C375.354 153.439 373.894 154.791 373.714 156.845ZM376.742 151.132L377.733 148.41H378.869L377.733 151.132H376.742ZM387.359 162L383.195 152.682H384.331L385.953 156.287L387.881 160.63L389.792 156.287L391.432 152.682H392.549L388.386 162H387.359ZM398.372 162.234C395.542 162.234 393.614 160.234 393.614 157.332C393.614 154.448 395.56 152.448 398.39 152.448C401.328 152.448 403.22 154.61 403.148 157.765H394.677C394.857 159.873 396.299 161.243 398.372 161.243C399.886 161.243 401.093 160.54 401.706 159.333L402.878 159.351C402.157 161.135 400.462 162.234 398.372 162.234ZM394.677 156.845H402.121C401.868 154.737 400.426 153.439 398.39 153.439C396.317 153.439 394.857 154.791 394.677 156.845ZM406.006 162V148.663H407.051V162H406.006ZM414.85 162.234C411.966 162.234 409.947 160.216 409.947 157.332C409.947 154.466 411.966 152.448 414.85 152.448C417.715 152.448 419.734 154.466 419.734 157.332C419.734 160.216 417.715 162.234 414.85 162.234ZM410.993 157.332C410.993 159.639 412.561 161.225 414.85 161.225C417.121 161.225 418.689 159.639 418.689 157.332C418.689 155.043 417.121 153.457 414.85 153.457C412.561 153.457 410.993 155.043 410.993 157.332ZM427.613 162.234C425.901 162.234 424.513 161.459 423.684 160.234V165.605H422.639V152.682H423.522L423.63 154.538C424.441 153.241 425.865 152.448 427.613 152.448C430.443 152.448 432.39 154.502 432.39 157.332C432.39 160.162 430.443 162.234 427.613 162.234ZM423.648 157.332C423.648 159.621 425.216 161.225 427.505 161.225C429.794 161.225 431.344 159.621 431.344 157.332C431.344 155.061 429.794 153.457 427.505 153.457C425.216 153.457 423.648 155.061 423.648 157.332ZM440.268 162.234C438.556 162.234 437.168 161.459 436.339 160.234V165.605H435.294V152.682H436.177L436.285 154.538C437.096 153.241 438.52 152.448 440.268 152.448C443.098 152.448 445.045 154.502 445.045 157.332C445.045 160.162 443.098 162.234 440.268 162.234ZM436.303 157.332C436.303 159.621 437.871 161.225 440.16 161.225C442.449 161.225 443.999 159.621 443.999 157.332C443.999 155.061 442.449 153.457 440.16 153.457C437.871 153.457 436.303 155.061 436.303 157.332ZM451.896 162.234C449.066 162.234 447.138 160.234 447.138 157.332C447.138 154.448 449.085 152.448 451.914 152.448C454.852 152.448 456.744 154.61 456.672 157.765H448.201C448.382 159.873 449.823 161.243 451.896 161.243C453.41 161.243 454.618 160.54 455.23 159.333L456.402 159.351C455.681 161.135 453.987 162.234 451.896 162.234ZM448.201 156.845H455.645C455.393 154.737 453.951 153.439 451.914 153.439C449.842 153.439 448.382 154.791 448.201 156.845ZM459.53 162V152.682H460.414L460.522 154.773C461.153 153.367 462.216 152.682 463.946 152.682H464.721V153.655H463.91C461.91 153.655 460.576 154.881 460.576 157.71V162H459.53Z" fill="black"/>
<path d="M185.037 162V149.384H189.02C193.039 149.384 195.58 151.889 195.58 155.692C195.58 159.495 193.039 162 189.02 162H185.037ZM186.136 160.955H189.02C192.372 160.955 194.463 158.9 194.463 155.692C194.463 152.484 192.354 150.429 188.984 150.429H186.136V160.955ZM202.409 162.234C199.579 162.234 197.651 160.234 197.651 157.332C197.651 154.448 199.597 152.448 202.427 152.448C205.365 152.448 207.257 154.61 207.185 157.765H198.714C198.894 159.873 200.336 161.243 202.409 161.243C203.923 161.243 205.131 160.54 205.743 159.333L206.915 159.351C206.194 161.135 204.5 162.234 202.409 162.234ZM198.714 156.845H206.158C205.906 154.737 204.464 153.439 202.427 153.439C200.354 153.439 198.894 154.791 198.714 156.845ZM201.742 151.132L202.733 148.41H203.869L202.733 151.132H201.742ZM217.619 162V153.637H211.743V162H210.698V153.637H208.571V152.682H210.698V151.601C210.698 149.492 211.761 148.428 213.87 148.428H215.222V149.42H213.96C212.41 149.42 211.743 150.087 211.743 151.673V152.682H218.664V162H217.619ZM217.168 150.032C217.168 149.51 217.565 149.095 218.142 149.095C218.7 149.095 219.097 149.51 219.097 150.032C219.097 150.573 218.7 150.988 218.142 150.988C217.565 150.988 217.168 150.573 217.168 150.032ZM222.382 162V152.682H223.265L223.355 154.484C224.094 153.151 225.391 152.448 226.887 152.448C229.321 152.448 230.817 154.16 230.817 156.845V162H229.771V156.935C229.771 154.791 228.618 153.457 226.761 153.457C224.797 153.457 223.427 154.953 223.427 157.17V162H222.382ZM234.333 162V152.682H235.378V162H234.333ZM233.9 150.032C233.9 149.51 234.279 149.095 234.855 149.095C235.432 149.095 235.811 149.51 235.811 150.032C235.811 150.573 235.432 150.988 234.855 150.988C234.279 150.988 233.9 150.573 233.9 150.032ZM239.085 162V152.682H239.968L240.076 154.773C240.707 153.367 241.77 152.682 243.501 152.682H244.276V153.655H243.465C241.464 153.655 240.13 154.881 240.13 157.71V162H239.085Z" fill="black"/>
<path d="M511.037 162.482V149.866H512.136V161.437H518.534V162.482H511.037ZM521.012 162.482V153.164H522.057V162.482H521.012ZM520.58 150.515C520.58 149.992 520.958 149.578 521.535 149.578C522.112 149.578 522.49 149.992 522.49 150.515C522.49 151.056 522.112 151.47 521.535 151.47C520.958 151.47 520.58 151.056 520.58 150.515ZM528.432 162.482L524.268 153.164H525.404L527.026 156.769L528.955 161.113L530.865 156.769L532.505 153.164H533.623L529.459 162.482H528.432ZM535.85 162.482V153.164H536.733L536.841 155.255C537.472 153.849 538.535 153.164 540.265 153.164H541.04V154.138H540.229C538.229 154.138 536.895 155.363 536.895 158.193V162.482H535.85ZM546.89 162.717C544.06 162.717 542.132 160.716 542.132 157.814C542.132 154.931 544.078 152.93 546.908 152.93C549.846 152.93 551.738 155.093 551.666 158.247H543.195C543.375 160.356 544.817 161.725 546.89 161.725C548.404 161.725 549.612 161.023 550.224 159.815L551.396 159.833C550.675 161.617 548.981 162.717 546.89 162.717ZM543.195 157.328H550.639C550.387 155.219 548.945 153.921 546.908 153.921C544.835 153.921 543.375 155.273 543.195 157.328ZM554.524 162.482V153.164H555.407L555.516 155.255C556.146 153.849 557.21 153.164 558.94 153.164H559.715V154.138H558.904C556.903 154.138 555.57 155.363 555.57 158.193V162.482H554.524Z" fill="black"/>
<line x1="158.5" y1="2.18552e-08" x2="158.5" y2="315" stroke="black"/>
<line x1="476.5" y1="2.18552e-08" x2="476.5" y2="315" stroke="black"/>
</svg>
