<?xml version="1.0" encoding="UTF-8"?>
<svg id="Layer_2" data-name="Layer 2" xmlns="http://www.w3.org/2000/svg" viewBox="0 0 65.95 88.33">
  <g id="Layer_1-2" data-name="Layer 1">
    <path d="M27.5,88c-2.5-.5-8.86-3.18-10-4-1.19-.86-3.5-3-4-3.5l-1.5-1.5-2-2-1.5-2v-3c-.1-1.41,.1-8.19,0-11.5v-10l-.5,1c0,1.5,.5,0,0-3,0-1.5,.28-1.5,0-1.5,0,1-.13-.26,0-.5,0-1,0,.79,0-11V10.5l.5-.5c3-2.5,2-1.5,4.5-3.5l4.5-3,2.5-1.75,2.5-1.75V37.5l-2.77,3.3c1.02-.98,3.1-3.13,4.5-4.5,4.73-4.62,17-16.65,18.5-18,1.5-1.35,5.5-5.5,7-6.5,.55-.11,2.47-.06,3.5,0,2,.5,1.8,.56,3.6,1.42,1.4,.67,3.12,1.49,3.81,1.81,.69,.33,2.18,1.03,3.29,1.59l2.03,.99-2.1,1.98c-1.15,1.09-4.25,4.05-6.9,6.59-4.42,4.25-12.73,12.2-15.63,14.98-1.06,1.03-1.19,1.19-.96,1.32,.33,.2,.31,.37-.04,.47-.17,.04-.28,.2-.28,.37,0,.4-.37,.38-.47-.01-.07-.27-.34-.06-2.18,1.69-3.54,3.37-10.98,10.95-11.97,12.22-1.8,2.25-2.47,4.07-2.44,6.6,.01,1.26,.08,1.77,.38,2.69,.99,3.06,3.25,5.27,6.41,6.33,1.33,.44,4.08,.45,5.38,.01,1.32-.43,2.86-1.4,3.93-2.48l.96-.98v7.74c0,6.77,.28,7.87,.47,7.87,.11,0,0,2,0,1.5,0,0-.5,.5-3,1-3,1-7.5,1-10,.5Z"/>
    <path d="M55.99,62.52c0-.51,.06-.71,.2-.71,.21,0,.37,.43,.37,1.03,0,.28-.07,.38-.28,.38-.24,0-.28-.1-.28-.71Z"/>
    <path d="M55.6,60.07c-.48-2.31-.52-2.65-.28-2.65s.43,.54,.82,2.47c.34,1.7,.35,1.79,.04,1.79-.21,0-.31-.3-.58-1.6Z"/>
    <path d="M54.24,55.78c-.13-.35-.1-1.05,.06-1.05,.14,0,.34,.31,.57,.91,.13,.33,.1,.37-.2,.37-.18,0-.38-.1-.43-.23Z"/>
    <path d="M53.16,53.24c0-.61,.14-.62,.47-.09,.31,.54,.31,.58-.11,.58-.31,0-.35-.06-.35-.5Z"/>
    <path d="M51.88,51.24c0-.55,.13-.54,.57,.08l.3,.43h-.43c-.41,0-.44-.04-.44-.51Z"/>
    <path d="M47.49,46.78v-.43l.43,.3c.62,.44,.64,.57,.09,.57-.47,0-.51-.03-.51-.44Z"/>
    <path d="M45.22,45.3c0-.43,.04-.43,.58-.11,.54,.33,.52,.47-.08,.47-.44,0-.5-.04-.5-.35Z"/>
    <path d="M43.95,44.82c0-.07-.18-.16-.43-.2-.34-.07-.43-.17-.43-.45,0-.2,.04-.35,.08-.35,.2,0,1.76,.89,1.76,1.01,0,.07-.23,.13-.5,.13s-.5-.06-.5-.13Z"/>
    <path d="M41.82,43.6c0-.34,.01-.35,.45-.17,.65,.27,.68,.52,.06,.52-.45,0-.51-.04-.51-.35Z"/>
    <path d="M54.44,55.92c0-.62,.26-.6,.52,.06,.18,.44,.17,.45-.17,.45-.31,0-.35-.06-.35-.51Z"/>
    <path d="M48.34,47.49v-.43l.43,.3c.62,.44,.64,.57,.08,.57-.47,0-.51-.03-.51-.44Z"/>
    <path d="M42.7,44.26c-.11-.06-.17-.26-.14-.43l.04-.3,.61,.3c.33,.17,.6,.35,.6,.43,0,.16-.86,.17-1.11,0Z"/>
    <path d="M0,68v-8l10-9.5c.85-1.18,6.13-4.72,6.67-5.48,.37-.53,1.31-1.52,1.33-1.52s2,9,2,19l-5.5,4.5-3.96,3.08L0,80.5v-12.5Z"/>
    <path d="M39.43,77.51c0-5.1,.04-7.82,.14-7.88,.09-.06,.37-.43,.62-.85,2.24-3.5,2.11-7.58-.35-10.71l-.41-.52v-7.45c0-6.9,.01-7.47,.24-7.55,.34-.13,2.64,.68,4.34,1.53,6.63,3.32,10.84,8.9,12.23,16.21,.35,1.81,.34,5.5,0,7.3-1.28,6.59-5.74,12.93-11.74,16.43-3.5,2.5-3,2-4,2.5l-1.98,.81,.91-9.8Z"/>
  </g>
</svg>