<?xml version="1.0" encoding="UTF-8"?>
<svg id="Layer_2" data-name="Layer 2" xmlns="http://www.w3.org/2000/svg" viewBox="0 0 68.62 51.77">
  <defs>
    <style>
      .cls-1 {
        fill: #231f20;
      }
    </style>
  </defs>
  <g id="Lag_1" data-name="Lag 1">
    <polygon class="cls-1" points="32.68 51.77 18.14 51.77 5.64 30.82 0 30.85 0 20.22 5.64 20.17 17.29 .28 31.79 .28 16.84 24.93 32.68 51.77"/>
    <rect class="cls-1" x="29.44" y=".28" width="12.67" height="51.48"/>
    <path class="cls-1" d="M41.3,10.61s0-12.64,0-10.32h12.42c6.44,1.62,12.26,4.77,12.91,10.32,1.04,8.96-4.23,13.76-5.9,13.76l1.67,1.29c.59,.46-1.13-.65,0,0,7.25,4.2,5.95,9.84,6.23,12.31h0c-1.28,11.63-12.93,13.24-17.01,13.79h-11.01c-1.08-.7-3.02-7.89,0-10.84,0,0,9.28,.23,10.22-.22,6.63-3.14,3.8-7.32,3.01-8.78l-.92-.59c-.61-.7-1.85-.98-2.81-.98h-8.8v-10.2c13.02,.23,13.27-5.42,9.38-8.35-.62-.47-1.41-.68-2.21-.68l-7.18,.06"/>
  </g>
</svg>