<svg width="594" height="623" viewBox="0 0 594 623" fill="none" xmlns="http://www.w3.org/2000/svg">
<path fill-rule="evenodd" clip-rule="evenodd" d="M7.4099 118.548C72.9668 53.0313 168.63 0.40625 233.954 0.40625C321.412 0.40625 327.72 94.7335 326.925 188.039C301.924 248.16 242.625 290.432 173.453 290.432C81.6963 290.432 7.3125 216.049 7.3125 124.292C7.3125 122.369 7.34514 120.455 7.4099 118.548Z" fill="#F6F5FF"/>
<path fill-rule="evenodd" clip-rule="evenodd" d="M282.941 257.894C311.408 207.263 365.64 173.059 427.861 173.059C519.618 173.059 594.002 247.442 594.002 339.199C594.002 388.984 572.105 433.654 537.417 464.104C518.342 470.299 497.983 473.648 476.841 473.648C368.642 473.648 280.93 385.936 280.93 277.736C280.93 271.24 281.62 264.613 282.941 257.894Z" fill="#F6F5FF"/>
<path fill-rule="evenodd" clip-rule="evenodd" d="M144.705 622.395C224.623 622.395 289.41 557.409 289.41 477.244C289.41 468.239 289.559 458.895 289.711 449.403C290.908 374.397 292.254 290.113 221.313 290.113C141.395 290.113 0 397.079 0 477.244C0 557.409 64.7866 622.395 144.705 622.395Z" fill="#F6F5FF"/>
<path d="M125.76 122.26C122.56 122.26 120.5 120.54 120.4 117.84H121.6C121.72 119.9 123.34 121.1 125.76 121.1C128.06 121.1 129.48 120.08 129.48 118.46C129.48 117 128.34 116.14 125.52 115.52C122.08 114.72 120.62 113.56 120.62 111.46C120.62 109.22 122.44 107.74 125.42 107.74C128.5 107.74 130.38 109.3 130.48 112H129.28C129.18 110.02 127.76 108.9 125.42 108.9C123.16 108.9 121.84 109.92 121.84 111.46C121.84 112.86 122.88 113.72 125.82 114.38C129.36 115.2 130.72 116.44 130.72 118.44C130.72 120.78 128.8 122.26 125.76 122.26ZM138.151 122C135.951 122 134.771 120.76 134.771 118.42V112.72H132.511V111.66H133.831C134.611 111.66 134.831 111.46 134.911 110.7L135.011 109.12H135.931V111.66H139.511V112.72H135.931V118.38C135.931 120.08 136.631 120.88 138.191 120.88H139.651V122H138.151ZM142.759 122V111.66H143.739L143.859 113.98C144.559 112.42 145.739 111.66 147.659 111.66H148.519V112.74H147.619C145.399 112.74 143.919 114.1 143.919 117.24V122H142.759ZM155.01 122.26C151.87 122.26 149.73 120.04 149.73 116.82C149.73 113.62 151.89 111.4 155.03 111.4C158.29 111.4 160.39 113.8 160.31 117.3H150.91C151.11 119.64 152.71 121.16 155.01 121.16C156.69 121.16 158.03 120.38 158.71 119.04L160.01 119.06C159.21 121.04 157.33 122.26 155.01 122.26ZM150.91 116.28H159.17C158.89 113.94 157.29 112.5 155.03 112.5C152.73 112.5 151.11 114 150.91 116.28ZM167.042 122.26C164.422 122.26 162.762 120.94 162.682 118.88H163.822C163.942 120.34 165.082 121.2 167.062 121.2C168.882 121.2 169.982 120.5 169.982 119.36C169.982 118.28 169.002 117.62 166.802 117.24C164.102 116.78 162.882 115.82 162.882 114.24C162.882 112.48 164.382 111.4 166.802 111.4C169.242 111.4 170.782 112.56 170.942 114.54H169.782C169.662 113.18 168.602 112.44 166.802 112.44C165.082 112.44 164.042 113.14 164.042 114.26C164.042 115.28 164.902 115.84 167.202 116.28C169.822 116.78 171.122 117.82 171.122 119.38C171.122 121.12 169.542 122.26 167.042 122.26ZM178.038 122.26C175.418 122.26 173.758 120.94 173.678 118.88H174.818C174.938 120.34 176.078 121.2 178.058 121.2C179.878 121.2 180.978 120.5 180.978 119.36C180.978 118.28 179.998 117.62 177.798 117.24C175.098 116.78 173.878 115.82 173.878 114.24C173.878 112.48 175.378 111.4 177.798 111.4C180.238 111.4 181.778 112.56 181.938 114.54H180.778C180.658 113.18 179.598 112.44 177.798 112.44C176.078 112.44 175.038 113.14 175.038 114.26C175.038 115.28 175.898 115.84 178.198 116.28C180.818 116.78 182.118 117.82 182.118 119.38C182.118 121.12 180.538 122.26 178.038 122.26ZM192.027 122L188.307 111.66H189.547L192.607 120.26L194.067 116.5L195.927 111.66H197.007L198.887 116.5L200.347 120.26L203.427 111.66H204.647L200.907 122H199.787L198.007 117.38L196.467 113.36L193.147 122H192.027ZM209.847 122.16C207.447 122.16 205.947 120.98 205.947 119.08C205.947 117.24 207.347 116.08 209.467 116.08H214.027V115.34C214.027 113.62 212.767 112.48 210.847 112.48C209.287 112.48 208.067 113.28 207.647 114.52H206.467C206.967 112.6 208.627 111.4 210.827 111.4C213.407 111.4 215.187 112.98 215.187 115.28V122H214.227L214.107 120.22C213.207 121.46 211.687 122.16 209.847 122.16ZM207.107 119.06C207.107 120.32 208.167 121.12 209.887 121.12C212.287 121.12 214.047 119.62 214.047 117.54V117.1H209.507C208.087 117.1 207.107 117.88 207.107 119.06ZM222.647 122.26C220.027 122.26 218.367 120.94 218.287 118.88H219.427C219.547 120.34 220.687 121.2 222.667 121.2C224.487 121.2 225.587 120.5 225.587 119.36C225.587 118.28 224.607 117.62 222.407 117.24C219.707 116.78 218.487 115.82 218.487 114.24C218.487 112.48 219.987 111.4 222.407 111.4C224.847 111.4 226.387 112.56 226.547 114.54H225.387C225.267 113.18 224.207 112.44 222.407 112.44C220.687 112.44 219.647 113.14 219.647 114.26C219.647 115.28 220.507 115.84 222.807 116.28C225.427 116.78 226.727 117.82 226.727 119.38C226.727 121.12 225.147 122.26 222.647 122.26ZM235.005 122V107.2H236.165V113.54C236.985 112.12 238.425 111.4 240.045 111.4C242.725 111.4 244.365 113.26 244.365 116.24V122H243.205V116.34C243.205 113.96 241.945 112.52 239.885 112.52C237.705 112.52 236.165 114.14 236.165 116.62V122H235.005ZM248.267 122V111.66H249.427V122H248.267ZM247.787 108.72C247.787 108.14 248.207 107.68 248.847 107.68C249.487 107.68 249.907 108.14 249.907 108.72C249.907 109.32 249.487 109.78 248.847 109.78C248.207 109.78 247.787 109.32 247.787 108.72ZM258.08 126.26C255.54 126.26 253.66 124.92 253.26 122.82H254.44C254.78 124.26 256.18 125.16 258.08 125.16C260.46 125.16 261.98 123.76 261.98 121.54V119.86C261.06 121.12 259.58 121.88 257.82 121.88C254.8 121.88 252.64 119.68 252.64 116.64C252.64 113.6 254.8 111.4 257.82 111.4C259.64 111.4 261.14 112.2 262.06 113.52L262.16 111.66H263.14V121.58C263.14 124.36 261.1 126.26 258.08 126.26ZM253.8 116.64C253.8 119.06 255.5 120.74 257.94 120.74C260.36 120.74 262.06 119.06 262.06 116.64C262.06 114.22 260.36 112.52 257.94 112.52C255.5 112.52 253.8 114.22 253.8 116.64ZM267.251 122V107.2H268.411V113.54C269.231 112.12 270.671 111.4 272.291 111.4C274.971 111.4 276.611 113.26 276.611 116.24V122H275.451V116.34C275.451 113.96 274.191 112.52 272.131 112.52C269.951 112.52 268.411 114.14 268.411 116.62V122H267.251ZM284.893 122.26C281.753 122.26 279.613 120.04 279.613 116.82C279.613 113.62 281.773 111.4 284.913 111.4C288.173 111.4 290.273 113.8 290.193 117.3H280.793C280.993 119.64 282.593 121.16 284.893 121.16C286.573 121.16 287.913 120.38 288.593 119.04L289.893 119.06C289.093 121.04 287.213 122.26 284.893 122.26ZM280.793 116.28H289.053C288.773 113.94 287.173 112.5 284.913 112.5C282.613 112.5 280.993 114 280.793 116.28ZM296.925 122.26C294.305 122.26 292.645 120.94 292.565 118.88H293.705C293.825 120.34 294.965 121.2 296.945 121.2C298.765 121.2 299.865 120.5 299.865 119.36C299.865 118.28 298.885 117.62 296.685 117.24C293.985 116.78 292.765 115.82 292.765 114.24C292.765 112.48 294.265 111.4 296.685 111.4C299.125 111.4 300.665 112.56 300.825 114.54H299.665C299.545 113.18 298.485 112.44 296.685 112.44C294.965 112.44 293.925 113.14 293.925 114.26C293.925 115.28 294.785 115.84 297.085 116.28C299.705 116.78 301.005 117.82 301.005 119.38C301.005 121.12 299.425 122.26 296.925 122.26ZM308.268 122C306.068 122 304.888 120.76 304.888 118.42V112.72H302.628V111.66H303.948C304.728 111.66 304.948 111.46 305.028 110.7L305.128 109.12H306.048V111.66H309.628V112.72H306.048V118.38C306.048 120.08 306.748 120.88 308.308 120.88H309.768V122H308.268ZM124.3 151.16C121.9 151.16 120.4 149.98 120.4 148.08C120.4 146.24 121.8 145.08 123.92 145.08H128.48V144.34C128.48 142.62 127.22 141.48 125.3 141.48C123.74 141.48 122.52 142.28 122.1 143.52H120.92C121.42 141.6 123.08 140.4 125.28 140.4C127.86 140.4 129.64 141.98 129.64 144.28V151H128.68L128.56 149.22C127.66 150.46 126.14 151.16 124.3 151.16ZM121.56 148.06C121.56 149.32 122.62 150.12 124.34 150.12C126.74 150.12 128.5 148.62 128.5 146.54V146.1H123.96C122.54 146.1 121.56 146.88 121.56 148.06ZM133.54 151V140.66H134.52L134.62 142.34C135.34 141.08 136.6 140.4 138.2 140.4C140 140.4 141.38 141.3 141.98 142.88C142.68 141.3 144.1 140.4 145.92 140.4C148.52 140.4 150.2 142.18 150.2 145.06V151H149.04V145.24C149.04 142.94 147.76 141.52 145.78 141.52C143.76 141.52 142.44 142.98 142.44 145.32V151H141.28V145.24C141.28 142.94 140.02 141.52 138.04 141.52C136.02 141.52 134.7 142.98 134.7 145.32V151H133.54ZM158.627 151.26C155.427 151.26 153.187 149.02 153.187 145.82C153.187 142.64 155.427 140.4 158.627 140.4C161.807 140.4 164.047 142.64 164.047 145.82C164.047 149.02 161.807 151.26 158.627 151.26ZM154.347 145.82C154.347 148.38 156.087 150.14 158.627 150.14C161.147 150.14 162.887 148.38 162.887 145.82C162.887 143.28 161.147 141.52 158.627 141.52C156.087 141.52 154.347 143.28 154.347 145.82ZM167.271 151V140.66H168.251L168.351 142.66C169.171 141.18 170.611 140.4 172.271 140.4C174.971 140.4 176.631 142.3 176.631 145.28V151H175.471V145.38C175.471 143 174.191 141.52 172.131 141.52C169.951 141.52 168.431 143.18 168.431 145.64V151H167.271ZM185.073 155.26C182.533 155.26 180.653 153.92 180.253 151.82H181.433C181.773 153.26 183.173 154.16 185.073 154.16C187.453 154.16 188.973 152.76 188.973 150.54V148.86C188.053 150.12 186.573 150.88 184.813 150.88C181.793 150.88 179.633 148.68 179.633 145.64C179.633 142.6 181.793 140.4 184.813 140.4C186.633 140.4 188.133 141.2 189.053 142.52L189.153 140.66H190.133V150.58C190.133 153.36 188.093 155.26 185.073 155.26ZM180.793 145.64C180.793 148.06 182.493 149.74 184.933 149.74C187.353 149.74 189.053 148.06 189.053 145.64C189.053 143.22 187.353 141.52 184.933 141.52C182.493 141.52 180.793 143.22 180.793 145.64ZM207.494 151V141.72H200.974V151H199.814V141.72H197.454V140.66H199.814V139.46C199.814 137.12 200.994 135.94 203.334 135.94H204.834V137.04H203.434C201.714 137.04 200.974 137.78 200.974 139.54V140.66H208.654V151H207.494ZM206.994 137.72C206.994 137.14 207.434 136.68 208.074 136.68C208.694 136.68 209.134 137.14 209.134 137.72C209.134 138.32 208.694 138.78 208.074 138.78C207.434 138.78 206.994 138.32 206.994 137.72ZM212.779 151V140.66H213.759L213.879 142.98C214.579 141.42 215.759 140.66 217.679 140.66H218.539V141.74H217.639C215.419 141.74 213.939 143.1 213.939 146.24V151H212.779ZM224.425 151.26C221.805 151.26 220.145 149.94 220.065 147.88H221.205C221.325 149.34 222.465 150.2 224.445 150.2C226.265 150.2 227.365 149.5 227.365 148.36C227.365 147.28 226.385 146.62 224.185 146.24C221.485 145.78 220.265 144.82 220.265 143.24C220.265 141.48 221.765 140.4 224.185 140.4C226.625 140.4 228.165 141.56 228.325 143.54H227.165C227.045 142.18 225.985 141.44 224.185 141.44C222.465 141.44 221.425 142.14 221.425 143.26C221.425 144.28 222.285 144.84 224.585 145.28C227.205 145.78 228.505 146.82 228.505 148.38C228.505 150.12 226.925 151.26 224.425 151.26ZM235.768 151C233.568 151 232.388 149.76 232.388 147.42V141.72H230.128V140.66H231.448C232.228 140.66 232.448 140.46 232.528 139.7L232.628 138.12H233.548V140.66H237.128V141.72H233.548V147.38C233.548 149.08 234.248 149.88 235.808 149.88H237.268V151H235.768ZM239.135 146.46V145.38H245.035V146.46H239.135ZM247.334 155V153.9H248.194C249.654 153.9 250.114 153.6 250.654 152.3L251.234 150.84L246.314 140.66H247.614L250.054 145.76L251.834 149.44L253.314 145.76L255.414 140.66H256.634L251.694 152.74C250.974 154.54 250.174 155 248.314 155H247.334ZM263.096 151.26C259.956 151.26 257.816 149.04 257.816 145.82C257.816 142.62 259.976 140.4 263.116 140.4C266.376 140.4 268.476 142.8 268.396 146.3H258.996C259.196 148.64 260.796 150.16 263.096 150.16C264.776 150.16 266.116 149.38 266.796 148.04L268.096 148.06C267.296 150.04 265.416 151.26 263.096 151.26ZM258.996 145.28H267.256C266.976 142.94 265.376 141.5 263.116 141.5C260.816 141.5 259.196 143 258.996 145.28ZM274.671 151.16C272.271 151.16 270.771 149.98 270.771 148.08C270.771 146.24 272.171 145.08 274.291 145.08H278.851V144.34C278.851 142.62 277.591 141.48 275.671 141.48C274.111 141.48 272.891 142.28 272.471 143.52H271.291C271.791 141.6 273.451 140.4 275.651 140.4C278.231 140.4 280.011 141.98 280.011 144.28V151H279.051L278.931 149.22C278.031 150.46 276.511 151.16 274.671 151.16ZM271.931 148.06C271.931 149.32 272.991 150.12 274.711 150.12C277.111 150.12 278.871 148.62 278.871 146.54V146.1H274.331C272.911 146.1 271.931 146.88 271.931 148.06ZM283.912 151V140.66H284.892L285.012 142.98C285.712 141.42 286.892 140.66 288.812 140.66H289.672V141.74H288.772C286.552 141.74 285.072 143.1 285.072 146.24V151H283.912ZM124.62 180.26C122 180.26 120.34 178.94 120.26 176.88H121.4C121.52 178.34 122.66 179.2 124.64 179.2C126.46 179.2 127.56 178.5 127.56 177.36C127.56 176.28 126.58 175.62 124.38 175.24C121.68 174.78 120.46 173.82 120.46 172.24C120.46 170.48 121.96 169.4 124.38 169.4C126.82 169.4 128.36 170.56 128.52 172.54H127.36C127.24 171.18 126.18 170.44 124.38 170.44C122.66 170.44 121.62 171.14 121.62 172.26C121.62 173.28 122.48 173.84 124.78 174.28C127.4 174.78 128.7 175.82 128.7 177.38C128.7 179.12 127.12 180.26 124.62 180.26ZM135.963 180C133.763 180 132.583 178.76 132.583 176.42V170.72H130.323V169.66H131.643C132.423 169.66 132.643 169.46 132.723 168.7L132.823 167.12H133.743V169.66H137.323V170.72H133.743V176.38C133.743 178.08 134.443 178.88 136.003 178.88H137.463V180H135.963ZM144.515 180.26C141.855 180.26 140.215 178.36 140.215 175.38V169.66H141.375V175.28C141.375 177.64 142.635 179.14 144.675 179.14C146.815 179.14 148.295 177.46 148.295 175V169.66H149.455V180H148.495L148.375 177.98C147.575 179.48 146.135 180.26 144.515 180.26ZM157.98 180.26C154.86 180.26 152.68 177.96 152.68 174.82C152.68 171.68 154.86 169.4 157.98 169.4C159.88 169.4 161.42 170.24 162.34 171.58V165.2H163.5V180H162.54L162.4 177.96C161.5 179.38 159.92 180.26 157.98 180.26ZM153.84 174.82C153.84 177.36 155.58 179.14 158.12 179.14C160.64 179.14 162.38 177.36 162.38 174.82C162.38 172.3 160.64 170.52 158.12 170.52C155.58 170.52 153.84 172.3 153.84 174.82ZM172.003 180.26C168.863 180.26 166.723 178.04 166.723 174.82C166.723 171.62 168.883 169.4 172.023 169.4C175.283 169.4 177.383 171.8 177.303 175.3H167.903C168.103 177.64 169.703 179.16 172.003 179.16C173.683 179.16 175.023 178.38 175.703 177.04L177.003 177.06C176.203 179.04 174.323 180.26 172.003 180.26ZM167.903 174.28H176.163C175.883 171.94 174.283 170.5 172.023 170.5C169.723 170.5 168.103 172 167.903 174.28ZM180.474 180V169.66H181.454L181.554 171.66C182.374 170.18 183.814 169.4 185.474 169.4C188.174 169.4 189.834 171.3 189.834 174.28V180H188.674V174.38C188.674 172 187.394 170.52 185.334 170.52C183.154 170.52 181.634 172.18 181.634 174.64V180H180.474ZM197.604 180C195.404 180 194.224 178.76 194.224 176.42V170.72H191.964V169.66H193.284C194.064 169.66 194.284 169.46 194.364 168.7L194.464 167.12H195.384V169.66H198.964V170.72H195.384V176.38C195.384 178.08 196.084 178.88 197.644 178.88H199.104V180H197.604ZM205.577 180.26C202.957 180.26 201.297 178.94 201.217 176.88H202.357C202.477 178.34 203.617 179.2 205.597 179.2C207.417 179.2 208.517 178.5 208.517 177.36C208.517 176.28 207.537 175.62 205.337 175.24C202.637 174.78 201.417 173.82 201.417 172.24C201.417 170.48 202.917 169.4 205.337 169.4C207.777 169.4 209.317 170.56 209.477 172.54H208.317C208.197 171.18 207.137 170.44 205.337 170.44C203.617 170.44 202.577 171.14 202.577 172.26C202.577 173.28 203.437 173.84 205.737 174.28C208.357 174.78 209.657 175.82 209.657 177.38C209.657 179.12 208.077 180.26 205.577 180.26ZM221.175 180.16C218.775 180.16 217.275 178.98 217.275 177.08C217.275 175.24 218.675 174.08 220.795 174.08H225.355V173.34C225.355 171.62 224.095 170.48 222.175 170.48C220.615 170.48 219.395 171.28 218.975 172.52H217.795C218.295 170.6 219.955 169.4 222.155 169.4C224.735 169.4 226.515 170.98 226.515 173.28V180H225.555L225.435 178.22C224.535 179.46 223.015 180.16 221.175 180.16ZM218.435 177.06C218.435 178.32 219.495 179.12 221.215 179.12C223.615 179.12 225.375 177.62 225.375 175.54V175.1H220.835C219.415 175.1 218.435 175.88 218.435 177.06ZM234.283 180C232.083 180 230.903 178.76 230.903 176.42V170.72H228.643V169.66H229.963C230.743 169.66 230.963 169.46 231.043 168.7L231.143 167.12H232.063V169.66H235.643V170.72H232.063V176.38C232.063 178.08 232.763 178.88 234.323 178.88H235.783V180H234.283ZM247.858 180C245.658 180 244.478 178.76 244.478 176.42V170.72H242.218V169.66H243.538C244.318 169.66 244.538 169.46 244.618 168.7L244.718 167.12H245.638V169.66H249.218V170.72H245.638V176.38C245.638 178.08 246.338 178.88 247.898 178.88H249.358V180H247.858ZM252.466 180V165.2H253.626V171.54C254.446 170.12 255.886 169.4 257.506 169.4C260.186 169.4 261.826 171.26 261.826 174.24V180H260.666V174.34C260.666 171.96 259.406 170.52 257.346 170.52C255.166 170.52 253.626 172.14 253.626 174.62V180H252.466ZM270.108 180.26C266.968 180.26 264.828 178.04 264.828 174.82C264.828 171.62 266.988 169.4 270.128 169.4C273.388 169.4 275.488 171.8 275.408 175.3H266.008C266.208 177.64 267.808 179.16 270.108 179.16C271.788 179.16 273.128 178.38 273.808 177.04L275.108 177.06C274.308 179.04 272.428 180.26 270.108 180.26ZM266.008 174.28H274.268C273.988 171.94 272.388 170.5 270.128 170.5C267.828 170.5 266.208 172 266.008 174.28ZM125.14 209.26C122.48 209.26 120.84 207.36 120.84 204.38V198.66H122V204.28C122 206.64 123.26 208.14 125.3 208.14C127.44 208.14 128.92 206.46 128.92 204V198.66H130.08V209H129.12L129 206.98C128.2 208.48 126.76 209.26 125.14 209.26ZM134.205 209V198.66H135.185L135.285 200.66C136.105 199.18 137.545 198.4 139.205 198.4C141.905 198.4 143.565 200.3 143.565 203.28V209H142.405V203.38C142.405 201 141.125 199.52 139.065 199.52C136.885 199.52 135.365 201.18 135.365 203.64V209H134.205ZM147.466 209V198.66H148.626V209H147.466ZM146.986 195.72C146.986 195.14 147.406 194.68 148.046 194.68C148.686 194.68 149.106 195.14 149.106 195.72C149.106 196.32 148.686 196.78 148.046 196.78C147.406 196.78 146.986 196.32 146.986 195.72ZM155.7 209L151.08 198.66H152.34L154.14 202.66L156.28 207.48L158.4 202.66L160.22 198.66H161.46L156.84 209H155.7ZM167.92 209.26C164.78 209.26 162.64 207.04 162.64 203.82C162.64 200.62 164.8 198.4 167.94 198.4C171.2 198.4 173.3 200.8 173.22 204.3H163.82C164.02 206.64 165.62 208.16 167.92 208.16C169.6 208.16 170.94 207.38 171.62 206.04L172.92 206.06C172.12 208.04 170.24 209.26 167.92 209.26ZM163.82 203.28H172.08C171.8 200.94 170.2 199.5 167.94 199.5C165.64 199.5 164.02 201 163.82 203.28ZM176.392 209V198.66H177.372L177.492 200.98C178.192 199.42 179.372 198.66 181.292 198.66H182.152V199.74H181.252C179.032 199.74 177.552 201.1 177.552 204.24V209H176.392ZM188.038 209.26C185.418 209.26 183.758 207.94 183.678 205.88H184.818C184.938 207.34 186.078 208.2 188.058 208.2C189.878 208.2 190.978 207.5 190.978 206.36C190.978 205.28 189.998 204.62 187.798 204.24C185.098 203.78 183.878 202.82 183.878 201.24C183.878 199.48 185.378 198.4 187.798 198.4C190.238 198.4 191.778 199.56 191.938 201.54H190.778C190.658 200.18 189.598 199.44 187.798 199.44C186.078 199.44 185.038 200.14 185.038 201.26C185.038 202.28 185.898 202.84 188.198 203.28C190.818 203.78 192.118 204.82 192.118 206.38C192.118 208.12 190.538 209.26 188.038 209.26ZM195.474 209V198.66H196.634V209H195.474ZM194.994 195.72C194.994 195.14 195.414 194.68 196.054 194.68C196.694 194.68 197.114 195.14 197.114 195.72C197.114 196.32 196.694 196.78 196.054 196.78C195.414 196.78 194.994 196.32 194.994 195.72ZM204.948 209C202.748 209 201.568 207.76 201.568 205.42V199.72H199.308V198.66H200.628C201.408 198.66 201.627 198.46 201.708 197.7L201.808 196.12H202.728V198.66H206.308V199.72H202.728V205.38C202.728 207.08 203.428 207.88 204.988 207.88H206.448V209H204.948ZM208.74 213V211.9H209.6C211.06 211.9 211.52 211.6 212.06 210.3L212.64 208.84L207.72 198.66H209.02L211.46 203.76L213.24 207.44L214.72 203.76L216.82 198.66H218.04L213.1 210.74C212.38 212.54 211.58 213 209.72 213H208.74ZM219.936 209.12C219.296 209.12 218.876 208.68 218.876 208.08C218.876 207.48 219.296 207.04 219.936 207.04C220.576 207.04 220.996 207.48 220.996 208.08C220.996 208.68 220.576 209.12 219.936 209.12Z" fill="black"/>
<path d="M83.2233 133V90.5141H70.2929V85.9362H77.762C81.7777 85.9362 82.9824 85.0528 83.5446 81.6796L84.1068 76.7805H88.0422V133H83.2233Z" fill="black"/>
<path d="M292.707 304V301.895L306.301 289.354C309.688 286.241 311.244 283.724 311.244 280.84C311.244 276.675 308.132 273.837 303.692 273.837C299.115 273.837 295.957 276.858 295.774 281.664H293.165C293.348 275.485 297.559 271.366 303.646 271.366C309.642 271.366 313.899 275.302 313.899 280.84C313.899 284.41 312.068 287.752 308.086 291.413L297.193 301.391H314.723V304H292.707Z" fill="black"/>
<path d="M155.662 346.382C151.757 346.382 149.114 344.033 148.879 340.392H150.641C150.817 342.976 152.784 344.649 155.662 344.649C158.745 344.649 160.741 342.77 160.741 339.951C160.741 337.133 158.715 335.283 155.691 335.283H152.637V333.991L159.097 327.12H149.29V325.447H161.74V326.768L155.251 333.639H155.662C159.743 333.639 162.503 336.193 162.503 340.01C162.503 343.798 159.743 346.382 155.662 346.382Z" fill="black"/>
<path d="M354.26 261V247H358.7C361.94 247 363.86 248.7 363.86 251.6C363.86 254.5 361.94 256.2 358.7 256.2H355.48V261H354.26ZM355.48 255.08H358.68C361.3 255.08 362.64 253.9 362.64 251.62C362.64 249.34 361.3 248.16 358.68 248.16H355.48V255.08ZM366.853 261V250.66H367.833L367.953 252.98C368.653 251.42 369.833 250.66 371.753 250.66H372.613V251.74H371.713C369.493 251.74 368.013 253.1 368.013 256.24V261H366.853ZM379.104 261.26C375.964 261.26 373.824 259.04 373.824 255.82C373.824 252.62 375.984 250.4 379.124 250.4C382.384 250.4 384.484 252.8 384.404 256.3H375.004C375.204 258.64 376.804 260.16 379.104 260.16C380.784 260.16 382.124 259.38 382.804 258.04L384.104 258.06C383.304 260.04 381.424 261.26 379.104 261.26ZM375.004 255.28H383.264C382.984 252.94 381.384 251.5 379.124 251.5C376.824 251.5 375.204 253 375.004 255.28ZM390.145 261L385.525 250.66H386.785L388.585 254.66L390.725 259.48L392.845 254.66L394.665 250.66H395.905L391.285 261H390.145ZM402.366 261.26C399.226 261.26 397.086 259.04 397.086 255.82C397.086 252.62 399.246 250.4 402.386 250.4C405.646 250.4 407.746 252.8 407.666 256.3H398.266C398.466 258.64 400.066 260.16 402.366 260.16C404.046 260.16 405.386 259.38 406.066 258.04L407.366 258.06C406.566 260.04 404.686 261.26 402.366 261.26ZM398.266 255.28H406.526C406.246 252.94 404.646 251.5 402.386 251.5C400.086 251.5 398.466 253 398.266 255.28ZM410.837 261V250.66H411.817L411.917 252.66C412.737 251.18 414.177 250.4 415.837 250.4C418.537 250.4 420.197 252.3 420.197 255.28V261H419.037V255.38C419.037 253 417.757 251.52 415.697 251.52C413.517 251.52 411.997 253.18 411.997 255.64V261H410.837ZM427.967 261C425.767 261 424.587 259.76 424.587 257.42V251.72H422.327V250.66H423.647C424.427 250.66 424.647 250.46 424.727 249.7L424.827 248.12H425.747V250.66H429.327V251.72H425.747V257.38C425.747 259.08 426.447 259.88 428.007 259.88H429.467V261H427.967ZM432.576 261V250.66H433.736V261H432.576ZM432.096 247.72C432.096 247.14 432.516 246.68 433.156 246.68C433.796 246.68 434.216 247.14 434.216 247.72C434.216 248.32 433.796 248.78 433.156 248.78C432.516 248.78 432.096 248.32 432.096 247.72ZM440.809 261L436.189 250.66H437.449L439.249 254.66L441.389 259.48L443.509 254.66L445.329 250.66H446.569L441.949 261H440.809ZM453.03 261.26C449.89 261.26 447.75 259.04 447.75 255.82C447.75 252.62 449.91 250.4 453.05 250.4C456.31 250.4 458.41 252.8 458.33 256.3H448.93C449.13 258.64 450.73 260.16 453.03 260.16C454.71 260.16 456.05 259.38 456.73 258.04L458.03 258.06C457.23 260.04 455.35 261.26 453.03 261.26ZM448.93 255.28H457.19C456.91 252.94 455.31 251.5 453.05 251.5C450.75 251.5 449.13 253 448.93 255.28ZM466.603 249.46C466.603 247.1 467.763 245.94 470.063 245.94H471.683V247.04H470.163C468.483 247.04 467.763 247.78 467.763 249.54V250.66H471.583V251.72H467.763V261H466.603V251.72H464.243V250.66H466.603V249.46ZM476.675 261.16C474.275 261.16 472.775 259.98 472.775 258.08C472.775 256.24 474.175 255.08 476.295 255.08H480.855V254.34C480.855 252.62 479.595 251.48 477.675 251.48C476.115 251.48 474.895 252.28 474.475 253.52H473.295C473.795 251.6 475.455 250.4 477.655 250.4C480.235 250.4 482.015 251.98 482.015 254.28V261H481.055L480.935 259.22C480.035 260.46 478.515 261.16 476.675 261.16ZM473.935 258.06C473.935 259.32 474.995 260.12 476.715 260.12C479.115 260.12 480.875 258.62 480.875 256.54V256.1H476.335C474.915 256.1 473.935 256.88 473.935 258.06ZM490.295 261.26C487.195 261.26 485.015 259 485.015 255.82C485.015 252.64 487.195 250.4 490.295 250.4C492.755 250.4 494.775 251.86 495.375 254.1H494.195C493.515 252.46 492.075 251.52 490.295 251.52C487.855 251.52 486.175 253.28 486.175 255.82C486.175 258.38 487.855 260.14 490.295 260.14C492.195 260.14 493.675 259.08 494.255 257.38H495.475C494.775 259.8 492.835 261.26 490.295 261.26ZM502.498 261C500.298 261 499.118 259.76 499.118 257.42V251.72H496.858V250.66H498.178C498.958 250.66 499.178 250.46 499.258 249.7L499.358 248.12H500.278V250.66H503.858V251.72H500.278V257.38C500.278 259.08 500.978 259.88 502.538 259.88H503.998V261H502.498ZM511.139 261.26C507.939 261.26 505.699 259.02 505.699 255.82C505.699 252.64 507.939 250.4 511.139 250.4C514.319 250.4 516.559 252.64 516.559 255.82C516.559 259.02 514.319 261.26 511.139 261.26ZM506.859 255.82C506.859 258.38 508.599 260.14 511.139 260.14C513.659 260.14 515.399 258.38 515.399 255.82C515.399 253.28 513.659 251.52 511.139 251.52C508.599 251.52 506.859 253.28 506.859 255.82ZM519.783 261V250.66H520.763L520.883 252.98C521.583 251.42 522.763 250.66 524.683 250.66H525.543V251.74H524.643C522.423 251.74 520.943 253.1 520.943 256.24V261H519.783ZM531.429 261.26C528.809 261.26 527.149 259.94 527.069 257.88H528.209C528.329 259.34 529.469 260.2 531.449 260.2C533.269 260.2 534.369 259.5 534.369 258.36C534.369 257.28 533.389 256.62 531.189 256.24C528.489 255.78 527.269 254.82 527.269 253.24C527.269 251.48 528.769 250.4 531.189 250.4C533.629 250.4 535.169 251.56 535.329 253.54H534.169C534.049 252.18 532.989 251.44 531.189 251.44C529.469 251.44 528.429 252.14 528.429 253.26C528.429 254.28 529.289 254.84 531.589 255.28C534.209 255.78 535.509 256.82 535.509 258.38C535.509 260.12 533.929 261.26 531.429 261.26ZM354.06 290V279.66H355.22V290H354.06ZM353.58 276.72C353.58 276.14 354 275.68 354.64 275.68C355.28 275.68 355.7 276.14 355.7 276.72C355.7 277.32 355.28 277.78 354.64 277.78C354 277.78 353.58 277.32 353.58 276.72ZM359.333 290V279.66H360.313L360.413 281.66C361.233 280.18 362.673 279.4 364.333 279.4C367.033 279.4 368.693 281.3 368.693 284.28V290H367.533V284.38C367.533 282 366.253 280.52 364.193 280.52C362.013 280.52 360.493 282.18 360.493 284.64V290H359.333ZM376.975 290.26C373.875 290.26 371.695 288 371.695 284.82C371.695 281.64 373.875 279.4 376.975 279.4C379.435 279.4 381.455 280.86 382.055 283.1H380.875C380.195 281.46 378.755 280.52 376.975 280.52C374.535 280.52 372.855 282.28 372.855 284.82C372.855 287.38 374.535 289.14 376.975 289.14C378.875 289.14 380.355 288.08 380.935 286.38H382.155C381.455 288.8 379.515 290.26 376.975 290.26ZM385.31 290V275.2H386.47V290H385.31ZM394.663 290.26C392.003 290.26 390.363 288.36 390.363 285.38V279.66H391.523V285.28C391.523 287.64 392.783 289.14 394.823 289.14C396.963 289.14 398.443 287.46 398.443 285V279.66H399.603V290H398.643L398.523 287.98C397.723 289.48 396.283 290.26 394.663 290.26ZM408.128 290.26C405.008 290.26 402.828 287.96 402.828 284.82C402.828 281.68 405.008 279.4 408.128 279.4C410.028 279.4 411.568 280.24 412.488 281.58V275.2H413.648V290H412.688L412.548 287.96C411.648 289.38 410.068 290.26 408.128 290.26ZM403.988 284.82C403.988 287.36 405.728 289.14 408.268 289.14C410.788 289.14 412.528 287.36 412.528 284.82C412.528 282.3 410.788 280.52 408.268 280.52C405.728 280.52 403.988 282.3 403.988 284.82ZM422.151 290.26C419.011 290.26 416.871 288.04 416.871 284.82C416.871 281.62 419.031 279.4 422.171 279.4C425.431 279.4 427.531 281.8 427.451 285.3H418.051C418.251 287.64 419.851 289.16 422.151 289.16C423.831 289.16 425.171 288.38 425.851 287.04L427.151 287.06C426.351 289.04 424.471 290.26 422.151 290.26ZM418.051 284.28H426.311C426.031 281.94 424.431 280.5 422.171 280.5C419.871 280.5 418.251 282 418.051 284.28ZM435.023 290.26C431.903 290.26 429.723 287.96 429.723 284.82C429.723 281.68 431.903 279.4 435.023 279.4C436.923 279.4 438.463 280.24 439.383 281.58V275.2H440.543V290H439.582L439.443 287.96C438.543 289.38 436.963 290.26 435.023 290.26ZM430.883 284.82C430.883 287.36 432.623 289.14 435.163 289.14C437.683 289.14 439.423 287.36 439.423 284.82C439.423 282.3 437.683 280.52 435.163 280.52C432.623 280.52 430.883 282.3 430.883 284.82ZM453.928 290.26C450.788 290.26 448.648 288.04 448.648 284.82C448.648 281.62 450.808 279.4 453.948 279.4C457.208 279.4 459.308 281.8 459.228 285.3H449.828C450.028 287.64 451.628 289.16 453.928 289.16C455.608 289.16 456.948 288.38 457.628 287.04L458.928 287.06C458.128 289.04 456.248 290.26 453.928 290.26ZM449.828 284.28H458.088C457.808 281.94 456.208 280.5 453.948 280.5C451.648 280.5 450.028 282 449.828 284.28ZM470.786 278.46C470.786 276.12 471.966 274.94 474.306 274.94H475.866V276.04H474.406C472.686 276.04 471.946 276.78 471.946 278.54V279.66H475.766V280.72H471.946V290H470.786V280.72H464.286V290H463.126V280.72H460.766V279.66H463.126V278.46C463.126 276.12 464.306 274.94 466.646 274.94H468.206V276.04H466.746C465.026 276.04 464.286 276.78 464.286 278.54V279.66H470.786V278.46ZM482.17 290.26C479.03 290.26 476.89 288.04 476.89 284.82C476.89 281.62 479.05 279.4 482.19 279.4C485.45 279.4 487.55 281.8 487.47 285.3H478.07C478.27 287.64 479.87 289.16 482.17 289.16C483.85 289.16 485.19 288.38 485.87 287.04L487.17 287.06C486.37 289.04 484.49 290.26 482.17 290.26ZM478.07 284.28H486.33C486.05 281.94 484.45 280.5 482.19 280.5C479.89 280.5 478.27 282 478.07 284.28ZM495.022 290.26C491.922 290.26 489.742 288 489.742 284.82C489.742 281.64 491.922 279.4 495.022 279.4C497.482 279.4 499.502 280.86 500.102 283.1H498.922C498.242 281.46 496.802 280.52 495.022 280.52C492.582 280.52 490.902 282.28 490.902 284.82C490.902 287.38 492.582 289.14 495.022 289.14C496.922 289.14 498.402 288.08 498.982 286.38H500.202C499.502 288.8 497.562 290.26 495.022 290.26ZM507.225 290C505.025 290 503.845 288.76 503.845 286.42V280.72H501.585V279.66H502.905C503.685 279.66 503.905 279.46 503.985 278.7L504.085 277.12H505.005V279.66H508.585V280.72H505.005V286.38C505.005 288.08 505.705 288.88 507.265 288.88H508.725V290H507.225ZM511.833 290V279.66H512.993V290H511.833ZM511.353 276.72C511.353 276.14 511.773 275.68 512.413 275.68C513.053 275.68 513.473 276.14 513.473 276.72C513.473 277.32 513.053 277.78 512.413 277.78C511.773 277.78 511.353 277.32 511.353 276.72ZM520.067 290L515.447 279.66H516.707L518.507 283.66L520.647 288.48L522.767 283.66L524.587 279.66H525.827L521.207 290H520.067ZM532.288 290.26C529.148 290.26 527.008 288.04 527.008 284.82C527.008 281.62 529.168 279.4 532.308 279.4C535.568 279.4 537.668 281.8 537.588 285.3H528.188C528.388 287.64 529.988 289.16 532.288 289.16C533.968 289.16 535.308 288.38 535.988 287.04L537.288 287.06C536.488 289.04 534.608 290.26 532.288 290.26ZM528.188 284.28H536.448C536.168 281.94 534.568 280.5 532.308 280.5C530.008 280.5 528.388 282 528.188 284.28ZM358.26 319C356.06 319 354.88 317.76 354.88 315.42V309.72H352.62V308.66H353.94C354.72 308.66 354.94 308.46 355.02 307.7L355.12 306.12H356.04V308.66H359.62V309.72H356.04V315.38C356.04 317.08 356.74 317.88 358.3 317.88H359.76V319H358.26ZM362.869 319V308.66H364.029V319H362.869ZM362.389 305.72C362.389 305.14 362.809 304.68 363.449 304.68C364.089 304.68 364.509 305.14 364.509 305.72C364.509 306.32 364.089 306.78 363.449 306.78C362.809 306.78 362.389 306.32 362.389 305.72ZM368.142 319V308.66H369.122L369.222 310.34C369.942 309.08 371.202 308.4 372.802 308.4C374.602 308.4 375.982 309.3 376.582 310.88C377.282 309.3 378.702 308.4 380.522 308.4C383.122 308.4 384.802 310.18 384.802 313.06V319H383.642V313.24C383.642 310.94 382.362 309.52 380.382 309.52C378.362 309.52 377.042 310.98 377.042 313.32V319H375.882V313.24C375.882 310.94 374.622 309.52 372.642 309.52C370.622 309.52 369.302 310.98 369.302 313.32V319H368.142ZM393.069 319.26C389.929 319.26 387.789 317.04 387.789 313.82C387.789 310.62 389.949 308.4 393.089 308.4C396.349 308.4 398.449 310.8 398.369 314.3H388.969C389.169 316.64 390.769 318.16 393.069 318.16C394.749 318.16 396.089 317.38 396.769 316.04L398.069 316.06C397.269 318.04 395.389 319.26 393.069 319.26ZM388.969 313.28H397.229C396.949 310.94 395.349 309.5 393.089 309.5C390.789 309.5 389.169 311 388.969 313.28ZM406.423 319V308.66H407.403L407.503 310.34C408.223 309.08 409.483 308.4 411.083 308.4C412.883 308.4 414.263 309.3 414.863 310.88C415.563 309.3 416.983 308.4 418.803 308.4C421.403 308.4 423.083 310.18 423.083 313.06V319H421.923V313.24C421.923 310.94 420.643 309.52 418.663 309.52C416.643 309.52 415.323 310.98 415.323 313.32V319H414.163V313.24C414.163 310.94 412.903 309.52 410.923 309.52C408.903 309.52 407.583 310.98 407.583 313.32V319H406.423ZM430.21 319.16C427.81 319.16 426.31 317.98 426.31 316.08C426.31 314.24 427.71 313.08 429.83 313.08H434.39V312.34C434.39 310.62 433.13 309.48 431.21 309.48C429.65 309.48 428.43 310.28 428.01 311.52H426.83C427.33 309.6 428.99 308.4 431.19 308.4C433.77 308.4 435.55 309.98 435.55 312.28V319H434.59L434.47 317.22C433.57 318.46 432.05 319.16 430.21 319.16ZM427.47 316.06C427.47 317.32 428.53 318.12 430.25 318.12C432.65 318.12 434.41 316.62 434.41 314.54V314.1H429.87C428.45 314.1 427.47 314.88 427.47 316.06ZM439.451 319V308.66H440.431L440.531 310.66C441.351 309.18 442.791 308.4 444.451 308.4C447.151 308.4 448.811 310.3 448.811 313.28V319H447.651V313.38C447.651 311 446.371 309.52 444.311 309.52C442.131 309.52 440.611 311.18 440.611 313.64V319H439.451ZM455.952 319.16C453.552 319.16 452.052 317.98 452.052 316.08C452.052 314.24 453.452 313.08 455.572 313.08H460.132V312.34C460.132 310.62 458.872 309.48 456.952 309.48C455.392 309.48 454.172 310.28 453.752 311.52H452.572C453.072 309.6 454.732 308.4 456.932 308.4C459.512 308.4 461.292 309.98 461.292 312.28V319H460.332L460.212 317.22C459.312 318.46 457.792 319.16 455.952 319.16ZM453.212 316.06C453.212 317.32 454.272 318.12 455.992 318.12C458.392 318.12 460.152 316.62 460.152 314.54V314.1H455.612C454.192 314.1 453.212 314.88 453.212 316.06ZM469.733 323.26C467.193 323.26 465.313 321.92 464.913 319.82H466.093C466.433 321.26 467.833 322.16 469.733 322.16C472.113 322.16 473.633 320.76 473.633 318.54V316.86C472.713 318.12 471.233 318.88 469.473 318.88C466.453 318.88 464.293 316.68 464.293 313.64C464.293 310.6 466.453 308.4 469.473 308.4C471.293 308.4 472.793 309.2 473.713 310.52L473.813 308.66H474.793V318.58C474.793 321.36 472.753 323.26 469.733 323.26ZM465.453 313.64C465.453 316.06 467.153 317.74 469.593 317.74C472.013 317.74 473.713 316.06 473.713 313.64C473.713 311.22 472.013 309.52 469.593 309.52C467.153 309.52 465.453 311.22 465.453 313.64ZM483.284 319.26C480.144 319.26 478.004 317.04 478.004 313.82C478.004 310.62 480.164 308.4 483.304 308.4C486.564 308.4 488.664 310.8 488.584 314.3H479.184C479.384 316.64 480.984 318.16 483.284 318.16C484.964 318.16 486.304 317.38 486.984 316.04L488.284 316.06C487.484 318.04 485.604 319.26 483.284 319.26ZM479.184 313.28H487.444C487.164 310.94 485.564 309.5 483.304 309.5C481.004 309.5 479.384 311 479.184 313.28ZM491.755 319V308.66H492.735L492.835 310.34C493.555 309.08 494.815 308.4 496.415 308.4C498.215 308.4 499.595 309.3 500.195 310.88C500.895 309.3 502.315 308.4 504.135 308.4C506.735 308.4 508.415 310.18 508.415 313.06V319H507.255V313.24C507.255 310.94 505.975 309.52 503.995 309.52C501.975 309.52 500.655 310.98 500.655 313.32V319H499.495V313.24C499.495 310.94 498.235 309.52 496.255 309.52C494.235 309.52 492.915 310.98 492.915 313.32V319H491.755ZM516.682 319.26C513.542 319.26 511.402 317.04 511.402 313.82C511.402 310.62 513.562 308.4 516.702 308.4C519.962 308.4 522.062 310.8 521.982 314.3H512.582C512.782 316.64 514.382 318.16 516.682 318.16C518.362 318.16 519.702 317.38 520.382 316.04L521.682 316.06C520.882 318.04 519.002 319.26 516.682 319.26ZM512.582 313.28H520.842C520.562 310.94 518.962 309.5 516.702 309.5C514.402 309.5 512.782 311 512.582 313.28ZM525.154 319V308.66H526.134L526.234 310.66C527.054 309.18 528.494 308.4 530.154 308.4C532.854 308.4 534.514 310.3 534.514 313.28V319H533.354V313.38C533.354 311 532.074 309.52 530.014 309.52C527.834 309.52 526.314 311.18 526.314 313.64V319H525.154ZM542.283 319C540.083 319 538.903 317.76 538.903 315.42V309.72H536.643V308.66H537.963C538.743 308.66 538.963 308.46 539.043 307.7L539.143 306.12H540.063V308.66H543.643V309.72H540.063V315.38C540.063 317.08 540.763 317.88 542.323 317.88H543.783V319H542.283ZM546.732 320.92C547.412 320.6 547.812 319.84 547.752 318.98C547.572 319.06 547.392 319.1 547.212 319.1C546.632 319.1 546.192 318.66 546.192 318.08C546.192 317.5 546.632 317.04 547.292 317.04C548.112 317.04 548.672 317.72 548.672 318.78C548.672 320.22 547.832 321.46 546.732 321.7V320.92ZM359.58 348.26C357.68 348.26 356.14 347.4 355.22 346.04V352H354.06V337.66H355.04L355.16 339.72C356.06 338.28 357.64 337.4 359.58 337.4C362.72 337.4 364.88 339.68 364.88 342.82C364.88 345.96 362.72 348.26 359.58 348.26ZM355.18 342.82C355.18 345.36 356.92 347.14 359.46 347.14C362 347.14 363.72 345.36 363.72 342.82C363.72 340.3 362 338.52 359.46 338.52C356.92 338.52 355.18 340.3 355.18 342.82ZM368.103 348V333.2H369.263V339.54C370.083 338.12 371.523 337.4 373.143 337.4C375.823 337.4 377.463 339.26 377.463 342.24V348H376.303V342.34C376.303 339.96 375.043 338.52 372.983 338.52C370.803 338.52 369.263 340.14 369.263 342.62V348H368.103ZM380.295 352V350.9H381.155C382.615 350.9 383.075 350.6 383.615 349.3L384.195 347.84L379.275 337.66H380.575L383.015 342.76L384.795 346.44L386.275 342.76L388.375 337.66H389.595L384.655 349.74C383.935 351.54 383.135 352 381.275 352H380.295ZM395.257 348.26C392.637 348.26 390.977 346.94 390.897 344.88H392.037C392.157 346.34 393.297 347.2 395.277 347.2C397.097 347.2 398.197 346.5 398.197 345.36C398.197 344.28 397.217 343.62 395.017 343.24C392.317 342.78 391.097 341.82 391.097 340.24C391.097 338.48 392.597 337.4 395.017 337.4C397.457 337.4 398.997 338.56 399.157 340.54H397.997C397.877 339.18 396.817 338.44 395.017 338.44C393.297 338.44 392.257 339.14 392.257 340.26C392.257 341.28 393.117 341.84 395.417 342.28C398.037 342.78 399.337 343.82 399.337 345.38C399.337 347.12 397.757 348.26 395.257 348.26ZM402.693 348V337.66H403.853V348H402.693ZM402.213 334.72C402.213 334.14 402.633 333.68 403.273 333.68C403.913 333.68 404.333 334.14 404.333 334.72C404.333 335.32 403.913 335.78 403.273 335.78C402.633 335.78 402.213 335.32 402.213 334.72ZM412.346 348.26C409.246 348.26 407.066 346 407.066 342.82C407.066 339.64 409.246 337.4 412.346 337.4C414.806 337.4 416.826 338.86 417.426 341.1H416.246C415.566 339.46 414.126 338.52 412.346 338.52C409.906 338.52 408.226 340.28 408.226 342.82C408.226 345.38 409.906 347.14 412.346 347.14C414.246 347.14 415.726 346.08 416.306 344.38H417.526C416.826 346.8 414.886 348.26 412.346 348.26ZM423.784 348.16C421.384 348.16 419.884 346.98 419.884 345.08C419.884 343.24 421.284 342.08 423.404 342.08H427.964V341.34C427.964 339.62 426.704 338.48 424.784 338.48C423.224 338.48 422.004 339.28 421.584 340.52H420.404C420.904 338.6 422.564 337.4 424.764 337.4C427.344 337.4 429.124 338.98 429.124 341.28V348H428.164L428.044 346.22C427.144 347.46 425.624 348.16 423.784 348.16ZM421.044 345.06C421.044 346.32 422.104 347.12 423.824 347.12C426.224 347.12 427.984 345.62 427.984 343.54V343.1H423.444C422.024 343.1 421.044 343.88 421.044 345.06ZM433.025 348V333.2H434.185V348H433.025ZM446.89 348.16C444.49 348.16 442.99 346.98 442.99 345.08C442.99 343.24 444.39 342.08 446.51 342.08H451.07V341.34C451.07 339.62 449.81 338.48 447.89 338.48C446.33 338.48 445.11 339.28 444.69 340.52H443.51C444.01 338.6 445.67 337.4 447.87 337.4C450.45 337.4 452.23 338.98 452.23 341.28V348H451.27L451.15 346.22C450.25 347.46 448.73 348.16 446.89 348.16ZM444.15 345.06C444.15 346.32 445.21 347.12 446.93 347.12C449.33 347.12 451.09 345.62 451.09 343.54V343.1H446.55C445.13 343.1 444.15 343.88 444.15 345.06ZM460.51 348.26C457.41 348.26 455.23 346 455.23 342.82C455.23 339.64 457.41 337.4 460.51 337.4C462.97 337.4 464.99 338.86 465.59 341.1H464.41C463.73 339.46 462.29 338.52 460.51 338.52C458.07 338.52 456.39 340.28 456.39 342.82C456.39 345.38 458.07 347.14 460.51 347.14C462.41 347.14 463.89 346.08 464.47 344.38H465.69C464.99 346.8 463.05 348.26 460.51 348.26ZM472.713 348C470.513 348 469.333 346.76 469.333 344.42V338.72H467.073V337.66H468.393C469.173 337.66 469.393 337.46 469.473 336.7L469.573 335.12H470.493V337.66H474.073V338.72H470.493V344.38C470.493 346.08 471.193 346.88 472.753 346.88H474.213V348H472.713ZM477.322 348V337.66H478.482V348H477.322ZM476.842 334.72C476.842 334.14 477.262 333.68 477.902 333.68C478.542 333.68 478.962 334.14 478.962 334.72C478.962 335.32 478.542 335.78 477.902 335.78C477.262 335.78 476.842 335.32 476.842 334.72ZM485.555 348L480.935 337.66H482.195L483.995 341.66L486.135 346.48L488.255 341.66L490.075 337.66H491.315L486.695 348H485.555ZM493.787 348V337.66H494.947V348H493.787ZM493.307 334.72C493.307 334.14 493.727 333.68 494.367 333.68C495.007 333.68 495.427 334.14 495.427 334.72C495.427 335.32 495.007 335.78 494.367 335.78C493.727 335.78 493.307 335.32 493.307 334.72ZM503.26 348C501.06 348 499.88 346.76 499.88 344.42V338.72H497.62V337.66H498.94C499.72 337.66 499.94 337.46 500.02 336.7L500.12 335.12H501.04V337.66H504.62V338.72H501.04V344.38C501.04 346.08 501.74 346.88 503.3 346.88H504.76V348H503.26ZM507.053 352V350.9H507.913C509.373 350.9 509.833 350.6 510.373 349.3L510.953 347.84L506.033 337.66H507.333L509.773 342.76L511.553 346.44L513.033 342.76L515.133 337.66H516.353L511.413 349.74C510.693 351.54 509.893 352 508.033 352H507.053ZM517.728 349.92C518.408 349.6 518.808 348.84 518.748 347.98C518.568 348.06 518.388 348.1 518.208 348.1C517.628 348.1 517.188 347.66 517.188 347.08C517.188 346.5 517.628 346.04 518.288 346.04C519.108 346.04 519.668 346.72 519.668 347.78C519.668 349.22 518.828 350.46 517.728 350.7V349.92ZM357.3 377.16C354.9 377.16 353.4 375.98 353.4 374.08C353.4 372.24 354.8 371.08 356.92 371.08H361.48V370.34C361.48 368.62 360.22 367.48 358.3 367.48C356.74 367.48 355.52 368.28 355.1 369.52H353.92C354.42 367.6 356.08 366.4 358.28 366.4C360.86 366.4 362.64 367.98 362.64 370.28V377H361.68L361.56 375.22C360.66 376.46 359.14 377.16 357.3 377.16ZM354.56 374.06C354.56 375.32 355.62 376.12 357.34 376.12C359.74 376.12 361.5 374.62 361.5 372.54V372.1H356.96C355.54 372.1 354.56 372.88 354.56 374.06ZM366.54 377V366.66H367.52L367.62 368.66C368.44 367.18 369.88 366.4 371.54 366.4C374.24 366.4 375.9 368.3 375.9 371.28V377H374.74V371.38C374.74 369 373.46 367.52 371.4 367.52C369.22 367.52 367.7 369.18 367.7 371.64V377H366.54ZM384.202 377.26C381.082 377.26 378.902 374.96 378.902 371.82C378.902 368.68 381.082 366.4 384.202 366.4C386.102 366.4 387.642 367.24 388.562 368.58V362.2H389.722V377H388.762L388.622 374.96C387.722 376.38 386.142 377.26 384.202 377.26ZM380.062 371.82C380.062 374.36 381.802 376.14 384.342 376.14C386.862 376.14 388.602 374.36 388.602 371.82C388.602 369.3 386.862 367.52 384.342 367.52C381.802 367.52 380.062 369.3 380.062 371.82ZM399.197 377V362.2H400.357V377H399.197ZM408.85 377.26C405.71 377.26 403.57 375.04 403.57 371.82C403.57 368.62 405.73 366.4 408.87 366.4C412.13 366.4 414.23 368.8 414.15 372.3H404.75C404.95 374.64 406.55 376.16 408.85 376.16C410.53 376.16 411.87 375.38 412.55 374.04L413.85 374.06C413.05 376.04 411.17 377.26 408.85 377.26ZM404.75 371.28H413.01C412.73 368.94 411.13 367.5 408.87 367.5C406.57 367.5 404.95 369 404.75 371.28ZM417.322 377V366.66H418.482V377H417.322ZM416.842 363.72C416.842 363.14 417.262 362.68 417.902 362.68C418.542 362.68 418.962 363.14 418.962 363.72C418.962 364.32 418.542 364.78 417.902 364.78C417.262 364.78 416.842 364.32 416.842 363.72ZM426.155 377.26C423.535 377.26 421.875 375.94 421.795 373.88H422.935C423.055 375.34 424.195 376.2 426.175 376.2C427.995 376.2 429.095 375.5 429.095 374.36C429.095 373.28 428.115 372.62 425.915 372.24C423.215 371.78 421.995 370.82 421.995 369.24C421.995 367.48 423.495 366.4 425.915 366.4C428.355 366.4 429.895 367.56 430.055 369.54H428.895C428.775 368.18 427.715 367.44 425.915 367.44C424.195 367.44 423.155 368.14 423.155 369.26C423.155 370.28 424.015 370.84 426.315 371.28C428.935 371.78 430.235 372.82 430.235 374.38C430.235 376.12 428.655 377.26 426.155 377.26ZM437.671 377.26C435.011 377.26 433.371 375.36 433.371 372.38V366.66H434.531V372.28C434.531 374.64 435.791 376.14 437.831 376.14C439.971 376.14 441.451 374.46 441.451 372V366.66H442.611V377H441.651L441.531 374.98C440.731 376.48 439.291 377.26 437.671 377.26ZM446.736 377V366.66H447.716L447.836 368.98C448.536 367.42 449.716 366.66 451.636 366.66H452.496V367.74H451.596C449.376 367.74 447.896 369.1 447.896 372.24V377H446.736ZM458.987 377.26C455.847 377.26 453.707 375.04 453.707 371.82C453.707 368.62 455.867 366.4 459.007 366.4C462.267 366.4 464.367 368.8 464.287 372.3H454.887C455.087 374.64 456.687 376.16 458.987 376.16C460.667 376.16 462.007 375.38 462.687 374.04L463.987 374.06C463.187 376.04 461.307 377.26 458.987 377.26ZM454.887 371.28H463.147C462.867 368.94 461.267 367.5 459.007 367.5C456.707 367.5 455.087 369 454.887 371.28ZM357.3 406.16C354.9 406.16 353.4 404.98 353.4 403.08C353.4 401.24 354.8 400.08 356.92 400.08H361.48V399.34C361.48 397.62 360.22 396.48 358.3 396.48C356.74 396.48 355.52 397.28 355.1 398.52H353.92C354.42 396.6 356.08 395.4 358.28 395.4C360.86 395.4 362.64 396.98 362.64 399.28V406H361.68L361.56 404.22C360.66 405.46 359.14 406.16 357.3 406.16ZM354.56 403.06C354.56 404.32 355.62 405.12 357.34 405.12C359.74 405.12 361.5 403.62 361.5 401.54V401.1H356.96C355.54 401.1 354.56 401.88 354.56 403.06ZM370.92 406.26C367.82 406.26 365.64 404 365.64 400.82C365.64 397.64 367.82 395.4 370.92 395.4C373.38 395.4 375.4 396.86 376 399.1H374.82C374.14 397.46 372.7 396.52 370.92 396.52C368.48 396.52 366.8 398.28 366.8 400.82C366.8 403.38 368.48 405.14 370.92 405.14C372.82 405.14 374.3 404.08 374.88 402.38H376.1C375.4 404.8 373.46 406.26 370.92 406.26ZM383.123 406C380.923 406 379.743 404.76 379.743 402.42V396.72H377.483V395.66H378.803C379.583 395.66 379.803 395.46 379.883 394.7L379.983 393.12H380.903V395.66H384.483V396.72H380.903V402.38C380.903 404.08 381.603 404.88 383.163 404.88H384.623V406H383.123ZM387.732 406V395.66H388.892V406H387.732ZM387.252 392.72C387.252 392.14 387.672 391.68 388.312 391.68C388.952 391.68 389.372 392.14 389.372 392.72C389.372 393.32 388.952 393.78 388.312 393.78C387.672 393.78 387.252 393.32 387.252 392.72ZM395.965 406L391.345 395.66H392.605L394.405 399.66L396.545 404.48L398.665 399.66L400.485 395.66H401.725L397.105 406H395.965ZM404.197 406V395.66H405.357V406H404.197ZM403.717 392.72C403.717 392.14 404.137 391.68 404.777 391.68C405.417 391.68 405.837 392.14 405.837 392.72C405.837 393.32 405.417 393.78 404.777 393.78C404.137 393.78 403.717 393.32 403.717 392.72ZM413.67 406C411.47 406 410.29 404.76 410.29 402.42V396.72H408.03V395.66H409.35C410.13 395.66 410.35 395.46 410.43 394.7L410.53 393.12H411.45V395.66H415.03V396.72H411.45V402.38C411.45 404.08 412.15 404.88 413.71 404.88H415.17V406H413.67ZM418.279 406V395.66H419.439V406H418.279ZM417.799 392.72C417.799 392.14 418.219 391.68 418.859 391.68C419.499 391.68 419.919 392.14 419.919 392.72C419.919 393.32 419.499 393.78 418.859 393.78C418.219 393.78 417.799 393.32 417.799 392.72ZM427.932 406.26C424.792 406.26 422.652 404.04 422.652 400.82C422.652 397.62 424.812 395.4 427.952 395.4C431.212 395.4 433.312 397.8 433.232 401.3H423.832C424.032 403.64 425.632 405.16 427.932 405.16C429.612 405.16 430.952 404.38 431.632 403.04L432.932 403.06C432.132 405.04 430.252 406.26 427.932 406.26ZM423.832 400.28H432.092C431.812 397.94 430.212 396.5 427.952 396.5C425.652 396.5 424.032 398 423.832 400.28ZM439.964 406.26C437.344 406.26 435.684 404.94 435.604 402.88H436.744C436.864 404.34 438.004 405.2 439.984 405.2C441.804 405.2 442.904 404.5 442.904 403.36C442.904 402.28 441.924 401.62 439.724 401.24C437.024 400.78 435.804 399.82 435.804 398.24C435.804 396.48 437.304 395.4 439.724 395.4C442.164 395.4 443.704 396.56 443.864 398.54H442.704C442.584 397.18 441.524 396.44 439.724 396.44C438.004 396.44 436.964 397.14 436.964 398.26C436.964 399.28 437.824 399.84 440.124 400.28C442.744 400.78 444.044 401.82 444.044 403.38C444.044 405.12 442.464 406.26 439.964 406.26ZM447.389 406.12C446.749 406.12 446.329 405.68 446.329 405.08C446.329 404.48 446.749 404.04 447.389 404.04C448.029 404.04 448.449 404.48 448.449 405.08C448.449 405.68 448.029 406.12 447.389 406.12Z" fill="black"/>
<path d="M31.58 441V428.16H26.76V427H37.62V428.16H32.78V441H31.58ZM40.1498 441V426.2H41.3098V432.54C42.1298 431.12 43.5698 430.4 45.1898 430.4C47.8698 430.4 49.5098 432.26 49.5098 435.24V441H48.3498V435.34C48.3498 432.96 47.0898 431.52 45.0298 431.52C42.8498 431.52 41.3098 433.14 41.3098 435.62V441H40.1498ZM57.7916 441.26C54.6516 441.26 52.5116 439.04 52.5116 435.82C52.5116 432.62 54.6716 430.4 57.8116 430.4C61.0716 430.4 63.1716 432.8 63.0916 436.3H53.6916C53.8916 438.64 55.4916 440.16 57.7916 440.16C59.4716 440.16 60.8116 439.38 61.4916 438.04L62.7916 438.06C61.9916 440.04 60.1116 441.26 57.7916 441.26ZM53.6916 435.28H61.9516C61.6716 432.94 60.0716 431.5 57.8116 431.5C55.5116 431.5 53.8916 433 53.6916 435.28ZM71.3647 429.46C71.3647 427.1 72.5247 425.94 74.8247 425.94H76.4447V427.04H74.9247C73.2447 427.04 72.5247 427.78 72.5247 429.54V430.66H76.3447V431.72H72.5247V441H71.3647V431.72H69.0047V430.66H71.3647V429.46ZM82.7525 441.26C79.6125 441.26 77.4725 439.04 77.4725 435.82C77.4725 432.62 79.6325 430.4 82.7725 430.4C86.0325 430.4 88.1325 432.8 88.0525 436.3H78.6525C78.8525 438.64 80.4525 440.16 82.7525 440.16C84.4325 440.16 85.7725 439.38 86.4525 438.04L87.7525 438.06C86.9525 440.04 85.0725 441.26 82.7525 441.26ZM78.6525 435.28H86.9125C86.6325 432.94 85.0325 431.5 82.7725 431.5C80.4725 431.5 78.8525 433 78.6525 435.28ZM95.6041 441.26C92.4641 441.26 90.3241 439.04 90.3241 435.82C90.3241 432.62 92.4841 430.4 95.6241 430.4C98.8841 430.4 100.984 432.8 100.904 436.3H91.5041C91.7041 438.64 93.3041 440.16 95.6041 440.16C97.2841 440.16 98.6241 439.38 99.3041 438.04L100.604 438.06C99.8041 440.04 97.9241 441.26 95.6041 441.26ZM91.5041 435.28H99.7641C99.4841 432.94 97.8841 431.5 95.6241 431.5C93.3241 431.5 91.7041 433 91.5041 435.28ZM104.076 441V426.2H105.236V441H104.076ZM109.349 441V430.66H110.509V441H109.349ZM108.869 427.72C108.869 427.14 109.289 426.68 109.929 426.68C110.569 426.68 110.989 427.14 110.989 427.72C110.989 428.32 110.569 428.78 109.929 428.78C109.289 428.78 108.869 428.32 108.869 427.72ZM114.623 441V430.66H115.603L115.703 432.66C116.523 431.18 117.963 430.4 119.623 430.4C122.323 430.4 123.983 432.3 123.983 435.28V441H122.823V435.38C122.823 433 121.543 431.52 119.483 431.52C117.303 431.52 115.783 433.18 115.783 435.64V441H114.623ZM132.424 445.26C129.884 445.26 128.004 443.92 127.604 441.82H128.784C129.124 443.26 130.524 444.16 132.424 444.16C134.804 444.16 136.324 442.76 136.324 440.54V438.86C135.404 440.12 133.924 440.88 132.164 440.88C129.144 440.88 126.984 438.68 126.984 435.64C126.984 432.6 129.144 430.4 132.164 430.4C133.984 430.4 135.484 431.2 136.404 432.52L136.504 430.66H137.484V440.58C137.484 443.36 135.444 445.26 132.424 445.26ZM128.144 435.64C128.144 438.06 129.844 439.74 132.284 439.74C134.704 439.74 136.404 438.06 136.404 435.64C136.404 433.22 134.704 431.52 132.284 431.52C129.844 431.52 128.144 433.22 128.144 435.64ZM151.018 441.26C147.818 441.26 145.578 439.02 145.578 435.82C145.578 432.64 147.818 430.4 151.018 430.4C154.198 430.4 156.438 432.64 156.438 435.82C156.438 439.02 154.198 441.26 151.018 441.26ZM146.738 435.82C146.738 438.38 148.478 440.14 151.018 440.14C153.538 440.14 155.278 438.38 155.278 435.82C155.278 433.28 153.538 431.52 151.018 431.52C148.478 431.52 146.738 433.28 146.738 435.82ZM160.388 429.46C160.388 427.1 161.548 425.94 163.848 425.94H165.468V427.04H163.948C162.268 427.04 161.548 427.78 161.548 429.54V430.66H165.368V431.72H161.548V441H160.388V431.72H158.028V430.66H160.388V429.46ZM172.513 441V426.2H173.673V432.54C174.493 431.12 175.933 430.4 177.553 430.4C180.233 430.4 181.873 432.26 181.873 435.24V441H180.713V435.34C180.713 432.96 179.453 431.52 177.393 431.52C175.213 431.52 173.673 433.14 173.673 435.62V441H172.513ZM189.015 441.16C186.615 441.16 185.115 439.98 185.115 438.08C185.115 436.24 186.515 435.08 188.635 435.08H193.195V434.34C193.195 432.62 191.935 431.48 190.015 431.48C188.455 431.48 187.235 432.28 186.815 433.52H185.635C186.135 431.6 187.795 430.4 189.995 430.4C192.575 430.4 194.355 431.98 194.355 434.28V441H193.395L193.275 439.22C192.375 440.46 190.855 441.16 189.015 441.16ZM186.275 438.06C186.275 439.32 187.335 440.12 189.055 440.12C191.455 440.12 193.215 438.62 193.215 436.54V436.1H188.675C187.255 436.1 186.275 436.88 186.275 438.06ZM200.786 441L196.166 430.66H197.426L199.226 434.66L201.366 439.48L203.486 434.66L205.306 430.66H206.546L201.926 441H200.786ZM209.017 441V430.66H210.177V441H209.017ZM208.537 427.72C208.537 427.14 208.957 426.68 209.597 426.68C210.237 426.68 210.657 427.14 210.657 427.72C210.657 428.32 210.237 428.78 209.597 428.78C208.957 428.78 208.537 428.32 208.537 427.72ZM214.29 441V430.66H215.27L215.37 432.66C216.19 431.18 217.63 430.4 219.29 430.4C221.99 430.4 223.65 432.3 223.65 435.28V441H222.49V435.38C222.49 433 221.21 431.52 219.15 431.52C216.97 431.52 215.45 433.18 215.45 435.64V441H214.29ZM232.092 445.26C229.552 445.26 227.672 443.92 227.272 441.82H228.452C228.792 443.26 230.192 444.16 232.092 444.16C234.472 444.16 235.992 442.76 235.992 440.54V438.86C235.072 440.12 233.592 440.88 231.832 440.88C228.812 440.88 226.652 438.68 226.652 435.64C226.652 432.6 228.812 430.4 231.832 430.4C233.652 430.4 235.152 431.2 236.072 432.52L236.172 430.66H237.152V440.58C237.152 443.36 235.112 445.26 232.092 445.26ZM227.812 435.64C227.812 438.06 229.512 439.74 231.952 439.74C234.372 439.74 236.072 438.06 236.072 435.64C236.072 433.22 234.372 431.52 231.952 431.52C229.512 431.52 227.812 433.22 227.812 435.64ZM32.44 470.26C29.34 470.26 27.16 468 27.16 464.82C27.16 461.64 29.34 459.4 32.44 459.4C34.9 459.4 36.92 460.86 37.52 463.1H36.34C35.66 461.46 34.22 460.52 32.44 460.52C30 460.52 28.32 462.28 28.32 464.82C28.32 467.38 30 469.14 32.44 469.14C34.34 469.14 35.82 468.08 36.4 466.38H37.62C36.92 468.8 34.98 470.26 32.44 470.26ZM45.3148 470.26C42.1148 470.26 39.8748 468.02 39.8748 464.82C39.8748 461.64 42.1148 459.4 45.3148 459.4C48.4948 459.4 50.7348 461.64 50.7348 464.82C50.7348 468.02 48.4948 470.26 45.3148 470.26ZM41.0348 464.82C41.0348 467.38 42.7748 469.14 45.3148 469.14C47.8348 469.14 49.5748 467.38 49.5748 464.82C49.5748 462.28 47.8348 460.52 45.3148 460.52C42.7748 460.52 41.0348 462.28 41.0348 464.82ZM53.9584 470V459.66H54.9384L55.0384 461.66C55.8584 460.18 57.2984 459.4 58.9584 459.4C61.6584 459.4 63.3184 461.3 63.3184 464.28V470H62.1584V464.38C62.1584 462 60.8784 460.52 58.8184 460.52C56.6384 460.52 55.1184 462.18 55.1184 464.64V470H53.9584ZM71.0881 470C68.8881 470 67.7081 468.76 67.7081 466.42V460.72H65.4481V459.66H66.7681C67.5481 459.66 67.7681 459.46 67.8481 458.7L67.9481 457.12H68.8681V459.66H72.4481V460.72H68.8681V466.38C68.8681 468.08 69.5681 468.88 71.1281 468.88H72.5881V470H71.0881ZM75.6967 470V459.66H76.6767L76.7967 461.98C77.4967 460.42 78.6767 459.66 80.5967 459.66H81.4567V460.74H80.5567C78.3367 460.74 76.8567 462.1 76.8567 465.24V470H75.6967ZM88.1078 470.26C84.9078 470.26 82.6678 468.02 82.6678 464.82C82.6678 461.64 84.9078 459.4 88.1078 459.4C91.2878 459.4 93.5278 461.64 93.5278 464.82C93.5278 468.02 91.2878 470.26 88.1078 470.26ZM83.8278 464.82C83.8278 467.38 85.5678 469.14 88.1078 469.14C90.6278 469.14 92.3678 467.38 92.3678 464.82C92.3678 462.28 90.6278 460.52 88.1078 460.52C85.5678 460.52 83.8278 462.28 83.8278 464.82ZM96.7514 470V455.2H97.9114V470H96.7514ZM111.448 470.26C108.248 470.26 106.008 468.02 106.008 464.82C106.008 461.64 108.248 459.4 111.448 459.4C114.628 459.4 116.868 461.64 116.868 464.82C116.868 468.02 114.628 470.26 111.448 470.26ZM107.168 464.82C107.168 467.38 108.908 469.14 111.448 469.14C113.968 469.14 115.708 467.38 115.708 464.82C115.708 462.28 113.968 460.52 111.448 460.52C108.908 460.52 107.168 462.28 107.168 464.82ZM122.661 470L118.041 459.66H119.301L121.101 463.66L123.241 468.48L125.361 463.66L127.181 459.66H128.421L123.801 470H122.661ZM134.881 470.26C131.741 470.26 129.601 468.04 129.601 464.82C129.601 461.62 131.761 459.4 134.901 459.4C138.161 459.4 140.261 461.8 140.181 465.3H130.781C130.981 467.64 132.581 469.16 134.881 469.16C136.561 469.16 137.901 468.38 138.581 467.04L139.881 467.06C139.081 469.04 137.201 470.26 134.881 470.26ZM130.781 464.28H139.041C138.761 461.94 137.161 460.5 134.901 460.5C132.601 460.5 130.981 462 130.781 464.28ZM143.353 470V459.66H144.333L144.453 461.98C145.153 460.42 146.333 459.66 148.253 459.66H149.113V460.74H148.213C145.993 460.74 144.513 462.1 144.513 465.24V470H143.353ZM155.936 474V472.9H156.796C158.256 472.9 158.716 472.6 159.256 471.3L159.836 469.84L154.916 459.66H156.216L158.656 464.76L160.436 468.44L161.916 464.76L164.016 459.66H165.236L160.296 471.74C159.576 473.54 158.776 474 156.916 474H155.936ZM171.858 470.26C168.658 470.26 166.418 468.02 166.418 464.82C166.418 461.64 168.658 459.4 171.858 459.4C175.038 459.4 177.278 461.64 177.278 464.82C177.278 468.02 175.038 470.26 171.858 470.26ZM167.578 464.82C167.578 467.38 169.318 469.14 171.858 469.14C174.378 469.14 176.118 467.38 176.118 464.82C176.118 462.28 174.378 460.52 171.858 460.52C169.318 460.52 167.578 462.28 167.578 464.82ZM184.581 470.26C181.921 470.26 180.281 468.36 180.281 465.38V459.66H181.441V465.28C181.441 467.64 182.701 469.14 184.741 469.14C186.881 469.14 188.361 467.46 188.361 465V459.66H189.521V470H188.561L188.441 467.98C187.641 469.48 186.201 470.26 184.581 470.26ZM193.646 470V459.66H194.626L194.746 461.98C195.446 460.42 196.626 459.66 198.546 459.66H199.406V460.74H198.506C196.286 460.74 194.806 462.1 194.806 465.24V470H193.646ZM211.409 470.26C208.209 470.26 205.969 468.02 205.969 464.82C205.969 461.64 208.209 459.4 211.409 459.4C214.589 459.4 216.829 461.64 216.829 464.82C216.829 468.02 214.589 470.26 211.409 470.26ZM207.129 464.82C207.129 467.38 208.869 469.14 211.409 469.14C213.929 469.14 215.669 467.38 215.669 464.82C215.669 462.28 213.929 460.52 211.409 460.52C208.869 460.52 207.129 462.28 207.129 464.82ZM221.762 470L218.042 459.66H219.282L222.342 468.26L223.802 464.5L225.662 459.66H226.742L228.622 464.5L230.082 468.26L233.162 459.66H234.382L230.642 470H229.522L227.742 465.38L226.202 461.36L222.882 470H221.762ZM236.888 470V459.66H237.868L237.968 461.66C238.788 460.18 240.228 459.4 241.888 459.4C244.588 459.4 246.248 461.3 246.248 464.28V470H245.088V464.38C245.088 462 243.808 460.52 241.748 460.52C239.568 460.52 238.048 462.18 238.048 464.64V470H236.888ZM32.26 499C30.06 499 28.88 497.76 28.88 495.42V489.72H26.62V488.66H27.94C28.72 488.66 28.94 488.46 29.02 487.7L29.12 486.12H30.04V488.66H33.62V489.72H30.04V495.38C30.04 497.08 30.74 497.88 32.3 497.88H33.76V499H32.26ZM36.8686 499V488.66H38.0286V499H36.8686ZM36.3886 485.72C36.3886 485.14 36.8086 484.68 37.4486 484.68C38.0886 484.68 38.5086 485.14 38.5086 485.72C38.5086 486.32 38.0886 486.78 37.4486 486.78C36.8086 486.78 36.3886 486.32 36.3886 485.72ZM42.142 499V488.66H43.122L43.222 490.34C43.942 489.08 45.202 488.4 46.802 488.4C48.602 488.4 49.982 489.3 50.582 490.88C51.282 489.3 52.702 488.4 54.522 488.4C57.122 488.4 58.802 490.18 58.802 493.06V499H57.642V493.24C57.642 490.94 56.362 489.52 54.382 489.52C52.362 489.52 51.042 490.98 51.042 493.32V499H49.882V493.24C49.882 490.94 48.622 489.52 46.642 489.52C44.622 489.52 43.302 490.98 43.302 493.32V499H42.142ZM67.0689 499.26C63.9289 499.26 61.7889 497.04 61.7889 493.82C61.7889 490.62 63.9489 488.4 67.0889 488.4C70.3489 488.4 72.4489 490.8 72.3689 494.3H62.9689C63.1689 496.64 64.7689 498.16 67.0689 498.16C68.7489 498.16 70.0889 497.38 70.7689 496.04L72.0689 496.06C71.2689 498.04 69.3889 499.26 67.0689 499.26ZM62.9689 493.28H71.2289C70.9489 490.94 69.3489 489.5 67.0889 489.5C64.7889 489.5 63.1689 491 62.9689 493.28ZM80.4233 499V484.2H81.5833V499H80.4233ZM90.0767 499.26C86.9367 499.26 84.7967 497.04 84.7967 493.82C84.7967 490.62 86.9567 488.4 90.0967 488.4C93.3567 488.4 95.4567 490.8 95.3767 494.3H85.9767C86.1767 496.64 87.7767 498.16 90.0767 498.16C91.7567 498.16 93.0967 497.38 93.7767 496.04L95.0767 496.06C94.2767 498.04 92.3967 499.26 90.0767 499.26ZM85.9767 493.28H94.2367C93.9567 490.94 92.3567 489.5 90.0967 489.5C87.7967 489.5 86.1767 491 85.9767 493.28ZM101.652 499.16C99.2516 499.16 97.7516 497.98 97.7516 496.08C97.7516 494.24 99.1516 493.08 101.272 493.08H105.832V492.34C105.832 490.62 104.572 489.48 102.652 489.48C101.092 489.48 99.8716 490.28 99.4516 491.52H98.2716C98.7716 489.6 100.432 488.4 102.632 488.4C105.212 488.4 106.992 489.98 106.992 492.28V499H106.032L105.912 497.22C105.012 498.46 103.492 499.16 101.652 499.16ZM98.9116 496.06C98.9116 497.32 99.9716 498.12 101.692 498.12C104.092 498.12 105.852 496.62 105.852 494.54V494.1H101.312C99.8916 494.1 98.9116 494.88 98.9116 496.06ZM115.292 499.26C112.172 499.26 109.992 496.96 109.992 493.82C109.992 490.68 112.172 488.4 115.292 488.4C117.192 488.4 118.732 489.24 119.652 490.58V484.2H120.812V499H119.852L119.712 496.96C118.812 498.38 117.232 499.26 115.292 499.26ZM111.152 493.82C111.152 496.36 112.892 498.14 115.432 498.14C117.952 498.14 119.692 496.36 119.692 493.82C119.692 491.3 117.952 489.52 115.432 489.52C112.892 489.52 111.152 491.3 111.152 493.82ZM128.495 499.26C125.875 499.26 124.215 497.94 124.135 495.88H125.275C125.395 497.34 126.535 498.2 128.515 498.2C130.335 498.2 131.435 497.5 131.435 496.36C131.435 495.28 130.455 494.62 128.255 494.24C125.555 493.78 124.335 492.82 124.335 491.24C124.335 489.48 125.835 488.4 128.255 488.4C130.695 488.4 132.235 489.56 132.395 491.54H131.235C131.115 490.18 130.055 489.44 128.255 489.44C126.535 489.44 125.495 490.14 125.495 491.26C125.495 492.28 126.355 492.84 128.655 493.28C131.275 493.78 132.575 494.82 132.575 496.38C132.575 498.12 130.995 499.26 128.495 499.26ZM144.467 499C142.267 499 141.087 497.76 141.087 495.42V489.72H138.827V488.66H140.147C140.927 488.66 141.147 488.46 141.227 487.7L141.327 486.12H142.247V488.66H145.827V489.72H142.247V495.38C142.247 497.08 142.947 497.88 144.507 497.88H145.967V499H144.467ZM153.108 499.26C149.908 499.26 147.668 497.02 147.668 493.82C147.668 490.64 149.908 488.4 153.108 488.4C156.288 488.4 158.528 490.64 158.528 493.82C158.528 497.02 156.288 499.26 153.108 499.26ZM148.828 493.82C148.828 496.38 150.568 498.14 153.108 498.14C155.628 498.14 157.368 496.38 157.368 493.82C157.368 491.28 155.628 489.52 153.108 489.52C150.568 489.52 148.828 491.28 148.828 493.82ZM166.634 499V484.2H167.794V499H166.634ZM176.448 499.26C173.248 499.26 171.008 497.02 171.008 493.82C171.008 490.64 173.248 488.4 176.448 488.4C179.628 488.4 181.868 490.64 181.868 493.82C181.868 497.02 179.628 499.26 176.448 499.26ZM172.168 493.82C172.168 496.38 173.908 498.14 176.448 498.14C178.968 498.14 180.708 496.38 180.708 493.82C180.708 491.28 178.968 489.52 176.448 489.52C173.908 489.52 172.168 491.28 172.168 493.82ZM186.801 499L183.081 488.66H184.321L187.381 497.26L188.841 493.5L190.701 488.66H191.781L193.661 493.5L195.121 497.26L198.201 488.66H199.421L195.681 499H194.561L192.781 494.38L191.241 490.36L187.921 499H186.801ZM205.917 499.26C202.777 499.26 200.637 497.04 200.637 493.82C200.637 490.62 202.797 488.4 205.937 488.4C209.197 488.4 211.297 490.8 211.217 494.3H201.817C202.017 496.64 203.617 498.16 205.917 498.16C207.597 498.16 208.937 497.38 209.617 496.04L210.917 496.06C210.117 498.04 208.237 499.26 205.917 499.26ZM201.817 493.28H210.077C209.797 490.94 208.197 489.5 205.937 489.5C203.637 489.5 202.017 491 201.817 493.28ZM214.388 499V488.66H215.368L215.488 490.98C216.188 489.42 217.368 488.66 219.288 488.66H220.148V489.74H219.248C217.028 489.74 215.548 491.1 215.548 494.24V499H214.388ZM228.08 499V484.2H229.24V499H228.08ZM237.733 499.26C234.593 499.26 232.453 497.04 232.453 493.82C232.453 490.62 234.613 488.4 237.753 488.4C241.013 488.4 243.113 490.8 243.033 494.3H233.633C233.833 496.64 235.433 498.16 237.733 498.16C239.413 498.16 240.753 497.38 241.433 496.04L242.733 496.06C241.933 498.04 240.053 499.26 237.733 499.26ZM233.633 493.28H241.893C241.613 490.94 240.013 489.5 237.753 489.5C235.453 489.5 233.833 491 233.633 493.28ZM248.774 499L244.154 488.66H245.414L247.214 492.66L249.354 497.48L251.474 492.66L253.294 488.66H254.534L249.914 499H248.774ZM260.995 499.26C257.855 499.26 255.715 497.04 255.715 493.82C255.715 490.62 257.875 488.4 261.015 488.4C264.275 488.4 266.375 490.8 266.295 494.3H256.895C257.095 496.64 258.695 498.16 260.995 498.16C262.675 498.16 264.015 497.38 264.695 496.04L265.995 496.06C265.195 498.04 263.315 499.26 260.995 499.26ZM256.895 493.28H265.155C264.875 490.94 263.275 489.5 261.015 489.5C258.715 489.5 257.095 491 256.895 493.28ZM269.466 499V484.2H270.626V499H269.466ZM278.3 499.26C275.68 499.26 274.02 497.94 273.94 495.88H275.08C275.2 497.34 276.34 498.2 278.32 498.2C280.14 498.2 281.24 497.5 281.24 496.36C281.24 495.28 280.26 494.62 278.06 494.24C275.36 493.78 274.14 492.82 274.14 491.24C274.14 489.48 275.64 488.4 278.06 488.4C280.5 488.4 282.04 489.56 282.2 491.54H281.04C280.92 490.18 279.86 489.44 278.06 489.44C276.34 489.44 275.3 490.14 275.3 491.26C275.3 492.28 276.16 492.84 278.46 493.28C281.08 493.78 282.38 494.82 282.38 496.38C282.38 498.12 280.8 499.26 278.3 499.26ZM32.6 528.26C29.4 528.26 27.16 526.02 27.16 522.82C27.16 519.64 29.4 517.4 32.6 517.4C35.78 517.4 38.02 519.64 38.02 522.82C38.02 526.02 35.78 528.26 32.6 528.26ZM28.32 522.82C28.32 525.38 30.06 527.14 32.6 527.14C35.12 527.14 36.86 525.38 36.86 522.82C36.86 520.28 35.12 518.52 32.6 518.52C30.06 518.52 28.32 520.28 28.32 522.82ZM41.9702 516.46C41.9702 514.1 43.1302 512.94 45.4302 512.94H47.0502V514.04H45.5302C43.8502 514.04 43.1302 514.78 43.1302 516.54V517.66H46.9502V518.72H43.1302V528H41.9702V518.72H39.6102V517.66H41.9702V516.46ZM57.2255 528.26C54.6055 528.26 52.9455 526.94 52.8655 524.88H54.0055C54.1255 526.34 55.2655 527.2 57.2455 527.2C59.0655 527.2 60.1655 526.5 60.1655 525.36C60.1655 524.28 59.1855 523.62 56.9855 523.24C54.2855 522.78 53.0655 521.82 53.0655 520.24C53.0655 518.48 54.5655 517.4 56.9855 517.4C59.4255 517.4 60.9655 518.56 61.1255 520.54H59.9655C59.8455 519.18 58.7855 518.44 56.9855 518.44C55.2655 518.44 54.2255 519.14 54.2255 520.26C54.2255 521.28 55.0855 521.84 57.3855 522.28C60.0055 522.78 61.3055 523.82 61.3055 525.38C61.3055 527.12 59.7255 528.26 57.2255 528.26ZM68.5686 528C66.3686 528 65.1886 526.76 65.1886 524.42V518.72H62.9286V517.66H64.2486C65.0286 517.66 65.2486 517.46 65.3286 516.7L65.4286 515.12H66.3486V517.66H69.9286V518.72H66.3486V524.38C66.3486 526.08 67.0486 526.88 68.6086 526.88H70.0686V528H68.5686ZM73.1772 528V517.66H74.1572L74.2772 519.98C74.9772 518.42 76.1572 517.66 78.0772 517.66H78.9372V518.74H78.0372C75.8172 518.74 74.3372 520.1 74.3372 523.24V528H73.1772ZM85.4283 528.26C82.2883 528.26 80.1483 526.04 80.1483 522.82C80.1483 519.62 82.3083 517.4 85.4483 517.4C88.7083 517.4 90.8083 519.8 90.7283 523.3H81.3283C81.5283 525.64 83.1283 527.16 85.4283 527.16C87.1083 527.16 88.4483 526.38 89.1283 525.04L90.4283 525.06C89.6283 527.04 87.7483 528.26 85.4283 528.26ZM81.3283 522.28H89.5883C89.3083 519.94 87.7083 518.5 85.4483 518.5C83.1483 518.5 81.5283 520 81.3283 522.28ZM97.4598 528.26C94.8398 528.26 93.1798 526.94 93.0998 524.88H94.2398C94.3598 526.34 95.4998 527.2 97.4798 527.2C99.2998 527.2 100.4 526.5 100.4 525.36C100.4 524.28 99.4198 523.62 97.2198 523.24C94.5198 522.78 93.2998 521.82 93.2998 520.24C93.2998 518.48 94.7998 517.4 97.2198 517.4C99.6598 517.4 101.2 518.56 101.36 520.54H100.2C100.08 519.18 99.0198 518.44 97.2198 518.44C95.4998 518.44 94.4598 519.14 94.4598 520.26C94.4598 521.28 95.3198 521.84 97.6198 522.28C100.24 522.78 101.54 523.82 101.54 525.38C101.54 527.12 99.9598 528.26 97.4598 528.26ZM108.456 528.26C105.836 528.26 104.176 526.94 104.096 524.88H105.236C105.356 526.34 106.496 527.2 108.476 527.2C110.296 527.2 111.396 526.5 111.396 525.36C111.396 524.28 110.416 523.62 108.216 523.24C105.516 522.78 104.296 521.82 104.296 520.24C104.296 518.48 105.796 517.4 108.216 517.4C110.656 517.4 112.196 518.56 112.356 520.54H111.196C111.076 519.18 110.016 518.44 108.216 518.44C106.496 518.44 105.456 519.14 105.456 520.26C105.456 521.28 106.316 521.84 108.616 522.28C111.236 522.78 112.536 523.82 112.536 525.38C112.536 527.12 110.956 528.26 108.456 528.26ZM115.881 528.12C115.241 528.12 114.821 527.68 114.821 527.08C114.821 526.48 115.241 526.04 115.881 526.04C116.521 526.04 116.941 526.48 116.941 527.08C116.941 527.68 116.521 528.12 115.881 528.12Z" fill="black"/>
</svg>
