<svg width="594" height="623" viewBox="0 0 594 623" fill="none" xmlns="http://www.w3.org/2000/svg">
<path fill-rule="evenodd" clip-rule="evenodd" d="M7.4099 118.548C72.9668 53.0313 168.63 0.40625 233.954 0.40625C321.412 0.40625 327.72 94.7335 326.925 188.039C301.924 248.16 242.625 290.432 173.453 290.432C81.6963 290.432 7.3125 216.049 7.3125 124.292C7.3125 122.369 7.34514 120.455 7.4099 118.548Z" fill="#F6F5FF"/>
<path fill-rule="evenodd" clip-rule="evenodd" d="M282.941 257.894C311.408 207.263 365.64 173.059 427.861 173.059C519.618 173.059 594.002 247.442 594.002 339.199C594.002 388.984 572.105 433.654 537.417 464.104C518.342 470.299 497.983 473.648 476.841 473.648C368.642 473.648 280.93 385.936 280.93 277.736C280.93 271.24 281.62 264.613 282.941 257.894Z" fill="#F6F5FF"/>
<path fill-rule="evenodd" clip-rule="evenodd" d="M144.705 622.395C224.623 622.395 289.41 557.409 289.41 477.244C289.41 468.239 289.559 458.895 289.711 449.403C290.908 374.397 292.254 290.113 221.313 290.113C141.395 290.113 0 397.079 0 477.244C0 557.409 64.7866 622.395 144.705 622.395Z" fill="#F6F5FF"/>
<path d="M107.26 122V108H115.5V109.14H108.48V114.3H114.98V115.42H108.48V120.86H115.72V122H107.26ZM119.248 122V107.2H120.408V122H119.248ZM133.784 122.26C130.644 122.26 128.504 120.04 128.504 116.82C128.504 113.62 130.664 111.4 133.804 111.4C137.064 111.4 139.164 113.8 139.084 117.3H129.684C129.884 119.64 131.484 121.16 133.784 121.16C135.464 121.16 136.804 120.38 137.484 119.04L138.784 119.06C137.984 121.04 136.104 122.26 133.784 122.26ZM129.684 116.28H137.944C137.664 113.94 136.064 112.5 133.804 112.5C131.504 112.5 129.884 114 129.684 116.28ZM145.815 122.26C143.195 122.26 141.535 120.94 141.455 118.88H142.595C142.715 120.34 143.855 121.2 145.835 121.2C147.655 121.2 148.755 120.5 148.755 119.36C148.755 118.28 147.775 117.62 145.575 117.24C142.875 116.78 141.655 115.82 141.655 114.24C141.655 112.48 143.155 111.4 145.575 111.4C148.015 111.4 149.555 112.56 149.715 114.54H148.555C148.435 113.18 147.375 112.44 145.575 112.44C143.855 112.44 142.815 113.14 142.815 114.26C142.815 115.28 143.675 115.84 145.975 116.28C148.595 116.78 149.895 117.82 149.895 119.38C149.895 121.12 148.315 122.26 145.815 122.26ZM157.158 122C154.958 122 153.778 120.76 153.778 118.42V112.72H151.518V111.66H152.838C153.618 111.66 153.838 111.46 153.918 110.7L154.018 109.12H154.938V111.66H158.518V112.72H154.938V118.38C154.938 120.08 155.638 120.88 157.198 120.88H158.658V122H157.158ZM161.767 122V111.66H162.747L162.867 113.98C163.567 112.42 164.747 111.66 166.667 111.66H167.527V112.74H166.627C164.407 112.74 162.927 114.1 162.927 117.24V122H161.767ZM174.018 122.26C170.878 122.26 168.738 120.04 168.738 116.82C168.738 113.62 170.898 111.4 174.038 111.4C177.298 111.4 179.398 113.8 179.318 117.3H169.918C170.118 119.64 171.718 121.16 174.018 121.16C175.698 121.16 177.038 120.38 177.718 119.04L179.018 119.06C178.218 121.04 176.338 122.26 174.018 122.26ZM169.918 116.28H178.178C177.898 113.94 176.298 112.5 174.038 112.5C171.738 112.5 170.118 114 169.918 116.28ZM173.278 109.94L174.378 106.92H175.638L174.378 109.94H173.278ZM186.05 122.26C183.43 122.26 181.77 120.94 181.69 118.88H182.83C182.95 120.34 184.09 121.2 186.07 121.2C187.89 121.2 188.99 120.5 188.99 119.36C188.99 118.28 188.01 117.62 185.81 117.24C183.11 116.78 181.89 115.82 181.89 114.24C181.89 112.48 183.39 111.4 185.81 111.4C188.25 111.4 189.79 112.56 189.95 114.54H188.79C188.67 113.18 187.61 112.44 185.81 112.44C184.09 112.44 183.05 113.14 183.05 114.26C183.05 115.28 183.91 115.84 186.21 116.28C188.83 116.78 190.13 117.82 190.13 119.38C190.13 121.12 188.55 122.26 186.05 122.26ZM202.319 122.26C199.179 122.26 197.039 120.04 197.039 116.82C197.039 113.62 199.199 111.4 202.339 111.4C205.599 111.4 207.699 113.8 207.619 117.3H198.219C198.419 119.64 200.019 121.16 202.319 121.16C203.999 121.16 205.339 120.38 206.019 119.04L207.319 119.06C206.519 121.04 204.639 122.26 202.319 122.26ZM198.219 116.28H206.479C206.199 113.94 204.599 112.5 202.339 112.5C200.039 112.5 198.419 114 198.219 116.28ZM210.79 122V111.66H211.77L211.89 113.98C212.59 112.42 213.77 111.66 215.69 111.66H216.55V112.74H215.65C213.43 112.74 211.95 114.1 211.95 117.24V122H210.79ZM221.863 122.16C219.463 122.16 217.963 120.98 217.963 119.08C217.963 117.24 219.363 116.08 221.483 116.08H226.043V115.34C226.043 113.62 224.783 112.48 222.863 112.48C221.303 112.48 220.083 113.28 219.663 114.52H218.483C218.983 112.6 220.643 111.4 222.843 111.4C225.423 111.4 227.203 112.98 227.203 115.28V122H226.243L226.123 120.22C225.223 121.46 223.703 122.16 221.863 122.16ZM219.123 119.06C219.123 120.32 220.183 121.12 221.903 121.12C224.303 121.12 226.063 119.62 226.063 117.54V117.1H221.523C220.103 117.1 219.123 117.88 219.123 119.06ZM236.455 122V111.66H237.435L237.535 113.34C238.255 112.08 239.515 111.4 241.115 111.4C242.915 111.4 244.295 112.3 244.895 113.88C245.595 112.3 247.015 111.4 248.835 111.4C251.435 111.4 253.115 113.18 253.115 116.06V122H251.955V116.24C251.955 113.94 250.675 112.52 248.695 112.52C246.675 112.52 245.355 113.98 245.355 116.32V122H244.195V116.24C244.195 113.94 242.935 112.52 240.955 112.52C238.935 112.52 237.615 113.98 237.615 116.32V122H236.455ZM260.241 122.16C257.841 122.16 256.341 120.98 256.341 119.08C256.341 117.24 257.741 116.08 259.861 116.08H264.421V115.34C264.421 113.62 263.161 112.48 261.241 112.48C259.681 112.48 258.461 113.28 258.041 114.52H256.861C257.361 112.6 259.021 111.4 261.221 111.4C263.801 111.4 265.581 112.98 265.581 115.28V122H264.621L264.501 120.22C263.601 121.46 262.081 122.16 260.241 122.16ZM257.501 119.06C257.501 120.32 258.561 121.12 260.281 121.12C262.681 121.12 264.441 119.62 264.441 117.54V117.1H259.901C258.481 117.1 257.501 117.88 257.501 119.06ZM260.461 109.94L261.561 106.92H262.821L261.561 109.94H260.461ZM273.042 122.26C270.422 122.26 268.762 120.94 268.682 118.88H269.822C269.942 120.34 271.082 121.2 273.062 121.2C274.882 121.2 275.982 120.5 275.982 119.36C275.982 118.28 275.002 117.62 272.802 117.24C270.102 116.78 268.882 115.82 268.882 114.24C268.882 112.48 270.382 111.4 272.802 111.4C275.242 111.4 276.782 112.56 276.942 114.54H275.782C275.662 113.18 274.602 112.44 272.802 112.44C271.082 112.44 270.042 113.14 270.042 114.26C270.042 115.28 270.902 115.84 273.202 116.28C275.822 116.78 277.122 117.82 277.122 119.38C277.122 121.12 275.542 122.26 273.042 122.26ZM288.64 122.16C286.24 122.16 284.74 120.98 284.74 119.08C284.74 117.24 286.14 116.08 288.26 116.08H292.82V115.34C292.82 113.62 291.56 112.48 289.64 112.48C288.08 112.48 286.86 113.28 286.44 114.52H285.26C285.76 112.6 287.42 111.4 289.62 111.4C292.2 111.4 293.98 112.98 293.98 115.28V122H293.02L292.9 120.22C292 121.46 290.48 122.16 288.64 122.16ZM285.9 119.06C285.9 120.32 286.96 121.12 288.68 121.12C291.08 121.12 292.84 119.62 292.84 117.54V117.1H288.3C286.88 117.1 285.9 117.88 285.9 119.06ZM297.88 122V107.2H299.04V122H297.88ZM307.354 122C305.154 122 303.974 120.76 303.974 118.42V112.72H301.714V111.66H303.034C303.814 111.66 304.034 111.46 304.114 110.7L304.214 109.12H305.134V111.66H308.714V112.72H305.134V118.38C305.134 120.08 305.834 120.88 307.394 120.88H308.854V122H307.354ZM315.995 122.26C312.795 122.26 310.555 120.02 310.555 116.82C310.555 113.64 312.795 111.4 315.995 111.4C319.175 111.4 321.415 113.64 321.415 116.82C321.415 120.02 319.175 122.26 315.995 122.26ZM311.715 116.82C311.715 119.38 313.455 121.14 315.995 121.14C318.515 121.14 320.255 119.38 320.255 116.82C320.255 114.28 318.515 112.52 315.995 112.52C313.455 112.52 311.715 114.28 311.715 116.82ZM111.44 151.26C108.3 151.26 106.16 149.04 106.16 145.82C106.16 142.62 108.32 140.4 111.46 140.4C114.72 140.4 116.82 142.8 116.74 146.3H107.34C107.54 148.64 109.14 150.16 111.44 150.16C113.12 150.16 114.46 149.38 115.14 148.04L116.44 148.06C115.64 150.04 113.76 151.26 111.44 151.26ZM107.34 145.28H115.6C115.32 142.94 113.72 141.5 111.46 141.5C109.16 141.5 107.54 143 107.34 145.28ZM119.912 151V140.66H120.892L120.992 142.66C121.812 141.18 123.252 140.4 124.912 140.4C127.612 140.4 129.272 142.3 129.272 145.28V151H128.112V145.38C128.112 143 126.832 141.52 124.772 141.52C122.592 141.52 121.072 143.18 121.072 145.64V151H119.912ZM137.041 151C134.841 151 133.661 149.76 133.661 147.42V141.72H131.401V140.66H132.721C133.501 140.66 133.721 140.46 133.801 139.7L133.901 138.12H134.821V140.66H138.401V141.72H134.821V147.38C134.821 149.08 135.521 149.88 137.081 149.88H138.541V151H137.041ZM141.65 151V140.66H142.63L142.75 142.98C143.45 141.42 144.63 140.66 146.55 140.66H147.41V141.74H146.51C144.29 141.74 142.81 143.1 142.81 146.24V151H141.65ZM153.901 151.26C150.761 151.26 148.621 149.04 148.621 145.82C148.621 142.62 150.781 140.4 153.921 140.4C157.181 140.4 159.281 142.8 159.201 146.3H149.801C150.001 148.64 151.601 150.16 153.901 150.16C155.581 150.16 156.921 149.38 157.601 148.04L158.901 148.06C158.101 150.04 156.221 151.26 153.901 151.26ZM149.801 145.28H158.061C157.781 142.94 156.181 141.5 153.921 141.5C151.621 141.5 150.001 143 149.801 145.28ZM167.255 151V136.2H168.415V151H167.255ZM177.069 151.26C173.869 151.26 171.629 149.02 171.629 145.82C171.629 142.64 173.869 140.4 177.069 140.4C180.249 140.4 182.489 142.64 182.489 145.82C182.489 149.02 180.249 151.26 177.069 151.26ZM172.789 145.82C172.789 148.38 174.529 150.14 177.069 150.14C179.589 150.14 181.329 148.38 181.329 145.82C181.329 143.28 179.589 141.52 177.069 141.52C174.529 141.52 172.789 143.28 172.789 145.82ZM189.272 151.26C186.652 151.26 184.992 149.94 184.912 147.88H186.052C186.172 149.34 187.312 150.2 189.292 150.2C191.112 150.2 192.212 149.5 192.212 148.36C192.212 147.28 191.232 146.62 189.032 146.24C186.332 145.78 185.112 144.82 185.112 143.24C185.112 141.48 186.612 140.4 189.032 140.4C191.472 140.4 193.012 141.56 193.172 143.54H192.012C191.892 142.18 190.832 141.44 189.032 141.44C187.312 141.44 186.272 142.14 186.272 143.26C186.272 144.28 187.132 144.84 189.432 145.28C192.052 145.78 193.352 146.82 193.352 148.38C193.352 150.12 191.772 151.26 189.272 151.26ZM205.542 151.26C202.402 151.26 200.262 149.04 200.262 145.82C200.262 142.62 202.422 140.4 205.562 140.4C208.822 140.4 210.922 142.8 210.842 146.3H201.442C201.642 148.64 203.242 150.16 205.542 150.16C207.222 150.16 208.562 149.38 209.242 148.04L210.542 148.06C209.742 150.04 207.862 151.26 205.542 151.26ZM201.442 145.28H209.702C209.422 142.94 207.822 141.5 205.562 141.5C203.262 141.5 201.642 143 201.442 145.28ZM217.573 151.26C214.953 151.26 213.293 149.94 213.213 147.88H214.353C214.473 149.34 215.613 150.2 217.593 150.2C219.413 150.2 220.513 149.5 220.513 148.36C220.513 147.28 219.533 146.62 217.333 146.24C214.633 145.78 213.413 144.82 213.413 143.24C213.413 141.48 214.913 140.4 217.333 140.4C219.773 140.4 221.313 141.56 221.473 143.54H220.313C220.193 142.18 219.133 141.44 217.333 141.44C215.613 141.44 214.573 142.14 214.573 143.26C214.573 144.28 215.433 144.84 217.733 145.28C220.353 145.78 221.653 146.82 221.653 148.38C221.653 150.12 220.073 151.26 217.573 151.26ZM228.916 151C226.716 151 225.536 149.76 225.536 147.42V141.72H223.276V140.66H224.596C225.376 140.66 225.596 140.46 225.676 139.7L225.776 138.12H226.696V140.66H230.276V141.72H226.696V147.38C226.696 149.08 227.396 149.88 228.956 149.88H230.416V151H228.916ZM237.468 151.26C234.808 151.26 233.168 149.36 233.168 146.38V140.66H234.328V146.28C234.328 148.64 235.588 150.14 237.628 150.14C239.768 150.14 241.248 148.46 241.248 146V140.66H242.408V151H241.448L241.328 148.98C240.528 150.48 239.088 151.26 237.468 151.26ZM250.933 151.26C247.813 151.26 245.633 148.96 245.633 145.82C245.633 142.68 247.813 140.4 250.933 140.4C252.833 140.4 254.373 141.24 255.293 142.58V136.2H256.453V151H255.493L255.353 148.96C254.453 150.38 252.873 151.26 250.933 151.26ZM246.793 145.82C246.793 148.36 248.533 150.14 251.073 150.14C253.593 150.14 255.333 148.36 255.333 145.82C255.333 143.3 253.593 141.52 251.073 141.52C248.533 141.52 246.793 143.3 246.793 145.82ZM260.576 151V140.66H261.736V151H260.576ZM260.096 137.72C260.096 137.14 260.516 136.68 261.156 136.68C261.796 136.68 262.216 137.14 262.216 137.72C262.216 138.32 261.796 138.78 261.156 138.78C260.516 138.78 260.096 138.32 260.096 137.72ZM269.089 151.16C266.689 151.16 265.189 149.98 265.189 148.08C265.189 146.24 266.589 145.08 268.709 145.08H273.269V144.34C273.269 142.62 272.009 141.48 270.089 141.48C268.529 141.48 267.309 142.28 266.889 143.52H265.709C266.209 141.6 267.869 140.4 270.069 140.4C272.649 140.4 274.429 141.98 274.429 144.28V151H273.469L273.349 149.22C272.449 150.46 270.929 151.16 269.089 151.16ZM266.349 148.06C266.349 149.32 267.409 150.12 269.129 150.12C271.529 150.12 273.289 148.62 273.289 146.54V146.1H268.749C267.329 146.1 266.349 146.88 266.349 148.06ZM278.33 151V140.66H279.31L279.41 142.66C280.23 141.18 281.67 140.4 283.33 140.4C286.03 140.4 287.69 142.3 287.69 145.28V151H286.53V145.38C286.53 143 285.25 141.52 283.19 141.52C281.01 141.52 279.49 143.18 279.49 145.64V151H278.33ZM295.459 151C293.259 151 292.079 149.76 292.079 147.42V141.72H289.819V140.66H291.139C291.919 140.66 292.139 140.46 292.219 139.7L292.319 138.12H293.239V140.66H296.819V141.72H293.239V147.38C293.239 149.08 293.939 149.88 295.499 149.88H296.959V151H295.459ZM303.94 151.26C300.8 151.26 298.66 149.04 298.66 145.82C298.66 142.62 300.82 140.4 303.96 140.4C307.22 140.4 309.32 142.8 309.24 146.3H299.84C300.04 148.64 301.64 150.16 303.94 150.16C305.62 150.16 306.96 149.38 307.64 148.04L308.94 148.06C308.14 150.04 306.26 151.26 303.94 151.26ZM299.84 145.28H308.1C307.82 142.94 306.22 141.5 303.96 141.5C301.66 141.5 300.04 143 299.84 145.28ZM315.972 151.26C313.352 151.26 311.692 149.94 311.612 147.88H312.752C312.872 149.34 314.012 150.2 315.992 150.2C317.812 150.2 318.912 149.5 318.912 148.36C318.912 147.28 317.932 146.62 315.732 146.24C313.032 145.78 311.812 144.82 311.812 143.24C311.812 141.48 313.312 140.4 315.732 140.4C318.172 140.4 319.712 141.56 319.872 143.54H318.712C318.592 142.18 317.532 141.44 315.732 141.44C314.012 141.44 312.972 142.14 312.972 143.26C312.972 144.28 313.832 144.84 316.132 145.28C318.752 145.78 320.052 146.82 320.052 148.38C320.052 150.12 318.472 151.26 315.972 151.26ZM111.46 180.26C108.34 180.26 106.16 177.96 106.16 174.82C106.16 171.68 108.34 169.4 111.46 169.4C113.36 169.4 114.9 170.24 115.82 171.58V165.2H116.98V180H116.02L115.88 177.96C114.98 179.38 113.4 180.26 111.46 180.26ZM107.32 174.82C107.32 177.36 109.06 179.14 111.6 179.14C114.12 179.14 115.86 177.36 115.86 174.82C115.86 172.3 114.12 170.52 111.6 170.52C109.06 170.52 107.32 172.3 107.32 174.82ZM125.483 180.26C122.343 180.26 120.203 178.04 120.203 174.82C120.203 171.62 122.363 169.4 125.503 169.4C128.763 169.4 130.863 171.8 130.783 175.3H121.383C121.583 177.64 123.183 179.16 125.483 179.16C127.163 179.16 128.503 178.38 129.183 177.04L130.483 177.06C129.683 179.04 127.803 180.26 125.483 180.26ZM121.383 174.28H129.643C129.363 171.94 127.763 170.5 125.503 170.5C123.203 170.5 121.583 172 121.383 174.28ZM144.357 180.26C142.457 180.26 140.917 179.4 139.997 178.04V184H138.837V169.66H139.817L139.937 171.72C140.837 170.28 142.417 169.4 144.357 169.4C147.497 169.4 149.657 171.68 149.657 174.82C149.657 177.96 147.497 180.26 144.357 180.26ZM139.957 174.82C139.957 177.36 141.697 179.14 144.237 179.14C146.777 179.14 148.497 177.36 148.497 174.82C148.497 172.3 146.777 170.52 144.237 170.52C141.697 170.52 139.957 172.3 139.957 174.82ZM152.88 180V169.66H153.86L153.98 171.98C154.68 170.42 155.86 169.66 157.78 169.66H158.64V170.74H157.74C155.52 170.74 154.04 172.1 154.04 175.24V180H152.88ZM161.552 180V169.66H162.712V180H161.552ZM161.072 166.72C161.072 166.14 161.492 165.68 162.132 165.68C162.772 165.68 163.192 166.14 163.192 166.72C163.192 167.32 162.772 167.78 162.132 167.78C161.492 167.78 161.072 167.32 161.072 166.72ZM166.826 180V169.66H167.806L167.906 171.34C168.626 170.08 169.886 169.4 171.486 169.4C173.286 169.4 174.666 170.3 175.266 171.88C175.966 170.3 177.386 169.4 179.206 169.4C181.806 169.4 183.486 171.18 183.486 174.06V180H182.326V174.24C182.326 171.94 181.046 170.52 179.066 170.52C177.046 170.52 175.726 171.98 175.726 174.32V180H174.566V174.24C174.566 171.94 173.306 170.52 171.326 170.52C169.306 170.52 167.986 171.98 167.986 174.32V180H166.826ZM191.753 180.26C188.613 180.26 186.473 178.04 186.473 174.82C186.473 171.62 188.633 169.4 191.773 169.4C195.033 169.4 197.133 171.8 197.053 175.3H187.653C187.853 177.64 189.453 179.16 191.753 179.16C193.433 179.16 194.773 178.38 195.453 177.04L196.753 177.06C195.953 179.04 194.073 180.26 191.753 180.26ZM187.653 174.28H195.913C195.633 171.94 194.033 170.5 191.773 170.5C189.473 170.5 187.853 172 187.653 174.28ZM200.224 180V169.66H201.204L201.324 171.98C202.024 170.42 203.204 169.66 205.124 169.66H205.984V170.74H205.084C202.864 170.74 201.384 172.1 201.384 175.24V180H200.224ZM217.155 180.16C214.755 180.16 213.255 178.98 213.255 177.08C213.255 175.24 214.655 174.08 216.775 174.08H221.335V173.34C221.335 171.62 220.075 170.48 218.155 170.48C216.595 170.48 215.375 171.28 214.955 172.52H213.775C214.275 170.6 215.935 169.4 218.135 169.4C220.715 169.4 222.495 170.98 222.495 173.28V180H221.535L221.415 178.22C220.515 179.46 218.995 180.16 217.155 180.16ZM214.415 177.06C214.415 178.32 215.475 179.12 217.195 179.12C219.595 179.12 221.355 177.62 221.355 175.54V175.1H216.815C215.395 175.1 214.415 175.88 214.415 177.06ZM226.396 180V169.66H227.376L227.476 171.66C228.296 170.18 229.736 169.4 231.396 169.4C234.096 169.4 235.756 171.3 235.756 174.28V180H234.596V174.38C234.596 172 233.316 170.52 231.256 170.52C229.076 170.52 227.556 172.18 227.556 174.64V180H226.396ZM228.096 167.68V167.3C228.096 166.22 228.696 165.56 229.656 165.56C231.016 165.56 231.256 166.78 232.216 166.78C232.696 166.78 232.976 166.46 232.976 165.9V165.6H233.916V165.98C233.916 167.06 233.316 167.72 232.356 167.72C230.996 167.72 230.756 166.5 229.796 166.5C229.296 166.5 229.036 166.82 229.036 167.38V167.68H228.096ZM244.198 180.26C240.998 180.26 238.758 178.02 238.758 174.82C238.758 171.64 240.998 169.4 244.198 169.4C247.378 169.4 249.618 171.64 249.618 174.82C249.618 178.02 247.378 180.26 244.198 180.26ZM239.918 174.82C239.918 177.38 241.658 179.14 244.198 179.14C246.718 179.14 248.458 177.38 248.458 174.82C248.458 172.28 246.718 170.52 244.198 170.52C241.658 170.52 239.918 172.28 239.918 174.82ZM261.635 180.26C258.495 180.26 256.355 178.04 256.355 174.82C256.355 171.62 258.515 169.4 261.655 169.4C264.915 169.4 267.015 171.8 266.935 175.3H257.535C257.735 177.64 259.335 179.16 261.635 179.16C263.315 179.16 264.655 178.38 265.335 177.04L266.635 177.06C265.835 179.04 263.955 180.26 261.635 180.26ZM257.535 174.28H265.795C265.515 171.94 263.915 170.5 261.655 170.5C259.355 170.5 257.735 172 257.535 174.28ZM270.107 180V169.66H271.087L271.187 171.66C272.007 170.18 273.447 169.4 275.107 169.4C277.807 169.4 279.467 171.3 279.467 174.28V180H278.307V174.38C278.307 172 277.027 170.52 274.967 170.52C272.787 170.52 271.267 172.18 271.267 174.64V180H270.107ZM288.72 180V165.2H289.88V180H288.72ZM297.234 180.16C294.834 180.16 293.334 178.98 293.334 177.08C293.334 175.24 294.734 174.08 296.854 174.08H301.414V173.34C301.414 171.62 300.154 170.48 298.234 170.48C296.674 170.48 295.454 171.28 295.034 172.52H293.854C294.354 170.6 296.014 169.4 298.214 169.4C300.794 169.4 302.574 170.98 302.574 173.28V180H301.614L301.494 178.22C300.594 179.46 299.074 180.16 297.234 180.16ZM294.494 177.06C294.494 178.32 295.554 179.12 297.274 179.12C299.674 179.12 301.434 177.62 301.434 175.54V175.1H296.894C295.474 175.1 294.494 175.88 294.494 177.06ZM111.14 209.26C108.48 209.26 106.84 207.36 106.84 204.38V198.66H108V204.28C108 206.64 109.26 208.14 111.3 208.14C113.44 208.14 114.92 206.46 114.92 204V198.66H116.08V209H115.12L115 206.98C114.2 208.48 112.76 209.26 111.14 209.26ZM120.205 209V198.66H121.185L121.285 200.66C122.105 199.18 123.545 198.4 125.205 198.4C127.905 198.4 129.565 200.3 129.565 203.28V209H128.405V203.38C128.405 201 127.125 199.52 125.065 199.52C122.885 199.52 121.365 201.18 121.365 203.64V209H120.205ZM133.466 209V198.66H134.626V209H133.466ZM132.986 195.72C132.986 195.14 133.406 194.68 134.046 194.68C134.686 194.68 135.106 195.14 135.106 195.72C135.106 196.32 134.686 196.78 134.046 196.78C133.406 196.78 132.986 196.32 132.986 195.72ZM141.7 209L137.08 198.66H138.34L140.14 202.66L142.28 207.48L144.4 202.66L146.22 198.66H147.46L142.84 209H141.7ZM153.92 209.26C150.78 209.26 148.64 207.04 148.64 203.82C148.64 200.62 150.8 198.4 153.94 198.4C157.2 198.4 159.3 200.8 159.22 204.3H149.82C150.02 206.64 151.62 208.16 153.92 208.16C155.6 208.16 156.94 207.38 157.62 206.04L158.92 206.06C158.12 208.04 156.24 209.26 153.92 209.26ZM149.82 203.28H158.08C157.8 200.94 156.2 199.5 153.94 199.5C151.64 199.5 150.02 201 149.82 203.28ZM162.392 209V198.66H163.372L163.492 200.98C164.192 199.42 165.372 198.66 167.292 198.66H168.152V199.74H167.252C165.032 199.74 163.552 201.1 163.552 204.24V209H162.392ZM174.038 209.26C171.418 209.26 169.758 207.94 169.678 205.88H170.818C170.938 207.34 172.078 208.2 174.058 208.2C175.878 208.2 176.978 207.5 176.978 206.36C176.978 205.28 175.998 204.62 173.798 204.24C171.098 203.78 169.878 202.82 169.878 201.24C169.878 199.48 171.378 198.4 173.798 198.4C176.238 198.4 177.778 199.56 177.938 201.54H176.778C176.658 200.18 175.598 199.44 173.798 199.44C172.078 199.44 171.038 200.14 171.038 201.26C171.038 202.28 171.898 202.84 174.198 203.28C176.818 203.78 178.118 204.82 178.118 206.38C178.118 208.12 176.538 209.26 174.038 209.26ZM181.474 209V198.66H182.634V209H181.474ZM180.994 195.72C180.994 195.14 181.414 194.68 182.054 194.68C182.694 194.68 183.114 195.14 183.114 195.72C183.114 196.32 182.694 196.78 182.054 196.78C181.414 196.78 180.994 196.32 180.994 195.72ZM191.148 209.26C188.028 209.26 185.848 206.96 185.848 203.82C185.848 200.68 188.028 198.4 191.148 198.4C193.048 198.4 194.588 199.24 195.508 200.58V194.2H196.668V209H195.707L195.568 206.96C194.668 208.38 193.088 209.26 191.148 209.26ZM187.008 203.82C187.008 206.36 188.748 208.14 191.288 208.14C193.808 208.14 195.548 206.36 195.548 203.82C195.548 201.3 193.808 199.52 191.288 199.52C188.748 199.52 187.008 201.3 187.008 203.82ZM204.03 209.16C201.63 209.16 200.13 207.98 200.13 206.08C200.13 204.24 201.53 203.08 203.65 203.08H208.21V202.34C208.21 200.62 206.95 199.48 205.03 199.48C203.47 199.48 202.25 200.28 201.83 201.52H200.65C201.15 199.6 202.81 198.4 205.01 198.4C207.59 198.4 209.37 199.98 209.37 202.28V209H208.41L208.29 207.22C207.39 208.46 205.87 209.16 204.03 209.16ZM201.29 206.06C201.29 207.32 202.35 208.12 204.07 208.12C206.47 208.12 208.23 206.62 208.23 204.54V204.1H203.69C202.27 204.1 201.29 204.88 201.29 206.06ZM217.671 209.26C214.551 209.26 212.371 206.96 212.371 203.82C212.371 200.68 214.551 198.4 217.671 198.4C219.571 198.4 221.111 199.24 222.031 200.58V194.2H223.191V209H222.231L222.091 206.96C221.191 208.38 219.611 209.26 217.671 209.26ZM213.531 203.82C213.531 206.36 215.271 208.14 217.811 208.14C220.331 208.14 222.071 206.36 222.071 203.82C222.071 201.3 220.331 199.52 217.811 199.52C215.271 199.52 213.531 201.3 213.531 203.82ZM227.674 209.12C227.034 209.12 226.614 208.68 226.614 208.08C226.614 207.48 227.034 207.04 227.674 207.04C228.314 207.04 228.734 207.48 228.734 208.08C228.734 208.68 228.314 209.12 227.674 209.12Z" fill="black"/>
<path d="M83.2233 133V90.5141H70.2929V85.9362H77.762C81.7777 85.9362 82.9824 85.0528 83.5446 81.6796L84.1068 76.7805H88.0422V133H83.2233Z" fill="black"/>
<path d="M292.707 304V301.895L306.301 289.354C309.688 286.241 311.244 283.724 311.244 280.84C311.244 276.675 308.132 273.837 303.692 273.837C299.115 273.837 295.957 276.858 295.774 281.664H293.165C293.348 275.485 297.559 271.366 303.646 271.366C309.642 271.366 313.899 275.302 313.899 280.84C313.899 284.41 312.068 287.752 308.086 291.413L297.193 301.391H314.723V304H292.707Z" fill="black"/>
<path d="M155.662 346.382C151.757 346.382 149.114 344.033 148.879 340.392H150.641C150.817 342.976 152.784 344.649 155.662 344.649C158.745 344.649 160.741 342.77 160.741 339.951C160.741 337.133 158.715 335.283 155.691 335.283H152.637V333.991L159.097 327.12H149.29V325.447H161.74V326.768L155.251 333.639H155.662C159.743 333.639 162.503 336.193 162.503 340.01C162.503 343.798 159.743 346.382 155.662 346.382Z" fill="black"/>
<path d="M365.26 219V205H366.48V217.84H373.58V219H365.26ZM379.952 219.26C376.752 219.26 374.512 217.02 374.512 213.82C374.512 210.64 376.752 208.4 379.952 208.4C383.132 208.4 385.372 210.64 385.372 213.82C385.372 217.02 383.132 219.26 379.952 219.26ZM375.672 213.82C375.672 216.38 377.412 218.14 379.952 218.14C382.472 218.14 384.212 216.38 384.212 213.82C384.212 211.28 382.472 209.52 379.952 209.52C377.412 209.52 375.672 211.28 375.672 213.82ZM392.155 219.26C389.535 219.26 387.875 217.94 387.795 215.88H388.935C389.055 217.34 390.195 218.2 392.175 218.2C393.995 218.2 395.095 217.5 395.095 216.36C395.095 215.28 394.115 214.62 391.915 214.24C389.215 213.78 387.995 212.82 387.995 211.24C387.995 209.48 389.495 208.4 391.915 208.4C394.355 208.4 395.895 209.56 396.055 211.54H394.895C394.775 210.18 393.715 209.44 391.915 209.44C390.195 209.44 389.155 210.14 389.155 211.26C389.155 212.28 390.015 212.84 392.315 213.28C394.935 213.78 396.235 214.82 396.235 216.38C396.235 218.12 394.655 219.26 392.155 219.26ZM404.732 207.46C404.732 205.1 405.892 203.94 408.192 203.94H409.812V205.04H408.292C406.612 205.04 405.892 205.78 405.892 207.54V208.66H409.712V209.72H405.892V219H404.732V209.72H402.372V208.66H404.732V207.46ZM414.804 219.16C412.404 219.16 410.904 217.98 410.904 216.08C410.904 214.24 412.304 213.08 414.424 213.08H418.984V212.34C418.984 210.62 417.724 209.48 415.804 209.48C414.244 209.48 413.024 210.28 412.604 211.52H411.424C411.924 209.6 413.584 208.4 415.784 208.4C418.364 208.4 420.144 209.98 420.144 212.28V219H419.184L419.064 217.22C418.164 218.46 416.644 219.16 414.804 219.16ZM412.064 216.06C412.064 217.32 413.124 218.12 414.844 218.12C417.244 218.12 419.004 216.62 419.004 214.54V214.1H414.464C413.044 214.1 412.064 214.88 412.064 216.06ZM428.424 219.26C425.324 219.26 423.144 217 423.144 213.82C423.144 210.64 425.324 208.4 428.424 208.4C430.884 208.4 432.904 209.86 433.504 212.1H432.324C431.644 210.46 430.204 209.52 428.424 209.52C425.984 209.52 424.304 211.28 424.304 213.82C424.304 216.38 425.984 218.14 428.424 218.14C430.324 218.14 431.804 217.08 432.384 215.38H433.604C432.904 217.8 430.964 219.26 428.424 219.26ZM440.627 219C438.427 219 437.247 217.76 437.247 215.42V209.72H434.987V208.66H436.307C437.087 208.66 437.307 208.46 437.387 207.7L437.487 206.12H438.407V208.66H441.987V209.72H438.407V215.38C438.407 217.08 439.107 217.88 440.667 217.88H442.127V219H440.627ZM449.268 219.26C446.068 219.26 443.828 217.02 443.828 213.82C443.828 210.64 446.068 208.4 449.268 208.4C452.448 208.4 454.688 210.64 454.688 213.82C454.688 217.02 452.448 219.26 449.268 219.26ZM444.988 213.82C444.988 216.38 446.728 218.14 449.268 218.14C451.788 218.14 453.528 216.38 453.528 213.82C453.528 211.28 451.788 209.52 449.268 209.52C446.728 209.52 444.988 211.28 444.988 213.82ZM457.912 219V208.66H458.892L459.012 210.98C459.712 209.42 460.892 208.66 462.812 208.66H463.672V209.74H462.772C460.552 209.74 459.072 211.1 459.072 214.24V219H457.912ZM470.163 219.26C467.023 219.26 464.883 217.04 464.883 213.82C464.883 210.62 467.043 208.4 470.183 208.4C473.443 208.4 475.543 210.8 475.463 214.3H466.063C466.263 216.64 467.863 218.16 470.163 218.16C471.843 218.16 473.183 217.38 473.863 216.04L475.163 216.06C474.363 218.04 472.483 219.26 470.163 219.26ZM466.063 213.28H474.323C474.043 210.94 472.443 209.5 470.183 209.5C467.883 209.5 466.263 211 466.063 213.28ZM482.194 219.26C479.574 219.26 477.914 217.94 477.834 215.88H478.974C479.094 217.34 480.234 218.2 482.214 218.2C484.034 218.2 485.134 217.5 485.134 216.36C485.134 215.28 484.154 214.62 481.954 214.24C479.254 213.78 478.034 212.82 478.034 211.24C478.034 209.48 479.534 208.4 481.954 208.4C484.394 208.4 485.934 209.56 486.094 211.54H484.934C484.814 210.18 483.754 209.44 481.954 209.44C480.234 209.44 479.194 210.14 479.194 211.26C479.194 212.28 480.054 212.84 482.354 213.28C484.974 213.78 486.274 214.82 486.274 216.38C486.274 218.12 484.694 219.26 482.194 219.26ZM370.58 248.26C368.68 248.26 367.14 247.4 366.22 246.04V252H365.06V237.66H366.04L366.16 239.72C367.06 238.28 368.64 237.4 370.58 237.4C373.72 237.4 375.88 239.68 375.88 242.82C375.88 245.96 373.72 248.26 370.58 248.26ZM366.18 242.82C366.18 245.36 367.92 247.14 370.46 247.14C373 247.14 374.72 245.36 374.72 242.82C374.72 240.3 373 238.52 370.46 238.52C367.92 238.52 366.18 240.3 366.18 242.82ZM379.103 248V237.66H380.083L380.203 239.98C380.903 238.42 382.083 237.66 384.003 237.66H384.863V238.74H383.963C381.743 238.74 380.263 240.1 380.263 243.24V248H379.103ZM391.354 248.26C388.214 248.26 386.074 246.04 386.074 242.82C386.074 239.62 388.234 237.4 391.374 237.4C394.634 237.4 396.734 239.8 396.654 243.3H387.254C387.454 245.64 389.054 247.16 391.354 247.16C393.034 247.16 394.374 246.38 395.054 245.04L396.354 245.06C395.554 247.04 393.674 248.26 391.354 248.26ZM387.254 242.28H395.514C395.234 239.94 393.634 238.5 391.374 238.5C389.074 238.5 387.454 240 387.254 242.28ZM402.395 248L397.775 237.66H399.035L400.835 241.66L402.975 246.48L405.095 241.66L406.915 237.66H408.155L403.535 248H402.395ZM414.616 248.26C411.476 248.26 409.336 246.04 409.336 242.82C409.336 239.62 411.496 237.4 414.636 237.4C417.896 237.4 419.996 239.8 419.916 243.3H410.516C410.716 245.64 412.316 247.16 414.616 247.16C416.296 247.16 417.636 246.38 418.316 245.04L419.616 245.06C418.816 247.04 416.936 248.26 414.616 248.26ZM410.516 242.28H418.776C418.496 239.94 416.896 238.5 414.636 238.5C412.336 238.5 410.716 240 410.516 242.28ZM423.087 248V237.66H424.067L424.167 239.66C424.987 238.18 426.427 237.4 428.087 237.4C430.787 237.4 432.447 239.3 432.447 242.28V248H431.287V242.38C431.287 240 430.007 238.52 427.947 238.52C425.767 238.52 424.247 240.18 424.247 242.64V248H423.087ZM440.217 248C438.017 248 436.837 246.76 436.837 244.42V238.72H434.577V237.66H435.897C436.677 237.66 436.897 237.46 436.977 236.7L437.077 235.12H437.997V237.66H441.577V238.72H437.997V244.38C437.997 246.08 438.697 246.88 440.257 246.88H441.717V248H440.217ZM444.826 248V237.66H445.986V248H444.826ZM444.346 234.72C444.346 234.14 444.766 233.68 445.406 233.68C446.046 233.68 446.466 234.14 446.466 234.72C446.466 235.32 446.046 235.78 445.406 235.78C444.766 235.78 444.346 235.32 444.346 234.72ZM453.059 248L448.439 237.66H449.699L451.499 241.66L453.639 246.48L455.759 241.66L457.579 237.66H458.819L454.199 248H453.059ZM465.44 248.26C462.24 248.26 460 246.02 460 242.82C460 239.64 462.24 237.4 465.44 237.4C468.62 237.4 470.86 239.64 470.86 242.82C470.86 246.02 468.62 248.26 465.44 248.26ZM461.16 242.82C461.16 245.38 462.9 247.14 465.44 247.14C467.96 247.14 469.7 245.38 469.7 242.82C469.7 240.28 467.96 238.52 465.44 238.52C462.9 238.52 461.16 240.28 461.16 242.82ZM477.643 248.26C475.023 248.26 473.363 246.94 473.283 244.88H474.423C474.543 246.34 475.683 247.2 477.663 247.2C479.483 247.2 480.583 246.5 480.583 245.36C480.583 244.28 479.603 243.62 477.403 243.24C474.703 242.78 473.483 241.82 473.483 240.24C473.483 238.48 474.983 237.4 477.403 237.4C479.843 237.4 481.383 238.56 481.543 240.54H480.383C480.263 239.18 479.203 238.44 477.403 238.44C475.683 238.44 474.643 239.14 474.643 240.26C474.643 241.28 475.503 241.84 477.803 242.28C480.423 242.78 481.723 243.82 481.723 245.38C481.723 247.12 480.143 248.26 477.643 248.26ZM365.06 277V266.66H366.22V277H365.06ZM364.58 263.72C364.58 263.14 365 262.68 365.64 262.68C366.28 262.68 366.7 263.14 366.7 263.72C366.7 264.32 366.28 264.78 365.64 264.78C365 264.78 364.58 264.32 364.58 263.72ZM370.333 277V266.66H371.313L371.413 268.66C372.233 267.18 373.673 266.4 375.333 266.4C378.033 266.4 379.693 268.3 379.693 271.28V277H378.533V271.38C378.533 269 377.253 267.52 375.193 267.52C373.013 267.52 371.493 269.18 371.493 271.64V277H370.333ZM387.975 277.26C384.875 277.26 382.695 275 382.695 271.82C382.695 268.64 384.875 266.4 387.975 266.4C390.435 266.4 392.455 267.86 393.055 270.1H391.875C391.195 268.46 389.755 267.52 387.975 267.52C385.535 267.52 383.855 269.28 383.855 271.82C383.855 274.38 385.535 276.14 387.975 276.14C389.875 276.14 391.355 275.08 391.935 273.38H393.155C392.455 275.8 390.515 277.26 387.975 277.26ZM396.31 277V262.2H397.47V277H396.31ZM405.663 277.26C403.003 277.26 401.363 275.36 401.363 272.38V266.66H402.523V272.28C402.523 274.64 403.783 276.14 405.823 276.14C407.963 276.14 409.443 274.46 409.443 272V266.66H410.603V277H409.643L409.523 274.98C408.723 276.48 407.283 277.26 405.663 277.26ZM414.088 281V279.9H414.948C416.408 279.9 416.868 279.6 417.408 278.3L417.988 276.84L413.068 266.66H414.368L416.808 271.76L418.588 275.44L420.068 271.76L422.168 266.66H423.388L418.448 278.74C417.728 280.54 416.928 281 415.068 281H414.088ZM429.85 277.26C426.71 277.26 424.57 275.04 424.57 271.82C424.57 268.62 426.73 266.4 429.87 266.4C433.13 266.4 435.23 268.8 435.15 272.3H425.75C425.95 274.64 427.55 276.16 429.85 276.16C431.53 276.16 432.87 275.38 433.55 274.04L434.85 274.06C434.05 276.04 432.17 277.26 429.85 277.26ZM425.75 271.28H434.01C433.73 268.94 432.13 267.5 429.87 267.5C427.57 267.5 425.95 269 425.75 271.28ZM438.322 277V266.66H439.302L439.422 268.98C440.122 267.42 441.302 266.66 443.222 266.66H444.082V267.74H443.182C440.962 267.74 439.482 269.1 439.482 272.24V277H438.322ZM450.733 277.26C447.533 277.26 445.293 275.02 445.293 271.82C445.293 268.64 447.533 266.4 450.733 266.4C453.913 266.4 456.153 268.64 456.153 271.82C456.153 275.02 453.913 277.26 450.733 277.26ZM446.453 271.82C446.453 274.38 448.193 276.14 450.733 276.14C453.253 276.14 454.993 274.38 454.993 271.82C454.993 269.28 453.253 267.52 450.733 267.52C448.193 267.52 446.453 269.28 446.453 271.82ZM459.376 277V266.66H460.356L460.456 268.66C461.276 267.18 462.716 266.4 464.376 266.4C467.076 266.4 468.736 268.3 468.736 271.28V277H467.576V271.38C467.576 269 466.296 267.52 464.236 267.52C462.056 267.52 460.536 269.18 460.536 271.64V277H459.376ZM481.972 277.26C479.312 277.26 477.672 275.36 477.672 272.38V266.66H478.832V272.28C478.832 274.64 480.092 276.14 482.132 276.14C484.272 276.14 485.752 274.46 485.752 272V266.66H486.912V277H485.952L485.832 274.98C485.032 276.48 483.592 277.26 481.972 277.26ZM491.037 277V266.66H492.017L492.117 268.66C492.937 267.18 494.377 266.4 496.037 266.4C498.737 266.4 500.397 268.3 500.397 271.28V277H499.237V271.38C499.237 269 497.957 267.52 495.897 267.52C493.717 267.52 492.197 269.18 492.197 271.64V277H491.037ZM507.538 277.16C505.138 277.16 503.638 275.98 503.638 274.08C503.638 272.24 505.038 271.08 507.158 271.08H511.718V270.34C511.718 268.62 510.458 267.48 508.538 267.48C506.978 267.48 505.758 268.28 505.338 269.52H504.158C504.658 267.6 506.318 266.4 508.518 266.4C511.098 266.4 512.878 267.98 512.878 270.28V277H511.918L511.798 275.22C510.898 276.46 509.378 277.16 507.538 277.16ZM504.798 274.06C504.798 275.32 505.858 276.12 507.578 276.12C509.978 276.12 511.738 274.62 511.738 272.54V272.1H507.198C505.778 272.1 504.798 272.88 504.798 274.06ZM370.58 306.26C368.68 306.26 367.14 305.4 366.22 304.04V310H365.06V295.66H366.04L366.16 297.72C367.06 296.28 368.64 295.4 370.58 295.4C373.72 295.4 375.88 297.68 375.88 300.82C375.88 303.96 373.72 306.26 370.58 306.26ZM366.18 300.82C366.18 303.36 367.92 305.14 370.46 305.14C373 305.14 374.72 303.36 374.72 300.82C374.72 298.3 373 296.52 370.46 296.52C367.92 296.52 366.18 298.3 366.18 300.82ZM379.103 306V291.2H380.263V306H379.103ZM387.616 306.16C385.216 306.16 383.716 304.98 383.716 303.08C383.716 301.24 385.116 300.08 387.236 300.08H391.796V299.34C391.796 297.62 390.536 296.48 388.616 296.48C387.056 296.48 385.836 297.28 385.416 298.52H384.236C384.736 296.6 386.396 295.4 388.596 295.4C391.176 295.4 392.956 296.98 392.956 299.28V306H391.996L391.876 304.22C390.976 305.46 389.456 306.16 387.616 306.16ZM384.876 303.06C384.876 304.32 385.936 305.12 387.656 305.12C390.056 305.12 391.816 303.62 391.816 301.54V301.1H387.276C385.856 301.1 384.876 301.88 384.876 303.06ZM396.857 306V295.66H397.837L397.937 297.66C398.757 296.18 400.197 295.4 401.857 295.4C404.557 295.4 406.217 297.3 406.217 300.28V306H405.057V300.38C405.057 298 403.777 296.52 401.717 296.52C399.537 296.52 398.017 298.18 398.017 300.64V306H396.857ZM410.119 306V295.66H411.279V306H410.119ZM409.639 292.72C409.639 292.14 410.059 291.68 410.699 291.68C411.339 291.68 411.759 292.14 411.759 292.72C411.759 293.32 411.339 293.78 410.699 293.78C410.059 293.78 409.639 293.32 409.639 292.72ZM424.072 306V296.72H417.552V306H416.392V296.72H414.032V295.66H416.392V294.46C416.392 292.12 417.572 290.94 419.912 290.94H421.412V292.04H420.012C418.292 292.04 417.552 292.78 417.552 294.54V295.66H425.232V306H424.072ZM423.572 292.72C423.572 292.14 424.012 291.68 424.652 291.68C425.272 291.68 425.712 292.14 425.712 292.72C425.712 293.32 425.272 293.78 424.652 293.78C424.012 293.78 423.572 293.32 423.572 292.72ZM433.737 306.26C430.637 306.26 428.457 304 428.457 300.82C428.457 297.64 430.637 295.4 433.737 295.4C436.197 295.4 438.217 296.86 438.817 299.1H437.637C436.957 297.46 435.517 296.52 433.737 296.52C431.297 296.52 429.617 298.28 429.617 300.82C429.617 303.38 431.297 305.14 433.737 305.14C435.637 305.14 437.117 304.08 437.697 302.38H438.917C438.217 304.8 436.277 306.26 433.737 306.26ZM445.175 306.16C442.775 306.16 441.275 304.98 441.275 303.08C441.275 301.24 442.675 300.08 444.795 300.08H449.355V299.34C449.355 297.62 448.095 296.48 446.175 296.48C444.615 296.48 443.395 297.28 442.975 298.52H441.795C442.295 296.6 443.955 295.4 446.155 295.4C448.735 295.4 450.515 296.98 450.515 299.28V306H449.555L449.435 304.22C448.535 305.46 447.015 306.16 445.175 306.16ZM442.435 303.06C442.435 304.32 443.495 305.12 445.215 305.12C447.615 305.12 449.375 303.62 449.375 301.54V301.1H444.835C443.415 301.1 442.435 301.88 442.435 303.06ZM458.795 306.26C455.695 306.26 453.515 304 453.515 300.82C453.515 297.64 455.695 295.4 458.795 295.4C461.255 295.4 463.275 296.86 463.875 299.1H462.695C462.015 297.46 460.575 296.52 458.795 296.52C456.355 296.52 454.675 298.28 454.675 300.82C454.675 303.38 456.355 305.14 458.795 305.14C460.695 305.14 462.175 304.08 462.755 302.38H463.975C463.275 304.8 461.335 306.26 458.795 306.26ZM467.13 306V295.66H468.29V306H467.13ZM466.65 292.72C466.65 292.14 467.07 291.68 467.71 291.68C468.35 291.68 468.77 292.14 468.77 292.72C468.77 293.32 468.35 293.78 467.71 293.78C467.07 293.78 466.65 293.32 466.65 292.72ZM476.944 306.26C473.744 306.26 471.504 304.02 471.504 300.82C471.504 297.64 473.744 295.4 476.944 295.4C480.124 295.4 482.364 297.64 482.364 300.82C482.364 304.02 480.124 306.26 476.944 306.26ZM472.664 300.82C472.664 303.38 474.404 305.14 476.944 305.14C479.464 305.14 481.204 303.38 481.204 300.82C481.204 298.28 479.464 296.52 476.944 296.52C474.404 296.52 472.664 298.28 472.664 300.82ZM476.184 293.94L477.284 290.92H478.524L477.264 293.94H476.184ZM485.587 306V295.66H486.567L486.667 297.66C487.487 296.18 488.927 295.4 490.587 295.4C493.287 295.4 494.947 297.3 494.947 300.28V306H493.787V300.38C493.787 298 492.507 296.52 490.447 296.52C488.267 296.52 486.747 298.18 486.747 300.64V306H485.587ZM508.132 306.26C505.012 306.26 502.832 303.96 502.832 300.82C502.832 297.68 505.012 295.4 508.132 295.4C510.032 295.4 511.572 296.24 512.492 297.58V291.2H513.652V306H512.692L512.552 303.96C511.652 305.38 510.072 306.26 508.132 306.26ZM503.992 300.82C503.992 303.36 505.732 305.14 508.272 305.14C510.792 305.14 512.532 303.36 512.532 300.82C512.532 298.3 510.792 296.52 508.272 296.52C505.732 296.52 503.992 298.3 503.992 300.82ZM522.155 306.26C519.015 306.26 516.875 304.04 516.875 300.82C516.875 297.62 519.035 295.4 522.175 295.4C525.435 295.4 527.535 297.8 527.455 301.3H518.055C518.255 303.64 519.855 305.16 522.155 305.16C523.835 305.16 525.175 304.38 525.855 303.04L527.155 303.06C526.355 305.04 524.475 306.26 522.155 306.26ZM518.055 300.28H526.315C526.035 297.94 524.435 296.5 522.175 296.5C519.875 296.5 518.255 298 518.055 300.28ZM530.626 306V291.2H531.786V306H530.626ZM369.26 335C367.06 335 365.88 333.76 365.88 331.42V325.72H363.62V324.66H364.94C365.72 324.66 365.94 324.46 366.02 323.7L366.12 322.12H367.04V324.66H370.62V325.72H367.04V331.38C367.04 333.08 367.74 333.88 369.3 333.88H370.76V335H369.26ZM373.869 335V324.66H375.029V335H373.869ZM373.389 321.72C373.389 321.14 373.809 320.68 374.449 320.68C375.089 320.68 375.509 321.14 375.509 321.72C375.509 322.32 375.089 322.78 374.449 322.78C373.809 322.78 373.389 322.32 373.389 321.72ZM383.522 335.26C380.382 335.26 378.242 333.04 378.242 329.82C378.242 326.62 380.402 324.4 383.542 324.4C386.802 324.4 388.902 326.8 388.822 330.3H379.422C379.622 332.64 381.222 334.16 383.522 334.16C385.202 334.16 386.542 333.38 387.222 332.04L388.522 332.06C387.722 334.04 385.842 335.26 383.522 335.26ZM379.422 329.28H387.682C387.402 326.94 385.802 325.5 383.542 325.5C381.242 325.5 379.622 327 379.422 329.28ZM391.994 335V324.66H392.974L393.074 326.34C393.794 325.08 395.054 324.4 396.654 324.4C398.454 324.4 399.834 325.3 400.434 326.88C401.134 325.3 402.554 324.4 404.374 324.4C406.974 324.4 408.654 326.18 408.654 329.06V335H407.494V329.24C407.494 326.94 406.214 325.52 404.234 325.52C402.214 325.52 400.894 326.98 400.894 329.32V335H399.734V329.24C399.734 326.94 398.474 325.52 396.494 325.52C394.474 325.52 393.154 326.98 393.154 329.32V335H391.994ZM418.06 335.26C416.16 335.26 414.62 334.4 413.7 333.04V339H412.54V324.66H413.52L413.64 326.72C414.54 325.28 416.12 324.4 418.06 324.4C421.2 324.4 423.36 326.68 423.36 329.82C423.36 332.96 421.2 335.26 418.06 335.26ZM413.66 329.82C413.66 332.36 415.4 334.14 417.94 334.14C420.48 334.14 422.2 332.36 422.2 329.82C422.2 327.3 420.48 325.52 417.94 325.52C415.4 325.52 413.66 327.3 413.66 329.82ZM431.123 335.26C427.923 335.26 425.683 333.02 425.683 329.82C425.683 326.64 427.923 324.4 431.123 324.4C434.303 324.4 436.543 326.64 436.543 329.82C436.543 333.02 434.303 335.26 431.123 335.26ZM426.843 329.82C426.843 332.38 428.583 334.14 431.123 334.14C433.643 334.14 435.383 332.38 435.383 329.82C435.383 327.28 433.643 325.52 431.123 325.52C428.583 325.52 426.843 327.28 426.843 329.82ZM448.561 335.26C445.421 335.26 443.281 333.04 443.281 329.82C443.281 326.62 445.441 324.4 448.581 324.4C451.841 324.4 453.941 326.8 453.861 330.3H444.461C444.661 332.64 446.261 334.16 448.561 334.16C450.241 334.16 451.581 333.38 452.261 332.04L453.561 332.06C452.761 334.04 450.881 335.26 448.561 335.26ZM444.461 329.28H452.721C452.441 326.94 450.841 325.5 448.581 325.5C446.281 325.5 444.661 327 444.461 329.28ZM465.439 335V325.72H458.919V335H457.759V325.72H455.399V324.66H457.759V323.46C457.759 321.12 458.939 319.94 461.279 319.94H462.779V321.04H461.379C459.659 321.04 458.919 321.78 458.919 323.54V324.66H466.599V335H465.439ZM464.939 321.72C464.939 321.14 465.379 320.68 466.019 320.68C466.639 320.68 467.079 321.14 467.079 321.72C467.079 322.32 466.639 322.78 466.019 322.78C465.379 322.78 464.939 322.32 464.939 321.72ZM475.104 335.26C472.004 335.26 469.824 333 469.824 329.82C469.824 326.64 472.004 324.4 475.104 324.4C477.564 324.4 479.584 325.86 480.184 328.1H479.004C478.324 326.46 476.884 325.52 475.104 325.52C472.664 325.52 470.984 327.28 470.984 329.82C470.984 332.38 472.664 334.14 475.104 334.14C477.004 334.14 478.484 333.08 479.064 331.38H480.284C479.584 333.8 477.644 335.26 475.104 335.26ZM486.542 335.16C484.142 335.16 482.642 333.98 482.642 332.08C482.642 330.24 484.042 329.08 486.162 329.08H490.722V328.34C490.722 326.62 489.462 325.48 487.542 325.48C485.982 325.48 484.762 326.28 484.342 327.52H483.162C483.662 325.6 485.322 324.4 487.522 324.4C490.102 324.4 491.882 325.98 491.882 328.28V335H490.922L490.802 333.22C489.902 334.46 488.382 335.16 486.542 335.16ZM483.802 332.06C483.802 333.32 484.862 334.12 486.582 334.12C488.982 334.12 490.742 332.62 490.742 330.54V330.1H486.202C484.782 330.1 483.802 330.88 483.802 332.06ZM494.783 335V334.1L501.503 325.72H495.023V324.66H503.063V325.54L496.383 333.92H503.203V335H494.783ZM506.111 336.92C506.791 336.6 507.191 335.84 507.131 334.98C506.951 335.06 506.771 335.1 506.591 335.1C506.011 335.1 505.571 334.66 505.571 334.08C505.571 333.5 506.011 333.04 506.671 333.04C507.491 333.04 508.051 333.72 508.051 334.78C508.051 336.22 507.211 337.46 506.111 337.7V336.92ZM368.3 364.16C365.9 364.16 364.4 362.98 364.4 361.08C364.4 359.24 365.8 358.08 367.92 358.08H372.48V357.34C372.48 355.62 371.22 354.48 369.3 354.48C367.74 354.48 366.52 355.28 366.1 356.52H364.92C365.42 354.6 367.08 353.4 369.28 353.4C371.86 353.4 373.64 354.98 373.64 357.28V364H372.68L372.56 362.22C371.66 363.46 370.14 364.16 368.3 364.16ZM365.56 361.06C365.56 362.32 366.62 363.12 368.34 363.12C370.74 363.12 372.5 361.62 372.5 359.54V359.1H367.96C366.54 359.1 365.56 359.88 365.56 361.06ZM381.92 364.26C378.82 364.26 376.64 362 376.64 358.82C376.64 355.64 378.82 353.4 381.92 353.4C384.38 353.4 386.4 354.86 387 357.1H385.82C385.14 355.46 383.7 354.52 381.92 354.52C379.48 354.52 377.8 356.28 377.8 358.82C377.8 361.38 379.48 363.14 381.92 363.14C383.82 363.14 385.3 362.08 385.88 360.38H387.1C386.4 362.8 384.46 364.26 381.92 364.26ZM394.123 364C391.923 364 390.743 362.76 390.743 360.42V354.72H388.483V353.66H389.803C390.583 353.66 390.803 353.46 390.883 352.7L390.983 351.12H391.903V353.66H395.483V354.72H391.903V360.38C391.903 362.08 392.603 362.88 394.163 362.88H395.623V364H394.123ZM398.732 364V353.66H399.892V364H398.732ZM398.252 350.72C398.252 350.14 398.672 349.68 399.312 349.68C399.952 349.68 400.372 350.14 400.372 350.72C400.372 351.32 399.952 351.78 399.312 351.78C398.672 351.78 398.252 351.32 398.252 350.72ZM406.965 364L402.345 353.66H403.605L405.405 357.66L407.545 362.48L409.665 357.66L411.485 353.66H412.725L408.105 364H406.965ZM415.197 364V353.66H416.357V364H415.197ZM414.717 350.72C414.717 350.14 415.137 349.68 415.777 349.68C416.417 349.68 416.837 350.14 416.837 350.72C416.837 351.32 416.417 351.78 415.777 351.78C415.137 351.78 414.717 351.32 414.717 350.72ZM424.87 364.26C421.75 364.26 419.57 361.96 419.57 358.82C419.57 355.68 421.75 353.4 424.87 353.4C426.77 353.4 428.31 354.24 429.23 355.58V349.2H430.39V364H429.43L429.29 361.96C428.39 363.38 426.81 364.26 424.87 364.26ZM420.73 358.82C420.73 361.36 422.47 363.14 425.01 363.14C427.53 363.14 429.27 361.36 429.27 358.82C429.27 356.3 427.53 354.52 425.01 354.52C422.47 354.52 420.73 356.3 420.73 358.82ZM437.753 364.16C435.353 364.16 433.853 362.98 433.853 361.08C433.853 359.24 435.253 358.08 437.373 358.08H441.933V357.34C441.933 355.62 440.673 354.48 438.753 354.48C437.193 354.48 435.973 355.28 435.553 356.52H434.373C434.873 354.6 436.533 353.4 438.733 353.4C441.313 353.4 443.093 354.98 443.093 357.28V364H442.133L442.013 362.22C441.113 363.46 439.593 364.16 437.753 364.16ZM435.013 361.06C435.013 362.32 436.073 363.12 437.793 363.12C440.193 363.12 441.953 361.62 441.953 359.54V359.1H437.413C435.993 359.1 435.013 359.88 435.013 361.06ZM451.394 364.26C448.274 364.26 446.094 361.96 446.094 358.82C446.094 355.68 448.274 353.4 451.394 353.4C453.294 353.4 454.834 354.24 455.754 355.58V349.2H456.914V364H455.954L455.814 361.96C454.914 363.38 453.334 364.26 451.394 364.26ZM447.254 358.82C447.254 361.36 448.994 363.14 451.534 363.14C454.054 363.14 455.794 361.36 455.794 358.82C455.794 356.3 454.054 354.52 451.534 354.52C448.994 354.52 447.254 356.3 447.254 358.82ZM466.607 352.46C466.607 350.1 467.767 348.94 470.067 348.94H471.687V350.04H470.167C468.487 350.04 467.767 350.78 467.767 352.54V353.66H471.587V354.72H467.767V364H466.607V354.72H464.247V353.66H466.607V352.46ZM473.947 364V353.66H475.107V364H473.947ZM473.887 351.94L474.667 348.92H475.967L474.947 351.94H473.887ZM482.78 364.26C480.16 364.26 478.5 362.94 478.42 360.88H479.56C479.68 362.34 480.82 363.2 482.8 363.2C484.62 363.2 485.72 362.5 485.72 361.36C485.72 360.28 484.74 359.62 482.54 359.24C479.84 358.78 478.62 357.82 478.62 356.24C478.62 354.48 480.12 353.4 482.54 353.4C484.98 353.4 486.52 354.56 486.68 356.54H485.52C485.4 355.18 484.34 354.44 482.54 354.44C480.82 354.44 479.78 355.14 479.78 356.26C479.78 357.28 480.64 357.84 482.94 358.28C485.56 358.78 486.86 359.82 486.86 361.38C486.86 363.12 485.28 364.26 482.78 364.26ZM490.216 364V353.66H491.376V364H490.216ZM489.736 350.72C489.736 350.14 490.156 349.68 490.796 349.68C491.436 349.68 491.856 350.14 491.856 350.72C491.856 351.32 491.436 351.78 490.796 351.78C490.156 351.78 489.736 351.32 489.736 350.72ZM499.87 364.26C496.77 364.26 494.59 362 494.59 358.82C494.59 355.64 496.77 353.4 499.87 353.4C502.33 353.4 504.35 354.86 504.95 357.1H503.77C503.09 355.46 501.65 354.52 499.87 354.52C497.43 354.52 495.75 356.28 495.75 358.82C495.75 361.38 497.43 363.14 499.87 363.14C501.77 363.14 503.25 362.08 503.83 360.38H505.05C504.35 362.8 502.41 364.26 499.87 364.26ZM511.308 364.16C508.908 364.16 507.408 362.98 507.408 361.08C507.408 359.24 508.808 358.08 510.928 358.08H515.488V357.34C515.488 355.62 514.228 354.48 512.308 354.48C510.748 354.48 509.528 355.28 509.108 356.52H507.928C508.428 354.6 510.088 353.4 512.288 353.4C514.868 353.4 516.648 354.98 516.648 357.28V364H515.688L515.568 362.22C514.668 363.46 513.148 364.16 511.308 364.16ZM508.568 361.06C508.568 362.32 509.628 363.12 511.348 363.12C513.748 363.12 515.508 361.62 515.508 359.54V359.1H510.968C509.548 359.1 508.568 359.88 508.568 361.06ZM524.791 368V366.9H525.651C527.111 366.9 527.571 366.6 528.111 365.3L528.691 363.84L523.771 353.66H525.071L527.511 358.76L529.291 362.44L530.771 358.76L532.871 353.66H534.091L529.151 365.74C528.431 367.54 527.631 368 525.771 368H524.791ZM368.3 393.16C365.9 393.16 364.4 391.98 364.4 390.08C364.4 388.24 365.8 387.08 367.92 387.08H372.48V386.34C372.48 384.62 371.22 383.48 369.3 383.48C367.74 383.48 366.52 384.28 366.1 385.52H364.92C365.42 383.6 367.08 382.4 369.28 382.4C371.86 382.4 373.64 383.98 373.64 386.28V393H372.68L372.56 391.22C371.66 392.46 370.14 393.16 368.3 393.16ZM365.56 390.06C365.56 391.32 366.62 392.12 368.34 392.12C370.74 392.12 372.5 390.62 372.5 388.54V388.1H367.96C366.54 388.1 365.56 388.88 365.56 390.06ZM381.92 393.26C378.82 393.26 376.64 391 376.64 387.82C376.64 384.64 378.82 382.4 381.92 382.4C384.38 382.4 386.4 383.86 387 386.1H385.82C385.14 384.46 383.7 383.52 381.92 383.52C379.48 383.52 377.8 385.28 377.8 387.82C377.8 390.38 379.48 392.14 381.92 392.14C383.82 392.14 385.3 391.08 385.88 389.38H387.1C386.4 391.8 384.46 393.26 381.92 393.26ZM394.123 393C391.923 393 390.743 391.76 390.743 389.42V383.72H388.483V382.66H389.803C390.583 382.66 390.803 382.46 390.883 381.7L390.983 380.12H391.903V382.66H395.483V383.72H391.903V389.38C391.903 391.08 392.603 391.88 394.163 391.88H395.623V393H394.123ZM398.732 393V382.66H399.892V393H398.732ZM398.252 379.72C398.252 379.14 398.672 378.68 399.312 378.68C399.952 378.68 400.372 379.14 400.372 379.72C400.372 380.32 399.952 380.78 399.312 380.78C398.672 380.78 398.252 380.32 398.252 379.72ZM406.965 393L402.345 382.66H403.605L405.405 386.66L407.545 391.48L409.665 386.66L411.485 382.66H412.725L408.105 393H406.965ZM415.197 393V382.66H416.357V393H415.197ZM414.717 379.72C414.717 379.14 415.137 378.68 415.777 378.68C416.417 378.68 416.837 379.14 416.837 379.72C416.837 380.32 416.417 380.78 415.777 380.78C415.137 380.78 414.717 380.32 414.717 379.72ZM424.87 393.26C421.75 393.26 419.57 390.96 419.57 387.82C419.57 384.68 421.75 382.4 424.87 382.4C426.77 382.4 428.31 383.24 429.23 384.58V378.2H430.39V393H429.43L429.29 390.96C428.39 392.38 426.81 393.26 424.87 393.26ZM420.73 387.82C420.73 390.36 422.47 392.14 425.01 392.14C427.53 392.14 429.27 390.36 429.27 387.82C429.27 385.3 427.53 383.52 425.01 383.52C422.47 383.52 420.73 385.3 420.73 387.82ZM437.753 393.16C435.353 393.16 433.853 391.98 433.853 390.08C433.853 388.24 435.253 387.08 437.373 387.08H441.933V386.34C441.933 384.62 440.673 383.48 438.753 383.48C437.193 383.48 435.973 384.28 435.553 385.52H434.373C434.873 383.6 436.533 382.4 438.733 382.4C441.313 382.4 443.093 383.98 443.093 386.28V393H442.133L442.013 391.22C441.113 392.46 439.593 393.16 437.753 393.16ZM435.013 390.06C435.013 391.32 436.073 392.12 437.793 392.12C440.193 392.12 441.953 390.62 441.953 388.54V388.1H437.413C435.993 388.1 435.013 388.88 435.013 390.06ZM451.394 393.26C448.274 393.26 446.094 390.96 446.094 387.82C446.094 384.68 448.274 382.4 451.394 382.4C453.294 382.4 454.834 383.24 455.754 384.58V378.2H456.914V393H455.954L455.814 390.96C454.914 392.38 453.334 393.26 451.394 393.26ZM447.254 387.82C447.254 390.36 448.994 392.14 451.534 392.14C454.054 392.14 455.794 390.36 455.794 387.82C455.794 385.3 454.054 383.52 451.534 383.52C448.994 383.52 447.254 385.3 447.254 387.82ZM465.417 393.26C462.277 393.26 460.137 391.04 460.137 387.82C460.137 384.62 462.297 382.4 465.437 382.4C468.697 382.4 470.797 384.8 470.717 388.3H461.317C461.517 390.64 463.117 392.16 465.417 392.16C467.097 392.16 468.437 391.38 469.117 390.04L470.417 390.06C469.617 392.04 467.737 393.26 465.417 393.26ZM461.317 387.28H469.577C469.297 384.94 467.697 383.5 465.437 383.5C463.137 383.5 461.517 385 461.317 387.28ZM477.448 393.26C474.828 393.26 473.168 391.94 473.088 389.88H474.228C474.348 391.34 475.488 392.2 477.468 392.2C479.288 392.2 480.388 391.5 480.388 390.36C480.388 389.28 479.408 388.62 477.208 388.24C474.508 387.78 473.288 386.82 473.288 385.24C473.288 383.48 474.788 382.4 477.208 382.4C479.648 382.4 481.188 383.56 481.348 385.54H480.188C480.068 384.18 479.008 383.44 477.208 383.44C475.488 383.44 474.448 384.14 474.448 385.26C474.448 386.28 475.308 386.84 477.608 387.28C480.228 387.78 481.528 388.82 481.528 390.38C481.528 392.12 479.948 393.26 477.448 393.26ZM493.737 393.26C490.617 393.26 488.437 390.96 488.437 387.82C488.437 384.68 490.617 382.4 493.737 382.4C495.637 382.4 497.177 383.24 498.097 384.58V378.2H499.257V393H498.297L498.157 390.96C497.257 392.38 495.677 393.26 493.737 393.26ZM489.597 387.82C489.597 390.36 491.337 392.14 493.877 392.14C496.397 392.14 498.137 390.36 498.137 387.82C498.137 385.3 496.397 383.52 493.877 383.52C491.337 383.52 489.597 385.3 489.597 387.82ZM507.76 393.26C504.62 393.26 502.48 391.04 502.48 387.82C502.48 384.62 504.64 382.4 507.78 382.4C511.04 382.4 513.14 384.8 513.06 388.3H503.66C503.86 390.64 505.46 392.16 507.76 392.16C509.44 392.16 510.78 391.38 511.46 390.04L512.76 390.06C511.96 392.04 510.08 393.26 507.76 393.26ZM503.66 387.28H511.92C511.64 384.94 510.04 383.5 507.78 383.5C505.48 383.5 503.86 385 503.66 387.28ZM369.6 422.26C366.4 422.26 364.16 420.02 364.16 416.82C364.16 413.64 366.4 411.4 369.6 411.4C372.78 411.4 375.02 413.64 375.02 416.82C375.02 420.02 372.78 422.26 369.6 422.26ZM365.32 416.82C365.32 419.38 367.06 421.14 369.6 421.14C372.12 421.14 373.86 419.38 373.86 416.82C373.86 414.28 372.12 412.52 369.6 412.52C367.06 412.52 365.32 414.28 365.32 416.82ZM382.624 422.26C379.524 422.26 377.344 420 377.344 416.82C377.344 413.64 379.524 411.4 382.624 411.4C385.084 411.4 387.104 412.86 387.704 415.1H386.524C385.844 413.46 384.404 412.52 382.624 412.52C380.184 412.52 378.504 414.28 378.504 416.82C378.504 419.38 380.184 421.14 382.624 421.14C384.524 421.14 386.004 420.08 386.584 418.38H387.804C387.104 420.8 385.164 422.26 382.624 422.26ZM390.958 422V411.66H392.118V422H390.958ZM390.478 408.72C390.478 408.14 390.898 407.68 391.538 407.68C392.178 407.68 392.598 408.14 392.598 408.72C392.598 409.32 392.178 409.78 391.538 409.78C390.898 409.78 390.478 409.32 390.478 408.72ZM400.772 422.26C397.572 422.26 395.332 420.02 395.332 416.82C395.332 413.64 397.572 411.4 400.772 411.4C403.952 411.4 406.192 413.64 406.192 416.82C406.192 420.02 403.952 422.26 400.772 422.26ZM396.492 416.82C396.492 419.38 398.232 421.14 400.772 421.14C403.292 421.14 405.032 419.38 405.032 416.82C405.032 414.28 403.292 412.52 400.772 412.52C398.232 412.52 396.492 414.28 396.492 416.82ZM409.385 422.12C408.745 422.12 408.325 421.68 408.325 421.08C408.325 420.48 408.745 420.04 409.385 420.04C410.025 420.04 410.445 420.48 410.445 421.08C410.445 421.68 410.025 422.12 409.385 422.12Z" fill="black"/>
<path d="M46.26 416V402H47.48V414.84H54.58V416H46.26ZM60.1008 416.16C57.7008 416.16 56.2008 414.98 56.2008 413.08C56.2008 411.24 57.6008 410.08 59.7208 410.08H64.2808V409.34C64.2808 407.62 63.0208 406.48 61.1008 406.48C59.5408 406.48 58.3208 407.28 57.9008 408.52H56.7208C57.2208 406.6 58.8808 405.4 61.0808 405.4C63.6608 405.4 65.4408 406.98 65.4408 409.28V416H64.4808L64.3608 414.22C63.4608 415.46 61.9408 416.16 60.1008 416.16ZM57.3608 413.06C57.3608 414.32 58.4208 415.12 60.1408 415.12C62.5408 415.12 64.3008 413.62 64.3008 411.54V411.1H59.7608C58.3408 411.1 57.3608 411.88 57.3608 413.06ZM77.8231 416.26C75.2031 416.26 73.5431 414.94 73.4631 412.88H74.6031C74.7231 414.34 75.8631 415.2 77.8431 415.2C79.6631 415.2 80.7631 414.5 80.7631 413.36C80.7631 412.28 79.7831 411.62 77.5831 411.24C74.8831 410.78 73.6631 409.82 73.6631 408.24C73.6631 406.48 75.1631 405.4 77.5831 405.4C80.0231 405.4 81.5631 406.56 81.7231 408.54H80.5631C80.4431 407.18 79.3831 406.44 77.5831 406.44C75.8631 406.44 74.8231 407.14 74.8231 408.26C74.8231 409.28 75.6831 409.84 77.9831 410.28C80.6031 410.78 81.9031 411.82 81.9031 413.38C81.9031 415.12 80.3231 416.26 77.8231 416.26ZM89.6392 416.26C86.4992 416.26 84.3592 414.04 84.3592 410.82C84.3592 407.62 86.5192 405.4 89.6592 405.4C92.9192 405.4 95.0192 407.8 94.9392 411.3H85.5392C85.7392 413.64 87.3392 415.16 89.6392 415.16C91.3192 415.16 92.6592 414.38 93.3392 413.04L94.6392 413.06C93.8392 415.04 91.9592 416.26 89.6392 416.26ZM85.5392 410.28H93.7992C93.5192 407.94 91.9192 406.5 89.6592 406.5C87.3592 406.5 85.7392 408 85.5392 410.28ZM98.1108 416V405.66H99.0908L99.1908 407.66C100.011 406.18 101.451 405.4 103.111 405.4C105.811 405.4 107.471 407.3 107.471 410.28V416H106.311V410.38C106.311 408 105.031 406.52 102.971 406.52C100.791 406.52 99.2708 408.18 99.2708 410.64V416H98.1108ZM114.933 416.26C112.313 416.26 110.653 414.94 110.573 412.88H111.713C111.833 414.34 112.973 415.2 114.953 415.2C116.773 415.2 117.873 414.5 117.873 413.36C117.873 412.28 116.893 411.62 114.693 411.24C111.993 410.78 110.773 409.82 110.773 408.24C110.773 406.48 112.273 405.4 114.693 405.4C117.133 405.4 118.673 406.56 118.833 408.54H117.673C117.553 407.18 116.493 406.44 114.693 406.44C112.973 406.44 111.933 407.14 111.933 408.26C111.933 409.28 112.793 409.84 115.093 410.28C117.713 410.78 119.013 411.82 119.013 413.38C119.013 415.12 117.433 416.26 114.933 416.26ZM125.491 416.16C123.091 416.16 121.591 414.98 121.591 413.08C121.591 411.24 122.991 410.08 125.111 410.08H129.671V409.34C129.671 407.62 128.411 406.48 126.491 406.48C124.931 406.48 123.711 407.28 123.291 408.52H122.111C122.611 406.6 124.271 405.4 126.471 405.4C129.051 405.4 130.831 406.98 130.831 409.28V416H129.871L129.751 414.22C128.851 415.46 127.331 416.16 125.491 416.16ZM122.751 413.06C122.751 414.32 123.811 415.12 125.531 415.12C127.931 415.12 129.691 413.62 129.691 411.54V411.1H125.151C123.731 411.1 122.751 411.88 122.751 413.06ZM139.112 416.26C136.012 416.26 133.832 414 133.832 410.82C133.832 407.64 136.012 405.4 139.112 405.4C141.572 405.4 143.592 406.86 144.192 409.1H143.012C142.332 407.46 140.892 406.52 139.112 406.52C136.672 406.52 134.992 408.28 134.992 410.82C134.992 413.38 136.672 415.14 139.112 415.14C141.012 415.14 142.492 414.08 143.072 412.38H144.292C143.592 414.8 141.652 416.26 139.112 416.26ZM147.447 416V405.66H148.607V416H147.447ZM146.967 402.72C146.967 402.14 147.387 401.68 148.027 401.68C148.667 401.68 149.087 402.14 149.087 402.72C149.087 403.32 148.667 403.78 148.027 403.78C147.387 403.78 146.967 403.32 146.967 402.72ZM157.26 416.26C154.06 416.26 151.82 414.02 151.82 410.82C151.82 407.64 154.06 405.4 157.26 405.4C160.44 405.4 162.68 407.64 162.68 410.82C162.68 414.02 160.44 416.26 157.26 416.26ZM152.98 410.82C152.98 413.38 154.72 415.14 157.26 415.14C159.78 415.14 161.52 413.38 161.52 410.82C161.52 408.28 159.78 406.52 157.26 406.52C154.72 406.52 152.98 408.28 152.98 410.82ZM156.5 403.94L157.6 400.92H158.84L157.58 403.94H156.5ZM165.904 416V405.66H166.884L166.984 407.66C167.804 406.18 169.244 405.4 170.904 405.4C173.604 405.4 175.264 407.3 175.264 410.28V416H174.104V410.38C174.104 408 172.824 406.52 170.764 406.52C168.584 406.52 167.064 408.18 167.064 410.64V416H165.904ZM188.448 416.26C185.328 416.26 183.148 413.96 183.148 410.82C183.148 407.68 185.328 405.4 188.448 405.4C190.348 405.4 191.888 406.24 192.808 407.58V401.2H193.968V416H193.008L192.868 413.96C191.968 415.38 190.388 416.26 188.448 416.26ZM184.308 410.82C184.308 413.36 186.048 415.14 188.588 415.14C191.108 415.14 192.848 413.36 192.848 410.82C192.848 408.3 191.108 406.52 188.588 406.52C186.048 406.52 184.308 408.3 184.308 410.82ZM202.471 416.26C199.331 416.26 197.191 414.04 197.191 410.82C197.191 407.62 199.351 405.4 202.491 405.4C205.751 405.4 207.851 407.8 207.771 411.3H198.371C198.571 413.64 200.171 415.16 202.471 415.16C204.151 415.16 205.491 414.38 206.171 413.04L207.471 413.06C206.671 415.04 204.791 416.26 202.471 416.26ZM198.371 410.28H206.631C206.351 407.94 204.751 406.5 202.491 406.5C200.191 406.5 198.571 408 198.371 410.28ZM219.44 416C217.24 416 216.06 414.76 216.06 412.42V406.72H213.8V405.66H215.12C215.9 405.66 216.12 405.46 216.2 404.7L216.3 403.12H217.22V405.66H220.8V406.72H217.22V412.38C217.22 414.08 217.92 414.88 219.48 414.88H220.94V416H219.44ZM227.92 416.26C224.78 416.26 222.64 414.04 222.64 410.82C222.64 407.62 224.8 405.4 227.94 405.4C231.2 405.4 233.3 407.8 233.22 411.3H223.82C224.02 413.64 225.62 415.16 227.92 415.16C229.6 415.16 230.94 414.38 231.62 413.04L232.92 413.06C232.12 415.04 230.24 416.26 227.92 416.26ZM223.82 410.28H232.08C231.8 407.94 230.2 406.5 227.94 406.5C225.64 406.5 224.02 408 223.82 410.28ZM236.392 416V405.66H237.372L237.472 407.66C238.292 406.18 239.732 405.4 241.392 405.4C244.092 405.4 245.752 407.3 245.752 410.28V416H244.592V410.38C244.592 408 243.312 406.52 241.252 406.52C239.072 406.52 237.552 408.18 237.552 410.64V416H236.392ZM254.034 416.26C250.894 416.26 248.754 414.04 248.754 410.82C248.754 407.62 250.914 405.4 254.054 405.4C257.314 405.4 259.414 407.8 259.334 411.3H249.934C250.134 413.64 251.734 415.16 254.034 415.16C255.714 415.16 257.054 414.38 257.734 413.04L259.034 413.06C258.234 415.04 256.354 416.26 254.034 416.26ZM249.934 410.28H258.194C257.914 407.94 256.314 406.5 254.054 406.5C251.754 406.5 250.134 408 249.934 410.28ZM262.505 416V405.66H263.485L263.605 407.98C264.305 406.42 265.485 405.66 267.405 405.66H268.265V406.74H267.365C265.145 406.74 263.665 408.1 263.665 411.24V416H262.505ZM50.44 445.26C47.34 445.26 45.16 443 45.16 439.82C45.16 436.64 47.34 434.4 50.44 434.4C52.9 434.4 54.92 435.86 55.52 438.1H54.34C53.66 436.46 52.22 435.52 50.44 435.52C48 435.52 46.32 437.28 46.32 439.82C46.32 442.38 48 444.14 50.44 444.14C52.34 444.14 53.82 443.08 54.4 441.38H55.62C54.92 443.8 52.98 445.26 50.44 445.26ZM63.3148 445.26C60.1148 445.26 57.8748 443.02 57.8748 439.82C57.8748 436.64 60.1148 434.4 63.3148 434.4C66.4948 434.4 68.7348 436.64 68.7348 439.82C68.7348 443.02 66.4948 445.26 63.3148 445.26ZM59.0348 439.82C59.0348 442.38 60.7748 444.14 63.3148 444.14C65.8348 444.14 67.5748 442.38 67.5748 439.82C67.5748 437.28 65.8348 435.52 63.3148 435.52C60.7748 435.52 59.0348 437.28 59.0348 439.82ZM71.9584 445V434.66H72.9384L73.0384 436.66C73.8584 435.18 75.2984 434.4 76.9584 434.4C79.6584 434.4 81.3184 436.3 81.3184 439.28V445H80.1584V439.38C80.1584 437 78.8784 435.52 76.8184 435.52C74.6384 435.52 73.1184 437.18 73.1184 439.64V445H71.9584ZM89.0881 445C86.8881 445 85.7081 443.76 85.7081 441.42V435.72H83.4481V434.66H84.7681C85.5481 434.66 85.7681 434.46 85.8481 433.7L85.9481 432.12H86.8681V434.66H90.4481V435.72H86.8681V441.38C86.8681 443.08 87.5681 443.88 89.1281 443.88H90.5881V445H89.0881ZM93.6967 445V434.66H94.6767L94.7967 436.98C95.4967 435.42 96.6767 434.66 98.5967 434.66H99.4567V435.74H98.5567C96.3367 435.74 94.8567 437.1 94.8567 440.24V445H93.6967ZM106.108 445.26C102.908 445.26 100.668 443.02 100.668 439.82C100.668 436.64 102.908 434.4 106.108 434.4C109.288 434.4 111.528 436.64 111.528 439.82C111.528 443.02 109.288 445.26 106.108 445.26ZM101.828 439.82C101.828 442.38 103.568 444.14 106.108 444.14C108.628 444.14 110.368 442.38 110.368 439.82C110.368 437.28 108.628 435.52 106.108 435.52C103.568 435.52 101.828 437.28 101.828 439.82ZM114.751 445V430.2H115.911V445H114.751ZM128.507 445.26C125.887 445.26 124.227 443.94 124.147 441.88H125.287C125.407 443.34 126.547 444.2 128.527 444.2C130.347 444.2 131.447 443.5 131.447 442.36C131.447 441.28 130.467 440.62 128.267 440.24C125.567 439.78 124.347 438.82 124.347 437.24C124.347 435.48 125.847 434.4 128.267 434.4C130.707 434.4 132.247 435.56 132.407 437.54H131.247C131.127 436.18 130.067 435.44 128.267 435.44C126.547 435.44 125.507 436.14 125.507 437.26C125.507 438.28 126.367 438.84 128.667 439.28C131.287 439.78 132.587 440.82 132.587 442.38C132.587 444.12 131.007 445.26 128.507 445.26ZM140.483 445.26C137.283 445.26 135.043 443.02 135.043 439.82C135.043 436.64 137.283 434.4 140.483 434.4C143.663 434.4 145.903 436.64 145.903 439.82C145.903 443.02 143.663 445.26 140.483 445.26ZM136.203 439.82C136.203 442.38 137.943 444.14 140.483 444.14C143.003 444.14 144.743 442.38 144.743 439.82C144.743 437.28 143.003 435.52 140.483 435.52C137.943 435.52 136.203 437.28 136.203 439.82ZM154.646 445.26C152.706 445.26 151.126 444.36 150.226 442.94L150.106 445H149.126V430.2H150.286V436.62C151.206 435.24 152.746 434.4 154.646 434.4C157.786 434.4 159.946 436.68 159.946 439.82C159.946 442.96 157.786 445.26 154.646 445.26ZM150.246 439.82C150.246 442.36 151.986 444.14 154.526 444.14C157.066 444.14 158.786 442.36 158.786 439.82C158.786 437.3 157.066 435.52 154.526 435.52C151.986 435.52 150.246 437.3 150.246 439.82ZM163.169 445V434.66H164.149L164.269 436.98C164.969 435.42 166.149 434.66 168.069 434.66H168.929V435.74H168.029C165.809 435.74 164.329 437.1 164.329 440.24V445H163.169ZM175.42 445.26C172.28 445.26 170.14 443.04 170.14 439.82C170.14 436.62 172.3 434.4 175.44 434.4C178.7 434.4 180.8 436.8 180.72 440.3H171.32C171.52 442.64 173.12 444.16 175.42 444.16C177.1 444.16 178.44 443.38 179.12 442.04L180.42 442.06C179.62 444.04 177.74 445.26 175.42 445.26ZM171.32 439.28H179.58C179.3 436.94 177.7 435.5 175.44 435.5C173.14 435.5 171.52 437 171.32 439.28ZM192.389 445C190.189 445 189.009 443.76 189.009 441.42V435.72H186.749V434.66H188.069C188.849 434.66 189.069 434.46 189.149 433.7L189.249 432.12H190.169V434.66H193.749V435.72H190.169V441.38C190.169 443.08 190.869 443.88 192.429 443.88H193.889V445H192.389ZM200.941 445.26C198.281 445.26 196.641 443.36 196.641 440.38V434.66H197.801V440.28C197.801 442.64 199.061 444.14 201.101 444.14C203.241 444.14 204.721 442.46 204.721 440V434.66H205.881V445H204.921L204.801 442.98C204.001 444.48 202.561 445.26 200.941 445.26ZM220.877 445.26C218.977 445.26 217.437 444.4 216.517 443.04V449H215.357V434.66H216.337L216.457 436.72C217.357 435.28 218.937 434.4 220.877 434.4C224.017 434.4 226.177 436.68 226.177 439.82C226.177 442.96 224.017 445.26 220.877 445.26ZM216.477 439.82C216.477 442.36 218.217 444.14 220.757 444.14C223.297 444.14 225.017 442.36 225.017 439.82C225.017 437.3 223.297 435.52 220.757 435.52C218.217 435.52 216.477 437.3 216.477 439.82ZM229.4 445V434.66H230.38L230.5 436.98C231.2 435.42 232.38 434.66 234.3 434.66H235.16V435.74H234.26C232.04 435.74 230.56 437.1 230.56 440.24V445H229.4ZM241.811 445.26C238.611 445.26 236.371 443.02 236.371 439.82C236.371 436.64 238.611 434.4 241.811 434.4C244.991 434.4 247.231 436.64 247.231 439.82C247.231 443.02 244.991 445.26 241.811 445.26ZM237.531 439.82C237.531 442.38 239.271 444.14 241.811 444.14C244.331 444.14 246.071 442.38 246.071 439.82C246.071 437.28 244.331 435.52 241.811 435.52C239.271 435.52 237.531 437.28 237.531 439.82ZM255.975 445.26C254.075 445.26 252.535 444.4 251.615 443.04V449H250.455V434.66H251.435L251.555 436.72C252.455 435.28 254.035 434.4 255.975 434.4C259.115 434.4 261.275 436.68 261.275 439.82C261.275 442.96 259.115 445.26 255.975 445.26ZM251.575 439.82C251.575 442.36 253.315 444.14 255.855 444.14C258.395 444.14 260.115 442.36 260.115 439.82C260.115 437.3 258.395 435.52 255.855 435.52C253.315 435.52 251.575 437.3 251.575 439.82ZM264.498 445V434.66H265.658V445H264.498ZM264.018 431.72C264.018 431.14 264.438 430.68 265.077 430.68C265.718 430.68 266.138 431.14 266.138 431.72C266.138 432.32 265.718 432.78 265.077 432.78C264.438 432.78 264.018 432.32 264.018 431.72ZM274.311 445.26C271.111 445.26 268.871 443.02 268.871 439.82C268.871 436.64 271.111 434.4 274.311 434.4C277.491 434.4 279.731 436.64 279.731 439.82C279.731 443.02 277.491 445.26 274.311 445.26ZM270.031 439.82C270.031 442.38 271.771 444.14 274.311 444.14C276.831 444.14 278.571 442.38 278.571 439.82C278.571 437.28 276.831 435.52 274.311 435.52C271.771 435.52 270.031 437.28 270.031 439.82ZM50.26 474C48.06 474 46.88 472.76 46.88 470.42V464.72H44.62V463.66H45.94C46.72 463.66 46.94 463.46 47.02 462.7L47.12 461.12H48.04V463.66H51.62V464.72H48.04V470.38C48.04 472.08 48.74 472.88 50.3 472.88H51.76V474H50.26ZM54.8686 474V463.66H56.0286V474H54.8686ZM54.3886 460.72C54.3886 460.14 54.8086 459.68 55.4486 459.68C56.0886 459.68 56.5086 460.14 56.5086 460.72C56.5086 461.32 56.0886 461.78 55.4486 461.78C54.8086 461.78 54.3886 461.32 54.3886 460.72ZM64.522 474.26C61.382 474.26 59.242 472.04 59.242 468.82C59.242 465.62 61.402 463.4 64.542 463.4C67.802 463.4 69.902 465.8 69.822 469.3H60.422C60.622 471.64 62.222 473.16 64.522 473.16C66.202 473.16 67.542 472.38 68.222 471.04L69.522 471.06C68.722 473.04 66.842 474.26 64.522 474.26ZM60.422 468.28H68.682C68.402 465.94 66.802 464.5 64.542 464.5C62.242 464.5 60.622 466 60.422 468.28ZM72.9936 474V463.66H73.9736L74.0736 465.34C74.7936 464.08 76.0536 463.4 77.6536 463.4C79.4536 463.4 80.8336 464.3 81.4336 465.88C82.1336 464.3 83.5536 463.4 85.3736 463.4C87.9736 463.4 89.6536 465.18 89.6536 468.06V474H88.4936V468.24C88.4936 465.94 87.2136 464.52 85.2336 464.52C83.2136 464.52 81.8936 465.98 81.8936 468.32V474H80.7336V468.24C80.7336 465.94 79.4736 464.52 77.4936 464.52C75.4736 464.52 74.1536 465.98 74.1536 468.32V474H72.9936ZM99.0605 474.26C97.1605 474.26 95.6205 473.4 94.7005 472.04V478H93.5405V463.66H94.5205L94.6405 465.72C95.5405 464.28 97.1205 463.4 99.0605 463.4C102.2 463.4 104.36 465.68 104.36 468.82C104.36 471.96 102.2 474.26 99.0605 474.26ZM94.6605 468.82C94.6605 471.36 96.4005 473.14 98.9405 473.14C101.48 473.14 103.2 471.36 103.2 468.82C103.2 466.3 101.48 464.52 98.9405 464.52C96.4005 464.52 94.6605 466.3 94.6605 468.82ZM112.123 474.26C108.923 474.26 106.683 472.02 106.683 468.82C106.683 465.64 108.923 463.4 112.123 463.4C115.303 463.4 117.543 465.64 117.543 468.82C117.543 472.02 115.303 474.26 112.123 474.26ZM107.843 468.82C107.843 471.38 109.583 473.14 112.123 473.14C114.643 473.14 116.383 471.38 116.383 468.82C116.383 466.28 114.643 464.52 112.123 464.52C109.583 464.52 107.843 466.28 107.843 468.82ZM129.561 474.26C126.461 474.26 124.281 472 124.281 468.82C124.281 465.64 126.461 463.4 129.561 463.4C132.021 463.4 134.041 464.86 134.641 467.1H133.461C132.781 465.46 131.341 464.52 129.561 464.52C127.121 464.52 125.441 466.28 125.441 468.82C125.441 471.38 127.121 473.14 129.561 473.14C131.461 473.14 132.941 472.08 133.521 470.38H134.741C134.041 472.8 132.101 474.26 129.561 474.26ZM142.436 474.26C139.236 474.26 136.996 472.02 136.996 468.82C136.996 465.64 139.236 463.4 142.436 463.4C145.616 463.4 147.856 465.64 147.856 468.82C147.856 472.02 145.616 474.26 142.436 474.26ZM138.156 468.82C138.156 471.38 139.896 473.14 142.436 473.14C144.956 473.14 146.696 471.38 146.696 468.82C146.696 466.28 144.956 464.52 142.436 464.52C139.896 464.52 138.156 466.28 138.156 468.82ZM151.08 474V463.66H152.06L152.16 465.66C152.98 464.18 154.42 463.4 156.08 463.4C158.78 463.4 160.44 465.3 160.44 468.28V474H159.28V468.38C159.28 466 158 464.52 155.94 464.52C153.76 464.52 152.24 466.18 152.24 468.64V474H151.08ZM168.741 474.26C165.621 474.26 163.441 471.96 163.441 468.82C163.441 465.68 165.621 463.4 168.741 463.4C170.641 463.4 172.181 464.24 173.101 465.58V459.2H174.261V474H173.301L173.161 471.96C172.261 473.38 170.681 474.26 168.741 474.26ZM164.601 468.82C164.601 471.36 166.341 473.14 168.881 473.14C171.401 473.14 173.141 471.36 173.141 468.82C173.141 466.3 171.401 464.52 168.881 464.52C166.341 464.52 164.601 466.3 164.601 468.82ZM182.464 474.26C179.804 474.26 178.164 472.36 178.164 469.38V463.66H179.324V469.28C179.324 471.64 180.584 473.14 182.624 473.14C184.764 473.14 186.244 471.46 186.244 469V463.66H187.404V474H186.444L186.324 471.98C185.524 473.48 184.084 474.26 182.464 474.26ZM195.909 474.26C192.809 474.26 190.629 472 190.629 468.82C190.629 465.64 192.809 463.4 195.909 463.4C198.369 463.4 200.389 464.86 200.989 467.1H199.809C199.129 465.46 197.689 464.52 195.909 464.52C193.469 464.52 191.789 466.28 191.789 468.82C191.789 471.38 193.469 473.14 195.909 473.14C197.809 473.14 199.289 472.08 199.869 470.38H201.089C200.389 472.8 198.449 474.26 195.909 474.26ZM208.624 474.26C205.484 474.26 203.344 472.04 203.344 468.82C203.344 465.62 205.504 463.4 208.644 463.4C211.904 463.4 214.004 465.8 213.924 469.3H204.524C204.724 471.64 206.324 473.16 208.624 473.16C210.304 473.16 211.644 472.38 212.324 471.04L213.624 471.06C212.824 473.04 210.944 474.26 208.624 474.26ZM204.524 468.28H212.784C212.504 465.94 210.904 464.5 208.644 464.5C206.344 464.5 204.724 466 204.524 468.28ZM225.218 474.16C222.818 474.16 221.318 472.98 221.318 471.08C221.318 469.24 222.718 468.08 224.838 468.08H229.398V467.34C229.398 465.62 228.138 464.48 226.218 464.48C224.658 464.48 223.438 465.28 223.018 466.52H221.838C222.338 464.6 223.998 463.4 226.198 463.4C228.778 463.4 230.558 464.98 230.558 467.28V474H229.598L229.478 472.22C228.578 473.46 227.058 474.16 225.218 474.16ZM222.478 471.06C222.478 472.32 223.538 473.12 225.258 473.12C227.658 473.12 229.418 471.62 229.418 469.54V469.1H224.878C223.458 469.1 222.478 469.88 222.478 471.06ZM46.06 503V492.66H47.04L47.14 494.66C47.96 493.18 49.4 492.4 51.06 492.4C53.76 492.4 55.42 494.3 55.42 497.28V503H54.26V497.38C54.26 495 52.98 493.52 50.92 493.52C48.74 493.52 47.22 495.18 47.22 497.64V503H46.06ZM59.3217 503V492.66H60.4817V503H59.3217ZM58.8417 489.72C58.8417 489.14 59.2617 488.68 59.9017 488.68C60.5417 488.68 60.9617 489.14 60.9617 489.72C60.9617 490.32 60.5417 490.78 59.9017 490.78C59.2617 490.78 58.8417 490.32 58.8417 489.72ZM67.5552 503L62.9352 492.66H64.1952L65.9952 496.66L68.1352 501.48L70.2552 496.66L72.0752 492.66H73.3152L68.6952 503H67.5552ZM79.7759 503.26C76.6359 503.26 74.4959 501.04 74.4959 497.82C74.4959 494.62 76.6559 492.4 79.7959 492.4C83.0559 492.4 85.1559 494.8 85.0759 498.3H75.6759C75.8759 500.64 77.4759 502.16 79.7759 502.16C81.4559 502.16 82.7959 501.38 83.4759 500.04L84.7759 500.06C83.9759 502.04 82.0959 503.26 79.7759 503.26ZM75.6759 497.28H83.9359C83.6559 494.94 82.0559 493.5 79.7959 493.5C77.4959 493.5 75.8759 495 75.6759 497.28ZM88.2475 503V488.2H89.4075V503H88.2475ZM97.9009 503.26C94.7609 503.26 92.6209 501.04 92.6209 497.82C92.6209 494.62 94.7809 492.4 97.9209 492.4C101.181 492.4 103.281 494.8 103.201 498.3H93.8009C94.0009 500.64 95.6009 502.16 97.9009 502.16C99.5809 502.16 100.921 501.38 101.601 500.04L102.901 500.06C102.101 502.04 100.221 503.26 97.9009 503.26ZM93.8009 497.28H102.061C101.781 494.94 100.181 493.5 97.9209 493.5C95.6209 493.5 94.0009 495 93.8009 497.28ZM109.933 503.26C107.313 503.26 105.653 501.94 105.573 499.88H106.713C106.833 501.34 107.973 502.2 109.953 502.2C111.773 502.2 112.873 501.5 112.873 500.36C112.873 499.28 111.893 498.62 109.693 498.24C106.993 497.78 105.773 496.82 105.773 495.24C105.773 493.48 107.273 492.4 109.693 492.4C112.133 492.4 113.673 493.56 113.833 495.54H112.673C112.553 494.18 111.493 493.44 109.693 493.44C107.973 493.44 106.933 494.14 106.933 495.26C106.933 496.28 107.793 496.84 110.093 497.28C112.713 497.78 114.013 498.82 114.013 500.38C114.013 502.12 112.433 503.26 109.933 503.26ZM122.29 503V492.66H123.27L123.37 494.34C124.09 493.08 125.35 492.4 126.95 492.4C128.75 492.4 130.13 493.3 130.73 494.88C131.43 493.3 132.85 492.4 134.67 492.4C137.27 492.4 138.95 494.18 138.95 497.06V503H137.79V497.24C137.79 494.94 136.51 493.52 134.53 493.52C132.51 493.52 131.19 494.98 131.19 497.32V503H130.03V497.24C130.03 494.94 128.77 493.52 126.79 493.52C124.77 493.52 123.45 494.98 123.45 497.32V503H122.29ZM146.077 503.16C143.677 503.16 142.177 501.98 142.177 500.08C142.177 498.24 143.577 497.08 145.697 497.08H150.257V496.34C150.257 494.62 148.997 493.48 147.077 493.48C145.517 493.48 144.297 494.28 143.877 495.52H142.697C143.197 493.6 144.857 492.4 147.057 492.4C149.637 492.4 151.417 493.98 151.417 496.28V503H150.457L150.337 501.22C149.437 502.46 147.917 503.16 146.077 503.16ZM143.337 500.06C143.337 501.32 144.397 502.12 146.117 502.12C148.517 502.12 150.277 500.62 150.277 498.54V498.1H145.737C144.317 498.1 143.337 498.88 143.337 500.06ZM146.297 490.94L147.397 487.92H148.657L147.397 490.94H146.297ZM158.878 503.26C156.258 503.26 154.598 501.94 154.518 499.88H155.658C155.778 501.34 156.918 502.2 158.898 502.2C160.718 502.2 161.818 501.5 161.818 500.36C161.818 499.28 160.838 498.62 158.638 498.24C155.938 497.78 154.718 496.82 154.718 495.24C154.718 493.48 156.218 492.4 158.638 492.4C161.078 492.4 162.618 493.56 162.778 495.54H161.618C161.498 494.18 160.438 493.44 158.638 493.44C156.918 493.44 155.878 494.14 155.878 495.26C155.878 496.28 156.738 496.84 159.038 497.28C161.658 497.78 162.958 498.82 162.958 500.38C162.958 502.12 161.378 503.26 158.878 503.26ZM176.756 503.26C174.816 503.26 173.236 502.36 172.336 500.94L172.216 503H171.236V488.2H172.396V494.62C173.316 493.24 174.856 492.4 176.756 492.4C179.896 492.4 182.056 494.68 182.056 497.82C182.056 500.96 179.896 503.26 176.756 503.26ZM172.356 497.82C172.356 500.36 174.096 502.14 176.636 502.14C179.176 502.14 180.896 500.36 180.896 497.82C180.896 495.3 179.176 493.52 176.636 493.52C174.096 493.52 172.356 495.3 172.356 497.82ZM188.382 503.16C185.982 503.16 184.482 501.98 184.482 500.08C184.482 498.24 185.882 497.08 188.002 497.08H192.562V496.34C192.562 494.62 191.302 493.48 189.382 493.48C187.822 493.48 186.602 494.28 186.182 495.52H185.002C185.502 493.6 187.162 492.4 189.362 492.4C191.942 492.4 193.722 493.98 193.722 496.28V503H192.762L192.642 501.22C191.742 502.46 190.222 503.16 188.382 503.16ZM185.642 500.06C185.642 501.32 186.702 502.12 188.422 502.12C190.822 502.12 192.582 500.62 192.582 498.54V498.1H188.042C186.622 498.1 185.642 498.88 185.642 500.06ZM194.682 507.06V505.96H195.663C197.123 505.96 197.643 505.48 197.643 503.76V492.66H198.803V503.78C198.803 506.06 198.003 507.06 195.723 507.06H194.682ZM197.163 489.72C197.163 489.14 197.583 488.68 198.223 488.68C198.863 488.68 199.283 489.14 199.283 489.72C199.283 490.32 198.863 490.78 198.223 490.78C197.583 490.78 197.163 490.32 197.163 489.72ZM207.455 503.26C204.255 503.26 202.015 501.02 202.015 497.82C202.015 494.64 204.255 492.4 207.455 492.4C210.635 492.4 212.875 494.64 212.875 497.82C212.875 501.02 210.635 503.26 207.455 503.26ZM203.175 497.82C203.175 500.38 204.915 502.14 207.455 502.14C209.975 502.14 211.715 500.38 211.715 497.82C211.715 495.28 209.975 493.52 207.455 493.52C204.915 493.52 203.175 495.28 203.175 497.82ZM219.659 503.26C217.039 503.26 215.379 501.94 215.299 499.88H216.439C216.559 501.34 217.699 502.2 219.679 502.2C221.499 502.2 222.599 501.5 222.599 500.36C222.599 499.28 221.619 498.62 219.419 498.24C216.719 497.78 215.499 496.82 215.499 495.24C215.499 493.48 216.999 492.4 219.419 492.4C221.859 492.4 223.399 493.56 223.559 495.54H222.399C222.279 494.18 221.219 493.44 219.419 493.44C217.699 493.44 216.659 494.14 216.659 495.26C216.659 496.28 217.519 496.84 219.819 497.28C222.439 497.78 223.739 498.82 223.739 500.38C223.739 502.12 222.159 503.26 219.659 503.26ZM235.948 503.26C232.828 503.26 230.648 500.96 230.648 497.82C230.648 494.68 232.828 492.4 235.948 492.4C237.848 492.4 239.388 493.24 240.308 494.58V488.2H241.468V503H240.508L240.368 500.96C239.468 502.38 237.888 503.26 235.948 503.26ZM231.808 497.82C231.808 500.36 233.548 502.14 236.088 502.14C238.608 502.14 240.348 500.36 240.348 497.82C240.348 495.3 238.608 493.52 236.088 493.52C233.548 493.52 231.808 495.3 231.808 497.82ZM249.971 503.26C246.831 503.26 244.691 501.04 244.691 497.82C244.691 494.62 246.851 492.4 249.991 492.4C253.251 492.4 255.351 494.8 255.271 498.3H245.871C246.071 500.64 247.671 502.16 249.971 502.16C251.651 502.16 252.991 501.38 253.671 500.04L254.971 500.06C254.171 502.04 252.291 503.26 249.971 503.26ZM245.871 497.28H254.131C253.851 494.94 252.251 493.5 249.991 493.5C247.691 493.5 246.071 495 245.871 497.28ZM50.44 532.26C47.3 532.26 45.16 530.04 45.16 526.82C45.16 523.62 47.32 521.4 50.46 521.4C53.72 521.4 55.82 523.8 55.74 527.3H46.34C46.54 529.64 48.14 531.16 50.44 531.16C52.12 531.16 53.46 530.38 54.14 529.04L55.44 529.06C54.64 531.04 52.76 532.26 50.44 532.26ZM46.34 526.28H54.6C54.32 523.94 52.72 522.5 50.46 522.5C48.16 522.5 46.54 524 46.34 526.28ZM62.4716 532.26C59.8516 532.26 58.1916 530.94 58.1116 528.88H59.2516C59.3716 530.34 60.5116 531.2 62.4916 531.2C64.3116 531.2 65.4116 530.5 65.4116 529.36C65.4116 528.28 64.4316 527.62 62.2316 527.24C59.5316 526.78 58.3116 525.82 58.3116 524.24C58.3116 522.48 59.8116 521.4 62.2316 521.4C64.6716 521.4 66.2116 522.56 66.3716 524.54H65.2116C65.0916 523.18 64.0316 522.44 62.2316 522.44C60.5116 522.44 59.4716 523.14 59.4716 524.26C59.4716 525.28 60.3316 525.84 62.6316 526.28C65.2516 526.78 66.5516 527.82 66.5516 529.38C66.5516 531.12 64.9716 532.26 62.4716 532.26ZM73.8147 532C71.6147 532 70.4347 530.76 70.4347 528.42V522.72H68.1747V521.66H69.4947C70.2747 521.66 70.4947 521.46 70.5747 520.7L70.6747 519.12H71.5947V521.66H75.1747V522.72H71.5947V528.38C71.5947 530.08 72.2947 530.88 73.8547 530.88H75.3147V532H73.8147ZM78.4233 532V521.66H79.4033L79.5233 523.98C80.2233 522.42 81.4033 521.66 83.3233 521.66H84.1833V522.74H83.2833C81.0633 522.74 79.5833 524.1 79.5833 527.24V532H78.4233ZM90.6744 532.26C87.5344 532.26 85.3944 530.04 85.3944 526.82C85.3944 523.62 87.5544 521.4 90.6944 521.4C93.9544 521.4 96.0544 523.8 95.9744 527.3H86.5744C86.7744 529.64 88.3744 531.16 90.6744 531.16C92.3544 531.16 93.6944 530.38 94.3744 529.04L95.6744 529.06C94.8744 531.04 92.9944 532.26 90.6744 532.26ZM86.5744 526.28H94.8344C94.5544 523.94 92.9544 522.5 90.6944 522.5C88.3944 522.5 86.7744 524 86.5744 526.28ZM89.9344 519.94L91.0344 516.92H92.2944L91.0344 519.94H89.9344ZM102.706 532.26C100.086 532.26 98.4259 530.94 98.3459 528.88H99.4859C99.6059 530.34 100.746 531.2 102.726 531.2C104.546 531.2 105.646 530.5 105.646 529.36C105.646 528.28 104.666 527.62 102.466 527.24C99.7659 526.78 98.5459 525.82 98.5459 524.24C98.5459 522.48 100.046 521.4 102.466 521.4C104.906 521.4 106.446 522.56 106.606 524.54H105.446C105.326 523.18 104.266 522.44 102.466 522.44C100.746 522.44 99.7059 523.14 99.7059 524.26C99.7059 525.28 100.566 525.84 102.866 526.28C105.486 526.78 106.786 527.82 106.786 529.38C106.786 531.12 105.206 532.26 102.706 532.26ZM110.131 532.12C109.491 532.12 109.071 531.68 109.071 531.08C109.071 530.48 109.491 530.04 110.131 530.04C110.771 530.04 111.191 530.48 111.191 531.08C111.191 531.68 110.771 532.12 110.131 532.12Z" fill="black"/>
</svg>
