<svg width="594" height="623" viewBox="0 0 594 623" fill="none" xmlns="http://www.w3.org/2000/svg">
<path fill-rule="evenodd" clip-rule="evenodd" d="M7.4099 118.548C72.9668 53.0313 168.63 0.40625 233.954 0.40625C321.412 0.40625 327.72 94.7335 326.925 188.039C301.924 248.16 242.625 290.432 173.453 290.432C81.6963 290.432 7.3125 216.049 7.3125 124.292C7.3125 122.369 7.34514 120.455 7.4099 118.548Z" fill="#F6F5FF"/>
<path fill-rule="evenodd" clip-rule="evenodd" d="M282.941 257.894C311.408 207.263 365.64 173.059 427.861 173.059C519.618 173.059 594.002 247.442 594.002 339.199C594.002 388.984 572.105 433.654 537.417 464.104C518.342 470.299 497.983 473.648 476.841 473.648C368.642 473.648 280.93 385.936 280.93 277.736C280.93 271.24 281.62 264.613 282.941 257.894Z" fill="#F6F5FF"/>
<path fill-rule="evenodd" clip-rule="evenodd" d="M144.705 622.395C224.623 622.395 289.41 557.409 289.41 477.244C289.41 468.239 289.559 458.895 289.711 449.403C290.908 374.397 292.254 290.113 221.313 290.113C141.395 290.113 0 397.079 0 477.244C0 557.409 64.7866 622.395 144.705 622.395Z" fill="#F6F5FF"/>
<path d="M114.26 116V102H115.48V114.84H122.58V116H114.26ZM128.952 116.26C125.752 116.26 123.512 114.02 123.512 110.82C123.512 107.64 125.752 105.4 128.952 105.4C132.132 105.4 134.372 107.64 134.372 110.82C134.372 114.02 132.132 116.26 128.952 116.26ZM124.672 110.82C124.672 113.38 126.412 115.14 128.952 115.14C131.472 115.14 133.212 113.38 133.212 110.82C133.212 108.28 131.472 106.52 128.952 106.52C126.412 106.52 124.672 108.28 124.672 110.82ZM145.608 116.26C142.988 116.26 141.328 114.94 141.248 112.88H142.388C142.508 114.34 143.648 115.2 145.628 115.2C147.448 115.2 148.548 114.5 148.548 113.36C148.548 112.28 147.568 111.62 145.368 111.24C142.668 110.78 141.448 109.82 141.448 108.24C141.448 106.48 142.948 105.4 145.368 105.4C147.808 105.4 149.348 106.56 149.508 108.54H148.348C148.228 107.18 147.168 106.44 145.368 106.44C143.648 106.44 142.608 107.14 142.608 108.26C142.608 109.28 143.468 109.84 145.768 110.28C148.388 110.78 149.688 111.82 149.688 113.38C149.688 115.12 148.108 116.26 145.608 116.26ZM156.951 116C154.751 116 153.571 114.76 153.571 112.42V106.72H151.311V105.66H152.631C153.411 105.66 153.631 105.46 153.711 104.7L153.811 103.12H154.731V105.66H158.311V106.72H154.731V112.38C154.731 114.08 155.431 114.88 156.991 114.88H158.451V116H156.951ZM161.56 116V105.66H162.54L162.66 107.98C163.36 106.42 164.54 105.66 166.46 105.66H167.32V106.74H166.42C164.2 106.74 162.72 108.1 162.72 111.24V116H161.56ZM173.811 116.26C170.671 116.26 168.531 114.04 168.531 110.82C168.531 107.62 170.691 105.4 173.831 105.4C177.091 105.4 179.191 107.8 179.111 111.3H169.711C169.911 113.64 171.511 115.16 173.811 115.16C175.491 115.16 176.831 114.38 177.511 113.04L178.811 113.06C178.011 115.04 176.131 116.26 173.811 116.26ZM169.711 110.28H177.971C177.691 107.94 176.091 106.5 173.831 106.5C171.531 106.5 169.911 108 169.711 110.28ZM185.843 116.26C183.223 116.26 181.563 114.94 181.483 112.88H182.623C182.743 114.34 183.883 115.2 185.863 115.2C187.683 115.2 188.783 114.5 188.783 113.36C188.783 112.28 187.803 111.62 185.603 111.24C182.903 110.78 181.683 109.82 181.683 108.24C181.683 106.48 183.183 105.4 185.603 105.4C188.043 105.4 189.583 106.56 189.743 108.54H188.583C188.463 107.18 187.403 106.44 185.603 106.44C183.883 106.44 182.843 107.14 182.843 108.26C182.843 109.28 183.703 109.84 186.003 110.28C188.623 110.78 189.923 111.82 189.923 113.38C189.923 115.12 188.343 116.26 185.843 116.26ZM196.839 116.26C194.219 116.26 192.559 114.94 192.479 112.88H193.619C193.739 114.34 194.879 115.2 196.859 115.2C198.679 115.2 199.779 114.5 199.779 113.36C199.779 112.28 198.799 111.62 196.599 111.24C193.899 110.78 192.679 109.82 192.679 108.24C192.679 106.48 194.179 105.4 196.599 105.4C199.039 105.4 200.579 106.56 200.739 108.54H199.579C199.459 107.18 198.399 106.44 196.599 106.44C194.879 106.44 193.839 107.14 193.839 108.26C193.839 109.28 194.699 109.84 196.999 110.28C199.619 110.78 200.919 111.82 200.919 113.38C200.919 115.12 199.339 116.26 196.839 116.26ZM213.108 116.26C209.968 116.26 207.828 114.04 207.828 110.82C207.828 107.62 209.988 105.4 213.128 105.4C216.388 105.4 218.488 107.8 218.408 111.3H209.008C209.208 113.64 210.808 115.16 213.108 115.16C214.788 115.16 216.128 114.38 216.808 113.04L218.108 113.06C217.308 115.04 215.428 116.26 213.108 116.26ZM209.008 110.28H217.268C216.988 107.94 215.388 106.5 213.128 106.5C210.828 106.5 209.208 108 209.008 110.28ZM221.58 116V105.66H222.56L222.68 107.98C223.38 106.42 224.56 105.66 226.48 105.66H227.34V106.74H226.44C224.22 106.74 222.74 108.1 222.74 111.24V116H221.58ZM232.652 116.16C230.252 116.16 228.752 114.98 228.752 113.08C228.752 111.24 230.152 110.08 232.272 110.08H236.832V109.34C236.832 107.62 235.572 106.48 233.652 106.48C232.092 106.48 230.872 107.28 230.452 108.52H229.272C229.772 106.6 231.432 105.4 233.632 105.4C236.212 105.4 237.992 106.98 237.992 109.28V116H237.032L236.912 114.22C236.012 115.46 234.492 116.16 232.652 116.16ZM229.912 113.06C229.912 114.32 230.972 115.12 232.692 115.12C235.092 115.12 236.852 113.62 236.852 111.54V111.1H232.312C230.892 111.1 229.912 111.88 229.912 113.06ZM252.764 116.26C250.864 116.26 249.324 115.4 248.404 114.04V120H247.244V105.66H248.224L248.344 107.72C249.244 106.28 250.824 105.4 252.764 105.4C255.904 105.4 258.064 107.68 258.064 110.82C258.064 113.96 255.904 116.26 252.764 116.26ZM248.364 110.82C248.364 113.36 250.104 115.14 252.644 115.14C255.184 115.14 256.904 113.36 256.904 110.82C256.904 108.3 255.184 106.52 252.644 106.52C250.104 106.52 248.364 108.3 248.364 110.82ZM261.287 116V105.66H262.447V116H261.287ZM260.807 102.72C260.807 102.14 261.227 101.68 261.867 101.68C262.507 101.68 262.927 102.14 262.927 102.72C262.927 103.32 262.507 103.78 261.867 103.78C261.227 103.78 260.807 103.32 260.807 102.72ZM270.64 116.26C267.98 116.26 266.34 114.36 266.34 111.38V105.66H267.5V111.28C267.5 113.64 268.76 115.14 270.8 115.14C272.94 115.14 274.42 113.46 274.42 111V105.66H275.58V116H274.62L274.5 113.98C273.7 115.48 272.26 116.26 270.64 116.26ZM269.36 100.92H270.6L271.72 103.94H270.62L269.36 100.92ZM288.296 116.16C285.896 116.16 284.396 114.98 284.396 113.08C284.396 111.24 285.796 110.08 287.916 110.08H292.476V109.34C292.476 107.62 291.216 106.48 289.296 106.48C287.736 106.48 286.516 107.28 286.096 108.52H284.916C285.416 106.6 287.076 105.4 289.276 105.4C291.856 105.4 293.636 106.98 293.636 109.28V116H292.676L292.556 114.22C291.656 115.46 290.136 116.16 288.296 116.16ZM285.556 113.06C285.556 114.32 286.616 115.12 288.336 115.12C290.736 115.12 292.496 113.62 292.496 111.54V111.1H287.956C286.536 111.1 285.556 111.88 285.556 113.06ZM297.537 116V101.2H298.697V116H297.537ZM307.01 116C304.81 116 303.63 114.76 303.63 112.42V106.72H301.37V105.66H302.69C303.47 105.66 303.69 105.46 303.77 104.7L303.87 103.12H304.79V105.66H308.37V106.72H304.79V112.38C304.79 114.08 305.49 114.88 307.05 114.88H308.51V116H307.01ZM315.651 116.26C312.451 116.26 310.211 114.02 310.211 110.82C310.211 107.64 312.451 105.4 315.651 105.4C318.831 105.4 321.071 107.64 321.071 110.82C321.071 114.02 318.831 116.26 315.651 116.26ZM311.371 110.82C311.371 113.38 313.111 115.14 315.651 115.14C318.171 115.14 319.911 113.38 319.911 110.82C319.911 108.28 318.171 106.52 315.651 106.52C313.111 106.52 311.371 108.28 311.371 110.82ZM118.26 145C116.06 145 114.88 143.76 114.88 141.42V135.72H112.62V134.66H113.94C114.72 134.66 114.94 134.46 115.02 133.7L115.12 132.12H116.04V134.66H119.62V135.72H116.04V141.38C116.04 143.08 116.74 143.88 118.3 143.88H119.76V145H118.26ZM122.869 145V134.66H123.849L123.969 136.98C124.669 135.42 125.849 134.66 127.769 134.66H128.629V135.74H127.729C125.509 135.74 124.029 137.1 124.029 140.24V145H122.869ZM133.941 145.16C131.541 145.16 130.041 143.98 130.041 142.08C130.041 140.24 131.441 139.08 133.561 139.08H138.121V138.34C138.121 136.62 136.861 135.48 134.941 135.48C133.381 135.48 132.161 136.28 131.741 137.52H130.561C131.061 135.6 132.721 134.4 134.921 134.4C137.501 134.4 139.281 135.98 139.281 138.28V145H138.321L138.201 143.22C137.301 144.46 135.781 145.16 133.941 145.16ZM131.201 142.06C131.201 143.32 132.261 144.12 133.981 144.12C136.381 144.12 138.141 142.62 138.141 140.54V140.1H133.601C132.181 140.1 131.201 140.88 131.201 142.06ZM152.604 149.26C150.064 149.26 148.184 147.92 147.784 145.82H148.964C149.304 147.26 150.704 148.16 152.604 148.16C154.984 148.16 156.504 146.76 156.504 144.54V142.86C155.584 144.12 154.104 144.88 152.344 144.88C149.324 144.88 147.164 142.68 147.164 139.64C147.164 136.6 149.324 134.4 152.344 134.4C154.164 134.4 155.664 135.2 156.584 136.52L156.684 134.66H157.664V144.58C157.664 147.36 155.624 149.26 152.604 149.26ZM148.324 139.64C148.324 142.06 150.024 143.74 152.464 143.74C154.884 143.74 156.584 142.06 156.584 139.64C156.584 137.22 154.884 135.52 152.464 135.52C150.024 135.52 148.324 137.22 148.324 139.64ZM161.775 145V130.2H162.935V145H161.775ZM167.048 145V134.66H168.208V145H167.048ZM166.568 131.72C166.568 131.14 166.988 130.68 167.628 130.68C168.268 130.68 168.688 131.14 168.688 131.72C168.688 132.32 168.268 132.78 167.628 132.78C166.988 132.78 166.568 132.32 166.568 131.72ZM180.804 145.26C178.184 145.26 176.524 143.94 176.444 141.88H177.584C177.704 143.34 178.844 144.2 180.824 144.2C182.644 144.2 183.744 143.5 183.744 142.36C183.744 141.28 182.764 140.62 180.564 140.24C177.864 139.78 176.644 138.82 176.644 137.24C176.644 135.48 178.144 134.4 180.564 134.4C183.004 134.4 184.544 135.56 184.704 137.54H183.544C183.424 136.18 182.364 135.44 180.564 135.44C178.844 135.44 177.804 136.14 177.804 137.26C177.804 138.28 178.664 138.84 180.964 139.28C183.584 139.78 184.884 140.82 184.884 142.38C184.884 144.12 183.304 145.26 180.804 145.26ZM192.147 145C189.947 145 188.767 143.76 188.767 141.42V135.72H186.507V134.66H187.827C188.607 134.66 188.827 134.46 188.907 133.7L189.007 132.12H189.927V134.66H193.507V135.72H189.927V141.38C189.927 143.08 190.627 143.88 192.187 143.88H193.647V145H192.147ZM200.699 145.26C198.039 145.26 196.399 143.36 196.399 140.38V134.66H197.559V140.28C197.559 142.64 198.819 144.14 200.859 144.14C202.999 144.14 204.479 142.46 204.479 140V134.66H205.639V145H204.679L204.559 142.98C203.759 144.48 202.319 145.26 200.699 145.26ZM214.163 145.26C211.043 145.26 208.863 142.96 208.863 139.82C208.863 136.68 211.043 134.4 214.163 134.4C216.063 134.4 217.603 135.24 218.523 136.58V130.2H219.683V145H218.723L218.583 142.96C217.683 144.38 216.103 145.26 214.163 145.26ZM210.023 139.82C210.023 142.36 211.763 144.14 214.303 144.14C216.823 144.14 218.563 142.36 218.563 139.82C218.563 137.3 216.823 135.52 214.303 135.52C211.763 135.52 210.023 137.3 210.023 139.82ZM228.186 145.26C225.046 145.26 222.906 143.04 222.906 139.82C222.906 136.62 225.066 134.4 228.206 134.4C231.466 134.4 233.566 136.8 233.486 140.3H224.086C224.286 142.64 225.886 144.16 228.186 144.16C229.866 144.16 231.206 143.38 231.886 142.04L233.186 142.06C232.386 144.04 230.506 145.26 228.186 145.26ZM224.086 139.28H232.346C232.066 136.94 230.466 135.5 228.206 135.5C225.906 135.5 224.286 137 224.086 139.28ZM236.658 145V134.66H237.638L237.738 136.66C238.558 135.18 239.998 134.4 241.658 134.4C244.358 134.4 246.018 136.3 246.018 139.28V145H244.858V139.38C244.858 137 243.578 135.52 241.518 135.52C239.338 135.52 237.818 137.18 237.818 139.64V145H236.658ZM253.787 145C251.587 145 250.407 143.76 250.407 141.42V135.72H248.147V134.66H249.467C250.247 134.66 250.467 134.46 250.547 133.7L250.647 132.12H251.567V134.66H255.147V135.72H251.567V141.38C251.567 143.08 252.267 143.88 253.827 143.88H255.287V145H253.787ZM258.396 145V134.66H259.556V145H258.396ZM257.916 131.72C257.916 131.14 258.336 130.68 258.976 130.68C259.616 130.68 260.036 131.14 260.036 131.72C260.036 132.32 259.616 132.78 258.976 132.78C258.336 132.78 257.916 132.32 257.916 131.72ZM272.952 145.26C269.832 145.26 267.652 142.96 267.652 139.82C267.652 136.68 269.832 134.4 272.952 134.4C274.852 134.4 276.392 135.24 277.312 136.58V130.2H278.472V145H277.512L277.372 142.96C276.472 144.38 274.892 145.26 272.952 145.26ZM268.812 139.82C268.812 142.36 270.552 144.14 273.092 144.14C275.612 144.14 277.352 142.36 277.352 139.82C277.352 137.3 275.612 135.52 273.092 135.52C270.552 135.52 268.812 137.3 268.812 139.82ZM286.975 145.26C283.835 145.26 281.695 143.04 281.695 139.82C281.695 136.62 283.855 134.4 286.995 134.4C290.255 134.4 292.355 136.8 292.275 140.3H282.875C283.075 142.64 284.675 144.16 286.975 144.16C288.655 144.16 289.995 143.38 290.675 142.04L291.975 142.06C291.175 144.04 289.295 145.26 286.975 145.26ZM282.875 139.28H291.135C290.855 136.94 289.255 135.5 286.995 135.5C284.695 135.5 283.075 137 282.875 139.28ZM295.447 145V130.2H296.607V145H295.447ZM119.58 174.26C117.68 174.26 116.14 173.4 115.22 172.04V178H114.06V163.66H115.04L115.16 165.72C116.06 164.28 117.64 163.4 119.58 163.4C122.72 163.4 124.88 165.68 124.88 168.82C124.88 171.96 122.72 174.26 119.58 174.26ZM115.18 168.82C115.18 171.36 116.92 173.14 119.46 173.14C122 173.14 123.72 171.36 123.72 168.82C123.72 166.3 122 164.52 119.46 164.52C116.92 164.52 115.18 166.3 115.18 168.82ZM128.103 174V163.66H129.083L129.203 165.98C129.903 164.42 131.083 163.66 133.003 163.66H133.863V164.74H132.963C130.743 164.74 129.263 166.1 129.263 169.24V174H128.103ZM136.775 174V163.66H137.935V174H136.775ZM136.295 160.72C136.295 160.14 136.715 159.68 137.355 159.68C137.995 159.68 138.415 160.14 138.415 160.72C138.415 161.32 137.995 161.78 137.355 161.78C136.715 161.78 136.295 161.32 136.295 160.72ZM142.048 174V163.66H143.028L143.128 165.34C143.848 164.08 145.108 163.4 146.708 163.4C148.508 163.4 149.888 164.3 150.488 165.88C151.188 164.3 152.608 163.4 154.428 163.4C157.028 163.4 158.708 165.18 158.708 168.06V174H157.548V168.24C157.548 165.94 156.268 164.52 154.288 164.52C152.268 164.52 150.948 165.98 150.948 168.32V174H149.788V168.24C149.788 165.94 148.528 164.52 146.548 164.52C144.528 164.52 143.208 165.98 143.208 168.32V174H142.048ZM167.135 174.26C163.935 174.26 161.695 172.02 161.695 168.82C161.695 165.64 163.935 163.4 167.135 163.4C170.315 163.4 172.555 165.64 172.555 168.82C172.555 172.02 170.315 174.26 167.135 174.26ZM162.855 168.82C162.855 171.38 164.595 173.14 167.135 173.14C169.655 173.14 171.395 171.38 171.395 168.82C171.395 166.28 169.655 164.52 167.135 164.52C164.595 164.52 162.855 166.28 162.855 168.82ZM183.902 174.16C181.502 174.16 180.002 172.98 180.002 171.08C180.002 169.24 181.402 168.08 183.522 168.08H188.082V167.34C188.082 165.62 186.822 164.48 184.902 164.48C183.342 164.48 182.122 165.28 181.702 166.52H180.522C181.022 164.6 182.682 163.4 184.882 163.4C187.462 163.4 189.242 164.98 189.242 167.28V174H188.282L188.162 172.22C187.262 173.46 185.742 174.16 183.902 174.16ZM181.162 171.06C181.162 172.32 182.222 173.12 183.942 173.12C186.342 173.12 188.102 171.62 188.102 169.54V169.1H183.562C182.142 169.1 181.162 169.88 181.162 171.06ZM193.142 174V163.66H194.122L194.222 165.66C195.042 164.18 196.482 163.4 198.142 163.4C200.842 163.4 202.502 165.3 202.502 168.28V174H201.342V168.38C201.342 166 200.062 164.52 198.002 164.52C195.822 164.52 194.302 166.18 194.302 168.64V174H193.142ZM206.404 174V163.66H207.384L207.484 165.66C208.304 164.18 209.744 163.4 211.404 163.4C214.104 163.4 215.764 165.3 215.764 168.28V174H214.604V168.38C214.604 166 213.324 164.52 211.264 164.52C209.084 164.52 207.564 166.18 207.564 168.64V174H206.404ZM224.205 174.26C221.005 174.26 218.765 172.02 218.765 168.82C218.765 165.64 221.005 163.4 224.205 163.4C227.385 163.4 229.625 165.64 229.625 168.82C229.625 172.02 227.385 174.26 224.205 174.26ZM219.925 168.82C219.925 171.38 221.665 173.14 224.205 173.14C226.725 173.14 228.465 171.38 228.465 168.82C228.465 166.28 226.725 164.52 224.205 164.52C221.665 164.52 219.925 166.28 219.925 168.82ZM117.3 203.16C114.9 203.16 113.4 201.98 113.4 200.08C113.4 198.24 114.8 197.08 116.92 197.08H121.48V196.34C121.48 194.62 120.22 193.48 118.3 193.48C116.74 193.48 115.52 194.28 115.1 195.52H113.92C114.42 193.6 116.08 192.4 118.28 192.4C120.86 192.4 122.64 193.98 122.64 196.28V203H121.68L121.56 201.22C120.66 202.46 119.14 203.16 117.3 203.16ZM114.56 200.06C114.56 201.32 115.62 202.12 117.34 202.12C119.74 202.12 121.5 200.62 121.5 198.54V198.1H116.96C115.54 198.1 114.56 198.88 114.56 200.06ZM126.54 203V188.2H127.7V203H126.54ZM131.814 203V188.2H132.974V203H131.814ZM136.707 193.86L136.667 189H137.767L137.727 193.86H136.707ZM145.562 203.26C142.902 203.26 141.262 201.36 141.262 198.38V192.66H142.422V198.28C142.422 200.64 143.682 202.14 145.722 202.14C147.862 202.14 149.342 200.46 149.342 198V192.66H150.502V203H149.542L149.422 200.98C148.622 202.48 147.182 203.26 145.562 203.26ZM154.626 203V192.66H155.606L155.706 194.66C156.526 193.18 157.966 192.4 159.626 192.4C162.326 192.4 163.986 194.3 163.986 197.28V203H162.826V197.38C162.826 195 161.546 193.52 159.486 193.52C157.306 193.52 155.786 195.18 155.786 197.64V203H154.626ZM167.888 203V192.66H169.048V203H167.888ZM167.408 189.72C167.408 189.14 167.828 188.68 168.468 188.68C169.108 188.68 169.528 189.14 169.528 189.72C169.528 190.32 169.108 190.78 168.468 190.78C167.828 190.78 167.408 190.32 167.408 189.72ZM176.122 203L171.502 192.66H172.762L174.562 196.66L176.702 201.48L178.822 196.66L180.642 192.66H181.882L177.262 203H176.122ZM188.342 203.26C185.202 203.26 183.062 201.04 183.062 197.82C183.062 194.62 185.222 192.4 188.362 192.4C191.622 192.4 193.722 194.8 193.642 198.3H184.242C184.442 200.64 186.042 202.16 188.342 202.16C190.022 202.16 191.362 201.38 192.042 200.04L193.342 200.06C192.542 202.04 190.662 203.26 188.342 203.26ZM184.242 197.28H192.502C192.222 194.94 190.622 193.5 188.362 193.5C186.062 193.5 184.442 195 184.242 197.28ZM196.814 203V192.66H197.794L197.914 194.98C198.614 193.42 199.794 192.66 201.714 192.66H202.574V193.74H201.674C199.454 193.74 197.974 195.1 197.974 198.24V203H196.814ZM208.46 203.26C205.84 203.26 204.18 201.94 204.1 199.88H205.24C205.36 201.34 206.5 202.2 208.48 202.2C210.3 202.2 211.4 201.5 211.4 200.36C211.4 199.28 210.42 198.62 208.22 198.24C205.52 197.78 204.3 196.82 204.3 195.24C204.3 193.48 205.8 192.4 208.22 192.4C210.66 192.4 212.2 193.56 212.36 195.54H211.2C211.08 194.18 210.02 193.44 208.22 193.44C206.5 193.44 205.46 194.14 205.46 195.26C205.46 196.28 206.32 196.84 208.62 197.28C211.24 197.78 212.54 198.82 212.54 200.38C212.54 202.12 210.96 203.26 208.46 203.26ZM215.896 203V192.66H217.056V203H215.896ZM215.416 189.72C215.416 189.14 215.836 188.68 216.476 188.68C217.116 188.68 217.536 189.14 217.536 189.72C217.536 190.32 217.116 190.78 216.476 190.78C215.836 190.78 215.416 190.32 215.416 189.72ZM225.369 203C223.169 203 221.989 201.76 221.989 199.42V193.72H219.729V192.66H221.049C221.829 192.66 222.049 192.46 222.129 191.7L222.229 190.12H223.149V192.66H226.729V193.72H223.149V199.38C223.149 201.08 223.849 201.88 225.409 201.88H226.869V203H225.369ZM232.866 203.16C230.466 203.16 228.966 201.98 228.966 200.08C228.966 198.24 230.366 197.08 232.486 197.08H237.046V196.34C237.046 194.62 235.786 193.48 233.866 193.48C232.306 193.48 231.086 194.28 230.666 195.52H229.486C229.986 193.6 231.646 192.4 233.846 192.4C236.426 192.4 238.206 193.98 238.206 196.28V203H237.246L237.126 201.22C236.226 202.46 234.706 203.16 232.866 203.16ZM230.126 200.06C230.126 201.32 231.186 202.12 232.906 202.12C235.306 202.12 237.066 200.62 237.066 198.54V198.1H232.526C231.106 198.1 230.126 198.88 230.126 200.06ZM232.266 187.92H233.506L234.606 190.94H233.506L232.266 187.92ZM242.467 203.12C241.827 203.12 241.407 202.68 241.407 202.08C241.407 201.48 241.827 201.04 242.467 201.04C243.107 201.04 243.527 201.48 243.527 202.08C243.527 202.68 243.107 203.12 242.467 203.12Z" fill="black"/>
<path d="M83.2233 133V90.5141H70.2929V85.9362H77.762C81.7777 85.9362 82.9824 85.0528 83.5446 81.6796L84.1068 76.7805H88.0422V133H83.2233Z" fill="black"/>
<path d="M292.707 304V301.895L306.301 289.354C309.688 286.241 311.244 283.724 311.244 280.84C311.244 276.675 308.132 273.837 303.692 273.837C299.115 273.837 295.957 276.858 295.774 281.664H293.165C293.348 275.485 297.559 271.366 303.646 271.366C309.642 271.366 313.899 275.302 313.899 280.84C313.899 284.41 312.068 287.752 308.086 291.413L297.193 301.391H314.723V304H292.707Z" fill="black"/>
<path d="M155.662 346.382C151.757 346.382 149.114 344.033 148.879 340.392H150.641C150.817 342.976 152.784 344.649 155.662 344.649C158.745 344.649 160.741 342.77 160.741 339.951C160.741 337.133 158.715 335.283 155.691 335.283H152.637V333.991L159.097 327.12H149.29V325.447H161.74V326.768L155.251 333.639H155.662C159.743 333.639 162.503 336.193 162.503 340.01C162.503 343.798 159.743 346.382 155.662 346.382Z" fill="black"/>
<path d="M354.26 265V251H355.48V265H354.26ZM365.373 253.46C365.373 251.1 366.533 249.94 368.833 249.94H370.453V251.04H368.933C367.253 251.04 366.533 251.78 366.533 253.54V254.66H370.353V255.72H366.533V265H365.373V255.72H363.013V254.66H365.373V253.46ZM375.445 265.16C373.045 265.16 371.545 263.98 371.545 262.08C371.545 260.24 372.945 259.08 375.065 259.08H379.625V258.34C379.625 256.62 378.365 255.48 376.445 255.48C374.885 255.48 373.665 256.28 373.245 257.52H372.065C372.565 255.6 374.225 254.4 376.425 254.4C379.005 254.4 380.785 255.98 380.785 258.28V265H379.825L379.705 263.22C378.805 264.46 377.285 265.16 375.445 265.16ZM372.705 262.06C372.705 263.32 373.765 264.12 375.485 264.12C377.885 264.12 379.645 262.62 379.645 260.54V260.1H375.105C373.685 260.1 372.705 260.88 372.705 262.06ZM388.553 265C386.353 265 385.173 263.76 385.173 261.42V255.72H382.913V254.66H384.233C385.013 254.66 385.233 254.46 385.313 253.7L385.413 252.12H386.333V254.66H389.913V255.72H386.333V261.38C386.333 263.08 387.033 263.88 388.593 263.88H390.053V265H388.553ZM397.362 265C395.162 265 393.982 263.76 393.982 261.42V255.72H391.722V254.66H393.042C393.822 254.66 394.042 254.46 394.122 253.7L394.222 252.12H395.142V254.66H398.722V255.72H395.142V261.38C395.142 263.08 395.842 263.88 397.402 263.88H398.862V265H397.362ZM406.002 265.26C402.802 265.26 400.562 263.02 400.562 259.82C400.562 256.64 402.802 254.4 406.002 254.4C409.182 254.4 411.422 256.64 411.422 259.82C411.422 263.02 409.182 265.26 406.002 265.26ZM401.722 259.82C401.722 262.38 403.462 264.14 406.002 264.14C408.522 264.14 410.262 262.38 410.262 259.82C410.262 257.28 408.522 255.52 406.002 255.52C403.462 255.52 401.722 257.28 401.722 259.82ZM414.646 265V254.66H415.626L415.746 256.98C416.446 255.42 417.626 254.66 419.546 254.66H420.406V255.74H419.506C417.286 255.74 415.806 257.1 415.806 260.24V265H414.646ZM423.318 265V254.66H424.478V265H423.318ZM422.838 251.72C422.838 251.14 423.258 250.68 423.898 250.68C424.538 250.68 424.958 251.14 424.958 251.72C424.958 252.32 424.538 252.78 423.898 252.78C423.258 252.78 422.838 252.32 422.838 251.72ZM439.463 265.26C437.563 265.26 436.023 264.4 435.103 263.04V269H433.943V254.66H434.923L435.043 256.72C435.943 255.28 437.523 254.4 439.463 254.4C442.603 254.4 444.763 256.68 444.763 259.82C444.763 262.96 442.603 265.26 439.463 265.26ZM435.063 259.82C435.063 262.36 436.803 264.14 439.343 264.14C441.883 264.14 443.603 262.36 443.603 259.82C443.603 257.3 441.883 255.52 439.343 255.52C436.803 255.52 435.063 257.3 435.063 259.82ZM447.986 265V254.66H448.966L449.086 256.98C449.786 255.42 450.966 254.66 452.886 254.66H453.746V255.74H452.846C450.626 255.74 449.146 257.1 449.146 260.24V265H447.986ZM460.237 265.26C457.097 265.26 454.957 263.04 454.957 259.82C454.957 256.62 457.117 254.4 460.257 254.4C463.517 254.4 465.617 256.8 465.537 260.3H456.137C456.337 262.64 457.937 264.16 460.237 264.16C461.917 264.16 463.257 263.38 463.937 262.04L465.237 262.06C464.437 264.04 462.557 265.26 460.237 265.26ZM456.137 259.28H464.397C464.117 256.94 462.517 255.5 460.257 255.5C457.957 255.5 456.337 257 456.137 259.28ZM471.278 265L466.658 254.66H467.918L469.718 258.66L471.858 263.48L473.978 258.66L475.798 254.66H477.038L472.418 265H471.278ZM483.499 265.26C480.359 265.26 478.219 263.04 478.219 259.82C478.219 256.62 480.379 254.4 483.519 254.4C486.779 254.4 488.879 256.8 488.799 260.3H479.399C479.599 262.64 481.199 264.16 483.499 264.16C485.179 264.16 486.519 263.38 487.199 262.04L488.499 262.06C487.699 264.04 485.819 265.26 483.499 265.26ZM479.399 259.28H487.659C487.379 256.94 485.779 255.5 483.519 255.5C481.219 255.5 479.599 257 479.399 259.28ZM491.97 265V254.66H492.95L493.05 256.66C493.87 255.18 495.31 254.4 496.97 254.4C499.67 254.4 501.33 256.3 501.33 259.28V265H500.17V259.38C500.17 257 498.89 255.52 496.83 255.52C494.65 255.52 493.13 257.18 493.13 259.64V265H491.97ZM509.1 265C506.9 265 505.72 263.76 505.72 261.42V255.72H503.46V254.66H504.78C505.56 254.66 505.78 254.46 505.86 253.7L505.96 252.12H506.88V254.66H510.46V255.72H506.88V261.38C506.88 263.08 507.58 263.88 509.14 263.88H510.6V265H509.1ZM513.708 265V254.66H514.868V265H513.708ZM513.228 251.72C513.228 251.14 513.648 250.68 514.288 250.68C514.928 250.68 515.348 251.14 515.348 251.72C515.348 252.32 514.928 252.78 514.288 252.78C513.648 252.78 513.228 252.32 513.228 251.72ZM521.942 265L517.322 254.66H518.582L520.382 258.66L522.522 263.48L524.642 258.66L526.462 254.66H527.702L523.082 265H521.942ZM530.173 265V254.66H531.333V265H530.173ZM529.693 251.72C529.693 251.14 530.113 250.68 530.753 250.68C531.393 250.68 531.813 251.14 531.813 251.72C531.813 252.32 531.393 252.78 530.753 252.78C530.113 252.78 529.693 252.32 529.693 251.72ZM354.06 294V283.66H355.22V294H354.06ZM353.58 280.72C353.58 280.14 354 279.68 354.64 279.68C355.28 279.68 355.7 280.14 355.7 280.72C355.7 281.32 355.28 281.78 354.64 281.78C354 281.78 353.58 281.32 353.58 280.72ZM359.333 294V283.66H360.313L360.413 285.66C361.233 284.18 362.673 283.4 364.333 283.4C367.033 283.4 368.693 285.3 368.693 288.28V294H367.533V288.38C367.533 286 366.253 284.52 364.193 284.52C362.013 284.52 360.493 286.18 360.493 288.64V294H359.333ZM376.975 294.26C373.875 294.26 371.695 292 371.695 288.82C371.695 285.64 373.875 283.4 376.975 283.4C379.435 283.4 381.455 284.86 382.055 287.1H380.875C380.195 285.46 378.755 284.52 376.975 284.52C374.535 284.52 372.855 286.28 372.855 288.82C372.855 291.38 374.535 293.14 376.975 293.14C378.875 293.14 380.355 292.08 380.935 290.38H382.155C381.455 292.8 379.515 294.26 376.975 294.26ZM385.31 294V279.2H386.47V294H385.31ZM394.663 294.26C392.003 294.26 390.363 292.36 390.363 289.38V283.66H391.523V289.28C391.523 291.64 392.783 293.14 394.823 293.14C396.963 293.14 398.443 291.46 398.443 289V283.66H399.603V294H398.643L398.523 291.98C397.723 293.48 396.283 294.26 394.663 294.26ZM408.128 294.26C405.008 294.26 402.828 291.96 402.828 288.82C402.828 285.68 405.008 283.4 408.128 283.4C410.028 283.4 411.568 284.24 412.488 285.58V279.2H413.648V294H412.688L412.548 291.96C411.648 293.38 410.068 294.26 408.128 294.26ZM403.988 288.82C403.988 291.36 405.728 293.14 408.268 293.14C410.788 293.14 412.528 291.36 412.528 288.82C412.528 286.3 410.788 284.52 408.268 284.52C405.728 284.52 403.988 286.3 403.988 288.82ZM422.151 294.26C419.011 294.26 416.871 292.04 416.871 288.82C416.871 285.62 419.031 283.4 422.171 283.4C425.431 283.4 427.531 285.8 427.451 289.3H418.051C418.251 291.64 419.851 293.16 422.151 293.16C423.831 293.16 425.171 292.38 425.851 291.04L427.151 291.06C426.351 293.04 424.471 294.26 422.151 294.26ZM418.051 288.28H426.311C426.031 285.94 424.431 284.5 422.171 284.5C419.871 284.5 418.251 286 418.051 288.28ZM433.192 294L428.572 283.66H429.832L431.632 287.66L433.772 292.48L435.892 287.66L437.712 283.66H438.952L434.332 294H433.192ZM444.116 294.16C441.716 294.16 440.216 292.98 440.216 291.08C440.216 289.24 441.616 288.08 443.736 288.08H448.296V287.34C448.296 285.62 447.036 284.48 445.116 284.48C443.556 284.48 442.336 285.28 441.916 286.52H440.736C441.236 284.6 442.896 283.4 445.096 283.4C447.676 283.4 449.456 284.98 449.456 287.28V294H448.496L448.376 292.22C447.476 293.46 445.956 294.16 444.116 294.16ZM441.376 291.06C441.376 292.32 442.436 293.12 444.156 293.12C446.556 293.12 448.316 291.62 448.316 289.54V289.1H443.776C442.356 289.1 441.376 289.88 441.376 291.06ZM453.357 294V283.66H454.337L454.437 285.66C455.257 284.18 456.697 283.4 458.357 283.4C461.057 283.4 462.717 285.3 462.717 288.28V294H461.557V288.38C461.557 286 460.277 284.52 458.217 284.52C456.037 284.52 454.517 286.18 454.517 288.64V294H453.357ZM471.159 294.26C467.959 294.26 465.719 292.02 465.719 288.82C465.719 285.64 467.959 283.4 471.159 283.4C474.339 283.4 476.579 285.64 476.579 288.82C476.579 292.02 474.339 294.26 471.159 294.26ZM466.879 288.82C466.879 291.38 468.619 293.14 471.159 293.14C473.679 293.14 475.419 291.38 475.419 288.82C475.419 286.28 473.679 284.52 471.159 284.52C468.619 284.52 466.879 286.28 466.879 288.82ZM488.667 294.26C486.007 294.26 484.367 292.36 484.367 289.38V283.66H485.527V289.28C485.527 291.64 486.787 293.14 488.827 293.14C490.967 293.14 492.447 291.46 492.447 289V283.66H493.607V294H492.647L492.527 291.98C491.727 293.48 490.287 294.26 488.667 294.26ZM497.732 294V283.66H498.712L498.812 285.66C499.632 284.18 501.072 283.4 502.732 283.4C505.432 283.4 507.092 285.3 507.092 288.28V294H505.932V288.38C505.932 286 504.652 284.52 502.592 284.52C500.412 284.52 498.892 286.18 498.892 288.64V294H497.732ZM514.234 294.16C511.834 294.16 510.334 292.98 510.334 291.08C510.334 289.24 511.734 288.08 513.854 288.08H518.414V287.34C518.414 285.62 517.154 284.48 515.234 284.48C513.674 284.48 512.454 285.28 512.034 286.52H510.854C511.354 284.6 513.014 283.4 515.214 283.4C517.794 283.4 519.574 284.98 519.574 287.28V294H518.614L518.494 292.22C517.594 293.46 516.074 294.16 514.234 294.16ZM511.494 291.06C511.494 292.32 512.554 293.12 514.274 293.12C516.674 293.12 518.434 291.62 518.434 289.54V289.1H513.894C512.474 289.1 511.494 289.88 511.494 291.06ZM359.58 323.26C357.68 323.26 356.14 322.4 355.22 321.04V327H354.06V312.66H355.04L355.16 314.72C356.06 313.28 357.64 312.4 359.58 312.4C362.72 312.4 364.88 314.68 364.88 317.82C364.88 320.96 362.72 323.26 359.58 323.26ZM355.18 317.82C355.18 320.36 356.92 322.14 359.46 322.14C362 322.14 363.72 320.36 363.72 317.82C363.72 315.3 362 313.52 359.46 313.52C356.92 313.52 355.18 315.3 355.18 317.82ZM368.103 323V312.66H369.263V323H368.103ZM367.623 309.72C367.623 309.14 368.043 308.68 368.683 308.68C369.323 308.68 369.743 309.14 369.743 309.72C369.743 310.32 369.323 310.78 368.683 310.78C368.043 310.78 367.623 310.32 367.623 309.72ZM376.616 323.16C374.216 323.16 372.716 321.98 372.716 320.08C372.716 318.24 374.116 317.08 376.236 317.08H380.796V316.34C380.796 314.62 379.536 313.48 377.616 313.48C376.056 313.48 374.836 314.28 374.416 315.52H373.236C373.736 313.6 375.396 312.4 377.596 312.4C380.176 312.4 381.956 313.98 381.956 316.28V323H380.996L380.876 321.22C379.976 322.46 378.456 323.16 376.616 323.16ZM373.876 320.06C373.876 321.32 374.936 322.12 376.656 322.12C379.056 322.12 380.816 320.62 380.816 318.54V318.1H376.276C374.856 318.1 373.876 318.88 373.876 320.06ZM385.857 323V312.66H386.837L386.937 314.66C387.757 313.18 389.197 312.4 390.857 312.4C393.557 312.4 395.217 314.3 395.217 317.28V323H394.057V317.38C394.057 315 392.777 313.52 390.717 313.52C388.537 313.52 387.017 315.18 387.017 317.64V323H385.857ZM399.119 323V312.66H400.279V323H399.119ZM398.639 309.72C398.639 309.14 399.059 308.68 399.699 308.68C400.339 308.68 400.759 309.14 400.759 309.72C400.759 310.32 400.339 310.78 399.699 310.78C399.059 310.78 398.639 310.32 398.639 309.72ZM413.072 323V313.72H406.552V323H405.392V313.72H403.032V312.66H405.392V311.46C405.392 309.12 406.572 307.94 408.912 307.94H410.412V309.04H409.012C407.292 309.04 406.552 309.78 406.552 311.54V312.66H414.232V323H413.072ZM412.572 309.72C412.572 309.14 413.012 308.68 413.652 308.68C414.272 308.68 414.712 309.14 414.712 309.72C414.712 310.32 414.272 310.78 413.652 310.78C413.012 310.78 412.572 310.32 412.572 309.72ZM422.737 323.26C419.637 323.26 417.457 321 417.457 317.82C417.457 314.64 419.637 312.4 422.737 312.4C425.197 312.4 427.217 313.86 427.817 316.1H426.637C425.957 314.46 424.517 313.52 422.737 313.52C420.297 313.52 418.617 315.28 418.617 317.82C418.617 320.38 420.297 322.14 422.737 322.14C424.637 322.14 426.117 321.08 426.697 319.38H427.917C427.217 321.8 425.277 323.26 422.737 323.26ZM434.175 323.16C431.775 323.16 430.275 321.98 430.275 320.08C430.275 318.24 431.675 317.08 433.795 317.08H438.355V316.34C438.355 314.62 437.095 313.48 435.175 313.48C433.615 313.48 432.395 314.28 431.975 315.52H430.795C431.295 313.6 432.955 312.4 435.155 312.4C437.735 312.4 439.515 313.98 439.515 316.28V323H438.555L438.435 321.22C437.535 322.46 436.015 323.16 434.175 323.16ZM431.435 320.06C431.435 321.32 432.495 322.12 434.215 322.12C436.615 322.12 438.375 320.62 438.375 318.54V318.1H433.835C432.415 318.1 431.435 318.88 431.435 320.06ZM442.415 323V322.1L449.135 313.72H442.655V312.66H450.695V313.54L444.015 321.92H450.835V323H442.415ZM453.904 323V312.66H455.064V323H453.904ZM453.424 309.72C453.424 309.14 453.844 308.68 454.484 308.68C455.124 308.68 455.544 309.14 455.544 309.72C455.544 310.32 455.124 310.78 454.484 310.78C453.844 310.78 453.424 310.32 453.424 309.72ZM463.717 323.26C460.517 323.26 458.277 321.02 458.277 317.82C458.277 314.64 460.517 312.4 463.717 312.4C466.897 312.4 469.137 314.64 469.137 317.82C469.137 321.02 466.897 323.26 463.717 323.26ZM459.437 317.82C459.437 320.38 461.177 322.14 463.717 322.14C466.237 322.14 467.977 320.38 467.977 317.82C467.977 315.28 466.237 313.52 463.717 313.52C461.177 313.52 459.437 315.28 459.437 317.82ZM472.361 323V312.66H473.341L473.441 314.66C474.261 313.18 475.701 312.4 477.361 312.4C480.061 312.4 481.721 314.3 481.721 317.28V323H480.561V317.38C480.561 315 479.281 313.52 477.221 313.52C475.041 313.52 473.521 315.18 473.521 317.64V323H472.361ZM490.003 323.26C486.863 323.26 484.723 321.04 484.723 317.82C484.723 314.62 486.883 312.4 490.023 312.4C493.283 312.4 495.383 314.8 495.303 318.3H485.903C486.103 320.64 487.703 322.16 490.003 322.16C491.683 322.16 493.023 321.38 493.703 320.04L495.003 320.06C494.203 322.04 492.323 323.26 490.003 323.26ZM485.903 317.28H494.163C493.883 314.94 492.283 313.5 490.023 313.5C487.723 313.5 486.103 315 485.903 317.28ZM507.288 323.26C504.168 323.26 501.988 320.96 501.988 317.82C501.988 314.68 504.168 312.4 507.288 312.4C509.188 312.4 510.728 313.24 511.648 314.58V308.2H512.808V323H511.848L511.708 320.96C510.808 322.38 509.228 323.26 507.288 323.26ZM503.148 317.82C503.148 320.36 504.888 322.14 507.428 322.14C509.948 322.14 511.688 320.36 511.688 317.82C511.688 315.3 509.948 313.52 507.428 313.52C504.888 313.52 503.148 315.3 503.148 317.82ZM521.311 323.26C518.171 323.26 516.031 321.04 516.031 317.82C516.031 314.62 518.191 312.4 521.331 312.4C524.591 312.4 526.691 314.8 526.611 318.3H517.211C517.411 320.64 519.011 322.16 521.311 322.16C522.991 322.16 524.331 321.38 525.011 320.04L526.311 320.06C525.511 322.04 523.631 323.26 521.311 323.26ZM517.211 317.28H525.471C525.191 314.94 523.591 313.5 521.331 313.5C519.031 313.5 517.411 315 517.211 317.28ZM529.783 323V308.2H530.943V323H529.783ZM358.26 352C356.06 352 354.88 350.76 354.88 348.42V342.72H352.62V341.66H353.94C354.72 341.66 354.94 341.46 355.02 340.7L355.12 339.12H356.04V341.66H359.62V342.72H356.04V348.38C356.04 350.08 356.74 350.88 358.3 350.88H359.76V352H358.26ZM366.741 352.26C363.601 352.26 361.461 350.04 361.461 346.82C361.461 343.62 363.621 341.4 366.761 341.4C370.021 341.4 372.121 343.8 372.041 347.3H362.641C362.841 349.64 364.441 351.16 366.741 351.16C368.421 351.16 369.761 350.38 370.441 349.04L371.741 349.06C370.941 351.04 369.061 352.26 366.741 352.26ZM362.641 346.28H370.901C370.621 343.94 369.021 342.5 366.761 342.5C364.461 342.5 362.841 344 362.641 346.28ZM375.212 352V341.66H376.192L376.292 343.34C377.012 342.08 378.272 341.4 379.872 341.4C381.672 341.4 383.052 342.3 383.652 343.88C384.352 342.3 385.772 341.4 387.592 341.4C390.192 341.4 391.872 343.18 391.872 346.06V352H390.712V346.24C390.712 343.94 389.432 342.52 387.452 342.52C385.432 342.52 384.112 343.98 384.112 346.32V352H382.952V346.24C382.952 343.94 381.692 342.52 379.712 342.52C377.692 342.52 376.372 343.98 376.372 346.32V352H375.212ZM401.279 352.26C399.379 352.26 397.839 351.4 396.919 350.04V356H395.759V341.66H396.739L396.859 343.72C397.759 342.28 399.339 341.4 401.279 341.4C404.419 341.4 406.579 343.68 406.579 346.82C406.579 349.96 404.419 352.26 401.279 352.26ZM396.879 346.82C396.879 349.36 398.619 351.14 401.159 351.14C403.699 351.14 405.419 349.36 405.419 346.82C405.419 344.3 403.699 342.52 401.159 342.52C398.619 342.52 396.879 344.3 396.879 346.82ZM414.342 352.26C411.142 352.26 408.902 350.02 408.902 346.82C408.902 343.64 411.142 341.4 414.342 341.4C417.522 341.4 419.762 343.64 419.762 346.82C419.762 350.02 417.522 352.26 414.342 352.26ZM410.062 346.82C410.062 349.38 411.802 351.14 414.342 351.14C416.862 351.14 418.602 349.38 418.602 346.82C418.602 344.28 416.862 342.52 414.342 342.52C411.802 342.52 410.062 344.28 410.062 346.82ZM431.78 352.26C428.64 352.26 426.5 350.04 426.5 346.82C426.5 343.62 428.66 341.4 431.8 341.4C435.06 341.4 437.16 343.8 437.08 347.3H427.68C427.88 349.64 429.48 351.16 431.78 351.16C433.46 351.16 434.8 350.38 435.48 349.04L436.78 349.06C435.98 351.04 434.1 352.26 431.78 352.26ZM427.68 346.28H435.94C435.66 343.94 434.06 342.5 431.8 342.5C429.5 342.5 427.88 344 427.68 346.28ZM456.318 352V342.72H449.798V352H448.638V342.72H442.138V352H440.978V342.72H438.618V341.66H440.978V340.46C440.978 338.12 442.158 336.94 444.498 336.94H446.058V338.04H444.598C442.878 338.04 442.138 338.78 442.138 340.54V341.66H448.638V340.46C448.638 338.12 449.818 336.94 452.158 336.94H453.658V338.04H452.258C450.538 338.04 449.798 338.78 449.798 340.54V341.66H457.478V352H456.318ZM455.838 338.72C455.838 338.14 456.258 337.68 456.898 337.68C457.538 337.68 457.958 338.14 457.958 338.72C457.958 339.32 457.538 339.78 456.898 339.78C456.258 339.78 455.838 339.32 455.838 338.72ZM465.979 352.26C462.879 352.26 460.699 350 460.699 346.82C460.699 343.64 462.879 341.4 465.979 341.4C468.439 341.4 470.459 342.86 471.059 345.1H469.879C469.199 343.46 467.759 342.52 465.979 342.52C463.539 342.52 461.859 344.28 461.859 346.82C461.859 349.38 463.539 351.14 465.979 351.14C467.879 351.14 469.359 350.08 469.939 348.38H471.159C470.459 350.8 468.519 352.26 465.979 352.26ZM477.417 352.16C475.017 352.16 473.517 350.98 473.517 349.08C473.517 347.24 474.917 346.08 477.037 346.08H481.597V345.34C481.597 343.62 480.337 342.48 478.417 342.48C476.857 342.48 475.637 343.28 475.217 344.52H474.037C474.537 342.6 476.197 341.4 478.397 341.4C480.977 341.4 482.757 342.98 482.757 345.28V352H481.797L481.677 350.22C480.777 351.46 479.257 352.16 477.417 352.16ZM474.677 349.06C474.677 350.32 475.737 351.12 477.457 351.12C479.857 351.12 481.617 349.62 481.617 347.54V347.1H477.077C475.657 347.1 474.677 347.88 474.677 349.06ZM491.038 352.26C487.938 352.26 485.758 350 485.758 346.82C485.758 343.64 487.938 341.4 491.038 341.4C493.498 341.4 495.518 342.86 496.118 345.1H494.938C494.258 343.46 492.818 342.52 491.038 342.52C488.598 342.52 486.918 344.28 486.918 346.82C486.918 349.38 488.598 351.14 491.038 351.14C492.938 351.14 494.418 350.08 494.998 348.38H496.218C495.518 350.8 493.578 352.26 491.038 352.26ZM503.753 352.26C500.613 352.26 498.473 350.04 498.473 346.82C498.473 343.62 500.633 341.4 503.773 341.4C507.033 341.4 509.133 343.8 509.053 347.3H499.653C499.853 349.64 501.453 351.16 503.753 351.16C505.433 351.16 506.773 350.38 507.453 349.04L508.753 349.06C507.953 351.04 506.073 352.26 503.753 352.26ZM499.653 346.28H507.913C507.633 343.94 506.033 342.5 503.773 342.5C501.473 342.5 499.853 344 499.653 346.28ZM511.673 353.92C512.353 353.6 512.753 352.84 512.693 351.98C512.513 352.06 512.333 352.1 512.153 352.1C511.573 352.1 511.133 351.66 511.133 351.08C511.133 350.5 511.573 350.04 512.233 350.04C513.053 350.04 513.613 350.72 513.613 351.78C513.613 353.22 512.773 354.46 511.673 354.7V353.92ZM357.3 381.16C354.9 381.16 353.4 379.98 353.4 378.08C353.4 376.24 354.8 375.08 356.92 375.08H361.48V374.34C361.48 372.62 360.22 371.48 358.3 371.48C356.74 371.48 355.52 372.28 355.1 373.52H353.92C354.42 371.6 356.08 370.4 358.28 370.4C360.86 370.4 362.64 371.98 362.64 374.28V381H361.68L361.56 379.22C360.66 380.46 359.14 381.16 357.3 381.16ZM354.56 378.06C354.56 379.32 355.62 380.12 357.34 380.12C359.74 380.12 361.5 378.62 361.5 376.54V376.1H356.96C355.54 376.1 354.56 376.88 354.56 378.06ZM370.408 381C368.208 381 367.028 379.76 367.028 377.42V371.72H364.768V370.66H366.088C366.868 370.66 367.088 370.46 367.168 369.7L367.268 368.12H368.188V370.66H371.768V371.72H368.188V377.38C368.188 379.08 368.888 379.88 370.448 379.88H371.908V381H370.408ZM379.217 381C377.017 381 375.837 379.76 375.837 377.42V371.72H373.577V370.66H374.897C375.677 370.66 375.897 370.46 375.977 369.7L376.077 368.12H376.997V370.66H380.577V371.72H376.997V377.38C376.997 379.08 377.697 379.88 379.257 379.88H380.717V381H379.217ZM383.826 381V370.66H384.986V381H383.826ZM383.346 367.72C383.346 367.14 383.766 366.68 384.406 366.68C385.046 366.68 385.466 367.14 385.466 367.72C385.466 368.32 385.046 368.78 384.406 368.78C383.766 368.78 383.346 368.32 383.346 367.72ZM392.059 381L387.439 370.66H388.699L390.499 374.66L392.639 379.48L394.759 374.66L396.579 370.66H397.819L393.199 381H392.059ZM400.29 381V370.66H401.45V381H400.29ZM399.81 367.72C399.81 367.14 400.23 366.68 400.87 366.68C401.51 366.68 401.93 367.14 401.93 367.72C401.93 368.32 401.51 368.78 400.87 368.78C400.23 368.78 399.81 368.32 399.81 367.72ZM409.764 381C407.564 381 406.384 379.76 406.384 377.42V371.72H404.124V370.66H405.444C406.224 370.66 406.444 370.46 406.524 369.7L406.624 368.12H407.544V370.66H411.124V371.72H407.544V377.38C407.544 379.08 408.244 379.88 409.804 379.88H411.264V381H409.764ZM417.261 381.16C414.861 381.16 413.361 379.98 413.361 378.08C413.361 376.24 414.761 375.08 416.881 375.08H421.441V374.34C421.441 372.62 420.181 371.48 418.261 371.48C416.701 371.48 415.481 372.28 415.061 373.52H413.881C414.381 371.6 416.041 370.4 418.241 370.4C420.821 370.4 422.601 371.98 422.601 374.28V381H421.641L421.521 379.22C420.621 380.46 419.101 381.16 417.261 381.16ZM414.521 378.06C414.521 379.32 415.581 380.12 417.301 380.12C419.701 380.12 421.461 378.62 421.461 376.54V376.1H416.921C415.501 376.1 414.521 376.88 414.521 378.06ZM416.661 365.92H417.901L419.001 368.94H417.901L416.661 365.92ZM439.752 381V371.72H433.232V381H432.072V371.72H429.712V370.66H432.072V369.46C432.072 367.12 433.252 365.94 435.592 365.94H437.092V367.04H435.692C433.972 367.04 433.232 367.78 433.232 369.54V370.66H440.912V381H439.752ZM439.252 367.72C439.252 367.14 439.692 366.68 440.332 366.68C440.952 366.68 441.392 367.14 441.392 367.72C441.392 368.32 440.952 368.78 440.332 368.78C439.692 368.78 439.252 368.32 439.252 367.72ZM448.597 381.26C445.977 381.26 444.317 379.94 444.237 377.88H445.377C445.497 379.34 446.637 380.2 448.617 380.2C450.437 380.2 451.537 379.5 451.537 378.36C451.537 377.28 450.557 376.62 448.357 376.24C445.657 375.78 444.437 374.82 444.437 373.24C444.437 371.48 445.937 370.4 448.357 370.4C450.797 370.4 452.337 371.56 452.497 373.54H451.337C451.217 372.18 450.157 371.44 448.357 371.44C446.637 371.44 445.597 372.14 445.597 373.26C445.597 374.28 446.457 374.84 448.757 375.28C451.377 375.78 452.677 376.82 452.677 378.38C452.677 380.12 451.097 381.26 448.597 381.26ZM456.033 381V370.66H457.193V381H456.033ZM455.553 367.72C455.553 367.14 455.973 366.68 456.613 366.68C457.253 366.68 457.673 367.14 457.673 367.72C457.673 368.32 457.253 368.78 456.613 368.78C455.973 368.78 455.553 368.32 455.553 367.72ZM465.686 381.26C462.586 381.26 460.406 379 460.406 375.82C460.406 372.64 462.586 370.4 465.686 370.4C468.146 370.4 470.166 371.86 470.766 374.1H469.586C468.906 372.46 467.466 371.52 465.686 371.52C463.246 371.52 461.566 373.28 461.566 375.82C461.566 378.38 463.246 380.14 465.686 380.14C467.586 380.14 469.066 379.08 469.646 377.38H470.866C470.166 379.8 468.226 381.26 465.686 381.26ZM477.124 381.16C474.724 381.16 473.224 379.98 473.224 378.08C473.224 376.24 474.624 375.08 476.744 375.08H481.304V374.34C481.304 372.62 480.044 371.48 478.124 371.48C476.564 371.48 475.344 372.28 474.924 373.52H473.744C474.244 371.6 475.904 370.4 478.104 370.4C480.684 370.4 482.464 371.98 482.464 374.28V381H481.504L481.384 379.22C480.484 380.46 478.964 381.16 477.124 381.16ZM474.384 378.06C474.384 379.32 475.444 380.12 477.164 380.12C479.564 380.12 481.324 378.62 481.324 376.54V376.1H476.784C475.364 376.1 474.384 376.88 474.384 378.06ZM495.628 381.26C492.488 381.26 490.348 379.04 490.348 375.82C490.348 372.62 492.508 370.4 495.648 370.4C498.908 370.4 501.008 372.8 500.928 376.3H491.528C491.728 378.64 493.328 380.16 495.628 380.16C497.308 380.16 498.648 379.38 499.328 378.04L500.628 378.06C499.828 380.04 497.948 381.26 495.628 381.26ZM491.528 375.28H499.788C499.508 372.94 497.908 371.5 495.648 371.5C493.348 371.5 491.728 373 491.528 375.28ZM357.3 410.16C354.9 410.16 353.4 408.98 353.4 407.08C353.4 405.24 354.8 404.08 356.92 404.08H361.48V403.34C361.48 401.62 360.22 400.48 358.3 400.48C356.74 400.48 355.52 401.28 355.1 402.52H353.92C354.42 400.6 356.08 399.4 358.28 399.4C360.86 399.4 362.64 400.98 362.64 403.28V410H361.68L361.56 408.22C360.66 409.46 359.14 410.16 357.3 410.16ZM354.56 407.06C354.56 408.32 355.62 409.12 357.34 409.12C359.74 409.12 361.5 407.62 361.5 405.54V405.1H356.96C355.54 405.1 354.56 405.88 354.56 407.06ZM370.408 410C368.208 410 367.028 408.76 367.028 406.42V400.72H364.768V399.66H366.088C366.868 399.66 367.088 399.46 367.168 398.7L367.268 397.12H368.188V399.66H371.768V400.72H368.188V406.38C368.188 408.08 368.888 408.88 370.448 408.88H371.908V410H370.408ZM379.217 410C377.017 410 375.837 408.76 375.837 406.42V400.72H373.577V399.66H374.897C375.677 399.66 375.897 399.46 375.977 398.7L376.077 397.12H376.997V399.66H380.577V400.72H376.997V406.38C376.997 408.08 377.697 408.88 379.257 408.88H380.717V410H379.217ZM383.826 410V399.66H384.986V410H383.826ZM383.346 396.72C383.346 396.14 383.766 395.68 384.406 395.68C385.046 395.68 385.466 396.14 385.466 396.72C385.466 397.32 385.046 397.78 384.406 397.78C383.766 397.78 383.346 397.32 383.346 396.72ZM392.059 410L387.439 399.66H388.699L390.499 403.66L392.639 408.48L394.759 403.66L396.579 399.66H397.819L393.199 410H392.059ZM400.29 410V399.66H401.45V410H400.29ZM399.81 396.72C399.81 396.14 400.23 395.68 400.87 395.68C401.51 395.68 401.93 396.14 401.93 396.72C401.93 397.32 401.51 397.78 400.87 397.78C400.23 397.78 399.81 397.32 399.81 396.72ZM409.764 410C407.564 410 406.384 408.76 406.384 406.42V400.72H404.124V399.66H405.444C406.224 399.66 406.444 399.46 406.524 398.7L406.624 397.12H407.544V399.66H411.124V400.72H407.544V406.38C407.544 408.08 408.244 408.88 409.804 408.88H411.264V410H409.764ZM417.261 410.16C414.861 410.16 413.361 408.98 413.361 407.08C413.361 405.24 414.761 404.08 416.881 404.08H421.441V403.34C421.441 401.62 420.181 400.48 418.261 400.48C416.701 400.48 415.481 401.28 415.061 402.52H413.881C414.381 400.6 416.041 399.4 418.241 399.4C420.821 399.4 422.601 400.98 422.601 403.28V410H421.641L421.521 408.22C420.621 409.46 419.101 410.16 417.261 410.16ZM414.521 407.06C414.521 408.32 415.581 409.12 417.301 409.12C419.701 409.12 421.461 407.62 421.461 405.54V405.1H416.921C415.501 405.1 414.521 405.88 414.521 407.06ZM416.661 394.92H417.901L419.001 397.94H417.901L416.661 394.92ZM431.853 410V399.66H432.833L432.953 401.98C433.653 400.42 434.833 399.66 436.753 399.66H437.613V400.74H436.713C434.493 400.74 433.013 402.1 433.013 405.24V410H431.853ZM440.525 410V399.66H441.685V410H440.525ZM440.045 396.72C440.045 396.14 440.465 395.68 441.105 395.68C441.745 395.68 442.165 396.14 442.165 396.72C442.165 397.32 441.745 397.78 441.105 397.78C440.465 397.78 440.045 397.32 440.045 396.72ZM450.178 410.26C447.078 410.26 444.898 408 444.898 404.82C444.898 401.64 447.078 399.4 450.178 399.4C452.638 399.4 454.658 400.86 455.258 403.1H454.078C453.398 401.46 451.958 400.52 450.178 400.52C447.738 400.52 446.058 402.28 446.058 404.82C446.058 407.38 447.738 409.14 450.178 409.14C452.078 409.14 453.558 408.08 454.138 406.38H455.358C454.658 408.8 452.718 410.26 450.178 410.26ZM458.513 410V399.66H459.493L459.613 401.98C460.313 400.42 461.493 399.66 463.413 399.66H464.273V400.74H463.373C461.153 400.74 459.673 402.1 459.673 405.24V410H458.513ZM470.764 410.26C467.624 410.26 465.484 408.04 465.484 404.82C465.484 401.62 467.644 399.4 470.784 399.4C474.044 399.4 476.144 401.8 476.064 405.3H466.664C466.864 407.64 468.464 409.16 470.764 409.16C472.444 409.16 473.784 408.38 474.464 407.04L475.764 407.06C474.964 409.04 473.084 410.26 470.764 410.26ZM466.664 404.28H474.924C474.644 401.94 473.044 400.5 470.784 400.5C468.484 400.5 466.864 402 466.664 404.28ZM482.339 410.16C479.939 410.16 478.439 408.98 478.439 407.08C478.439 405.24 479.839 404.08 481.959 404.08H486.519V403.34C486.519 401.62 485.259 400.48 483.339 400.48C481.779 400.48 480.559 401.28 480.139 402.52H478.959C479.459 400.6 481.119 399.4 483.319 399.4C485.899 399.4 487.679 400.98 487.679 403.28V410H486.719L486.599 408.22C485.699 409.46 484.179 410.16 482.339 410.16ZM479.599 407.06C479.599 408.32 480.659 409.12 482.379 409.12C484.779 409.12 486.539 407.62 486.539 405.54V405.1H481.999C480.579 405.1 479.599 405.88 479.599 407.06ZM495.448 410C493.248 410 492.068 408.76 492.068 406.42V400.72H489.808V399.66H491.128C491.908 399.66 492.127 399.46 492.208 398.7L492.308 397.12H493.228V399.66H496.808V400.72H493.228V406.38C493.228 408.08 493.928 408.88 495.488 408.88H496.948V410H495.448ZM500.056 410V399.66H501.216V410H500.056ZM499.576 396.72C499.576 396.14 499.996 395.68 500.636 395.68C501.276 395.68 501.696 396.14 501.696 396.72C501.696 397.32 501.276 397.78 500.636 397.78C499.996 397.78 499.576 397.32 499.576 396.72ZM508.29 410L503.67 399.66H504.93L506.73 403.66L508.87 408.48L510.99 403.66L512.81 399.66H514.05L509.43 410H508.29ZM520.51 410.26C517.37 410.26 515.23 408.04 515.23 404.82C515.23 401.62 517.39 399.4 520.53 399.4C523.79 399.4 525.89 401.8 525.81 405.3H516.41C516.61 407.64 518.21 409.16 520.51 409.16C522.19 409.16 523.53 408.38 524.21 407.04L525.51 407.06C524.71 409.04 522.83 410.26 520.51 410.26ZM516.41 404.28H524.67C524.39 401.94 522.79 400.5 520.53 400.5C518.23 400.5 516.61 402 516.41 404.28ZM528.951 410.12C528.311 410.12 527.891 409.68 527.891 409.08C527.891 408.48 528.311 408.04 528.951 408.04C529.591 408.04 530.011 408.48 530.011 409.08C530.011 409.68 529.591 410.12 528.951 410.12Z" fill="black"/>
<path d="M28.26 441V427H29.48V439.84H36.58V441H28.26ZM42.1008 441.16C39.7008 441.16 38.2008 439.98 38.2008 438.08C38.2008 436.24 39.6008 435.08 41.7208 435.08H46.2808V434.34C46.2808 432.62 45.0208 431.48 43.1008 431.48C41.5408 431.48 40.3208 432.28 39.9008 433.52H38.7208C39.2208 431.6 40.8808 430.4 43.0808 430.4C45.6608 430.4 47.4408 431.98 47.4408 434.28V441H46.4808L46.3608 439.22C45.4608 440.46 43.9408 441.16 42.1008 441.16ZM39.3608 438.06C39.3608 439.32 40.4208 440.12 42.1408 440.12C44.5408 440.12 46.3008 438.62 46.3008 436.54V436.1H41.7608C40.3408 436.1 39.3608 436.88 39.3608 438.06ZM59.8231 441.26C57.2031 441.26 55.5431 439.94 55.4631 437.88H56.6031C56.7231 439.34 57.8631 440.2 59.8431 440.2C61.6631 440.2 62.7631 439.5 62.7631 438.36C62.7631 437.28 61.7831 436.62 59.5831 436.24C56.8831 435.78 55.6631 434.82 55.6631 433.24C55.6631 431.48 57.1631 430.4 59.5831 430.4C62.0231 430.4 63.5631 431.56 63.7231 433.54H62.5631C62.4431 432.18 61.3831 431.44 59.5831 431.44C57.8631 431.44 56.8231 432.14 56.8231 433.26C56.8231 434.28 57.6831 434.84 59.9831 435.28C62.6031 435.78 63.9031 436.82 63.9031 438.38C63.9031 440.12 62.3231 441.26 59.8231 441.26ZM71.6392 441.26C68.4992 441.26 66.3592 439.04 66.3592 435.82C66.3592 432.62 68.5192 430.4 71.6592 430.4C74.9192 430.4 77.0192 432.8 76.9392 436.3H67.5392C67.7392 438.64 69.3392 440.16 71.6392 440.16C73.3192 440.16 74.6592 439.38 75.3392 438.04L76.6392 438.06C75.8392 440.04 73.9592 441.26 71.6392 441.26ZM67.5392 435.28H75.7992C75.5192 432.94 73.9192 431.5 71.6592 431.5C69.3592 431.5 67.7392 433 67.5392 435.28ZM80.1108 441V430.66H81.0908L81.1908 432.66C82.0108 431.18 83.4508 430.4 85.1108 430.4C87.8108 430.4 89.4708 432.3 89.4708 435.28V441H88.3108V435.38C88.3108 433 87.0308 431.52 84.9708 431.52C82.7908 431.52 81.2708 433.18 81.2708 435.64V441H80.1108ZM96.9325 441.26C94.3125 441.26 92.6525 439.94 92.5725 437.88H93.7125C93.8325 439.34 94.9725 440.2 96.9525 440.2C98.7725 440.2 99.8725 439.5 99.8725 438.36C99.8725 437.28 98.8925 436.62 96.6925 436.24C93.9925 435.78 92.7725 434.82 92.7725 433.24C92.7725 431.48 94.2725 430.4 96.6925 430.4C99.1325 430.4 100.673 431.56 100.833 433.54H99.6725C99.5525 432.18 98.4925 431.44 96.6925 431.44C94.9725 431.44 93.9325 432.14 93.9325 433.26C93.9325 434.28 94.7925 434.84 97.0925 435.28C99.7125 435.78 101.013 436.82 101.013 438.38C101.013 440.12 99.4325 441.26 96.9325 441.26ZM107.491 441.16C105.091 441.16 103.591 439.98 103.591 438.08C103.591 436.24 104.991 435.08 107.111 435.08H111.671V434.34C111.671 432.62 110.411 431.48 108.491 431.48C106.931 431.48 105.711 432.28 105.291 433.52H104.111C104.611 431.6 106.271 430.4 108.471 430.4C111.051 430.4 112.831 431.98 112.831 434.28V441H111.871L111.751 439.22C110.851 440.46 109.331 441.16 107.491 441.16ZM104.751 438.06C104.751 439.32 105.811 440.12 107.531 440.12C109.931 440.12 111.691 438.62 111.691 436.54V436.1H107.151C105.731 436.1 104.751 436.88 104.751 438.06ZM115.732 441V440.1L122.452 431.72H115.972V430.66H124.012V431.54L117.332 439.92H124.152V441H115.732ZM127.22 441V430.66H128.38V441H127.22ZM126.74 427.72C126.74 427.14 127.16 426.68 127.8 426.68C128.44 426.68 128.86 427.14 128.86 427.72C128.86 428.32 128.44 428.78 127.8 428.78C127.16 428.78 126.74 428.32 126.74 427.72ZM137.034 441.26C133.834 441.26 131.594 439.02 131.594 435.82C131.594 432.64 133.834 430.4 137.034 430.4C140.214 430.4 142.454 432.64 142.454 435.82C142.454 439.02 140.214 441.26 137.034 441.26ZM132.754 435.82C132.754 438.38 134.494 440.14 137.034 440.14C139.554 440.14 141.294 438.38 141.294 435.82C141.294 433.28 139.554 431.52 137.034 431.52C134.494 431.52 132.754 433.28 132.754 435.82ZM145.677 441V430.66H146.657L146.757 432.66C147.577 431.18 149.017 430.4 150.677 430.4C153.377 430.4 155.037 432.3 155.037 435.28V441H153.877V435.38C153.877 433 152.597 431.52 150.537 431.52C148.357 431.52 146.837 433.18 146.837 435.64V441H145.677ZM163.319 441.26C160.179 441.26 158.039 439.04 158.039 435.82C158.039 432.62 160.199 430.4 163.339 430.4C166.599 430.4 168.699 432.8 168.619 436.3H159.219C159.419 438.64 161.019 440.16 163.319 440.16C164.999 440.16 166.339 439.38 167.019 438.04L168.319 438.06C167.519 440.04 165.639 441.26 163.319 441.26ZM159.219 435.28H167.479C167.199 432.94 165.599 431.5 163.339 431.5C161.039 431.5 159.419 433 159.219 435.28ZM180.605 441.26C177.485 441.26 175.305 438.96 175.305 435.82C175.305 432.68 177.485 430.4 180.605 430.4C182.505 430.4 184.045 431.24 184.965 432.58V426.2H186.125V441H185.165L185.025 438.96C184.125 440.38 182.545 441.26 180.605 441.26ZM176.465 435.82C176.465 438.36 178.205 440.14 180.745 440.14C183.265 440.14 185.005 438.36 185.005 435.82C185.005 433.3 183.265 431.52 180.745 431.52C178.205 431.52 176.465 433.3 176.465 435.82ZM190.248 441V430.66H191.408V441H190.248ZM189.768 427.72C189.768 427.14 190.188 426.68 190.827 426.68C191.468 426.68 191.888 427.14 191.888 427.72C191.888 428.32 191.468 428.78 190.827 428.78C190.188 428.78 189.768 428.32 189.768 427.72ZM204.113 441.16C201.713 441.16 200.213 439.98 200.213 438.08C200.213 436.24 201.613 435.08 203.733 435.08H208.293V434.34C208.293 432.62 207.033 431.48 205.113 431.48C203.553 431.48 202.333 432.28 201.913 433.52H200.733C201.233 431.6 202.893 430.4 205.093 430.4C207.673 430.4 209.453 431.98 209.453 434.28V441H208.493L208.373 439.22C207.473 440.46 205.953 441.16 204.113 441.16ZM201.373 438.06C201.373 439.32 202.433 440.12 204.153 440.12C206.553 440.12 208.313 438.62 208.313 436.54V436.1H203.773C202.353 436.1 201.373 436.88 201.373 438.06ZM215.883 441L211.263 430.66H212.523L214.323 434.66L216.463 439.48L218.583 434.66L220.403 430.66H221.643L217.023 441H215.883ZM228.104 441.26C224.964 441.26 222.824 439.04 222.824 435.82C222.824 432.62 224.984 430.4 228.124 430.4C231.384 430.4 233.484 432.8 233.404 436.3H224.004C224.204 438.64 225.804 440.16 228.104 440.16C229.784 440.16 231.124 439.38 231.804 438.04L233.104 438.06C232.304 440.04 230.424 441.26 228.104 441.26ZM224.004 435.28H232.264C231.984 432.94 230.384 431.5 228.124 431.5C225.824 431.5 224.204 433 224.004 435.28ZM236.576 441V430.66H237.556L237.676 432.98C238.376 431.42 239.556 430.66 241.476 430.66H242.336V431.74H241.436C239.216 431.74 237.736 433.1 237.736 436.24V441H236.576ZM248.827 441.26C245.687 441.26 243.547 439.04 243.547 435.82C243.547 432.62 245.707 430.4 248.847 430.4C252.107 430.4 254.207 432.8 254.127 436.3H244.727C244.927 438.64 246.527 440.16 248.827 440.16C250.507 440.16 251.847 439.38 252.527 438.04L253.827 438.06C253.027 440.04 251.147 441.26 248.827 441.26ZM244.727 435.28H252.987C252.707 432.94 251.107 431.5 248.847 431.5C246.547 431.5 244.927 433 244.727 435.28ZM262.181 441V430.66H263.341V441H262.181ZM261.701 427.72C261.701 427.14 262.121 426.68 262.761 426.68C263.401 426.68 263.821 427.14 263.821 427.72C263.821 428.32 263.401 428.78 262.761 428.78C262.121 428.78 261.701 428.32 261.701 427.72ZM267.455 441V426.2H268.615V441H267.455ZM32.44 470.26C29.34 470.26 27.16 468 27.16 464.82C27.16 461.64 29.34 459.4 32.44 459.4C34.9 459.4 36.92 460.86 37.52 463.1H36.34C35.66 461.46 34.22 460.52 32.44 460.52C30 460.52 28.32 462.28 28.32 464.82C28.32 467.38 30 469.14 32.44 469.14C34.34 469.14 35.82 468.08 36.4 466.38H37.62C36.92 468.8 34.98 470.26 32.44 470.26ZM45.3148 470.26C42.1148 470.26 39.8748 468.02 39.8748 464.82C39.8748 461.64 42.1148 459.4 45.3148 459.4C48.4948 459.4 50.7348 461.64 50.7348 464.82C50.7348 468.02 48.4948 470.26 45.3148 470.26ZM41.0348 464.82C41.0348 467.38 42.7748 469.14 45.3148 469.14C47.8348 469.14 49.5748 467.38 49.5748 464.82C49.5748 462.28 47.8348 460.52 45.3148 460.52C42.7748 460.52 41.0348 462.28 41.0348 464.82ZM53.9584 470V459.66H54.9384L55.0384 461.66C55.8584 460.18 57.2984 459.4 58.9584 459.4C61.6584 459.4 63.3184 461.3 63.3184 464.28V470H62.1584V464.38C62.1584 462 60.8784 460.52 58.8184 460.52C56.6384 460.52 55.1184 462.18 55.1184 464.64V470H53.9584ZM71.0881 470C68.8881 470 67.7081 468.76 67.7081 466.42V460.72H65.4481V459.66H66.7681C67.5481 459.66 67.7681 459.46 67.8481 458.7L67.9481 457.12H68.8681V459.66H72.4481V460.72H68.8681V466.38C68.8681 468.08 69.5681 468.88 71.1281 468.88H72.5881V470H71.0881ZM75.6967 470V459.66H76.6767L76.7967 461.98C77.4967 460.42 78.6767 459.66 80.5967 459.66H81.4567V460.74H80.5567C78.3367 460.74 76.8567 462.1 76.8567 465.24V470H75.6967ZM88.1078 470.26C84.9078 470.26 82.6678 468.02 82.6678 464.82C82.6678 461.64 84.9078 459.4 88.1078 459.4C91.2878 459.4 93.5278 461.64 93.5278 464.82C93.5278 468.02 91.2878 470.26 88.1078 470.26ZM83.8278 464.82C83.8278 467.38 85.5678 469.14 88.1078 469.14C90.6278 469.14 92.3678 467.38 92.3678 464.82C92.3678 462.28 90.6278 460.52 88.1078 460.52C85.5678 460.52 83.8278 462.28 83.8278 464.82ZM96.7514 470V455.2H97.9114V470H96.7514ZM102.025 470V455.2H103.185V470H102.025ZM111.838 470.26C108.638 470.26 106.398 468.02 106.398 464.82C106.398 461.64 108.638 459.4 111.838 459.4C115.018 459.4 117.258 461.64 117.258 464.82C117.258 468.02 115.018 470.26 111.838 470.26ZM107.558 464.82C107.558 467.38 109.298 469.14 111.838 469.14C114.358 469.14 116.098 467.38 116.098 464.82C116.098 462.28 114.358 460.52 111.838 460.52C109.298 460.52 107.558 462.28 107.558 464.82ZM128.495 470.26C125.875 470.26 124.215 468.94 124.135 466.88H125.275C125.395 468.34 126.535 469.2 128.515 469.2C130.335 469.2 131.435 468.5 131.435 467.36C131.435 466.28 130.455 465.62 128.255 465.24C125.555 464.78 124.335 463.82 124.335 462.24C124.335 460.48 125.835 459.4 128.255 459.4C130.695 459.4 132.235 460.56 132.395 462.54H131.235C131.115 461.18 130.055 460.44 128.255 460.44C126.535 460.44 125.495 461.14 125.495 462.26C125.495 463.28 126.355 463.84 128.655 464.28C131.275 464.78 132.575 465.82 132.575 467.38C132.575 469.12 130.995 470.26 128.495 470.26ZM140.011 470.26C137.351 470.26 135.711 468.36 135.711 465.38V459.66H136.871V465.28C136.871 467.64 138.131 469.14 140.171 469.14C142.311 469.14 143.791 467.46 143.791 465V459.66H144.951V470H143.991L143.871 467.98C143.071 469.48 141.631 470.26 140.011 470.26ZM149.076 470V455.2H150.236V470H149.076ZM165.221 470.26C163.321 470.26 161.781 469.4 160.861 468.04V474H159.701V459.66H160.681L160.801 461.72C161.701 460.28 163.281 459.4 165.221 459.4C168.361 459.4 170.521 461.68 170.521 464.82C170.521 467.96 168.361 470.26 165.221 470.26ZM160.821 464.82C160.821 467.36 162.561 469.14 165.101 469.14C167.641 469.14 169.361 467.36 169.361 464.82C169.361 462.3 167.641 460.52 165.101 460.52C162.561 460.52 160.821 462.3 160.821 464.82ZM173.744 470V459.66H174.724L174.844 461.98C175.544 460.42 176.724 459.66 178.644 459.66H179.504V460.74H178.604C176.384 460.74 174.904 462.1 174.904 465.24V470H173.744ZM186.155 470.26C182.955 470.26 180.715 468.02 180.715 464.82C180.715 461.64 182.955 459.4 186.155 459.4C189.335 459.4 191.575 461.64 191.575 464.82C191.575 468.02 189.335 470.26 186.155 470.26ZM181.875 464.82C181.875 467.38 183.615 469.14 186.155 469.14C188.675 469.14 190.415 467.38 190.415 464.82C190.415 462.28 188.675 460.52 186.155 460.52C183.615 460.52 181.875 462.28 181.875 464.82ZM200.318 470.26C198.418 470.26 196.878 469.4 195.958 468.04V474H194.798V459.66H195.778L195.898 461.72C196.798 460.28 198.378 459.4 200.318 459.4C203.458 459.4 205.618 461.68 205.618 464.82C205.618 467.96 203.458 470.26 200.318 470.26ZM195.918 464.82C195.918 467.36 197.658 469.14 200.198 469.14C202.738 469.14 204.458 467.36 204.458 464.82C204.458 462.3 202.738 460.52 200.198 460.52C197.658 460.52 195.918 462.3 195.918 464.82ZM208.841 470V459.66H209.821L209.941 461.98C210.641 460.42 211.821 459.66 213.741 459.66H214.601V460.74H213.701C211.481 460.74 210.001 462.1 210.001 465.24V470H208.841ZM217.513 470V459.66H218.673V470H217.513ZM217.033 456.72C217.033 456.14 217.453 455.68 218.093 455.68C218.733 455.68 219.153 456.14 219.153 456.72C219.153 457.32 218.733 457.78 218.093 457.78C217.453 457.78 217.033 457.32 217.033 456.72ZM227.327 470.26C224.127 470.26 221.887 468.02 221.887 464.82C221.887 461.64 224.127 459.4 227.327 459.4C230.507 459.4 232.747 461.64 232.747 464.82C232.747 468.02 230.507 470.26 227.327 470.26ZM223.047 464.82C223.047 467.38 224.787 469.14 227.327 469.14C229.847 469.14 231.587 467.38 231.587 464.82C231.587 462.28 229.847 460.52 227.327 460.52C224.787 460.52 223.047 462.28 223.047 464.82ZM32.26 499C30.06 499 28.88 497.76 28.88 495.42V489.72H26.62V488.66H27.94C28.72 488.66 28.94 488.46 29.02 487.7L29.12 486.12H30.04V488.66H33.62V489.72H30.04V495.38C30.04 497.08 30.74 497.88 32.3 497.88H33.76V499H32.26ZM40.7408 499.26C37.6008 499.26 35.4608 497.04 35.4608 493.82C35.4608 490.62 37.6208 488.4 40.7608 488.4C44.0208 488.4 46.1208 490.8 46.0408 494.3H36.6408C36.8408 496.64 38.4408 498.16 40.7408 498.16C42.4208 498.16 43.7608 497.38 44.4408 496.04L45.7408 496.06C44.9408 498.04 43.0608 499.26 40.7408 499.26ZM36.6408 493.28H44.9008C44.6208 490.94 43.0208 489.5 40.7608 489.5C38.4608 489.5 36.8408 491 36.6408 493.28ZM49.2123 499V488.66H50.1923L50.2923 490.34C51.0123 489.08 52.2723 488.4 53.8723 488.4C55.6723 488.4 57.0523 489.3 57.6523 490.88C58.3523 489.3 59.7723 488.4 61.5923 488.4C64.1923 488.4 65.8723 490.18 65.8723 493.06V499H64.7123V493.24C64.7123 490.94 63.4323 489.52 61.4523 489.52C59.4323 489.52 58.1123 490.98 58.1123 493.32V499H56.9523V493.24C56.9523 490.94 55.6923 489.52 53.7123 489.52C51.6923 489.52 50.3723 490.98 50.3723 493.32V499H49.2123ZM75.2792 499.26C73.3792 499.26 71.8392 498.4 70.9192 497.04V503H69.7592V488.66H70.7392L70.8592 490.72C71.7592 489.28 73.3392 488.4 75.2792 488.4C78.4192 488.4 80.5792 490.68 80.5792 493.82C80.5792 496.96 78.4192 499.26 75.2792 499.26ZM70.8792 493.82C70.8792 496.36 72.6192 498.14 75.1592 498.14C77.6992 498.14 79.4192 496.36 79.4192 493.82C79.4192 491.3 77.6992 489.52 75.1592 489.52C72.6192 489.52 70.8792 491.3 70.8792 493.82ZM88.3422 499.26C85.1422 499.26 82.9022 497.02 82.9022 493.82C82.9022 490.64 85.1422 488.4 88.3422 488.4C91.5222 488.4 93.7622 490.64 93.7622 493.82C93.7622 497.02 91.5222 499.26 88.3422 499.26ZM84.0622 493.82C84.0622 496.38 85.8022 498.14 88.3422 498.14C90.8622 498.14 92.6022 496.38 92.6022 493.82C92.6022 491.28 90.8622 489.52 88.3422 489.52C85.8022 489.52 84.0622 491.28 84.0622 493.82ZM107.389 499.26C105.489 499.26 103.949 498.4 103.029 497.04V503H101.869V488.66H102.849L102.969 490.72C103.869 489.28 105.449 488.4 107.389 488.4C110.529 488.4 112.689 490.68 112.689 493.82C112.689 496.96 110.529 499.26 107.389 499.26ZM102.989 493.82C102.989 496.36 104.729 498.14 107.269 498.14C109.809 498.14 111.529 496.36 111.529 493.82C111.529 491.3 109.809 489.52 107.269 489.52C104.729 489.52 102.989 491.3 102.989 493.82ZM120.452 499.26C117.252 499.26 115.012 497.02 115.012 493.82C115.012 490.64 117.252 488.4 120.452 488.4C123.632 488.4 125.872 490.64 125.872 493.82C125.872 497.02 123.632 499.26 120.452 499.26ZM116.172 493.82C116.172 496.38 117.912 498.14 120.452 498.14C122.972 498.14 124.712 496.38 124.712 493.82C124.712 491.28 122.972 489.52 120.452 489.52C117.912 489.52 116.172 491.28 116.172 493.82ZM129.095 499V488.66H130.075L130.195 490.98C130.895 489.42 132.075 488.66 133.995 488.66H134.855V489.74H133.955C131.735 489.74 130.255 491.1 130.255 494.24V499H129.095ZM141.967 499C139.767 499 138.587 497.76 138.587 495.42V489.72H136.327V488.66H137.647C138.427 488.66 138.647 488.46 138.727 487.7L138.827 486.12H139.747V488.66H143.327V489.72H139.747V495.38C139.747 497.08 140.447 497.88 142.007 497.88H143.467V499H141.967ZM149.464 499.16C147.064 499.16 145.564 497.98 145.564 496.08C145.564 494.24 146.964 493.08 149.084 493.08H153.644V492.34C153.644 490.62 152.384 489.48 150.464 489.48C148.904 489.48 147.684 490.28 147.264 491.52H146.084C146.584 489.6 148.244 488.4 150.444 488.4C153.024 488.4 154.804 489.98 154.804 492.28V499H153.844L153.724 497.22C152.824 498.46 151.304 499.16 149.464 499.16ZM146.724 496.06C146.724 497.32 147.784 498.12 149.504 498.12C151.904 498.12 153.664 496.62 153.664 494.54V494.1H149.124C147.704 494.1 146.724 494.88 146.724 496.06ZM167.296 499.16C164.896 499.16 163.396 497.98 163.396 496.08C163.396 494.24 164.796 493.08 166.916 493.08H171.476V492.34C171.476 490.62 170.216 489.48 168.296 489.48C166.736 489.48 165.516 490.28 165.096 491.52H163.916C164.416 489.6 166.076 488.4 168.276 488.4C170.856 488.4 172.636 489.98 172.636 492.28V499H171.676L171.556 497.22C170.656 498.46 169.136 499.16 167.296 499.16ZM164.556 496.06C164.556 497.32 165.616 498.12 167.336 498.12C169.736 498.12 171.496 496.62 171.496 494.54V494.1H166.956C165.536 494.1 164.556 494.88 164.556 496.06ZM181.888 499V484.2H183.048V499H181.888ZM187.162 499V488.66H188.322V499H187.162ZM186.682 485.72C186.682 485.14 187.102 484.68 187.742 484.68C188.382 484.68 188.802 485.14 188.802 485.72C188.802 486.32 188.382 486.78 187.742 486.78C187.102 486.78 186.682 486.32 186.682 485.72ZM195.395 499L190.775 488.66H192.035L193.835 492.66L195.975 497.48L198.095 492.66L199.915 488.66H201.155L196.535 499H195.395ZM207.616 499.26C204.476 499.26 202.336 497.04 202.336 493.82C202.336 490.62 204.496 488.4 207.636 488.4C210.896 488.4 212.996 490.8 212.916 494.3H203.516C203.716 496.64 205.316 498.16 207.616 498.16C209.296 498.16 210.636 497.38 211.316 496.04L212.616 496.06C211.816 498.04 209.936 499.26 207.616 499.26ZM203.516 493.28H211.776C211.496 490.94 209.896 489.5 207.636 489.5C205.336 489.5 203.716 491 203.516 493.28ZM216.087 499V484.2H217.247V499H216.087ZM221.361 499V484.2H222.521V499H221.361ZM226.634 499V488.66H227.794V499H226.634ZM226.154 485.72C226.154 485.14 226.574 484.68 227.214 484.68C227.854 484.68 228.274 485.14 228.274 485.72C228.274 486.32 227.854 486.78 227.214 486.78C226.574 486.78 226.154 486.32 226.154 485.72ZM242.779 499.26C240.879 499.26 239.339 498.4 238.419 497.04V503H237.259V488.66H238.239L238.359 490.72C239.259 489.28 240.839 488.4 242.779 488.4C245.919 488.4 248.079 490.68 248.079 493.82C248.079 496.96 245.919 499.26 242.779 499.26ZM238.379 493.82C238.379 496.36 240.119 498.14 242.659 498.14C245.199 498.14 246.919 496.36 246.919 493.82C246.919 491.3 245.199 489.52 242.659 489.52C240.119 489.52 238.379 491.3 238.379 493.82ZM251.302 499V488.66H252.462V499H251.302ZM250.822 485.72C250.822 485.14 251.242 484.68 251.882 484.68C252.522 484.68 252.942 485.14 252.942 485.72C252.942 486.32 252.522 486.78 251.882 486.78C251.242 486.78 250.822 486.32 250.822 485.72ZM260.656 499.26C257.996 499.26 256.356 497.36 256.356 494.38V488.66H257.516V494.28C257.516 496.64 258.776 498.14 260.816 498.14C262.956 498.14 264.436 496.46 264.436 494V488.66H265.596V499H264.636L264.516 496.98C263.716 498.48 262.276 499.26 260.656 499.26ZM259.376 483.92H260.616L261.736 486.94H260.636L259.376 483.92ZM33.58 528.26C31.64 528.26 30.06 527.36 29.16 525.94L29.04 528H28.06V513.2H29.22V519.62C30.14 518.24 31.68 517.4 33.58 517.4C36.72 517.4 38.88 519.68 38.88 522.82C38.88 525.96 36.72 528.26 33.58 528.26ZM29.18 522.82C29.18 525.36 30.92 527.14 33.46 527.14C36 527.14 37.72 525.36 37.72 522.82C37.72 520.3 36 518.52 33.46 518.52C30.92 518.52 29.18 520.3 29.18 522.82ZM45.2063 528.16C42.8063 528.16 41.3063 526.98 41.3063 525.08C41.3063 523.24 42.7063 522.08 44.8263 522.08H49.3863V521.34C49.3863 519.62 48.1263 518.48 46.2063 518.48C44.6463 518.48 43.4263 519.28 43.0063 520.52H41.8263C42.3263 518.6 43.9863 517.4 46.1863 517.4C48.7663 517.4 50.5463 518.98 50.5463 521.28V528H49.5863L49.4663 526.22C48.5663 527.46 47.0463 528.16 45.2063 528.16ZM42.4663 525.06C42.4663 526.32 43.5263 527.12 45.2463 527.12C47.6463 527.12 49.4063 525.62 49.4063 523.54V523.1H44.8663C43.4463 523.1 42.4663 523.88 42.4663 525.06ZM58.0067 528.26C55.3867 528.26 53.7267 526.94 53.6467 524.88H54.7867C54.9067 526.34 56.0467 527.2 58.0267 527.2C59.8467 527.2 60.9467 526.5 60.9467 525.36C60.9467 524.28 59.9667 523.62 57.7667 523.24C55.0667 522.78 53.8467 521.82 53.8467 520.24C53.8467 518.48 55.3467 517.4 57.7667 517.4C60.2067 517.4 61.7467 518.56 61.9067 520.54H60.7467C60.6267 519.18 59.5667 518.44 57.7667 518.44C56.0467 518.44 55.0067 519.14 55.0067 520.26C55.0067 521.28 55.8667 521.84 58.1667 522.28C60.7867 522.78 62.0867 523.82 62.0867 525.38C62.0867 527.12 60.5067 528.26 58.0067 528.26ZM69.0028 528.26C66.3828 528.26 64.7228 526.94 64.6428 524.88H65.7828C65.9028 526.34 67.0428 527.2 69.0228 527.2C70.8428 527.2 71.9428 526.5 71.9428 525.36C71.9428 524.28 70.9628 523.62 68.7628 523.24C66.0628 522.78 64.8428 521.82 64.8428 520.24C64.8428 518.48 66.3428 517.4 68.7628 517.4C71.2028 517.4 72.7428 518.56 72.9028 520.54H71.7428C71.6228 519.18 70.5628 518.44 68.7628 518.44C67.0428 518.44 66.0028 519.14 66.0028 520.26C66.0028 521.28 66.8628 521.84 69.1628 522.28C71.7828 522.78 73.0828 523.82 73.0828 525.38C73.0828 527.12 71.5028 528.26 69.0028 528.26ZM76.4389 528V517.66H77.5989V528H76.4389ZM75.9589 514.72C75.9589 514.14 76.3789 513.68 77.0189 513.68C77.6589 513.68 78.0789 514.14 78.0789 514.72C78.0789 515.32 77.6589 515.78 77.0189 515.78C76.3789 515.78 75.9589 515.32 75.9589 514.72ZM90.9952 528.26C87.8752 528.26 85.6952 525.96 85.6952 522.82C85.6952 519.68 87.8752 517.4 90.9952 517.4C92.8952 517.4 94.4352 518.24 95.3552 519.58V513.2H96.5152V528H95.5552L95.4152 525.96C94.5152 527.38 92.9352 528.26 90.9952 528.26ZM86.8552 522.82C86.8552 525.36 88.5952 527.14 91.1352 527.14C93.6552 527.14 95.3952 525.36 95.3952 522.82C95.3952 520.3 93.6552 518.52 91.1352 518.52C88.5952 518.52 86.8552 520.3 86.8552 522.82ZM100.638 528V517.66H101.798V528H100.638ZM100.158 514.72C100.158 514.14 100.578 513.68 101.218 513.68C101.858 513.68 102.278 514.14 102.278 514.72C102.278 515.32 101.858 515.78 101.218 515.78C100.578 515.78 100.158 515.32 100.158 514.72ZM114.393 528.26C111.773 528.26 110.113 526.94 110.033 524.88H111.173C111.293 526.34 112.433 527.2 114.413 527.2C116.233 527.2 117.333 526.5 117.333 525.36C117.333 524.28 116.353 523.62 114.153 523.24C111.453 522.78 110.233 521.82 110.233 520.24C110.233 518.48 111.733 517.4 114.153 517.4C116.593 517.4 118.133 518.56 118.293 520.54H117.133C117.013 519.18 115.953 518.44 114.153 518.44C112.433 518.44 111.393 519.14 111.393 520.26C111.393 521.28 112.253 521.84 114.553 522.28C117.173 522.78 118.473 523.82 118.473 525.38C118.473 527.12 116.893 528.26 114.393 528.26ZM125.737 528C123.537 528 122.357 526.76 122.357 524.42V518.72H120.097V517.66H121.417C122.197 517.66 122.417 517.46 122.497 516.7L122.597 515.12H123.517V517.66H127.097V518.72H123.517V524.38C123.517 526.08 124.217 526.88 125.777 526.88H127.237V528H125.737ZM130.345 528V517.66H131.325L131.445 519.98C132.145 518.42 133.325 517.66 135.245 517.66H136.105V518.74H135.205C132.985 518.74 131.505 520.1 131.505 523.24V528H130.345ZM142.596 528.26C139.456 528.26 137.316 526.04 137.316 522.82C137.316 519.62 139.476 517.4 142.616 517.4C145.876 517.4 147.976 519.8 147.896 523.3H138.496C138.696 525.64 140.296 527.16 142.596 527.16C144.276 527.16 145.616 526.38 146.296 525.04L147.596 525.06C146.796 527.04 144.916 528.26 142.596 528.26ZM138.496 522.28H146.756C146.476 519.94 144.876 518.5 142.616 518.5C140.316 518.5 138.696 520 138.496 522.28ZM154.628 528.26C152.008 528.26 150.348 526.94 150.268 524.88H151.408C151.528 526.34 152.668 527.2 154.648 527.2C156.468 527.2 157.568 526.5 157.568 525.36C157.568 524.28 156.588 523.62 154.388 523.24C151.688 522.78 150.468 521.82 150.468 520.24C150.468 518.48 151.968 517.4 154.388 517.4C156.828 517.4 158.368 518.56 158.528 520.54H157.368C157.248 519.18 156.188 518.44 154.388 518.44C152.668 518.44 151.628 519.14 151.628 520.26C151.628 521.28 152.488 521.84 154.788 522.28C157.408 522.78 158.708 523.82 158.708 525.38C158.708 527.12 157.128 528.26 154.628 528.26ZM165.624 528.26C163.004 528.26 161.344 526.94 161.264 524.88H162.404C162.524 526.34 163.664 527.2 165.644 527.2C167.464 527.2 168.564 526.5 168.564 525.36C168.564 524.28 167.584 523.62 165.384 523.24C162.684 522.78 161.464 521.82 161.464 520.24C161.464 518.48 162.964 517.4 165.384 517.4C167.824 517.4 169.364 518.56 169.524 520.54H168.364C168.244 519.18 167.184 518.44 165.384 518.44C163.664 518.44 162.624 519.14 162.624 520.26C162.624 521.28 163.484 521.84 165.784 522.28C168.404 522.78 169.704 523.82 169.704 525.38C169.704 527.12 168.124 528.26 165.624 528.26ZM173.049 528.12C172.409 528.12 171.989 527.68 171.989 527.08C171.989 526.48 172.409 526.04 173.049 526.04C173.689 526.04 174.109 526.48 174.109 527.08C174.109 527.68 173.689 528.12 173.049 528.12Z" fill="black"/>
</svg>
