<svg width="594" height="623" viewBox="0 0 594 623" fill="none" xmlns="http://www.w3.org/2000/svg">
<path fill-rule="evenodd" clip-rule="evenodd" d="M7.4099 118.548C72.9668 53.0313 168.63 0.40625 233.954 0.40625C321.412 0.40625 327.72 94.7335 326.925 188.039C301.924 248.16 242.625 290.432 173.453 290.432C81.6963 290.432 7.3125 216.049 7.3125 124.292C7.3125 122.369 7.34514 120.455 7.4099 118.548Z" fill="#F6F5FF"/>
<path fill-rule="evenodd" clip-rule="evenodd" d="M282.941 257.894C311.408 207.263 365.64 173.059 427.861 173.059C519.618 173.059 594.002 247.442 594.002 339.199C594.002 388.984 572.105 433.654 537.417 464.104C518.342 470.299 497.983 473.648 476.841 473.648C368.642 473.648 280.93 385.936 280.93 277.736C280.93 271.24 281.62 264.613 282.941 257.894Z" fill="#F6F5FF"/>
<path fill-rule="evenodd" clip-rule="evenodd" d="M144.705 622.395C224.623 622.395 289.41 557.409 289.41 477.244C289.41 468.239 289.559 458.895 289.711 449.403C290.908 374.397 292.254 290.113 221.313 290.113C141.395 290.113 0 397.079 0 477.244C0 557.409 64.7866 622.395 144.705 622.395Z" fill="#F6F5FF"/>
<path d="M116.76 102.26C113.56 102.26 111.5 100.54 111.4 97.84H112.6C112.72 99.9 114.34 101.1 116.76 101.1C119.06 101.1 120.48 100.08 120.48 98.46C120.48 97 119.34 96.14 116.52 95.52C113.08 94.72 111.62 93.56 111.62 91.46C111.62 89.22 113.44 87.74 116.42 87.74C119.5 87.74 121.38 89.3 121.48 92H120.28C120.18 90.02 118.76 88.9 116.42 88.9C114.16 88.9 112.84 89.92 112.84 91.46C112.84 92.86 113.88 93.72 116.82 94.38C120.36 95.2 121.72 96.44 121.72 98.44C121.72 100.78 119.8 102.26 116.76 102.26ZM129.151 102C126.951 102 125.771 100.76 125.771 98.42V92.72H123.511V91.66H124.831C125.611 91.66 125.831 91.46 125.911 90.7L126.011 89.12H126.931V91.66H130.511V92.72H126.931V98.38C126.931 100.08 127.631 100.88 129.191 100.88H130.651V102H129.151ZM133.759 102V91.66H134.739L134.859 93.98C135.559 92.42 136.739 91.66 138.659 91.66H139.519V92.74H138.619C136.399 92.74 134.919 94.1 134.919 97.24V102H133.759ZM146.01 102.26C142.87 102.26 140.73 100.04 140.73 96.82C140.73 93.62 142.89 91.4 146.03 91.4C149.29 91.4 151.39 93.8 151.31 97.3H141.91C142.11 99.64 143.71 101.16 146.01 101.16C147.69 101.16 149.03 100.38 149.71 99.04L151.01 99.06C150.21 101.04 148.33 102.26 146.01 102.26ZM141.91 96.28H150.17C149.89 93.94 148.29 92.5 146.03 92.5C143.73 92.5 142.11 94 141.91 96.28ZM158.042 102.26C155.422 102.26 153.762 100.94 153.682 98.88H154.822C154.942 100.34 156.082 101.2 158.062 101.2C159.882 101.2 160.982 100.5 160.982 99.36C160.982 98.28 160.002 97.62 157.802 97.24C155.102 96.78 153.882 95.82 153.882 94.24C153.882 92.48 155.382 91.4 157.802 91.4C160.242 91.4 161.782 92.56 161.942 94.54H160.782C160.662 93.18 159.602 92.44 157.802 92.44C156.082 92.44 155.042 93.14 155.042 94.26C155.042 95.28 155.902 95.84 158.202 96.28C160.822 96.78 162.122 97.82 162.122 99.38C162.122 101.12 160.542 102.26 158.042 102.26ZM169.038 102.26C166.418 102.26 164.758 100.94 164.678 98.88H165.818C165.938 100.34 167.078 101.2 169.058 101.2C170.878 101.2 171.978 100.5 171.978 99.36C171.978 98.28 170.998 97.62 168.798 97.24C166.098 96.78 164.878 95.82 164.878 94.24C164.878 92.48 166.378 91.4 168.798 91.4C171.238 91.4 172.778 92.56 172.938 94.54H171.778C171.658 93.18 170.598 92.44 168.798 92.44C167.078 92.44 166.038 93.14 166.038 94.26C166.038 95.28 166.898 95.84 169.198 96.28C171.818 96.78 173.118 97.82 173.118 99.38C173.118 101.12 171.538 102.26 169.038 102.26ZM183.027 102L179.307 91.66H180.547L183.607 100.26L185.067 96.5L186.927 91.66H188.007L189.887 96.5L191.347 100.26L194.427 91.66H195.647L191.907 102H190.787L189.007 97.38L187.467 93.36L184.147 102H183.027ZM200.847 102.16C198.447 102.16 196.947 100.98 196.947 99.08C196.947 97.24 198.347 96.08 200.467 96.08H205.027V95.34C205.027 93.62 203.767 92.48 201.847 92.48C200.287 92.48 199.067 93.28 198.647 94.52H197.467C197.967 92.6 199.627 91.4 201.827 91.4C204.407 91.4 206.187 92.98 206.187 95.28V102H205.227L205.107 100.22C204.207 101.46 202.687 102.16 200.847 102.16ZM198.107 99.06C198.107 100.32 199.167 101.12 200.887 101.12C203.287 101.12 205.047 99.62 205.047 97.54V97.1H200.507C199.087 97.1 198.107 97.88 198.107 99.06ZM210.087 102V91.66H211.067L211.187 93.98C211.887 92.42 213.067 91.66 214.987 91.66H215.847V92.74H214.947C212.727 92.74 211.247 94.1 211.247 97.24V102H210.087ZM227.019 102.16C224.619 102.16 223.119 100.98 223.119 99.08C223.119 97.24 224.519 96.08 226.639 96.08H231.199V95.34C231.199 93.62 229.939 92.48 228.019 92.48C226.459 92.48 225.239 93.28 224.819 94.52H223.639C224.139 92.6 225.799 91.4 227.999 91.4C230.579 91.4 232.359 92.98 232.359 95.28V102H231.399L231.279 100.22C230.379 101.46 228.859 102.16 227.019 102.16ZM224.279 99.06C224.279 100.32 225.339 101.12 227.059 101.12C229.459 101.12 231.219 99.62 231.219 97.54V97.1H226.679C225.259 97.1 224.279 97.88 224.279 99.06ZM236.259 102V91.66H237.239L237.339 93.34C238.059 92.08 239.319 91.4 240.919 91.4C242.719 91.4 244.099 92.3 244.699 93.88C245.399 92.3 246.819 91.4 248.639 91.4C251.239 91.4 252.919 93.18 252.919 96.06V102H251.759V96.24C251.759 93.94 250.479 92.52 248.499 92.52C246.479 92.52 245.159 93.98 245.159 96.32V102H243.999V96.24C243.999 93.94 242.739 92.52 240.759 92.52C238.739 92.52 237.419 93.98 237.419 96.32V102H236.259ZM112.06 131V116.2H113.22V122.54C114.04 121.12 115.48 120.4 117.1 120.4C119.78 120.4 121.42 122.26 121.42 125.24V131H120.26V125.34C120.26 122.96 119 121.52 116.94 121.52C114.76 121.52 113.22 123.14 113.22 125.62V131H112.06ZM129.862 131.26C126.662 131.26 124.422 129.02 124.422 125.82C124.422 122.64 126.662 120.4 129.862 120.4C133.042 120.4 135.282 122.64 135.282 125.82C135.282 129.02 133.042 131.26 129.862 131.26ZM125.582 125.82C125.582 128.38 127.322 130.14 129.862 130.14C132.382 130.14 134.122 128.38 134.122 125.82C134.122 123.28 132.382 121.52 129.862 121.52C127.322 121.52 125.582 123.28 125.582 125.82ZM126.882 117.72C126.882 117.14 127.302 116.72 127.902 116.72C128.522 116.72 128.922 117.14 128.922 117.72C128.922 118.32 128.522 118.74 127.902 118.74C127.302 118.74 126.882 118.32 126.882 117.72ZM130.782 117.72C130.782 117.14 131.202 116.72 131.802 116.72C132.402 116.72 132.822 117.14 132.822 117.72C132.822 118.32 132.402 118.74 131.802 118.74C131.202 118.74 130.782 118.32 130.782 117.72ZM142.885 131.26C139.785 131.26 137.605 129 137.605 125.82C137.605 122.64 139.785 120.4 142.885 120.4C145.345 120.4 147.365 121.86 147.965 124.1H146.785C146.105 122.46 144.665 121.52 142.885 121.52C140.445 121.52 138.765 123.28 138.765 125.82C138.765 128.38 140.445 130.14 142.885 130.14C144.785 130.14 146.265 129.08 146.845 127.38H148.065C147.365 129.8 145.425 131.26 142.885 131.26ZM151.22 131V116.2H152.38V122.54C153.2 121.12 154.64 120.4 156.26 120.4C158.94 120.4 160.58 122.26 160.58 125.24V131H159.42V125.34C159.42 122.96 158.16 121.52 156.1 121.52C153.92 121.52 152.38 123.14 152.38 125.62V131H151.22ZM168.042 131.26C165.422 131.26 163.762 129.94 163.682 127.88H164.822C164.942 129.34 166.082 130.2 168.062 130.2C169.882 130.2 170.982 129.5 170.982 128.36C170.982 127.28 170.002 126.62 167.802 126.24C165.102 125.78 163.882 124.82 163.882 123.24C163.882 121.48 165.382 120.4 167.802 120.4C170.242 120.4 171.782 121.56 171.942 123.54H170.782C170.662 122.18 169.602 121.44 167.802 121.44C166.082 121.44 165.042 122.14 165.042 123.26C165.042 124.28 165.902 124.84 168.202 125.28C170.822 125.78 172.122 126.82 172.122 128.38C172.122 130.12 170.542 131.26 168.042 131.26ZM179.385 131C177.185 131 176.005 129.76 176.005 127.42V121.72H173.745V120.66H175.065C175.845 120.66 176.065 120.46 176.145 119.7L176.245 118.12H177.165V120.66H180.745V121.72H177.165V127.38C177.165 129.08 177.865 129.88 179.425 129.88H180.885V131H179.385ZM187.866 131.26C184.726 131.26 182.586 129.04 182.586 125.82C182.586 122.62 184.746 120.4 187.886 120.4C191.146 120.4 193.246 122.8 193.166 126.3H183.766C183.966 128.64 185.566 130.16 187.866 130.16C189.546 130.16 190.886 129.38 191.566 128.04L192.866 128.06C192.066 130.04 190.186 131.26 187.866 131.26ZM183.766 125.28H192.026C191.746 122.94 190.146 121.5 187.886 121.5C185.586 121.5 183.966 123 183.766 125.28ZM196.337 131V120.66H197.317L197.417 122.66C198.237 121.18 199.677 120.4 201.337 120.4C204.037 120.4 205.697 122.3 205.697 125.28V131H204.537V125.38C204.537 123 203.257 121.52 201.197 121.52C199.017 121.52 197.497 123.18 197.497 125.64V131H196.337ZM218.933 131.26C216.273 131.26 214.633 129.36 214.633 126.38V120.66H215.793V126.28C215.793 128.64 217.053 130.14 219.093 130.14C221.233 130.14 222.713 128.46 222.713 126V120.66H223.873V131H222.913L222.793 128.98C221.993 130.48 220.553 131.26 218.933 131.26ZM227.998 131V120.66H228.978L229.078 122.66C229.898 121.18 231.338 120.4 232.998 120.4C235.698 120.4 237.358 122.3 237.358 125.28V131H236.198V125.38C236.198 123 234.918 121.52 232.858 121.52C230.678 121.52 229.158 123.18 229.158 125.64V131H227.998ZM245.127 131C242.927 131 241.747 129.76 241.747 127.42V121.72H239.487V120.66H240.807C241.587 120.66 241.807 120.46 241.887 119.7L241.987 118.12H242.907V120.66H246.487V121.72H242.907V127.38C242.907 129.08 243.607 129.88 245.167 129.88H246.627V131H245.127ZM253.608 131.26C250.468 131.26 248.328 129.04 248.328 125.82C248.328 122.62 250.488 120.4 253.628 120.4C256.888 120.4 258.988 122.8 258.908 126.3H249.508C249.708 128.64 251.308 130.16 253.608 130.16C255.288 130.16 256.628 129.38 257.308 128.04L258.608 128.06C257.808 130.04 255.928 131.26 253.608 131.26ZM249.508 125.28H257.768C257.488 122.94 255.888 121.5 253.628 121.5C251.328 121.5 249.708 123 249.508 125.28ZM262.08 131V120.66H263.06L263.18 122.98C263.88 121.42 265.06 120.66 266.98 120.66H267.84V121.74H266.94C264.72 121.74 263.24 123.1 263.24 126.24V131H262.08ZM279.702 131.26C276.582 131.26 274.402 128.96 274.402 125.82C274.402 122.68 276.582 120.4 279.702 120.4C281.602 120.4 283.142 121.24 284.062 122.58V116.2H285.222V131H284.262L284.122 128.96C283.222 130.38 281.642 131.26 279.702 131.26ZM275.562 125.82C275.562 128.36 277.302 130.14 279.842 130.14C282.362 130.14 284.102 128.36 284.102 125.82C284.102 123.3 282.362 121.52 279.842 121.52C277.302 121.52 275.562 123.3 275.562 125.82ZM293.725 131.26C290.585 131.26 288.445 129.04 288.445 125.82C288.445 122.62 290.605 120.4 293.745 120.4C297.005 120.4 299.105 122.8 299.025 126.3H289.625C289.825 128.64 291.425 130.16 293.725 130.16C295.405 130.16 296.745 129.38 297.425 128.04L298.725 128.06C297.925 130.04 296.045 131.26 293.725 131.26ZM289.625 125.28H297.885C297.605 122.94 296.005 121.5 293.745 121.5C291.445 121.5 289.825 123 289.625 125.28ZM302.197 131V120.66H303.177L303.277 122.66C304.097 121.18 305.537 120.4 307.197 120.4C309.897 120.4 311.557 122.3 311.557 125.28V131H310.397V125.38C310.397 123 309.117 121.52 307.057 121.52C304.877 121.52 303.357 123.18 303.357 125.64V131H302.197ZM112.26 160V146H120.5V147.14H113.48V152.3H119.98V153.42H113.48V158.86H120.72V160H112.26ZM124.248 160V149.66H125.228L125.348 151.98C126.048 150.42 127.228 149.66 129.148 149.66H130.008V150.74H129.108C126.888 150.74 125.408 152.1 125.408 155.24V160H124.248ZM135.893 160.26C133.273 160.26 131.613 158.94 131.533 156.88H132.673C132.793 158.34 133.933 159.2 135.913 159.2C137.733 159.2 138.833 158.5 138.833 157.36C138.833 156.28 137.853 155.62 135.653 155.24C132.953 154.78 131.733 153.82 131.733 152.24C131.733 150.48 133.233 149.4 135.653 149.4C138.093 149.4 139.633 150.56 139.793 152.54H138.633C138.513 151.18 137.453 150.44 135.653 150.44C133.933 150.44 132.893 151.14 132.893 152.26C132.893 153.28 133.753 153.84 136.053 154.28C138.673 154.78 139.973 155.82 139.973 157.38C139.973 159.12 138.393 160.26 135.893 160.26ZM147.237 160C145.037 160 143.857 158.76 143.857 156.42V150.72H141.597V149.66H142.917C143.697 149.66 143.917 149.46 143.997 148.7L144.097 147.12H145.017V149.66H148.597V150.72H145.017V156.38C145.017 158.08 145.717 158.88 147.277 158.88H148.737V160H147.237ZM155.21 160.26C152.59 160.26 150.93 158.94 150.85 156.88H151.99C152.11 158.34 153.25 159.2 155.23 159.2C157.05 159.2 158.15 158.5 158.15 157.36C158.15 156.28 157.17 155.62 154.97 155.24C152.27 154.78 151.05 153.82 151.05 152.24C151.05 150.48 152.55 149.4 154.97 149.4C157.41 149.4 158.95 150.56 159.11 152.54H157.95C157.83 151.18 156.77 150.44 154.97 150.44C153.25 150.44 152.21 151.14 152.21 152.26C152.21 153.28 153.07 153.84 155.37 154.28C157.99 154.78 159.29 155.82 159.29 157.38C159.29 159.12 157.71 160.26 155.21 160.26ZM167.026 160.26C163.886 160.26 161.746 158.04 161.746 154.82C161.746 151.62 163.906 149.4 167.046 149.4C170.306 149.4 172.406 151.8 172.326 155.3H162.926C163.126 157.64 164.726 159.16 167.026 159.16C168.706 159.16 170.046 158.38 170.726 157.04L172.026 157.06C171.226 159.04 169.346 160.26 167.026 160.26ZM162.926 154.28H171.186C170.906 151.94 169.306 150.5 167.046 150.5C164.746 150.5 163.126 152 162.926 154.28ZM175.498 160V149.66H176.478L176.578 151.34C177.298 150.08 178.558 149.4 180.158 149.4C181.958 149.4 183.338 150.3 183.938 151.88C184.638 150.3 186.058 149.4 187.878 149.4C190.478 149.4 192.158 151.18 192.158 154.06V160H190.998V154.24C190.998 151.94 189.718 150.52 187.738 150.52C185.718 150.52 184.398 151.98 184.398 154.32V160H183.238V154.24C183.238 151.94 181.978 150.52 179.998 150.52C177.978 150.52 176.658 151.98 176.658 154.32V160H175.498ZM200.424 160.26C197.284 160.26 195.144 158.04 195.144 154.82C195.144 151.62 197.304 149.4 200.444 149.4C203.704 149.4 205.804 151.8 205.724 155.3H196.324C196.524 157.64 198.124 159.16 200.424 159.16C202.104 159.16 203.444 158.38 204.124 157.04L205.424 157.06C204.624 159.04 202.744 160.26 200.424 160.26ZM196.324 154.28H204.584C204.304 151.94 202.704 150.5 200.444 150.5C198.144 150.5 196.524 152 196.324 154.28ZM212.456 160.26C209.836 160.26 208.176 158.94 208.096 156.88H209.236C209.356 158.34 210.496 159.2 212.476 159.2C214.296 159.2 215.396 158.5 215.396 157.36C215.396 156.28 214.416 155.62 212.216 155.24C209.516 154.78 208.296 153.82 208.296 152.24C208.296 150.48 209.796 149.4 212.216 149.4C214.656 149.4 216.196 150.56 216.356 152.54H215.196C215.076 151.18 214.016 150.44 212.216 150.44C210.496 150.44 209.456 151.14 209.456 152.26C209.456 153.28 210.316 153.84 212.616 154.28C215.236 154.78 216.536 155.82 216.536 157.38C216.536 159.12 214.956 160.26 212.456 160.26ZM223.799 160C221.599 160 220.419 158.76 220.419 156.42V150.72H218.159V149.66H219.479C220.259 149.66 220.479 149.46 220.559 148.7L220.659 147.12H221.579V149.66H225.159V150.72H221.579V156.38C221.579 158.08 222.279 158.88 223.839 158.88H225.299V160H223.799ZM232.28 160.26C229.14 160.26 227 158.04 227 154.82C227 151.62 229.16 149.4 232.3 149.4C235.56 149.4 237.66 151.8 237.58 155.3H228.18C228.38 157.64 229.98 159.16 232.28 159.16C233.96 159.16 235.3 158.38 235.98 157.04L237.28 157.06C236.48 159.04 234.6 160.26 232.28 160.26ZM228.18 154.28H236.44C236.16 151.94 234.56 150.5 232.3 150.5C230 150.5 228.38 152 228.18 154.28ZM240.751 160V149.66H241.731L241.851 151.98C242.551 150.42 243.731 149.66 245.651 149.66H246.511V150.74H245.611C243.391 150.74 241.911 152.1 241.911 155.24V160H240.751ZM247.635 155.46V154.38H253.535V155.46H247.635ZM116.76 189.26C113.56 189.26 111.5 187.54 111.4 184.84H112.6C112.72 186.9 114.34 188.1 116.76 188.1C119.06 188.1 120.48 187.08 120.48 185.46C120.48 184 119.34 183.14 116.52 182.52C113.08 181.72 111.62 180.56 111.62 178.46C111.62 176.22 113.44 174.74 116.42 174.74C119.5 174.74 121.38 176.3 121.48 179H120.28C120.18 177.02 118.76 175.9 116.42 175.9C114.16 175.9 112.84 176.92 112.84 178.46C112.84 179.86 113.88 180.72 116.82 181.38C120.36 182.2 121.72 183.44 121.72 185.44C121.72 187.78 119.8 189.26 116.76 189.26ZM129.151 189C126.951 189 125.771 187.76 125.771 185.42V179.72H123.511V178.66H124.831C125.611 178.66 125.831 178.46 125.911 177.7L126.011 176.12H126.931V178.66H130.511V179.72H126.931V185.38C126.931 187.08 127.631 187.88 129.191 187.88H130.651V189H129.151ZM137.703 189.26C135.043 189.26 133.403 187.36 133.403 184.38V178.66H134.563V184.28C134.563 186.64 135.823 188.14 137.863 188.14C140.003 188.14 141.483 186.46 141.483 184V178.66H142.643V189H141.683L141.562 186.98C140.763 188.48 139.323 189.26 137.703 189.26ZM151.167 189.26C148.047 189.26 145.867 186.96 145.867 183.82C145.867 180.68 148.047 178.4 151.167 178.4C153.067 178.4 154.607 179.24 155.527 180.58V174.2H156.687V189H155.727L155.587 186.96C154.687 188.38 153.107 189.26 151.167 189.26ZM147.027 183.82C147.027 186.36 148.767 188.14 151.307 188.14C153.827 188.14 155.567 186.36 155.567 183.82C155.567 181.3 153.827 179.52 151.307 179.52C148.767 179.52 147.027 181.3 147.027 183.82ZM165.19 189.26C162.05 189.26 159.91 187.04 159.91 183.82C159.91 180.62 162.07 178.4 165.21 178.4C168.47 178.4 170.57 180.8 170.49 184.3H161.09C161.29 186.64 162.89 188.16 165.19 188.16C166.87 188.16 168.21 187.38 168.89 186.04L170.19 186.06C169.39 188.04 167.51 189.26 165.19 189.26ZM161.09 183.28H169.35C169.07 180.94 167.47 179.5 165.21 179.5C162.91 179.5 161.29 181 161.09 183.28ZM173.662 189V178.66H174.642L174.742 180.66C175.562 179.18 177.002 178.4 178.662 178.4C181.362 178.4 183.022 180.3 183.022 183.28V189H181.862V183.38C181.862 181 180.582 179.52 178.522 179.52C176.342 179.52 174.822 181.18 174.822 183.64V189H173.662ZM190.791 189C188.591 189 187.411 187.76 187.411 185.42V179.72H185.151V178.66H186.471C187.251 178.66 187.471 178.46 187.551 177.7L187.651 176.12H188.571V178.66H192.151V179.72H188.571V185.38C188.571 187.08 189.271 187.88 190.831 187.88H192.291V189H190.791ZM199.272 189.26C196.132 189.26 193.992 187.04 193.992 183.82C193.992 180.62 196.152 178.4 199.292 178.4C202.552 178.4 204.652 180.8 204.572 184.3H195.172C195.372 186.64 196.972 188.16 199.272 188.16C200.952 188.16 202.292 187.38 202.972 186.04L204.272 186.06C203.472 188.04 201.592 189.26 199.272 189.26ZM195.172 183.28H203.432C203.152 180.94 201.552 179.5 199.292 179.5C196.992 179.5 195.372 181 195.172 183.28ZM207.744 189V178.66H208.724L208.824 180.66C209.644 179.18 211.084 178.4 212.744 178.4C215.444 178.4 217.104 180.3 217.104 183.28V189H215.944V183.38C215.944 181 214.664 179.52 212.604 179.52C210.424 179.52 208.904 181.18 208.904 183.64V189H207.744ZM229.597 189.16C227.197 189.16 225.697 187.98 225.697 186.08C225.697 184.24 227.097 183.08 229.217 183.08H233.777V182.34C233.777 180.62 232.517 179.48 230.597 179.48C229.037 179.48 227.817 180.28 227.397 181.52H226.217C226.717 179.6 228.377 178.4 230.577 178.4C233.157 178.4 234.937 179.98 234.937 182.28V189H233.977L233.857 187.22C232.957 188.46 231.437 189.16 229.597 189.16ZM226.857 186.06C226.857 187.32 227.917 188.12 229.637 188.12C232.037 188.12 233.797 186.62 233.797 184.54V184.1H229.257C227.837 184.1 226.857 184.88 226.857 186.06ZM238.837 189V178.66H239.817L239.917 180.66C240.737 179.18 242.177 178.4 243.837 178.4C246.537 178.4 248.197 180.3 248.197 183.28V189H247.037V183.38C247.037 181 245.757 179.52 243.697 179.52C241.517 179.52 239.997 181.18 239.997 183.64V189H238.837ZM261.382 189.26C258.262 189.26 256.082 186.96 256.082 183.82C256.082 180.68 258.262 178.4 261.382 178.4C263.282 178.4 264.822 179.24 265.742 180.58V174.2H266.902V189H265.942L265.802 186.96C264.902 188.38 263.322 189.26 261.382 189.26ZM257.242 183.82C257.242 186.36 258.982 188.14 261.522 188.14C264.042 188.14 265.782 186.36 265.782 183.82C265.782 181.3 264.042 179.52 261.522 179.52C258.982 179.52 257.242 181.3 257.242 183.82ZM275.405 189.26C272.265 189.26 270.125 187.04 270.125 183.82C270.125 180.62 272.285 178.4 275.425 178.4C278.685 178.4 280.785 180.8 280.705 184.3H271.305C271.505 186.64 273.105 188.16 275.405 188.16C277.085 188.16 278.425 187.38 279.105 186.04L280.405 186.06C279.605 188.04 277.725 189.26 275.405 189.26ZM271.305 183.28H279.565C279.285 180.94 277.685 179.5 275.425 179.5C273.125 179.5 271.505 181 271.305 183.28ZM283.876 189V178.66H284.856L284.976 180.98C285.676 179.42 286.856 178.66 288.776 178.66H289.636V179.74H288.736C286.516 179.74 285.036 181.1 285.036 184.24V189H283.876ZM117.36 218.24C114.08 218.24 112.08 216.08 112.08 212.48V204H113.28V212.42C113.28 215.4 114.76 217.06 117.36 217.06C119.96 217.06 121.44 215.4 121.44 212.42V204H122.64V212.48C122.64 216.08 120.64 218.24 117.36 218.24ZM126.787 218V207.66H127.767L127.867 209.66C128.687 208.18 130.127 207.4 131.787 207.4C134.487 207.4 136.147 209.3 136.147 212.28V218H134.987V212.38C134.987 210 133.707 208.52 131.647 208.52C129.467 208.52 127.947 210.18 127.947 212.64V218H126.787ZM140.048 218V207.66H141.208V218H140.048ZM139.568 204.72C139.568 204.14 139.988 203.68 140.628 203.68C141.268 203.68 141.688 204.14 141.688 204.72C141.688 205.32 141.268 205.78 140.628 205.78C139.988 205.78 139.568 205.32 139.568 204.72ZM148.282 218L143.662 207.66H144.922L146.722 211.66L148.862 216.48L150.982 211.66L152.802 207.66H154.042L149.422 218H148.282ZM160.503 218.26C157.363 218.26 155.223 216.04 155.223 212.82C155.223 209.62 157.383 207.4 160.523 207.4C163.783 207.4 165.883 209.8 165.803 213.3H156.403C156.603 215.64 158.203 217.16 160.503 217.16C162.183 217.16 163.523 216.38 164.203 215.04L165.503 215.06C164.703 217.04 162.823 218.26 160.503 218.26ZM156.403 212.28H164.663C164.383 209.94 162.783 208.5 160.523 208.5C158.223 208.5 156.603 210 156.403 212.28ZM168.974 218V207.66H169.954L170.074 209.98C170.774 208.42 171.954 207.66 173.874 207.66H174.734V208.74H173.834C171.614 208.74 170.134 210.1 170.134 213.24V218H168.974ZM180.62 218.26C178 218.26 176.34 216.94 176.26 214.88H177.4C177.52 216.34 178.66 217.2 180.64 217.2C182.46 217.2 183.56 216.5 183.56 215.36C183.56 214.28 182.58 213.62 180.38 213.24C177.68 212.78 176.46 211.82 176.46 210.24C176.46 208.48 177.96 207.4 180.38 207.4C182.82 207.4 184.36 208.56 184.52 210.54H183.36C183.24 209.18 182.18 208.44 180.38 208.44C178.66 208.44 177.62 209.14 177.62 210.26C177.62 211.28 178.48 211.84 180.78 212.28C183.4 212.78 184.7 213.82 184.7 215.38C184.7 217.12 183.12 218.26 180.62 218.26ZM188.056 218V207.66H189.216V218H188.056ZM187.576 204.72C187.576 204.14 187.996 203.68 188.636 203.68C189.276 203.68 189.696 204.14 189.696 204.72C189.696 205.32 189.276 205.78 188.636 205.78C187.996 205.78 187.576 205.32 187.576 204.72ZM197.53 218C195.33 218 194.15 216.76 194.15 214.42V208.72H191.89V207.66H193.21C193.99 207.66 194.21 207.46 194.29 206.7L194.39 205.12H195.31V207.66H198.89V208.72H195.31V214.38C195.31 216.08 196.01 216.88 197.57 216.88H199.03V218H197.53ZM205.027 218.16C202.627 218.16 201.127 216.98 201.127 215.08C201.127 213.24 202.527 212.08 204.647 212.08H209.207V211.34C209.207 209.62 207.947 208.48 206.027 208.48C204.467 208.48 203.247 209.28 202.827 210.52H201.647C202.147 208.6 203.807 207.4 206.007 207.4C208.587 207.4 210.367 208.98 210.367 211.28V218H209.407L209.287 216.22C208.387 217.46 206.867 218.16 205.027 218.16ZM202.287 215.06C202.287 216.32 203.347 217.12 205.067 217.12C207.467 217.12 209.227 215.62 209.227 213.54V213.1H204.687C203.267 213.1 202.287 213.88 202.287 215.06ZM203.047 204.72C203.047 204.14 203.467 203.72 204.067 203.72C204.667 203.72 205.087 204.14 205.087 204.72C205.087 205.32 204.667 205.74 204.067 205.74C203.467 205.74 203.047 205.32 203.047 204.72ZM206.927 204.72C206.927 204.14 207.347 203.72 207.947 203.72C208.547 203.72 208.967 204.14 208.967 204.72C208.967 205.32 208.547 205.74 207.947 205.74C207.347 205.74 206.927 205.32 206.927 204.72ZM218.135 218C215.935 218 214.755 216.76 214.755 214.42V208.72H212.495V207.66H213.815C214.595 207.66 214.815 207.46 214.895 206.7L214.995 205.12H215.915V207.66H219.495V208.72H215.915V214.38C215.915 216.08 216.615 216.88 218.175 216.88H219.635V218H218.135ZM223.104 218.12C222.464 218.12 222.044 217.68 222.044 217.08C222.044 216.48 222.464 216.04 223.104 216.04C223.744 216.04 224.164 216.48 224.164 217.08C224.164 217.68 223.744 218.12 223.104 218.12Z" fill="black"/>
<path d="M83.2233 133V90.5141H70.2929V85.9362H77.762C81.7777 85.9362 82.9824 85.0528 83.5446 81.6796L84.1068 76.7805H88.0422V133H83.2233Z" fill="black"/>
<path d="M292.707 304V301.895L306.301 289.354C309.688 286.241 311.244 283.724 311.244 280.84C311.244 276.675 308.132 273.837 303.692 273.837C299.115 273.837 295.957 276.858 295.774 281.664H293.165C293.348 275.485 297.559 271.366 303.646 271.366C309.642 271.366 313.899 275.302 313.899 280.84C313.899 284.41 312.068 287.752 308.086 291.413L297.193 301.391H314.723V304H292.707Z" fill="black"/>
<path d="M155.662 346.382C151.757 346.382 149.114 344.033 148.879 340.392H150.641C150.817 342.976 152.784 344.649 155.662 344.649C158.745 344.649 160.741 342.77 160.741 339.951C160.741 337.133 158.715 335.283 155.691 335.283H152.637V333.991L159.097 327.12H149.29V325.447H161.74V326.768L155.251 333.639H155.662C159.743 333.639 162.503 336.193 162.503 340.01C162.503 343.798 159.743 346.382 155.662 346.382Z" fill="black"/>
<path d="M354.26 223V209H358.7C361.94 209 363.86 210.7 363.86 213.6C363.86 216.5 361.94 218.2 358.7 218.2H355.48V223H354.26ZM355.48 217.08H358.68C361.3 217.08 362.64 215.9 362.64 213.62C362.64 211.34 361.3 210.16 358.68 210.16H355.48V217.08ZM366.853 223V212.66H367.833L367.953 214.98C368.653 213.42 369.833 212.66 371.753 212.66H372.613V213.74H371.713C369.493 213.74 368.013 215.1 368.013 218.24V223H366.853ZM377.925 223.16C375.525 223.16 374.025 221.98 374.025 220.08C374.025 218.24 375.425 217.08 377.545 217.08H382.105V216.34C382.105 214.62 380.845 213.48 378.925 213.48C377.365 213.48 376.145 214.28 375.725 215.52H374.545C375.045 213.6 376.705 212.4 378.905 212.4C381.485 212.4 383.265 213.98 383.265 216.28V223H382.305L382.185 221.22C381.285 222.46 379.765 223.16 377.925 223.16ZM375.185 220.06C375.185 221.32 376.245 222.12 377.965 222.12C380.365 222.12 382.125 220.62 382.125 218.54V218.1H377.585C376.165 218.1 375.185 218.88 375.185 220.06ZM375.945 209.72C375.945 209.14 376.365 208.72 376.965 208.72C377.565 208.72 377.985 209.14 377.985 209.72C377.985 210.32 377.565 210.74 376.965 210.74C376.365 210.74 375.945 210.32 375.945 209.72ZM379.825 209.72C379.825 209.14 380.245 208.72 380.845 208.72C381.445 208.72 381.865 209.14 381.865 209.72C381.865 210.32 381.445 210.74 380.845 210.74C380.245 210.74 379.825 210.32 379.825 209.72ZM389.696 223L385.076 212.66H386.336L388.136 216.66L390.276 221.48L392.396 216.66L394.216 212.66H395.456L390.836 223H389.696ZM401.917 223.26C398.777 223.26 396.637 221.04 396.637 217.82C396.637 214.62 398.797 212.4 401.937 212.4C405.197 212.4 407.297 214.8 407.217 218.3H397.817C398.017 220.64 399.617 222.16 401.917 222.16C403.597 222.16 404.937 221.38 405.617 220.04L406.917 220.06C406.117 222.04 404.237 223.26 401.917 223.26ZM397.817 217.28H406.077C405.797 214.94 404.197 213.5 401.937 213.5C399.637 213.5 398.017 215 397.817 217.28ZM410.388 223V212.66H411.368L411.468 214.66C412.288 213.18 413.728 212.4 415.388 212.4C418.088 212.4 419.748 214.3 419.748 217.28V223H418.588V217.38C418.588 215 417.308 213.52 415.248 213.52C413.068 213.52 411.548 215.18 411.548 217.64V223H410.388ZM427.518 223C425.318 223 424.138 221.76 424.138 219.42V213.72H421.878V212.66H423.198C423.978 212.66 424.198 212.46 424.278 211.7L424.378 210.12H425.298V212.66H428.878V213.72H425.298V219.38C425.298 221.08 425.998 221.88 427.558 221.88H429.018V223H427.518ZM432.126 223V212.66H433.286V223H432.126ZM431.646 209.72C431.646 209.14 432.066 208.68 432.706 208.68C433.346 208.68 433.766 209.14 433.766 209.72C433.766 210.32 433.346 210.78 432.706 210.78C432.066 210.78 431.646 210.32 431.646 209.72ZM440.36 223L435.74 212.66H437L438.8 216.66L440.94 221.48L443.06 216.66L444.88 212.66H446.12L441.5 223H440.36ZM452.581 223.26C449.441 223.26 447.301 221.04 447.301 217.82C447.301 214.62 449.461 212.4 452.601 212.4C455.861 212.4 457.961 214.8 457.881 218.3H448.481C448.681 220.64 450.281 222.16 452.581 222.16C454.261 222.16 455.601 221.38 456.281 220.04L457.581 220.06C456.781 222.04 454.901 223.26 452.581 223.26ZM448.481 217.28H456.741C456.461 214.94 454.861 213.5 452.601 213.5C450.301 213.5 448.681 215 448.481 217.28ZM354.26 252V238H361.98V239.14H355.48V244.64H361.46V245.76H355.48V252H354.26ZM367.593 252.16C365.193 252.16 363.693 250.98 363.693 249.08C363.693 247.24 365.093 246.08 367.213 246.08H371.773V245.34C371.773 243.62 370.513 242.48 368.593 242.48C367.033 242.48 365.813 243.28 365.393 244.52H364.213C364.713 242.6 366.373 241.4 368.573 241.4C371.153 241.4 372.933 242.98 372.933 245.28V252H371.973L371.853 250.22C370.953 251.46 369.433 252.16 367.593 252.16ZM364.853 249.06C364.853 250.32 365.913 251.12 367.633 251.12C370.033 251.12 371.793 249.62 371.793 247.54V247.1H367.253C365.833 247.1 364.853 247.88 364.853 249.06ZM376.833 252V237.2H377.993V246.2H379.513C381.433 246.2 382.273 245.7 382.933 243.96L383.813 241.66H385.053L384.013 244.4C383.553 245.56 383.013 246.3 382.193 246.74L385.553 252H384.173L381.113 247.14C380.633 247.24 380.093 247.28 379.473 247.28H377.993V252H376.833ZM392.342 252C390.142 252 388.962 250.76 388.962 248.42V242.72H386.702V241.66H388.022C388.802 241.66 389.022 241.46 389.102 240.7L389.202 239.12H390.122V241.66H393.702V242.72H390.122V248.38C390.122 250.08 390.822 250.88 392.382 250.88H393.842V252H392.342ZM400.983 252.26C397.783 252.26 395.543 250.02 395.543 246.82C395.543 243.64 397.783 241.4 400.983 241.4C404.163 241.4 406.403 243.64 406.403 246.82C406.403 250.02 404.163 252.26 400.983 252.26ZM396.703 246.82C396.703 249.38 398.443 251.14 400.983 251.14C403.503 251.14 405.243 249.38 405.243 246.82C405.243 244.28 403.503 242.52 400.983 242.52C398.443 242.52 396.703 244.28 396.703 246.82ZM409.626 252V241.66H410.606L410.726 243.98C411.426 242.42 412.606 241.66 414.526 241.66H415.386V242.74H414.486C412.266 242.74 410.786 244.1 410.786 247.24V252H409.626ZM421.878 252.26C418.738 252.26 416.598 250.04 416.598 246.82C416.598 243.62 418.758 241.4 421.898 241.4C425.158 241.4 427.258 243.8 427.178 247.3H417.778C417.978 249.64 419.578 251.16 421.878 251.16C423.558 251.16 424.898 250.38 425.578 249.04L426.878 249.06C426.078 251.04 424.198 252.26 421.878 252.26ZM417.778 246.28H426.038C425.758 243.94 424.158 242.5 421.898 242.5C419.598 242.5 417.978 244 417.778 246.28ZM430.349 252V241.66H431.329L431.429 243.66C432.249 242.18 433.689 241.4 435.349 241.4C438.049 241.4 439.709 243.3 439.709 246.28V252H438.549V246.38C438.549 244 437.269 242.52 435.209 242.52C433.029 242.52 431.509 244.18 431.509 246.64V252H430.349ZM358.14 281.26C355.48 281.26 353.84 279.36 353.84 276.38V270.66H355V276.28C355 278.64 356.26 280.14 358.3 280.14C360.44 280.14 361.92 278.46 361.92 276V270.66H363.08V281H362.12L362 278.98C361.2 280.48 359.76 281.26 358.14 281.26ZM367.205 281V270.66H368.185L368.285 272.34C369.005 271.08 370.265 270.4 371.865 270.4C373.665 270.4 375.045 271.3 375.645 272.88C376.345 271.3 377.765 270.4 379.585 270.4C382.185 270.4 383.865 272.18 383.865 275.06V281H382.705V275.24C382.705 272.94 381.425 271.52 379.445 271.52C377.425 271.52 376.105 272.98 376.105 275.32V281H374.945V275.24C374.945 272.94 373.685 271.52 371.705 271.52C369.685 271.52 368.365 272.98 368.365 275.32V281H367.205ZM388.537 269.46C388.537 267.1 389.697 265.94 391.997 265.94H393.617V267.04H392.097C390.417 267.04 389.697 267.78 389.697 269.54V270.66H393.517V271.72H389.697V281H388.537V271.72H386.177V270.66H388.537V269.46ZM398.609 281.16C396.209 281.16 394.709 279.98 394.709 278.08C394.709 276.24 396.109 275.08 398.229 275.08H402.789V274.34C402.789 272.62 401.529 271.48 399.609 271.48C398.049 271.48 396.829 272.28 396.409 273.52H395.229C395.729 271.6 397.389 270.4 399.589 270.4C402.169 270.4 403.949 271.98 403.949 274.28V281H402.989L402.869 279.22C401.969 280.46 400.449 281.16 398.609 281.16ZM395.869 278.06C395.869 279.32 396.929 280.12 398.649 280.12C401.049 280.12 402.809 278.62 402.809 276.54V276.1H398.269C396.849 276.1 395.869 276.88 395.869 278.06ZM411.409 281.26C408.789 281.26 407.129 279.94 407.049 277.88H408.189C408.309 279.34 409.449 280.2 411.429 280.2C413.249 280.2 414.349 279.5 414.349 278.36C414.349 277.28 413.369 276.62 411.169 276.24C408.469 275.78 407.249 274.82 407.249 273.24C407.249 271.48 408.749 270.4 411.169 270.4C413.609 270.4 415.149 271.56 415.309 273.54H414.149C414.029 272.18 412.969 271.44 411.169 271.44C409.449 271.44 408.409 272.14 408.409 273.26C408.409 274.28 409.269 274.84 411.569 275.28C414.189 275.78 415.489 276.82 415.489 278.38C415.489 280.12 413.909 281.26 411.409 281.26ZM422.405 281.26C419.785 281.26 418.125 279.94 418.045 277.88H419.185C419.305 279.34 420.445 280.2 422.425 280.2C424.245 280.2 425.345 279.5 425.345 278.36C425.345 277.28 424.365 276.62 422.165 276.24C419.465 275.78 418.245 274.82 418.245 273.24C418.245 271.48 419.745 270.4 422.165 270.4C424.605 270.4 426.145 271.56 426.305 273.54H425.145C425.025 272.18 423.965 271.44 422.165 271.44C420.445 271.44 419.405 272.14 419.405 273.26C419.405 274.28 420.265 274.84 422.565 275.28C425.185 275.78 426.485 276.82 426.485 278.38C426.485 280.12 424.905 281.26 422.405 281.26ZM433.748 281C431.548 281 430.368 279.76 430.368 277.42V271.72H428.108V270.66H429.428C430.208 270.66 430.428 270.46 430.508 269.7L430.608 268.12H431.528V270.66H435.108V271.72H431.528V277.38C431.528 279.08 432.228 279.88 433.788 279.88H435.248V281H433.748ZM442.229 281.26C439.089 281.26 436.949 279.04 436.949 275.82C436.949 272.62 439.109 270.4 442.249 270.4C445.509 270.4 447.609 272.8 447.529 276.3H438.129C438.329 278.64 439.929 280.16 442.229 280.16C443.909 280.16 445.249 279.38 445.929 278.04L447.229 278.06C446.429 280.04 444.549 281.26 442.229 281.26ZM438.129 275.28H446.389C446.109 272.94 444.509 271.5 442.249 271.5C439.949 271.5 438.329 273 438.129 275.28ZM450.701 281V270.66H451.681L451.781 272.66C452.601 271.18 454.041 270.4 455.701 270.4C458.401 270.4 460.061 272.3 460.061 275.28V281H458.901V275.38C458.901 273 457.621 271.52 455.561 271.52C453.381 271.52 451.861 273.18 451.861 275.64V281H450.701ZM358.44 310.26C355.3 310.26 353.16 308.04 353.16 304.82C353.16 301.62 355.32 299.4 358.46 299.4C361.72 299.4 363.82 301.8 363.74 305.3H354.34C354.54 307.64 356.14 309.16 358.44 309.16C360.12 309.16 361.46 308.38 362.14 307.04L363.44 307.06C362.64 309.04 360.76 310.26 358.44 310.26ZM354.34 304.28H362.6C362.32 301.94 360.72 300.5 358.46 300.5C356.16 300.5 354.54 302 354.34 304.28ZM375.298 298.46C375.298 296.12 376.478 294.94 378.818 294.94H380.378V296.04H378.918C377.198 296.04 376.458 296.78 376.458 298.54V299.66H380.278V300.72H376.458V310H375.298V300.72H368.798V310H367.638V300.72H365.278V299.66H367.638V298.46C367.638 296.12 368.818 294.94 371.158 294.94H372.718V296.04H371.258C369.538 296.04 368.798 296.78 368.798 298.54V299.66H375.298V298.46ZM386.682 310.26C383.542 310.26 381.402 308.04 381.402 304.82C381.402 301.62 383.562 299.4 386.702 299.4C389.962 299.4 392.062 301.8 391.982 305.3H382.582C382.782 307.64 384.382 309.16 386.682 309.16C388.362 309.16 389.702 308.38 390.382 307.04L391.682 307.06C390.882 309.04 389.002 310.26 386.682 310.26ZM382.582 304.28H390.842C390.562 301.94 388.962 300.5 386.702 300.5C384.402 300.5 382.782 302 382.582 304.28ZM395.154 310V295.2H396.314V304.2H397.834C399.754 304.2 400.594 303.7 401.254 301.96L402.134 299.66H403.374L402.334 302.4C401.874 303.56 401.334 304.3 400.514 304.74L403.874 310H402.494L399.434 305.14C398.954 305.24 398.414 305.28 397.794 305.28H396.314V310H395.154ZM410.662 310C408.462 310 407.282 308.76 407.282 306.42V300.72H405.022V299.66H406.342C407.122 299.66 407.342 299.46 407.422 298.7L407.522 297.12H408.442V299.66H412.022V300.72H408.442V306.38C408.442 308.08 409.142 308.88 410.702 308.88H412.162V310H410.662ZM415.271 310V299.66H416.431V310H415.271ZM414.791 296.72C414.791 296.14 415.211 295.68 415.851 295.68C416.491 295.68 416.911 296.14 416.911 296.72C416.911 297.32 416.491 297.78 415.851 297.78C415.211 297.78 414.791 297.32 414.791 296.72ZM423.504 310L418.884 299.66H420.144L421.944 303.66L424.084 308.48L426.204 303.66L428.024 299.66H429.264L424.644 310H423.504ZM435.725 310.26C432.585 310.26 430.445 308.04 430.445 304.82C430.445 301.62 432.605 299.4 435.745 299.4C439.005 299.4 441.105 301.8 441.025 305.3H431.625C431.825 307.64 433.425 309.16 435.725 309.16C437.405 309.16 438.745 308.38 439.425 307.04L440.725 307.06C439.925 309.04 438.045 310.26 435.725 310.26ZM431.625 304.28H439.885C439.605 301.94 438.005 300.5 435.745 300.5C433.445 300.5 431.825 302 431.625 304.28ZM353.16 339V338.1L361.14 326.16H353.34V325H362.74V325.92L354.76 337.84H362.92V339H353.16ZM369.592 339.26C366.452 339.26 364.312 337.04 364.312 333.82C364.312 330.62 366.472 328.4 369.612 328.4C372.872 328.4 374.972 330.8 374.892 334.3H365.492C365.692 336.64 367.292 338.16 369.592 338.16C371.272 338.16 372.612 337.38 373.292 336.04L374.592 336.06C373.792 338.04 371.912 339.26 369.592 339.26ZM365.492 333.28H373.752C373.472 330.94 371.872 329.5 369.612 329.5C367.312 329.5 365.692 331 365.492 333.28ZM378.064 339V328.66H379.224V339H378.064ZM377.584 325.72C377.584 325.14 378.004 324.68 378.644 324.68C379.284 324.68 379.704 325.14 379.704 325.72C379.704 326.32 379.284 326.78 378.644 326.78C378.004 326.78 377.584 326.32 377.584 325.72ZM387.537 339C385.337 339 384.157 337.76 384.157 335.42V329.72H381.897V328.66H383.217C383.997 328.66 384.217 328.46 384.297 327.7L384.397 326.12H385.317V328.66H388.897V329.72H385.317V335.38C385.317 337.08 386.017 337.88 387.577 337.88H389.037V339H387.537ZM397.666 339.26C395.766 339.26 394.226 338.4 393.306 337.04V343H392.146V328.66H393.126L393.246 330.72C394.146 329.28 395.726 328.4 397.666 328.4C400.806 328.4 402.966 330.68 402.966 333.82C402.966 336.96 400.806 339.26 397.666 339.26ZM393.266 333.82C393.266 336.36 395.006 338.14 397.546 338.14C400.086 338.14 401.806 336.36 401.806 333.82C401.806 331.3 400.086 329.52 397.546 329.52C395.006 329.52 393.266 331.3 393.266 333.82ZM406.189 339V324.2H407.349V339H406.189ZM414.702 339.16C412.302 339.16 410.802 337.98 410.802 336.08C410.802 334.24 412.202 333.08 414.322 333.08H418.882V332.34C418.882 330.62 417.622 329.48 415.702 329.48C414.142 329.48 412.922 330.28 412.502 331.52H411.322C411.822 329.6 413.482 328.4 415.682 328.4C418.262 328.4 420.042 329.98 420.042 332.28V339H419.082L418.962 337.22C418.062 338.46 416.542 339.16 414.702 339.16ZM411.962 336.06C411.962 337.32 413.022 338.12 414.742 338.12C417.142 338.12 418.902 336.62 418.902 334.54V334.1H414.362C412.942 334.1 411.962 334.88 411.962 336.06ZM423.943 339V328.66H424.923L425.023 330.66C425.843 329.18 427.283 328.4 428.943 328.4C431.643 328.4 433.303 330.3 433.303 333.28V339H432.143V333.38C432.143 331 430.863 329.52 428.803 329.52C426.623 329.52 425.103 331.18 425.103 333.64V339H423.943ZM441.285 339.26C438.625 339.26 436.985 337.36 436.985 334.38V328.66H438.145V334.28C438.145 336.64 439.405 338.14 441.445 338.14C443.585 338.14 445.065 336.46 445.065 334V328.66H446.225V339H445.265L445.145 336.98C444.345 338.48 442.905 339.26 441.285 339.26ZM450.349 339V328.66H451.329L451.429 330.66C452.249 329.18 453.689 328.4 455.349 328.4C458.049 328.4 459.709 330.3 459.709 333.28V339H458.549V333.38C458.549 331 457.269 329.52 455.209 329.52C453.029 329.52 451.509 331.18 451.509 333.64V339H450.349ZM468.151 343.26C465.611 343.26 463.731 341.92 463.331 339.82H464.511C464.851 341.26 466.251 342.16 468.151 342.16C470.531 342.16 472.051 340.76 472.051 338.54V336.86C471.131 338.12 469.651 338.88 467.891 338.88C464.871 338.88 462.711 336.68 462.711 333.64C462.711 330.6 464.871 328.4 467.891 328.4C469.711 328.4 471.211 329.2 472.131 330.52L472.231 328.66H473.211V338.58C473.211 341.36 471.171 343.26 468.151 343.26ZM463.871 333.64C463.871 336.06 465.571 337.74 468.011 337.74C470.431 337.74 472.131 336.06 472.131 333.64C472.131 331.22 470.431 329.52 468.011 329.52C465.571 329.52 463.871 331.22 463.871 333.64ZM477.162 340.92C477.842 340.6 478.242 339.84 478.182 338.98C478.002 339.06 477.822 339.1 477.642 339.1C477.062 339.1 476.622 338.66 476.622 338.08C476.622 337.5 477.062 337.04 477.722 337.04C478.542 337.04 479.102 337.72 479.102 338.78C479.102 340.22 478.262 341.46 477.162 341.7V340.92ZM354.06 368V353.2H355.22V362.2H356.74C358.66 362.2 359.5 361.7 360.16 359.96L361.04 357.66H362.28L361.24 360.4C360.78 361.56 360.24 362.3 359.42 362.74L362.78 368H361.4L358.34 363.14C357.86 363.24 357.32 363.28 356.7 363.28H355.22V368H354.06ZM369.85 368.26C366.65 368.26 364.41 366.02 364.41 362.82C364.41 359.64 366.65 357.4 369.85 357.4C373.03 357.4 375.27 359.64 375.27 362.82C375.27 366.02 373.03 368.26 369.85 368.26ZM365.57 362.82C365.57 365.38 367.31 367.14 369.85 367.14C372.37 367.14 374.11 365.38 374.11 362.82C374.11 360.28 372.37 358.52 369.85 358.52C367.31 358.52 365.57 360.28 365.57 362.82ZM366.87 354.72C366.87 354.14 367.29 353.72 367.89 353.72C368.51 353.72 368.91 354.14 368.91 354.72C368.91 355.32 368.51 355.74 367.89 355.74C367.29 355.74 366.87 355.32 366.87 354.72ZM370.77 354.72C370.77 354.14 371.19 353.72 371.79 353.72C372.39 353.72 372.81 354.14 372.81 354.72C372.81 355.32 372.39 355.74 371.79 355.74C371.19 355.74 370.77 355.32 370.77 354.72ZM378.494 368V357.66H379.474L379.594 359.98C380.294 358.42 381.474 357.66 383.394 357.66H384.254V358.74H383.354C381.134 358.74 379.654 360.1 379.654 363.24V368H378.494ZM392.685 368.26C390.785 368.26 389.245 367.4 388.325 366.04V372H387.165V357.66H388.145L388.265 359.72C389.165 358.28 390.745 357.4 392.685 357.4C395.825 357.4 397.985 359.68 397.985 362.82C397.985 365.96 395.825 368.26 392.685 368.26ZM388.285 362.82C388.285 365.36 390.025 367.14 392.565 367.14C395.105 367.14 396.825 365.36 396.825 362.82C396.825 360.3 395.105 358.52 392.565 358.52C390.025 358.52 388.285 360.3 388.285 362.82ZM405.588 368.26C402.448 368.26 400.308 366.04 400.308 362.82C400.308 359.62 402.468 357.4 405.608 357.4C408.868 357.4 410.968 359.8 410.888 363.3H401.488C401.688 365.64 403.288 367.16 405.588 367.16C407.268 367.16 408.608 366.38 409.288 365.04L410.588 365.06C409.788 367.04 407.908 368.26 405.588 368.26ZM401.488 362.28H409.748C409.468 359.94 407.868 358.5 405.608 358.5C403.308 358.5 401.688 360 401.488 362.28ZM414.06 368V357.66H415.04L415.16 359.98C415.86 358.42 417.04 357.66 418.96 357.66H419.82V358.74H418.92C416.7 358.74 415.22 360.1 415.22 363.24V368H414.06ZM422.732 368V353.2H423.892V368H422.732ZM428.005 368V357.66H429.165V368H428.005ZM427.525 354.72C427.525 354.14 427.945 353.68 428.585 353.68C429.225 353.68 429.645 354.14 429.645 354.72C429.645 355.32 429.225 355.78 428.585 355.78C427.945 355.78 427.525 355.32 427.525 354.72ZM437.659 368.26C434.559 368.26 432.379 366 432.379 362.82C432.379 359.64 434.559 357.4 437.659 357.4C440.119 357.4 442.139 358.86 442.739 361.1H441.559C440.879 359.46 439.439 358.52 437.659 358.52C435.219 358.52 433.539 360.28 433.539 362.82C433.539 365.38 435.219 367.14 437.659 367.14C439.559 367.14 441.039 366.08 441.619 364.38H442.839C442.139 366.8 440.199 368.26 437.659 368.26ZM445.994 368V353.2H447.154V359.54C447.974 358.12 449.414 357.4 451.034 357.4C453.714 357.4 455.354 359.26 455.354 362.24V368H454.194V362.34C454.194 359.96 452.934 358.52 450.874 358.52C448.694 358.52 447.154 360.14 447.154 362.62V368H445.994ZM463.635 368.26C460.495 368.26 458.355 366.04 458.355 362.82C458.355 359.62 460.515 357.4 463.655 357.4C466.915 357.4 469.015 359.8 468.935 363.3H459.535C459.735 365.64 461.335 367.16 463.635 367.16C465.315 367.16 466.655 366.38 467.335 365.04L468.635 365.06C467.835 367.04 465.955 368.26 463.635 368.26ZM459.535 362.28H467.795C467.515 359.94 465.915 358.5 463.655 358.5C461.355 358.5 459.735 360 459.535 362.28ZM352.44 397L358.24 383H359.4L365.2 397H363.92L362.46 393.48H355.18L353.74 397H352.44ZM355.66 392.36H362L358.82 384.66L355.66 392.36ZM367.712 397V382.2H368.872V391.2H370.392C372.312 391.2 373.152 390.7 373.812 388.96L374.692 386.66H375.932L374.892 389.4C374.432 390.56 373.892 391.3 373.072 391.74L376.432 397H375.052L371.992 392.14C371.512 392.24 370.972 392.28 370.352 392.28H368.872V397H367.712ZM383.221 397C381.021 397 379.841 395.76 379.841 393.42V387.72H377.581V386.66H378.901C379.681 386.66 379.901 386.46 379.981 385.7L380.081 384.12H381.001V386.66H384.581V387.72H381.001V393.38C381.001 395.08 381.701 395.88 383.261 395.88H384.721V397H383.221ZM387.83 397V386.66H388.99V397H387.83ZM387.35 383.72C387.35 383.14 387.77 382.68 388.41 382.68C389.05 382.68 389.47 383.14 389.47 383.72C389.47 384.32 389.05 384.78 388.41 384.78C387.77 384.78 387.35 384.32 387.35 383.72ZM396.063 397L391.443 386.66H392.703L394.503 390.66L396.643 395.48L398.763 390.66L400.583 386.66H401.823L397.203 397H396.063ZM404.294 397V386.66H405.454V397H404.294ZM403.814 383.72C403.814 383.14 404.234 382.68 404.874 382.68C405.514 382.68 405.934 383.14 405.934 383.72C405.934 384.32 405.514 384.78 404.874 384.78C404.234 384.78 403.814 384.32 403.814 383.72ZM413.768 397C411.568 397 410.388 395.76 410.388 393.42V387.72H408.128V386.66H409.448C410.228 386.66 410.448 386.46 410.528 385.7L410.628 384.12H411.548V386.66H415.128V387.72H411.548V393.38C411.548 395.08 412.248 395.88 413.808 395.88H415.268V397H413.768ZM421.265 397.16C418.865 397.16 417.365 395.98 417.365 394.08C417.365 392.24 418.765 391.08 420.885 391.08H425.445V390.34C425.445 388.62 424.185 387.48 422.265 387.48C420.705 387.48 419.485 388.28 419.065 389.52H417.885C418.385 387.6 420.045 386.4 422.245 386.4C424.825 386.4 426.605 387.98 426.605 390.28V397H425.645L425.525 395.22C424.625 396.46 423.105 397.16 421.265 397.16ZM418.525 394.06C418.525 395.32 419.585 396.12 421.305 396.12C423.705 396.12 425.465 394.62 425.465 392.54V392.1H420.925C419.505 392.1 418.525 392.88 418.525 394.06ZM419.285 383.72C419.285 383.14 419.705 382.72 420.305 382.72C420.905 382.72 421.325 383.14 421.325 383.72C421.325 384.32 420.905 384.74 420.305 384.74C419.705 384.74 419.285 384.32 419.285 383.72ZM423.165 383.72C423.165 383.14 423.585 382.72 424.185 382.72C424.785 382.72 425.205 383.14 425.205 383.72C425.205 384.32 424.785 384.74 424.185 384.74C423.585 384.74 423.165 384.32 423.165 383.72ZM434.373 397C432.173 397 430.993 395.76 430.993 393.42V387.72H428.733V386.66H430.053C430.833 386.66 431.053 386.46 431.133 385.7L431.233 384.12H432.153V386.66H435.733V387.72H432.153V393.38C432.153 395.08 432.853 395.88 434.413 395.88H435.873V397H434.373ZM448.316 397.26C445.656 397.26 444.016 395.36 444.016 392.38V386.66H445.176V392.28C445.176 394.64 446.436 396.14 448.476 396.14C450.616 396.14 452.096 394.46 452.096 392V386.66H453.256V397H452.296L452.176 394.98C451.376 396.48 449.936 397.26 448.316 397.26ZM457.38 397V386.66H458.36L458.46 388.66C459.28 387.18 460.72 386.4 462.38 386.4C465.08 386.4 466.74 388.3 466.74 391.28V397H465.58V391.38C465.58 389 464.3 387.52 462.24 387.52C460.06 387.52 458.54 389.18 458.54 391.64V397H457.38ZM475.042 397.26C471.922 397.26 469.742 394.96 469.742 391.82C469.742 388.68 471.922 386.4 475.042 386.4C476.942 386.4 478.482 387.24 479.402 388.58V382.2H480.562V397H479.602L479.462 394.96C478.562 396.38 476.982 397.26 475.042 397.26ZM470.902 391.82C470.902 394.36 472.642 396.14 475.182 396.14C477.702 396.14 479.442 394.36 479.442 391.82C479.442 389.3 477.702 387.52 475.182 387.52C472.642 387.52 470.902 389.3 470.902 391.82ZM354.26 426V412H361.98V413.14H355.48V418.64H361.46V419.76H355.48V426H354.26ZM364.705 426V415.66H365.685L365.805 417.98C366.505 416.42 367.685 415.66 369.605 415.66H370.465V416.74H369.565C367.345 416.74 365.865 418.1 365.865 421.24V426H364.705ZM376.956 426.26C373.816 426.26 371.676 424.04 371.676 420.82C371.676 417.62 373.836 415.4 376.976 415.4C380.236 415.4 382.336 417.8 382.256 421.3H372.856C373.056 423.64 374.656 425.16 376.956 425.16C378.636 425.16 379.976 424.38 380.656 423.04L381.956 423.06C381.156 425.04 379.276 426.26 376.956 426.26ZM372.856 420.28H381.116C380.836 417.94 379.236 416.5 376.976 416.5C374.676 416.5 373.056 418 372.856 420.28ZM385.427 426V415.66H386.587V426H385.427ZM384.947 412.72C384.947 412.14 385.367 411.68 386.007 411.68C386.647 411.68 387.067 412.14 387.067 412.72C387.067 413.32 386.647 413.78 386.007 413.78C385.367 413.78 384.947 413.32 384.947 412.72ZM389.701 426V425.1L396.421 416.72H389.941V415.66H397.981V416.54L391.301 424.92H398.121V426H389.701ZM405.295 426.26C402.155 426.26 400.015 424.04 400.015 420.82C400.015 417.62 402.175 415.4 405.315 415.4C408.575 415.4 410.675 417.8 410.595 421.3H401.195C401.395 423.64 402.995 425.16 405.295 425.16C406.975 425.16 408.315 424.38 408.995 423.04L410.295 423.06C409.495 425.04 407.615 426.26 405.295 426.26ZM401.195 420.28H409.455C409.175 417.94 407.575 416.5 405.315 416.5C403.015 416.5 401.395 418 401.195 420.28ZM413.767 426V415.66H414.927V426H413.767ZM413.287 412.72C413.287 412.14 413.707 411.68 414.347 411.68C414.987 411.68 415.407 412.14 415.407 412.72C415.407 413.32 414.987 413.78 414.347 413.78C413.707 413.78 413.287 413.32 413.287 412.72ZM423.24 426C421.04 426 419.86 424.76 419.86 422.42V416.72H417.6V415.66H418.92C419.7 415.66 419.92 415.46 420 414.7L420.1 413.12H421.02V415.66H424.6V416.72H421.02V422.38C421.02 424.08 421.72 424.88 423.28 424.88H424.74V426H423.24ZM430.738 426.16C428.338 426.16 426.838 424.98 426.838 423.08C426.838 421.24 428.238 420.08 430.358 420.08H434.918V419.34C434.918 417.62 433.658 416.48 431.738 416.48C430.178 416.48 428.958 417.28 428.538 418.52H427.358C427.858 416.6 429.518 415.4 431.718 415.4C434.298 415.4 436.078 416.98 436.078 419.28V426H435.118L434.998 424.22C434.098 425.46 432.578 426.16 430.738 426.16ZM427.998 423.06C427.998 424.32 429.058 425.12 430.778 425.12C433.178 425.12 434.938 423.62 434.938 421.54V421.1H430.398C428.978 421.1 427.998 421.88 427.998 423.06ZM439.978 426V411.2H441.138V420.2H442.658C444.578 420.2 445.418 419.7 446.078 417.96L446.958 415.66H448.198L447.158 418.4C446.698 419.56 446.158 420.3 445.338 420.74L448.698 426H447.318L444.258 421.14C443.778 421.24 443.238 421.28 442.618 421.28H441.138V426H439.978ZM455.487 426C453.287 426 452.107 424.76 452.107 422.42V416.72H449.847V415.66H451.167C451.947 415.66 452.167 415.46 452.247 414.7L452.347 413.12H453.267V415.66H456.847V416.72H453.267V422.38C453.267 424.08 453.967 424.88 455.527 424.88H456.987V426H455.487ZM460.095 426V415.66H461.255V426H460.095ZM459.615 412.72C459.615 412.14 460.035 411.68 460.675 411.68C461.315 411.68 461.735 412.14 461.735 412.72C461.735 413.32 461.315 413.78 460.675 413.78C460.035 413.78 459.615 413.32 459.615 412.72ZM468.329 426L463.709 415.66H464.969L466.769 419.66L468.909 424.48L471.029 419.66L472.849 415.66H474.089L469.469 426H468.329ZM476.56 426V415.66H477.72V426H476.56ZM476.08 412.72C476.08 412.14 476.5 411.68 477.14 411.68C477.78 411.68 478.2 412.14 478.2 412.72C478.2 413.32 477.78 413.78 477.14 413.78C476.5 413.78 476.08 413.32 476.08 412.72ZM486.033 426C483.833 426 482.653 424.76 482.653 422.42V416.72H480.393V415.66H481.713C482.493 415.66 482.713 415.46 482.793 414.7L482.893 413.12H483.813V415.66H487.393V416.72H483.813V422.38C483.813 424.08 484.513 424.88 486.073 424.88H487.533V426H486.033ZM493.53 426.16C491.13 426.16 489.63 424.98 489.63 423.08C489.63 421.24 491.03 420.08 493.15 420.08H497.71V419.34C497.71 417.62 496.45 416.48 494.53 416.48C492.97 416.48 491.75 417.28 491.33 418.52H490.15C490.65 416.6 492.31 415.4 494.51 415.4C497.09 415.4 498.87 416.98 498.87 419.28V426H497.91L497.79 424.22C496.89 425.46 495.37 426.16 493.53 426.16ZM490.79 423.06C490.79 424.32 491.85 425.12 493.57 425.12C495.97 425.12 497.73 423.62 497.73 421.54V421.1H493.19C491.77 421.1 490.79 421.88 490.79 423.06ZM491.55 412.72C491.55 412.14 491.97 411.72 492.57 411.72C493.17 411.72 493.59 412.14 493.59 412.72C493.59 413.32 493.17 413.74 492.57 413.74C491.97 413.74 491.55 413.32 491.55 412.72ZM495.43 412.72C495.43 412.14 495.85 411.72 496.45 411.72C497.05 411.72 497.47 412.14 497.47 412.72C497.47 413.32 497.05 413.74 496.45 413.74C495.85 413.74 495.43 413.32 495.43 412.72ZM506.639 426C504.439 426 503.259 424.76 503.259 422.42V416.72H500.999V415.66H502.319C503.099 415.66 503.319 415.46 503.399 414.7L503.499 413.12H504.419V415.66H507.999V416.72H504.419V422.38C504.419 424.08 505.119 424.88 506.679 424.88H508.139V426H506.639ZM515.12 426.26C511.98 426.26 509.84 424.04 509.84 420.82C509.84 417.62 512 415.4 515.14 415.4C518.4 415.4 520.5 417.8 520.42 421.3H511.02C511.22 423.64 512.82 425.16 515.12 425.16C516.8 425.16 518.14 424.38 518.82 423.04L520.12 423.06C519.32 425.04 517.44 426.26 515.12 426.26ZM511.02 420.28H519.28C519 417.94 517.4 416.5 515.14 416.5C512.84 416.5 511.22 418 511.02 420.28ZM523.591 426V415.66H524.571L524.671 417.66C525.491 416.18 526.931 415.4 528.591 415.4C531.291 415.4 532.951 417.3 532.951 420.28V426H531.791V420.38C531.791 418 530.511 416.52 528.451 416.52C526.271 416.52 524.751 418.18 524.751 420.64V426H523.591ZM537.213 426.12C536.573 426.12 536.153 425.68 536.153 425.08C536.153 424.48 536.573 424.04 537.213 424.04C537.853 424.04 538.273 424.48 538.273 425.08C538.273 425.68 537.853 426.12 537.213 426.12Z" fill="black"/>
<path d="M28.26 434V420H32.68C37.14 420 39.96 422.78 39.96 427C39.96 431.22 37.14 434 32.68 434H28.26ZM29.48 432.84H32.68C36.4 432.84 38.72 430.56 38.72 427C38.72 423.44 36.38 421.16 32.64 421.16H29.48V432.84ZM46.3781 434.16C43.9781 434.16 42.4781 432.98 42.4781 431.08C42.4781 429.24 43.8781 428.08 45.9981 428.08H50.5581V427.34C50.5581 425.62 49.2981 424.48 47.3781 424.48C45.8181 424.48 44.5981 425.28 44.1781 426.52H42.9981C43.4981 424.6 45.1581 423.4 47.3581 423.4C49.9381 423.4 51.7181 424.98 51.7181 427.28V434H50.7581L50.6381 432.22C49.7381 433.46 48.2181 434.16 46.3781 434.16ZM43.6381 431.06C43.6381 432.32 44.6981 433.12 46.4181 433.12C48.8181 433.12 50.5781 431.62 50.5781 429.54V429.1H46.0381C44.6181 429.1 43.6381 429.88 43.6381 431.06ZM59.1786 434.26C56.5586 434.26 54.8986 432.94 54.8186 430.88H55.9586C56.0786 432.34 57.2186 433.2 59.1986 433.2C61.0186 433.2 62.1186 432.5 62.1186 431.36C62.1186 430.28 61.1386 429.62 58.9386 429.24C56.2386 428.78 55.0186 427.82 55.0186 426.24C55.0186 424.48 56.5186 423.4 58.9386 423.4C61.3786 423.4 62.9186 424.56 63.0786 426.54H61.9186C61.7986 425.18 60.7386 424.44 58.9386 424.44C57.2186 424.44 56.1786 425.14 56.1786 426.26C56.1786 427.28 57.0386 427.84 59.3386 428.28C61.9586 428.78 63.2586 429.82 63.2586 431.38C63.2586 433.12 61.6786 434.26 59.1786 434.26ZM77.2702 434.26C73.1302 434.26 70.1902 431.24 70.1902 427C70.1902 422.76 73.1302 419.74 77.2302 419.74C80.4702 419.74 83.0102 421.6 83.9102 424.32H82.5902C81.7102 422.24 79.7902 420.96 77.2902 420.96C73.8102 420.96 71.4302 423.42 71.4302 427C71.4302 430.58 73.8302 433.04 77.2902 433.04C80.5502 433.04 82.7702 430.86 83.0302 427.8H76.8302V426.64H84.3302C84.3702 431.08 81.5302 434.26 77.2702 434.26ZM91.8541 434.26C88.7141 434.26 86.5741 432.04 86.5741 428.82C86.5741 425.62 88.7341 423.4 91.8741 423.4C95.1341 423.4 97.2341 425.8 97.1541 429.3H87.7541C87.9541 431.64 89.5541 433.16 91.8541 433.16C93.5341 433.16 94.8741 432.38 95.5541 431.04L96.8541 431.06C96.0541 433.04 94.1741 434.26 91.8541 434.26ZM87.7541 428.28H96.0141C95.7341 425.94 94.1341 424.5 91.8741 424.5C89.5741 424.5 87.9541 426 87.7541 428.28ZM101.052 422.46C101.052 420.1 102.212 418.94 104.512 418.94H106.132V420.04H104.612C102.932 420.04 102.212 420.78 102.212 422.54V423.66H106.032V424.72H102.212V434H101.052V424.72H98.6922V423.66H101.052V422.46ZM112.472 434.26C109.812 434.26 108.172 432.36 108.172 429.38V423.66H109.332V429.28C109.332 431.64 110.592 433.14 112.632 433.14C114.772 433.14 116.252 431.46 116.252 429V423.66H117.412V434H116.452L116.332 431.98C115.532 433.48 114.092 434.26 112.472 434.26ZM109.832 420.72C109.832 420.14 110.232 419.72 110.852 419.72C111.452 419.72 111.872 420.14 111.872 420.72C111.872 421.32 111.452 421.74 110.852 421.74C110.232 421.74 109.832 421.32 109.832 420.72ZM113.712 420.72C113.712 420.14 114.132 419.72 114.732 419.72C115.332 419.72 115.752 420.14 115.752 420.72C115.752 421.32 115.332 421.74 114.732 421.74C114.132 421.74 113.712 421.32 113.712 420.72ZM121.537 434V419.2H122.697V425.54C123.517 424.12 124.957 423.4 126.577 423.4C129.257 423.4 130.897 425.26 130.897 428.24V434H129.737V428.34C129.737 425.96 128.477 424.52 126.417 424.52C124.237 424.52 122.697 426.14 122.697 428.62V434H121.537ZM134.798 434V419.2H135.958V434H134.798ZM139.912 435.92C140.592 435.6 140.992 434.84 140.932 433.98C140.752 434.06 140.572 434.1 140.392 434.1C139.812 434.1 139.372 433.66 139.372 433.08C139.372 432.5 139.812 432.04 140.472 432.04C141.292 432.04 141.852 432.72 141.852 433.78C141.852 435.22 141.012 436.46 139.912 436.7V435.92ZM154.55 434.26C151.43 434.26 149.25 431.96 149.25 428.82C149.25 425.68 151.43 423.4 154.55 423.4C156.45 423.4 157.99 424.24 158.91 425.58V419.2H160.07V434H159.11L158.97 431.96C158.07 433.38 156.49 434.26 154.55 434.26ZM150.41 428.82C150.41 431.36 152.15 433.14 154.69 433.14C157.21 433.14 158.95 431.36 158.95 428.82C158.95 426.3 157.21 424.52 154.69 424.52C152.15 424.52 150.41 426.3 150.41 428.82ZM164.193 434V423.66H165.353V434H164.193ZM163.713 420.72C163.713 420.14 164.133 419.68 164.773 419.68C165.413 419.68 165.833 420.14 165.833 420.72C165.833 421.32 165.413 421.78 164.773 421.78C164.133 421.78 163.713 421.32 163.713 420.72ZM173.846 434.26C170.706 434.26 168.566 432.04 168.566 428.82C168.566 425.62 170.726 423.4 173.866 423.4C177.126 423.4 179.226 425.8 179.146 429.3H169.746C169.946 431.64 171.546 433.16 173.846 433.16C175.526 433.16 176.866 432.38 177.546 431.04L178.846 431.06C178.046 433.04 176.166 434.26 173.846 434.26ZM169.746 428.28H178.006C177.726 425.94 176.126 424.5 173.866 424.5C171.566 424.5 169.946 426 169.746 428.28ZM187.401 434V420H188.621V426.3H190.841C193.021 426.3 193.941 425.56 194.581 423.9L196.061 420H197.341L195.661 424.38C195.221 425.52 194.641 426.32 193.741 426.82L197.921 434H196.521L192.621 427.26C192.101 427.4 191.521 427.46 190.841 427.46H188.621V434H187.401ZM204.358 434.26C201.158 434.26 198.918 432.02 198.918 428.82C198.918 425.64 201.158 423.4 204.358 423.4C207.538 423.4 209.778 425.64 209.778 428.82C209.778 432.02 207.538 434.26 204.358 434.26ZM200.078 428.82C200.078 431.38 201.818 433.14 204.358 433.14C206.878 433.14 208.618 431.38 208.618 428.82C208.618 426.28 206.878 424.52 204.358 424.52C201.818 424.52 200.078 426.28 200.078 428.82ZM213.001 434V423.66H213.981L214.081 425.66C214.901 424.18 216.341 423.4 218.001 423.4C220.701 423.4 222.361 425.3 222.361 428.28V434H221.201V428.38C221.201 426 219.921 424.52 217.861 424.52C215.681 424.52 214.161 426.18 214.161 428.64V434H213.001ZM230.131 434C227.931 434 226.751 432.76 226.751 430.42V424.72H224.491V423.66H225.811C226.591 423.66 226.811 423.46 226.891 422.7L226.991 421.12H227.911V423.66H231.491V424.72H227.911V430.38C227.911 432.08 228.611 432.88 230.171 432.88H231.631V434H230.131ZM234.74 434V423.66H235.72L235.84 425.98C236.54 424.42 237.72 423.66 239.64 423.66H240.5V424.74H239.6C237.38 424.74 235.9 426.1 235.9 429.24V434H234.74ZM247.151 434.26C243.951 434.26 241.711 432.02 241.711 428.82C241.711 425.64 243.951 423.4 247.151 423.4C250.331 423.4 252.571 425.64 252.571 428.82C252.571 432.02 250.331 434.26 247.151 434.26ZM242.871 428.82C242.871 431.38 244.611 433.14 247.151 433.14C249.671 433.14 251.411 431.38 251.411 428.82C251.411 426.28 249.671 424.52 247.151 424.52C244.611 424.52 242.871 426.28 242.871 428.82ZM255.794 434V419.2H256.954V434H255.794ZM261.068 434V419.2H262.228V434H261.068ZM270.721 434.26C267.581 434.26 265.441 432.04 265.441 428.82C265.441 425.62 267.601 423.4 270.741 423.4C274.001 423.4 276.101 425.8 276.021 429.3H266.621C266.821 431.64 268.421 433.16 270.721 433.16C272.401 433.16 273.741 432.38 274.421 431.04L275.721 431.06C274.921 433.04 273.041 434.26 270.721 434.26ZM266.621 428.28H274.881C274.601 425.94 273.001 424.5 270.741 424.5C268.441 424.5 266.821 426 266.621 428.28ZM32.14 463.26C29.48 463.26 27.84 461.36 27.84 458.38V452.66H29V458.28C29 460.64 30.26 462.14 32.3 462.14C34.44 462.14 35.92 460.46 35.92 458V452.66H37.08V463H36.12L36 460.98C35.2 462.48 33.76 463.26 32.14 463.26ZM29.5 449.72C29.5 449.14 29.9 448.72 30.52 448.72C31.12 448.72 31.54 449.14 31.54 449.72C31.54 450.32 31.12 450.74 30.52 450.74C29.9 450.74 29.5 450.32 29.5 449.72ZM33.38 449.72C33.38 449.14 33.8 448.72 34.4 448.72C35 448.72 35.42 449.14 35.42 449.72C35.42 450.32 35 450.74 34.4 450.74C33.8 450.74 33.38 450.32 33.38 449.72ZM46.7245 463.26C44.7845 463.26 43.2045 462.36 42.3045 460.94L42.1845 463H41.2045V448.2H42.3645V454.62C43.2845 453.24 44.8245 452.4 46.7245 452.4C49.8645 452.4 52.0245 454.68 52.0245 457.82C52.0245 460.96 49.8645 463.26 46.7245 463.26ZM42.3245 457.82C42.3245 460.36 44.0645 462.14 46.6045 462.14C49.1445 462.14 50.8645 460.36 50.8645 457.82C50.8645 455.3 49.1445 453.52 46.6045 453.52C44.0645 453.52 42.3245 455.3 42.3245 457.82ZM59.6275 463.26C56.4875 463.26 54.3475 461.04 54.3475 457.82C54.3475 454.62 56.5075 452.4 59.6475 452.4C62.9075 452.4 65.0075 454.8 64.9275 458.3H55.5275C55.7275 460.64 57.3275 462.16 59.6275 462.16C61.3075 462.16 62.6475 461.38 63.3275 460.04L64.6275 460.06C63.8275 462.04 61.9475 463.26 59.6275 463.26ZM55.5275 457.28H63.7875C63.5075 454.94 61.9075 453.5 59.6475 453.5C57.3475 453.5 55.7275 455 55.5275 457.28ZM68.0991 463V452.66H69.0791L69.1991 454.98C69.8991 453.42 71.0791 452.66 72.9991 452.66H73.8591V453.74H72.9591C70.7391 453.74 69.2591 455.1 69.2591 458.24V463H68.0991ZM85.7217 463.26C82.6017 463.26 80.4217 460.96 80.4217 457.82C80.4217 454.68 82.6017 452.4 85.7217 452.4C87.6217 452.4 89.1617 453.24 90.0817 454.58V448.2H91.2417V463H90.2817L90.1417 460.96C89.2417 462.38 87.6617 463.26 85.7217 463.26ZM81.5817 457.82C81.5817 460.36 83.3217 462.14 85.8617 462.14C88.3817 462.14 90.1217 460.36 90.1217 457.82C90.1217 455.3 88.3817 453.52 85.8617 453.52C83.3217 453.52 81.5817 455.3 81.5817 457.82ZM95.3647 463V452.66H96.5247V463H95.3647ZM94.8847 449.72C94.8847 449.14 95.3047 448.68 95.9447 448.68C96.5847 448.68 97.0047 449.14 97.0047 449.72C97.0047 450.32 96.5847 450.78 95.9447 450.78C95.3047 450.78 94.8847 450.32 94.8847 449.72ZM105.018 463.26C101.878 463.26 99.7381 461.04 99.7381 457.82C99.7381 454.62 101.898 452.4 105.038 452.4C108.298 452.4 110.398 454.8 110.318 458.3H100.918C101.118 460.64 102.718 462.16 105.018 462.16C106.698 462.16 108.038 461.38 108.718 460.04L110.018 460.06C109.218 462.04 107.338 463.26 105.018 463.26ZM100.918 457.28H109.178C108.898 454.94 107.298 453.5 105.038 453.5C102.738 453.5 101.118 455 100.918 457.28ZM122.284 463.26C119.144 463.26 117.004 461.04 117.004 457.82C117.004 454.62 119.164 452.4 122.304 452.4C125.564 452.4 127.664 454.8 127.584 458.3H118.184C118.384 460.64 119.984 462.16 122.284 462.16C123.964 462.16 125.304 461.38 125.984 460.04L127.284 460.06C126.484 462.04 124.604 463.26 122.284 463.26ZM118.184 457.28H126.444C126.164 454.94 124.564 453.5 122.304 453.5C120.004 453.5 118.384 455 118.184 457.28ZM130.755 463V452.66H131.915V463H130.755ZM130.275 449.72C130.275 449.14 130.695 448.68 131.335 448.68C131.975 448.68 132.395 449.14 132.395 449.72C132.395 450.32 131.975 450.78 131.335 450.78C130.695 450.78 130.275 450.32 130.275 449.72ZM140.569 467.26C138.029 467.26 136.149 465.92 135.749 463.82H136.929C137.269 465.26 138.669 466.16 140.569 466.16C142.949 466.16 144.469 464.76 144.469 462.54V460.86C143.549 462.12 142.069 462.88 140.309 462.88C137.289 462.88 135.129 460.68 135.129 457.64C135.129 454.6 137.289 452.4 140.309 452.4C142.129 452.4 143.629 453.2 144.549 454.52L144.649 452.66H145.629V462.58C145.629 465.36 143.589 467.26 140.569 467.26ZM136.289 457.64C136.289 460.06 137.989 461.74 140.429 461.74C142.849 461.74 144.549 460.06 144.549 457.64C144.549 455.22 142.849 453.52 140.429 453.52C137.989 453.52 136.289 455.22 136.289 457.64ZM154.12 463.26C150.98 463.26 148.84 461.04 148.84 457.82C148.84 454.62 151 452.4 154.14 452.4C157.4 452.4 159.5 454.8 159.42 458.3H150.02C150.22 460.64 151.82 462.16 154.12 462.16C155.8 462.16 157.14 461.38 157.82 460.04L159.12 460.06C158.32 462.04 156.44 463.26 154.12 463.26ZM150.02 457.28H158.28C158 454.94 156.4 453.5 154.14 453.5C151.84 453.5 150.22 455 150.02 457.28ZM162.591 463V452.66H163.571L163.671 454.66C164.491 453.18 165.931 452.4 167.591 452.4C170.291 452.4 171.951 454.3 171.951 457.28V463H170.791V457.38C170.791 455 169.511 453.52 167.451 453.52C165.271 453.52 163.751 455.18 163.751 457.64V463H162.591ZM180.233 463.26C177.093 463.26 174.953 461.04 174.953 457.82C174.953 454.62 177.113 452.4 180.253 452.4C183.513 452.4 185.613 454.8 185.533 458.3H176.133C176.333 460.64 177.933 462.16 180.233 462.16C181.913 462.16 183.253 461.38 183.933 460.04L185.233 460.06C184.433 462.04 182.553 463.26 180.233 463.26ZM176.133 457.28H184.393C184.113 454.94 182.513 453.5 180.253 453.5C177.953 453.5 176.333 455 176.133 457.28ZM192.687 463V462.1L200.667 450.16H192.867V449H202.267V449.92L194.287 461.84H202.447V463H192.687ZM209.12 463.26C205.98 463.26 203.84 461.04 203.84 457.82C203.84 454.62 206 452.4 209.14 452.4C212.4 452.4 214.5 454.8 214.42 458.3H205.02C205.22 460.64 206.82 462.16 209.12 462.16C210.8 462.16 212.14 461.38 212.82 460.04L214.12 460.06C213.32 462.04 211.44 463.26 209.12 463.26ZM205.02 457.28H213.28C213 454.94 211.4 453.5 209.14 453.5C206.84 453.5 205.22 455 205.02 457.28ZM217.591 463V452.66H218.751V463H217.591ZM217.111 449.72C217.111 449.14 217.531 448.68 218.171 448.68C218.811 448.68 219.231 449.14 219.231 449.72C219.231 450.32 218.811 450.78 218.171 450.78C217.531 450.78 217.111 450.32 217.111 449.72ZM227.065 463C224.865 463 223.685 461.76 223.685 459.42V453.72H221.425V452.66H222.745C223.525 452.66 223.745 452.46 223.825 451.7L223.925 450.12H224.845V452.66H228.425V453.72H224.845V459.38C224.845 461.08 225.545 461.88 227.105 461.88H228.565V463H227.065ZM236.025 463V462.1L242.745 453.72H236.265V452.66H244.305V453.54L237.625 461.92H244.445V463H236.025ZM251.437 463.26C248.777 463.26 247.137 461.36 247.137 458.38V452.66H248.297V458.28C248.297 460.64 249.557 462.14 251.597 462.14C253.737 462.14 255.217 460.46 255.217 458V452.66H256.377V463H255.417L255.297 460.98C254.497 462.48 253.057 463.26 251.437 463.26ZM28.06 492V477.2H29.22V483.54C30.04 482.12 31.48 481.4 33.1 481.4C35.78 481.4 37.42 483.26 37.42 486.24V492H36.26V486.34C36.26 483.96 35 482.52 32.94 482.52C30.76 482.52 29.22 484.14 29.22 486.62V492H28.06ZM44.5617 492.16C42.1617 492.16 40.6617 490.98 40.6617 489.08C40.6617 487.24 42.0617 486.08 44.1817 486.08H48.7417V485.34C48.7417 483.62 47.4817 482.48 45.5617 482.48C44.0017 482.48 42.7817 483.28 42.3617 484.52H41.1817C41.6817 482.6 43.3417 481.4 45.5417 481.4C48.1217 481.4 49.9017 482.98 49.9017 485.28V492H48.9417L48.8217 490.22C47.9217 491.46 46.4017 492.16 44.5617 492.16ZM41.8217 489.06C41.8217 490.32 42.8817 491.12 44.6017 491.12C47.0017 491.12 48.7617 489.62 48.7617 487.54V487.1H44.2217C42.8017 487.1 41.8217 487.88 41.8217 489.06ZM59.3222 492.26C57.3822 492.26 55.8022 491.36 54.9022 489.94L54.7822 492H53.8022V477.2H54.9622V483.62C55.8822 482.24 57.4222 481.4 59.3222 481.4C62.4622 481.4 64.6222 483.68 64.6222 486.82C64.6222 489.96 62.4622 492.26 59.3222 492.26ZM54.9222 486.82C54.9222 489.36 56.6622 491.14 59.2022 491.14C61.7422 491.14 63.4622 489.36 63.4622 486.82C63.4622 484.3 61.7422 482.52 59.2022 482.52C56.6622 482.52 54.9222 484.3 54.9222 486.82ZM72.2252 492.26C69.0852 492.26 66.9452 490.04 66.9452 486.82C66.9452 483.62 69.1052 481.4 72.2452 481.4C75.5052 481.4 77.6052 483.8 77.5252 487.3H68.1252C68.3252 489.64 69.9252 491.16 72.2252 491.16C73.9052 491.16 75.2452 490.38 75.9252 489.04L77.2252 489.06C76.4252 491.04 74.5452 492.26 72.2252 492.26ZM68.1252 486.28H76.3852C76.1052 483.94 74.5052 482.5 72.2452 482.5C69.9452 482.5 68.3252 484 68.1252 486.28ZM80.6967 492V481.66H81.6767L81.7767 483.66C82.5967 482.18 84.0367 481.4 85.6967 481.4C88.3967 481.4 90.0567 483.3 90.0567 486.28V492H88.8967V486.38C88.8967 484 87.6167 482.52 85.5567 482.52C83.3767 482.52 81.8567 484.18 81.8567 486.64V492H80.6967ZM93.7984 493.92C94.4784 493.6 94.8784 492.84 94.8184 491.98C94.6384 492.06 94.4584 492.1 94.2784 492.1C93.6984 492.1 93.2584 491.66 93.2584 491.08C93.2584 490.5 93.6984 490.04 94.3584 490.04C95.1784 490.04 95.7384 490.72 95.7384 491.78C95.7384 493.22 94.8984 494.46 93.7984 494.7V493.92ZM104.724 480.46C104.724 478.1 105.884 476.94 108.184 476.94H109.804V478.04H108.284C106.604 478.04 105.884 478.78 105.884 480.54V481.66H109.704V482.72H105.884V492H104.724V482.72H102.364V481.66H104.724V480.46ZM116.144 492.26C113.484 492.26 111.844 490.36 111.844 487.38V481.66H113.004V487.28C113.004 489.64 114.264 491.14 116.304 491.14C118.444 491.14 119.924 489.46 119.924 487V481.66H121.084V492H120.124L120.004 489.98C119.204 491.48 117.764 492.26 116.144 492.26ZM113.504 478.72C113.504 478.14 113.904 477.72 114.524 477.72C115.124 477.72 115.544 478.14 115.544 478.72C115.544 479.32 115.124 479.74 114.524 479.74C113.904 479.74 113.504 479.32 113.504 478.72ZM117.384 478.72C117.384 478.14 117.804 477.72 118.404 477.72C119.004 477.72 119.424 478.14 119.424 478.72C119.424 479.32 119.004 479.74 118.404 479.74C117.804 479.74 117.384 479.32 117.384 478.72ZM125.208 492V477.2H126.368V483.54C127.188 482.12 128.628 481.4 130.248 481.4C132.928 481.4 134.568 483.26 134.568 486.24V492H133.408V486.34C133.408 483.96 132.148 482.52 130.088 482.52C127.908 482.52 126.368 484.14 126.368 486.62V492H125.208ZM138.47 492V481.66H139.45L139.57 483.98C140.27 482.42 141.45 481.66 143.37 481.66H144.23V482.74H143.33C141.11 482.74 139.63 484.1 139.63 487.24V492H138.47ZM151.342 492C149.142 492 147.962 490.76 147.962 488.42V482.72H145.702V481.66H147.022C147.802 481.66 148.022 481.46 148.102 480.7L148.202 479.12H149.122V481.66H152.702V482.72H149.122V488.38C149.122 490.08 149.822 490.88 151.382 490.88H152.842V492H151.342ZM160.302 492V491.1L167.022 482.72H160.542V481.66H168.582V482.54L161.902 490.92H168.722V492H160.302ZM175.714 492.26C173.054 492.26 171.414 490.36 171.414 487.38V481.66H172.574V487.28C172.574 489.64 173.834 491.14 175.874 491.14C178.014 491.14 179.494 489.46 179.494 487V481.66H180.654V492H179.694L179.574 489.98C178.774 491.48 177.334 492.26 175.714 492.26ZM28.06 521V510.66H29.04L29.14 512.66C29.96 511.18 31.4 510.4 33.06 510.4C35.76 510.4 37.42 512.3 37.42 515.28V521H36.26V515.38C36.26 513 34.98 511.52 32.92 511.52C30.74 511.52 29.22 513.18 29.22 515.64V521H28.06ZM41.3217 521V510.66H42.4817V521H41.3217ZM40.8417 507.72C40.8417 507.14 41.2617 506.68 41.9017 506.68C42.5417 506.68 42.9617 507.14 42.9617 507.72C42.9617 508.32 42.5417 508.78 41.9017 508.78C41.2617 508.78 40.8417 508.32 40.8417 507.72ZM50.9752 521.26C47.8352 521.26 45.6952 519.04 45.6952 515.82C45.6952 512.62 47.8552 510.4 50.9952 510.4C54.2552 510.4 56.3552 512.8 56.2752 516.3H46.8752C47.0752 518.64 48.6752 520.16 50.9752 520.16C52.6552 520.16 53.9952 519.38 54.6752 518.04L55.9752 518.06C55.1752 520.04 53.2952 521.26 50.9752 521.26ZM46.8752 515.28H55.1352C54.8552 512.94 53.2552 511.5 50.9952 511.5C48.6952 511.5 47.0752 513 46.8752 515.28ZM63.8467 521.26C60.7267 521.26 58.5467 518.96 58.5467 515.82C58.5467 512.68 60.7267 510.4 63.8467 510.4C65.7467 510.4 67.2867 511.24 68.2067 512.58V506.2H69.3667V521H68.4067L68.2667 518.96C67.3667 520.38 65.7867 521.26 63.8467 521.26ZM59.7067 515.82C59.7067 518.36 61.4467 520.14 63.9867 520.14C66.5067 520.14 68.2467 518.36 68.2467 515.82C68.2467 513.3 66.5067 511.52 63.9867 511.52C61.4467 511.52 59.7067 513.3 59.7067 515.82ZM73.4897 521V510.66H74.4697L74.5897 512.98C75.2897 511.42 76.4697 510.66 78.3897 510.66H79.2497V511.74H78.3497C76.1297 511.74 74.6497 513.1 74.6497 516.24V521H73.4897ZM82.1616 521V510.66H83.3216V521H82.1616ZM81.6816 507.72C81.6816 507.14 82.1016 506.68 82.7416 506.68C83.3816 506.68 83.8016 507.14 83.8016 507.72C83.8016 508.32 83.3816 508.78 82.7416 508.78C82.1016 508.78 81.6816 508.32 81.6816 507.72ZM91.975 525.26C89.435 525.26 87.555 523.92 87.155 521.82H88.335C88.675 523.26 90.075 524.16 91.975 524.16C94.355 524.16 95.875 522.76 95.875 520.54V518.86C94.955 520.12 93.475 520.88 91.715 520.88C88.695 520.88 86.535 518.68 86.535 515.64C86.535 512.6 88.695 510.4 91.715 510.4C93.535 510.4 95.035 511.2 95.955 512.52L96.055 510.66H97.035V520.58C97.035 523.36 94.995 525.26 91.975 525.26ZM87.695 515.64C87.695 518.06 89.395 519.74 91.835 519.74C94.255 519.74 95.955 518.06 95.955 515.64C95.955 513.22 94.255 511.52 91.835 511.52C89.395 511.52 87.695 513.22 87.695 515.64ZM105.526 521.26C102.386 521.26 100.246 519.04 100.246 515.82C100.246 512.62 102.406 510.4 105.546 510.4C108.806 510.4 110.906 512.8 110.826 516.3H101.426C101.626 518.64 103.226 520.16 105.526 520.16C107.206 520.16 108.546 519.38 109.226 518.04L110.526 518.06C109.726 520.04 107.846 521.26 105.526 521.26ZM101.426 515.28H109.686C109.406 512.94 107.806 511.5 105.546 511.5C103.246 511.5 101.626 513 101.426 515.28ZM113.998 521V510.66H114.978L115.098 512.98C115.798 511.42 116.978 510.66 118.898 510.66H119.758V511.74H118.858C116.638 511.74 115.158 513.1 115.158 516.24V521H113.998ZM126.249 521.26C123.109 521.26 120.969 519.04 120.969 515.82C120.969 512.62 123.129 510.4 126.269 510.4C129.529 510.4 131.629 512.8 131.549 516.3H122.149C122.349 518.64 123.949 520.16 126.249 520.16C127.929 520.16 129.269 519.38 129.949 518.04L131.249 518.06C130.449 520.04 128.569 521.26 126.249 521.26ZM122.149 515.28H130.409C130.129 512.94 128.529 511.5 126.269 511.5C123.969 511.5 122.349 513 122.149 515.28ZM134.72 521V510.66H135.7L135.8 512.66C136.62 511.18 138.06 510.4 139.72 510.4C142.42 510.4 144.08 512.3 144.08 515.28V521H142.92V515.38C142.92 513 141.64 511.52 139.58 511.52C137.4 511.52 135.88 513.18 135.88 515.64V521H134.72ZM157.701 521.26C154.501 521.26 152.441 519.54 152.341 516.84H153.541C153.661 518.9 155.281 520.1 157.701 520.1C160.001 520.1 161.421 519.08 161.421 517.46C161.421 516 160.281 515.14 157.461 514.52C154.021 513.72 152.561 512.56 152.561 510.46C152.561 508.22 154.381 506.74 157.361 506.74C160.441 506.74 162.321 508.3 162.421 511H161.221C161.121 509.02 159.701 507.9 157.361 507.9C155.101 507.9 153.781 508.92 153.781 510.46C153.781 511.86 154.821 512.72 157.761 513.38C161.301 514.2 162.661 515.44 162.661 517.44C162.661 519.78 160.741 521.26 157.701 521.26ZM170.092 521C167.892 521 166.712 519.76 166.712 517.42V511.72H164.452V510.66H165.772C166.552 510.66 166.772 510.46 166.852 509.7L166.952 508.12H167.872V510.66H171.452V511.72H167.872V517.38C167.872 519.08 168.572 519.88 170.132 519.88H171.592V521H170.092ZM174.701 521V510.66H175.681L175.801 512.98C176.501 511.42 177.681 510.66 179.601 510.66H180.461V511.74H179.561C177.341 511.74 175.861 513.1 175.861 516.24V521H174.701ZM186.952 521.26C183.812 521.26 181.672 519.04 181.672 515.82C181.672 512.62 183.832 510.4 186.972 510.4C190.232 510.4 192.332 512.8 192.252 516.3H182.852C183.052 518.64 184.652 520.16 186.952 520.16C188.632 520.16 189.972 519.38 190.652 518.04L191.952 518.06C191.152 520.04 189.272 521.26 186.952 521.26ZM182.852 515.28H191.112C190.832 512.94 189.232 511.5 186.972 511.5C184.672 511.5 183.052 513 182.852 515.28ZM198.983 521.26C196.363 521.26 194.703 519.94 194.623 517.88H195.763C195.883 519.34 197.023 520.2 199.003 520.2C200.823 520.2 201.923 519.5 201.923 518.36C201.923 517.28 200.943 516.62 198.743 516.24C196.043 515.78 194.823 514.82 194.823 513.24C194.823 511.48 196.323 510.4 198.743 510.4C201.183 510.4 202.723 511.56 202.883 513.54H201.723C201.603 512.18 200.543 511.44 198.743 511.44C197.023 511.44 195.983 512.14 195.983 513.26C195.983 514.28 196.843 514.84 199.143 515.28C201.763 515.78 203.063 516.82 203.063 518.38C203.063 520.12 201.483 521.26 198.983 521.26ZM209.979 521.26C207.359 521.26 205.699 519.94 205.619 517.88H206.759C206.879 519.34 208.019 520.2 209.999 520.2C211.819 520.2 212.919 519.5 212.919 518.36C212.919 517.28 211.939 516.62 209.739 516.24C207.039 515.78 205.819 514.82 205.819 513.24C205.819 511.48 207.319 510.4 209.739 510.4C212.179 510.4 213.719 511.56 213.879 513.54H212.719C212.599 512.18 211.539 511.44 209.739 511.44C208.019 511.44 206.979 512.14 206.979 513.26C206.979 514.28 207.839 514.84 210.139 515.28C212.759 515.78 214.059 516.82 214.059 518.38C214.059 520.12 212.479 521.26 209.979 521.26ZM217.415 521V506.2H218.575V521H217.415ZM227.069 521.26C223.929 521.26 221.789 519.04 221.789 515.82C221.789 512.62 223.949 510.4 227.089 510.4C230.349 510.4 232.449 512.8 232.369 516.3H222.969C223.169 518.64 224.769 520.16 227.069 520.16C228.749 520.16 230.089 519.38 230.769 518.04L232.069 518.06C231.269 520.04 229.389 521.26 227.069 521.26ZM222.969 515.28H231.229C230.949 512.94 229.349 511.5 227.089 511.5C224.789 511.5 223.169 513 222.969 515.28ZM238.11 521L233.49 510.66H234.75L236.55 514.66L238.69 519.48L240.81 514.66L242.63 510.66H243.87L239.25 521H238.11ZM250.331 521.26C247.191 521.26 245.051 519.04 245.051 515.82C245.051 512.62 247.211 510.4 250.351 510.4C253.611 510.4 255.711 512.8 255.631 516.3H246.231C246.431 518.64 248.031 520.16 250.331 520.16C252.011 520.16 253.351 519.38 254.031 518.04L255.331 518.06C254.531 520.04 252.651 521.26 250.331 521.26ZM246.231 515.28H254.491C254.211 512.94 252.611 511.5 250.351 511.5C248.051 511.5 246.431 513 246.231 515.28ZM258.802 521V506.2H259.962V521H258.802ZM264.076 521V510.66H265.056L265.156 512.66C265.976 511.18 267.416 510.4 269.076 510.4C271.776 510.4 273.436 512.3 273.436 515.28V521H272.276V515.38C272.276 513 270.996 511.52 268.936 511.52C266.756 511.52 265.236 513.18 265.236 515.64V521H264.076ZM277.697 521.12C277.057 521.12 276.637 520.68 276.637 520.08C276.637 519.48 277.057 519.04 277.697 519.04C278.337 519.04 278.757 519.48 278.757 520.08C278.757 520.68 278.337 521.12 277.697 521.12Z" fill="black"/>
</svg>
