<svg width="594" height="623" viewBox="0 0 594 623" fill="none" xmlns="http://www.w3.org/2000/svg">
<path fill-rule="evenodd" clip-rule="evenodd" d="M7.4099 118.548C72.9668 53.0313 168.63 0.40625 233.954 0.40625C321.412 0.40625 327.72 94.7335 326.925 188.039C301.924 248.16 242.625 290.432 173.453 290.432C81.6963 290.432 7.3125 216.049 7.3125 124.292C7.3125 122.369 7.34514 120.455 7.4099 118.548Z" fill="#F6F5FF"/>
<path fill-rule="evenodd" clip-rule="evenodd" d="M282.941 257.894C311.408 207.263 365.64 173.059 427.861 173.059C519.618 173.059 594.002 247.442 594.002 339.199C594.002 388.984 572.105 433.654 537.417 464.104C518.342 470.299 497.983 473.648 476.841 473.648C368.642 473.648 280.93 385.936 280.93 277.736C280.93 271.24 281.62 264.613 282.941 257.894Z" fill="#F6F5FF"/>
<path fill-rule="evenodd" clip-rule="evenodd" d="M144.705 622.395C224.623 622.395 289.41 557.409 289.41 477.244C289.41 468.239 289.559 458.895 289.711 449.403C290.908 374.397 292.254 290.113 221.313 290.113C141.395 290.113 0 397.079 0 477.244C0 557.409 64.7866 622.395 144.705 622.395Z" fill="#F6F5FF"/>
<path d="M125.76 122.26C122.56 122.26 120.5 120.54 120.4 117.84H121.6C121.72 119.9 123.34 121.1 125.76 121.1C128.06 121.1 129.48 120.08 129.48 118.46C129.48 117 128.34 116.14 125.52 115.52C122.08 114.72 120.62 113.56 120.62 111.46C120.62 109.22 122.44 107.74 125.42 107.74C128.5 107.74 130.38 109.3 130.48 112H129.28C129.18 110.02 127.76 108.9 125.42 108.9C123.16 108.9 121.84 109.92 121.84 111.46C121.84 112.86 122.88 113.72 125.82 114.38C129.36 115.2 130.72 116.44 130.72 118.44C130.72 120.78 128.8 122.26 125.76 122.26ZM138.151 122C135.951 122 134.771 120.76 134.771 118.42V112.72H132.511V111.66H133.831C134.611 111.66 134.831 111.46 134.911 110.7L135.011 109.12H135.931V111.66H139.511V112.72H135.931V118.38C135.931 120.08 136.631 120.88 138.191 120.88H139.651V122H138.151ZM142.759 122V111.66H143.739L143.859 113.98C144.559 112.42 145.739 111.66 147.659 111.66H148.519V112.74H147.619C145.399 112.74 143.919 114.1 143.919 117.24V122H142.759ZM155.01 122.26C151.87 122.26 149.73 120.04 149.73 116.82C149.73 113.62 151.89 111.4 155.03 111.4C158.29 111.4 160.39 113.8 160.31 117.3H150.91C151.11 119.64 152.71 121.16 155.01 121.16C156.69 121.16 158.03 120.38 158.71 119.04L160.01 119.06C159.21 121.04 157.33 122.26 155.01 122.26ZM150.91 116.28H159.17C158.89 113.94 157.29 112.5 155.03 112.5C152.73 112.5 151.11 114 150.91 116.28ZM167.042 122.26C164.422 122.26 162.762 120.94 162.682 118.88H163.822C163.942 120.34 165.082 121.2 167.062 121.2C168.882 121.2 169.982 120.5 169.982 119.36C169.982 118.28 169.002 117.62 166.802 117.24C164.102 116.78 162.882 115.82 162.882 114.24C162.882 112.48 164.382 111.4 166.802 111.4C169.242 111.4 170.782 112.56 170.942 114.54H169.782C169.662 113.18 168.602 112.44 166.802 112.44C165.082 112.44 164.042 113.14 164.042 114.26C164.042 115.28 164.902 115.84 167.202 116.28C169.822 116.78 171.122 117.82 171.122 119.38C171.122 121.12 169.542 122.26 167.042 122.26ZM178.038 122.26C175.418 122.26 173.758 120.94 173.678 118.88H174.818C174.938 120.34 176.078 121.2 178.058 121.2C179.878 121.2 180.978 120.5 180.978 119.36C180.978 118.28 179.998 117.62 177.798 117.24C175.098 116.78 173.878 115.82 173.878 114.24C173.878 112.48 175.378 111.4 177.798 111.4C180.238 111.4 181.778 112.56 181.938 114.54H180.778C180.658 113.18 179.598 112.44 177.798 112.44C176.078 112.44 175.038 113.14 175.038 114.26C175.038 115.28 175.898 115.84 178.198 116.28C180.818 116.78 182.118 117.82 182.118 119.38C182.118 121.12 180.538 122.26 178.038 122.26ZM192.887 122L188.267 111.66H189.527L191.327 115.66L193.467 120.48L195.587 115.66L197.407 111.66H198.647L194.027 122H192.887ZM203.812 122.16C201.412 122.16 199.912 120.98 199.912 119.08C199.912 117.24 201.312 116.08 203.432 116.08H207.992V115.34C207.992 113.62 206.732 112.48 204.812 112.48C203.252 112.48 202.032 113.28 201.612 114.52H200.432C200.932 112.6 202.592 111.4 204.792 111.4C207.372 111.4 209.152 112.98 209.152 115.28V122H208.192L208.072 120.22C207.172 121.46 205.652 122.16 203.812 122.16ZM201.072 119.06C201.072 120.32 202.132 121.12 203.852 121.12C206.252 121.12 208.012 119.62 208.012 117.54V117.1H203.472C202.052 117.1 201.072 117.88 201.072 119.06ZM213.052 122V111.66H214.032L214.152 113.98C214.852 112.42 216.032 111.66 217.952 111.66H218.812V112.74H217.912C215.692 112.74 214.212 114.1 214.212 117.24V122H213.052ZM226.744 122V107.2H227.904V113.54C228.724 112.12 230.164 111.4 231.784 111.4C234.464 111.4 236.104 113.26 236.104 116.24V122H234.944V116.34C234.944 113.96 233.684 112.52 231.624 112.52C229.444 112.52 227.904 114.14 227.904 116.62V122H226.744ZM239.725 122.74L240.945 121.04C239.785 120.06 239.105 118.58 239.105 116.82C239.105 113.64 241.345 111.4 244.545 111.4C245.525 111.4 246.425 111.62 247.205 112.02L247.985 110.9H249.345L248.125 112.62C249.285 113.58 249.965 115.06 249.965 116.82C249.965 120.02 247.725 122.26 244.545 122.26C243.545 122.26 242.625 122.04 241.865 121.64L241.085 122.74H239.725ZM240.265 116.82C240.265 118.2 240.765 119.34 241.625 120.1L246.565 112.96C245.985 112.68 245.305 112.52 244.545 112.52C242.005 112.52 240.265 114.28 240.265 116.82ZM242.505 120.7C243.105 120.98 243.785 121.14 244.545 121.14C247.065 121.14 248.805 119.38 248.805 116.82C248.805 115.46 248.305 114.32 247.445 113.56L242.505 120.7ZM252.158 126V124.9H253.018C254.478 124.9 254.938 124.6 255.478 123.3L256.058 121.84L251.138 111.66H252.438L254.878 116.76L256.658 120.44L258.138 116.76L260.238 111.66H261.458L256.518 123.74C255.798 125.54 254.998 126 253.138 126H252.158ZM267.92 122.26C264.78 122.26 262.64 120.04 262.64 116.82C262.64 113.62 264.8 111.4 267.94 111.4C271.2 111.4 273.3 113.8 273.22 117.3H263.82C264.02 119.64 265.62 121.16 267.92 121.16C269.6 121.16 270.94 120.38 271.62 119.04L272.92 119.06C272.12 121.04 270.24 122.26 267.92 122.26ZM263.82 116.28H272.08C271.8 113.94 270.2 112.5 267.94 112.5C265.64 112.5 264.02 114 263.82 116.28ZM279.952 122.26C277.332 122.26 275.672 120.94 275.592 118.88H276.732C276.852 120.34 277.992 121.2 279.972 121.2C281.792 121.2 282.892 120.5 282.892 119.36C282.892 118.28 281.912 117.62 279.712 117.24C277.012 116.78 275.792 115.82 275.792 114.24C275.792 112.48 277.292 111.4 279.712 111.4C282.152 111.4 283.692 112.56 283.852 114.54H282.692C282.572 113.18 281.512 112.44 279.712 112.44C277.992 112.44 276.952 113.14 276.952 114.26C276.952 115.28 277.812 115.84 280.112 116.28C282.732 116.78 284.032 117.82 284.032 119.38C284.032 121.12 282.452 122.26 279.952 122.26ZM291.295 122C289.095 122 287.915 120.76 287.915 118.42V112.72H285.655V111.66H286.975C287.755 111.66 287.975 111.46 288.055 110.7L288.155 109.12H289.075V111.66H292.655V112.72H289.075V118.38C289.075 120.08 289.775 120.88 291.335 120.88H292.795V122H291.295ZM126.58 151.26C124.64 151.26 123.06 150.36 122.16 148.94L122.04 151H121.06V136.2H122.22V142.62C123.14 141.24 124.68 140.4 126.58 140.4C129.72 140.4 131.88 142.68 131.88 145.82C131.88 148.96 129.72 151.26 126.58 151.26ZM122.18 145.82C122.18 148.36 123.92 150.14 126.46 150.14C129 150.14 130.72 148.36 130.72 145.82C130.72 143.3 129 141.52 126.46 141.52C123.92 141.52 122.18 143.3 122.18 145.82ZM135.103 151V136.2H136.263V151H135.103ZM143.616 151.16C141.216 151.16 139.716 149.98 139.716 148.08C139.716 146.24 141.116 145.08 143.236 145.08H147.796V144.34C147.796 142.62 146.536 141.48 144.616 141.48C143.056 141.48 141.836 142.28 141.416 143.52H140.236C140.736 141.6 142.396 140.4 144.596 140.4C147.176 140.4 148.956 141.98 148.956 144.28V151H147.996L147.876 149.22C146.976 150.46 145.456 151.16 143.616 151.16ZM140.876 148.06C140.876 149.32 141.936 150.12 143.656 150.12C146.056 150.12 147.816 148.62 147.816 146.54V146.1H143.276C141.856 146.1 140.876 146.88 140.876 148.06ZM152.857 151V140.66H153.837L153.937 142.66C154.757 141.18 156.197 140.4 157.857 140.4C160.557 140.4 162.217 142.3 162.217 145.28V151H161.057V145.38C161.057 143 159.777 141.52 157.717 141.52C155.537 141.52 154.017 143.18 154.017 145.64V151H152.857ZM169.987 151C167.787 151 166.607 149.76 166.607 147.42V141.72H164.347V140.66H165.667C166.447 140.66 166.667 140.46 166.747 139.7L166.847 138.12H167.767V140.66H171.347V141.72H167.767V147.38C167.767 149.08 168.467 149.88 170.027 149.88H171.487V151H169.987ZM180.165 139.46C180.165 137.1 181.325 135.94 183.625 135.94H185.245V137.04H183.725C182.045 137.04 181.325 137.78 181.325 139.54V140.66H185.145V141.72H181.325V151H180.165V141.72H177.805V140.66H180.165V139.46ZM186.893 151.74L188.113 150.04C186.953 149.06 186.273 147.58 186.273 145.82C186.273 142.64 188.513 140.4 191.713 140.4C192.693 140.4 193.593 140.62 194.373 141.02L195.153 139.9H196.513L195.293 141.62C196.453 142.58 197.133 144.06 197.133 145.82C197.133 149.02 194.893 151.26 191.713 151.26C190.713 151.26 189.793 151.04 189.033 150.64L188.253 151.74H186.893ZM187.433 145.82C187.433 147.2 187.933 148.34 188.793 149.1L193.733 141.96C193.153 141.68 192.473 141.52 191.713 141.52C189.173 141.52 187.433 143.28 187.433 145.82ZM189.673 149.7C190.273 149.98 190.953 150.14 191.713 150.14C194.233 150.14 195.973 148.38 195.973 145.82C195.973 144.46 195.473 143.32 194.613 142.56L189.673 149.7ZM200.357 151V140.66H201.337L201.457 142.98C202.157 141.42 203.337 140.66 205.257 140.66H206.117V141.74H205.217C202.997 141.74 201.517 143.1 201.517 146.24V151H200.357ZM212.003 151.26C209.383 151.26 207.723 149.94 207.643 147.88H208.783C208.903 149.34 210.043 150.2 212.023 150.2C213.843 150.2 214.943 149.5 214.943 148.36C214.943 147.28 213.963 146.62 211.763 146.24C209.063 145.78 207.843 144.82 207.843 143.24C207.843 141.48 209.343 140.4 211.763 140.4C214.203 140.4 215.743 141.56 215.903 143.54H214.743C214.623 142.18 213.563 141.44 211.763 141.44C210.043 141.44 209.003 142.14 209.003 143.26C209.003 144.28 209.863 144.84 212.163 145.28C214.783 145.78 216.083 146.82 216.083 148.38C216.083 150.12 214.503 151.26 212.003 151.26ZM223.346 151C221.146 151 219.966 149.76 219.966 147.42V141.72H217.706V140.66H219.026C219.806 140.66 220.026 140.46 220.106 139.7L220.206 138.12H221.126V140.66H224.706V141.72H221.126V147.38C221.126 149.08 221.826 149.88 223.386 149.88H224.846V151H223.346ZM231.827 151.26C228.687 151.26 226.547 149.04 226.547 145.82C226.547 142.62 228.707 140.4 231.847 140.4C235.107 140.4 237.207 142.8 237.127 146.3H227.727C227.927 148.64 229.527 150.16 231.827 150.16C233.507 150.16 234.847 149.38 235.527 148.04L236.827 148.06C236.027 150.04 234.147 151.26 231.827 151.26ZM227.727 145.28H235.987C235.707 142.94 234.107 141.5 231.847 141.5C229.547 141.5 227.927 143 227.727 145.28ZM243.402 151.16C241.002 151.16 239.502 149.98 239.502 148.08C239.502 146.24 240.902 145.08 243.022 145.08H247.582V144.34C247.582 142.62 246.322 141.48 244.402 141.48C242.842 141.48 241.622 142.28 241.202 143.52H240.022C240.522 141.6 242.182 140.4 244.382 140.4C246.962 140.4 248.742 141.98 248.742 144.28V151H247.782L247.662 149.22C246.762 150.46 245.242 151.16 243.402 151.16ZM240.662 148.06C240.662 149.32 241.722 150.12 243.442 150.12C245.842 150.12 247.602 148.62 247.602 146.54V146.1H243.062C241.642 146.1 240.662 146.88 240.662 148.06ZM242.182 137.1C242.182 135.84 243.122 134.96 244.382 134.96C245.642 134.96 246.582 135.84 246.582 137.1C246.582 138.36 245.642 139.22 244.382 139.22C243.122 139.22 242.182 138.36 242.182 137.1ZM243.042 137.1C243.042 137.88 243.602 138.44 244.382 138.44C245.162 138.44 245.722 137.88 245.722 137.1C245.722 136.3 245.162 135.74 244.382 135.74C243.602 135.74 243.042 136.3 243.042 137.1ZM252.642 151V140.66H253.622L253.742 142.98C254.442 141.42 255.622 140.66 257.542 140.66H258.402V141.74H257.502C255.282 141.74 253.802 143.1 253.802 146.24V151H252.642ZM264.288 151.26C261.668 151.26 260.008 149.94 259.928 147.88H261.068C261.188 149.34 262.328 150.2 264.308 150.2C266.128 150.2 267.228 149.5 267.228 148.36C267.228 147.28 266.248 146.62 264.048 146.24C261.348 145.78 260.128 144.82 260.128 143.24C260.128 141.48 261.628 140.4 264.048 140.4C266.488 140.4 268.028 141.56 268.188 143.54H267.028C266.908 142.18 265.848 141.44 264.048 141.44C262.328 141.44 261.288 142.14 261.288 143.26C261.288 144.28 262.148 144.84 264.448 145.28C267.068 145.78 268.368 146.82 268.368 148.38C268.368 150.12 266.788 151.26 264.288 151.26ZM124.62 180.26C122 180.26 120.34 178.94 120.26 176.88H121.4C121.52 178.34 122.66 179.2 124.64 179.2C126.46 179.2 127.56 178.5 127.56 177.36C127.56 176.28 126.58 175.62 124.38 175.24C121.68 174.78 120.46 173.82 120.46 172.24C120.46 170.48 121.96 169.4 124.38 169.4C126.82 169.4 128.36 170.56 128.52 172.54H127.36C127.24 171.18 126.18 170.44 124.38 170.44C122.66 170.44 121.62 171.14 121.62 172.26C121.62 173.28 122.48 173.84 124.78 174.28C127.4 174.78 128.7 175.82 128.7 177.38C128.7 179.12 127.12 180.26 124.62 180.26ZM135.963 180C133.763 180 132.583 178.76 132.583 176.42V170.72H130.323V169.66H131.643C132.423 169.66 132.643 169.46 132.723 168.7L132.823 167.12H133.743V169.66H137.323V170.72H133.743V176.38C133.743 178.08 134.443 178.88 136.003 178.88H137.463V180H135.963ZM144.515 180.26C141.855 180.26 140.215 178.36 140.215 175.38V169.66H141.375V175.28C141.375 177.64 142.635 179.14 144.675 179.14C146.815 179.14 148.295 177.46 148.295 175V169.66H149.455V180H148.495L148.375 177.98C147.575 179.48 146.135 180.26 144.515 180.26ZM157.98 180.26C154.86 180.26 152.68 177.96 152.68 174.82C152.68 171.68 154.86 169.4 157.98 169.4C159.88 169.4 161.42 170.24 162.34 171.58V165.2H163.5V180H162.54L162.4 177.96C161.5 179.38 159.92 180.26 157.98 180.26ZM153.84 174.82C153.84 177.36 155.58 179.14 158.12 179.14C160.64 179.14 162.38 177.36 162.38 174.82C162.38 172.3 160.64 170.52 158.12 170.52C155.58 170.52 153.84 172.3 153.84 174.82ZM172.003 180.26C168.863 180.26 166.723 178.04 166.723 174.82C166.723 171.62 168.883 169.4 172.023 169.4C175.283 169.4 177.383 171.8 177.303 175.3H167.903C168.103 177.64 169.703 179.16 172.003 179.16C173.683 179.16 175.023 178.38 175.703 177.04L177.003 177.06C176.203 179.04 174.323 180.26 172.003 180.26ZM167.903 174.28H176.163C175.883 171.94 174.283 170.5 172.023 170.5C169.723 170.5 168.103 172 167.903 174.28ZM180.474 180V169.66H181.454L181.574 171.98C182.274 170.42 183.454 169.66 185.374 169.66H186.234V170.74H185.334C183.114 170.74 181.634 172.1 181.634 175.24V180H180.474ZM192.725 180.26C189.585 180.26 187.445 178.04 187.445 174.82C187.445 171.62 189.605 169.4 192.745 169.4C196.005 169.4 198.105 171.8 198.025 175.3H188.625C188.825 177.64 190.425 179.16 192.725 179.16C194.405 179.16 195.745 178.38 196.425 177.04L197.725 177.06C196.925 179.04 195.045 180.26 192.725 180.26ZM188.625 174.28H196.885C196.605 171.94 195.005 170.5 192.745 170.5C190.445 170.5 188.825 172 188.625 174.28ZM201.197 180V169.66H202.177L202.277 171.66C203.097 170.18 204.537 169.4 206.197 169.4C208.897 169.4 210.557 171.3 210.557 174.28V180H209.397V174.38C209.397 172 208.117 170.52 206.057 170.52C203.877 170.52 202.357 172.18 202.357 174.64V180H201.197ZM218.838 180.26C215.698 180.26 213.558 178.04 213.558 174.82C213.558 171.62 215.718 169.4 218.858 169.4C222.118 169.4 224.218 171.8 224.138 175.3H214.738C214.938 177.64 216.538 179.16 218.838 179.16C220.518 179.16 221.858 178.38 222.538 177.04L223.838 177.06C223.038 179.04 221.158 180.26 218.838 180.26ZM214.738 174.28H222.998C222.718 171.94 221.118 170.5 218.858 170.5C216.558 170.5 214.938 172 214.738 174.28ZM231.71 180.26C228.59 180.26 226.41 177.96 226.41 174.82C226.41 171.68 228.59 169.4 231.71 169.4C233.61 169.4 235.15 170.24 236.07 171.58V165.2H237.23V180H236.27L236.13 177.96C235.23 179.38 233.65 180.26 231.71 180.26ZM227.57 174.82C227.57 177.36 229.31 179.14 231.85 179.14C234.37 179.14 236.11 177.36 236.11 174.82C236.11 172.3 234.37 170.52 231.85 170.52C229.31 170.52 227.57 172.3 227.57 174.82ZM245.733 180.26C242.593 180.26 240.453 178.04 240.453 174.82C240.453 171.62 242.613 169.4 245.753 169.4C249.013 169.4 251.113 171.8 251.033 175.3H241.633C241.833 177.64 243.433 179.16 245.733 179.16C247.413 179.16 248.753 178.38 249.433 177.04L250.733 177.06C249.933 179.04 248.053 180.26 245.733 180.26ZM241.633 174.28H249.893C249.613 171.94 248.013 170.5 245.753 170.5C243.453 170.5 241.833 172 241.633 174.28ZM264.607 180.26C262.707 180.26 261.167 179.4 260.247 178.04V184H259.087V169.66H260.067L260.187 171.72C261.087 170.28 262.667 169.4 264.607 169.4C267.747 169.4 269.907 171.68 269.907 174.82C269.907 177.96 267.747 180.26 264.607 180.26ZM260.207 174.82C260.207 177.36 261.947 179.14 264.487 179.14C267.027 179.14 268.747 177.36 268.747 174.82C268.747 172.3 267.027 170.52 264.487 170.52C261.947 170.52 260.207 172.3 260.207 174.82ZM276.234 180.16C273.834 180.16 272.334 178.98 272.334 177.08C272.334 175.24 273.734 174.08 275.854 174.08H280.414V173.34C280.414 171.62 279.154 170.48 277.234 170.48C275.674 170.48 274.454 171.28 274.034 172.52H272.854C273.354 170.6 275.014 169.4 277.214 169.4C279.794 169.4 281.574 170.98 281.574 173.28V180H280.614L280.494 178.22C279.594 179.46 278.074 180.16 276.234 180.16ZM273.494 177.06C273.494 178.32 274.554 179.12 276.274 179.12C278.674 179.12 280.434 177.62 280.434 175.54V175.1H275.894C274.474 175.1 273.494 175.88 273.494 177.06ZM275.014 166.1C275.014 164.84 275.954 163.96 277.214 163.96C278.474 163.96 279.414 164.84 279.414 166.1C279.414 167.36 278.474 168.22 277.214 168.22C275.954 168.22 275.014 167.36 275.014 166.1ZM275.874 166.1C275.874 166.88 276.434 167.44 277.214 167.44C277.994 167.44 278.554 166.88 278.554 166.1C278.554 165.3 277.994 164.74 277.214 164.74C276.434 164.74 275.874 165.3 275.874 166.1ZM125.14 209.26C122.48 209.26 120.84 207.36 120.84 204.38V198.66H122V204.28C122 206.64 123.26 208.14 125.3 208.14C127.44 208.14 128.92 206.46 128.92 204V198.66H130.08V209H129.12L129 206.98C128.2 208.48 126.76 209.26 125.14 209.26ZM134.205 209V198.66H135.185L135.285 200.66C136.105 199.18 137.545 198.4 139.205 198.4C141.905 198.4 143.565 200.3 143.565 203.28V209H142.405V203.38C142.405 201 141.125 199.52 139.065 199.52C136.885 199.52 135.365 201.18 135.365 203.64V209H134.205ZM147.466 209V198.66H148.626V209H147.466ZM146.986 195.72C146.986 195.14 147.406 194.68 148.046 194.68C148.686 194.68 149.106 195.14 149.106 195.72C149.106 196.32 148.686 196.78 148.046 196.78C147.406 196.78 146.986 196.32 146.986 195.72ZM155.7 209L151.08 198.66H152.34L154.14 202.66L156.28 207.48L158.4 202.66L160.22 198.66H161.46L156.84 209H155.7ZM167.92 209.26C164.78 209.26 162.64 207.04 162.64 203.82C162.64 200.62 164.8 198.4 167.94 198.4C171.2 198.4 173.3 200.8 173.22 204.3H163.82C164.02 206.64 165.62 208.16 167.92 208.16C169.6 208.16 170.94 207.38 171.62 206.04L172.92 206.06C172.12 208.04 170.24 209.26 167.92 209.26ZM163.82 203.28H172.08C171.8 200.94 170.2 199.5 167.94 199.5C165.64 199.5 164.02 201 163.82 203.28ZM176.392 209V198.66H177.372L177.492 200.98C178.192 199.42 179.372 198.66 181.292 198.66H182.152V199.74H181.252C179.032 199.74 177.552 201.1 177.552 204.24V209H176.392ZM188.038 209.26C185.418 209.26 183.758 207.94 183.678 205.88H184.818C184.938 207.34 186.078 208.2 188.058 208.2C189.878 208.2 190.978 207.5 190.978 206.36C190.978 205.28 189.998 204.62 187.798 204.24C185.098 203.78 183.878 202.82 183.878 201.24C183.878 199.48 185.378 198.4 187.798 198.4C190.238 198.4 191.778 199.56 191.938 201.54H190.778C190.658 200.18 189.598 199.44 187.798 199.44C186.078 199.44 185.038 200.14 185.038 201.26C185.038 202.28 185.898 202.84 188.198 203.28C190.818 203.78 192.118 204.82 192.118 206.38C192.118 208.12 190.538 209.26 188.038 209.26ZM195.474 209V198.66H196.634V209H195.474ZM194.994 195.72C194.994 195.14 195.414 194.68 196.054 194.68C196.694 194.68 197.114 195.14 197.114 195.72C197.114 196.32 196.694 196.78 196.054 196.78C195.414 196.78 194.994 196.32 194.994 195.72ZM204.948 209C202.748 209 201.568 207.76 201.568 205.42V199.72H199.308V198.66H200.628C201.408 198.66 201.627 198.46 201.708 197.7L201.808 196.12H202.728V198.66H206.308V199.72H202.728V205.38C202.728 207.08 203.428 207.88 204.988 207.88H206.448V209H204.948ZM213.428 209.26C210.288 209.26 208.148 207.04 208.148 203.82C208.148 200.62 210.308 198.4 213.448 198.4C216.708 198.4 218.808 200.8 218.728 204.3H209.328C209.528 206.64 211.128 208.16 213.428 208.16C215.108 208.16 216.448 207.38 217.128 206.04L218.428 206.06C217.628 208.04 215.748 209.26 213.428 209.26ZM209.328 203.28H217.588C217.308 200.94 215.708 199.5 213.448 199.5C211.148 199.5 209.528 201 209.328 203.28ZM225.768 209C223.568 209 222.388 207.76 222.388 205.42V199.72H220.128V198.66H221.448C222.228 198.66 222.448 198.46 222.528 197.7L222.628 196.12H223.548V198.66H227.128V199.72H223.548V205.38C223.548 207.08 224.248 207.88 225.808 207.88H227.268V209H225.768ZM234.249 209.26C231.109 209.26 228.969 207.04 228.969 203.82C228.969 200.62 231.129 198.4 234.269 198.4C237.529 198.4 239.629 200.8 239.549 204.3H230.149C230.349 206.64 231.949 208.16 234.249 208.16C235.929 208.16 237.269 207.38 237.949 206.04L239.249 206.06C238.449 208.04 236.569 209.26 234.249 209.26ZM230.149 203.28H238.409C238.129 200.94 236.529 199.5 234.269 199.5C231.969 199.5 230.349 201 230.149 203.28ZM246.588 209C244.388 209 243.208 207.76 243.208 205.42V199.72H240.948V198.66H242.268C243.048 198.66 243.268 198.46 243.348 197.7L243.448 196.12H244.368V198.66H247.948V199.72H244.368V205.38C244.368 207.08 245.068 207.88 246.628 207.88H248.088V209H246.588Z" fill="black"/>
<path d="M83.2233 133V90.5141H70.2929V85.9362H77.762C81.7777 85.9362 82.9824 85.0528 83.5446 81.6796L84.1068 76.7805H88.0422V133H83.2233Z" fill="black"/>
<path d="M292.707 304V301.895L306.301 289.354C309.688 286.241 311.244 283.724 311.244 280.84C311.244 276.675 308.132 273.837 303.692 273.837C299.115 273.837 295.957 276.858 295.774 281.664H293.165C293.348 275.485 297.559 271.366 303.646 271.366C309.642 271.366 313.899 275.302 313.899 280.84C313.899 284.41 312.068 287.752 308.086 291.413L297.193 301.391H314.723V304H292.707Z" fill="black"/>
<path d="M155.662 346.382C151.757 346.382 149.114 344.033 148.879 340.392H150.641C150.817 342.976 152.784 344.649 155.662 344.649C158.745 344.649 160.741 342.77 160.741 339.951C160.741 337.133 158.715 335.283 155.691 335.283H152.637V333.991L159.097 327.12H149.29V325.447H161.74V326.768L155.251 333.639H155.662C159.743 333.639 162.503 336.193 162.503 340.01C162.503 343.798 159.743 346.382 155.662 346.382Z" fill="black"/>
<path d="M354.26 281V267H358.7C361.94 267 363.86 268.7 363.86 271.6C363.86 274.5 361.94 276.2 358.7 276.2H355.48V281H354.26ZM355.48 275.08H358.68C361.3 275.08 362.64 273.9 362.64 271.62C362.64 269.34 361.3 268.16 358.68 268.16H355.48V275.08ZM366.853 281V270.66H367.833L367.953 272.98C368.653 271.42 369.833 270.66 371.753 270.66H372.613V271.74H371.713C369.493 271.74 368.013 273.1 368.013 276.24V281H366.853ZM379.104 281.26C375.964 281.26 373.824 279.04 373.824 275.82C373.824 272.62 375.984 270.4 379.124 270.4C382.384 270.4 384.484 272.8 384.404 276.3H375.004C375.204 278.64 376.804 280.16 379.104 280.16C380.784 280.16 382.124 279.38 382.804 278.04L384.104 278.06C383.304 280.04 381.424 281.26 379.104 281.26ZM375.004 275.28H383.264C382.984 272.94 381.384 271.5 379.124 271.5C376.824 271.5 375.204 273 375.004 275.28ZM390.145 281L385.525 270.66H386.785L388.585 274.66L390.725 279.48L392.845 274.66L394.665 270.66H395.905L391.285 281H390.145ZM402.366 281.26C399.226 281.26 397.086 279.04 397.086 275.82C397.086 272.62 399.246 270.4 402.386 270.4C405.646 270.4 407.746 272.8 407.666 276.3H398.266C398.466 278.64 400.066 280.16 402.366 280.16C404.046 280.16 405.386 279.38 406.066 278.04L407.366 278.06C406.566 280.04 404.686 281.26 402.366 281.26ZM398.266 275.28H406.526C406.246 272.94 404.646 271.5 402.386 271.5C400.086 271.5 398.466 273 398.266 275.28ZM410.837 281V270.66H411.817L411.917 272.66C412.737 271.18 414.177 270.4 415.837 270.4C418.537 270.4 420.197 272.3 420.197 275.28V281H419.037V275.38C419.037 273 417.757 271.52 415.697 271.52C413.517 271.52 411.997 273.18 411.997 275.64V281H410.837ZM427.967 281C425.767 281 424.587 279.76 424.587 277.42V271.72H422.327V270.66H423.647C424.427 270.66 424.647 270.46 424.727 269.7L424.827 268.12H425.747V270.66H429.327V271.72H425.747V277.38C425.747 279.08 426.447 279.88 428.007 279.88H429.467V281H427.967ZM432.576 281V270.66H433.736V281H432.576ZM432.096 267.72C432.096 267.14 432.516 266.68 433.156 266.68C433.796 266.68 434.216 267.14 434.216 267.72C434.216 268.32 433.796 268.78 433.156 268.78C432.516 268.78 432.096 268.32 432.096 267.72ZM440.809 281L436.189 270.66H437.449L439.249 274.66L441.389 279.48L443.509 274.66L445.329 270.66H446.569L441.949 281H440.809ZM453.03 281.26C449.89 281.26 447.75 279.04 447.75 275.82C447.75 272.62 449.91 270.4 453.05 270.4C456.31 270.4 458.41 272.8 458.33 276.3H448.93C449.13 278.64 450.73 280.16 453.03 280.16C454.71 280.16 456.05 279.38 456.73 278.04L458.03 278.06C457.23 280.04 455.35 281.26 453.03 281.26ZM448.93 275.28H457.19C456.91 272.94 455.31 271.5 453.05 271.5C450.75 271.5 449.13 273 448.93 275.28ZM466.603 269.46C466.603 267.1 467.763 265.94 470.063 265.94H471.683V267.04H470.163C468.483 267.04 467.763 267.78 467.763 269.54V270.66H471.583V271.72H467.763V281H466.603V271.72H464.243V270.66H466.603V269.46ZM476.675 281.16C474.275 281.16 472.775 279.98 472.775 278.08C472.775 276.24 474.175 275.08 476.295 275.08H480.855V274.34C480.855 272.62 479.595 271.48 477.675 271.48C476.115 271.48 474.895 272.28 474.475 273.52H473.295C473.795 271.6 475.455 270.4 477.655 270.4C480.235 270.4 482.015 271.98 482.015 274.28V281H481.055L480.935 279.22C480.035 280.46 478.515 281.16 476.675 281.16ZM473.935 278.06C473.935 279.32 474.995 280.12 476.715 280.12C479.115 280.12 480.875 278.62 480.875 276.54V276.1H476.335C474.915 276.1 473.935 276.88 473.935 278.06ZM485.915 281V266.2H487.075V275.2H488.595C490.515 275.2 491.355 274.7 492.015 272.96L492.895 270.66H494.135L493.095 273.4C492.635 274.56 492.095 275.3 491.275 275.74L494.635 281H493.255L490.195 276.14C489.715 276.24 489.175 276.28 488.555 276.28H487.075V281H485.915ZM501.424 281C499.224 281 498.044 279.76 498.044 277.42V271.72H495.784V270.66H497.104C497.884 270.66 498.104 270.46 498.184 269.7L498.284 268.12H499.204V270.66H502.784V271.72H499.204V277.38C499.204 279.08 499.904 279.88 501.464 279.88H502.924V281H501.424ZM510.065 281.26C506.865 281.26 504.625 279.02 504.625 275.82C504.625 272.64 506.865 270.4 510.065 270.4C513.245 270.4 515.485 272.64 515.485 275.82C515.485 279.02 513.245 281.26 510.065 281.26ZM505.785 275.82C505.785 278.38 507.525 280.14 510.065 280.14C512.585 280.14 514.325 278.38 514.325 275.82C514.325 273.28 512.585 271.52 510.065 271.52C507.525 271.52 505.785 273.28 505.785 275.82ZM518.708 281V270.66H519.688L519.808 272.98C520.508 271.42 521.688 270.66 523.608 270.66H524.468V271.74H523.568C521.348 271.74 519.868 273.1 519.868 276.24V281H518.708ZM530.96 281.26C527.82 281.26 525.68 279.04 525.68 275.82C525.68 272.62 527.84 270.4 530.98 270.4C534.24 270.4 536.34 272.8 536.26 276.3H526.86C527.06 278.64 528.66 280.16 530.96 280.16C532.64 280.16 533.98 279.38 534.66 278.04L535.96 278.06C535.16 280.04 533.28 281.26 530.96 281.26ZM526.86 275.28H535.12C534.84 272.94 533.24 271.5 530.98 271.5C528.68 271.5 527.06 273 526.86 275.28ZM539.431 281V270.66H540.411L540.531 272.98C541.231 271.42 542.411 270.66 544.331 270.66H545.191V271.74H544.291C542.071 271.74 540.591 273.1 540.591 276.24V281H539.431ZM357.02 310L352.4 299.66H353.66L355.46 303.66L357.6 308.48L359.72 303.66L361.54 299.66H362.78L358.16 310H357.02ZM367.945 310.16C365.545 310.16 364.045 308.98 364.045 307.08C364.045 305.24 365.445 304.08 367.565 304.08H372.125V303.34C372.125 301.62 370.865 300.48 368.945 300.48C367.385 300.48 366.165 301.28 365.745 302.52H364.565C365.065 300.6 366.725 299.4 368.925 299.4C371.505 299.4 373.285 300.98 373.285 303.28V310H372.325L372.205 308.22C371.305 309.46 369.785 310.16 367.945 310.16ZM365.205 307.06C365.205 308.32 366.265 309.12 367.985 309.12C370.385 309.12 372.145 307.62 372.145 305.54V305.1H367.605C366.185 305.1 365.205 305.88 365.205 307.06ZM377.185 310V299.66H378.165L378.285 301.98C378.985 300.42 380.165 299.66 382.085 299.66H382.945V300.74H382.045C379.825 300.74 378.345 302.1 378.345 305.24V310H377.185ZM394.788 310.26C391.648 310.26 389.508 308.04 389.508 304.82C389.508 301.62 391.668 299.4 394.808 299.4C398.068 299.4 400.168 301.8 400.088 305.3H390.688C390.888 307.64 392.488 309.16 394.788 309.16C396.468 309.16 397.808 308.38 398.488 307.04L399.788 307.06C398.988 309.04 397.108 310.26 394.788 310.26ZM390.688 304.28H398.948C398.668 301.94 397.068 300.5 394.808 300.5C392.508 300.5 390.888 302 390.688 304.28ZM411.646 298.46C411.646 296.12 412.826 294.94 415.166 294.94H416.726V296.04H415.266C413.546 296.04 412.806 296.78 412.806 298.54V299.66H416.626V300.72H412.806V310H411.646V300.72H405.146V310H403.986V300.72H401.626V299.66H403.986V298.46C403.986 296.12 405.166 294.94 407.506 294.94H409.066V296.04H407.606C405.886 296.04 405.146 296.78 405.146 298.54V299.66H411.646V298.46ZM423.03 310.26C419.89 310.26 417.75 308.04 417.75 304.82C417.75 301.62 419.91 299.4 423.05 299.4C426.31 299.4 428.41 301.8 428.33 305.3H418.93C419.13 307.64 420.73 309.16 423.03 309.16C424.71 309.16 426.05 308.38 426.73 307.04L428.03 307.06C427.23 309.04 425.35 310.26 423.03 310.26ZM418.93 304.28H427.19C426.91 301.94 425.31 300.5 423.05 300.5C420.75 300.5 419.13 302 418.93 304.28ZM431.501 310V295.2H432.661V304.2H434.181C436.101 304.2 436.941 303.7 437.601 301.96L438.481 299.66H439.721L438.681 302.4C438.221 303.56 437.681 304.3 436.861 304.74L440.221 310H438.841L435.781 305.14C435.301 305.24 434.761 305.28 434.141 305.28H432.661V310H431.501ZM447.01 310C444.81 310 443.63 308.76 443.63 306.42V300.72H441.37V299.66H442.69C443.47 299.66 443.69 299.46 443.77 298.7L443.87 297.12H444.79V299.66H448.37V300.72H444.79V306.38C444.79 308.08 445.49 308.88 447.05 308.88H448.51V310H447.01ZM451.619 310V299.66H452.779V310H451.619ZM451.139 296.72C451.139 296.14 451.559 295.68 452.199 295.68C452.839 295.68 453.259 296.14 453.259 296.72C453.259 297.32 452.839 297.78 452.199 297.78C451.559 297.78 451.139 297.32 451.139 296.72ZM459.852 310L455.232 299.66H456.492L458.292 303.66L460.432 308.48L462.552 303.66L464.372 299.66H465.612L460.992 310H459.852ZM358.6 339.26C355.4 339.26 353.16 337.02 353.16 333.82C353.16 330.64 355.4 328.4 358.6 328.4C361.78 328.4 364.02 330.64 364.02 333.82C364.02 337.02 361.78 339.26 358.6 339.26ZM354.32 333.82C354.32 336.38 356.06 338.14 358.6 338.14C361.12 338.14 362.86 336.38 362.86 333.82C362.86 331.28 361.12 329.52 358.6 329.52C356.06 329.52 354.32 331.28 354.32 333.82ZM372.764 339.26C370.864 339.26 369.324 338.4 368.404 337.04V343H367.244V328.66H368.224L368.344 330.72C369.244 329.28 370.824 328.4 372.764 328.4C375.904 328.4 378.064 330.68 378.064 333.82C378.064 336.96 375.904 339.26 372.764 339.26ZM368.364 333.82C368.364 336.36 370.104 338.14 372.644 338.14C375.184 338.14 376.904 336.36 376.904 333.82C376.904 331.3 375.184 329.52 372.644 329.52C370.104 329.52 368.364 331.3 368.364 333.82ZM386.807 339.26C384.907 339.26 383.367 338.4 382.447 337.04V343H381.287V328.66H382.267L382.387 330.72C383.287 329.28 384.867 328.4 386.807 328.4C389.947 328.4 392.107 330.68 392.107 333.82C392.107 336.96 389.947 339.26 386.807 339.26ZM382.407 333.82C382.407 336.36 384.147 338.14 386.687 338.14C389.227 338.14 390.947 336.36 390.947 333.82C390.947 331.3 389.227 329.52 386.687 329.52C384.147 329.52 382.407 331.3 382.407 333.82ZM399.87 343.26C397.33 343.26 395.45 341.92 395.05 339.82H396.23C396.57 341.26 397.97 342.16 399.87 342.16C402.25 342.16 403.77 340.76 403.77 338.54V336.86C402.85 338.12 401.37 338.88 399.61 338.88C396.59 338.88 394.43 336.68 394.43 333.64C394.43 330.6 396.59 328.4 399.61 328.4C401.43 328.4 402.93 329.2 403.85 330.52L403.95 328.66H404.93V338.58C404.93 341.36 402.89 343.26 399.87 343.26ZM395.59 333.64C395.59 336.06 397.29 337.74 399.73 337.74C402.15 337.74 403.85 336.06 403.85 333.64C403.85 331.22 402.15 329.52 399.73 329.52C397.29 329.52 395.59 331.22 395.59 333.64ZM412.28 339.16C409.88 339.16 408.38 337.98 408.38 336.08C408.38 334.24 409.78 333.08 411.9 333.08H416.46V332.34C416.46 330.62 415.2 329.48 413.28 329.48C411.72 329.48 410.5 330.28 410.08 331.52H408.9C409.4 329.6 411.06 328.4 413.26 328.4C415.84 328.4 417.62 329.98 417.62 332.28V339H416.66L416.54 337.22C415.64 338.46 414.12 339.16 412.28 339.16ZM409.54 336.06C409.54 337.32 410.6 338.12 412.32 338.12C414.72 338.12 416.48 336.62 416.48 334.54V334.1H411.94C410.52 334.1 409.54 334.88 409.54 336.06ZM424.051 339L419.431 328.66H420.691L422.491 332.66L424.631 337.48L426.751 332.66L428.571 328.66H429.811L425.191 339H424.051ZM436.272 339.26C433.132 339.26 430.992 337.04 430.992 333.82C430.992 330.62 433.152 328.4 436.292 328.4C439.552 328.4 441.652 330.8 441.572 334.3H432.172C432.372 336.64 433.972 338.16 436.272 338.16C437.952 338.16 439.292 337.38 439.972 336.04L441.272 336.06C440.472 338.04 438.592 339.26 436.272 339.26ZM432.172 333.28H440.432C440.152 330.94 438.552 329.5 436.292 329.5C433.992 329.5 432.372 331 432.172 333.28ZM444.744 339V324.2H445.904V330.54C446.724 329.12 448.164 328.4 449.784 328.4C452.464 328.4 454.104 330.26 454.104 333.24V339H452.944V333.34C452.944 330.96 451.684 329.52 449.624 329.52C447.444 329.52 445.904 331.14 445.904 333.62V339H444.744ZM461.245 339.16C458.845 339.16 457.345 337.98 457.345 336.08C457.345 334.24 458.745 333.08 460.865 333.08H465.425V332.34C465.425 330.62 464.165 329.48 462.245 329.48C460.685 329.48 459.465 330.28 459.045 331.52H457.865C458.365 329.6 460.025 328.4 462.225 328.4C464.805 328.4 466.585 329.98 466.585 332.28V339H465.625L465.505 337.22C464.605 338.46 463.085 339.16 461.245 339.16ZM458.505 336.06C458.505 337.32 459.565 338.12 461.285 338.12C463.685 338.12 465.445 336.62 465.445 334.54V334.1H460.905C459.485 334.1 458.505 334.88 458.505 336.06ZM460.025 325.1C460.025 323.84 460.965 322.96 462.225 322.96C463.485 322.96 464.425 323.84 464.425 325.1C464.425 326.36 463.485 327.22 462.225 327.22C460.965 327.22 460.025 326.36 460.025 325.1ZM460.885 325.1C460.885 325.88 461.445 326.44 462.225 326.44C463.005 326.44 463.565 325.88 463.565 325.1C463.565 324.3 463.005 323.74 462.225 323.74C461.445 323.74 460.885 324.3 460.885 325.1ZM470.486 339V328.66H471.466L471.566 330.66C472.386 329.18 473.826 328.4 475.486 328.4C478.186 328.4 479.846 330.3 479.846 333.28V339H478.686V333.38C478.686 331 477.406 329.52 475.346 329.52C473.166 329.52 471.646 331.18 471.646 333.64V339H470.486ZM488.148 339.26C485.028 339.26 482.848 336.96 482.848 333.82C482.848 330.68 485.028 328.4 488.148 328.4C490.048 328.4 491.588 329.24 492.508 330.58V324.2H493.668V339H492.707L492.568 336.96C491.668 338.38 490.088 339.26 488.148 339.26ZM484.008 333.82C484.008 336.36 485.748 338.14 488.288 338.14C490.808 338.14 492.548 336.36 492.548 333.82C492.548 331.3 490.808 329.52 488.288 329.52C485.748 329.52 484.008 331.3 484.008 333.82ZM501.99 339C499.79 339 498.61 337.76 498.61 335.42V329.72H496.35V328.66H497.67C498.45 328.66 498.67 328.46 498.75 327.7L498.85 326.12H499.77V328.66H503.35V329.72H499.77V335.38C499.77 337.08 500.47 337.88 502.03 337.88H503.49V339H501.99ZM510.471 339.26C507.331 339.26 505.191 337.04 505.191 333.82C505.191 330.62 507.351 328.4 510.491 328.4C513.751 328.4 515.851 330.8 515.771 334.3H506.371C506.571 336.64 508.171 338.16 510.471 338.16C512.151 338.16 513.491 337.38 514.171 336.04L515.471 336.06C514.671 338.04 512.791 339.26 510.471 339.26ZM506.371 333.28H514.631C514.351 330.94 512.751 329.5 510.491 329.5C508.191 329.5 506.571 331 506.371 333.28ZM518.943 339V328.66H519.923L520.043 330.98C520.743 329.42 521.923 328.66 523.843 328.66H524.703V329.74H523.803C521.583 329.74 520.103 331.1 520.103 334.24V339H518.943ZM527.615 339V328.66H528.775V339H527.615ZM527.135 325.72C527.135 325.14 527.555 324.68 528.195 324.68C528.835 324.68 529.255 325.14 529.255 325.72C529.255 326.32 528.835 326.78 528.195 326.78C527.555 326.78 527.135 326.32 527.135 325.72ZM532.888 339V328.66H533.868L533.968 330.66C534.788 329.18 536.228 328.4 537.888 328.4C540.588 328.4 542.248 330.3 542.248 333.28V339H541.088V333.38C541.088 331 539.808 329.52 537.748 329.52C535.568 329.52 534.048 331.18 534.048 333.64V339H532.888ZM550.69 343.26C548.15 343.26 546.27 341.92 545.87 339.82H547.05C547.39 341.26 548.79 342.16 550.69 342.16C553.07 342.16 554.59 340.76 554.59 338.54V336.86C553.67 338.12 552.19 338.88 550.43 338.88C547.41 338.88 545.25 336.68 545.25 333.64C545.25 330.6 547.41 328.4 550.43 328.4C552.25 328.4 553.75 329.2 554.67 330.52L554.77 328.66H555.75V338.58C555.75 341.36 553.71 343.26 550.69 343.26ZM546.41 333.64C546.41 336.06 548.11 337.74 550.55 337.74C552.97 337.74 554.67 336.06 554.67 333.64C554.67 331.22 552.97 329.52 550.55 329.52C548.11 329.52 546.41 331.22 546.41 333.64ZM559.701 340.92C560.381 340.6 560.781 339.84 560.721 338.98C560.541 339.06 560.361 339.1 560.181 339.1C559.601 339.1 559.161 338.66 559.161 338.08C559.161 337.5 559.601 337.04 560.261 337.04C561.081 337.04 561.641 337.72 561.641 338.78C561.641 340.22 560.801 341.46 559.701 341.7V340.92ZM355.06 356.46C355.06 354.1 356.22 352.94 358.52 352.94H360.14V354.04H358.62C356.94 354.04 356.22 354.78 356.22 356.54V357.66H360.04V358.72H356.22V368H355.06V358.72H352.7V357.66H355.06V356.46ZM361.76 372V370.9H362.62C364.08 370.9 364.54 370.6 365.08 369.3L365.66 367.84L360.74 357.66H362.04L364.48 362.76L366.26 366.44L367.74 362.76L369.84 357.66H371.06L366.12 369.74C365.4 371.54 364.6 372 362.74 372H361.76ZM376.722 368.26C374.102 368.26 372.442 366.94 372.362 364.88H373.502C373.622 366.34 374.762 367.2 376.742 367.2C378.562 367.2 379.662 366.5 379.662 365.36C379.662 364.28 378.682 363.62 376.482 363.24C373.782 362.78 372.562 361.82 372.562 360.24C372.562 358.48 374.062 357.4 376.482 357.4C378.922 357.4 380.462 358.56 380.622 360.54H379.462C379.342 359.18 378.282 358.44 376.482 358.44C374.762 358.44 373.722 359.14 373.722 360.26C373.722 361.28 374.582 361.84 376.882 362.28C379.502 362.78 380.802 363.82 380.802 365.38C380.802 367.12 379.222 368.26 376.722 368.26ZM384.158 368V357.66H385.318V368H384.158ZM383.678 354.72C383.678 354.14 384.098 353.68 384.738 353.68C385.378 353.68 385.798 354.14 385.798 354.72C385.798 355.32 385.378 355.78 384.738 355.78C384.098 355.78 383.678 355.32 383.678 354.72ZM392.991 368.26C390.371 368.26 388.711 366.94 388.631 364.88H389.771C389.891 366.34 391.031 367.2 393.011 367.2C394.831 367.2 395.931 366.5 395.931 365.36C395.931 364.28 394.951 363.62 392.751 363.24C390.051 362.78 388.831 361.82 388.831 360.24C388.831 358.48 390.331 357.4 392.751 357.4C395.191 357.4 396.731 358.56 396.891 360.54H395.731C395.611 359.18 394.551 358.44 392.751 358.44C391.031 358.44 389.991 359.14 389.991 360.26C389.991 361.28 390.851 361.84 393.151 362.28C395.771 362.78 397.071 363.82 397.071 365.38C397.071 367.12 395.491 368.26 392.991 368.26ZM400.427 368V353.2H401.587V362.2H403.107C405.027 362.2 405.867 361.7 406.527 359.96L407.407 357.66H408.647L407.607 360.4C407.147 361.56 406.607 362.3 405.787 362.74L409.147 368H407.767L404.707 363.14C404.227 363.24 403.687 363.28 403.067 363.28H401.587V368H400.427ZM420.249 368.16C417.849 368.16 416.349 366.98 416.349 365.08C416.349 363.24 417.749 362.08 419.869 362.08H424.429V361.34C424.429 359.62 423.169 358.48 421.249 358.48C419.689 358.48 418.469 359.28 418.049 360.52H416.869C417.369 358.6 419.029 357.4 421.229 357.4C423.809 357.4 425.589 358.98 425.589 361.28V368H424.629L424.509 366.22C423.609 367.46 422.089 368.16 420.249 368.16ZM417.509 365.06C417.509 366.32 418.569 367.12 420.289 367.12C422.689 367.12 424.449 365.62 424.449 363.54V363.1H419.909C418.489 363.1 417.509 363.88 417.509 365.06ZM429.49 368V353.2H430.65V362.2H432.17C434.09 362.2 434.93 361.7 435.59 359.96L436.47 357.66H437.71L436.67 360.4C436.21 361.56 435.67 362.3 434.85 362.74L438.21 368H436.83L433.77 363.14C433.29 363.24 432.75 363.28 432.13 363.28H430.65V368H429.49ZM444.998 368C442.798 368 441.618 366.76 441.618 364.42V358.72H439.358V357.66H440.678C441.458 357.66 441.678 357.46 441.758 356.7L441.858 355.12H442.778V357.66H446.358V358.72H442.778V364.38C442.778 366.08 443.478 366.88 445.038 366.88H446.498V368H444.998ZM449.607 368V357.66H450.767V368H449.607ZM449.127 354.72C449.127 354.14 449.547 353.68 450.187 353.68C450.827 353.68 451.247 354.14 451.247 354.72C451.247 355.32 450.827 355.78 450.187 355.78C449.547 355.78 449.127 355.32 449.127 354.72ZM457.84 368L453.22 357.66H454.48L456.28 361.66L458.42 366.48L460.54 361.66L462.36 357.66H463.6L458.98 368H457.84ZM466.072 368V357.66H467.232V368H466.072ZM465.592 354.72C465.592 354.14 466.012 353.68 466.652 353.68C467.292 353.68 467.712 354.14 467.712 354.72C467.712 355.32 467.292 355.78 466.652 355.78C466.012 355.78 465.592 355.32 465.592 354.72ZM475.545 368C473.345 368 472.165 366.76 472.165 364.42V358.72H469.905V357.66H471.225C472.005 357.66 472.225 357.46 472.305 356.7L472.405 355.12H473.325V357.66H476.905V358.72H473.325V364.38C473.325 366.08 474.025 366.88 475.585 366.88H477.045V368H475.545ZM484.026 368.26C480.886 368.26 478.746 366.04 478.746 362.82C478.746 359.62 480.906 357.4 484.046 357.4C487.306 357.4 489.406 359.8 489.326 363.3H479.926C480.126 365.64 481.726 367.16 484.026 367.16C485.706 367.16 487.046 366.38 487.726 365.04L489.026 365.06C488.226 367.04 486.346 368.26 484.026 368.26ZM479.926 362.28H488.186C487.906 359.94 486.306 358.5 484.046 358.5C481.746 358.5 480.126 360 479.926 362.28ZM496.365 368C494.165 368 492.985 366.76 492.985 364.42V358.72H490.725V357.66H492.045C492.825 357.66 493.045 357.46 493.125 356.7L493.225 355.12H494.145V357.66H497.725V358.72H494.145V364.38C494.145 366.08 494.845 366.88 496.405 366.88H497.865V368H496.365ZM500.814 369.92C501.494 369.6 501.894 368.84 501.834 367.98C501.654 368.06 501.474 368.1 501.294 368.1C500.714 368.1 500.274 367.66 500.274 367.08C500.274 366.5 500.714 366.04 501.374 366.04C502.194 366.04 502.754 366.72 502.754 367.78C502.754 369.22 501.914 370.46 500.814 370.7V369.92ZM515.592 368.26C512.392 368.26 510.152 366.02 510.152 362.82C510.152 359.64 512.392 357.4 515.592 357.4C518.772 357.4 521.012 359.64 521.012 362.82C521.012 366.02 518.772 368.26 515.592 368.26ZM511.312 362.82C511.312 365.38 513.052 367.14 515.592 367.14C518.112 367.14 519.852 365.38 519.852 362.82C519.852 360.28 518.112 358.52 515.592 358.52C513.052 358.52 511.312 360.28 511.312 362.82ZM528.776 372.26C526.236 372.26 524.356 370.92 523.956 368.82H525.136C525.476 370.26 526.876 371.16 528.776 371.16C531.156 371.16 532.676 369.76 532.676 367.54V365.86C531.756 367.12 530.276 367.88 528.516 367.88C525.496 367.88 523.336 365.68 523.336 362.64C523.336 359.6 525.496 357.4 528.516 357.4C530.336 357.4 531.836 358.2 532.756 359.52L532.856 357.66H533.836V367.58C533.836 370.36 531.796 372.26 528.776 372.26ZM524.496 362.64C524.496 365.06 526.196 366.74 528.636 366.74C531.056 366.74 532.756 365.06 532.756 362.64C532.756 360.22 531.056 358.52 528.636 358.52C526.196 358.52 524.496 360.22 524.496 362.64ZM355.06 385.46C355.06 383.1 356.22 381.94 358.52 381.94H360.14V383.04H358.62C356.94 383.04 356.22 383.78 356.22 385.54V386.66H360.04V387.72H356.22V397H355.06V387.72H352.7V386.66H355.06V385.46ZM362.4 397V386.66H363.38L363.5 388.98C364.2 387.42 365.38 386.66 367.3 386.66H368.16V387.74H367.26C365.04 387.74 363.56 389.1 363.56 392.24V397H362.4ZM371.072 397V386.66H372.232V397H371.072ZM370.592 383.72C370.592 383.14 371.012 382.68 371.652 382.68C372.292 382.68 372.712 383.14 372.712 383.72C372.712 384.32 372.292 384.78 371.652 384.78C371.012 384.78 370.592 384.32 370.592 383.72ZM380.745 397.26C377.625 397.26 375.445 394.96 375.445 391.82C375.445 388.68 377.625 386.4 380.745 386.4C382.645 386.4 384.185 387.24 385.105 388.58V382.2H386.265V397H385.305L385.165 394.96C384.265 396.38 382.685 397.26 380.745 397.26ZM376.605 391.82C376.605 394.36 378.345 396.14 380.885 396.14C383.405 396.14 385.145 394.36 385.145 391.82C385.145 389.3 383.405 387.52 380.885 387.52C378.345 387.52 376.605 389.3 376.605 391.82ZM394.588 397C392.388 397 391.208 395.76 391.208 393.42V387.72H388.948V386.66H390.268C391.048 386.66 391.268 386.46 391.348 385.7L391.448 384.12H392.368V386.66H395.948V387.72H392.368V393.38C392.368 395.08 393.068 395.88 394.628 395.88H396.088V397H394.588ZM399.197 397V386.66H400.357V397H399.197ZM398.717 383.72C398.717 383.14 399.137 382.68 399.777 382.68C400.417 382.68 400.837 383.14 400.837 383.72C400.837 384.32 400.417 384.78 399.777 384.78C399.137 384.78 398.717 384.32 398.717 383.72ZM408.87 397.26C405.75 397.26 403.57 394.96 403.57 391.82C403.57 388.68 405.75 386.4 408.87 386.4C410.77 386.4 412.31 387.24 413.23 388.58V382.2H414.39V397H413.43L413.29 394.96C412.39 396.38 410.81 397.26 408.87 397.26ZM404.73 391.82C404.73 394.36 406.47 396.14 409.01 396.14C411.53 396.14 413.27 394.36 413.27 391.82C413.27 389.3 411.53 387.52 409.01 387.52C406.47 387.52 404.73 389.3 404.73 391.82ZM422.073 397.26C419.453 397.26 417.793 395.94 417.713 393.88H418.853C418.973 395.34 420.113 396.2 422.093 396.2C423.913 396.2 425.013 395.5 425.013 394.36C425.013 393.28 424.033 392.62 421.833 392.24C419.133 391.78 417.913 390.82 417.913 389.24C417.913 387.48 419.413 386.4 421.833 386.4C424.273 386.4 425.813 387.56 425.973 389.54H424.813C424.693 388.18 423.633 387.44 421.833 387.44C420.113 387.44 419.073 388.14 419.073 389.26C419.073 390.28 419.933 390.84 422.233 391.28C424.853 391.78 426.153 392.82 426.153 394.38C426.153 396.12 424.573 397.26 422.073 397.26ZM432.632 397.16C430.232 397.16 428.732 395.98 428.732 394.08C428.732 392.24 430.132 391.08 432.252 391.08H436.812V390.34C436.812 388.62 435.552 387.48 433.632 387.48C432.072 387.48 430.852 388.28 430.432 389.52H429.252C429.752 387.6 431.412 386.4 433.612 386.4C436.192 386.4 437.972 387.98 437.972 390.28V397H437.012L436.892 395.22C435.992 396.46 434.472 397.16 432.632 397.16ZM429.892 394.06C429.892 395.32 430.952 396.12 432.672 396.12C435.072 396.12 436.832 394.62 436.832 392.54V392.1H432.292C430.872 392.1 429.892 392.88 429.892 394.06ZM441.873 397V382.2H443.033V391.2H444.553C446.473 391.2 447.313 390.7 447.973 388.96L448.853 386.66H450.092L449.053 389.4C448.593 390.56 448.053 391.3 447.233 391.74L450.593 397H449.213L446.153 392.14C445.673 392.24 445.133 392.28 444.513 392.28H443.033V397H441.873ZM457.381 397C455.181 397 454.001 395.76 454.001 393.42V387.72H451.741V386.66H453.061C453.841 386.66 454.061 386.46 454.141 385.7L454.241 384.12H455.161V386.66H458.741V387.72H455.161V393.38C455.161 395.08 455.861 395.88 457.421 395.88H458.881V397H457.381ZM461.99 397V386.66H463.15V397H461.99ZM461.51 383.72C461.51 383.14 461.93 382.68 462.57 382.68C463.21 382.68 463.63 383.14 463.63 383.72C463.63 384.32 463.21 384.78 462.57 384.78C461.93 384.78 461.51 384.32 461.51 383.72ZM470.223 397L465.603 386.66H466.863L468.663 390.66L470.803 395.48L472.923 390.66L474.743 386.66H475.983L471.363 397H470.223ZM478.455 397V386.66H479.615V397H478.455ZM477.975 383.72C477.975 383.14 478.395 382.68 479.035 382.68C479.675 382.68 480.095 383.14 480.095 383.72C480.095 384.32 479.675 384.78 479.035 384.78C478.395 384.78 477.975 384.32 477.975 383.72ZM487.928 397C485.728 397 484.548 395.76 484.548 393.42V387.72H482.288V386.66H483.608C484.388 386.66 484.608 386.46 484.688 385.7L484.788 384.12H485.708V386.66H489.288V387.72H485.708V393.38C485.708 395.08 486.408 395.88 487.968 395.88H489.428V397H487.928ZM496.409 397.26C493.269 397.26 491.129 395.04 491.129 391.82C491.129 388.62 493.289 386.4 496.429 386.4C499.689 386.4 501.789 388.8 501.709 392.3H492.309C492.509 394.64 494.109 396.16 496.409 396.16C498.089 396.16 499.429 395.38 500.109 394.04L501.409 394.06C500.609 396.04 498.729 397.26 496.409 397.26ZM492.309 391.28H500.569C500.289 388.94 498.689 387.5 496.429 387.5C494.129 387.5 492.509 389 492.309 391.28ZM508.748 397C506.548 397 505.368 395.76 505.368 393.42V387.72H503.108V386.66H504.428C505.208 386.66 505.428 386.46 505.508 385.7L505.608 384.12H506.528V386.66H510.108V387.72H506.528V393.38C506.528 395.08 507.228 395.88 508.788 395.88H510.248V397H508.748ZM517.229 397.26C514.089 397.26 511.949 395.04 511.949 391.82C511.949 388.62 514.109 386.4 517.249 386.4C520.509 386.4 522.609 388.8 522.529 392.3H513.129C513.329 394.64 514.929 396.16 517.229 396.16C518.909 396.16 520.249 395.38 520.929 394.04L522.229 394.06C521.429 396.04 519.549 397.26 517.229 397.26ZM513.129 391.28H521.389C521.109 388.94 519.509 387.5 517.249 387.5C514.949 387.5 513.329 389 513.129 391.28ZM525.701 397V386.66H526.681L526.801 388.98C527.501 387.42 528.681 386.66 530.601 386.66H531.461V387.74H530.561C528.341 387.74 526.861 389.1 526.861 392.24V397H525.701Z" fill="black"/>
<path d="M29.06 429.46C29.06 427.1 30.22 425.94 32.52 425.94H34.14V427.04H32.62C30.94 427.04 30.22 427.78 30.22 429.54V430.66H34.04V431.72H30.22V441H29.06V431.72H26.7V430.66H29.06V429.46ZM35.7878 441.74L37.0078 440.04C35.8478 439.06 35.1678 437.58 35.1678 435.82C35.1678 432.64 37.4078 430.4 40.6078 430.4C41.5878 430.4 42.4878 430.62 43.2678 431.02L44.0478 429.9H45.4078L44.1878 431.62C45.3478 432.58 46.0278 434.06 46.0278 435.82C46.0278 439.02 43.7878 441.26 40.6078 441.26C39.6078 441.26 38.6878 441.04 37.9278 440.64L37.1478 441.74H35.7878ZM36.3278 435.82C36.3278 437.2 36.8278 438.34 37.6878 439.1L42.6278 431.96C42.0478 431.68 41.3678 431.52 40.6078 431.52C38.0678 431.52 36.3278 433.28 36.3278 435.82ZM38.5678 439.7C39.1678 439.98 39.8478 440.14 40.6078 440.14C43.1278 440.14 44.8678 438.38 44.8678 435.82C44.8678 434.46 44.3678 433.32 43.5078 432.56L38.5678 439.7ZM49.2514 441V426.2H50.4114V441H49.2514ZM58.9048 441.26C55.7648 441.26 53.6248 439.04 53.6248 435.82C53.6248 432.62 55.7848 430.4 58.9248 430.4C62.1848 430.4 64.2848 432.8 64.2048 436.3H54.8048C55.0048 438.64 56.6048 440.16 58.9048 440.16C60.5848 440.16 61.9248 439.38 62.6048 438.04L63.9048 438.06C63.1048 440.04 61.2248 441.26 58.9048 441.26ZM54.8048 435.28H63.0648C62.7848 432.94 61.1848 431.5 58.9248 431.5C56.6248 431.5 55.0048 433 54.8048 435.28ZM67.3764 441V426.2H68.5364V441H67.3764ZM76.2098 441.26C73.5898 441.26 71.9298 439.94 71.8498 437.88H72.9898C73.1098 439.34 74.2498 440.2 76.2298 440.2C78.0498 440.2 79.1498 439.5 79.1498 438.36C79.1498 437.28 78.1698 436.62 75.9698 436.24C73.2698 435.78 72.0498 434.82 72.0498 433.24C72.0498 431.48 73.5498 430.4 75.9698 430.4C78.4098 430.4 79.9498 431.56 80.1098 433.54H78.9498C78.8298 432.18 77.7698 431.44 75.9698 431.44C74.2498 431.44 73.2098 432.14 73.2098 433.26C73.2098 434.28 74.0698 434.84 76.3698 435.28C78.9898 435.78 80.2898 436.82 80.2898 438.38C80.2898 440.12 78.7098 441.26 76.2098 441.26ZM88.0259 441.26C84.8859 441.26 82.7459 439.04 82.7459 435.82C82.7459 432.62 84.9059 430.4 88.0459 430.4C91.3059 430.4 93.4059 432.8 93.3259 436.3H83.9259C84.1259 438.64 85.7259 440.16 88.0259 440.16C89.7059 440.16 91.0459 439.38 91.7259 438.04L93.0259 438.06C92.2259 440.04 90.3459 441.26 88.0259 441.26ZM83.9259 435.28H92.1859C91.9059 432.94 90.3059 431.5 88.0459 431.5C85.7459 431.5 84.1259 433 83.9259 435.28ZM96.4975 441V430.66H97.4775L97.5775 432.66C98.3975 431.18 99.8375 430.4 101.498 430.4C104.198 430.4 105.858 432.3 105.858 435.28V441H104.698V435.38C104.698 433 103.418 431.52 101.358 431.52C99.1775 431.52 97.6575 433.18 97.6575 435.64V441H96.4975ZM118.351 441.16C115.951 441.16 114.451 439.98 114.451 438.08C114.451 436.24 115.851 435.08 117.971 435.08H122.531V434.34C122.531 432.62 121.271 431.48 119.351 431.48C117.791 431.48 116.571 432.28 116.151 433.52H114.971C115.471 431.6 117.131 430.4 119.331 430.4C121.911 430.4 123.691 431.98 123.691 434.28V441H122.731L122.611 439.22C121.711 440.46 120.191 441.16 118.351 441.16ZM115.611 438.06C115.611 439.32 116.671 440.12 118.391 440.12C120.791 440.12 122.551 438.62 122.551 436.54V436.1H118.011C116.591 436.1 115.611 436.88 115.611 438.06ZM130.122 441L125.502 430.66H126.762L128.562 434.66L130.702 439.48L132.822 434.66L134.642 430.66H135.882L131.262 441H130.122ZM146.476 441.16C144.076 441.16 142.576 439.98 142.576 438.08C142.576 436.24 143.976 435.08 146.096 435.08H150.656V434.34C150.656 432.62 149.396 431.48 147.476 431.48C145.916 431.48 144.696 432.28 144.276 433.52H143.096C143.596 431.6 145.256 430.4 147.456 430.4C150.036 430.4 151.816 431.98 151.816 434.28V441H150.856L150.736 439.22C149.836 440.46 148.316 441.16 146.476 441.16ZM143.736 438.06C143.736 439.32 144.796 440.12 146.516 440.12C148.916 440.12 150.676 438.62 150.676 436.54V436.1H146.136C144.716 436.1 143.736 436.88 143.736 438.06ZM145.256 427.1C145.256 425.84 146.196 424.96 147.456 424.96C148.716 424.96 149.656 425.84 149.656 427.1C149.656 428.36 148.716 429.22 147.456 429.22C146.196 429.22 145.256 428.36 145.256 427.1ZM146.116 427.1C146.116 427.88 146.676 428.44 147.456 428.44C148.236 428.44 148.796 427.88 148.796 427.1C148.796 426.3 148.236 425.74 147.456 425.74C146.676 425.74 146.116 426.3 146.116 427.1ZM161.068 441V426.2H162.228V432.54C163.048 431.12 164.488 430.4 166.108 430.4C168.788 430.4 170.428 432.26 170.428 435.24V441H169.268V435.34C169.268 432.96 168.008 431.52 165.948 431.52C163.768 431.52 162.228 433.14 162.228 435.62V441H161.068ZM177.57 441.16C175.17 441.16 173.67 439.98 173.67 438.08C173.67 436.24 175.07 435.08 177.19 435.08H181.75V434.34C181.75 432.62 180.49 431.48 178.57 431.48C177.01 431.48 175.79 432.28 175.37 433.52H174.19C174.69 431.6 176.35 430.4 178.55 430.4C181.13 430.4 182.91 431.98 182.91 434.28V441H181.95L181.83 439.22C180.93 440.46 179.41 441.16 177.57 441.16ZM174.83 438.06C174.83 439.32 175.89 440.12 177.61 440.12C180.01 440.12 181.77 438.62 181.77 436.54V436.1H177.23C175.81 436.1 174.83 436.88 174.83 438.06ZM192.162 441V426.2H193.322V435.2H194.842C196.762 435.2 197.602 434.7 198.262 432.96L199.142 430.66H200.382L199.342 433.4C198.882 434.56 198.342 435.3 197.522 435.74L200.882 441H199.502L196.442 436.14C195.962 436.24 195.422 436.28 194.802 436.28H193.322V441H192.162ZM207.952 441.26C204.752 441.26 202.512 439.02 202.512 435.82C202.512 432.64 204.752 430.4 207.952 430.4C211.132 430.4 213.372 432.64 213.372 435.82C213.372 439.02 211.132 441.26 207.952 441.26ZM203.672 435.82C203.672 438.38 205.412 440.14 207.952 440.14C210.472 440.14 212.212 438.38 212.212 435.82C212.212 433.28 210.472 431.52 207.952 431.52C205.412 431.52 203.672 433.28 203.672 435.82ZM216.595 441V430.66H217.575L217.675 432.66C218.495 431.18 219.935 430.4 221.595 430.4C224.295 430.4 225.955 432.3 225.955 435.28V441H224.795V435.38C224.795 433 223.515 431.52 221.455 431.52C219.275 431.52 217.755 433.18 217.755 435.64V441H216.595ZM233.725 441C231.525 441 230.345 439.76 230.345 437.42V431.72H228.085V430.66H229.405C230.185 430.66 230.405 430.46 230.485 429.7L230.585 428.12H231.505V430.66H235.085V431.72H231.505V437.38C231.505 439.08 232.205 439.88 233.765 439.88H235.225V441H233.725ZM238.333 441V430.66H239.313L239.433 432.98C240.133 431.42 241.313 430.66 243.233 430.66H244.093V431.74H243.193C240.973 431.74 239.493 433.1 239.493 436.24V441H238.333ZM250.745 441.26C247.545 441.26 245.305 439.02 245.305 435.82C245.305 432.64 247.545 430.4 250.745 430.4C253.925 430.4 256.165 432.64 256.165 435.82C256.165 439.02 253.925 441.26 250.745 441.26ZM246.465 435.82C246.465 438.38 248.205 440.14 250.745 440.14C253.265 440.14 255.005 438.38 255.005 435.82C255.005 433.28 253.265 431.52 250.745 431.52C248.205 431.52 246.465 433.28 246.465 435.82ZM259.388 441V426.2H260.548V441H259.388ZM264.662 441V426.2H265.822V441H264.662ZM32.6 470.26C29.4 470.26 27.16 468.02 27.16 464.82C27.16 461.64 29.4 459.4 32.6 459.4C35.78 459.4 38.02 461.64 38.02 464.82C38.02 468.02 35.78 470.26 32.6 470.26ZM28.32 464.82C28.32 467.38 30.06 469.14 32.6 469.14C35.12 469.14 36.86 467.38 36.86 464.82C36.86 462.28 35.12 460.52 32.6 460.52C30.06 460.52 28.32 462.28 28.32 464.82ZM43.813 470L39.193 459.66H40.453L42.253 463.66L44.393 468.48L46.513 463.66L48.333 459.66H49.573L44.953 470H43.813ZM56.0338 470.26C52.8938 470.26 50.7538 468.04 50.7538 464.82C50.7538 461.62 52.9138 459.4 56.0538 459.4C59.3138 459.4 61.4138 461.8 61.3338 465.3H51.9338C52.1338 467.64 53.7338 469.16 56.0338 469.16C57.7138 469.16 59.0538 468.38 59.7338 467.04L61.0338 467.06C60.2338 469.04 58.3538 470.26 56.0338 470.26ZM51.9338 464.28H60.1938C59.9138 461.94 58.3138 460.5 56.0538 460.5C53.7538 460.5 52.1338 462 51.9338 464.28ZM64.5053 470V459.66H65.4853L65.6053 461.98C66.3053 460.42 67.4853 459.66 69.4053 459.66H70.2653V460.74H69.3653C67.1453 460.74 65.6653 462.1 65.6653 465.24V470H64.5053ZM82.128 470.26C79.008 470.26 76.828 467.96 76.828 464.82C76.828 461.68 79.008 459.4 82.128 459.4C84.028 459.4 85.568 460.24 86.488 461.58V455.2H87.648V470H86.688L86.548 467.96C85.648 469.38 84.068 470.26 82.128 470.26ZM77.988 464.82C77.988 467.36 79.728 469.14 82.268 469.14C84.788 469.14 86.528 467.36 86.528 464.82C86.528 462.3 84.788 460.52 82.268 460.52C79.728 460.52 77.988 462.3 77.988 464.82ZM91.7709 470V459.66H92.9309V470H91.7709ZM91.2909 456.72C91.2909 456.14 91.7109 455.68 92.3509 455.68C92.9909 455.68 93.4109 456.14 93.4109 456.72C93.4109 457.32 92.9909 457.78 92.3509 457.78C91.7109 457.78 91.2909 457.32 91.2909 456.72ZM97.0444 470V459.66H98.0244L98.1244 461.66C98.9444 460.18 100.384 459.4 102.044 459.4C104.744 459.4 106.404 461.3 106.404 464.28V470H105.244V464.38C105.244 462 103.964 460.52 101.904 460.52C99.7244 460.52 98.2044 462.18 98.2044 464.64V470H97.0444ZM119.569 470.26C116.429 470.26 114.289 468.04 114.289 464.82C114.289 461.62 116.449 459.4 119.589 459.4C122.849 459.4 124.949 461.8 124.869 465.3H115.469C115.669 467.64 117.269 469.16 119.569 469.16C121.249 469.16 122.589 468.38 123.269 467.04L124.569 467.06C123.769 469.04 121.889 470.26 119.569 470.26ZM115.469 464.28H123.729C123.449 461.94 121.849 460.5 119.589 460.5C117.289 460.5 115.669 462 115.469 464.28ZM132.58 474.26C130.04 474.26 128.16 472.92 127.76 470.82H128.94C129.28 472.26 130.68 473.16 132.58 473.16C134.96 473.16 136.48 471.76 136.48 469.54V467.86C135.56 469.12 134.08 469.88 132.32 469.88C129.3 469.88 127.14 467.68 127.14 464.64C127.14 461.6 129.3 459.4 132.32 459.4C134.14 459.4 135.64 460.2 136.56 461.52L136.66 459.66H137.64V469.58C137.64 472.36 135.6 474.26 132.58 474.26ZM128.3 464.64C128.3 467.06 130 468.74 132.44 468.74C134.86 468.74 136.56 467.06 136.56 464.64C136.56 462.22 134.86 460.52 132.44 460.52C130 460.52 128.3 462.22 128.3 464.64ZM146.131 470.26C142.991 470.26 140.851 468.04 140.851 464.82C140.851 461.62 143.011 459.4 146.151 459.4C149.411 459.4 151.511 461.8 151.431 465.3H142.031C142.231 467.64 143.831 469.16 146.131 469.16C147.811 469.16 149.151 468.38 149.831 467.04L151.131 467.06C150.331 469.04 148.451 470.26 146.131 470.26ZM142.031 464.28H150.291C150.011 461.94 148.411 460.5 146.151 460.5C143.851 460.5 142.231 462 142.031 464.28ZM154.603 470V459.66H155.583L155.683 461.66C156.503 460.18 157.943 459.4 159.603 459.4C162.303 459.4 163.963 461.3 163.963 464.28V470H162.803V464.38C162.803 462 161.523 460.52 159.463 460.52C157.283 460.52 155.763 462.18 155.763 464.64V470H154.603ZM176.83 470C174.63 470 173.45 468.76 173.45 466.42V460.72H171.19V459.66H172.51C173.29 459.66 173.51 459.46 173.59 458.7L173.69 457.12H174.61V459.66H178.19V460.72H174.61V466.38C174.61 468.08 175.31 468.88 176.87 468.88H178.33V470H176.83ZM181.439 470V459.66H182.599V470H181.439ZM180.959 456.72C180.959 456.14 181.379 455.68 182.019 455.68C182.659 455.68 183.079 456.14 183.079 456.72C183.079 457.32 182.659 457.78 182.019 457.78C181.379 457.78 180.959 457.32 180.959 456.72ZM191.112 470.26C187.992 470.26 185.812 467.96 185.812 464.82C185.812 461.68 187.992 459.4 191.112 459.4C193.012 459.4 194.552 460.24 195.472 461.58V455.2H196.632V470H195.672L195.532 467.96C194.632 469.38 193.052 470.26 191.112 470.26ZM186.972 464.82C186.972 467.36 188.712 469.14 191.252 469.14C193.772 469.14 195.512 467.36 195.512 464.82C195.512 462.3 193.772 460.52 191.252 460.52C188.712 460.52 186.972 462.3 186.972 464.82ZM206.326 458.46C206.326 456.1 207.486 454.94 209.786 454.94H211.406V456.04H209.886C208.206 456.04 207.486 456.78 207.486 458.54V459.66H211.306V460.72H207.486V470H206.326V460.72H203.966V459.66H206.326V458.46ZM213.053 470.74L214.273 469.04C213.113 468.06 212.433 466.58 212.433 464.82C212.433 461.64 214.673 459.4 217.873 459.4C218.853 459.4 219.753 459.62 220.533 460.02L221.313 458.9H222.673L221.453 460.62C222.613 461.58 223.293 463.06 223.293 464.82C223.293 468.02 221.053 470.26 217.873 470.26C216.873 470.26 215.953 470.04 215.193 469.64L214.413 470.74H213.053ZM213.593 464.82C213.593 466.2 214.093 467.34 214.953 468.1L219.893 460.96C219.313 460.68 218.633 460.52 217.873 460.52C215.333 460.52 213.593 462.28 213.593 464.82ZM215.833 468.7C216.433 468.98 217.113 469.14 217.873 469.14C220.393 469.14 222.133 467.38 222.133 464.82C222.133 463.46 221.633 462.32 220.773 461.56L215.833 468.7ZM226.517 470V459.66H227.497L227.617 461.98C228.317 460.42 229.497 459.66 231.417 459.66H232.277V460.74H231.377C229.157 460.74 227.677 462.1 227.677 465.24V470H226.517ZM238.768 470.26C235.628 470.26 233.488 468.04 233.488 464.82C233.488 461.62 235.648 459.4 238.788 459.4C242.048 459.4 244.148 461.8 244.068 465.3H234.668C234.868 467.64 236.468 469.16 238.768 469.16C240.448 469.16 241.788 468.38 242.468 467.04L243.768 467.06C242.968 469.04 241.088 470.26 238.768 470.26ZM234.668 464.28H242.928C242.648 461.94 241.048 460.5 238.788 460.5C236.488 460.5 234.868 462 234.668 464.28ZM247.24 470V459.66H248.22L248.34 461.98C249.04 460.42 250.22 459.66 252.14 459.66H253V460.74H252.1C249.88 460.74 248.4 462.1 248.4 465.24V470H247.24ZM264.545 470C262.345 470 261.165 468.76 261.165 466.42V460.72H258.905V459.66H260.225C261.005 459.66 261.225 459.46 261.305 458.7L261.405 457.12H262.325V459.66H265.905V460.72H262.325V466.38C262.325 468.08 263.025 468.88 264.585 468.88H266.045V470H264.545ZM269.154 470V459.66H270.314V470H269.154ZM268.674 456.72C268.674 456.14 269.094 455.68 269.734 455.68C270.374 455.68 270.794 456.14 270.794 456.72C270.794 457.32 270.374 457.78 269.734 457.78C269.094 457.78 268.674 457.32 268.674 456.72ZM274.427 470V455.2H275.587V470H274.427ZM28.06 499V484.2H29.22V499H28.06ZM36.5734 499.16C34.1734 499.16 32.6734 497.98 32.6734 496.08C32.6734 494.24 34.0734 493.08 36.1934 493.08H40.7534V492.34C40.7534 490.62 39.4934 489.48 37.5734 489.48C36.0134 489.48 34.7934 490.28 34.3734 491.52H33.1934C33.6934 489.6 35.3534 488.4 37.5534 488.4C40.1334 488.4 41.9134 489.98 41.9134 492.28V499H40.9534L40.8334 497.22C39.9334 498.46 38.4134 499.16 36.5734 499.16ZM33.8334 496.06C33.8334 497.32 34.8934 498.12 36.6134 498.12C39.0134 498.12 40.7734 496.62 40.7734 494.54V494.1H36.2334C34.8134 494.1 33.8334 494.88 33.8334 496.06ZM48.3442 499L43.7242 488.66H44.9842L46.7842 492.66L48.9242 497.48L51.0442 492.66L52.8642 488.66H54.1042L49.4842 499H48.3442ZM60.565 499.26C57.425 499.26 55.285 497.04 55.285 493.82C55.285 490.62 57.445 488.4 60.585 488.4C63.845 488.4 65.945 490.8 65.865 494.3H56.465C56.665 496.64 58.265 498.16 60.565 498.16C62.245 498.16 63.585 497.38 64.265 496.04L65.565 496.06C64.765 498.04 62.885 499.26 60.565 499.26ZM56.465 493.28H64.725C64.445 490.94 62.845 489.5 60.585 489.5C58.285 489.5 56.665 491 56.465 493.28ZM69.0366 499V488.66H70.0166L70.1366 490.98C70.8366 489.42 72.0166 488.66 73.9366 488.66H74.7966V489.74H73.8966C71.6766 489.74 70.1966 491.1 70.1966 494.24V499H69.0366ZM81.2877 499.26C78.1477 499.26 76.0077 497.04 76.0077 493.82C76.0077 490.62 78.1677 488.4 81.3077 488.4C84.5677 488.4 86.6677 490.8 86.5877 494.3H77.1877C77.3877 496.64 78.9877 498.16 81.2877 498.16C82.9677 498.16 84.3077 497.38 84.9877 496.04L86.2877 496.06C85.4877 498.04 83.6077 499.26 81.2877 499.26ZM77.1877 493.28H85.4477C85.1677 490.94 83.5677 489.5 81.3077 489.5C79.0077 489.5 77.3877 491 77.1877 493.28ZM94.642 499V488.66H95.622L95.722 490.66C96.542 489.18 97.982 488.4 99.642 488.4C102.342 488.4 104.002 490.3 104.002 493.28V499H102.842V493.38C102.842 491 101.562 489.52 99.502 489.52C97.322 489.52 95.802 491.18 95.802 493.64V499H94.642ZM107.904 499V488.66H109.064V499H107.904ZM107.424 485.72C107.424 485.14 107.844 484.68 108.484 484.68C109.124 484.68 109.544 485.14 109.544 485.72C109.544 486.32 109.124 486.78 108.484 486.78C107.844 486.78 107.424 486.32 107.424 485.72ZM116.137 499L111.517 488.66H112.777L114.577 492.66L116.717 497.48L118.837 492.66L120.657 488.66H121.897L117.277 499H116.137ZM127.062 499.16C124.662 499.16 123.162 497.98 123.162 496.08C123.162 494.24 124.562 493.08 126.682 493.08H131.242V492.34C131.242 490.62 129.982 489.48 128.062 489.48C126.502 489.48 125.282 490.28 124.862 491.52H123.682C124.182 489.6 125.842 488.4 128.042 488.4C130.622 488.4 132.402 489.98 132.402 492.28V499H131.442L131.322 497.22C130.422 498.46 128.902 499.16 127.062 499.16ZM124.322 496.06C124.322 497.32 125.382 498.12 127.102 498.12C129.502 498.12 131.262 496.62 131.262 494.54V494.1H126.722C125.302 494.1 124.322 494.88 124.322 496.06ZM125.842 485.1C125.842 483.84 126.782 482.96 128.042 482.96C129.302 482.96 130.242 483.84 130.242 485.1C130.242 486.36 129.302 487.22 128.042 487.22C126.782 487.22 125.842 486.36 125.842 485.1ZM126.702 485.1C126.702 485.88 127.262 486.44 128.042 486.44C128.822 486.44 129.382 485.88 129.382 485.1C129.382 484.3 128.822 483.74 128.042 483.74C127.262 483.74 126.702 484.3 126.702 485.1ZM140.682 499.26C137.542 499.26 135.402 497.04 135.402 493.82C135.402 490.62 137.562 488.4 140.702 488.4C143.962 488.4 146.062 490.8 145.982 494.3H136.582C136.782 496.64 138.382 498.16 140.682 498.16C142.362 498.16 143.702 497.38 144.382 496.04L145.682 496.06C144.882 498.04 143.002 499.26 140.682 499.26ZM136.582 493.28H144.842C144.562 490.94 142.962 489.5 140.702 489.5C138.402 489.5 136.782 491 136.582 493.28ZM149.154 499V488.66H150.134L150.254 490.98C150.954 489.42 152.134 488.66 154.054 488.66H154.914V489.74H154.014C151.794 489.74 150.314 491.1 150.314 494.24V499H149.154ZM166.085 499.16C163.685 499.16 162.185 497.98 162.185 496.08C162.185 494.24 163.585 493.08 165.705 493.08H170.265V492.34C170.265 490.62 169.005 489.48 167.085 489.48C165.525 489.48 164.305 490.28 163.885 491.52H162.705C163.205 489.6 164.865 488.4 167.065 488.4C169.645 488.4 171.425 489.98 171.425 492.28V499H170.465L170.345 497.22C169.445 498.46 167.925 499.16 166.085 499.16ZM163.345 496.06C163.345 497.32 164.405 498.12 166.125 498.12C168.525 498.12 170.285 496.62 170.285 494.54V494.1H165.745C164.325 494.1 163.345 494.88 163.345 496.06ZM177.856 499L173.236 488.66H174.496L176.296 492.66L178.436 497.48L180.556 492.66L182.376 488.66H183.616L178.996 499H177.856ZM194.1 499.26C191.48 499.26 189.82 497.94 189.74 495.88H190.88C191 497.34 192.14 498.2 194.12 498.2C195.94 498.2 197.04 497.5 197.04 496.36C197.04 495.28 196.06 494.62 193.86 494.24C191.16 493.78 189.94 492.82 189.94 491.24C189.94 489.48 191.44 488.4 193.86 488.4C196.3 488.4 197.84 489.56 198 491.54H196.84C196.72 490.18 195.66 489.44 193.86 489.44C192.14 489.44 191.1 490.14 191.1 491.26C191.1 492.28 191.96 492.84 194.26 493.28C196.88 493.78 198.18 494.82 198.18 496.38C198.18 498.12 196.6 499.26 194.1 499.26ZM205.444 499C203.244 499 202.064 497.76 202.064 495.42V489.72H199.804V488.66H201.124C201.904 488.66 202.124 488.46 202.204 487.7L202.304 486.12H203.224V488.66H206.804V489.72H203.224V495.38C203.224 497.08 203.924 497.88 205.484 497.88H206.944V499H205.444ZM210.052 499V488.66H211.032L211.152 490.98C211.852 489.42 213.032 488.66 214.952 488.66H215.812V489.74H214.912C212.692 489.74 211.212 491.1 211.212 494.24V499H210.052ZM222.303 499.26C219.163 499.26 217.023 497.04 217.023 493.82C217.023 490.62 219.183 488.4 222.323 488.4C225.583 488.4 227.683 490.8 227.603 494.3H218.203C218.403 496.64 220.003 498.16 222.303 498.16C223.983 498.16 225.323 497.38 226.003 496.04L227.303 496.06C226.503 498.04 224.623 499.26 222.303 499.26ZM218.203 493.28H226.463C226.183 490.94 224.583 489.5 222.323 489.5C220.023 489.5 218.403 491 218.203 493.28ZM234.335 499.26C231.715 499.26 230.055 497.94 229.975 495.88H231.115C231.235 497.34 232.375 498.2 234.355 498.2C236.175 498.2 237.275 497.5 237.275 496.36C237.275 495.28 236.295 494.62 234.095 494.24C231.395 493.78 230.175 492.82 230.175 491.24C230.175 489.48 231.675 488.4 234.095 488.4C236.535 488.4 238.075 489.56 238.235 491.54H237.075C236.955 490.18 235.895 489.44 234.095 489.44C232.375 489.44 231.335 490.14 231.335 491.26C231.335 492.28 232.195 492.84 234.495 493.28C237.115 493.78 238.415 494.82 238.415 496.38C238.415 498.12 236.835 499.26 234.335 499.26ZM245.331 499.26C242.711 499.26 241.051 497.94 240.971 495.88H242.111C242.231 497.34 243.371 498.2 245.351 498.2C247.171 498.2 248.271 497.5 248.271 496.36C248.271 495.28 247.291 494.62 245.091 494.24C242.391 493.78 241.171 492.82 241.171 491.24C241.171 489.48 242.671 488.4 245.091 488.4C247.531 488.4 249.071 489.56 249.231 491.54H248.071C247.951 490.18 246.891 489.44 245.091 489.44C243.371 489.44 242.331 490.14 242.331 491.26C242.331 492.28 243.191 492.84 245.491 493.28C248.111 493.78 249.411 494.82 249.411 496.38C249.411 498.12 247.831 499.26 245.331 499.26Z" fill="black"/>
</svg>
