<svg width="594" height="623" viewBox="0 0 594 623" fill="none" xmlns="http://www.w3.org/2000/svg">
<path fill-rule="evenodd" clip-rule="evenodd" d="M7.4099 118.548C72.9668 53.0313 168.63 0.40625 233.954 0.40625C321.412 0.40625 327.72 94.7335 326.925 188.039C301.924 248.16 242.625 290.432 173.453 290.432C81.6963 290.432 7.3125 216.049 7.3125 124.292C7.3125 122.369 7.34514 120.455 7.4099 118.548Z" fill="#F6F5FF"/>
<path fill-rule="evenodd" clip-rule="evenodd" d="M282.941 257.894C311.408 207.263 365.64 173.059 427.861 173.059C519.618 173.059 594.002 247.442 594.002 339.199C594.002 388.984 572.105 433.654 537.417 464.104C518.342 470.299 497.983 473.648 476.841 473.648C368.642 473.648 280.93 385.936 280.93 277.736C280.93 271.24 281.62 264.613 282.941 257.894Z" fill="#F6F5FF"/>
<path fill-rule="evenodd" clip-rule="evenodd" d="M144.705 622.395C224.623 622.395 289.41 557.409 289.41 477.244C289.41 468.239 289.559 458.895 289.711 449.403C290.908 374.397 292.254 290.113 221.313 290.113C141.395 290.113 0 397.079 0 477.244C0 557.409 64.7866 622.395 144.705 622.395Z" fill="#F6F5FF"/>
<path d="M111.26 104V90H112.48V102.84H119.58V104H111.26ZM125.792 104.26C122.652 104.26 120.512 102.04 120.512 98.82C120.512 95.62 122.672 93.4 125.812 93.4C129.072 93.4 131.172 95.8 131.092 99.3H121.692C121.892 101.64 123.492 103.16 125.792 103.16C127.472 103.16 128.812 102.38 129.492 101.04L130.792 101.06C129.992 103.04 128.112 104.26 125.792 104.26ZM121.692 98.28H129.952C129.672 95.94 128.072 94.5 125.812 94.5C123.512 94.5 121.892 96 121.692 98.28ZM142.276 104.26C139.656 104.26 137.996 102.94 137.916 100.88H139.056C139.176 102.34 140.316 103.2 142.296 103.2C144.116 103.2 145.216 102.5 145.216 101.36C145.216 100.28 144.236 99.62 142.036 99.24C139.336 98.78 138.116 97.82 138.116 96.24C138.116 94.48 139.616 93.4 142.036 93.4C144.476 93.4 146.016 94.56 146.176 96.54H145.016C144.896 95.18 143.836 94.44 142.036 94.44C140.316 94.44 139.276 95.14 139.276 96.26C139.276 97.28 140.136 97.84 142.436 98.28C145.056 98.78 146.356 99.82 146.356 101.38C146.356 103.12 144.776 104.26 142.276 104.26ZM153.619 104C151.419 104 150.239 102.76 150.239 100.42V94.72H147.979V93.66H149.299C150.079 93.66 150.299 93.46 150.379 92.7L150.479 91.12H151.399V93.66H154.979V94.72H151.399V100.38C151.399 102.08 152.099 102.88 153.659 102.88H155.119V104H153.619ZM158.228 104V93.66H159.208L159.328 95.98C160.028 94.42 161.208 93.66 163.128 93.66H163.988V94.74H163.088C160.868 94.74 159.388 96.1 159.388 99.24V104H158.228ZM170.479 104.26C167.339 104.26 165.199 102.04 165.199 98.82C165.199 95.62 167.359 93.4 170.499 93.4C173.759 93.4 175.859 95.8 175.779 99.3H166.379C166.579 101.64 168.179 103.16 170.479 103.16C172.159 103.16 173.499 102.38 174.179 101.04L175.479 101.06C174.679 103.04 172.799 104.26 170.479 104.26ZM166.379 98.28H174.639C174.359 95.94 172.759 94.5 170.499 94.5C168.199 94.5 166.579 96 166.379 98.28ZM182.511 104.26C179.891 104.26 178.231 102.94 178.151 100.88H179.291C179.411 102.34 180.551 103.2 182.531 103.2C184.351 103.2 185.451 102.5 185.451 101.36C185.451 100.28 184.471 99.62 182.271 99.24C179.571 98.78 178.351 97.82 178.351 96.24C178.351 94.48 179.851 93.4 182.271 93.4C184.711 93.4 186.251 94.56 186.411 96.54H185.251C185.131 95.18 184.071 94.44 182.271 94.44C180.551 94.44 179.511 95.14 179.511 96.26C179.511 97.28 180.371 97.84 182.671 98.28C185.291 98.78 186.591 99.82 186.591 101.38C186.591 103.12 185.011 104.26 182.511 104.26ZM193.507 104.26C190.887 104.26 189.227 102.94 189.147 100.88H190.287C190.407 102.34 191.547 103.2 193.527 103.2C195.347 103.2 196.447 102.5 196.447 101.36C196.447 100.28 195.467 99.62 193.267 99.24C190.567 98.78 189.347 97.82 189.347 96.24C189.347 94.48 190.847 93.4 193.267 93.4C195.707 93.4 197.247 94.56 197.407 96.54H196.247C196.127 95.18 195.067 94.44 193.267 94.44C191.547 94.44 190.507 95.14 190.507 96.26C190.507 97.28 191.367 97.84 193.667 98.28C196.287 98.78 197.587 99.82 197.587 101.38C197.587 103.12 196.007 104.26 193.507 104.26ZM209.776 104.26C206.636 104.26 204.496 102.04 204.496 98.82C204.496 95.62 206.656 93.4 209.796 93.4C213.056 93.4 215.156 95.8 215.076 99.3H205.676C205.876 101.64 207.476 103.16 209.776 103.16C211.456 103.16 212.796 102.38 213.476 101.04L214.776 101.06C213.976 103.04 212.096 104.26 209.776 104.26ZM205.676 98.28H213.936C213.656 95.94 212.056 94.5 209.796 94.5C207.496 94.5 205.876 96 205.676 98.28ZM209.036 91.94L210.136 88.92H211.396L210.136 91.94H209.036ZM222.115 104C219.915 104 218.735 102.76 218.735 100.42V94.72H216.475V93.66H217.795C218.575 93.66 218.795 93.46 218.875 92.7L218.975 91.12H219.895V93.66H223.475V94.72H219.895V100.38C219.895 102.08 220.595 102.88 222.155 102.88H223.615V104H222.115ZM229.613 104.16C227.213 104.16 225.713 102.98 225.713 101.08C225.713 99.24 227.113 98.08 229.233 98.08H233.793V97.34C233.793 95.62 232.533 94.48 230.613 94.48C229.053 94.48 227.833 95.28 227.413 96.52H226.233C226.733 94.6 228.393 93.4 230.593 93.4C233.173 93.4 234.953 94.98 234.953 97.28V104H233.993L233.873 102.22C232.973 103.46 231.453 104.16 229.613 104.16ZM226.873 101.06C226.873 102.32 227.933 103.12 229.653 103.12C232.053 103.12 233.813 101.62 233.813 99.54V99.1H229.273C227.853 99.1 226.873 99.88 226.873 101.06ZM238.853 104V93.66H240.013V104H238.853ZM238.373 90.72C238.373 90.14 238.793 89.68 239.433 89.68C240.073 89.68 240.493 90.14 240.493 90.72C240.493 91.32 240.073 91.78 239.433 91.78C238.793 91.78 238.373 91.32 238.373 90.72ZM248.326 104C246.126 104 244.946 102.76 244.946 100.42V94.72H242.686V93.66H244.006C244.786 93.66 245.006 93.46 245.086 92.7L245.186 91.12H246.106V93.66H249.686V94.72H246.106V100.38C246.106 102.08 246.806 102.88 248.366 102.88H249.826V104H248.326ZM258.287 104V89.2H259.447V104H258.287ZM267.94 104.26C264.8 104.26 262.66 102.04 262.66 98.82C262.66 95.62 264.82 93.4 267.96 93.4C271.22 93.4 273.32 95.8 273.24 99.3H263.84C264.04 101.64 265.64 103.16 267.94 103.16C269.62 103.16 270.96 102.38 271.64 101.04L272.94 101.06C272.14 103.04 270.26 104.26 267.94 104.26ZM263.84 98.28H272.1C271.82 95.94 270.22 94.5 267.96 94.5C265.66 94.5 264.04 96 263.84 98.28ZM116.58 133.26C114.68 133.26 113.14 132.4 112.22 131.04V137H111.06V122.66H112.04L112.16 124.72C113.06 123.28 114.64 122.4 116.58 122.4C119.72 122.4 121.88 124.68 121.88 127.82C121.88 130.96 119.72 133.26 116.58 133.26ZM112.18 127.82C112.18 130.36 113.92 132.14 116.46 132.14C119 132.14 120.72 130.36 120.72 127.82C120.72 125.3 119 123.52 116.46 123.52C113.92 123.52 112.18 125.3 112.18 127.82ZM125.103 133V118.2H126.263V133H125.103ZM134.456 133.26C131.796 133.26 130.156 131.36 130.156 128.38V122.66H131.316V128.28C131.316 130.64 132.576 132.14 134.616 132.14C136.756 132.14 138.236 130.46 138.236 128V122.66H139.396V133H138.436L138.316 130.98C137.516 132.48 136.076 133.26 134.456 133.26ZM147.081 133.26C144.461 133.26 142.801 131.94 142.721 129.88H143.861C143.981 131.34 145.121 132.2 147.101 132.2C148.921 132.2 150.021 131.5 150.021 130.36C150.021 129.28 149.041 128.62 146.841 128.24C144.141 127.78 142.921 126.82 142.921 125.24C142.921 123.48 144.421 122.4 146.841 122.4C149.281 122.4 150.821 123.56 150.981 125.54H149.821C149.701 124.18 148.641 123.44 146.841 123.44C145.121 123.44 144.081 124.14 144.081 125.26C144.081 126.28 144.941 126.84 147.241 127.28C149.861 127.78 151.161 128.82 151.161 130.38C151.161 132.12 149.581 133.26 147.081 133.26ZM163.35 133.26C160.21 133.26 158.07 131.04 158.07 127.82C158.07 124.62 160.23 122.4 163.37 122.4C166.63 122.4 168.73 124.8 168.65 128.3H159.25C159.45 130.64 161.05 132.16 163.35 132.16C165.03 132.16 166.37 131.38 167.05 130.04L168.35 130.06C167.55 132.04 165.67 133.26 163.35 133.26ZM159.25 127.28H167.51C167.23 124.94 165.63 123.5 163.37 123.5C161.07 123.5 159.45 125 159.25 127.28ZM162.61 120.94L163.71 117.92H164.97L163.71 120.94H162.61ZM171.822 133V118.2H172.982V133H171.822ZM181.475 133.26C178.335 133.26 176.195 131.04 176.195 127.82C176.195 124.62 178.355 122.4 181.495 122.4C184.755 122.4 186.855 124.8 186.775 128.3H177.375C177.575 130.64 179.175 132.16 181.475 132.16C183.155 132.16 184.495 131.38 185.175 130.04L186.475 130.06C185.675 132.04 183.795 133.26 181.475 133.26ZM177.375 127.28H185.635C185.355 124.94 183.755 123.5 181.495 123.5C179.195 123.5 177.575 125 177.375 127.28ZM192.516 133L187.896 122.66H189.156L190.956 126.66L193.096 131.48L195.216 126.66L197.036 122.66H198.276L193.656 133H192.516ZM204.737 133.26C201.597 133.26 199.457 131.04 199.457 127.82C199.457 124.62 201.617 122.4 204.757 122.4C208.017 122.4 210.117 124.8 210.037 128.3H200.637C200.837 130.64 202.437 132.16 204.737 132.16C206.417 132.16 207.757 131.38 208.437 130.04L209.737 130.06C208.937 132.04 207.057 133.26 204.737 133.26ZM200.637 127.28H208.897C208.617 124.94 207.017 123.5 204.757 123.5C202.457 123.5 200.837 125 200.637 127.28ZM203.997 120.94L205.097 117.92H206.357L205.097 120.94H203.997ZM223.611 133.26C221.711 133.26 220.171 132.4 219.251 131.04V137H218.091V122.66H219.071L219.191 124.72C220.091 123.28 221.671 122.4 223.611 122.4C226.751 122.4 228.911 124.68 228.911 127.82C228.911 130.96 226.751 133.26 223.611 133.26ZM219.211 127.82C219.211 130.36 220.951 132.14 223.491 132.14C226.031 132.14 227.751 130.36 227.751 127.82C227.751 125.3 226.031 123.52 223.491 123.52C220.951 123.52 219.211 125.3 219.211 127.82ZM235.238 133.16C232.838 133.16 231.338 131.98 231.338 130.08C231.338 128.24 232.738 127.08 234.858 127.08H239.418V126.34C239.418 124.62 238.158 123.48 236.238 123.48C234.678 123.48 233.458 124.28 233.038 125.52H231.858C232.358 123.6 234.018 122.4 236.218 122.4C238.798 122.4 240.578 123.98 240.578 126.28V133H239.618L239.498 131.22C238.598 132.46 237.078 133.16 235.238 133.16ZM232.498 130.06C232.498 131.32 233.558 132.12 235.278 132.12C237.678 132.12 239.438 130.62 239.438 128.54V128.1H234.898C233.478 128.1 232.498 128.88 232.498 130.06ZM244.478 133V122.66H245.458L245.578 124.98C246.278 123.42 247.458 122.66 249.378 122.66H250.238V123.74H249.338C247.118 123.74 245.638 125.1 245.638 128.24V133H244.478ZM253.15 133V122.66H254.13L254.23 124.34C254.95 123.08 256.21 122.4 257.81 122.4C259.61 122.4 260.99 123.3 261.59 124.88C262.29 123.3 263.71 122.4 265.53 122.4C268.13 122.4 269.81 124.18 269.81 127.06V133H268.65V127.24C268.65 124.94 267.37 123.52 265.39 123.52C263.37 123.52 262.05 124.98 262.05 127.32V133H260.89V127.24C260.89 124.94 259.63 123.52 257.65 123.52C255.63 123.52 254.31 124.98 254.31 127.32V133H253.15ZM273.697 133V122.66H274.857V133H273.697ZM273.217 119.72C273.217 119.14 273.637 118.68 274.277 118.68C274.917 118.68 275.337 119.14 275.337 119.72C275.337 120.32 274.917 120.78 274.277 120.78C273.637 120.78 273.217 120.32 273.217 119.72ZM284.322 133V118.2H285.482V133H284.322ZM293.975 133.26C290.835 133.26 288.695 131.04 288.695 127.82C288.695 124.62 290.855 122.4 293.995 122.4C297.255 122.4 299.355 124.8 299.275 128.3H289.875C290.075 130.64 291.675 132.16 293.975 132.16C295.655 132.16 296.995 131.38 297.675 130.04L298.975 130.06C298.175 132.04 296.295 133.26 293.975 133.26ZM289.875 127.28H298.135C297.855 124.94 296.255 123.5 293.995 123.5C291.695 123.5 290.075 125 289.875 127.28ZM306.007 133.26C303.387 133.26 301.727 131.94 301.647 129.88H302.787C302.907 131.34 304.047 132.2 306.027 132.2C307.847 132.2 308.947 131.5 308.947 130.36C308.947 129.28 307.967 128.62 305.767 128.24C303.067 127.78 301.847 126.82 301.847 125.24C301.847 123.48 303.347 122.4 305.767 122.4C308.207 122.4 309.747 123.56 309.907 125.54H308.747C308.627 124.18 307.567 123.44 305.767 123.44C304.047 123.44 303.007 124.14 303.007 125.26C303.007 126.28 303.867 126.84 306.167 127.28C308.787 127.78 310.087 128.82 310.087 130.38C310.087 132.12 308.507 133.26 306.007 133.26ZM115.44 162.26C112.3 162.26 110.16 160.04 110.16 156.82C110.16 153.62 112.32 151.4 115.46 151.4C118.72 151.4 120.82 153.8 120.74 157.3H111.34C111.54 159.64 113.14 161.16 115.44 161.16C117.12 161.16 118.46 160.38 119.14 159.04L120.44 159.06C119.64 161.04 117.76 162.26 115.44 162.26ZM111.34 156.28H119.6C119.32 153.94 117.72 152.5 115.46 152.5C113.16 152.5 111.54 154 111.34 156.28ZM114.7 149.94L115.8 146.92H117.06L115.8 149.94H114.7ZM127.78 162C125.58 162 124.4 160.76 124.4 158.42V152.72H122.14V151.66H123.46C124.24 151.66 124.46 151.46 124.54 150.7L124.64 149.12H125.56V151.66H129.14V152.72H125.56V158.38C125.56 160.08 126.26 160.88 127.82 160.88H129.28V162H127.78ZM136.331 162.26C133.671 162.26 132.031 160.36 132.031 157.38V151.66H133.191V157.28C133.191 159.64 134.451 161.14 136.491 161.14C138.631 161.14 140.111 159.46 140.111 157V151.66H141.271V162H140.311L140.191 159.98C139.391 161.48 137.951 162.26 136.331 162.26ZM149.796 162.26C146.676 162.26 144.496 159.96 144.496 156.82C144.496 153.68 146.676 151.4 149.796 151.4C151.696 151.4 153.236 152.24 154.156 153.58V147.2H155.316V162H154.356L154.216 159.96C153.316 161.38 151.736 162.26 149.796 162.26ZM145.656 156.82C145.656 159.36 147.396 161.14 149.936 161.14C152.456 161.14 154.196 159.36 154.196 156.82C154.196 154.3 152.456 152.52 149.936 152.52C147.396 152.52 145.656 154.3 145.656 156.82ZM159.439 162V151.66H160.599V162H159.439ZM158.959 148.72C158.959 148.14 159.379 147.68 160.019 147.68C160.659 147.68 161.079 148.14 161.079 148.72C161.079 149.32 160.659 149.78 160.019 149.78C159.379 149.78 158.959 149.32 158.959 148.72ZM167.952 162.16C165.552 162.16 164.052 160.98 164.052 159.08C164.052 157.24 165.452 156.08 167.572 156.08H172.132V155.34C172.132 153.62 170.872 152.48 168.952 152.48C167.392 152.48 166.172 153.28 165.752 154.52H164.572C165.072 152.6 166.732 151.4 168.932 151.4C171.512 151.4 173.292 152.98 173.292 155.28V162H172.332L172.212 160.22C171.312 161.46 169.792 162.16 167.952 162.16ZM165.212 159.06C165.212 160.32 166.272 161.12 167.992 161.12C170.392 161.12 172.152 159.62 172.152 157.54V157.1H167.612C166.192 157.1 165.212 157.88 165.212 159.06ZM177.193 162V151.66H178.173L178.273 153.66C179.093 152.18 180.533 151.4 182.193 151.4C184.893 151.4 186.553 153.3 186.553 156.28V162H185.393V156.38C185.393 154 184.113 152.52 182.053 152.52C179.873 152.52 178.353 154.18 178.353 156.64V162H177.193ZM194.323 162C192.123 162 190.943 160.76 190.943 158.42V152.72H188.683V151.66H190.003C190.783 151.66 191.002 151.46 191.083 150.7L191.183 149.12H192.103V151.66H195.683V152.72H192.103V158.38C192.103 160.08 192.803 160.88 194.363 160.88H195.823V162H194.323ZM202.296 162.26C199.676 162.26 198.016 160.94 197.936 158.88H199.076C199.196 160.34 200.336 161.2 202.316 161.2C204.136 161.2 205.236 160.5 205.236 159.36C205.236 158.28 204.256 157.62 202.056 157.24C199.356 156.78 198.136 155.82 198.136 154.24C198.136 152.48 199.636 151.4 202.056 151.4C204.496 151.4 206.036 152.56 206.196 154.54H205.036C204.916 153.18 203.856 152.44 202.056 152.44C200.336 152.44 199.296 153.14 199.296 154.26C199.296 155.28 200.156 155.84 202.456 156.28C205.076 156.78 206.376 157.82 206.376 159.38C206.376 161.12 204.796 162.26 202.296 162.26ZM218.585 162.26C215.465 162.26 213.285 159.96 213.285 156.82C213.285 153.68 215.465 151.4 218.585 151.4C220.485 151.4 222.025 152.24 222.945 153.58V147.2H224.105V162H223.145L223.005 159.96C222.105 161.38 220.525 162.26 218.585 162.26ZM214.445 156.82C214.445 159.36 216.185 161.14 218.725 161.14C221.245 161.14 222.985 159.36 222.985 156.82C222.985 154.3 221.245 152.52 218.725 152.52C216.185 152.52 214.445 154.3 214.445 156.82ZM232.608 162.26C229.468 162.26 227.328 160.04 227.328 156.82C227.328 153.62 229.488 151.4 232.628 151.4C235.888 151.4 237.988 153.8 237.908 157.3H228.508C228.708 159.64 230.308 161.16 232.608 161.16C234.288 161.16 235.628 160.38 236.308 159.04L237.608 159.06C236.808 161.04 234.928 162.26 232.608 162.26ZM228.508 156.28H236.768C236.488 153.94 234.888 152.5 232.628 152.5C230.328 152.5 228.708 154 228.508 156.28ZM116.58 191.26C114.68 191.26 113.14 190.4 112.22 189.04V195H111.06V180.66H112.04L112.16 182.72C113.06 181.28 114.64 180.4 116.58 180.4C119.72 180.4 121.88 182.68 121.88 185.82C121.88 188.96 119.72 191.26 116.58 191.26ZM112.18 185.82C112.18 188.36 113.92 190.14 116.46 190.14C119 190.14 120.72 188.36 120.72 185.82C120.72 183.3 119 181.52 116.46 181.52C113.92 181.52 112.18 183.3 112.18 185.82ZM125.103 191V180.66H126.083L126.203 182.98C126.903 181.42 128.083 180.66 130.003 180.66H130.863V181.74H129.963C127.743 181.74 126.263 183.1 126.263 186.24V191H125.103ZM137.354 191.26C134.214 191.26 132.074 189.04 132.074 185.82C132.074 182.62 134.234 180.4 137.374 180.4C140.634 180.4 142.734 182.8 142.654 186.3H133.254C133.454 188.64 135.054 190.16 137.354 190.16C139.034 190.16 140.374 189.38 141.054 188.04L142.354 188.06C141.554 190.04 139.674 191.26 137.354 191.26ZM133.254 185.28H141.514C141.234 182.94 139.634 181.5 137.374 181.5C135.074 181.5 133.454 183 133.254 185.28ZM145.826 191V180.66H146.806L146.906 182.34C147.626 181.08 148.886 180.4 150.486 180.4C152.286 180.4 153.666 181.3 154.266 182.88C154.966 181.3 156.386 180.4 158.206 180.4C160.806 180.4 162.486 182.18 162.486 185.06V191H161.326V185.24C161.326 182.94 160.046 181.52 158.066 181.52C156.046 181.52 154.726 182.98 154.726 185.32V191H153.566V185.24C153.566 182.94 152.306 181.52 150.326 181.52C148.306 181.52 146.986 182.98 146.986 185.32V191H145.826ZM166.373 191V180.66H167.533V191H166.373ZM165.893 177.72C165.893 177.14 166.313 176.68 166.952 176.68C167.593 176.68 168.013 177.14 168.013 177.72C168.013 178.32 167.593 178.78 166.952 178.78C166.313 178.78 165.893 178.32 165.893 177.72ZM176.026 191.26C172.886 191.26 170.746 189.04 170.746 185.82C170.746 182.62 172.906 180.4 176.046 180.4C179.306 180.4 181.406 182.8 181.326 186.3H171.926C172.126 188.64 173.726 190.16 176.026 190.16C177.706 190.16 179.046 189.38 179.726 188.04L181.026 188.06C180.226 190.04 178.346 191.26 176.026 191.26ZM171.926 185.28H180.186C179.906 182.94 178.306 181.5 176.046 181.5C173.746 181.5 172.126 183 171.926 185.28ZM174.446 175.92H175.706L176.806 178.94H175.706L174.446 175.92ZM184.498 191V180.66H185.478L185.598 182.98C186.298 181.42 187.478 180.66 189.398 180.66H190.258V181.74H189.358C187.138 181.74 185.658 183.1 185.658 186.24V191H184.498ZM196.749 191.26C193.609 191.26 191.469 189.04 191.469 185.82C191.469 182.62 193.629 180.4 196.769 180.4C200.029 180.4 202.129 182.8 202.049 186.3H192.649C192.849 188.64 194.449 190.16 196.749 190.16C198.429 190.16 199.769 189.38 200.449 188.04L201.749 188.06C200.949 190.04 199.069 191.26 196.749 191.26ZM192.649 185.28H200.909C200.629 182.94 199.029 181.5 196.769 181.5C194.469 181.5 192.849 183 192.649 185.28ZM213.343 191.16C210.943 191.16 209.443 189.98 209.443 188.08C209.443 186.24 210.843 185.08 212.963 185.08H217.523V184.34C217.523 182.62 216.263 181.48 214.343 181.48C212.783 181.48 211.563 182.28 211.143 183.52H209.963C210.463 181.6 212.123 180.4 214.323 180.4C216.903 180.4 218.683 181.98 218.683 184.28V191H217.723L217.603 189.22C216.703 190.46 215.183 191.16 213.343 191.16ZM210.603 188.06C210.603 189.32 211.663 190.12 213.383 190.12C215.783 190.12 217.543 188.62 217.543 186.54V186.1H213.003C211.583 186.1 210.603 186.88 210.603 188.06ZM222.583 191V180.66H223.563L223.663 182.66C224.483 181.18 225.923 180.4 227.583 180.4C230.283 180.4 231.943 182.3 231.943 185.28V191H230.783V185.38C230.783 183 229.503 181.52 227.443 181.52C225.263 181.52 223.743 183.18 223.743 185.64V191H222.583ZM235.845 191V180.66H236.825L236.925 182.66C237.745 181.18 239.185 180.4 240.845 180.4C243.545 180.4 245.205 182.3 245.205 185.28V191H244.045V185.38C244.045 183 242.765 181.52 240.705 181.52C238.525 181.52 237.005 183.18 237.005 185.64V191H235.845ZM253.487 191.26C250.347 191.26 248.207 189.04 248.207 185.82C248.207 182.62 250.367 180.4 253.507 180.4C256.767 180.4 258.867 182.8 258.787 186.3H249.387C249.587 188.64 251.187 190.16 253.487 190.16C255.167 190.16 256.507 189.38 257.187 188.04L258.487 188.06C257.687 190.04 255.807 191.26 253.487 191.26ZM249.387 185.28H257.647C257.367 182.94 255.767 181.5 253.507 181.5C251.207 181.5 249.587 183 249.387 185.28ZM252.747 178.94L253.847 175.92H255.107L253.847 178.94H252.747ZM266.338 191.26C263.198 191.26 261.058 189.04 261.058 185.82C261.058 182.62 263.218 180.4 266.358 180.4C269.618 180.4 271.718 182.8 271.638 186.3H262.238C262.438 188.64 264.038 190.16 266.338 190.16C268.018 190.16 269.358 189.38 270.038 188.04L271.338 188.06C270.538 190.04 268.658 191.26 266.338 191.26ZM262.238 185.28H270.498C270.218 182.94 268.618 181.5 266.358 181.5C264.058 181.5 262.438 183 262.238 185.28ZM282.933 191.16C280.533 191.16 279.033 189.98 279.033 188.08C279.033 186.24 280.433 185.08 282.553 185.08H287.113V184.34C287.113 182.62 285.853 181.48 283.933 181.48C282.373 181.48 281.153 182.28 280.733 183.52H279.553C280.053 181.6 281.713 180.4 283.913 180.4C286.493 180.4 288.273 181.98 288.273 184.28V191H287.313L287.193 189.22C286.293 190.46 284.773 191.16 282.933 191.16ZM280.193 188.06C280.193 189.32 281.253 190.12 282.973 190.12C285.373 190.12 287.133 188.62 287.133 186.54V186.1H282.593C281.173 186.1 280.193 186.88 280.193 188.06ZM282.333 175.92H283.573L284.673 178.94H283.573L282.333 175.92ZM111.06 220V205.2H112.22V220H111.06ZM115.953 210.86L115.913 206H117.013L116.973 210.86H115.953ZM124.808 220.26C122.148 220.26 120.508 218.36 120.508 215.38V209.66H121.668V215.28C121.668 217.64 122.928 219.14 124.968 219.14C127.108 219.14 128.588 217.46 128.588 215V209.66H129.748V220H128.788L128.668 217.98C127.868 219.48 126.428 220.26 124.808 220.26ZM133.873 220V209.66H134.853L134.953 211.66C135.773 210.18 137.213 209.4 138.873 209.4C141.573 209.4 143.233 211.3 143.233 214.28V220H142.073V214.38C142.073 212 140.793 210.52 138.733 210.52C136.553 210.52 135.033 212.18 135.033 214.64V220H133.873ZM147.134 220V209.66H148.294V220H147.134ZM146.654 206.72C146.654 206.14 147.074 205.68 147.714 205.68C148.354 205.68 148.774 206.14 148.774 206.72C148.774 207.32 148.354 207.78 147.714 207.78C147.074 207.78 146.654 207.32 146.654 206.72ZM155.368 220L150.748 209.66H152.008L153.808 213.66L155.948 218.48L158.068 213.66L159.888 209.66H161.128L156.508 220H155.368ZM167.588 220.26C164.448 220.26 162.308 218.04 162.308 214.82C162.308 211.62 164.468 209.4 167.608 209.4C170.868 209.4 172.968 211.8 172.888 215.3H163.488C163.688 217.64 165.288 219.16 167.588 219.16C169.268 219.16 170.608 218.38 171.288 217.04L172.588 217.06C171.788 219.04 169.908 220.26 167.588 220.26ZM163.488 214.28H171.748C171.468 211.94 169.868 210.5 167.608 210.5C165.308 210.5 163.688 212 163.488 214.28ZM176.06 220V209.66H177.04L177.16 211.98C177.86 210.42 179.04 209.66 180.96 209.66H181.82V210.74H180.92C178.7 210.74 177.22 212.1 177.22 215.24V220H176.06ZM187.706 220.26C185.086 220.26 183.426 218.94 183.346 216.88H184.486C184.606 218.34 185.746 219.2 187.726 219.2C189.546 219.2 190.646 218.5 190.646 217.36C190.646 216.28 189.666 215.62 187.466 215.24C184.766 214.78 183.546 213.82 183.546 212.24C183.546 210.48 185.046 209.4 187.466 209.4C189.906 209.4 191.446 210.56 191.606 212.54H190.446C190.326 211.18 189.266 210.44 187.466 210.44C185.746 210.44 184.706 211.14 184.706 212.26C184.706 213.28 185.566 213.84 187.866 214.28C190.486 214.78 191.786 215.82 191.786 217.38C191.786 219.12 190.206 220.26 187.706 220.26ZM195.142 220V209.66H196.302V220H195.142ZM194.662 206.72C194.662 206.14 195.082 205.68 195.722 205.68C196.362 205.68 196.782 206.14 196.782 206.72C196.782 207.32 196.362 207.78 195.722 207.78C195.082 207.78 194.662 207.32 194.662 206.72ZM204.615 220C202.415 220 201.235 218.76 201.235 216.42V210.72H198.975V209.66H200.295C201.075 209.66 201.295 209.46 201.375 208.7L201.475 207.12H202.395V209.66H205.975V210.72H202.395V216.38C202.395 218.08 203.095 218.88 204.655 218.88H206.115V220H204.615ZM213.096 220.26C209.956 220.26 207.816 218.04 207.816 214.82C207.816 211.62 209.976 209.4 213.116 209.4C216.376 209.4 218.476 211.8 218.396 215.3H208.996C209.196 217.64 210.796 219.16 213.096 219.16C214.776 219.16 216.116 218.38 216.796 217.04L218.096 217.06C217.296 219.04 215.416 220.26 213.096 220.26ZM208.996 214.28H217.256C216.976 211.94 215.376 210.5 213.116 210.5C210.816 210.5 209.196 212 208.996 214.28ZM212.356 207.94L213.456 204.92H214.716L213.456 207.94H212.356ZM221.537 220.12C220.897 220.12 220.477 219.68 220.477 219.08C220.477 218.48 220.897 218.04 221.537 218.04C222.177 218.04 222.597 218.48 222.597 219.08C222.597 219.68 222.177 220.12 221.537 220.12Z" fill="black"/>
<path d="M83.2233 133V90.5141H70.2929V85.9362H77.762C81.7777 85.9362 82.9824 85.0528 83.5446 81.6796L84.1068 76.7805H88.0422V133H83.2233Z" fill="black"/>
<path d="M292.707 304V301.895L306.301 289.354C309.688 286.241 311.244 283.724 311.244 280.84C311.244 276.675 308.132 273.837 303.692 273.837C299.115 273.837 295.957 276.858 295.774 281.664H293.165C293.348 275.485 297.559 271.366 303.646 271.366C309.642 271.366 313.899 275.302 313.899 280.84C313.899 284.41 312.068 287.752 308.086 291.413L297.193 301.391H314.723V304H292.707Z" fill="black"/>
<path d="M155.662 346.382C151.757 346.382 149.114 344.033 148.879 340.392H150.641C150.817 342.976 152.784 344.649 155.662 344.649C158.745 344.649 160.741 342.77 160.741 339.951C160.741 337.133 158.715 335.283 155.691 335.283H152.637V333.991L159.097 327.12H149.29V325.447H161.74V326.768L155.251 333.639H155.662C159.743 333.639 162.503 336.193 162.503 340.01C162.503 343.798 159.743 346.382 155.662 346.382Z" fill="black"/>
<path d="M354.26 234V220H355.48V232.84H362.58V234H354.26ZM368.792 234.26C365.652 234.26 363.512 232.04 363.512 228.82C363.512 225.62 365.672 223.4 368.812 223.4C372.072 223.4 374.172 225.8 374.092 229.3H364.692C364.892 231.64 366.492 233.16 368.792 233.16C370.472 233.16 371.812 232.38 372.492 231.04L373.792 231.06C372.992 233.04 371.112 234.26 368.792 234.26ZM364.692 228.28H372.952C372.672 225.94 371.072 224.5 368.812 224.5C366.512 224.5 364.892 226 364.692 228.28ZM380.823 234.26C378.203 234.26 376.543 232.94 376.463 230.88H377.603C377.723 232.34 378.863 233.2 380.843 233.2C382.663 233.2 383.763 232.5 383.763 231.36C383.763 230.28 382.783 229.62 380.583 229.24C377.883 228.78 376.663 227.82 376.663 226.24C376.663 224.48 378.163 223.4 380.583 223.4C383.023 223.4 384.563 224.56 384.723 226.54H383.563C383.443 225.18 382.383 224.44 380.583 224.44C378.863 224.44 377.823 225.14 377.823 226.26C377.823 227.28 378.683 227.84 380.983 228.28C383.603 228.78 384.903 229.82 384.903 231.38C384.903 233.12 383.323 234.26 380.823 234.26ZM393.4 222.46C393.4 220.1 394.56 218.94 396.86 218.94H398.48V220.04H396.96C395.28 220.04 394.56 220.78 394.56 222.54V223.66H398.38V224.72H394.56V234H393.4V224.72H391.04V223.66H393.4V222.46ZM403.472 234.16C401.072 234.16 399.572 232.98 399.572 231.08C399.572 229.24 400.972 228.08 403.092 228.08H407.652V227.34C407.652 225.62 406.392 224.48 404.472 224.48C402.912 224.48 401.692 225.28 401.272 226.52H400.092C400.592 224.6 402.252 223.4 404.452 223.4C407.032 223.4 408.812 224.98 408.812 227.28V234H407.852L407.732 232.22C406.832 233.46 405.312 234.16 403.472 234.16ZM400.732 231.06C400.732 232.32 401.792 233.12 403.512 233.12C405.912 233.12 407.672 231.62 407.672 229.54V229.1H403.132C401.712 229.1 400.732 229.88 400.732 231.06ZM417.092 234.26C413.992 234.26 411.812 232 411.812 228.82C411.812 225.64 413.992 223.4 417.092 223.4C419.552 223.4 421.572 224.86 422.172 227.1H420.992C420.312 225.46 418.872 224.52 417.092 224.52C414.652 224.52 412.972 226.28 412.972 228.82C412.972 231.38 414.652 233.14 417.092 233.14C418.992 233.14 420.472 232.08 421.052 230.38H422.272C421.572 232.8 419.632 234.26 417.092 234.26ZM429.295 234C427.095 234 425.915 232.76 425.915 230.42V224.72H423.655V223.66H424.975C425.755 223.66 425.975 223.46 426.055 222.7L426.155 221.12H427.075V223.66H430.655V224.72H427.075V230.38C427.075 232.08 427.775 232.88 429.335 232.88H430.795V234H429.295ZM437.776 234.26C434.636 234.26 432.496 232.04 432.496 228.82C432.496 225.62 434.656 223.4 437.796 223.4C441.056 223.4 443.156 225.8 443.076 229.3H433.676C433.876 231.64 435.476 233.16 437.776 233.16C439.456 233.16 440.796 232.38 441.476 231.04L442.776 231.06C441.976 233.04 440.096 234.26 437.776 234.26ZM433.676 228.28H441.936C441.656 225.94 440.056 224.5 437.796 224.5C435.496 224.5 433.876 226 433.676 228.28ZM450.328 234.26C447.668 234.26 446.028 232.36 446.028 229.38V223.66H447.188V229.28C447.188 231.64 448.448 233.14 450.488 233.14C452.628 233.14 454.108 231.46 454.108 229V223.66H455.268V234H454.308L454.188 231.98C453.388 233.48 451.948 234.26 450.328 234.26ZM459.392 234V223.66H460.372L460.492 225.98C461.192 224.42 462.372 223.66 464.292 223.66H465.152V224.74H464.252C462.032 224.74 460.552 226.1 460.552 229.24V234H459.392ZM471.038 234.26C468.418 234.26 466.758 232.94 466.678 230.88H467.818C467.938 232.34 469.078 233.2 471.058 233.2C472.878 233.2 473.978 232.5 473.978 231.36C473.978 230.28 472.998 229.62 470.798 229.24C468.098 228.78 466.878 227.82 466.878 226.24C466.878 224.48 468.378 223.4 470.798 223.4C473.238 223.4 474.778 224.56 474.938 226.54H473.778C473.658 225.18 472.598 224.44 470.798 224.44C469.078 224.44 468.038 225.14 468.038 226.26C468.038 227.28 468.898 227.84 471.198 228.28C473.818 228.78 475.118 229.82 475.118 231.38C475.118 233.12 473.538 234.26 471.038 234.26ZM359.58 263.26C357.68 263.26 356.14 262.4 355.22 261.04V267H354.06V252.66H355.04L355.16 254.72C356.06 253.28 357.64 252.4 359.58 252.4C362.72 252.4 364.88 254.68 364.88 257.82C364.88 260.96 362.72 263.26 359.58 263.26ZM355.18 257.82C355.18 260.36 356.92 262.14 359.46 262.14C362 262.14 363.72 260.36 363.72 257.82C363.72 255.3 362 253.52 359.46 253.52C356.92 253.52 355.18 255.3 355.18 257.82ZM368.103 263V252.66H369.083L369.203 254.98C369.903 253.42 371.083 252.66 373.003 252.66H373.863V253.74H372.963C370.743 253.74 369.263 255.1 369.263 258.24V263H368.103ZM380.354 263.26C377.214 263.26 375.074 261.04 375.074 257.82C375.074 254.62 377.234 252.4 380.374 252.4C383.634 252.4 385.734 254.8 385.654 258.3H376.254C376.454 260.64 378.054 262.16 380.354 262.16C382.034 262.16 383.374 261.38 384.054 260.04L385.354 260.06C384.554 262.04 382.674 263.26 380.354 263.26ZM376.254 257.28H384.514C384.234 254.94 382.634 253.5 380.374 253.5C378.074 253.5 376.454 255 376.254 257.28ZM379.614 250.94L380.714 247.92H381.974L380.714 250.94H379.614ZM391.395 263L386.775 252.66H388.035L389.835 256.66L391.975 261.48L394.095 256.66L395.915 252.66H397.155L392.535 263H391.395ZM403.616 263.26C400.476 263.26 398.336 261.04 398.336 257.82C398.336 254.62 400.496 252.4 403.636 252.4C406.896 252.4 408.996 254.8 408.916 258.3H399.516C399.716 260.64 401.316 262.16 403.616 262.16C405.296 262.16 406.636 261.38 407.316 260.04L408.616 260.06C407.816 262.04 405.936 263.26 403.616 263.26ZM399.516 257.28H407.776C407.496 254.94 405.896 253.5 403.636 253.5C401.336 253.5 399.716 255 399.516 257.28ZM412.087 263V252.66H413.067L413.167 254.66C413.987 253.18 415.427 252.4 417.087 252.4C419.787 252.4 421.447 254.3 421.447 257.28V263H420.287V257.38C420.287 255 419.007 253.52 416.947 253.52C414.767 253.52 413.247 255.18 413.247 257.64V263H412.087ZM429.217 263C427.017 263 425.837 261.76 425.837 259.42V253.72H423.577V252.66H424.897C425.677 252.66 425.897 252.46 425.977 251.7L426.077 250.12H426.997V252.66H430.577V253.72H426.997V259.38C426.997 261.08 427.697 261.88 429.257 261.88H430.717V263H429.217ZM433.826 263V252.66H434.986V263H433.826ZM433.346 249.72C433.346 249.14 433.766 248.68 434.406 248.68C435.046 248.68 435.466 249.14 435.466 249.72C435.466 250.32 435.046 250.78 434.406 250.78C433.766 250.78 433.346 250.32 433.346 249.72ZM440.099 251.46C440.099 249.1 441.259 247.94 443.559 247.94H445.179V249.04H443.659C441.979 249.04 441.259 249.78 441.259 251.54V252.66H445.079V253.72H441.259V263H440.099V253.72H437.739V252.66H440.099V251.46ZM450.706 263.26C448.086 263.26 446.426 261.94 446.346 259.88H447.486C447.606 261.34 448.746 262.2 450.726 262.2C452.546 262.2 453.646 261.5 453.646 260.36C453.646 259.28 452.666 258.62 450.466 258.24C447.766 257.78 446.546 256.82 446.546 255.24C446.546 253.48 448.046 252.4 450.466 252.4C452.906 252.4 454.446 253.56 454.606 255.54H453.446C453.326 254.18 452.266 253.44 450.466 253.44C448.746 253.44 447.706 254.14 447.706 255.26C447.706 256.28 448.566 256.84 450.866 257.28C453.486 257.78 454.786 258.82 454.786 260.38C454.786 262.12 453.206 263.26 450.706 263.26ZM358.44 292.26C355.34 292.26 353.16 290 353.16 286.82C353.16 283.64 355.34 281.4 358.44 281.4C360.9 281.4 362.92 282.86 363.52 285.1H362.34C361.66 283.46 360.22 282.52 358.44 282.52C356 282.52 354.32 284.28 354.32 286.82C354.32 289.38 356 291.14 358.44 291.14C360.34 291.14 361.82 290.08 362.4 288.38H363.62C362.92 290.8 360.98 292.26 358.44 292.26ZM371.315 292.26C368.115 292.26 365.875 290.02 365.875 286.82C365.875 283.64 368.115 281.4 371.315 281.4C374.495 281.4 376.735 283.64 376.735 286.82C376.735 290.02 374.495 292.26 371.315 292.26ZM367.035 286.82C367.035 289.38 368.775 291.14 371.315 291.14C373.835 291.14 375.575 289.38 375.575 286.82C375.575 284.28 373.835 282.52 371.315 282.52C368.775 282.52 367.035 284.28 367.035 286.82ZM379.958 292V281.66H380.938L381.038 283.34C381.758 282.08 383.018 281.4 384.618 281.4C386.418 281.4 387.798 282.3 388.398 283.88C389.098 282.3 390.518 281.4 392.338 281.4C394.938 281.4 396.618 283.18 396.618 286.06V292H395.458V286.24C395.458 283.94 394.178 282.52 392.198 282.52C390.178 282.52 388.858 283.98 388.858 286.32V292H387.698V286.24C387.698 283.94 386.438 282.52 384.458 282.52C382.438 282.52 381.118 283.98 381.118 286.32V292H379.958ZM406.025 292.26C404.125 292.26 402.585 291.4 401.665 290.04V296H400.505V281.66H401.485L401.605 283.72C402.505 282.28 404.085 281.4 406.025 281.4C409.165 281.4 411.325 283.68 411.325 286.82C411.325 289.96 409.165 292.26 406.025 292.26ZM401.625 286.82C401.625 289.36 403.365 291.14 405.905 291.14C408.445 291.14 410.165 289.36 410.165 286.82C410.165 284.3 408.445 282.52 405.905 282.52C403.365 282.52 401.625 284.3 401.625 286.82ZM414.548 292V281.66H415.528L415.648 283.98C416.348 282.42 417.528 281.66 419.448 281.66H420.308V282.74H419.408C417.188 282.74 415.708 284.1 415.708 287.24V292H414.548ZM426.799 292.26C423.659 292.26 421.519 290.04 421.519 286.82C421.519 283.62 423.679 281.4 426.819 281.4C430.079 281.4 432.179 283.8 432.099 287.3H422.699C422.899 289.64 424.499 291.16 426.799 291.16C428.479 291.16 429.819 290.38 430.499 289.04L431.799 289.06C430.999 291.04 429.119 292.26 426.799 292.26ZM422.699 286.28H430.959C430.679 283.94 429.079 282.5 426.819 282.5C424.519 282.5 422.899 284 422.699 286.28ZM435.271 292V281.66H436.251L436.351 283.66C437.171 282.18 438.611 281.4 440.271 281.4C442.971 281.4 444.631 283.3 444.631 286.28V292H443.471V286.38C443.471 284 442.191 282.52 440.131 282.52C437.951 282.52 436.431 284.18 436.431 286.64V292H435.271ZM451.773 292.16C449.373 292.16 447.873 290.98 447.873 289.08C447.873 287.24 449.273 286.08 451.393 286.08H455.953V285.34C455.953 283.62 454.693 282.48 452.773 282.48C451.213 282.48 449.993 283.28 449.573 284.52H448.393C448.893 282.6 450.553 281.4 452.753 281.4C455.333 281.4 457.113 282.98 457.113 285.28V292H456.153L456.033 290.22C455.133 291.46 453.613 292.16 451.773 292.16ZM449.033 289.06C449.033 290.32 450.093 291.12 451.813 291.12C454.213 291.12 455.973 289.62 455.973 287.54V287.1H451.433C450.013 287.1 449.033 287.88 449.033 289.06ZM461.013 292V281.66H462.173V292H461.013ZM460.533 278.72C460.533 278.14 460.953 277.68 461.593 277.68C462.233 277.68 462.653 278.14 462.653 278.72C462.653 279.32 462.233 279.78 461.593 279.78C460.953 279.78 460.533 279.32 460.533 278.72ZM470.667 292.26C467.527 292.26 465.387 290.04 465.387 286.82C465.387 283.62 467.547 281.4 470.687 281.4C473.947 281.4 476.047 283.8 475.967 287.3H466.567C466.767 289.64 468.367 291.16 470.667 291.16C472.347 291.16 473.687 290.38 474.367 289.04L475.667 289.06C474.867 291.04 472.987 292.26 470.667 292.26ZM466.567 286.28H474.827C474.547 283.94 472.947 282.5 470.687 282.5C468.387 282.5 466.767 284 466.567 286.28ZM479.138 292V281.66H480.118L480.218 283.66C481.038 282.18 482.478 281.4 484.138 281.4C486.838 281.4 488.498 283.3 488.498 286.28V292H487.338V286.38C487.338 284 486.058 282.52 483.998 282.52C481.818 282.52 480.298 284.18 480.298 286.64V292H479.138ZM496.268 292C494.068 292 492.888 290.76 492.888 288.42V282.72H490.628V281.66H491.948C492.728 281.66 492.948 281.46 493.028 280.7L493.128 279.12H494.048V281.66H497.628V282.72H494.048V288.38C494.048 290.08 494.748 290.88 496.308 290.88H497.768V292H496.268ZM510.21 292.26C507.55 292.26 505.91 290.36 505.91 287.38V281.66H507.07V287.28C507.07 289.64 508.33 291.14 510.37 291.14C512.51 291.14 513.99 289.46 513.99 287V281.66H515.15V292H514.19L514.07 289.98C513.27 291.48 511.83 292.26 510.21 292.26ZM519.275 292V281.66H520.255L520.355 283.66C521.175 282.18 522.615 281.4 524.275 281.4C526.975 281.4 528.635 283.3 528.635 286.28V292H527.475V286.38C527.475 284 526.195 282.52 524.135 282.52C521.955 282.52 520.435 284.18 520.435 286.64V292H519.275ZM536.917 292.26C533.777 292.26 531.637 290.04 531.637 286.82C531.637 283.62 533.797 281.4 536.937 281.4C540.197 281.4 542.297 283.8 542.217 287.3H532.817C533.017 289.64 534.617 291.16 536.917 291.16C538.597 291.16 539.937 290.38 540.617 289.04L541.917 289.06C541.117 291.04 539.237 292.26 536.917 292.26ZM532.817 286.28H541.077C540.797 283.94 539.197 282.5 536.937 282.5C534.637 282.5 533.017 284 532.817 286.28ZM358.6 325.26C356.06 325.26 354.18 323.92 353.78 321.82H354.96C355.3 323.26 356.7 324.16 358.6 324.16C360.98 324.16 362.5 322.76 362.5 320.54V318.86C361.58 320.12 360.1 320.88 358.34 320.88C355.32 320.88 353.16 318.68 353.16 315.64C353.16 312.6 355.32 310.4 358.34 310.4C360.16 310.4 361.66 311.2 362.58 312.52L362.68 310.66H363.66V320.58C363.66 323.36 361.62 325.26 358.6 325.26ZM354.32 315.64C354.32 318.06 356.02 319.74 358.46 319.74C360.88 319.74 362.58 318.06 362.58 315.64C362.58 313.22 360.88 311.52 358.46 311.52C356.02 311.52 354.32 313.22 354.32 315.64ZM372.151 321.26C369.011 321.26 366.871 319.04 366.871 315.82C366.871 312.62 369.031 310.4 372.171 310.4C375.431 310.4 377.531 312.8 377.451 316.3H368.051C368.251 318.64 369.851 320.16 372.151 320.16C373.831 320.16 375.171 319.38 375.851 318.04L377.151 318.06C376.351 320.04 374.471 321.26 372.151 321.26ZM368.051 315.28H376.311C376.031 312.94 374.431 311.5 372.171 311.5C369.871 311.5 368.251 313 368.051 315.28ZM384.183 321.26C381.563 321.26 379.903 319.94 379.823 317.88H380.963C381.083 319.34 382.223 320.2 384.203 320.2C386.023 320.2 387.123 319.5 387.123 318.36C387.123 317.28 386.143 316.62 383.943 316.24C381.243 315.78 380.023 314.82 380.023 313.24C380.023 311.48 381.523 310.4 383.943 310.4C386.383 310.4 387.923 311.56 388.083 313.54H386.923C386.803 312.18 385.743 311.44 383.943 311.44C382.223 311.44 381.183 312.14 381.183 313.26C381.183 314.28 382.043 314.84 384.343 315.28C386.963 315.78 388.263 316.82 388.263 318.38C388.263 320.12 386.683 321.26 384.183 321.26ZM395.526 321C393.326 321 392.146 319.76 392.146 317.42V311.72H389.886V310.66H391.206C391.986 310.66 392.206 310.46 392.286 309.7L392.386 308.12H393.306V310.66H396.886V311.72H393.306V317.38C393.306 319.08 394.006 319.88 395.566 319.88H397.026V321H395.526ZM400.134 321V310.66H401.294V321H400.134ZM399.654 307.72C399.654 307.14 400.074 306.68 400.714 306.68C401.354 306.68 401.774 307.14 401.774 307.72C401.774 308.32 401.354 308.78 400.714 308.78C400.074 308.78 399.654 308.32 399.654 307.72ZM409.948 321.26C406.748 321.26 404.508 319.02 404.508 315.82C404.508 312.64 406.748 310.4 409.948 310.4C413.128 310.4 415.368 312.64 415.368 315.82C415.368 319.02 413.128 321.26 409.948 321.26ZM405.668 315.82C405.668 318.38 407.408 320.14 409.948 320.14C412.468 320.14 414.208 318.38 414.208 315.82C414.208 313.28 412.468 311.52 409.948 311.52C407.408 311.52 405.668 313.28 405.668 315.82ZM418.591 321V310.66H419.571L419.671 312.66C420.491 311.18 421.931 310.4 423.591 310.4C426.291 310.4 427.951 312.3 427.951 315.28V321H426.791V315.38C426.791 313 425.511 311.52 423.451 311.52C421.271 311.52 419.751 313.18 419.751 315.64V321H418.591ZM441.116 321.26C437.976 321.26 435.836 319.04 435.836 315.82C435.836 312.62 437.996 310.4 441.136 310.4C444.396 310.4 446.496 312.8 446.416 316.3H437.016C437.216 318.64 438.816 320.16 441.116 320.16C442.796 320.16 444.136 319.38 444.816 318.04L446.116 318.06C445.316 320.04 443.436 321.26 441.116 321.26ZM437.016 315.28H445.276C444.996 312.94 443.396 311.5 441.136 311.5C438.836 311.5 437.216 313 437.016 315.28ZM465.654 321V311.72H459.134V321H457.974V311.72H451.474V321H450.314V311.72H447.954V310.66H450.314V309.46C450.314 307.12 451.494 305.94 453.834 305.94H455.394V307.04H453.934C452.214 307.04 451.474 307.78 451.474 309.54V310.66H457.974V309.46C457.974 307.12 459.154 305.94 461.494 305.94H462.994V307.04H461.594C459.874 307.04 459.134 307.78 459.134 309.54V310.66H466.814V321H465.654ZM465.174 307.72C465.174 307.14 465.594 306.68 466.234 306.68C466.874 306.68 467.294 307.14 467.294 307.72C467.294 308.32 466.874 308.78 466.234 308.78C465.594 308.78 465.174 308.32 465.174 307.72ZM475.315 321.26C472.215 321.26 470.035 319 470.035 315.82C470.035 312.64 472.215 310.4 475.315 310.4C477.775 310.4 479.795 311.86 480.395 314.1H479.215C478.535 312.46 477.095 311.52 475.315 311.52C472.875 311.52 471.195 313.28 471.195 315.82C471.195 318.38 472.875 320.14 475.315 320.14C477.215 320.14 478.695 319.08 479.275 317.38H480.495C479.795 319.8 477.855 321.26 475.315 321.26ZM486.753 321.16C484.353 321.16 482.853 319.98 482.853 318.08C482.853 316.24 484.253 315.08 486.373 315.08H490.933V314.34C490.933 312.62 489.673 311.48 487.753 311.48C486.193 311.48 484.973 312.28 484.553 313.52H483.373C483.873 311.6 485.533 310.4 487.733 310.4C490.313 310.4 492.093 311.98 492.093 314.28V321H491.133L491.013 319.22C490.113 320.46 488.593 321.16 486.753 321.16ZM484.013 318.06C484.013 319.32 485.073 320.12 486.793 320.12C489.193 320.12 490.953 318.62 490.953 316.54V316.1H486.413C484.993 316.1 484.013 316.88 484.013 318.06ZM500.374 321.26C497.274 321.26 495.094 319 495.094 315.82C495.094 312.64 497.274 310.4 500.374 310.4C502.834 310.4 504.854 311.86 505.454 314.1H504.274C503.594 312.46 502.154 311.52 500.374 311.52C497.934 311.52 496.254 313.28 496.254 315.82C496.254 318.38 497.934 320.14 500.374 320.14C502.274 320.14 503.754 319.08 504.334 317.38H505.554C504.854 319.8 502.914 321.26 500.374 321.26ZM513.088 321.26C509.948 321.26 507.808 319.04 507.808 315.82C507.808 312.62 509.968 310.4 513.108 310.4C516.368 310.4 518.468 312.8 518.388 316.3H508.988C509.188 318.64 510.788 320.16 513.088 320.16C514.768 320.16 516.108 319.38 516.788 318.04L518.088 318.06C517.288 320.04 515.408 321.26 513.088 321.26ZM508.988 315.28H517.248C516.968 312.94 515.368 311.5 513.108 311.5C510.808 311.5 509.188 313 508.988 315.28ZM530.374 321.26C527.254 321.26 525.074 318.96 525.074 315.82C525.074 312.68 527.254 310.4 530.374 310.4C532.274 310.4 533.814 311.24 534.734 312.58V306.2H535.894V321H534.934L534.794 318.96C533.894 320.38 532.314 321.26 530.374 321.26ZM526.234 315.82C526.234 318.36 527.974 320.14 530.514 320.14C533.034 320.14 534.774 318.36 534.774 315.82C534.774 313.3 533.034 311.52 530.514 311.52C527.974 311.52 526.234 313.3 526.234 315.82ZM544.097 321.26C541.437 321.26 539.797 319.36 539.797 316.38V310.66H540.957V316.28C540.957 318.64 542.217 320.14 544.257 320.14C546.397 320.14 547.877 318.46 547.877 316V310.66H549.037V321H548.077L547.957 318.98C547.157 320.48 545.717 321.26 544.097 321.26ZM358.26 350C356.06 350 354.88 348.76 354.88 346.42V340.72H352.62V339.66H353.94C354.72 339.66 354.94 339.46 355.02 338.7L355.12 337.12H356.04V339.66H359.62V340.72H356.04V346.38C356.04 348.08 356.74 348.88 358.3 348.88H359.76V350H358.26ZM366.741 350.26C363.601 350.26 361.461 348.04 361.461 344.82C361.461 341.62 363.621 339.4 366.761 339.4C370.021 339.4 372.121 341.8 372.041 345.3H362.641C362.841 347.64 364.441 349.16 366.741 349.16C368.421 349.16 369.761 348.38 370.441 347.04L371.741 347.06C370.941 349.04 369.061 350.26 366.741 350.26ZM362.641 344.28H370.901C370.621 341.94 369.021 340.5 366.761 340.5C364.461 340.5 362.841 342 362.641 344.28ZM375.212 350V339.66H376.192L376.292 341.34C377.012 340.08 378.272 339.4 379.872 339.4C381.672 339.4 383.052 340.3 383.652 341.88C384.352 340.3 385.772 339.4 387.592 339.4C390.192 339.4 391.872 341.18 391.872 344.06V350H390.712V344.24C390.712 341.94 389.432 340.52 387.452 340.52C385.432 340.52 384.112 341.98 384.112 344.32V350H382.952V344.24C382.952 341.94 381.692 340.52 379.712 340.52C377.692 340.52 376.372 341.98 376.372 344.32V350H375.212ZM401.279 350.26C399.379 350.26 397.839 349.4 396.919 348.04V354H395.759V339.66H396.739L396.859 341.72C397.759 340.28 399.339 339.4 401.279 339.4C404.419 339.4 406.579 341.68 406.579 344.82C406.579 347.96 404.419 350.26 401.279 350.26ZM396.879 344.82C396.879 347.36 398.619 349.14 401.159 349.14C403.699 349.14 405.419 347.36 405.419 344.82C405.419 342.3 403.699 340.52 401.159 340.52C398.619 340.52 396.879 342.3 396.879 344.82ZM413.362 350.26C410.742 350.26 409.082 348.94 409.002 346.88H410.142C410.262 348.34 411.402 349.2 413.382 349.2C415.202 349.2 416.302 348.5 416.302 347.36C416.302 346.28 415.322 345.62 413.122 345.24C410.422 344.78 409.202 343.82 409.202 342.24C409.202 340.48 410.702 339.4 413.122 339.4C415.562 339.4 417.102 340.56 417.262 342.54H416.102C415.982 341.18 414.922 340.44 413.122 340.44C411.402 340.44 410.362 341.14 410.362 342.26C410.362 343.28 411.222 343.84 413.522 344.28C416.142 344.78 417.442 345.82 417.442 347.38C417.442 349.12 415.862 350.26 413.362 350.26ZM420.267 351.92C420.947 351.6 421.347 350.84 421.287 349.98C421.107 350.06 420.927 350.1 420.747 350.1C420.167 350.1 419.727 349.66 419.727 349.08C419.727 348.5 420.167 348.04 420.827 348.04C421.647 348.04 422.207 348.72 422.207 349.78C422.207 351.22 421.367 352.46 420.267 352.7V351.92ZM434.956 350.26C432.296 350.26 430.656 348.36 430.656 345.38V339.66H431.816V345.28C431.816 347.64 433.076 349.14 435.116 349.14C437.256 349.14 438.736 347.46 438.736 345V339.66H439.896V350H438.936L438.816 347.98C438.016 349.48 436.576 350.26 434.956 350.26ZM444.021 350V339.66H445.001L445.101 341.66C445.921 340.18 447.361 339.4 449.021 339.4C451.721 339.4 453.381 341.3 453.381 344.28V350H452.221V344.38C452.221 342 450.941 340.52 448.881 340.52C446.701 340.52 445.181 342.18 445.181 344.64V350H444.021ZM461.663 350.26C458.523 350.26 456.383 348.04 456.383 344.82C456.383 341.62 458.543 339.4 461.683 339.4C464.943 339.4 467.043 341.8 466.963 345.3H457.563C457.763 347.64 459.363 349.16 461.663 349.16C463.343 349.16 464.683 348.38 465.363 347.04L466.663 347.06C465.863 349.04 463.983 350.26 461.663 350.26ZM457.563 344.28H465.823C465.543 341.94 463.943 340.5 461.683 340.5C459.383 340.5 457.763 342 457.563 344.28ZM478.257 350.16C475.857 350.16 474.357 348.98 474.357 347.08C474.357 345.24 475.757 344.08 477.877 344.08H482.437V343.34C482.437 341.62 481.177 340.48 479.257 340.48C477.697 340.48 476.477 341.28 476.057 342.52H474.877C475.377 340.6 477.037 339.4 479.237 339.4C481.817 339.4 483.597 340.98 483.597 343.28V350H482.637L482.517 348.22C481.617 349.46 480.097 350.16 478.257 350.16ZM475.517 347.06C475.517 348.32 476.577 349.12 478.297 349.12C480.697 349.12 482.457 347.62 482.457 345.54V345.1H477.917C476.497 345.1 475.517 345.88 475.517 347.06ZM491.878 350.26C488.778 350.26 486.598 348 486.598 344.82C486.598 341.64 488.778 339.4 491.878 339.4C494.338 339.4 496.358 340.86 496.958 343.1H495.778C495.098 341.46 493.658 340.52 491.878 340.52C489.438 340.52 487.758 342.28 487.758 344.82C487.758 347.38 489.438 349.14 491.878 349.14C493.778 349.14 495.258 348.08 495.838 346.38H497.058C496.358 348.8 494.418 350.26 491.878 350.26ZM504.08 350C501.88 350 500.7 348.76 500.7 346.42V340.72H498.44V339.66H499.76C500.54 339.66 500.76 339.46 500.84 338.7L500.94 337.12H501.86V339.66H505.44V340.72H501.86V346.38C501.86 348.08 502.56 348.88 504.12 348.88H505.58V350H504.08ZM508.689 350V339.66H509.849V350H508.689ZM508.209 336.72C508.209 336.14 508.629 335.68 509.269 335.68C509.909 335.68 510.329 336.14 510.329 336.72C510.329 337.32 509.909 337.78 509.269 337.78C508.629 337.78 508.209 337.32 508.209 336.72ZM516.922 350L512.302 339.66H513.562L515.362 343.66L517.502 348.48L519.622 343.66L521.442 339.66H522.682L518.062 350H516.922ZM525.154 350V339.66H526.314V350H525.154ZM524.674 336.72C524.674 336.14 525.094 335.68 525.734 335.68C526.374 335.68 526.794 336.14 526.794 336.72C526.794 337.32 526.374 337.78 525.734 337.78C525.094 337.78 524.674 337.32 524.674 336.72ZM534.627 350C532.427 350 531.247 348.76 531.247 346.42V340.72H528.987V339.66H530.307C531.087 339.66 531.307 339.46 531.387 338.7L531.487 337.12H532.407V339.66H535.987V340.72H532.407V346.38C532.407 348.08 533.107 348.88 534.667 348.88H536.127V350H534.627ZM543.108 350.26C539.968 350.26 537.828 348.04 537.828 344.82C537.828 341.62 539.988 339.4 543.128 339.4C546.388 339.4 548.488 341.8 548.408 345.3H539.008C539.208 347.64 540.808 349.16 543.108 349.16C544.788 349.16 546.128 348.38 546.808 347.04L548.108 347.06C547.308 349.04 545.428 350.26 543.108 350.26ZM539.008 344.28H547.268C546.988 341.94 545.388 340.5 543.128 340.5C540.828 340.5 539.208 342 539.008 344.28ZM542.368 337.94L543.468 334.92H544.728L543.468 337.94H542.368ZM359.58 379.26C357.68 379.26 356.14 378.4 355.22 377.04V383H354.06V368.66H355.04L355.16 370.72C356.06 369.28 357.64 368.4 359.58 368.4C362.72 368.4 364.88 370.68 364.88 373.82C364.88 376.96 362.72 379.26 359.58 379.26ZM355.18 373.82C355.18 376.36 356.92 378.14 359.46 378.14C362 378.14 363.72 376.36 363.72 373.82C363.72 371.3 362 369.52 359.46 369.52C356.92 369.52 355.18 371.3 355.18 373.82ZM368.103 379V364.2H369.263V370.54C370.083 369.12 371.523 368.4 373.143 368.4C375.823 368.4 377.463 370.26 377.463 373.24V379H376.303V373.34C376.303 370.96 375.043 369.52 372.983 369.52C370.803 369.52 369.263 371.14 369.263 373.62V379H368.103ZM380.295 383V381.9H381.155C382.615 381.9 383.075 381.6 383.615 380.3L384.195 378.84L379.275 368.66H380.575L383.015 373.76L384.795 377.44L386.275 373.76L388.375 368.66H389.595L384.655 380.74C383.935 382.54 383.135 383 381.275 383H380.295ZM395.257 379.26C392.637 379.26 390.977 377.94 390.897 375.88H392.037C392.157 377.34 393.297 378.2 395.277 378.2C397.097 378.2 398.197 377.5 398.197 376.36C398.197 375.28 397.217 374.62 395.017 374.24C392.317 373.78 391.097 372.82 391.097 371.24C391.097 369.48 392.597 368.4 395.017 368.4C397.457 368.4 398.997 369.56 399.157 371.54H397.997C397.877 370.18 396.817 369.44 395.017 369.44C393.297 369.44 392.257 370.14 392.257 371.26C392.257 372.28 393.117 372.84 395.417 373.28C398.037 373.78 399.337 374.82 399.337 376.38C399.337 378.12 397.757 379.26 395.257 379.26ZM402.693 379V368.66H403.853V379H402.693ZM402.213 365.72C402.213 365.14 402.633 364.68 403.273 364.68C403.913 364.68 404.333 365.14 404.333 365.72C404.333 366.32 403.913 366.78 403.273 366.78C402.633 366.78 402.213 366.32 402.213 365.72ZM412.366 379.26C409.246 379.26 407.066 376.96 407.066 373.82C407.066 370.68 409.246 368.4 412.366 368.4C414.306 368.4 415.886 369.28 416.806 370.7L416.926 368.66H417.886V383H416.726V377.06C415.806 378.42 414.266 379.26 412.366 379.26ZM408.226 373.82C408.226 376.36 409.966 378.14 412.506 378.14C415.026 378.14 416.766 376.36 416.766 373.82C416.766 371.3 415.026 369.52 412.506 369.52C409.966 369.52 408.226 371.3 408.226 373.82ZM426.089 379.26C423.429 379.26 421.789 377.36 421.789 374.38V368.66H422.949V374.28C422.949 376.64 424.209 378.14 426.249 378.14C428.389 378.14 429.869 376.46 429.869 374V368.66H431.029V379H430.069L429.949 376.98C429.149 378.48 427.709 379.26 426.089 379.26ZM439.534 379.26C436.394 379.26 434.254 377.04 434.254 373.82C434.254 370.62 436.414 368.4 439.554 368.4C442.814 368.4 444.914 370.8 444.834 374.3H435.434C435.634 376.64 437.234 378.16 439.534 378.16C441.214 378.16 442.554 377.38 443.234 376.04L444.534 376.06C443.734 378.04 441.854 379.26 439.534 379.26ZM435.434 373.28H443.694C443.414 370.94 441.814 369.5 439.554 369.5C437.254 369.5 435.634 371 435.434 373.28ZM456.799 379.26C453.659 379.26 451.519 377.04 451.519 373.82C451.519 370.62 453.679 368.4 456.819 368.4C460.079 368.4 462.179 370.8 462.099 374.3H452.699C452.899 376.64 454.499 378.16 456.799 378.16C458.479 378.16 459.819 377.38 460.499 376.04L461.799 376.06C460.999 378.04 459.119 379.26 456.799 379.26ZM452.699 373.28H460.959C460.679 370.94 459.079 369.5 456.819 369.5C454.519 369.5 452.899 371 452.699 373.28ZM469.139 379C466.939 379 465.759 377.76 465.759 375.42V369.72H463.499V368.66H464.819C465.599 368.66 465.819 368.46 465.899 367.7L465.999 366.12H466.919V368.66H470.499V369.72H466.919V375.38C466.919 377.08 467.619 377.88 469.179 377.88H470.639V379H469.139ZM483.03 379.26C479.91 379.26 477.73 376.96 477.73 373.82C477.73 370.68 479.91 368.4 483.03 368.4C484.93 368.4 486.47 369.24 487.39 370.58V364.2H488.55V379H487.59L487.45 376.96C486.55 378.38 484.97 379.26 483.03 379.26ZM478.89 373.82C478.89 376.36 480.63 378.14 483.17 378.14C485.69 378.14 487.43 376.36 487.43 373.82C487.43 371.3 485.69 369.52 483.17 369.52C480.63 369.52 478.89 371.3 478.89 373.82ZM497.053 379.26C493.913 379.26 491.773 377.04 491.773 373.82C491.773 370.62 493.933 368.4 497.073 368.4C500.333 368.4 502.433 370.8 502.353 374.3H492.953C493.153 376.64 494.753 378.16 497.053 378.16C498.733 378.16 500.073 377.38 500.753 376.04L502.053 376.06C501.253 378.04 499.373 379.26 497.053 379.26ZM492.953 373.28H501.213C500.933 370.94 499.333 369.5 497.073 369.5C494.773 369.5 493.153 371 492.953 373.28ZM509.085 379.26C506.465 379.26 504.805 377.94 504.725 375.88H505.865C505.985 377.34 507.125 378.2 509.105 378.2C510.925 378.2 512.025 377.5 512.025 376.36C512.025 375.28 511.045 374.62 508.845 374.24C506.145 373.78 504.925 372.82 504.925 371.24C504.925 369.48 506.425 368.4 508.845 368.4C511.285 368.4 512.825 369.56 512.985 371.54H511.825C511.705 370.18 510.645 369.44 508.845 369.44C507.125 369.44 506.085 370.14 506.085 371.26C506.085 372.28 506.945 372.84 509.245 373.28C511.865 373.78 513.165 374.82 513.165 376.38C513.165 378.12 511.585 379.26 509.085 379.26ZM357.3 408.16C354.9 408.16 353.4 406.98 353.4 405.08C353.4 403.24 354.8 402.08 356.92 402.08H361.48V401.34C361.48 399.62 360.22 398.48 358.3 398.48C356.74 398.48 355.52 399.28 355.1 400.52H353.92C354.42 398.6 356.08 397.4 358.28 397.4C360.86 397.4 362.64 398.98 362.64 401.28V408H361.68L361.56 406.22C360.66 407.46 359.14 408.16 357.3 408.16ZM354.56 405.06C354.56 406.32 355.62 407.12 357.34 407.12C359.74 407.12 361.5 405.62 361.5 403.54V403.1H356.96C355.54 403.1 354.56 403.88 354.56 405.06ZM370.92 408.26C367.82 408.26 365.64 406 365.64 402.82C365.64 399.64 367.82 397.4 370.92 397.4C373.38 397.4 375.4 398.86 376 401.1H374.82C374.14 399.46 372.7 398.52 370.92 398.52C368.48 398.52 366.8 400.28 366.8 402.82C366.8 405.38 368.48 407.14 370.92 407.14C372.82 407.14 374.3 406.08 374.88 404.38H376.1C375.4 406.8 373.46 408.26 370.92 408.26ZM383.123 408C380.923 408 379.743 406.76 379.743 404.42V398.72H377.483V397.66H378.803C379.583 397.66 379.803 397.46 379.883 396.7L379.983 395.12H380.903V397.66H384.483V398.72H380.903V404.38C380.903 406.08 381.603 406.88 383.163 406.88H384.623V408H383.123ZM387.732 408V397.66H388.892V408H387.732ZM387.252 394.72C387.252 394.14 387.672 393.68 388.312 393.68C388.952 393.68 389.372 394.14 389.372 394.72C389.372 395.32 388.952 395.78 388.312 395.78C387.672 395.78 387.252 395.32 387.252 394.72ZM395.965 408L391.345 397.66H392.605L394.405 401.66L396.545 406.48L398.665 401.66L400.485 397.66H401.725L397.105 408H395.965ZM404.197 408V397.66H405.357V408H404.197ZM403.717 394.72C403.717 394.14 404.137 393.68 404.777 393.68C405.417 393.68 405.837 394.14 405.837 394.72C405.837 395.32 405.417 395.78 404.777 395.78C404.137 395.78 403.717 395.32 403.717 394.72ZM413.67 408C411.47 408 410.29 406.76 410.29 404.42V398.72H408.03V397.66H409.35C410.13 397.66 410.35 397.46 410.43 396.7L410.53 395.12H411.45V397.66H415.03V398.72H411.45V404.38C411.45 406.08 412.15 406.88 413.71 406.88H415.17V408H413.67ZM422.151 408.26C419.011 408.26 416.871 406.04 416.871 402.82C416.871 399.62 419.031 397.4 422.171 397.4C425.431 397.4 427.531 399.8 427.451 403.3H418.051C418.251 405.64 419.851 407.16 422.151 407.16C423.831 407.16 425.171 406.38 425.851 405.04L427.151 405.06C426.351 407.04 424.471 408.26 422.151 408.26ZM418.051 402.28H426.311C426.031 399.94 424.431 398.5 422.171 398.5C419.871 398.5 418.251 400 418.051 402.28ZM421.411 395.94L422.511 392.92H423.771L422.511 395.94H421.411ZM434.183 408.26C431.563 408.26 429.903 406.94 429.823 404.88H430.963C431.083 406.34 432.223 407.2 434.203 407.2C436.023 407.2 437.123 406.5 437.123 405.36C437.123 404.28 436.143 403.62 433.943 403.24C431.243 402.78 430.023 401.82 430.023 400.24C430.023 398.48 431.523 397.4 433.943 397.4C436.383 397.4 437.923 398.56 438.083 400.54H436.923C436.803 399.18 435.743 398.44 433.943 398.44C432.223 398.44 431.183 399.14 431.183 400.26C431.183 401.28 432.043 401.84 434.343 402.28C436.963 402.78 438.263 403.82 438.263 405.38C438.263 407.12 436.683 408.26 434.183 408.26ZM450.472 408.26C447.352 408.26 445.172 405.96 445.172 402.82C445.172 399.68 447.352 397.4 450.472 397.4C452.372 397.4 453.912 398.24 454.832 399.58V393.2H455.992V408H455.032L454.892 405.96C453.992 407.38 452.412 408.26 450.472 408.26ZM446.332 402.82C446.332 405.36 448.072 407.14 450.612 407.14C453.132 407.14 454.872 405.36 454.872 402.82C454.872 400.3 453.132 398.52 450.612 398.52C448.072 398.52 446.332 400.3 446.332 402.82ZM464.495 408.26C461.355 408.26 459.215 406.04 459.215 402.82C459.215 399.62 461.375 397.4 464.515 397.4C467.775 397.4 469.875 399.8 469.795 403.3H460.395C460.595 405.64 462.195 407.16 464.495 407.16C466.175 407.16 467.515 406.38 468.195 405.04L469.495 405.06C468.695 407.04 466.815 408.26 464.495 408.26ZM460.395 402.28H468.655C468.375 399.94 466.775 398.5 464.515 398.5C462.215 398.5 460.595 400 460.395 402.28ZM477.849 408V393.2H479.009V408H477.849ZM487.663 408.26C484.463 408.26 482.223 406.02 482.223 402.82C482.223 399.64 484.463 397.4 487.663 397.4C490.843 397.4 493.083 399.64 493.083 402.82C493.083 406.02 490.843 408.26 487.663 408.26ZM483.383 402.82C483.383 405.38 485.123 407.14 487.663 407.14C490.183 407.14 491.923 405.38 491.923 402.82C491.923 400.28 490.183 398.52 487.663 398.52C485.123 398.52 483.383 400.28 483.383 402.82ZM496.306 408V397.66H497.466V408H496.306ZM495.826 394.72C495.826 394.14 496.246 393.68 496.886 393.68C497.526 393.68 497.946 394.14 497.946 394.72C497.946 395.32 497.526 395.78 496.886 395.78C496.246 395.78 495.826 395.32 495.826 394.72ZM505.14 408.26C502.52 408.26 500.86 406.94 500.78 404.88H501.92C502.04 406.34 503.18 407.2 505.16 407.2C506.98 407.2 508.08 406.5 508.08 405.36C508.08 404.28 507.1 403.62 504.9 403.24C502.2 402.78 500.98 401.82 500.98 400.24C500.98 398.48 502.48 397.4 504.9 397.4C507.34 397.4 508.88 398.56 509.04 400.54H507.88C507.76 399.18 506.7 398.44 504.9 398.44C503.18 398.44 502.14 399.14 502.14 400.26C502.14 401.28 503 401.84 505.3 402.28C507.92 402.78 509.22 403.82 509.22 405.38C509.22 407.12 507.64 408.26 505.14 408.26ZM512.576 408V397.66H513.736V408H512.576ZM512.096 394.72C512.096 394.14 512.516 393.68 513.156 393.68C513.796 393.68 514.216 394.14 514.216 394.72C514.216 395.32 513.796 395.78 513.156 395.78C512.516 395.78 512.096 395.32 512.096 394.72ZM517.849 408V397.66H518.829L518.949 399.98C519.649 398.42 520.829 397.66 522.749 397.66H523.609V398.74H522.709C520.489 398.74 519.009 400.1 519.009 403.24V408H517.849ZM529.495 408.26C526.875 408.26 525.215 406.94 525.135 404.88H526.275C526.395 406.34 527.535 407.2 529.515 407.2C531.335 407.2 532.435 406.5 532.435 405.36C532.435 404.28 531.455 403.62 529.255 403.24C526.555 402.78 525.335 401.82 525.335 400.24C525.335 398.48 526.835 397.4 529.255 397.4C531.695 397.4 533.235 398.56 533.395 400.54H532.235C532.115 399.18 531.055 398.44 529.255 398.44C527.535 398.44 526.495 399.14 526.495 400.26C526.495 401.28 527.355 401.84 529.655 402.28C532.275 402.78 533.575 403.82 533.575 405.38C533.575 407.12 531.995 408.26 529.495 408.26ZM536.92 408.12C536.28 408.12 535.86 407.68 535.86 407.08C535.86 406.48 536.28 406.04 536.92 406.04C537.56 406.04 537.98 406.48 537.98 407.08C537.98 407.68 537.56 408.12 536.92 408.12Z" fill="black"/>
<path d="M46.26 423V409H47.48V421.84H54.58V423H46.26ZM60.1008 423.16C57.7008 423.16 56.2008 421.98 56.2008 420.08C56.2008 418.24 57.6008 417.08 59.7208 417.08H64.2808V416.34C64.2808 414.62 63.0208 413.48 61.1008 413.48C59.5408 413.48 58.3208 414.28 57.9008 415.52H56.7208C57.2208 413.6 58.8808 412.4 61.0808 412.4C63.6608 412.4 65.4408 413.98 65.4408 416.28V423H64.4808L64.3608 421.22C63.4608 422.46 61.9408 423.16 60.1008 423.16ZM57.3608 420.06C57.3608 421.32 58.4208 422.12 60.1408 422.12C62.5408 422.12 64.3008 420.62 64.3008 418.54V418.1H59.7608C58.3408 418.1 57.3608 418.88 57.3608 420.06ZM77.8231 423.26C75.2031 423.26 73.5431 421.94 73.4631 419.88H74.6031C74.7231 421.34 75.8631 422.2 77.8431 422.2C79.6631 422.2 80.7631 421.5 80.7631 420.36C80.7631 419.28 79.7831 418.62 77.5831 418.24C74.8831 417.78 73.6631 416.82 73.6631 415.24C73.6631 413.48 75.1631 412.4 77.5831 412.4C80.0231 412.4 81.5631 413.56 81.7231 415.54H80.5631C80.4431 414.18 79.3831 413.44 77.5831 413.44C75.8631 413.44 74.8231 414.14 74.8231 415.26C74.8231 416.28 75.6831 416.84 77.9831 417.28C80.6031 417.78 81.9031 418.82 81.9031 420.38C81.9031 422.12 80.3231 423.26 77.8231 423.26ZM89.6392 423.26C86.4992 423.26 84.3592 421.04 84.3592 417.82C84.3592 414.62 86.5192 412.4 89.6592 412.4C92.9192 412.4 95.0192 414.8 94.9392 418.3H85.5392C85.7392 420.64 87.3392 422.16 89.6392 422.16C91.3192 422.16 92.6592 421.38 93.3392 420.04L94.6392 420.06C93.8392 422.04 91.9592 423.26 89.6392 423.26ZM85.5392 417.28H93.7992C93.5192 414.94 91.9192 413.5 89.6592 413.5C87.3592 413.5 85.7392 415 85.5392 417.28ZM98.1108 423V412.66H99.0908L99.1908 414.66C100.011 413.18 101.451 412.4 103.111 412.4C105.811 412.4 107.471 414.3 107.471 417.28V423H106.311V417.38C106.311 415 105.031 413.52 102.971 413.52C100.791 413.52 99.2708 415.18 99.2708 417.64V423H98.1108ZM114.933 423.26C112.313 423.26 110.653 421.94 110.573 419.88H111.713C111.833 421.34 112.973 422.2 114.953 422.2C116.773 422.2 117.873 421.5 117.873 420.36C117.873 419.28 116.893 418.62 114.693 418.24C111.993 417.78 110.773 416.82 110.773 415.24C110.773 413.48 112.273 412.4 114.693 412.4C117.133 412.4 118.673 413.56 118.833 415.54H117.673C117.553 414.18 116.493 413.44 114.693 413.44C112.973 413.44 111.933 414.14 111.933 415.26C111.933 416.28 112.793 416.84 115.093 417.28C117.713 417.78 119.013 418.82 119.013 420.38C119.013 422.12 117.433 423.26 114.933 423.26ZM125.491 423.16C123.091 423.16 121.591 421.98 121.591 420.08C121.591 418.24 122.991 417.08 125.111 417.08H129.671V416.34C129.671 414.62 128.411 413.48 126.491 413.48C124.931 413.48 123.711 414.28 123.291 415.52H122.111C122.611 413.6 124.271 412.4 126.471 412.4C129.051 412.4 130.831 413.98 130.831 416.28V423H129.871L129.751 421.22C128.851 422.46 127.331 423.16 125.491 423.16ZM122.751 420.06C122.751 421.32 123.811 422.12 125.531 422.12C127.931 422.12 129.691 420.62 129.691 418.54V418.1H125.151C123.731 418.1 122.751 418.88 122.751 420.06ZM138.6 423C136.4 423 135.22 421.76 135.22 419.42V413.72H132.96V412.66H134.28C135.06 412.66 135.28 412.46 135.36 411.7L135.46 410.12H136.38V412.66H139.96V413.72H136.38V419.38C136.38 421.08 137.08 421.88 138.64 421.88H140.1V423H138.6ZM143.208 423V412.66H144.368V423H143.208ZM142.728 409.72C142.728 409.14 143.148 408.68 143.788 408.68C144.428 408.68 144.848 409.14 144.848 409.72C144.848 410.32 144.428 410.78 143.788 410.78C143.148 410.78 142.728 410.32 142.728 409.72ZM153.022 423.26C149.822 423.26 147.582 421.02 147.582 417.82C147.582 414.64 149.822 412.4 153.022 412.4C156.202 412.4 158.442 414.64 158.442 417.82C158.442 421.02 156.202 423.26 153.022 423.26ZM148.742 417.82C148.742 420.38 150.482 422.14 153.022 422.14C155.542 422.14 157.282 420.38 157.282 417.82C157.282 415.28 155.542 413.52 153.022 413.52C150.482 413.52 148.742 415.28 148.742 417.82ZM161.665 423V412.66H162.645L162.745 414.66C163.565 413.18 165.005 412.4 166.665 412.4C169.365 412.4 171.025 414.3 171.025 417.28V423H169.865V417.38C169.865 415 168.585 413.52 166.525 413.52C164.345 413.52 162.825 415.18 162.825 417.64V423H161.665ZM184.21 423.26C181.09 423.26 178.91 420.96 178.91 417.82C178.91 414.68 181.09 412.4 184.21 412.4C186.11 412.4 187.65 413.24 188.57 414.58V408.2H189.73V423H188.77L188.63 420.96C187.73 422.38 186.15 423.26 184.21 423.26ZM180.07 417.82C180.07 420.36 181.81 422.14 184.35 422.14C186.87 422.14 188.61 420.36 188.61 417.82C188.61 415.3 186.87 413.52 184.35 413.52C181.81 413.52 180.07 415.3 180.07 417.82ZM193.473 413.86L193.433 409H194.533L194.493 413.86H193.473ZM201.038 423.16C198.638 423.16 197.138 421.98 197.138 420.08C197.138 418.24 198.538 417.08 200.658 417.08H205.218V416.34C205.218 414.62 203.958 413.48 202.038 413.48C200.478 413.48 199.258 414.28 198.838 415.52H197.658C198.158 413.6 199.818 412.4 202.018 412.4C204.598 412.4 206.378 413.98 206.378 416.28V423H205.418L205.298 421.22C204.398 422.46 202.878 423.16 201.038 423.16ZM198.298 420.06C198.298 421.32 199.358 422.12 201.078 422.12C203.478 422.12 205.238 420.62 205.238 418.54V418.1H200.698C199.278 418.1 198.298 418.88 198.298 420.06ZM212.809 423L208.189 412.66H209.449L211.249 416.66L213.389 421.48L215.509 416.66L217.329 412.66H218.569L213.949 423H212.809ZM225.19 423.26C221.99 423.26 219.75 421.02 219.75 417.82C219.75 414.64 221.99 412.4 225.19 412.4C228.37 412.4 230.61 414.64 230.61 417.82C230.61 421.02 228.37 423.26 225.19 423.26ZM220.91 417.82C220.91 420.38 222.65 422.14 225.19 422.14C227.71 422.14 229.45 420.38 229.45 417.82C229.45 415.28 227.71 413.52 225.19 413.52C222.65 413.52 220.91 415.28 220.91 417.82ZM233.833 423V412.66H234.993V423H233.833ZM233.353 409.72C233.353 409.14 233.773 408.68 234.413 408.68C235.053 408.68 235.473 409.14 235.473 409.72C235.473 410.32 235.053 410.78 234.413 410.78C233.773 410.78 233.353 410.32 233.353 409.72ZM239.107 423V412.66H240.087L240.207 414.98C240.907 413.42 242.087 412.66 244.007 412.66H244.867V413.74H243.967C241.747 413.74 240.267 415.1 240.267 418.24V423H239.107ZM252.798 423V408.2H253.958V423H252.798ZM262.452 423.26C259.312 423.26 257.172 421.04 257.172 417.82C257.172 414.62 259.332 412.4 262.472 412.4C265.732 412.4 267.832 414.8 267.752 418.3H258.352C258.552 420.64 260.152 422.16 262.452 422.16C264.132 422.16 265.472 421.38 266.152 420.04L267.452 420.06C266.652 422.04 264.772 423.26 262.452 423.26ZM258.352 417.28H266.612C266.332 414.94 264.732 413.5 262.472 413.5C260.172 413.5 258.552 415 258.352 417.28ZM50.44 452.26C47.34 452.26 45.16 450 45.16 446.82C45.16 443.64 47.34 441.4 50.44 441.4C52.9 441.4 54.92 442.86 55.52 445.1H54.34C53.66 443.46 52.22 442.52 50.44 442.52C48 442.52 46.32 444.28 46.32 446.82C46.32 449.38 48 451.14 50.44 451.14C52.34 451.14 53.82 450.08 54.4 448.38H55.62C54.92 450.8 52.98 452.26 50.44 452.26ZM63.3148 452.26C60.1148 452.26 57.8748 450.02 57.8748 446.82C57.8748 443.64 60.1148 441.4 63.3148 441.4C66.4948 441.4 68.7348 443.64 68.7348 446.82C68.7348 450.02 66.4948 452.26 63.3148 452.26ZM59.0348 446.82C59.0348 449.38 60.7748 451.14 63.3148 451.14C65.8348 451.14 67.5748 449.38 67.5748 446.82C67.5748 444.28 65.8348 442.52 63.3148 442.52C60.7748 442.52 59.0348 444.28 59.0348 446.82ZM71.9584 452V441.66H72.9384L73.0384 443.66C73.8584 442.18 75.2984 441.4 76.9584 441.4C79.6584 441.4 81.3184 443.3 81.3184 446.28V452H80.1584V446.38C80.1584 444 78.8784 442.52 76.8184 442.52C74.6384 442.52 73.1184 444.18 73.1184 446.64V452H71.9584ZM89.0881 452C86.8881 452 85.7081 450.76 85.7081 448.42V442.72H83.4481V441.66H84.7681C85.5481 441.66 85.7681 441.46 85.8481 440.7L85.9481 439.12H86.8681V441.66H90.4481V442.72H86.8681V448.38C86.8681 450.08 87.5681 450.88 89.1281 450.88H90.5881V452H89.0881ZM93.6967 452V441.66H94.6767L94.7967 443.98C95.4967 442.42 96.6767 441.66 98.5967 441.66H99.4567V442.74H98.5567C96.3367 442.74 94.8567 444.1 94.8567 447.24V452H93.6967ZM106.108 452.26C102.908 452.26 100.668 450.02 100.668 446.82C100.668 443.64 102.908 441.4 106.108 441.4C109.288 441.4 111.528 443.64 111.528 446.82C111.528 450.02 109.288 452.26 106.108 452.26ZM101.828 446.82C101.828 449.38 103.568 451.14 106.108 451.14C108.628 451.14 110.368 449.38 110.368 446.82C110.368 444.28 108.628 442.52 106.108 442.52C103.568 442.52 101.828 444.28 101.828 446.82ZM103.168 439.94L105.628 436.92H106.568L109.028 439.94H107.768L106.108 437.84L104.428 439.94H103.168ZM114.751 452V437.2H115.911V452H114.751ZM124.405 452.26C121.265 452.26 119.125 450.04 119.125 446.82C119.125 443.62 121.285 441.4 124.425 441.4C127.685 441.4 129.785 443.8 129.705 447.3H120.305C120.505 449.64 122.105 451.16 124.405 451.16C126.085 451.16 127.425 450.38 128.105 449.04L129.405 449.06C128.605 451.04 126.725 452.26 124.405 452.26ZM120.305 446.28H128.565C128.285 443.94 126.685 442.5 124.425 442.5C122.125 442.5 120.505 444 120.305 446.28ZM141.69 452.26C138.57 452.26 136.39 449.96 136.39 446.82C136.39 443.68 138.57 441.4 141.69 441.4C143.59 441.4 145.13 442.24 146.05 443.58V437.2H147.21V452H146.25L146.11 449.96C145.21 451.38 143.63 452.26 141.69 452.26ZM137.55 446.82C137.55 449.36 139.29 451.14 141.83 451.14C144.35 451.14 146.09 449.36 146.09 446.82C146.09 444.3 144.35 442.52 141.83 442.52C139.29 442.52 137.55 444.3 137.55 446.82ZM155.713 452.26C152.573 452.26 150.433 450.04 150.433 446.82C150.433 443.62 152.593 441.4 155.733 441.4C158.993 441.4 161.093 443.8 161.013 447.3H151.613C151.813 449.64 153.413 451.16 155.713 451.16C157.393 451.16 158.733 450.38 159.413 449.04L160.713 449.06C159.913 451.04 158.033 452.26 155.713 452.26ZM151.613 446.28H159.873C159.593 443.94 157.993 442.5 155.733 442.5C153.433 442.5 151.813 444 151.613 446.28ZM172.198 452.26C169.578 452.26 167.918 450.94 167.838 448.88H168.978C169.098 450.34 170.238 451.2 172.218 451.2C174.038 451.2 175.138 450.5 175.138 449.36C175.138 448.28 174.158 447.62 171.958 447.24C169.258 446.78 168.038 445.82 168.038 444.24C168.038 442.48 169.538 441.4 171.958 441.4C174.398 441.4 175.938 442.56 176.098 444.54H174.938C174.818 443.18 173.758 442.44 171.958 442.44C170.238 442.44 169.198 443.14 169.198 444.26C169.198 445.28 170.058 445.84 172.358 446.28C174.978 446.78 176.278 447.82 176.278 449.38C176.278 451.12 174.698 452.26 172.198 452.26ZM184.174 452.26C180.974 452.26 178.734 450.02 178.734 446.82C178.734 443.64 180.974 441.4 184.174 441.4C187.354 441.4 189.594 443.64 189.594 446.82C189.594 450.02 187.354 452.26 184.174 452.26ZM179.894 446.82C179.894 449.38 181.634 451.14 184.174 451.14C186.694 451.14 188.434 449.38 188.434 446.82C188.434 444.28 186.694 442.52 184.174 442.52C181.634 442.52 179.894 444.28 179.894 446.82ZM192.818 452V441.66H193.798L193.898 443.66C194.718 442.18 196.158 441.4 197.818 441.4C200.518 441.4 202.178 443.3 202.178 446.28V452H201.018V446.38C201.018 444 199.738 442.52 197.678 442.52C195.498 442.52 193.978 444.18 193.978 446.64V452H192.818ZM216.951 452.26C215.051 452.26 213.511 451.4 212.591 450.04V456H211.431V441.66H212.411L212.531 443.72C213.431 442.28 215.011 441.4 216.951 441.4C220.091 441.4 222.251 443.68 222.251 446.82C222.251 449.96 220.091 452.26 216.951 452.26ZM212.551 446.82C212.551 449.36 214.291 451.14 216.831 451.14C219.371 451.14 221.091 449.36 221.091 446.82C221.091 444.3 219.371 442.52 216.831 442.52C214.291 442.52 212.551 444.3 212.551 446.82ZM225.474 452V441.66H226.454L226.574 443.98C227.274 442.42 228.454 441.66 230.374 441.66H231.234V442.74H230.334C228.114 442.74 226.634 444.1 226.634 447.24V452H225.474ZM237.885 452.26C234.685 452.26 232.445 450.02 232.445 446.82C232.445 443.64 234.685 441.4 237.885 441.4C241.065 441.4 243.305 443.64 243.305 446.82C243.305 450.02 241.065 452.26 237.885 452.26ZM233.605 446.82C233.605 449.38 235.345 451.14 237.885 451.14C240.405 451.14 242.145 449.38 242.145 446.82C242.145 444.28 240.405 442.52 237.885 442.52C235.345 442.52 233.605 444.28 233.605 446.82ZM252.049 452.26C250.149 452.26 248.609 451.4 247.689 450.04V456H246.529V441.66H247.509L247.629 443.72C248.529 442.28 250.109 441.4 252.049 441.4C255.189 441.4 257.349 443.68 257.349 446.82C257.349 449.96 255.189 452.26 252.049 452.26ZM247.649 446.82C247.649 449.36 249.389 451.14 251.929 451.14C254.469 451.14 256.189 449.36 256.189 446.82C256.189 444.3 254.469 442.52 251.929 442.52C249.389 442.52 247.649 444.3 247.649 446.82ZM260.572 452V441.66H261.552L261.672 443.98C262.372 442.42 263.552 441.66 265.472 441.66H266.332V442.74H265.432C263.212 442.74 261.732 444.1 261.732 447.24V452H260.572ZM272.823 452.26C269.683 452.26 267.543 450.04 267.543 446.82C267.543 443.62 269.703 441.4 272.843 441.4C276.103 441.4 278.203 443.8 278.123 447.3H268.723C268.923 449.64 270.523 451.16 272.823 451.16C274.503 451.16 275.843 450.38 276.523 449.04L277.823 449.06C277.023 451.04 275.143 452.26 272.823 452.26ZM268.723 446.28H276.983C276.703 443.94 275.103 442.5 272.843 442.5C270.543 442.5 268.923 444 268.723 446.28ZM50.26 481C48.06 481 46.88 479.76 46.88 477.42V471.72H44.62V470.66H45.94C46.72 470.66 46.94 470.46 47.02 469.7L47.12 468.12H48.04V470.66H51.62V471.72H48.04V477.38C48.04 479.08 48.74 479.88 50.3 479.88H51.76V481H50.26ZM58.7408 481.26C55.6008 481.26 53.4608 479.04 53.4608 475.82C53.4608 472.62 55.6208 470.4 58.7608 470.4C62.0208 470.4 64.1208 472.8 64.0408 476.3H54.6408C54.8408 478.64 56.4408 480.16 58.7408 480.16C60.4208 480.16 61.7608 479.38 62.4408 478.04L63.7408 478.06C62.9408 480.04 61.0608 481.26 58.7408 481.26ZM54.6408 475.28H62.9008C62.6208 472.94 61.0208 471.5 58.7608 471.5C56.4608 471.5 54.8408 473 54.6408 475.28ZM67.2123 481V470.66H68.1923L68.2923 472.34C69.0123 471.08 70.2723 470.4 71.8723 470.4C73.6723 470.4 75.0523 471.3 75.6523 472.88C76.3523 471.3 77.7723 470.4 79.5923 470.4C82.1923 470.4 83.8723 472.18 83.8723 475.06V481H82.7123V475.24C82.7123 472.94 81.4323 471.52 79.4523 471.52C77.4323 471.52 76.1123 472.98 76.1123 475.32V481H74.9523V475.24C74.9523 472.94 73.6923 471.52 71.7123 471.52C69.6923 471.52 68.3723 472.98 68.3723 475.32V481H67.2123ZM93.2792 481.26C91.3792 481.26 89.8392 480.4 88.9192 479.04V485H87.7592V470.66H88.7392L88.8592 472.72C89.7592 471.28 91.3392 470.4 93.2792 470.4C96.4192 470.4 98.5792 472.68 98.5792 475.82C98.5792 478.96 96.4192 481.26 93.2792 481.26ZM88.8792 475.82C88.8792 478.36 90.6192 480.14 93.1592 480.14C95.6992 480.14 97.4192 478.36 97.4192 475.82C97.4192 473.3 95.6992 471.52 93.1592 471.52C90.6192 471.52 88.8792 473.3 88.8792 475.82ZM105.362 481.26C102.742 481.26 101.082 479.94 101.002 477.88H102.142C102.262 479.34 103.402 480.2 105.382 480.2C107.202 480.2 108.302 479.5 108.302 478.36C108.302 477.28 107.322 476.62 105.122 476.24C102.422 475.78 101.202 474.82 101.202 473.24C101.202 471.48 102.702 470.4 105.122 470.4C107.562 470.4 109.102 471.56 109.262 473.54H108.102C107.982 472.18 106.922 471.44 105.122 471.44C103.402 471.44 102.362 472.14 102.362 473.26C102.362 474.28 103.222 474.84 105.522 475.28C108.142 475.78 109.442 476.82 109.442 478.38C109.442 480.12 107.862 481.26 105.362 481.26ZM117.72 481V470.66H118.7L118.8 472.34C119.52 471.08 120.78 470.4 122.38 470.4C124.18 470.4 125.56 471.3 126.16 472.88C126.86 471.3 128.28 470.4 130.1 470.4C132.7 470.4 134.38 472.18 134.38 475.06V481H133.22V475.24C133.22 472.94 131.94 471.52 129.96 471.52C127.94 471.52 126.62 472.98 126.62 475.32V481H125.46V475.24C125.46 472.94 124.2 471.52 122.22 471.52C120.2 471.52 118.88 472.98 118.88 475.32V481H117.72ZM142.647 481.26C139.507 481.26 137.367 479.04 137.367 475.82C137.367 472.62 139.527 470.4 142.667 470.4C145.927 470.4 148.027 472.8 147.947 476.3H138.547C138.747 478.64 140.347 480.16 142.647 480.16C144.327 480.16 145.667 479.38 146.347 478.04L147.647 478.06C146.847 480.04 144.967 481.26 142.647 481.26ZM138.547 475.28H146.807C146.527 472.94 144.927 471.5 142.667 471.5C140.367 471.5 138.747 473 138.547 475.28ZM141.067 465.92H142.327L143.427 468.94H142.327L141.067 465.92ZM151.119 481V470.66H152.099L152.199 472.66C153.019 471.18 154.459 470.4 156.119 470.4C158.819 470.4 160.479 472.3 160.479 475.28V481H159.319V475.38C159.319 473 158.039 471.52 155.979 471.52C153.799 471.52 152.279 473.18 152.279 475.64V481H151.119ZM168.76 481.26C165.62 481.26 163.48 479.04 163.48 475.82C163.48 472.62 165.64 470.4 168.78 470.4C172.04 470.4 174.14 472.8 174.06 476.3H164.66C164.86 478.64 166.46 480.16 168.76 480.16C170.44 480.16 171.78 479.38 172.46 478.04L173.76 478.06C172.96 480.04 171.08 481.26 168.76 481.26ZM164.66 475.28H172.92C172.64 472.94 171.04 471.5 168.78 471.5C166.48 471.5 164.86 473 164.66 475.28ZM185.355 481.16C182.955 481.16 181.455 479.98 181.455 478.08C181.455 476.24 182.855 475.08 184.975 475.08H189.535V474.34C189.535 472.62 188.275 471.48 186.355 471.48C184.795 471.48 183.575 472.28 183.155 473.52H181.975C182.475 471.6 184.135 470.4 186.335 470.4C188.915 470.4 190.695 471.98 190.695 474.28V481H189.735L189.615 479.22C188.715 480.46 187.195 481.16 185.355 481.16ZM182.615 478.06C182.615 479.32 183.675 480.12 185.395 480.12C187.795 480.12 189.555 478.62 189.555 476.54V476.1H185.015C183.595 476.1 182.615 476.88 182.615 478.06ZM184.755 465.92H185.995L187.095 468.94H185.995L184.755 465.92ZM203.878 481.26C200.758 481.26 198.578 478.96 198.578 475.82C198.578 472.68 200.758 470.4 203.878 470.4C205.778 470.4 207.318 471.24 208.238 472.58V466.2H209.398V481H208.438L208.298 478.96C207.398 480.38 205.818 481.26 203.878 481.26ZM199.738 475.82C199.738 478.36 201.478 480.14 204.018 480.14C206.538 480.14 208.278 478.36 208.278 475.82C208.278 473.3 206.538 471.52 204.018 471.52C201.478 471.52 199.738 473.3 199.738 475.82ZM217.901 481.26C214.761 481.26 212.621 479.04 212.621 475.82C212.621 472.62 214.781 470.4 217.921 470.4C221.181 470.4 223.281 472.8 223.201 476.3H213.801C214.001 478.64 215.601 480.16 217.901 480.16C219.581 480.16 220.921 479.38 221.601 478.04L222.901 478.06C222.101 480.04 220.221 481.26 217.901 481.26ZM213.801 475.28H222.061C221.781 472.94 220.181 471.5 217.921 471.5C215.621 471.5 214.001 473 213.801 475.28ZM229.933 481.26C227.313 481.26 225.653 479.94 225.573 477.88H226.713C226.833 479.34 227.973 480.2 229.953 480.2C231.773 480.2 232.873 479.5 232.873 478.36C232.873 477.28 231.893 476.62 229.693 476.24C226.993 475.78 225.773 474.82 225.773 473.24C225.773 471.48 227.273 470.4 229.693 470.4C232.133 470.4 233.673 471.56 233.833 473.54H232.673C232.553 472.18 231.493 471.44 229.693 471.44C227.973 471.44 226.933 472.14 226.933 473.26C226.933 474.28 227.793 474.84 230.093 475.28C232.713 475.78 234.013 476.82 234.013 478.38C234.013 480.12 232.433 481.26 229.933 481.26ZM46.06 510V499.66H47.04L47.14 501.66C47.96 500.18 49.4 499.4 51.06 499.4C53.76 499.4 55.42 501.3 55.42 504.28V510H54.26V504.38C54.26 502 52.98 500.52 50.92 500.52C48.74 500.52 47.22 502.18 47.22 504.64V510H46.06ZM59.3217 510V499.66H60.4817V510H59.3217ZM58.8417 496.72C58.8417 496.14 59.2617 495.68 59.9017 495.68C60.5417 495.68 60.9617 496.14 60.9617 496.72C60.9617 497.32 60.5417 497.78 59.9017 497.78C59.2617 497.78 58.8417 497.32 58.8417 496.72ZM67.5552 510L62.9352 499.66H64.1952L65.9952 503.66L68.1352 508.48L70.2552 503.66L72.0752 499.66H73.3152L68.6952 510H67.5552ZM79.7759 510.26C76.6359 510.26 74.4959 508.04 74.4959 504.82C74.4959 501.62 76.6559 499.4 79.7959 499.4C83.0559 499.4 85.1559 501.8 85.0759 505.3H75.6759C75.8759 507.64 77.4759 509.16 79.7759 509.16C81.4559 509.16 82.7959 508.38 83.4759 507.04L84.7759 507.06C83.9759 509.04 82.0959 510.26 79.7759 510.26ZM75.6759 504.28H83.9359C83.6559 501.94 82.0559 500.5 79.7959 500.5C77.4959 500.5 75.8759 502 75.6759 504.28ZM91.3508 510.16C88.9508 510.16 87.4508 508.98 87.4508 507.08C87.4508 505.24 88.8508 504.08 90.9708 504.08H95.5308V503.34C95.5308 501.62 94.2708 500.48 92.3508 500.48C90.7908 500.48 89.5708 501.28 89.1508 502.52H87.9708C88.4708 500.6 90.1308 499.4 92.3308 499.4C94.9108 499.4 96.6908 500.98 96.6908 503.28V510H95.7308L95.6108 508.22C94.7108 509.46 93.1908 510.16 91.3508 510.16ZM88.6108 507.06C88.6108 508.32 89.6708 509.12 91.3908 509.12C93.7908 509.12 95.5508 507.62 95.5508 505.54V505.1H91.0108C89.5908 505.1 88.6108 505.88 88.6108 507.06ZM104.671 510.26C102.011 510.26 100.371 508.36 100.371 505.38V499.66H101.531V505.28C101.531 507.64 102.791 509.14 104.831 509.14C106.971 509.14 108.451 507.46 108.451 505V499.66H109.611V510H108.651L108.531 507.98C107.731 509.48 106.291 510.26 104.671 510.26ZM112.476 510L116.556 504.7L112.736 499.66H114.116L116.216 502.4L117.316 503.88L118.416 502.4L120.516 499.66H121.916L118.096 504.7L122.176 510H120.756L118.496 507.06L117.336 505.52L116.156 507.06L113.896 510H112.476ZM133.858 510.26C130.738 510.26 128.558 507.96 128.558 504.82C128.558 501.68 130.738 499.4 133.858 499.4C135.758 499.4 137.298 500.24 138.218 501.58V495.2H139.378V510H138.418L138.278 507.96C137.378 509.38 135.798 510.26 133.858 510.26ZM129.718 504.82C129.718 507.36 131.458 509.14 133.998 509.14C136.518 509.14 138.258 507.36 138.258 504.82C138.258 502.3 136.518 500.52 133.998 500.52C131.458 500.52 129.718 502.3 129.718 504.82ZM147.881 510.26C144.741 510.26 142.601 508.04 142.601 504.82C142.601 501.62 144.761 499.4 147.901 499.4C151.161 499.4 153.261 501.8 153.181 505.3H143.781C143.981 507.64 145.581 509.16 147.881 509.16C149.561 509.16 150.901 508.38 151.581 507.04L152.881 507.06C152.081 509.04 150.201 510.26 147.881 510.26ZM143.781 504.28H152.041C151.761 501.94 150.161 500.5 147.901 500.5C145.601 500.5 143.981 502 143.781 504.28ZM164.366 510.26C161.746 510.26 160.086 508.94 160.006 506.88H161.146C161.266 508.34 162.406 509.2 164.386 509.2C166.206 509.2 167.306 508.5 167.306 507.36C167.306 506.28 166.326 505.62 164.126 505.24C161.426 504.78 160.206 503.82 160.206 502.24C160.206 500.48 161.706 499.4 164.126 499.4C166.566 499.4 168.106 500.56 168.266 502.54H167.106C166.986 501.18 165.926 500.44 164.126 500.44C162.406 500.44 161.366 501.14 161.366 502.26C161.366 503.28 162.226 503.84 164.526 504.28C167.146 504.78 168.446 505.82 168.446 507.38C168.446 509.12 166.866 510.26 164.366 510.26ZM175.709 510C173.509 510 172.329 508.76 172.329 506.42V500.72H170.069V499.66H171.389C172.169 499.66 172.389 499.46 172.469 498.7L172.569 497.12H173.489V499.66H177.069V500.72H173.489V506.38C173.489 508.08 174.189 508.88 175.749 508.88H177.209V510H175.709ZM180.318 510V499.66H181.298L181.418 501.98C182.118 500.42 183.298 499.66 185.218 499.66H186.078V500.74H185.178C182.958 500.74 181.478 502.1 181.478 505.24V510H180.318ZM192.569 510.26C189.429 510.26 187.289 508.04 187.289 504.82C187.289 501.62 189.449 499.4 192.589 499.4C195.849 499.4 197.949 501.8 197.869 505.3H188.469C188.669 507.64 190.269 509.16 192.569 509.16C194.249 509.16 195.589 508.38 196.269 507.04L197.569 507.06C196.769 509.04 194.889 510.26 192.569 510.26ZM188.469 504.28H196.729C196.449 501.94 194.849 500.5 192.589 500.5C190.289 500.5 188.669 502 188.469 504.28ZM204.6 510.26C201.98 510.26 200.32 508.94 200.24 506.88H201.38C201.5 508.34 202.64 509.2 204.62 509.2C206.44 509.2 207.54 508.5 207.54 507.36C207.54 506.28 206.56 505.62 204.36 505.24C201.66 504.78 200.44 503.82 200.44 502.24C200.44 500.48 201.94 499.4 204.36 499.4C206.8 499.4 208.34 500.56 208.5 502.54H207.34C207.22 501.18 206.16 500.44 204.36 500.44C202.64 500.44 201.6 501.14 201.6 502.26C201.6 503.28 202.46 503.84 204.76 504.28C207.38 504.78 208.68 505.82 208.68 507.38C208.68 509.12 207.1 510.26 204.6 510.26ZM215.597 510.26C212.977 510.26 211.317 508.94 211.237 506.88H212.377C212.497 508.34 213.637 509.2 215.617 509.2C217.437 509.2 218.537 508.5 218.537 507.36C218.537 506.28 217.557 505.62 215.357 505.24C212.657 504.78 211.437 503.82 211.437 502.24C211.437 500.48 212.937 499.4 215.357 499.4C217.797 499.4 219.337 500.56 219.497 502.54H218.337C218.217 501.18 217.157 500.44 215.357 500.44C213.637 500.44 212.597 501.14 212.597 502.26C212.597 503.28 213.457 503.84 215.757 504.28C218.377 504.78 219.677 505.82 219.677 507.38C219.677 509.12 218.097 510.26 215.597 510.26ZM233.475 510.26C231.575 510.26 230.035 509.4 229.115 508.04V514H227.955V499.66H228.935L229.055 501.72C229.955 500.28 231.535 499.4 233.475 499.4C236.615 499.4 238.775 501.68 238.775 504.82C238.775 507.96 236.615 510.26 233.475 510.26ZM229.075 504.82C229.075 507.36 230.815 509.14 233.355 509.14C235.895 509.14 237.615 507.36 237.615 504.82C237.615 502.3 235.895 500.52 233.355 500.52C230.815 500.52 229.075 502.3 229.075 504.82ZM241.998 510V495.2H243.158V510H241.998ZM251.351 510.26C248.691 510.26 247.051 508.36 247.051 505.38V499.66H248.211V505.28C248.211 507.64 249.471 509.14 251.511 509.14C253.651 509.14 255.131 507.46 255.131 505V499.66H256.291V510H255.331L255.211 507.98C254.411 509.48 252.971 510.26 251.351 510.26ZM263.975 510.26C261.355 510.26 259.695 508.94 259.615 506.88H260.755C260.875 508.34 262.015 509.2 263.995 509.2C265.815 509.2 266.915 508.5 266.915 507.36C266.915 506.28 265.935 505.62 263.735 505.24C261.035 504.78 259.815 503.82 259.815 502.24C259.815 500.48 261.315 499.4 263.735 499.4C266.175 499.4 267.715 500.56 267.875 502.54H266.715C266.595 501.18 265.535 500.44 263.735 500.44C262.015 500.44 260.975 501.14 260.975 502.26C260.975 503.28 261.835 503.84 264.135 504.28C266.755 504.78 268.055 505.82 268.055 507.38C268.055 509.12 266.475 510.26 263.975 510.26ZM51.58 539.26C49.64 539.26 48.06 538.36 47.16 536.94L47.04 539H46.06V524.2H47.22V530.62C48.14 529.24 49.68 528.4 51.58 528.4C54.72 528.4 56.88 530.68 56.88 533.82C56.88 536.96 54.72 539.26 51.58 539.26ZM47.18 533.82C47.18 536.36 48.92 538.14 51.46 538.14C54 538.14 55.72 536.36 55.72 533.82C55.72 531.3 54 529.52 51.46 529.52C48.92 529.52 47.18 531.3 47.18 533.82ZM63.2063 539.16C60.8063 539.16 59.3063 537.98 59.3063 536.08C59.3063 534.24 60.7063 533.08 62.8263 533.08H67.3863V532.34C67.3863 530.62 66.1263 529.48 64.2063 529.48C62.6463 529.48 61.4263 530.28 61.0063 531.52H59.8263C60.3263 529.6 61.9863 528.4 64.1863 528.4C66.7663 528.4 68.5463 529.98 68.5463 532.28V539H67.5863L67.4663 537.22C66.5663 538.46 65.0463 539.16 63.2063 539.16ZM60.4663 536.06C60.4663 537.32 61.5263 538.12 63.2463 538.12C65.6463 538.12 67.4063 536.62 67.4063 534.54V534.1H62.8663C61.4463 534.1 60.4663 534.88 60.4663 536.06ZM76.0067 539.26C73.3867 539.26 71.7267 537.94 71.6467 535.88H72.7867C72.9067 537.34 74.0467 538.2 76.0267 538.2C77.8467 538.2 78.9467 537.5 78.9467 536.36C78.9467 535.28 77.9667 534.62 75.7667 534.24C73.0667 533.78 71.8467 532.82 71.8467 531.24C71.8467 529.48 73.3467 528.4 75.7667 528.4C78.2067 528.4 79.7467 529.56 79.9067 531.54H78.7467C78.6267 530.18 77.5667 529.44 75.7667 529.44C74.0467 529.44 73.0067 530.14 73.0067 531.26C73.0067 532.28 73.8667 532.84 76.1667 533.28C78.7867 533.78 80.0867 534.82 80.0867 536.38C80.0867 538.12 78.5067 539.26 76.0067 539.26ZM83.4317 539.12C82.7917 539.12 82.3717 538.68 82.3717 538.08C82.3717 537.48 82.7917 537.04 83.4317 537.04C84.0717 537.04 84.4917 537.48 84.4917 538.08C84.4917 538.68 84.0717 539.12 83.4317 539.12Z" fill="black"/>
</svg>
