<svg width="1104" height="276" viewBox="0 0 1104 276" fill="none" xmlns="http://www.w3.org/2000/svg">
<path d="M458.06 21L453.48 7H454.76L456.84 13.38L458.68 19.1L460.78 13.38L463.1 7H464.26L468.7 19.12L470.56 13.38L472.62 7H473.9L469.3 21H468.16L463.68 8.84L461.2 15.6L459.22 21H458.06ZM475.841 21V10.66H477.001V21H475.841ZM475.361 7.72C475.361 7.14 475.781 6.68 476.421 6.68C477.061 6.68 477.481 7.14 477.481 7.72C477.481 8.32 477.061 8.78 476.421 8.78C475.781 8.78 475.361 8.32 475.361 7.72ZM485.495 21.26C482.355 21.26 480.215 19.04 480.215 15.82C480.215 12.62 482.375 10.4 485.515 10.4C488.775 10.4 490.875 12.8 490.795 16.3H481.395C481.595 18.64 483.195 20.16 485.495 20.16C487.175 20.16 488.515 19.38 489.195 18.04L490.495 18.06C489.695 20.04 487.815 21.26 485.495 21.26ZM481.395 15.28H489.655C489.375 12.94 487.775 11.5 485.515 11.5C483.215 11.5 481.595 13 481.395 15.28ZM502.76 21.26C499.62 21.26 497.48 19.04 497.48 15.82C497.48 12.62 499.64 10.4 502.78 10.4C506.04 10.4 508.14 12.8 508.06 16.3H498.66C498.86 18.64 500.46 20.16 502.76 20.16C504.44 20.16 505.78 19.38 506.46 18.04L507.76 18.06C506.96 20.04 505.08 21.26 502.76 21.26ZM498.66 15.28H506.92C506.64 12.94 505.04 11.5 502.78 11.5C500.48 11.5 498.86 13 498.66 15.28ZM511.232 21V10.66H512.212L512.332 12.98C513.032 11.42 514.212 10.66 516.132 10.66H516.992V11.74H516.092C513.872 11.74 512.392 13.1 512.392 16.24V21H511.232ZM519.904 21V10.66H520.884L521.004 12.98C521.704 11.42 522.884 10.66 524.804 10.66H525.664V11.74H524.764C522.544 11.74 521.064 13.1 521.064 16.24V21H519.904ZM532.155 21.26C529.015 21.26 526.875 19.04 526.875 15.82C526.875 12.62 529.035 10.4 532.175 10.4C535.435 10.4 537.535 12.8 537.455 16.3H528.055C528.255 18.64 529.855 20.16 532.155 20.16C533.835 20.16 535.175 19.38 535.855 18.04L537.155 18.06C536.355 20.04 534.475 21.26 532.155 21.26ZM528.055 15.28H536.315C536.035 12.94 534.435 11.5 532.175 11.5C529.875 11.5 528.255 13 528.055 15.28ZM540.626 21V10.66H541.786V21H540.626ZM540.146 7.72C540.146 7.14 540.566 6.68 541.206 6.68C541.846 6.68 542.266 7.14 542.266 7.72C542.266 8.32 541.846 8.78 541.206 8.78C540.566 8.78 540.146 8.32 540.146 7.72ZM550.28 21.26C547.18 21.26 545 19 545 15.82C545 12.64 547.18 10.4 550.28 10.4C552.74 10.4 554.76 11.86 555.36 14.1H554.18C553.5 12.46 552.06 11.52 550.28 11.52C547.84 11.52 546.16 13.28 546.16 15.82C546.16 18.38 547.84 20.14 550.28 20.14C552.18 20.14 553.66 19.08 554.24 17.38H555.46C554.76 19.8 552.82 21.26 550.28 21.26ZM558.615 21V6.2H559.775V12.54C560.595 11.12 562.035 10.4 563.655 10.4C566.335 10.4 567.975 12.26 567.975 15.24V21H566.815V15.34C566.815 12.96 565.555 11.52 563.495 11.52C561.315 11.52 559.775 13.14 559.775 15.62V21H558.615ZM576.256 21.26C573.116 21.26 570.976 19.04 570.976 15.82C570.976 12.62 573.136 10.4 576.276 10.4C579.536 10.4 581.636 12.8 581.556 16.3H572.156C572.356 18.64 573.956 20.16 576.256 20.16C577.936 20.16 579.276 19.38 579.956 18.04L581.256 18.06C580.456 20.04 578.576 21.26 576.256 21.26ZM572.156 15.28H580.416C580.136 12.94 578.536 11.5 576.276 11.5C573.976 11.5 572.356 13 572.156 15.28ZM584.728 21V10.66H585.708L585.808 12.66C586.628 11.18 588.068 10.4 589.728 10.4C592.428 10.4 594.088 12.3 594.088 15.28V21H592.928V15.38C592.928 13 591.648 11.52 589.588 11.52C587.408 11.52 585.888 13.18 585.888 15.64V21H584.728ZM604.973 21L601.253 10.66H602.493L605.553 19.26L607.013 15.5L608.873 10.66H609.953L611.832 15.5L613.293 19.26L616.373 10.66H617.593L613.853 21H612.733L610.953 16.38L609.413 12.36L606.092 21H604.973ZM620.099 21V10.66H621.259V21H620.099ZM619.619 7.72C619.619 7.14 620.039 6.68 620.679 6.68C621.319 6.68 621.739 7.14 621.739 7.72C621.739 8.32 621.319 8.78 620.679 8.78C620.039 8.78 619.619 8.32 619.619 7.72ZM625.373 21V10.66H626.353L626.473 12.98C627.173 11.42 628.353 10.66 630.273 10.66H631.133V11.74H630.233C628.013 11.74 626.533 13.1 626.533 16.24V21H625.373ZM642.995 21.26C639.875 21.26 637.695 18.96 637.695 15.82C637.695 12.68 639.875 10.4 642.995 10.4C644.895 10.4 646.435 11.24 647.355 12.58V6.2H648.515V21H647.555L647.415 18.96C646.515 20.38 644.935 21.26 642.995 21.26ZM638.855 15.82C638.855 18.36 640.595 20.14 643.135 20.14C645.655 20.14 647.395 18.36 647.395 15.82C647.395 13.3 645.655 11.52 643.135 11.52C640.595 11.52 638.855 13.3 638.855 15.82ZM652.638 21V10.66H653.798V21H652.638ZM652.158 7.72C652.158 7.14 652.578 6.68 653.218 6.68C653.858 6.68 654.278 7.14 654.278 7.72C654.278 8.32 653.858 8.78 653.218 8.78C652.578 8.78 652.158 8.32 652.158 7.72ZM662.292 21.26C659.152 21.26 657.012 19.04 657.012 15.82C657.012 12.62 659.172 10.4 662.312 10.4C665.572 10.4 667.672 12.8 667.592 16.3H658.192C658.392 18.64 659.992 20.16 662.292 20.16C663.972 20.16 665.312 19.38 665.992 18.04L667.292 18.06C666.492 20.04 664.612 21.26 662.292 21.26ZM658.192 15.28H666.452C666.172 12.94 664.572 11.5 662.312 11.5C660.012 11.5 658.392 13 658.192 15.28ZM455.26 50V36H460.58C463.16 36 464.82 37.42 464.82 39.64C464.82 41.16 464.02 42.3 462.66 42.78C464.28 43.26 465.22 44.48 465.22 46.18C465.22 48.54 463.52 50 460.8 50H455.26ZM456.48 48.86H460.76C462.78 48.86 463.98 47.84 463.98 46.14C463.98 44.42 462.78 43.42 460.7 43.42H456.48V48.86ZM456.48 42.3H460.54C462.46 42.3 463.58 41.34 463.58 39.72C463.58 38.12 462.46 37.14 460.56 37.14H456.48V42.3ZM472.76 50.26C469.62 50.26 467.48 48.04 467.48 44.82C467.48 41.62 469.64 39.4 472.78 39.4C476.04 39.4 478.14 41.8 478.06 45.3H468.66C468.86 47.64 470.46 49.16 472.76 49.16C474.44 49.16 475.78 48.38 476.46 47.04L477.76 47.06C476.96 49.04 475.08 50.26 472.76 50.26ZM468.66 44.28H476.92C476.64 41.94 475.04 40.5 472.78 40.5C470.48 40.5 468.86 42 468.66 44.28ZM481.232 50V39.66H482.212L482.312 41.66C483.132 40.18 484.572 39.4 486.232 39.4C488.932 39.4 490.592 41.3 490.592 44.28V50H489.432V44.38C489.432 42 488.152 40.52 486.092 40.52C483.912 40.52 482.392 42.18 482.392 44.64V50H481.232ZM498.574 50.26C495.914 50.26 494.274 48.36 494.274 45.38V39.66H495.434V45.28C495.434 47.64 496.694 49.14 498.734 49.14C500.874 49.14 502.354 47.46 502.354 45V39.66H503.514V50H502.554L502.434 47.98C501.634 49.48 500.194 50.26 498.574 50.26ZM511.838 50C509.638 50 508.458 48.76 508.458 46.42V40.72H506.198V39.66H507.518C508.298 39.66 508.518 39.46 508.598 38.7L508.698 37.12H509.618V39.66H513.198V40.72H509.618V46.38C509.618 48.08 510.318 48.88 511.878 48.88H513.338V50H511.838ZM515.447 50V49.1L522.167 40.72H515.687V39.66H523.727V40.54L517.047 48.92H523.867V50H515.447ZM531.042 50.26C527.902 50.26 525.762 48.04 525.762 44.82C525.762 41.62 527.922 39.4 531.062 39.4C534.322 39.4 536.422 41.8 536.342 45.3H526.942C527.142 47.64 528.742 49.16 531.042 49.16C532.722 49.16 534.062 48.38 534.742 47.04L536.042 47.06C535.242 49.04 533.362 50.26 531.042 50.26ZM526.942 44.28H535.202C534.922 41.94 533.322 40.5 531.062 40.5C528.762 40.5 527.142 42 526.942 44.28ZM539.513 50V39.66H540.493L540.613 41.98C541.313 40.42 542.493 39.66 544.413 39.66H545.273V40.74H544.373C542.153 40.74 540.673 42.1 540.673 45.24V50H539.513ZM551.924 54.26C549.384 54.26 547.504 52.92 547.104 50.82H548.284C548.624 52.26 550.024 53.16 551.924 53.16C554.304 53.16 555.824 51.76 555.824 49.54V47.86C554.904 49.12 553.424 49.88 551.664 49.88C548.644 49.88 546.484 47.68 546.484 44.64C546.484 41.6 548.644 39.4 551.664 39.4C553.484 39.4 554.984 40.2 555.904 41.52L556.004 39.66H556.984V49.58C556.984 52.36 554.944 54.26 551.924 54.26ZM547.644 44.64C547.644 47.06 549.344 48.74 551.784 48.74C554.204 48.74 555.904 47.06 555.904 44.64C555.904 42.22 554.204 40.52 551.784 40.52C549.344 40.52 547.644 42.22 547.644 44.64ZM561.095 50V39.66H562.075L562.195 41.98C562.895 40.42 564.075 39.66 565.995 39.66H566.855V40.74H565.955C563.735 40.74 562.255 42.1 562.255 45.24V50H561.095ZM573.847 50.26C571.187 50.26 569.547 48.36 569.547 45.38V39.66H570.707V45.28C570.707 47.64 571.967 49.14 574.007 49.14C576.147 49.14 577.627 47.46 577.627 45V39.66H578.787V50H577.827L577.707 47.98C576.907 49.48 575.467 50.26 573.847 50.26ZM588.432 50.26C586.532 50.26 584.992 49.4 584.072 48.04V54H582.912V39.66H583.892L584.012 41.72C584.912 40.28 586.492 39.4 588.432 39.4C591.572 39.4 593.732 41.68 593.732 44.82C593.732 47.96 591.572 50.26 588.432 50.26ZM584.032 44.82C584.032 47.36 585.772 49.14 588.312 49.14C590.852 49.14 592.572 47.36 592.572 44.82C592.572 42.3 590.852 40.52 588.312 40.52C585.772 40.52 584.032 42.3 584.032 44.82ZM602.475 50.26C600.575 50.26 599.035 49.4 598.115 48.04V54H596.955V39.66H597.935L598.055 41.72C598.955 40.28 600.535 39.4 602.475 39.4C605.615 39.4 607.775 41.68 607.775 44.82C607.775 47.96 605.615 50.26 602.475 50.26ZM598.075 44.82C598.075 47.36 599.815 49.14 602.355 49.14C604.895 49.14 606.615 47.36 606.615 44.82C606.615 42.3 604.895 40.52 602.355 40.52C599.815 40.52 598.075 42.3 598.075 44.82ZM615.378 50.26C612.238 50.26 610.098 48.04 610.098 44.82C610.098 41.62 612.258 39.4 615.398 39.4C618.658 39.4 620.758 41.8 620.678 45.3H611.278C611.478 47.64 613.078 49.16 615.378 49.16C617.058 49.16 618.398 48.38 619.078 47.04L620.378 47.06C619.578 49.04 617.698 50.26 615.378 50.26ZM611.278 44.28H619.538C619.258 41.94 617.658 40.5 615.398 40.5C613.098 40.5 611.478 42 611.278 44.28ZM626.34 45.64C626.34 44.26 626.9 43.38 628.4 42.46C629.88 41.52 630.4 40.76 630.4 39.56C630.4 37.9 629.24 36.9 627.26 36.9C625.3 36.9 624.02 37.92 623.92 39.64H622.74C622.88 37.22 624.58 35.74 627.22 35.74C629.84 35.74 631.58 37.24 631.58 39.52C631.58 41.04 630.82 42.24 629.04 43.36C627.84 44.1 627.52 44.64 627.52 45.72V46.16H626.34V45.64ZM625.86 49.08C625.86 48.46 626.3 48.04 626.94 48.04C627.56 48.04 628 48.46 628 49.08C628 49.7 627.56 50.12 626.94 50.12C626.3 50.12 625.86 49.7 625.86 49.08Z" fill="black"/>
<path d="M213.06 224L208.48 210H209.76L211.84 216.38L213.68 222.1L215.78 216.38L218.1 210H219.26L223.7 222.12L225.56 216.38L227.62 210H228.9L224.3 224H223.16L218.68 211.84L216.2 218.6L214.22 224H213.06ZM233.456 224.16C231.056 224.16 229.556 222.98 229.556 221.08C229.556 219.24 230.956 218.08 233.076 218.08H237.636V217.34C237.636 215.62 236.376 214.48 234.456 214.48C232.896 214.48 231.676 215.28 231.256 216.52H230.076C230.576 214.6 232.236 213.4 234.436 213.4C237.016 213.4 238.796 214.98 238.796 217.28V224H237.836L237.716 222.22C236.816 223.46 235.296 224.16 233.456 224.16ZM230.716 221.06C230.716 222.32 231.776 223.12 233.496 223.12C235.896 223.12 237.656 221.62 237.656 219.54V219.1H233.116C231.696 219.1 230.716 219.88 230.716 221.06ZM246.257 224.26C243.637 224.26 241.977 222.94 241.897 220.88H243.037C243.157 222.34 244.297 223.2 246.277 223.2C248.097 223.2 249.197 222.5 249.197 221.36C249.197 220.28 248.217 219.62 246.017 219.24C243.317 218.78 242.097 217.82 242.097 216.24C242.097 214.48 243.597 213.4 246.017 213.4C248.457 213.4 249.997 214.56 250.157 216.54H248.997C248.877 215.18 247.817 214.44 246.017 214.44C244.297 214.44 243.257 215.14 243.257 216.26C243.257 217.28 244.117 217.84 246.417 218.28C249.037 218.78 250.337 219.82 250.337 221.38C250.337 223.12 248.757 224.26 246.257 224.26ZM264.135 224.26C262.195 224.26 260.615 223.36 259.715 221.94L259.595 224H258.615V209.2H259.775V215.62C260.695 214.24 262.235 213.4 264.135 213.4C267.275 213.4 269.435 215.68 269.435 218.82C269.435 221.96 267.275 224.26 264.135 224.26ZM259.735 218.82C259.735 221.36 261.475 223.14 264.015 223.14C266.555 223.14 268.275 221.36 268.275 218.82C268.275 216.3 266.555 214.52 264.015 214.52C261.475 214.52 259.735 216.3 259.735 218.82ZM277.038 224.26C273.898 224.26 271.758 222.04 271.758 218.82C271.758 215.62 273.918 213.4 277.058 213.4C280.318 213.4 282.418 215.8 282.338 219.3H272.938C273.138 221.64 274.738 223.16 277.038 223.16C278.718 223.16 280.058 222.38 280.738 221.04L282.038 221.06C281.238 223.04 279.358 224.26 277.038 224.26ZM272.938 218.28H281.198C280.918 215.94 279.318 214.5 277.058 214.5C274.758 214.5 273.138 216 272.938 218.28ZM289.909 224.26C286.789 224.26 284.609 221.96 284.609 218.82C284.609 215.68 286.789 213.4 289.909 213.4C291.809 213.4 293.349 214.24 294.269 215.58V209.2H295.429V224H294.469L294.329 221.96C293.429 223.38 291.849 224.26 289.909 224.26ZM285.769 218.82C285.769 221.36 287.509 223.14 290.049 223.14C292.569 223.14 294.309 221.36 294.309 218.82C294.309 216.3 292.569 214.52 290.049 214.52C287.509 214.52 285.769 216.3 285.769 218.82ZM303.932 224.26C300.792 224.26 298.652 222.04 298.652 218.82C298.652 215.62 300.812 213.4 303.952 213.4C307.212 213.4 309.312 215.8 309.232 219.3H299.832C300.032 221.64 301.632 223.16 303.932 223.16C305.612 223.16 306.952 222.38 307.632 221.04L308.932 221.06C308.132 223.04 306.252 224.26 303.932 224.26ZM299.832 218.28H308.092C307.812 215.94 306.212 214.5 303.952 214.5C301.652 214.5 300.032 216 299.832 218.28ZM316.484 224.26C313.824 224.26 312.184 222.36 312.184 219.38V213.66H313.344V219.28C313.344 221.64 314.604 223.14 316.644 223.14C318.784 223.14 320.264 221.46 320.264 219V213.66H321.424V224H320.464L320.344 221.98C319.544 223.48 318.104 224.26 316.484 224.26ZM329.748 224C327.548 224 326.368 222.76 326.368 220.42V214.72H324.108V213.66H325.428C326.208 213.66 326.428 213.46 326.508 212.7L326.608 211.12H327.528V213.66H331.108V214.72H327.528V220.38C327.528 222.08 328.228 222.88 329.788 222.88H331.248V224H329.748ZM338.229 224.26C335.089 224.26 332.949 222.04 332.949 218.82C332.949 215.62 335.109 213.4 338.249 213.4C341.509 213.4 343.609 215.8 343.529 219.3H334.129C334.329 221.64 335.929 223.16 338.229 223.16C339.909 223.16 341.249 222.38 341.929 221.04L343.229 221.06C342.429 223.04 340.549 224.26 338.229 224.26ZM334.129 218.28H342.389C342.109 215.94 340.509 214.5 338.249 214.5C335.949 214.5 334.329 216 334.129 218.28ZM350.569 224C348.369 224 347.189 222.76 347.189 220.42V214.72H344.929V213.66H346.249C347.029 213.66 347.249 213.46 347.329 212.7L347.429 211.12H348.349V213.66H351.929V214.72H348.349V220.38C348.349 222.08 349.049 222.88 350.609 222.88H352.069V224H350.569ZM208.44 253L214.24 239H215.4L221.2 253H219.92L218.46 249.48H211.18L209.74 253H208.44ZM211.66 248.36H218L214.82 240.66L211.66 248.36ZM227.285 253.26C224.625 253.26 222.985 251.36 222.985 248.38V242.66H224.145V248.28C224.145 250.64 225.405 252.14 227.445 252.14C229.585 252.14 231.065 250.46 231.065 248V242.66H232.225V253H231.265L231.145 250.98C230.345 252.48 228.905 253.26 227.285 253.26ZM237.349 241.46C237.349 239.1 238.509 237.94 240.809 237.94H242.429V239.04H240.909C239.229 239.04 238.509 239.78 238.509 241.54V242.66H242.329V243.72H238.509V253H237.349V243.72H234.989V242.66H237.349V241.46ZM248.897 257.26C246.357 257.26 244.477 255.92 244.077 253.82H245.257C245.597 255.26 246.997 256.16 248.897 256.16C251.277 256.16 252.797 254.76 252.797 252.54V250.86C251.877 252.12 250.397 252.88 248.637 252.88C245.617 252.88 243.457 250.68 243.457 247.64C243.457 244.6 245.617 242.4 248.637 242.4C250.457 242.4 251.957 243.2 252.877 244.52L252.977 242.66H253.957V252.58C253.957 255.36 251.917 257.26 248.897 257.26ZM244.617 247.64C244.617 250.06 246.317 251.74 248.757 251.74C251.177 251.74 252.877 250.06 252.877 247.64C252.877 245.22 251.177 243.52 248.757 243.52C246.317 243.52 244.617 245.22 244.617 247.64ZM261.308 253.16C258.908 253.16 257.408 251.98 257.408 250.08C257.408 248.24 258.808 247.08 260.928 247.08H265.488V246.34C265.488 244.62 264.228 243.48 262.308 243.48C260.748 243.48 259.528 244.28 259.108 245.52H257.928C258.428 243.6 260.088 242.4 262.288 242.4C264.868 242.4 266.648 243.98 266.648 246.28V253H265.688L265.568 251.22C264.668 252.46 263.148 253.16 261.308 253.16ZM258.568 250.06C258.568 251.32 259.628 252.12 261.348 252.12C263.748 252.12 265.508 250.62 265.508 248.54V248.1H260.968C259.548 248.1 258.568 248.88 258.568 250.06ZM276.068 253.26C274.128 253.26 272.548 252.36 271.648 250.94L271.528 253H270.548V238.2H271.708V244.62C272.628 243.24 274.168 242.4 276.068 242.4C279.208 242.4 281.368 244.68 281.368 247.82C281.368 250.96 279.208 253.26 276.068 253.26ZM271.668 247.82C271.668 250.36 273.408 252.14 275.948 252.14C278.488 252.14 280.208 250.36 280.208 247.82C280.208 245.3 278.488 243.52 275.948 243.52C273.408 243.52 271.668 245.3 271.668 247.82ZM288.971 253.26C285.831 253.26 283.691 251.04 283.691 247.82C283.691 244.62 285.851 242.4 288.991 242.4C292.251 242.4 294.351 244.8 294.271 248.3H284.871C285.071 250.64 286.671 252.16 288.971 252.16C290.651 252.16 291.991 251.38 292.671 250.04L293.971 250.06C293.171 252.04 291.291 253.26 288.971 253.26ZM284.871 247.28H293.131C292.851 244.94 291.251 243.5 288.991 243.5C286.691 243.5 285.071 245 284.871 247.28ZM297.443 253V242.66H298.423L298.523 244.66C299.343 243.18 300.783 242.4 302.443 242.4C305.143 242.4 306.803 244.3 306.803 247.28V253H305.643V247.38C305.643 245 304.363 243.52 302.303 243.52C300.123 243.52 298.603 245.18 298.603 247.64V253H297.443ZM310.705 253V242.66H311.685L311.785 244.34C312.505 243.08 313.765 242.4 315.365 242.4C317.165 242.4 318.545 243.3 319.145 244.88C319.845 243.3 321.265 242.4 323.085 242.4C325.685 242.4 327.365 244.18 327.365 247.06V253H326.205V247.24C326.205 244.94 324.925 243.52 322.945 243.52C320.925 243.52 319.605 244.98 319.605 247.32V253H318.445V247.24C318.445 244.94 317.185 243.52 315.205 243.52C313.185 243.52 311.865 244.98 311.865 247.32V253H310.705ZM334.491 253.16C332.091 253.16 330.591 251.98 330.591 250.08C330.591 248.24 331.991 247.08 334.111 247.08H338.671V246.34C338.671 244.62 337.411 243.48 335.491 243.48C333.931 243.48 332.711 244.28 332.291 245.52H331.111C331.611 243.6 333.271 242.4 335.471 242.4C338.051 242.4 339.831 243.98 339.831 246.28V253H338.871L338.751 251.22C337.851 252.46 336.331 253.16 334.491 253.16ZM331.751 250.06C331.751 251.32 332.811 252.12 334.531 252.12C336.931 252.12 338.691 250.62 338.691 248.54V248.1H334.151C332.731 248.1 331.751 248.88 331.751 250.06ZM343.732 253V242.66H344.712L344.812 244.66C345.632 243.18 347.072 242.4 348.732 242.4C351.432 242.4 353.092 244.3 353.092 247.28V253H351.932V247.38C351.932 245 350.652 243.52 348.592 243.52C346.412 243.52 344.892 245.18 344.892 247.64V253H343.732ZM360.234 253.16C357.834 253.16 356.334 251.98 356.334 250.08C356.334 248.24 357.734 247.08 359.854 247.08H364.414V246.34C364.414 244.62 363.154 243.48 361.234 243.48C359.674 243.48 358.454 244.28 358.034 245.52H356.854C357.354 243.6 359.014 242.4 361.214 242.4C363.794 242.4 365.574 243.98 365.574 246.28V253H364.614L364.494 251.22C363.594 252.46 362.074 253.16 360.234 253.16ZM357.494 250.06C357.494 251.32 358.554 252.12 360.274 252.12C362.674 252.12 364.434 250.62 364.434 248.54V248.1H359.894C358.474 248.1 357.494 248.88 357.494 250.06ZM374.014 257.26C371.474 257.26 369.594 255.92 369.194 253.82H370.374C370.714 255.26 372.114 256.16 374.014 256.16C376.394 256.16 377.914 254.76 377.914 252.54V250.86C376.994 252.12 375.514 252.88 373.754 252.88C370.734 252.88 368.574 250.68 368.574 247.64C368.574 244.6 370.734 242.4 373.754 242.4C375.574 242.4 377.074 243.2 377.994 244.52L378.094 242.66H379.074V252.58C379.074 255.36 377.034 257.26 374.014 257.26ZM369.734 247.64C369.734 250.06 371.434 251.74 373.874 251.74C376.294 251.74 377.994 250.06 377.994 247.64C377.994 245.22 376.294 243.52 373.874 243.52C371.434 243.52 369.734 245.22 369.734 247.64ZM387.565 253.26C384.425 253.26 382.285 251.04 382.285 247.82C382.285 244.62 384.445 242.4 387.585 242.4C390.845 242.4 392.945 244.8 392.865 248.3H383.465C383.665 250.64 385.265 252.16 387.565 252.16C389.245 252.16 390.585 251.38 391.265 250.04L392.565 250.06C391.765 252.04 389.885 253.26 387.565 253.26ZM383.465 247.28H391.725C391.445 244.94 389.845 243.5 387.585 243.5C385.285 243.5 383.665 245 383.465 247.28ZM396.037 253V242.66H397.017L397.117 244.34C397.837 243.08 399.097 242.4 400.697 242.4C402.497 242.4 403.877 243.3 404.477 244.88C405.177 243.3 406.597 242.4 408.417 242.4C411.017 242.4 412.697 244.18 412.697 247.06V253H411.537V247.24C411.537 244.94 410.257 243.52 408.277 243.52C406.257 243.52 404.937 244.98 404.937 247.32V253H403.777V247.24C403.777 244.94 402.517 243.52 400.537 243.52C398.517 243.52 397.197 244.98 397.197 247.32V253H396.037ZM420.963 253.26C417.823 253.26 415.683 251.04 415.683 247.82C415.683 244.62 417.843 242.4 420.983 242.4C424.243 242.4 426.343 244.8 426.263 248.3H416.863C417.063 250.64 418.663 252.16 420.963 252.16C422.643 252.16 423.983 251.38 424.663 250.04L425.963 250.06C425.163 252.04 423.283 253.26 420.963 253.26ZM416.863 247.28H425.123C424.843 244.94 423.243 243.5 420.983 243.5C418.683 243.5 417.063 245 416.863 247.28ZM429.435 253V242.66H430.415L430.515 244.66C431.335 243.18 432.775 242.4 434.435 242.4C437.135 242.4 438.795 244.3 438.795 247.28V253H437.635V247.38C437.635 245 436.355 243.52 434.295 243.52C432.115 243.52 430.595 245.18 430.595 247.64V253H429.435ZM446.565 253C444.365 253 443.185 251.76 443.185 249.42V243.72H440.925V242.66H442.245C443.025 242.66 443.245 242.46 443.325 241.7L443.425 240.12H444.345V242.66H447.925V243.72H444.345V249.38C444.345 251.08 445.045 251.88 446.605 251.88H448.065V253H446.565ZM453.742 248.64C453.742 247.26 454.302 246.38 455.802 245.46C457.282 244.52 457.802 243.76 457.802 242.56C457.802 240.9 456.642 239.9 454.662 239.9C452.702 239.9 451.422 240.92 451.322 242.64H450.142C450.282 240.22 451.982 238.74 454.622 238.74C457.242 238.74 458.982 240.24 458.982 242.52C458.982 244.04 458.222 245.24 456.442 246.36C455.242 247.1 454.922 247.64 454.922 248.72V249.16H453.742V248.64ZM453.262 252.08C453.262 251.46 453.702 251.04 454.342 251.04C454.962 251.04 455.402 251.46 455.402 252.08C455.402 252.7 454.962 253.12 454.342 253.12C453.702 253.12 453.262 252.7 453.262 252.08Z" fill="black"/>
<path d="M657.06 239L652.48 225H653.76L655.84 231.38L657.68 237.1L659.78 231.38L662.1 225H663.26L667.7 237.12L669.56 231.38L671.62 225H672.9L668.3 239H667.16L662.68 226.84L660.2 233.6L658.22 239H657.06ZM678.733 239.26C675.593 239.26 673.453 237.04 673.453 233.82C673.453 230.62 675.613 228.4 678.753 228.4C682.013 228.4 684.113 230.8 684.033 234.3H674.633C674.833 236.64 676.433 238.16 678.733 238.16C680.413 238.16 681.753 237.38 682.433 236.04L683.733 236.06C682.933 238.04 681.053 239.26 678.733 239.26ZM674.633 233.28H682.893C682.613 230.94 681.013 229.5 678.753 229.5C676.453 229.5 674.833 231 674.633 233.28ZM687.205 239V224.2H688.365V239H687.205ZM696.858 239.26C693.758 239.26 691.578 237 691.578 233.82C691.578 230.64 693.758 228.4 696.858 228.4C699.318 228.4 701.338 229.86 701.938 232.1H700.758C700.078 230.46 698.638 229.52 696.858 229.52C694.418 229.52 692.738 231.28 692.738 233.82C692.738 236.38 694.418 238.14 696.858 238.14C698.758 238.14 700.238 237.08 700.818 235.38H702.038C701.338 237.8 699.398 239.26 696.858 239.26ZM705.193 239V224.2H706.353V230.54C707.173 229.12 708.613 228.4 710.233 228.4C712.913 228.4 714.553 230.26 714.553 233.24V239H713.393V233.34C713.393 230.96 712.133 229.52 710.073 229.52C707.893 229.52 706.353 231.14 706.353 233.62V239H705.193ZM722.835 239.26C719.695 239.26 717.555 237.04 717.555 233.82C717.555 230.62 719.715 228.4 722.855 228.4C726.115 228.4 728.215 230.8 728.135 234.3H718.735C718.935 236.64 720.535 238.16 722.835 238.16C724.515 238.16 725.855 237.38 726.535 236.04L727.835 236.06C727.035 238.04 725.155 239.26 722.835 239.26ZM718.735 233.28H726.995C726.715 230.94 725.115 229.5 722.855 229.5C720.555 229.5 718.935 231 718.735 233.28ZM736.389 239V225H737.529L743.349 233.76L749.169 225H750.289V239H749.089V227.24L743.849 235.1H742.849L737.609 227.24V239H736.389ZM758.987 239.26C755.847 239.26 753.707 237.04 753.707 233.82C753.707 230.62 755.867 228.4 759.007 228.4C762.267 228.4 764.367 230.8 764.287 234.3H754.887C755.087 236.64 756.687 238.16 758.987 238.16C760.667 238.16 762.007 237.38 762.687 236.04L763.987 236.06C763.187 238.04 761.307 239.26 758.987 239.26ZM754.887 233.28H763.147C762.867 230.94 761.267 229.5 759.007 229.5C756.707 229.5 755.087 231 754.887 233.28ZM771.326 239C769.126 239 767.946 237.76 767.946 235.42V229.72H765.686V228.66H767.006C767.786 228.66 768.006 228.46 768.086 227.7L768.186 226.12H769.106V228.66H772.686V229.72H769.106V235.38C769.106 237.08 769.806 237.88 771.366 237.88H772.826V239H771.326ZM775.935 239V224.2H777.095V230.54C777.915 229.12 779.355 228.4 780.975 228.4C783.655 228.4 785.295 230.26 785.295 233.24V239H784.135V233.34C784.135 230.96 782.875 229.52 780.815 229.52C778.635 229.52 777.095 231.14 777.095 233.62V239H775.935ZM793.737 239.26C790.537 239.26 788.297 237.02 788.297 233.82C788.297 230.64 790.537 228.4 793.737 228.4C796.917 228.4 799.157 230.64 799.157 233.82C799.157 237.02 796.917 239.26 793.737 239.26ZM789.457 233.82C789.457 236.38 791.197 238.14 793.737 238.14C796.257 238.14 797.997 236.38 797.997 233.82C797.997 231.28 796.257 229.52 793.737 229.52C791.197 229.52 789.457 231.28 789.457 233.82ZM806.78 239.26C803.66 239.26 801.48 236.96 801.48 233.82C801.48 230.68 803.66 228.4 806.78 228.4C808.68 228.4 810.22 229.24 811.14 230.58V224.2H812.3V239H811.34L811.2 236.96C810.3 238.38 808.72 239.26 806.78 239.26ZM802.64 233.82C802.64 236.36 804.38 238.14 806.92 238.14C809.44 238.14 811.18 236.36 811.18 233.82C811.18 231.3 809.44 229.52 806.92 229.52C804.38 229.52 802.64 231.3 802.64 233.82ZM820.803 239.26C817.663 239.26 815.523 237.04 815.523 233.82C815.523 230.62 817.683 228.4 820.823 228.4C824.083 228.4 826.183 230.8 826.103 234.3H816.703C816.903 236.64 818.503 238.16 820.803 238.16C822.483 238.16 823.823 237.38 824.503 236.04L825.803 236.06C825.003 238.04 823.123 239.26 820.803 239.26ZM816.703 233.28H824.963C824.683 230.94 823.083 229.5 820.823 229.5C818.523 229.5 816.903 231 816.703 233.28ZM829.275 239V228.66H830.255L830.355 230.66C831.175 229.18 832.615 228.4 834.275 228.4C836.975 228.4 838.635 230.3 838.635 233.28V239H837.475V233.38C837.475 231 836.195 229.52 834.135 229.52C831.955 229.52 830.435 231.18 830.435 233.64V239H829.275ZM851.959 243.26C849.419 243.26 847.539 241.92 847.139 239.82H848.319C848.659 241.26 850.059 242.16 851.959 242.16C854.339 242.16 855.859 240.76 855.859 238.54V236.86C854.939 238.12 853.459 238.88 851.699 238.88C848.679 238.88 846.519 236.68 846.519 233.64C846.519 230.6 848.679 228.4 851.699 228.4C853.519 228.4 855.019 229.2 855.939 230.52L856.039 228.66H857.019V238.58C857.019 241.36 854.979 243.26 851.959 243.26ZM847.679 233.64C847.679 236.06 849.379 237.74 851.819 237.74C854.239 237.74 855.939 236.06 855.939 233.64C855.939 231.22 854.239 229.52 851.819 229.52C849.379 229.52 847.679 231.22 847.679 233.64ZM861.13 239V228.66H862.29V239H861.13ZM860.65 225.72C860.65 225.14 861.07 224.68 861.71 224.68C862.35 224.68 862.77 225.14 862.77 225.72C862.77 226.32 862.35 226.78 861.71 226.78C861.07 226.78 860.65 226.32 860.65 225.72ZM871.924 239.26C869.984 239.26 868.404 238.36 867.504 236.94L867.384 239H866.404V224.2H867.564V230.62C868.484 229.24 870.024 228.4 871.924 228.4C875.064 228.4 877.224 230.68 877.224 233.82C877.224 236.96 875.064 239.26 871.924 239.26ZM867.524 233.82C867.524 236.36 869.264 238.14 871.804 238.14C874.344 238.14 876.064 236.36 876.064 233.82C876.064 231.3 874.344 229.52 871.804 229.52C869.264 229.52 867.524 231.3 867.524 233.82ZM884.315 239C882.115 239 880.935 237.76 880.935 235.42V229.72H878.675V228.66H879.995C880.775 228.66 880.995 228.46 881.075 227.7L881.175 226.12H882.095V228.66H885.675V229.72H882.095V235.38C882.095 237.08 882.795 237.88 884.355 237.88H885.815V239H884.315ZM898.186 239.26C895.046 239.26 892.906 237.04 892.906 233.82C892.906 230.62 895.066 228.4 898.206 228.4C901.466 228.4 903.566 230.8 903.486 234.3H894.086C894.286 236.64 895.886 238.16 898.186 238.16C899.866 238.16 901.206 237.38 901.886 236.04L903.186 236.06C902.386 238.04 900.506 239.26 898.186 239.26ZM894.086 233.28H902.346C902.066 230.94 900.466 229.5 898.206 229.5C895.906 229.5 894.286 231 894.086 233.28ZM910.218 239.26C907.598 239.26 905.938 237.94 905.858 235.88H906.998C907.118 237.34 908.258 238.2 910.238 238.2C912.058 238.2 913.158 237.5 913.158 236.36C913.158 235.28 912.178 234.62 909.978 234.24C907.278 233.78 906.058 232.82 906.058 231.24C906.058 229.48 907.558 228.4 909.978 228.4C912.418 228.4 913.958 229.56 914.118 231.54H912.958C912.838 230.18 911.778 229.44 909.978 229.44C908.258 229.44 907.218 230.14 907.218 231.26C907.218 232.28 908.078 232.84 910.378 233.28C912.998 233.78 914.298 234.82 914.298 236.38C914.298 238.12 912.718 239.26 910.218 239.26ZM922.576 239V224.2H923.736V230.54C924.556 229.12 925.996 228.4 927.616 228.4C930.296 228.4 931.936 230.26 931.936 233.24V239H930.776V233.34C930.776 230.96 929.516 229.52 927.456 229.52C925.276 229.52 923.736 231.14 923.736 233.62V239H922.576ZM940.217 239.26C937.077 239.26 934.937 237.04 934.937 233.82C934.937 230.62 937.097 228.4 940.237 228.4C943.497 228.4 945.597 230.8 945.517 234.3H936.117C936.317 236.64 937.917 238.16 940.217 238.16C941.897 238.16 943.237 237.38 943.917 236.04L945.217 236.06C944.417 238.04 942.537 239.26 940.217 239.26ZM936.117 233.28H944.377C944.097 230.94 942.497 229.5 940.237 229.5C937.937 229.5 936.317 231 936.117 233.28ZM952.769 239.26C950.109 239.26 948.469 237.36 948.469 234.38V228.66H949.629V234.28C949.629 236.64 950.889 238.14 952.929 238.14C955.069 238.14 956.549 236.46 956.549 234V228.66H957.709V239H956.749L956.629 236.98C955.829 238.48 954.389 239.26 952.769 239.26ZM966.033 239C963.833 239 962.653 237.76 962.653 235.42V229.72H960.393V228.66H961.713C962.493 228.66 962.713 228.46 962.793 227.7L962.893 226.12H963.813V228.66H967.393V229.72H963.813V235.38C963.813 237.08 964.513 237.88 966.073 237.88H967.533V239H966.033ZM974.514 239.26C971.374 239.26 969.234 237.04 969.234 233.82C969.234 230.62 971.394 228.4 974.534 228.4C977.794 228.4 979.894 230.8 979.814 234.3H970.414C970.614 236.64 972.214 238.16 974.514 238.16C976.194 238.16 977.534 237.38 978.214 236.04L979.514 236.06C978.714 238.04 976.834 239.26 974.514 239.26ZM970.414 233.28H978.674C978.394 230.94 976.794 229.5 974.534 229.5C972.234 229.5 970.614 231 970.414 233.28ZM655.06 256.46C655.06 254.1 656.22 252.94 658.52 252.94H660.14V254.04H658.62C656.94 254.04 656.22 254.78 656.22 256.54V257.66H660.04V258.72H656.22V268H655.06V258.72H652.7V257.66H655.06V256.46ZM666.48 268.26C663.82 268.26 662.18 266.36 662.18 263.38V257.66H663.34V263.28C663.34 265.64 664.6 267.14 666.64 267.14C668.78 267.14 670.26 265.46 670.26 263V257.66H671.42V268H670.46L670.34 265.98C669.54 267.48 668.1 268.26 666.48 268.26ZM663.84 254.72C663.84 254.14 664.24 253.72 664.86 253.72C665.46 253.72 665.88 254.14 665.88 254.72C665.88 255.32 665.46 255.74 664.86 255.74C664.24 255.74 663.84 255.32 663.84 254.72ZM667.72 254.72C667.72 254.14 668.14 253.72 668.74 253.72C669.34 253.72 669.76 254.14 669.76 254.72C669.76 255.32 669.34 255.74 668.74 255.74C668.14 255.74 667.72 255.32 667.72 254.72ZM675.544 268V257.66H676.524L676.644 259.98C677.344 258.42 678.524 257.66 680.444 257.66H681.304V258.74H680.404C678.184 258.74 676.704 260.1 676.704 263.24V268H675.544ZM693.167 268.26C690.047 268.26 687.867 265.96 687.867 262.82C687.867 259.68 690.047 257.4 693.167 257.4C695.067 257.4 696.607 258.24 697.527 259.58V253.2H698.687V268H697.727L697.587 265.96C696.687 267.38 695.107 268.26 693.167 268.26ZM689.027 262.82C689.027 265.36 690.767 267.14 693.307 267.14C695.827 267.14 697.567 265.36 697.567 262.82C697.567 260.3 695.827 258.52 693.307 258.52C690.767 258.52 689.027 260.3 689.027 262.82ZM706.05 268.16C703.65 268.16 702.15 266.98 702.15 265.08C702.15 263.24 703.55 262.08 705.67 262.08H710.23V261.34C710.23 259.62 708.97 258.48 707.05 258.48C705.49 258.48 704.27 259.28 703.85 260.52H702.67C703.17 258.6 704.83 257.4 707.03 257.4C709.61 257.4 711.39 258.98 711.39 261.28V268H710.43L710.31 266.22C709.41 267.46 707.89 268.16 706.05 268.16ZM703.31 265.06C703.31 266.32 704.37 267.12 706.09 267.12C708.49 267.12 710.25 265.62 710.25 263.54V263.1H705.71C704.29 263.1 703.31 263.88 703.31 265.06ZM718.85 268.26C716.23 268.26 714.57 266.94 714.49 264.88H715.63C715.75 266.34 716.89 267.2 718.87 267.2C720.69 267.2 721.79 266.5 721.79 265.36C721.79 264.28 720.81 263.62 718.61 263.24C715.91 262.78 714.69 261.82 714.69 260.24C714.69 258.48 716.19 257.4 718.61 257.4C721.05 257.4 722.59 258.56 722.75 260.54H721.59C721.47 259.18 720.41 258.44 718.61 258.44C716.89 258.44 715.85 259.14 715.85 260.26C715.85 261.28 716.71 261.84 719.01 262.28C721.63 262.78 722.93 263.82 722.93 265.38C722.93 267.12 721.35 268.26 718.85 268.26ZM729.159 268L734.959 254H736.119L741.919 268H740.639L739.179 264.48H731.899L730.459 268H729.159ZM732.379 263.36H738.719L735.539 255.66L732.379 263.36ZM748.003 268.26C745.343 268.26 743.703 266.36 743.703 263.38V257.66H744.863V263.28C744.863 265.64 746.123 267.14 748.163 267.14C750.303 267.14 751.783 265.46 751.783 263V257.66H752.943V268H751.983L751.863 265.98C751.063 267.48 749.623 268.26 748.003 268.26ZM758.068 256.46C758.068 254.1 759.228 252.94 761.528 252.94H763.148V254.04H761.628C759.948 254.04 759.228 254.78 759.228 256.54V257.66H763.048V258.72H759.228V268H758.068V258.72H755.708V257.66H758.068V256.46ZM769.616 272.26C767.076 272.26 765.196 270.92 764.796 268.82H765.976C766.316 270.26 767.716 271.16 769.616 271.16C771.996 271.16 773.516 269.76 773.516 267.54V265.86C772.596 267.12 771.116 267.88 769.356 267.88C766.336 267.88 764.176 265.68 764.176 262.64C764.176 259.6 766.336 257.4 769.356 257.4C771.176 257.4 772.676 258.2 773.596 259.52L773.696 257.66H774.676V267.58C774.676 270.36 772.636 272.26 769.616 272.26ZM765.336 262.64C765.336 265.06 767.036 266.74 769.476 266.74C771.896 266.74 773.596 265.06 773.596 262.64C773.596 260.22 771.896 258.52 769.476 258.52C767.036 258.52 765.336 260.22 765.336 262.64ZM782.027 268.16C779.627 268.16 778.127 266.98 778.127 265.08C778.127 263.24 779.527 262.08 781.647 262.08H786.207V261.34C786.207 259.62 784.947 258.48 783.027 258.48C781.467 258.48 780.247 259.28 779.827 260.52H778.647C779.147 258.6 780.807 257.4 783.007 257.4C785.587 257.4 787.367 258.98 787.367 261.28V268H786.407L786.287 266.22C785.387 267.46 783.867 268.16 782.027 268.16ZM779.287 265.06C779.287 266.32 780.347 267.12 782.067 267.12C784.467 267.12 786.227 265.62 786.227 263.54V263.1H781.687C780.267 263.1 779.287 263.88 779.287 265.06ZM796.787 268.26C794.847 268.26 793.267 267.36 792.367 265.94L792.247 268H791.267V253.2H792.427V259.62C793.347 258.24 794.887 257.4 796.787 257.4C799.927 257.4 802.087 259.68 802.087 262.82C802.087 265.96 799.927 268.26 796.787 268.26ZM792.387 262.82C792.387 265.36 794.127 267.14 796.667 267.14C799.207 267.14 800.927 265.36 800.927 262.82C800.927 260.3 799.207 258.52 796.667 258.52C794.127 258.52 792.387 260.3 792.387 262.82ZM809.69 268.26C806.55 268.26 804.41 266.04 804.41 262.82C804.41 259.62 806.57 257.4 809.71 257.4C812.97 257.4 815.07 259.8 814.99 263.3H805.59C805.79 265.64 807.39 267.16 809.69 267.16C811.37 267.16 812.71 266.38 813.39 265.04L814.69 265.06C813.89 267.04 812.01 268.26 809.69 268.26ZM805.59 262.28H813.85C813.57 259.94 811.97 258.5 809.71 258.5C807.41 258.5 805.79 260 805.59 262.28ZM818.162 268V257.66H819.142L819.242 259.66C820.062 258.18 821.502 257.4 823.162 257.4C825.862 257.4 827.522 259.3 827.522 262.28V268H826.362V262.38C826.362 260 825.082 258.52 823.022 258.52C820.842 258.52 819.322 260.18 819.322 262.64V268H818.162ZM831.423 268V257.66H832.403L832.503 259.34C833.223 258.08 834.483 257.4 836.083 257.4C837.883 257.4 839.263 258.3 839.863 259.88C840.563 258.3 841.983 257.4 843.803 257.4C846.403 257.4 848.083 259.18 848.083 262.06V268H846.923V262.24C846.923 259.94 845.643 258.52 843.663 258.52C841.643 258.52 840.323 259.98 840.323 262.32V268H839.163V262.24C839.163 259.94 837.903 258.52 835.923 258.52C833.903 258.52 832.583 259.98 832.583 262.32V268H831.423ZM855.21 268.16C852.81 268.16 851.31 266.98 851.31 265.08C851.31 263.24 852.71 262.08 854.83 262.08H859.39V261.34C859.39 259.62 858.13 258.48 856.21 258.48C854.65 258.48 853.43 259.28 853.01 260.52H851.83C852.33 258.6 853.99 257.4 856.19 257.4C858.77 257.4 860.55 258.98 860.55 261.28V268H859.59L859.47 266.22C858.57 267.46 857.05 268.16 855.21 268.16ZM852.47 265.06C852.47 266.32 853.53 267.12 855.25 267.12C857.65 267.12 859.41 265.62 859.41 263.54V263.1H854.87C853.45 263.1 852.47 263.88 852.47 265.06ZM864.451 268V257.66H865.431L865.531 259.66C866.351 258.18 867.791 257.4 869.451 257.4C872.151 257.4 873.811 259.3 873.811 262.28V268H872.651V262.38C872.651 260 871.371 258.52 869.311 258.52C867.131 258.52 865.611 260.18 865.611 262.64V268H864.451ZM880.952 268.16C878.552 268.16 877.052 266.98 877.052 265.08C877.052 263.24 878.452 262.08 880.572 262.08H885.132V261.34C885.132 259.62 883.872 258.48 881.952 258.48C880.392 258.48 879.172 259.28 878.752 260.52H877.572C878.072 258.6 879.732 257.4 881.932 257.4C884.512 257.4 886.292 258.98 886.292 261.28V268H885.332L885.212 266.22C884.312 267.46 882.792 268.16 880.952 268.16ZM878.212 265.06C878.212 266.32 879.272 267.12 880.992 267.12C883.392 267.12 885.152 265.62 885.152 263.54V263.1H880.612C879.192 263.1 878.212 263.88 878.212 265.06ZM894.733 272.26C892.193 272.26 890.313 270.92 889.913 268.82H891.093C891.433 270.26 892.833 271.16 894.733 271.16C897.113 271.16 898.633 269.76 898.633 267.54V265.86C897.713 267.12 896.233 267.88 894.473 267.88C891.453 267.88 889.293 265.68 889.293 262.64C889.293 259.6 891.453 257.4 894.473 257.4C896.293 257.4 897.793 258.2 898.713 259.52L898.813 257.66H899.793V267.58C899.793 270.36 897.753 272.26 894.733 272.26ZM890.453 262.64C890.453 265.06 892.153 266.74 894.593 266.74C897.013 266.74 898.713 265.06 898.713 262.64C898.713 260.22 897.013 258.52 894.593 258.52C892.153 258.52 890.453 260.22 890.453 262.64ZM908.284 268.26C905.144 268.26 903.004 266.04 903.004 262.82C903.004 259.62 905.164 257.4 908.304 257.4C911.564 257.4 913.664 259.8 913.584 263.3H904.184C904.384 265.64 905.984 267.16 908.284 267.16C909.964 267.16 911.304 266.38 911.984 265.04L913.284 265.06C912.484 267.04 910.604 268.26 908.284 268.26ZM904.184 262.28H912.444C912.164 259.94 910.564 258.5 908.304 258.5C906.004 258.5 904.384 260 904.184 262.28ZM916.755 268V257.66H917.735L917.835 259.34C918.555 258.08 919.815 257.4 921.415 257.4C923.215 257.4 924.595 258.3 925.195 259.88C925.895 258.3 927.315 257.4 929.135 257.4C931.735 257.4 933.415 259.18 933.415 262.06V268H932.255V262.24C932.255 259.94 930.975 258.52 928.995 258.52C926.975 258.52 925.655 259.98 925.655 262.32V268H924.495V262.24C924.495 259.94 923.235 258.52 921.255 258.52C919.235 258.52 917.915 259.98 917.915 262.32V268H916.755ZM941.682 268.26C938.542 268.26 936.402 266.04 936.402 262.82C936.402 259.62 938.562 257.4 941.702 257.4C944.962 257.4 947.062 259.8 946.982 263.3H937.582C937.782 265.64 939.382 267.16 941.682 267.16C943.362 267.16 944.702 266.38 945.382 265.04L946.682 265.06C945.882 267.04 944.002 268.26 941.682 268.26ZM937.582 262.28H945.842C945.562 259.94 943.962 258.5 941.702 258.5C939.402 258.5 937.782 260 937.582 262.28ZM950.154 268V257.66H951.134L951.234 259.66C952.054 258.18 953.494 257.4 955.154 257.4C957.854 257.4 959.514 259.3 959.514 262.28V268H958.354V262.38C958.354 260 957.074 258.52 955.014 258.52C952.834 258.52 951.314 260.18 951.314 262.64V268H950.154ZM967.283 268C965.083 268 963.903 266.76 963.903 264.42V258.72H961.643V257.66H962.963C963.743 257.66 963.963 257.46 964.043 256.7L964.143 255.12H965.063V257.66H968.643V258.72H965.063V264.38C965.063 266.08 965.763 266.88 967.323 266.88H968.783V268H967.283ZM974.461 263.64C974.461 262.26 975.021 261.38 976.521 260.46C978.001 259.52 978.521 258.76 978.521 257.56C978.521 255.9 977.361 254.9 975.381 254.9C973.421 254.9 972.141 255.92 972.041 257.64H970.861C971.001 255.22 972.701 253.74 975.341 253.74C977.961 253.74 979.701 255.24 979.701 257.52C979.701 259.04 978.941 260.24 977.161 261.36C975.961 262.1 975.641 262.64 975.641 263.72V264.16H974.461V263.64ZM973.981 267.08C973.981 266.46 974.421 266.04 975.061 266.04C975.681 266.04 976.121 266.46 976.121 267.08C976.121 267.7 975.681 268.12 975.061 268.12C974.421 268.12 973.981 267.7 973.981 267.08Z" fill="black"/>
<path d="M747.06 87L742.48 73H743.76L745.84 79.38L747.68 85.1L749.78 79.38L752.1 73H753.26L757.7 85.12L759.56 79.38L761.62 73H762.9L758.3 87H757.16L752.68 74.84L750.2 81.6L748.22 87H747.06ZM764.841 87V76.66H766.001V87H764.841ZM764.361 73.72C764.361 73.14 764.781 72.68 765.421 72.68C766.061 72.68 766.481 73.14 766.481 73.72C766.481 74.32 766.061 74.78 765.421 74.78C764.781 74.78 764.361 74.32 764.361 73.72ZM774.495 87.26C771.355 87.26 769.215 85.04 769.215 81.82C769.215 78.62 771.375 76.4 774.515 76.4C777.775 76.4 779.875 78.8 779.795 82.3H770.395C770.595 84.64 772.195 86.16 774.495 86.16C776.175 86.16 777.515 85.38 778.195 84.04L779.495 84.06C778.695 86.04 776.815 87.26 774.495 87.26ZM770.395 81.28H778.655C778.375 78.94 776.775 77.5 774.515 77.5C772.215 77.5 770.595 79 770.395 81.28ZM795.748 87V77.72H789.228V87H788.068V77.72H785.708V76.66H788.068V75.46C788.068 73.12 789.248 71.94 791.588 71.94H793.088V73.04H791.688C789.968 73.04 789.228 73.78 789.228 75.54V76.66H796.908V87H795.748ZM795.248 73.72C795.248 73.14 795.688 72.68 796.328 72.68C796.948 72.68 797.388 73.14 797.388 73.72C797.388 74.32 796.948 74.78 796.328 74.78C795.688 74.78 795.248 74.32 795.248 73.72ZM801.033 87V76.66H802.013L802.113 78.66C802.933 77.18 804.373 76.4 806.033 76.4C808.733 76.4 810.393 78.3 810.393 81.28V87H809.233V81.38C809.233 79 807.953 77.52 805.893 77.52C803.713 77.52 802.193 79.18 802.193 81.64V87H801.033ZM818.694 87.26C815.574 87.26 813.394 84.96 813.394 81.82C813.394 78.68 815.574 76.4 818.694 76.4C820.594 76.4 822.134 77.24 823.054 78.58V72.2H824.214V87H823.254L823.114 84.96C822.214 86.38 820.634 87.26 818.694 87.26ZM814.554 81.82C814.554 84.36 816.294 86.14 818.834 86.14C821.354 86.14 823.094 84.36 823.094 81.82C823.094 79.3 821.354 77.52 818.834 77.52C816.294 77.52 814.554 79.3 814.554 81.82ZM832.717 87.26C829.577 87.26 827.437 85.04 827.437 81.82C827.437 78.62 829.597 76.4 832.737 76.4C835.997 76.4 838.097 78.8 838.017 82.3H828.617C828.817 84.64 830.417 86.16 832.717 86.16C834.397 86.16 835.737 85.38 836.417 84.04L837.717 84.06C836.917 86.04 835.037 87.26 832.717 87.26ZM828.617 81.28H836.877C836.597 78.94 834.997 77.5 832.737 77.5C830.437 77.5 828.817 79 828.617 81.28ZM841.189 87V76.66H842.169L842.269 78.66C843.089 77.18 844.529 76.4 846.189 76.4C848.889 76.4 850.549 78.3 850.549 81.28V87H849.389V81.38C849.389 79 848.109 77.52 846.049 77.52C843.869 77.52 842.349 79.18 842.349 81.64V87H841.189ZM861.433 87L857.713 76.66H858.953L862.013 85.26L863.473 81.5L865.333 76.66H866.413L868.293 81.5L869.753 85.26L872.833 76.66H874.053L870.313 87H869.193L867.413 82.38L865.873 78.36L862.553 87H861.433ZM876.56 87V76.66H877.72V87H876.56ZM876.08 73.72C876.08 73.14 876.5 72.68 877.14 72.68C877.78 72.68 878.2 73.14 878.2 73.72C878.2 74.32 877.78 74.78 877.14 74.78C876.5 74.78 876.08 74.32 876.08 73.72ZM881.833 87V76.66H882.813L882.933 78.98C883.633 77.42 884.813 76.66 886.733 76.66H887.593V77.74H886.693C884.473 77.74 882.993 79.1 882.993 82.24V87H881.833ZM895.525 87V72.2H896.685V78.54C897.505 77.12 898.945 76.4 900.565 76.4C903.245 76.4 904.885 78.26 904.885 81.24V87H903.725V81.34C903.725 78.96 902.465 77.52 900.405 77.52C898.225 77.52 896.685 79.14 896.685 81.62V87H895.525ZM913.167 87.26C910.027 87.26 907.887 85.04 907.887 81.82C907.887 78.62 910.047 76.4 913.187 76.4C916.447 76.4 918.547 78.8 918.467 82.3H909.067C909.267 84.64 910.867 86.16 913.167 86.16C914.847 86.16 916.187 85.38 916.867 84.04L918.167 84.06C917.367 86.04 915.487 87.26 913.167 87.26ZM909.067 81.28H917.327C917.047 78.94 915.447 77.5 913.187 77.5C910.887 77.5 909.267 79 909.067 81.28ZM921.638 87V76.66H922.618L922.738 78.98C923.438 77.42 924.618 76.66 926.538 76.66H927.398V77.74H926.498C924.278 77.74 922.798 79.1 922.798 82.24V87H921.638ZM932.71 87.16C930.31 87.16 928.81 85.98 928.81 84.08C928.81 82.24 930.21 81.08 932.33 81.08H936.89V80.34C936.89 78.62 935.63 77.48 933.71 77.48C932.15 77.48 930.93 78.28 930.51 79.52H929.33C929.83 77.6 931.49 76.4 933.69 76.4C936.27 76.4 938.05 77.98 938.05 80.28V87H937.09L936.97 85.22C936.07 86.46 934.55 87.16 932.71 87.16ZM929.97 84.06C929.97 85.32 931.03 86.12 932.75 86.12C935.15 86.12 936.91 84.62 936.91 82.54V82.1H932.37C930.95 82.1 929.97 82.88 929.97 84.06ZM946.031 87.26C943.371 87.26 941.731 85.36 941.731 82.38V76.66H942.891V82.28C942.891 84.64 944.151 86.14 946.191 86.14C948.331 86.14 949.811 84.46 949.811 82V76.66H950.971V87H950.011L949.891 84.98C949.091 86.48 947.651 87.26 946.031 87.26ZM958.655 87.26C956.035 87.26 954.375 85.94 954.295 83.88H955.435C955.555 85.34 956.695 86.2 958.675 86.2C960.495 86.2 961.595 85.5 961.595 84.36C961.595 83.28 960.615 82.62 958.415 82.24C955.715 81.78 954.495 80.82 954.495 79.24C954.495 77.48 955.995 76.4 958.415 76.4C960.855 76.4 962.395 77.56 962.555 79.54H961.395C961.275 78.18 960.215 77.44 958.415 77.44C956.695 77.44 955.655 78.14 955.655 79.26C955.655 80.28 956.515 80.84 958.815 81.28C961.435 81.78 962.735 82.82 962.735 84.38C962.735 86.12 961.155 87.26 958.655 87.26ZM965.56 88.92C966.24 88.6 966.64 87.84 966.58 86.98C966.4 87.06 966.22 87.1 966.04 87.1C965.46 87.1 965.02 86.66 965.02 86.08C965.02 85.5 965.46 85.04 966.12 85.04C966.94 85.04 967.5 85.72 967.5 86.78C967.5 88.22 966.66 89.46 965.56 89.7V88.92ZM977.898 87L974.178 76.66H975.418L978.478 85.26L979.938 81.5L981.798 76.66H982.878L984.758 81.5L986.218 85.26L989.298 76.66H990.518L986.778 87H985.658L983.878 82.38L982.338 78.36L979.018 87H977.898ZM995.718 87.16C993.318 87.16 991.818 85.98 991.818 84.08C991.818 82.24 993.218 81.08 995.338 81.08H999.898V80.34C999.898 78.62 998.638 77.48 996.718 77.48C995.158 77.48 993.938 78.28 993.518 79.52H992.338C992.838 77.6 994.498 76.4 996.698 76.4C999.278 76.4 1001.06 77.98 1001.06 80.28V87H1000.1L999.978 85.22C999.078 86.46 997.558 87.16 995.718 87.16ZM992.978 84.06C992.978 85.32 994.038 86.12 995.758 86.12C998.158 86.12 999.918 84.62 999.918 82.54V82.1H995.378C993.958 82.1 992.978 82.88 992.978 84.06ZM1008.52 87.26C1005.9 87.26 1004.24 85.94 1004.16 83.88H1005.3C1005.42 85.34 1006.56 86.2 1008.54 86.2C1010.36 86.2 1011.46 85.5 1011.46 84.36C1011.46 83.28 1010.48 82.62 1008.28 82.24C1005.58 81.78 1004.36 80.82 1004.36 79.24C1004.36 77.48 1005.86 76.4 1008.28 76.4C1010.72 76.4 1012.26 77.56 1012.42 79.54H1011.26C1011.14 78.18 1010.08 77.44 1008.28 77.44C1006.56 77.44 1005.52 78.14 1005.52 79.26C1005.52 80.28 1006.38 80.84 1008.68 81.28C1011.3 81.78 1012.6 82.82 1012.6 84.38C1012.6 86.12 1011.02 87.26 1008.52 87.26ZM1021.1 75.46C1021.1 73.1 1022.26 71.94 1024.56 71.94H1026.18V73.04H1024.66C1022.98 73.04 1022.26 73.78 1022.26 75.54V76.66H1026.08V77.72H1022.26V87H1021.1V77.72H1018.74V76.66H1021.1V75.46ZM1032.52 87.26C1029.86 87.26 1028.22 85.36 1028.22 82.38V76.66H1029.38V82.28C1029.38 84.64 1030.64 86.14 1032.68 86.14C1034.82 86.14 1036.3 84.46 1036.3 82V76.66H1037.46V87H1036.5L1036.38 84.98C1035.58 86.48 1034.14 87.26 1032.52 87.26ZM1029.88 73.72C1029.88 73.14 1030.28 72.72 1030.9 72.72C1031.5 72.72 1031.92 73.14 1031.92 73.72C1031.92 74.32 1031.5 74.74 1030.9 74.74C1030.28 74.74 1029.88 74.32 1029.88 73.72ZM1033.76 73.72C1033.76 73.14 1034.18 72.72 1034.78 72.72C1035.38 72.72 1035.8 73.14 1035.8 73.72C1035.8 74.32 1035.38 74.74 1034.78 74.74C1034.18 74.74 1033.76 74.32 1033.76 73.72ZM1041.58 87V76.66H1042.56L1042.68 78.98C1043.38 77.42 1044.56 76.66 1046.48 76.66H1047.34V77.74H1046.44C1044.22 77.74 1042.74 79.1 1042.74 82.24V87H1041.58ZM1059.2 87.26C1056.08 87.26 1053.9 84.96 1053.9 81.82C1053.9 78.68 1056.08 76.4 1059.2 76.4C1061.1 76.4 1062.64 77.24 1063.56 78.58V72.2H1064.72V87H1063.76L1063.62 84.96C1062.72 86.38 1061.14 87.26 1059.2 87.26ZM1055.06 81.82C1055.06 84.36 1056.8 86.14 1059.34 86.14C1061.86 86.14 1063.6 84.36 1063.6 81.82C1063.6 79.3 1061.86 77.52 1059.34 77.52C1056.8 77.52 1055.06 79.3 1055.06 81.82ZM1073.23 87.26C1070.09 87.26 1067.95 85.04 1067.95 81.82C1067.95 78.62 1070.11 76.4 1073.25 76.4C1076.51 76.4 1078.61 78.8 1078.53 82.3H1069.13C1069.33 84.64 1070.93 86.16 1073.23 86.16C1074.91 86.16 1076.25 85.38 1076.93 84.04L1078.23 84.06C1077.43 86.04 1075.55 87.26 1073.23 87.26ZM1069.13 81.28H1077.39C1077.11 78.94 1075.51 77.5 1073.25 77.5C1070.95 77.5 1069.33 79 1069.13 81.28ZM1081.7 87V76.66H1082.68L1082.78 78.66C1083.6 77.18 1085.04 76.4 1086.7 76.4C1089.4 76.4 1091.06 78.3 1091.06 81.28V87H1089.9V81.38C1089.9 79 1088.62 77.52 1086.56 77.52C1084.38 77.52 1082.86 79.18 1082.86 81.64V87H1081.7ZM744.26 116V102H752.5V103.14H745.48V108.3H751.98V109.42H745.48V114.86H752.72V116H744.26ZM756.248 116V105.66H757.408V116H756.248ZM755.768 102.72C755.768 102.14 756.188 101.68 756.827 101.68C757.468 101.68 757.888 102.14 757.888 102.72C757.888 103.32 757.468 103.78 756.827 103.78C756.188 103.78 755.768 103.32 755.768 102.72ZM761.521 116V105.66H762.501L762.601 107.66C763.421 106.18 764.861 105.4 766.521 105.4C769.221 105.4 770.881 107.3 770.881 110.28V116H769.721V110.38C769.721 108 768.441 106.52 766.381 106.52C764.201 106.52 762.681 108.18 762.681 110.64V116H761.521ZM773.783 116V115.1L780.503 106.72H774.023V105.66H782.063V106.54L775.383 114.92H782.203V116H773.783ZM789.378 116.26C786.238 116.26 784.098 114.04 784.098 110.82C784.098 107.62 786.258 105.4 789.398 105.4C792.658 105.4 794.758 107.8 794.678 111.3H785.278C785.478 113.64 787.078 115.16 789.378 115.16C791.058 115.16 792.398 114.38 793.078 113.04L794.378 113.06C793.578 115.04 791.698 116.26 789.378 116.26ZM785.278 110.28H793.538C793.258 107.94 791.658 106.5 789.398 106.5C787.098 106.5 785.478 108 785.278 110.28ZM797.849 116V101.2H799.009V116H797.849ZM803.123 116V105.66H804.103L804.203 107.66C805.023 106.18 806.463 105.4 808.123 105.4C810.823 105.4 812.483 107.3 812.483 110.28V116H811.323V110.38C811.323 108 810.043 106.52 807.983 106.52C805.803 106.52 804.283 108.18 804.283 110.64V116H803.123ZM820.764 116.26C817.624 116.26 815.484 114.04 815.484 110.82C815.484 107.62 817.644 105.4 820.784 105.4C824.044 105.4 826.144 107.8 826.064 111.3H816.664C816.864 113.64 818.464 115.16 820.764 115.16C822.444 115.16 823.784 114.38 824.464 113.04L825.764 113.06C824.964 115.04 823.084 116.26 820.764 116.26ZM816.664 110.28H824.924C824.644 107.94 823.044 106.5 820.784 106.5C818.484 106.5 816.864 108 816.664 110.28ZM829.236 116V105.66H830.216L830.316 107.66C831.136 106.18 832.576 105.4 834.236 105.4C836.936 105.4 838.596 107.3 838.596 110.28V116H837.436V110.38C837.436 108 836.156 106.52 834.096 106.52C831.916 106.52 830.396 108.18 830.396 110.64V116H829.236ZM847.849 116V105.66H848.829L848.949 107.98C849.649 106.42 850.829 105.66 852.749 105.66H853.609V106.74H852.709C850.489 106.74 849.009 108.1 849.009 111.24V116H847.849ZM860.1 116.26C856.96 116.26 854.82 114.04 854.82 110.82C854.82 107.62 856.98 105.4 860.12 105.4C863.38 105.4 865.48 107.8 865.4 111.3H856C856.2 113.64 857.8 115.16 860.1 115.16C861.78 115.16 863.12 114.38 863.8 113.04L865.1 113.06C864.3 115.04 862.42 116.26 860.1 116.26ZM856 110.28H864.26C863.98 107.94 862.38 106.5 860.12 106.5C857.82 106.5 856.2 108 856 110.28ZM868.572 116V101.2H869.732V116H868.572ZM878.225 116.26C875.085 116.26 872.945 114.04 872.945 110.82C872.945 107.62 875.105 105.4 878.245 105.4C881.505 105.4 883.605 107.8 883.525 111.3H874.125C874.325 113.64 875.925 115.16 878.225 115.16C879.905 115.16 881.245 114.38 881.925 113.04L883.225 113.06C882.425 115.04 880.545 116.26 878.225 116.26ZM874.125 110.28H882.385C882.105 107.94 880.505 106.5 878.245 106.5C875.945 106.5 874.325 108 874.125 110.28ZM889.266 116L884.646 105.66H885.906L887.706 109.66L889.846 114.48L891.966 109.66L893.786 105.66H895.026L890.406 116H889.266ZM900.191 116.16C897.791 116.16 896.291 114.98 896.291 113.08C896.291 111.24 897.691 110.08 899.811 110.08H904.371V109.34C904.371 107.62 903.111 106.48 901.191 106.48C899.631 106.48 898.411 107.28 897.991 108.52H896.811C897.311 106.6 898.971 105.4 901.171 105.4C903.751 105.4 905.531 106.98 905.531 109.28V116H904.571L904.451 114.22C903.551 115.46 902.031 116.16 900.191 116.16ZM897.451 113.06C897.451 114.32 898.511 115.12 900.231 115.12C902.631 115.12 904.391 113.62 904.391 111.54V111.1H899.851C898.431 111.1 897.451 111.88 897.451 113.06ZM909.431 116V105.66H910.411L910.511 107.66C911.331 106.18 912.771 105.4 914.431 105.4C917.131 105.4 918.791 107.3 918.791 110.28V116H917.631V110.38C917.631 108 916.351 106.52 914.291 106.52C912.111 106.52 910.591 108.18 910.591 110.64V116H909.431ZM926.561 116C924.361 116 923.181 114.76 923.181 112.42V106.72H920.921V105.66H922.241C923.021 105.66 923.241 105.46 923.321 104.7L923.421 103.12H924.341V105.66H927.921V106.72H924.341V112.38C924.341 114.08 925.041 114.88 926.601 114.88H928.061V116H926.561ZM936.521 116V105.66H937.681V116H936.521ZM936.041 102.72C936.041 102.14 936.461 101.68 937.101 101.68C937.741 101.68 938.161 102.14 938.161 102.72C938.161 103.32 937.741 103.78 937.101 103.78C936.461 103.78 936.041 103.32 936.041 102.72ZM945.354 116.26C942.734 116.26 941.074 114.94 940.994 112.88H942.134C942.254 114.34 943.394 115.2 945.374 115.2C947.194 115.2 948.294 114.5 948.294 113.36C948.294 112.28 947.314 111.62 945.114 111.24C942.414 110.78 941.194 109.82 941.194 108.24C941.194 106.48 942.694 105.4 945.114 105.4C947.554 105.4 949.094 106.56 949.254 108.54H948.094C947.974 107.18 946.914 106.44 945.114 106.44C943.394 106.44 942.354 107.14 942.354 108.26C942.354 109.28 943.214 109.84 945.514 110.28C948.134 110.78 949.434 111.82 949.434 113.38C949.434 115.12 947.854 116.26 945.354 116.26ZM956.698 116C954.498 116 953.318 114.76 953.318 112.42V106.72H951.058V105.66H952.378C953.158 105.66 953.377 105.46 953.458 104.7L953.558 103.12H954.478V105.66H958.058V106.72H954.478V112.38C954.478 114.08 955.178 114.88 956.738 114.88H958.198V116H956.698ZM963.875 111.64C963.875 110.26 964.435 109.38 965.935 108.46C967.415 107.52 967.935 106.76 967.935 105.56C967.935 103.9 966.775 102.9 964.795 102.9C962.835 102.9 961.555 103.92 961.455 105.64H960.275C960.415 103.22 962.115 101.74 964.755 101.74C967.375 101.74 969.115 103.24 969.115 105.52C969.115 107.04 968.355 108.24 966.575 109.36C965.375 110.1 965.055 110.64 965.055 111.72V112.16H963.875V111.64ZM963.395 115.08C963.395 114.46 963.835 114.04 964.475 114.04C965.095 114.04 965.535 114.46 965.535 115.08C965.535 115.7 965.095 116.12 964.475 116.12C963.835 116.12 963.395 115.7 963.395 115.08Z" fill="black"/>
<path d="M0.44 58L6.24 44H7.4L13.2 58H11.92L10.46 54.48H3.18L1.74 58H0.44ZM3.66 53.36H10L6.82 45.66L3.66 53.36ZM19.2845 58.26C16.6245 58.26 14.9845 56.36 14.9845 53.38V47.66H16.1445V53.28C16.1445 55.64 17.4045 57.14 19.4445 57.14C21.5845 57.14 23.0645 55.46 23.0645 53V47.66H24.2245V58H23.2645L23.1445 55.98C22.3445 57.48 20.9045 58.26 19.2845 58.26ZM29.3491 46.46C29.3491 44.1 30.5091 42.94 32.8091 42.94H34.4291V44.04H32.9091C31.2291 44.04 30.5091 44.78 30.5091 46.54V47.66H34.3291V48.72H30.5091V58H29.3491V48.72H26.9891V47.66H29.3491V46.46ZM43.1053 58L39.3853 47.66H40.6253L43.6853 56.26L45.1453 52.5L47.0053 47.66H48.0853L49.9653 52.5L51.4253 56.26L54.5053 47.66H55.7253L51.9853 58H50.8653L49.0853 53.38L47.5453 49.36L44.2253 58H43.1053ZM62.2213 58.26C59.0813 58.26 56.9413 56.04 56.9413 52.82C56.9413 49.62 59.1013 47.4 62.2413 47.4C65.5013 47.4 67.6013 49.8 67.5213 53.3H58.1213C58.3213 55.64 59.9213 57.16 62.2213 57.16C63.9013 57.16 65.2413 56.38 65.9213 55.04L67.2213 55.06C66.4213 57.04 64.5413 58.26 62.2213 58.26ZM58.1213 52.28H66.3813C66.1013 49.94 64.5013 48.5 62.2413 48.5C59.9413 48.5 58.3213 50 58.1213 52.28ZM70.6928 58V43.2H71.8528V58H70.6928ZM80.3463 58.26C77.2463 58.26 75.0663 56 75.0663 52.82C75.0663 49.64 77.2463 47.4 80.3463 47.4C82.8063 47.4 84.8263 48.86 85.4263 51.1H84.2463C83.5663 49.46 82.1263 48.52 80.3463 48.52C77.9063 48.52 76.2263 50.28 76.2263 52.82C76.2263 55.38 77.9063 57.14 80.3463 57.14C82.2463 57.14 83.7263 56.08 84.3063 54.38H85.5263C84.8263 56.8 82.8863 58.26 80.3463 58.26ZM88.6811 58V43.2H89.8411V49.54C90.6611 48.12 92.1011 47.4 93.7211 47.4C96.4011 47.4 98.0411 49.26 98.0411 52.24V58H96.8811V52.34C96.8811 49.96 95.6211 48.52 93.5611 48.52C91.3811 48.52 89.8411 50.14 89.8411 52.62V58H88.6811ZM106.323 58.26C103.183 58.26 101.043 56.04 101.043 52.82C101.043 49.62 103.203 47.4 106.343 47.4C109.603 47.4 111.703 49.8 111.623 53.3H102.223C102.423 55.64 104.023 57.16 106.323 57.16C108.003 57.16 109.343 56.38 110.023 55.04L111.323 55.06C110.523 57.04 108.643 58.26 106.323 58.26ZM102.223 52.28H110.483C110.203 49.94 108.603 48.5 106.343 48.5C104.043 48.5 102.423 50 102.223 52.28ZM125.411 58.26C121.271 58.26 118.331 55.24 118.331 51C118.331 46.76 121.271 43.74 125.371 43.74C128.611 43.74 131.151 45.6 132.051 48.32H130.731C129.851 46.24 127.931 44.96 125.431 44.96C121.951 44.96 119.571 47.42 119.571 51C119.571 54.58 121.971 57.04 125.431 57.04C128.691 57.04 130.911 54.86 131.171 51.8H124.971V50.64H132.471C132.511 55.08 129.671 58.26 125.411 58.26ZM135.751 58V47.66H136.731L136.851 49.98C137.551 48.42 138.731 47.66 140.651 47.66H141.511V48.74H140.611C138.391 48.74 136.911 50.1 136.911 53.24V58H135.751ZM148.503 58.26C145.843 58.26 144.203 56.36 144.203 53.38V47.66H145.363V53.28C145.363 55.64 146.623 57.14 148.663 57.14C150.803 57.14 152.283 55.46 152.283 53V47.66H153.443V58H152.483L152.363 55.98C151.563 57.48 150.123 58.26 148.503 58.26ZM163.088 58.26C161.188 58.26 159.648 57.4 158.728 56.04V62H157.568V47.66H158.548L158.668 49.72C159.568 48.28 161.148 47.4 163.088 47.4C166.228 47.4 168.388 49.68 168.388 52.82C168.388 55.96 166.228 58.26 163.088 58.26ZM158.688 52.82C158.688 55.36 160.428 57.14 162.968 57.14C165.508 57.14 167.228 55.36 167.228 52.82C167.228 50.3 165.508 48.52 162.968 48.52C160.428 48.52 158.688 50.3 158.688 52.82ZM177.131 58.26C175.231 58.26 173.691 57.4 172.771 56.04V62H171.611V47.66H172.591L172.711 49.72C173.611 48.28 175.191 47.4 177.131 47.4C180.271 47.4 182.431 49.68 182.431 52.82C182.431 55.96 180.271 58.26 177.131 58.26ZM172.731 52.82C172.731 55.36 174.471 57.14 177.011 57.14C179.551 57.14 181.271 55.36 181.271 52.82C181.271 50.3 179.551 48.52 177.011 48.52C174.471 48.52 172.731 50.3 172.731 52.82ZM190.034 58.26C186.894 58.26 184.754 56.04 184.754 52.82C184.754 49.62 186.914 47.4 190.054 47.4C193.314 47.4 195.414 49.8 195.334 53.3H185.934C186.134 55.64 187.734 57.16 190.034 57.16C191.714 57.16 193.054 56.38 193.734 55.04L195.034 55.06C194.234 57.04 192.354 58.26 190.034 58.26ZM185.934 52.28H194.194C193.914 49.94 192.314 48.5 190.054 48.5C187.754 48.5 186.134 50 185.934 52.28ZM200.448 62.06V60.96H201.428C202.888 60.96 203.408 60.48 203.408 58.76V47.66H204.568V58.78C204.568 61.06 203.768 62.06 201.488 62.06H200.448ZM202.928 44.72C202.928 44.14 203.348 43.68 203.988 43.68C204.628 43.68 205.048 44.14 205.048 44.72C205.048 45.32 204.628 45.78 203.988 45.78C203.348 45.78 202.928 45.32 202.928 44.72ZM212.761 58.26C210.101 58.26 208.461 56.36 208.461 53.38V47.66H209.621V53.28C209.621 55.64 210.881 57.14 212.921 57.14C215.061 57.14 216.541 55.46 216.541 53V47.66H217.701V58H216.741L216.621 55.98C215.821 57.48 214.381 58.26 212.761 58.26ZM221.826 58V47.66H222.806L222.906 49.66C223.726 48.18 225.166 47.4 226.826 47.4C229.526 47.4 231.186 49.3 231.186 52.28V58H230.026V52.38C230.026 50 228.746 48.52 226.686 48.52C224.506 48.52 222.986 50.18 222.986 52.64V58H221.826ZM239.627 62.26C237.087 62.26 235.207 60.92 234.807 58.82H235.987C236.327 60.26 237.727 61.16 239.627 61.16C242.007 61.16 243.527 59.76 243.527 57.54V55.86C242.607 57.12 241.127 57.88 239.367 57.88C236.347 57.88 234.187 55.68 234.187 52.64C234.187 49.6 236.347 47.4 239.367 47.4C241.187 47.4 242.687 48.2 243.607 49.52L243.707 47.66H244.687V57.58C244.687 60.36 242.647 62.26 239.627 62.26ZM235.347 52.64C235.347 55.06 237.047 56.74 239.487 56.74C241.907 56.74 243.607 55.06 243.607 52.64C243.607 50.22 241.907 48.52 239.487 48.52C237.047 48.52 235.347 50.22 235.347 52.64ZM253.178 58.26C250.038 58.26 247.898 56.04 247.898 52.82C247.898 49.62 250.058 47.4 253.198 47.4C256.458 47.4 258.558 49.8 258.478 53.3H249.078C249.278 55.64 250.878 57.16 253.178 57.16C254.858 57.16 256.198 56.38 256.878 55.04L258.178 55.06C257.378 57.04 255.498 58.26 253.178 58.26ZM249.078 52.28H257.338C257.058 49.94 255.458 48.5 253.198 48.5C250.898 48.5 249.278 50 249.078 52.28ZM261.65 58V47.66H262.63L262.75 49.98C263.45 48.42 264.63 47.66 266.55 47.66H267.41V48.74H266.51C264.29 48.74 262.81 50.1 262.81 53.24V58H261.65ZM2.26 87V73H3.4L9.22 81.76L15.04 73H16.16V87H14.96V75.24L9.72 83.1H8.72L3.48 75.24V87H2.26ZM24.858 87.26C21.718 87.26 19.578 85.04 19.578 81.82C19.578 78.62 21.738 76.4 24.878 76.4C28.138 76.4 30.238 78.8 30.158 82.3H20.758C20.958 84.64 22.558 86.16 24.858 86.16C26.538 86.16 27.878 85.38 28.558 84.04L29.858 84.06C29.058 86.04 27.178 87.26 24.858 87.26ZM20.758 81.28H29.018C28.738 78.94 27.138 77.5 24.878 77.5C22.578 77.5 20.958 79 20.758 81.28ZM33.3295 87V76.66H34.3095L34.4095 78.66C35.2295 77.18 36.6695 76.4 38.3295 76.4C41.0295 76.4 42.6895 78.3 42.6895 81.28V87H41.5295V81.38C41.5295 79 40.2495 77.52 38.1895 77.52C36.0095 77.52 34.4895 79.18 34.4895 81.64V87H33.3295ZM50.1513 87.26C47.5313 87.26 45.8713 85.94 45.7913 83.88H46.9313C47.0513 85.34 48.1913 86.2 50.1713 86.2C51.9913 86.2 53.0913 85.5 53.0913 84.36C53.0913 83.28 52.1113 82.62 49.9113 82.24C47.2113 81.78 45.9913 80.82 45.9913 79.24C45.9913 77.48 47.4913 76.4 49.9113 76.4C52.3513 76.4 53.8913 77.56 54.0513 79.54H52.8913C52.7713 78.18 51.7113 77.44 49.9113 77.44C48.1913 77.44 47.1513 78.14 47.1513 79.26C47.1513 80.28 48.0113 80.84 50.3113 81.28C52.9313 81.78 54.2313 82.82 54.2313 84.38C54.2313 86.12 52.6513 87.26 50.1513 87.26ZM61.9673 87.26C58.8673 87.26 56.6873 85 56.6873 81.82C56.6873 78.64 58.8673 76.4 61.9673 76.4C64.4273 76.4 66.4473 77.86 67.0473 80.1H65.8673C65.1873 78.46 63.7473 77.52 61.9673 77.52C59.5273 77.52 57.8473 79.28 57.8473 81.82C57.8473 84.38 59.5273 86.14 61.9673 86.14C63.8673 86.14 65.3473 85.08 65.9273 83.38H67.1473C66.4473 85.8 64.5073 87.26 61.9673 87.26ZM70.3022 87V72.2H71.4622V78.54C72.2822 77.12 73.7222 76.4 75.3422 76.4C78.0222 76.4 79.6622 78.26 79.6622 81.24V87H78.5022V81.34C78.5022 78.96 77.2422 77.52 75.1822 77.52C73.0022 77.52 71.4622 79.14 71.4622 81.62V87H70.3022ZM87.9439 87.26C84.8039 87.26 82.6639 85.04 82.6639 81.82C82.6639 78.62 84.8239 76.4 87.9639 76.4C91.2239 76.4 93.3239 78.8 93.2439 82.3H83.8439C84.0439 84.64 85.6439 86.16 87.9439 86.16C89.6239 86.16 90.9639 85.38 91.6439 84.04L92.9439 84.06C92.1439 86.04 90.2639 87.26 87.9439 87.26ZM83.8439 81.28H92.1039C91.8239 78.94 90.2239 77.5 87.9639 77.5C85.6639 77.5 84.0439 79 83.8439 81.28ZM96.4155 87V76.66H97.3955L97.4955 78.66C98.3155 77.18 99.7555 76.4 101.415 76.4C104.115 76.4 105.775 78.3 105.775 81.28V87H104.615V81.38C104.615 79 103.335 77.52 101.275 77.52C99.0955 77.52 97.5755 79.18 97.5755 81.64V87H96.4155ZM118.159 87.26C115.539 87.26 113.879 85.94 113.799 83.88H114.939C115.059 85.34 116.199 86.2 118.179 86.2C119.999 86.2 121.099 85.5 121.099 84.36C121.099 83.28 120.119 82.62 117.919 82.24C115.219 81.78 113.999 80.82 113.999 79.24C113.999 77.48 115.499 76.4 117.919 76.4C120.359 76.4 121.899 77.56 122.059 79.54H120.899C120.779 78.18 119.719 77.44 117.919 77.44C116.199 77.44 115.159 78.14 115.159 79.26C115.159 80.28 116.019 80.84 118.319 81.28C120.939 81.78 122.239 82.82 122.239 84.38C122.239 86.12 120.659 87.26 118.159 87.26ZM130.135 87.26C126.935 87.26 124.695 85.02 124.695 81.82C124.695 78.64 126.935 76.4 130.135 76.4C133.315 76.4 135.555 78.64 135.555 81.82C135.555 85.02 133.315 87.26 130.135 87.26ZM125.855 81.82C125.855 84.38 127.595 86.14 130.135 86.14C132.655 86.14 134.395 84.38 134.395 81.82C134.395 79.28 132.655 77.52 130.135 77.52C127.595 77.52 125.855 79.28 125.855 81.82ZM138.779 87V72.2H139.939V87H138.779ZM144.052 87V72.2H145.212V87H144.052ZM153.526 87C151.326 87 150.146 85.76 150.146 83.42V77.72H147.886V76.66H149.206C149.986 76.66 150.206 76.46 150.286 75.7L150.386 74.12H151.306V76.66H154.886V77.72H151.306V83.38C151.306 85.08 152.006 85.88 153.566 85.88H155.026V87H153.526ZM162.006 87.26C158.866 87.26 156.726 85.04 156.726 81.82C156.726 78.62 158.886 76.4 162.026 76.4C165.286 76.4 167.386 78.8 167.306 82.3H157.906C158.106 84.64 159.706 86.16 162.006 86.16C163.686 86.16 165.026 85.38 165.706 84.04L167.006 84.06C166.206 86.04 164.326 87.26 162.006 87.26ZM157.906 81.28H166.166C165.886 78.94 164.286 77.5 162.026 77.5C159.726 77.5 158.106 79 157.906 81.28ZM170.478 87V76.66H171.458L171.558 78.66C172.378 77.18 173.818 76.4 175.478 76.4C178.178 76.4 179.838 78.3 179.838 81.28V87H178.678V81.38C178.678 79 177.398 77.52 175.338 77.52C173.158 77.52 171.638 79.18 171.638 81.64V87H170.478ZM190.723 87L187.003 76.66H188.243L191.303 85.26L192.763 81.5L194.623 76.66H195.703L197.582 81.5L199.043 85.26L202.123 76.66H203.343L199.603 87H198.483L196.703 82.38L195.163 78.36L191.842 87H190.723ZM205.849 87V76.66H207.009V87H205.849ZM205.369 73.72C205.369 73.14 205.789 72.68 206.429 72.68C207.069 72.68 207.489 73.14 207.489 73.72C207.489 74.32 207.069 74.78 206.429 74.78C205.789 74.78 205.369 74.32 205.369 73.72ZM211.123 87V76.66H212.103L212.223 78.98C212.923 77.42 214.103 76.66 216.023 76.66H216.883V77.74H215.983C213.763 77.74 212.283 79.1 212.283 82.24V87H211.123ZM228.796 87.26C226.136 87.26 224.496 85.36 224.496 82.38V76.66H225.656V82.28C225.656 84.64 226.916 86.14 228.956 86.14C231.096 86.14 232.576 84.46 232.576 82V76.66H233.736V87H232.776L232.656 84.98C231.856 86.48 230.416 87.26 228.796 87.26ZM237.861 87V76.66H238.841L238.941 78.66C239.761 77.18 241.201 76.4 242.861 76.4C245.561 76.4 247.221 78.3 247.221 81.28V87H246.061V81.38C246.061 79 244.781 77.52 242.721 77.52C240.541 77.52 239.021 79.18 239.021 81.64V87H237.861ZM254.683 87.26C252.063 87.26 250.403 85.94 250.323 83.88H251.463C251.583 85.34 252.723 86.2 254.703 86.2C256.523 86.2 257.623 85.5 257.623 84.36C257.623 83.28 256.643 82.62 254.443 82.24C251.743 81.78 250.523 80.82 250.523 79.24C250.523 77.48 252.023 76.4 254.443 76.4C256.883 76.4 258.423 77.56 258.583 79.54H257.423C257.303 78.18 256.243 77.44 254.443 77.44C252.723 77.44 251.683 78.14 251.683 79.26C251.683 80.28 252.543 80.84 254.843 81.28C257.463 81.78 258.763 82.82 258.763 84.38C258.763 86.12 257.183 87.26 254.683 87.26ZM2.06 116V101.2H3.22V110.2H4.74C6.66 110.2 7.5 109.7 8.16 107.96L9.04 105.66H10.28L9.24 108.4C8.78 109.56 8.24 110.3 7.42 110.74L10.78 116H9.4L6.34 111.14C5.86 111.24 5.32 111.28 4.7 111.28H3.22V116H2.06ZM17.85 116.26C14.65 116.26 12.41 114.02 12.41 110.82C12.41 107.64 14.65 105.4 17.85 105.4C21.03 105.4 23.27 107.64 23.27 110.82C23.27 114.02 21.03 116.26 17.85 116.26ZM13.57 110.82C13.57 113.38 15.31 115.14 17.85 115.14C20.37 115.14 22.11 113.38 22.11 110.82C22.11 108.28 20.37 106.52 17.85 106.52C15.31 106.52 13.57 108.28 13.57 110.82ZM26.4936 116V105.66H27.4736L27.5736 107.66C28.3936 106.18 29.8336 105.4 31.4936 105.4C34.1936 105.4 35.8536 107.3 35.8536 110.28V116H34.6936V110.38C34.6936 108 33.4136 106.52 31.3536 106.52C29.1736 106.52 27.6536 108.18 27.6536 110.64V116H26.4936ZM38.7553 116V115.1L45.4753 106.72H38.9953V105.66H47.0353V106.54L40.3553 114.92H47.1753V116H38.7553ZM54.3502 116.26C51.2102 116.26 49.0702 114.04 49.0702 110.82C49.0702 107.62 51.2302 105.4 54.3702 105.4C57.6302 105.4 59.7302 107.8 59.6502 111.3H50.2502C50.4502 113.64 52.0502 115.16 54.3502 115.16C56.0302 115.16 57.3702 114.38 58.0502 113.04L59.3502 113.06C58.5502 115.04 56.6702 116.26 54.3502 116.26ZM50.2502 110.28H58.5102C58.2302 107.94 56.6302 106.5 54.3702 106.5C52.0702 106.5 50.4502 108 50.2502 110.28ZM62.8217 116V105.66H63.8017L63.9017 107.66C64.7217 106.18 66.1617 105.4 67.8217 105.4C70.5217 105.4 72.1817 107.3 72.1817 110.28V116H71.0217V110.38C71.0217 108 69.7417 106.52 67.6817 106.52C65.5017 106.52 63.9817 108.18 63.9817 110.64V116H62.8217ZM79.9514 116C77.7514 116 76.5714 114.76 76.5714 112.42V106.72H74.3114V105.66H75.6314C76.4114 105.66 76.6314 105.46 76.7114 104.7L76.8114 103.12H77.7314V105.66H81.3114V106.72H77.7314V112.38C77.7314 114.08 78.4314 114.88 79.9914 114.88H81.4514V116H79.9514ZM84.56 116V105.66H85.54L85.66 107.98C86.36 106.42 87.54 105.66 89.46 105.66H90.32V106.74H89.42C87.2 106.74 85.72 108.1 85.72 111.24V116H84.56ZM93.2319 116V105.66H94.3919V116H93.2319ZM92.7519 102.72C92.7519 102.14 93.1719 101.68 93.8119 101.68C94.4519 101.68 94.8719 102.14 94.8719 102.72C94.8719 103.32 94.4519 103.78 93.8119 103.78C93.1719 103.78 92.7519 103.32 92.7519 102.72ZM102.885 116.26C99.7453 116.26 97.6053 114.04 97.6053 110.82C97.6053 107.62 99.7653 105.4 102.905 105.4C106.165 105.4 108.265 107.8 108.185 111.3H98.7853C98.9853 113.64 100.585 115.16 102.885 115.16C104.565 115.16 105.905 114.38 106.585 113.04L107.885 113.06C107.085 115.04 105.205 116.26 102.885 116.26ZM98.7853 110.28H107.045C106.765 107.94 105.165 106.5 102.905 106.5C100.605 106.5 98.9853 108 98.7853 110.28ZM111.357 116V105.66H112.337L112.457 107.98C113.157 106.42 114.337 105.66 116.257 105.66H117.117V106.74H116.217C113.997 106.74 112.517 108.1 112.517 111.24V116H111.357ZM123.608 116.26C120.468 116.26 118.328 114.04 118.328 110.82C118.328 107.62 120.488 105.4 123.628 105.4C126.888 105.4 128.988 107.8 128.908 111.3H119.508C119.708 113.64 121.308 115.16 123.608 115.16C125.288 115.16 126.628 114.38 127.308 113.04L128.608 113.06C127.808 115.04 125.928 116.26 123.608 116.26ZM119.508 110.28H127.768C127.488 107.94 125.888 106.5 123.628 106.5C121.328 106.5 119.708 108 119.508 110.28ZM132.08 116V105.66H133.06L133.16 107.66C133.98 106.18 135.42 105.4 137.08 105.4C139.78 105.4 141.44 107.3 141.44 110.28V116H140.28V110.38C140.28 108 139 106.52 136.94 106.52C134.76 106.52 133.24 108.18 133.24 110.64V116H132.08ZM147.734 111.64C147.734 110.26 148.294 109.38 149.794 108.46C151.274 107.52 151.794 106.76 151.794 105.56C151.794 103.9 150.634 102.9 148.654 102.9C146.694 102.9 145.414 103.92 145.314 105.64H144.134C144.274 103.22 145.974 101.74 148.614 101.74C151.234 101.74 152.974 103.24 152.974 105.52C152.974 107.04 152.214 108.24 150.434 109.36C149.234 110.1 148.914 110.64 148.914 111.72V112.16H147.734V111.64ZM147.254 115.08C147.254 114.46 147.694 114.04 148.334 114.04C148.954 114.04 149.394 114.46 149.394 115.08C149.394 115.7 148.954 116.12 148.334 116.12C147.694 116.12 147.254 115.7 147.254 115.08Z" fill="black"/>
</svg>
