<svg width="1104" height="276" viewBox="0 0 1104 276" fill="none" xmlns="http://www.w3.org/2000/svg">
<path d="M464.68 21V14.44H456.48V21H455.26V7H456.48V13.28H464.68V7H465.9V21H464.68ZM473.176 21L468.556 10.66H469.816L471.616 14.66L473.756 19.48L475.876 14.66L477.696 10.66H478.936L474.316 21H473.176ZM485.557 21.26C482.357 21.26 480.117 19.02 480.117 15.82C480.117 12.64 482.357 10.4 485.557 10.4C488.737 10.4 490.977 12.64 490.977 15.82C490.977 19.02 488.737 21.26 485.557 21.26ZM481.277 15.82C481.277 18.38 483.017 20.14 485.557 20.14C488.077 20.14 489.817 18.38 489.817 15.82C489.817 13.28 488.077 11.52 485.557 11.52C483.017 11.52 481.277 13.28 481.277 15.82ZM494.201 21V10.66H495.181L495.301 12.98C496.001 11.42 497.181 10.66 499.101 10.66H499.961V11.74H499.061C496.841 11.74 495.361 13.1 495.361 16.24V21H494.201ZM506.472 21.26C503.352 21.26 501.172 18.96 501.172 15.82C501.172 12.68 503.352 10.4 506.472 10.4C508.372 10.4 509.912 11.24 510.832 12.58V6.2H511.992V21H511.032L510.892 18.96C509.992 20.38 508.412 21.26 506.472 21.26ZM502.332 15.82C502.332 18.36 504.072 20.14 506.612 20.14C509.132 20.14 510.872 18.36 510.872 15.82C510.872 13.3 509.132 11.52 506.612 11.52C504.072 11.52 502.332 13.3 502.332 15.82ZM519.355 21.16C516.955 21.16 515.455 19.98 515.455 18.08C515.455 16.24 516.855 15.08 518.975 15.08H523.535V14.34C523.535 12.62 522.275 11.48 520.355 11.48C518.795 11.48 517.575 12.28 517.155 13.52H515.975C516.475 11.6 518.135 10.4 520.335 10.4C522.915 10.4 524.695 11.98 524.695 14.28V21H523.735L523.615 19.22C522.715 20.46 521.195 21.16 519.355 21.16ZM516.615 18.06C516.615 19.32 517.675 20.12 519.395 20.12C521.795 20.12 523.555 18.62 523.555 16.54V16.1H519.015C517.595 16.1 516.615 16.88 516.615 18.06ZM528.595 21V10.66H529.575L529.675 12.66C530.495 11.18 531.935 10.4 533.595 10.4C536.295 10.4 537.955 12.3 537.955 15.28V21H536.795V15.38C536.795 13 535.515 11.52 533.455 11.52C531.275 11.52 529.755 13.18 529.755 15.64V21H528.595ZM547.208 21V10.66H548.188L548.288 12.66C549.108 11.18 550.548 10.4 552.208 10.4C554.908 10.4 556.568 12.3 556.568 15.28V21H555.408V15.38C555.408 13 554.128 11.52 552.068 11.52C549.888 11.52 548.368 13.18 548.368 15.64V21H547.208ZM563.71 21.16C561.31 21.16 559.81 19.98 559.81 18.08C559.81 16.24 561.21 15.08 563.33 15.08H567.89V14.34C567.89 12.62 566.63 11.48 564.71 11.48C563.15 11.48 561.93 12.28 561.51 13.52H560.33C560.83 11.6 562.49 10.4 564.69 10.4C567.27 10.4 569.05 11.98 569.05 14.28V21H568.09L567.97 19.22C567.07 20.46 565.55 21.16 563.71 21.16ZM560.97 18.06C560.97 19.32 562.03 20.12 563.75 20.12C566.15 20.12 567.91 18.62 567.91 16.54V16.1H563.37C561.95 16.1 560.97 16.88 560.97 18.06ZM562.49 7.1C562.49 5.84 563.43 4.96 564.69 4.96C565.95 4.96 566.89 5.84 566.89 7.1C566.89 8.36 565.95 9.22 564.69 9.22C563.43 9.22 562.49 8.36 562.49 7.1ZM563.35 7.1C563.35 7.88 563.91 8.44 564.69 8.44C565.47 8.44 566.03 7.88 566.03 7.1C566.03 6.3 565.47 5.74 564.69 5.74C563.91 5.74 563.35 6.3 563.35 7.1ZM572.951 21V10.66H573.931L574.051 12.98C574.751 11.42 575.931 10.66 577.851 10.66H578.711V11.74H577.811C575.591 11.74 574.111 13.1 574.111 16.24V21H572.951ZM589.133 21L584.513 10.66H585.773L587.573 14.66L589.713 19.48L591.833 14.66L593.653 10.66H594.893L590.273 21H589.133ZM597.365 21V10.66H598.525V21H597.365ZM596.885 7.72C596.885 7.14 597.305 6.68 597.945 6.68C598.585 6.68 599.005 7.14 599.005 7.72C599.005 8.32 598.585 8.78 597.945 8.78C597.305 8.78 596.885 8.32 596.885 7.72ZM611.972 21.26C609.312 21.26 607.672 19.36 607.672 16.38V10.66H608.832V16.28C608.832 18.64 610.092 20.14 612.132 20.14C614.272 20.14 615.752 18.46 615.752 16V10.66H616.912V21H615.952L615.832 18.98C615.032 20.48 613.592 21.26 611.972 21.26ZM625.237 21C623.037 21 621.857 19.76 621.857 17.42V11.72H619.597V10.66H620.917C621.697 10.66 621.917 10.46 621.997 9.7L622.097 8.12H623.017V10.66H626.597V11.72H623.017V17.38C623.017 19.08 623.717 19.88 625.277 19.88H626.737V21H625.237ZM638.811 21C636.611 21 635.431 19.76 635.431 17.42V11.72H633.171V10.66H634.491C635.271 10.66 635.491 10.46 635.571 9.7L635.671 8.12H636.591V10.66H640.171V11.72H636.591V17.38C636.591 19.08 637.291 19.88 638.851 19.88H640.311V21H638.811ZM643.419 21V10.66H644.579V21H643.419ZM642.939 7.72C642.939 7.14 643.359 6.68 643.999 6.68C644.639 6.68 645.059 7.14 645.059 7.72C645.059 8.32 644.639 8.78 643.999 8.78C643.359 8.78 642.939 8.32 642.939 7.72ZM648.693 21V6.2H649.853V21H648.693ZM460.58 50.26C458.64 50.26 457.06 49.36 456.16 47.94L456.04 50H455.06V35.2H456.22V41.62C457.14 40.24 458.68 39.4 460.58 39.4C463.72 39.4 465.88 41.68 465.88 44.82C465.88 47.96 463.72 50.26 460.58 50.26ZM456.18 44.82C456.18 47.36 457.92 49.14 460.46 49.14C463 49.14 464.72 47.36 464.72 44.82C464.72 42.3 463 40.52 460.46 40.52C457.92 40.52 456.18 42.3 456.18 44.82ZM469.103 50V39.66H470.083L470.203 41.98C470.903 40.42 472.083 39.66 474.003 39.66H474.863V40.74H473.963C471.743 40.74 470.263 42.1 470.263 45.24V50H469.103ZM481.855 50.26C479.195 50.26 477.555 48.36 477.555 45.38V39.66H478.715V45.28C478.715 47.64 479.975 49.14 482.015 49.14C484.155 49.14 485.635 47.46 485.635 45V39.66H486.795V50H485.835L485.715 47.98C484.915 49.48 483.475 50.26 481.855 50.26ZM490.919 50V35.2H492.079V44.2H493.599C495.519 44.2 496.359 43.7 497.019 41.96L497.899 39.66H499.139L498.099 42.4C497.639 43.56 497.099 44.3 496.279 44.74L499.639 50H498.259L495.199 45.14C494.719 45.24 494.179 45.28 493.559 45.28H492.079V50H490.919ZM506.549 50.26C503.409 50.26 501.269 48.04 501.269 44.82C501.269 41.62 503.429 39.4 506.569 39.4C509.829 39.4 511.929 41.8 511.849 45.3H502.449C502.649 47.64 504.249 49.16 506.549 49.16C508.229 49.16 509.569 48.38 510.249 47.04L511.549 47.06C510.749 49.04 508.869 50.26 506.549 50.26ZM502.449 44.28H510.709C510.429 41.94 508.829 40.5 506.569 40.5C504.269 40.5 502.649 42 502.449 44.28ZM515.021 50V39.66H516.001L516.121 41.98C516.821 40.42 518.001 39.66 519.921 39.66H520.781V40.74H519.881C517.661 40.74 516.181 42.1 516.181 45.24V50H515.021ZM527.432 54.26C524.892 54.26 523.012 52.92 522.612 50.82H523.792C524.132 52.26 525.532 53.16 527.432 53.16C529.812 53.16 531.332 51.76 531.332 49.54V47.86C530.412 49.12 528.932 49.88 527.172 49.88C524.152 49.88 521.992 47.68 521.992 44.64C521.992 41.6 524.152 39.4 527.172 39.4C528.992 39.4 530.492 40.2 531.412 41.52L531.512 39.66H532.492V49.58C532.492 52.36 530.452 54.26 527.432 54.26ZM523.152 44.64C523.152 47.06 524.852 48.74 527.292 48.74C529.712 48.74 531.412 47.06 531.412 44.64C531.412 42.22 529.712 40.52 527.292 40.52C524.852 40.52 523.152 42.22 523.152 44.64ZM536.603 50V39.66H537.583L537.703 41.98C538.403 40.42 539.583 39.66 541.503 39.66H542.363V40.74H541.463C539.243 40.74 537.763 42.1 537.763 45.24V50H536.603ZM549.355 50.26C546.695 50.26 545.055 48.36 545.055 45.38V39.66H546.215V45.28C546.215 47.64 547.475 49.14 549.515 49.14C551.655 49.14 553.135 47.46 553.135 45V39.66H554.295V50H553.335L553.215 47.98C552.415 49.48 550.975 50.26 549.355 50.26ZM563.939 50.26C562.039 50.26 560.499 49.4 559.579 48.04V54H558.419V39.66H559.399L559.519 41.72C560.419 40.28 561.999 39.4 563.939 39.4C567.079 39.4 569.239 41.68 569.239 44.82C569.239 47.96 567.079 50.26 563.939 50.26ZM559.539 44.82C559.539 47.36 561.279 49.14 563.819 49.14C566.359 49.14 568.079 47.36 568.079 44.82C568.079 42.3 566.359 40.52 563.819 40.52C561.279 40.52 559.539 42.3 559.539 44.82ZM577.982 50.26C576.082 50.26 574.542 49.4 573.622 48.04V54H572.462V39.66H573.442L573.562 41.72C574.462 40.28 576.042 39.4 577.982 39.4C581.122 39.4 583.282 41.68 583.282 44.82C583.282 47.96 581.122 50.26 577.982 50.26ZM573.582 44.82C573.582 47.36 575.322 49.14 577.862 49.14C580.402 49.14 582.122 47.36 582.122 44.82C582.122 42.3 580.402 40.52 577.862 40.52C575.322 40.52 573.582 42.3 573.582 44.82ZM590.885 50.26C587.745 50.26 585.605 48.04 585.605 44.82C585.605 41.62 587.765 39.4 590.905 39.4C594.165 39.4 596.265 41.8 596.185 45.3H586.785C586.985 47.64 588.585 49.16 590.885 49.16C592.565 49.16 593.905 48.38 594.585 47.04L595.885 47.06C595.085 49.04 593.205 50.26 590.885 50.26ZM586.785 44.28H595.045C594.765 41.94 593.165 40.5 590.905 40.5C588.605 40.5 586.985 42 586.785 44.28ZM599.357 50V39.66H600.337L600.437 41.66C601.257 40.18 602.697 39.4 604.357 39.4C607.057 39.4 608.717 41.3 608.717 44.28V50H607.557V44.38C607.557 42 606.277 40.52 604.217 40.52C602.037 40.52 600.517 42.18 600.517 44.64V50H599.357ZM615.012 45.64C615.012 44.26 615.572 43.38 617.072 42.46C618.552 41.52 619.072 40.76 619.072 39.56C619.072 37.9 617.912 36.9 615.932 36.9C613.972 36.9 612.692 37.92 612.592 39.64H611.412C611.552 37.22 613.252 35.74 615.892 35.74C618.512 35.74 620.252 37.24 620.252 39.52C620.252 41.04 619.492 42.24 617.712 43.36C616.512 44.1 616.192 44.64 616.192 45.72V46.16H615.012V45.64ZM614.532 49.08C614.532 48.46 614.972 48.04 615.612 48.04C616.232 48.04 616.672 48.46 616.672 49.08C616.672 49.7 616.232 50.12 615.612 50.12C614.972 50.12 614.532 49.7 614.532 49.08Z" fill="black"/>
<path d="M219.68 224V217.44H211.48V224H210.26V210H211.48V216.28H219.68V210H220.9V224H219.68ZM228.176 224L223.556 213.66H224.816L226.616 217.66L228.756 222.48L230.876 217.66L232.696 213.66H233.936L229.316 224H228.176ZM239.101 224.16C236.701 224.16 235.201 222.98 235.201 221.08C235.201 219.24 236.601 218.08 238.721 218.08H243.281V217.34C243.281 215.62 242.021 214.48 240.101 214.48C238.541 214.48 237.321 215.28 236.901 216.52H235.721C236.221 214.6 237.881 213.4 240.081 213.4C242.661 213.4 244.441 214.98 244.441 217.28V224H243.481L243.361 222.22C242.461 223.46 240.941 224.16 239.101 224.16ZM236.361 221.06C236.361 222.32 237.421 223.12 239.141 223.12C241.541 223.12 243.301 221.62 243.301 219.54V219.1H238.761C237.341 219.1 236.361 219.88 236.361 221.06ZM256.184 224L251.564 213.66H252.824L254.624 217.66L256.764 222.48L258.884 217.66L260.704 213.66H261.944L257.324 224H256.184ZM264.415 224V213.66H265.575V224H264.415ZM263.935 210.72C263.935 210.14 264.355 209.68 264.995 209.68C265.635 209.68 266.055 210.14 266.055 210.72C266.055 211.32 265.635 211.78 264.995 211.78C264.355 211.78 263.935 211.32 263.935 210.72ZM269.689 224V209.2H270.849V224H269.689ZM284.385 224.26C281.185 224.26 278.945 222.02 278.945 218.82C278.945 215.64 281.185 213.4 284.385 213.4C287.565 213.4 289.805 215.64 289.805 218.82C289.805 222.02 287.565 224.26 284.385 224.26ZM280.105 218.82C280.105 221.38 281.845 223.14 284.385 223.14C286.905 223.14 288.645 221.38 288.645 218.82C288.645 216.28 286.905 214.52 284.385 214.52C281.845 214.52 280.105 216.28 280.105 218.82ZM298.549 224.26C296.649 224.26 295.109 223.4 294.189 222.04V228H293.029V213.66H294.009L294.129 215.72C295.029 214.28 296.609 213.4 298.549 213.4C301.689 213.4 303.849 215.68 303.849 218.82C303.849 221.96 301.689 224.26 298.549 224.26ZM294.149 218.82C294.149 221.36 295.889 223.14 298.429 223.14C300.969 223.14 302.689 221.36 302.689 218.82C302.689 216.3 300.969 214.52 298.429 214.52C295.889 214.52 294.149 216.3 294.149 218.82ZM312.592 224.26C310.692 224.26 309.152 223.4 308.232 222.04V228H307.072V213.66H308.052L308.172 215.72C309.072 214.28 310.652 213.4 312.592 213.4C315.732 213.4 317.892 215.68 317.892 218.82C317.892 221.96 315.732 224.26 312.592 224.26ZM308.192 218.82C308.192 221.36 309.932 223.14 312.472 223.14C315.012 223.14 316.732 221.36 316.732 218.82C316.732 216.3 315.012 214.52 312.472 214.52C309.932 214.52 308.192 216.3 308.192 218.82ZM325.655 228.26C323.115 228.26 321.235 226.92 320.835 224.82H322.015C322.355 226.26 323.755 227.16 325.655 227.16C328.035 227.16 329.555 225.76 329.555 223.54V221.86C328.635 223.12 327.155 223.88 325.395 223.88C322.375 223.88 320.215 221.68 320.215 218.64C320.215 215.6 322.375 213.4 325.395 213.4C327.215 213.4 328.715 214.2 329.635 215.52L329.735 213.66H330.715V223.58C330.715 226.36 328.675 228.26 325.655 228.26ZM321.375 218.64C321.375 221.06 323.075 222.74 325.515 222.74C327.935 222.74 329.635 221.06 329.635 218.64C329.635 216.22 327.935 214.52 325.515 214.52C323.075 214.52 321.375 216.22 321.375 218.64ZM338.066 224.16C335.666 224.16 334.166 222.98 334.166 221.08C334.166 219.24 335.566 218.08 337.686 218.08H342.246V217.34C342.246 215.62 340.986 214.48 339.066 214.48C337.506 214.48 336.286 215.28 335.866 216.52H334.686C335.186 214.6 336.846 213.4 339.046 213.4C341.626 213.4 343.406 214.98 343.406 217.28V224H342.446L342.326 222.22C341.426 223.46 339.906 224.16 338.066 224.16ZM335.326 221.06C335.326 222.32 336.386 223.12 338.106 223.12C340.506 223.12 342.266 221.62 342.266 219.54V219.1H337.726C336.306 219.1 335.326 219.88 335.326 221.06ZM349.836 224L345.216 213.66H346.476L348.276 217.66L350.416 222.48L352.536 217.66L354.356 213.66H355.596L350.976 224H349.836ZM362.057 224.26C358.917 224.26 356.777 222.04 356.777 218.82C356.777 215.62 358.937 213.4 362.077 213.4C365.337 213.4 367.437 215.8 367.357 219.3H357.957C358.157 221.64 359.757 223.16 362.057 223.16C363.737 223.16 365.077 222.38 365.757 221.04L367.057 221.06C366.257 223.04 364.377 224.26 362.057 224.26ZM357.957 218.28H366.217C365.937 215.94 364.337 214.5 362.077 214.5C359.777 214.5 358.157 216 357.957 218.28ZM370.529 224V209.2H371.689V215.54C372.509 214.12 373.949 213.4 375.569 213.4C378.249 213.4 379.889 215.26 379.889 218.24V224H378.729V218.34C378.729 215.96 377.469 214.52 375.409 214.52C373.229 214.52 371.689 216.14 371.689 218.62V224H370.529ZM387.03 224.16C384.63 224.16 383.13 222.98 383.13 221.08C383.13 219.24 384.53 218.08 386.65 218.08H391.21V217.34C391.21 215.62 389.95 214.48 388.03 214.48C386.47 214.48 385.25 215.28 384.83 216.52H383.65C384.15 214.6 385.81 213.4 388.01 213.4C390.59 213.4 392.37 214.98 392.37 217.28V224H391.41L391.29 222.22C390.39 223.46 388.87 224.16 387.03 224.16ZM384.29 221.06C384.29 222.32 385.35 223.12 387.07 223.12C389.47 223.12 391.23 221.62 391.23 219.54V219.1H386.69C385.27 219.1 384.29 219.88 384.29 221.06ZM385.81 210.1C385.81 208.84 386.75 207.96 388.01 207.96C389.27 207.96 390.21 208.84 390.21 210.1C390.21 211.36 389.27 212.22 388.01 212.22C386.75 212.22 385.81 211.36 385.81 210.1ZM386.67 210.1C386.67 210.88 387.23 211.44 388.01 211.44C388.79 211.44 389.35 210.88 389.35 210.1C389.35 209.3 388.79 208.74 388.01 208.74C387.23 208.74 386.67 209.3 386.67 210.1ZM396.271 224V213.66H397.251L397.351 215.66C398.171 214.18 399.611 213.4 401.271 213.4C403.971 213.4 405.631 215.3 405.631 218.28V224H404.471V218.38C404.471 216 403.191 214.52 401.131 214.52C398.951 214.52 397.431 216.18 397.431 218.64V224H396.271ZM413.933 224.26C410.813 224.26 408.633 221.96 408.633 218.82C408.633 215.68 410.813 213.4 413.933 213.4C415.833 213.4 417.373 214.24 418.293 215.58V209.2H419.453V224H418.493L418.353 221.96C417.453 223.38 415.873 224.26 413.933 224.26ZM409.793 218.82C409.793 221.36 411.533 223.14 414.073 223.14C416.593 223.14 418.333 221.36 418.333 218.82C418.333 216.3 416.593 214.52 414.073 214.52C411.533 214.52 409.793 216.3 409.793 218.82ZM427.776 224C425.576 224 424.396 222.76 424.396 220.42V214.72H422.136V213.66H423.456C424.236 213.66 424.456 213.46 424.536 212.7L424.636 211.12H425.556V213.66H429.136V214.72H425.556V220.38C425.556 222.08 426.256 222.88 427.816 222.88H429.276V224H427.776ZM436.256 224.26C433.116 224.26 430.976 222.04 430.976 218.82C430.976 215.62 433.136 213.4 436.276 213.4C439.536 213.4 441.636 215.8 441.556 219.3H432.156C432.356 221.64 433.956 223.16 436.256 223.16C437.936 223.16 439.276 222.38 439.956 221.04L441.256 221.06C440.456 223.04 438.576 224.26 436.256 224.26ZM432.156 218.28H440.416C440.136 215.94 438.536 214.5 436.276 214.5C433.976 214.5 432.356 216 432.156 218.28ZM444.728 224V213.66H445.708L445.828 215.98C446.528 214.42 447.708 213.66 449.628 213.66H450.488V214.74H449.588C447.368 214.74 445.888 216.1 445.888 219.24V224H444.728ZM453.4 224V213.66H454.56V224H453.4ZM452.92 210.72C452.92 210.14 453.34 209.68 453.98 209.68C454.62 209.68 455.04 210.14 455.04 210.72C455.04 211.32 454.62 211.78 453.98 211.78C453.34 211.78 452.92 211.32 452.92 210.72ZM458.673 224V213.66H459.653L459.753 215.66C460.573 214.18 462.013 213.4 463.673 213.4C466.373 213.4 468.033 215.3 468.033 218.28V224H466.873V218.38C466.873 216 465.593 214.52 463.533 214.52C461.353 214.52 459.833 216.18 459.833 218.64V224H458.673ZM476.475 228.26C473.935 228.26 472.055 226.92 471.655 224.82H472.835C473.175 226.26 474.575 227.16 476.475 227.16C478.855 227.16 480.375 225.76 480.375 223.54V221.86C479.455 223.12 477.975 223.88 476.215 223.88C473.195 223.88 471.035 221.68 471.035 218.64C471.035 215.6 473.195 213.4 476.215 213.4C478.035 213.4 479.535 214.2 480.455 215.52L480.555 213.66H481.535V223.58C481.535 226.36 479.495 228.26 476.475 228.26ZM472.195 218.64C472.195 221.06 473.895 222.74 476.335 222.74C478.755 222.74 480.455 221.06 480.455 218.64C480.455 216.22 478.755 214.52 476.335 214.52C473.895 214.52 472.195 216.22 472.195 218.64ZM494.128 224.26C491.508 224.26 489.848 222.94 489.768 220.88H490.908C491.028 222.34 492.168 223.2 494.148 223.2C495.968 223.2 497.068 222.5 497.068 221.36C497.068 220.28 496.088 219.62 493.888 219.24C491.188 218.78 489.968 217.82 489.968 216.24C489.968 214.48 491.468 213.4 493.888 213.4C496.328 213.4 497.868 214.56 498.028 216.54H496.868C496.748 215.18 495.688 214.44 493.888 214.44C492.168 214.44 491.128 215.14 491.128 216.26C491.128 217.28 491.988 217.84 494.288 218.28C496.908 218.78 498.208 219.82 498.208 221.38C498.208 223.12 496.628 224.26 494.128 224.26ZM501.564 224V213.66H502.724V224H501.564ZM501.084 210.72C501.084 210.14 501.504 209.68 502.144 209.68C502.784 209.68 503.204 210.14 503.204 210.72C503.204 211.32 502.784 211.78 502.144 211.78C501.504 211.78 501.084 211.32 501.084 210.72ZM514.426 219.64C514.426 218.26 514.986 217.38 516.486 216.46C517.966 215.52 518.486 214.76 518.486 213.56C518.486 211.9 517.326 210.9 515.346 210.9C513.386 210.9 512.106 211.92 512.006 213.64H510.826C510.966 211.22 512.666 209.74 515.306 209.74C517.926 209.74 519.666 211.24 519.666 213.52C519.666 215.04 518.906 216.24 517.126 217.36C515.926 218.1 515.606 218.64 515.606 219.72V220.16H514.426V219.64ZM513.946 223.08C513.946 222.46 514.386 222.04 515.026 222.04C515.646 222.04 516.086 222.46 516.086 223.08C516.086 223.7 515.646 224.12 515.026 224.12C514.386 224.12 513.946 223.7 513.946 223.08Z" fill="black"/>
<path d="M663.68 239V232.44H655.48V239H654.26V225H655.48V231.28H663.68V225H664.9V239H663.68ZM672.176 239L667.556 228.66H668.816L670.616 232.66L672.756 237.48L674.876 232.66L676.696 228.66H677.936L673.316 239H672.176ZM680.408 239V228.66H681.568V239H680.408ZM679.928 225.72C679.928 225.14 680.348 224.68 680.988 224.68C681.628 224.68 682.048 225.14 682.048 225.72C682.048 226.32 681.628 226.78 680.988 226.78C680.348 226.78 679.928 226.32 679.928 225.72ZM685.681 239V224.2H686.841V239H685.681ZM690.955 239V224.2H692.115V233.2H693.635C695.555 233.2 696.395 232.7 697.055 230.96L697.935 228.66H699.175L698.135 231.4C697.675 232.56 697.135 233.3 696.315 233.74L699.675 239H698.295L695.235 234.14C694.755 234.24 694.215 234.28 693.595 234.28H692.115V239H690.955ZM706.585 239.26C703.445 239.26 701.305 237.04 701.305 233.82C701.305 230.62 703.465 228.4 706.605 228.4C709.865 228.4 711.965 230.8 711.885 234.3H702.485C702.685 236.64 704.285 238.16 706.585 238.16C708.265 238.16 709.605 237.38 710.285 236.04L711.585 236.06C710.785 238.04 708.905 239.26 706.585 239.26ZM702.485 233.28H710.745C710.465 230.94 708.865 229.5 706.605 229.5C704.305 229.5 702.685 231 702.485 233.28ZM719.939 239V228.66H720.919L721.019 230.34C721.739 229.08 722.999 228.4 724.599 228.4C726.399 228.4 727.779 229.3 728.379 230.88C729.079 229.3 730.499 228.4 732.319 228.4C734.919 228.4 736.599 230.18 736.599 233.06V239H735.439V233.24C735.439 230.94 734.159 229.52 732.179 229.52C730.159 229.52 728.839 230.98 728.839 233.32V239H727.679V233.24C727.679 230.94 726.419 229.52 724.439 229.52C722.419 229.52 721.099 230.98 721.099 233.32V239H719.939ZM744.866 239.26C741.726 239.26 739.586 237.04 739.586 233.82C739.586 230.62 741.746 228.4 744.886 228.4C748.146 228.4 750.246 230.8 750.166 234.3H740.766C740.966 236.64 742.566 238.16 744.866 238.16C746.546 238.16 747.886 237.38 748.566 236.04L749.866 236.06C749.066 238.04 747.186 239.26 744.866 239.26ZM740.766 233.28H749.026C748.746 230.94 747.146 229.5 744.886 229.5C742.586 229.5 740.966 231 740.766 233.28ZM757.205 239C755.005 239 753.825 237.76 753.825 235.42V229.72H751.565V228.66H752.885C753.665 228.66 753.885 228.46 753.965 227.7L754.065 226.12H754.985V228.66H758.565V229.72H754.985V235.38C754.985 237.08 755.685 237.88 757.245 237.88H758.705V239H757.205ZM765.846 239.26C762.646 239.26 760.406 237.02 760.406 233.82C760.406 230.64 762.646 228.4 765.846 228.4C769.026 228.4 771.266 230.64 771.266 233.82C771.266 237.02 769.026 239.26 765.846 239.26ZM761.566 233.82C761.566 236.38 763.306 238.14 765.846 238.14C768.366 238.14 770.106 236.38 770.106 233.82C770.106 231.28 768.366 229.52 765.846 229.52C763.306 229.52 761.566 231.28 761.566 233.82ZM778.89 239.26C775.77 239.26 773.59 236.96 773.59 233.82C773.59 230.68 775.77 228.4 778.89 228.4C780.79 228.4 782.33 229.24 783.25 230.58V224.2H784.41V239H783.45L783.31 236.96C782.41 238.38 780.83 239.26 778.89 239.26ZM774.75 233.82C774.75 236.36 776.49 238.14 779.03 238.14C781.55 238.14 783.29 236.36 783.29 233.82C783.29 231.3 781.55 229.52 779.03 229.52C776.49 229.52 774.75 231.3 774.75 233.82ZM792.913 239.26C789.773 239.26 787.633 237.04 787.633 233.82C787.633 230.62 789.793 228.4 792.933 228.4C796.193 228.4 798.293 230.8 798.213 234.3H788.813C789.013 236.64 790.613 238.16 792.913 238.16C794.593 238.16 795.933 237.38 796.613 236.04L797.913 236.06C797.113 238.04 795.233 239.26 792.913 239.26ZM788.813 233.28H797.073C796.793 230.94 795.193 229.5 792.933 229.5C790.633 229.5 789.013 231 788.813 233.28ZM801.384 239V228.66H802.364L802.484 230.98C803.184 229.42 804.364 228.66 806.284 228.66H807.144V229.74H806.244C804.024 229.74 802.544 231.1 802.544 234.24V239H801.384ZM822.974 239V229.72H816.454V239H815.294V229.72H812.934V228.66H815.294V227.46C815.294 225.12 816.474 223.94 818.814 223.94H820.314V225.04H818.914C817.194 225.04 816.454 225.78 816.454 227.54V228.66H824.134V239H822.974ZM822.474 225.72C822.474 225.14 822.914 224.68 823.554 224.68C824.174 224.68 824.614 225.14 824.614 225.72C824.614 226.32 824.174 226.78 823.554 226.78C822.914 226.78 822.474 226.32 822.474 225.72ZM828.259 239V228.66H829.239L829.339 230.66C830.159 229.18 831.599 228.4 833.259 228.4C835.959 228.4 837.619 230.3 837.619 233.28V239H836.459V233.38C836.459 231 835.179 229.52 833.119 229.52C830.939 229.52 829.419 231.18 829.419 233.64V239H828.259ZM841.521 239V228.66H842.501L842.601 230.66C843.421 229.18 844.861 228.4 846.521 228.4C849.221 228.4 850.881 230.3 850.881 233.28V239H849.721V233.38C849.721 231 848.441 229.52 846.381 229.52C844.201 229.52 842.681 231.18 842.681 233.64V239H841.521ZM859.163 239.26C856.023 239.26 853.883 237.04 853.883 233.82C853.883 230.62 856.043 228.4 859.183 228.4C862.443 228.4 864.543 230.8 864.463 234.3H855.063C855.263 236.64 856.863 238.16 859.163 238.16C860.843 238.16 862.183 237.38 862.863 236.04L864.163 236.06C863.363 238.04 861.483 239.26 859.163 239.26ZM855.063 233.28H863.323C863.043 230.94 861.443 229.5 859.183 229.5C856.883 229.5 855.263 231 855.063 233.28ZM871.194 239.26C868.574 239.26 866.914 237.94 866.834 235.88H867.974C868.094 237.34 869.234 238.2 871.214 238.2C873.034 238.2 874.134 237.5 874.134 236.36C874.134 235.28 873.154 234.62 870.954 234.24C868.254 233.78 867.034 232.82 867.034 231.24C867.034 229.48 868.534 228.4 870.954 228.4C873.394 228.4 874.934 229.56 875.094 231.54H873.934C873.814 230.18 872.754 229.44 870.954 229.44C869.234 229.44 868.194 230.14 868.194 231.26C868.194 232.28 869.054 232.84 871.354 233.28C873.974 233.78 875.274 234.82 875.274 236.38C875.274 238.12 873.694 239.26 871.194 239.26ZM887.483 239.26C884.363 239.26 882.183 236.96 882.183 233.82C882.183 230.68 884.363 228.4 887.483 228.4C889.383 228.4 890.923 229.24 891.843 230.58V224.2H893.003V239H892.043L891.903 236.96C891.003 238.38 889.423 239.26 887.483 239.26ZM883.343 233.82C883.343 236.36 885.083 238.14 887.623 238.14C890.143 238.14 891.883 236.36 891.883 233.82C891.883 231.3 890.143 229.52 887.623 229.52C885.083 229.52 883.343 231.3 883.343 233.82ZM901.506 239.26C898.366 239.26 896.226 237.04 896.226 233.82C896.226 230.62 898.386 228.4 901.526 228.4C904.786 228.4 906.886 230.8 906.806 234.3H897.406C897.606 236.64 899.206 238.16 901.506 238.16C903.186 238.16 904.526 237.38 905.206 236.04L906.506 236.06C905.706 238.04 903.826 239.26 901.506 239.26ZM897.406 233.28H905.666C905.386 230.94 903.786 229.5 901.526 229.5C899.226 229.5 897.606 231 897.406 233.28ZM913.846 239C911.646 239 910.466 237.76 910.466 235.42V229.72H908.206V228.66H909.526C910.306 228.66 910.526 228.46 910.606 227.7L910.706 226.12H911.626V228.66H915.206V229.72H911.626V235.38C911.626 237.08 912.326 237.88 913.886 237.88H915.346V239H913.846ZM924.025 227.46C924.025 225.1 925.185 223.94 927.485 223.94H929.105V225.04H927.585C925.905 225.04 925.185 225.78 925.185 227.54V228.66H929.005V229.72H925.185V239H924.025V229.72H921.665V228.66H924.025V227.46ZM935.573 239.26C932.373 239.26 930.133 237.02 930.133 233.82C930.133 230.64 932.373 228.4 935.573 228.4C938.753 228.4 940.993 230.64 940.993 233.82C940.993 237.02 938.753 239.26 935.573 239.26ZM931.293 233.82C931.293 236.38 933.033 238.14 935.573 238.14C938.093 238.14 939.833 236.38 939.833 233.82C939.833 231.28 938.093 229.52 935.573 229.52C933.033 229.52 931.293 231.28 931.293 233.82ZM944.216 239V228.66H945.196L945.316 230.98C946.016 229.42 947.196 228.66 949.116 228.66H949.976V229.74H949.076C946.856 229.74 945.376 231.1 945.376 234.24V239H944.216ZM658.6 268.26C655.4 268.26 653.16 266.02 653.16 262.82C653.16 259.64 655.4 257.4 658.6 257.4C661.78 257.4 664.02 259.64 664.02 262.82C664.02 266.02 661.78 268.26 658.6 268.26ZM654.32 262.82C654.32 265.38 656.06 267.14 658.6 267.14C661.12 267.14 662.86 265.38 662.86 262.82C662.86 260.28 661.12 258.52 658.6 258.52C656.06 258.52 654.32 260.28 654.32 262.82ZM672.764 268.26C670.864 268.26 669.324 267.4 668.404 266.04V272H667.244V257.66H668.224L668.344 259.72C669.244 258.28 670.824 257.4 672.764 257.4C675.904 257.4 678.064 259.68 678.064 262.82C678.064 265.96 675.904 268.26 672.764 268.26ZM668.364 262.82C668.364 265.36 670.104 267.14 672.644 267.14C675.184 267.14 676.904 265.36 676.904 262.82C676.904 260.3 675.184 258.52 672.644 258.52C670.104 258.52 668.364 260.3 668.364 262.82ZM686.807 268.26C684.907 268.26 683.367 267.4 682.447 266.04V272H681.287V257.66H682.267L682.387 259.72C683.287 258.28 684.867 257.4 686.807 257.4C689.947 257.4 692.107 259.68 692.107 262.82C692.107 265.96 689.947 268.26 686.807 268.26ZM682.407 262.82C682.407 265.36 684.147 267.14 686.687 267.14C689.227 267.14 690.947 265.36 690.947 262.82C690.947 260.3 689.227 258.52 686.687 258.52C684.147 258.52 682.407 260.3 682.407 262.82ZM699.87 272.26C697.33 272.26 695.45 270.92 695.05 268.82H696.23C696.57 270.26 697.97 271.16 699.87 271.16C702.25 271.16 703.77 269.76 703.77 267.54V265.86C702.85 267.12 701.37 267.88 699.61 267.88C696.59 267.88 694.43 265.68 694.43 262.64C694.43 259.6 696.59 257.4 699.61 257.4C701.43 257.4 702.93 258.2 703.85 259.52L703.95 257.66H704.93V267.58C704.93 270.36 702.89 272.26 699.87 272.26ZM695.59 262.64C695.59 265.06 697.29 266.74 699.73 266.74C702.15 266.74 703.85 265.06 703.85 262.64C703.85 260.22 702.15 258.52 699.73 258.52C697.29 258.52 695.59 260.22 695.59 262.64ZM712.28 268.16C709.88 268.16 708.38 266.98 708.38 265.08C708.38 263.24 709.78 262.08 711.9 262.08H716.46V261.34C716.46 259.62 715.2 258.48 713.28 258.48C711.72 258.48 710.5 259.28 710.08 260.52H708.9C709.4 258.6 711.06 257.4 713.26 257.4C715.84 257.4 717.62 258.98 717.62 261.28V268H716.66L716.54 266.22C715.64 267.46 714.12 268.16 712.28 268.16ZM709.54 265.06C709.54 266.32 710.6 267.12 712.32 267.12C714.72 267.12 716.48 265.62 716.48 263.54V263.1H711.94C710.52 263.1 709.54 263.88 709.54 265.06ZM724.051 268L719.431 257.66H720.691L722.491 261.66L724.631 266.48L726.751 261.66L728.571 257.66H729.811L725.191 268H724.051ZM736.272 268.26C733.132 268.26 730.992 266.04 730.992 262.82C730.992 259.62 733.152 257.4 736.292 257.4C739.552 257.4 741.652 259.8 741.572 263.3H732.172C732.372 265.64 733.972 267.16 736.272 267.16C737.952 267.16 739.292 266.38 739.972 265.04L741.272 265.06C740.472 267.04 738.592 268.26 736.272 268.26ZM732.172 262.28H740.432C740.152 259.94 738.552 258.5 736.292 258.5C733.992 258.5 732.372 260 732.172 262.28ZM744.744 268V253.2H745.904V259.54C746.724 258.12 748.164 257.4 749.784 257.4C752.464 257.4 754.104 259.26 754.104 262.24V268H752.944V262.34C752.944 259.96 751.684 258.52 749.624 258.52C747.444 258.52 745.904 260.14 745.904 262.62V268H744.744ZM761.245 268.16C758.845 268.16 757.345 266.98 757.345 265.08C757.345 263.24 758.745 262.08 760.865 262.08H765.425V261.34C765.425 259.62 764.165 258.48 762.245 258.48C760.685 258.48 759.465 259.28 759.045 260.52H757.865C758.365 258.6 760.025 257.4 762.225 257.4C764.805 257.4 766.585 258.98 766.585 261.28V268H765.625L765.505 266.22C764.605 267.46 763.085 268.16 761.245 268.16ZM758.505 265.06C758.505 266.32 759.565 267.12 761.285 267.12C763.685 267.12 765.445 265.62 765.445 263.54V263.1H760.905C759.485 263.1 758.505 263.88 758.505 265.06ZM760.025 254.1C760.025 252.84 760.965 251.96 762.225 251.96C763.485 251.96 764.425 252.84 764.425 254.1C764.425 255.36 763.485 256.22 762.225 256.22C760.965 256.22 760.025 255.36 760.025 254.1ZM760.885 254.1C760.885 254.88 761.445 255.44 762.225 255.44C763.005 255.44 763.565 254.88 763.565 254.1C763.565 253.3 763.005 252.74 762.225 252.74C761.445 252.74 760.885 253.3 760.885 254.1ZM770.486 268V257.66H771.466L771.566 259.66C772.386 258.18 773.826 257.4 775.486 257.4C778.186 257.4 779.846 259.3 779.846 262.28V268H778.686V262.38C778.686 260 777.406 258.52 775.346 258.52C773.166 258.52 771.646 260.18 771.646 262.64V268H770.486ZM788.148 268.26C785.028 268.26 782.848 265.96 782.848 262.82C782.848 259.68 785.028 257.4 788.148 257.4C790.048 257.4 791.588 258.24 792.508 259.58V253.2H793.668V268H792.707L792.568 265.96C791.668 267.38 790.088 268.26 788.148 268.26ZM784.008 262.82C784.008 265.36 785.748 267.14 788.288 267.14C790.808 267.14 792.548 265.36 792.548 262.82C792.548 260.3 790.808 258.52 788.288 258.52C785.748 258.52 784.008 260.3 784.008 262.82ZM801.99 268C799.79 268 798.61 266.76 798.61 264.42V258.72H796.35V257.66H797.67C798.45 257.66 798.67 257.46 798.75 256.7L798.85 255.12H799.77V257.66H803.35V258.72H799.77V264.38C799.77 266.08 800.47 266.88 802.03 266.88H803.49V268H801.99ZM810.471 268.26C807.331 268.26 805.191 266.04 805.191 262.82C805.191 259.62 807.351 257.4 810.491 257.4C813.751 257.4 815.851 259.8 815.771 263.3H806.371C806.571 265.64 808.171 267.16 810.471 267.16C812.151 267.16 813.491 266.38 814.171 265.04L815.471 265.06C814.671 267.04 812.791 268.26 810.471 268.26ZM806.371 262.28H814.631C814.351 259.94 812.751 258.5 810.491 258.5C808.191 258.5 806.571 260 806.371 262.28ZM818.943 268V257.66H819.923L820.043 259.98C820.743 258.42 821.923 257.66 823.843 257.66H824.703V258.74H823.803C821.583 258.74 820.103 260.1 820.103 263.24V268H818.943ZM827.615 268V257.66H828.775V268H827.615ZM827.135 254.72C827.135 254.14 827.555 253.68 828.195 253.68C828.835 253.68 829.255 254.14 829.255 254.72C829.255 255.32 828.835 255.78 828.195 255.78C827.555 255.78 827.135 255.32 827.135 254.72ZM832.888 268V257.66H833.868L833.968 259.66C834.788 258.18 836.228 257.4 837.888 257.4C840.588 257.4 842.248 259.3 842.248 262.28V268H841.088V262.38C841.088 260 839.808 258.52 837.748 258.52C835.568 258.52 834.048 260.18 834.048 262.64V268H832.888ZM850.69 272.26C848.15 272.26 846.27 270.92 845.87 268.82H847.05C847.39 270.26 848.79 271.16 850.69 271.16C853.07 271.16 854.59 269.76 854.59 267.54V265.86C853.67 267.12 852.19 267.88 850.43 267.88C847.41 267.88 845.25 265.68 845.25 262.64C845.25 259.6 847.41 257.4 850.43 257.4C852.25 257.4 853.75 258.2 854.67 259.52L854.77 257.66H855.75V267.58C855.75 270.36 853.71 272.26 850.69 272.26ZM846.41 262.64C846.41 265.06 848.11 266.74 850.55 266.74C852.97 266.74 854.67 265.06 854.67 262.64C854.67 260.22 852.97 258.52 850.55 258.52C848.11 258.52 846.41 260.22 846.41 262.64ZM865.212 268V257.66H866.372V268H865.212ZM864.732 254.72C864.732 254.14 865.152 253.68 865.792 253.68C866.432 253.68 866.852 254.14 866.852 254.72C866.852 255.32 866.432 255.78 865.792 255.78C865.152 255.78 864.732 255.32 864.732 254.72ZM874.886 268.26C871.766 268.26 869.586 265.96 869.586 262.82C869.586 259.68 871.766 257.4 874.886 257.4C876.786 257.4 878.326 258.24 879.246 259.58V253.2H880.406V268H879.446L879.306 265.96C878.406 267.38 876.826 268.26 874.886 268.26ZM870.746 262.82C870.746 265.36 872.486 267.14 875.026 267.14C877.546 267.14 879.286 265.36 879.286 262.82C879.286 260.3 877.546 258.52 875.026 258.52C872.486 258.52 870.746 260.3 870.746 262.82ZM887.769 268.16C885.369 268.16 883.869 266.98 883.869 265.08C883.869 263.24 885.269 262.08 887.389 262.08H891.949V261.34C891.949 259.62 890.689 258.48 888.769 258.48C887.209 258.48 885.989 259.28 885.569 260.52H884.389C884.889 258.6 886.549 257.4 888.749 257.4C891.329 257.4 893.109 258.98 893.109 261.28V268H892.149L892.029 266.22C891.129 267.46 889.609 268.16 887.769 268.16ZM885.029 265.06C885.029 266.32 886.089 267.12 887.809 267.12C890.209 267.12 891.969 265.62 891.969 263.54V263.1H887.429C886.009 263.1 885.029 263.88 885.029 265.06ZM901.549 272.26C899.009 272.26 897.129 270.92 896.729 268.82H897.909C898.249 270.26 899.649 271.16 901.549 271.16C903.929 271.16 905.449 269.76 905.449 267.54V265.86C904.529 267.12 903.049 267.88 901.289 267.88C898.269 267.88 896.109 265.68 896.109 262.64C896.109 259.6 898.269 257.4 901.289 257.4C903.109 257.4 904.609 258.2 905.529 259.52L905.629 257.66H906.609V267.58C906.609 270.36 904.569 272.26 901.549 272.26ZM897.269 262.64C897.269 265.06 898.969 266.74 901.409 266.74C903.829 266.74 905.529 265.06 905.529 262.64C905.529 260.22 903.829 258.52 901.409 258.52C898.969 258.52 897.269 260.22 897.269 262.64ZM913.406 263.64C913.406 262.26 913.966 261.38 915.466 260.46C916.946 259.52 917.466 258.76 917.466 257.56C917.466 255.9 916.306 254.9 914.326 254.9C912.366 254.9 911.086 255.92 910.986 257.64H909.806C909.946 255.22 911.646 253.74 914.286 253.74C916.906 253.74 918.646 255.24 918.646 257.52C918.646 259.04 917.886 260.24 916.106 261.36C914.906 262.1 914.586 262.64 914.586 263.72V264.16H913.406V263.64ZM912.926 267.08C912.926 266.46 913.366 266.04 914.006 266.04C914.626 266.04 915.066 266.46 915.066 267.08C915.066 267.7 914.626 268.12 914.006 268.12C913.366 268.12 912.926 267.7 912.926 267.08Z" fill="black"/>
<path d="M753.68 87V80.44H745.48V87H744.26V73H745.48V79.28H753.68V73H754.9V87H753.68ZM762.176 87L757.556 76.66H758.816L760.616 80.66L762.756 85.48L764.876 80.66L766.696 76.66H767.936L763.316 87H762.176ZM774.557 87.26C771.357 87.26 769.117 85.02 769.117 81.82C769.117 78.64 771.357 76.4 774.557 76.4C777.737 76.4 779.977 78.64 779.977 81.82C779.977 85.02 777.737 87.26 774.557 87.26ZM770.277 81.82C770.277 84.38 772.017 86.14 774.557 86.14C777.077 86.14 778.817 84.38 778.817 81.82C778.817 79.28 777.077 77.52 774.557 77.52C772.017 77.52 770.277 79.28 770.277 81.82ZM783.201 87V76.66H784.181L784.301 78.98C785.001 77.42 786.181 76.66 788.101 76.66H788.961V77.74H788.061C785.841 77.74 784.361 79.1 784.361 82.24V87H783.201ZM795.472 87.26C792.352 87.26 790.172 84.96 790.172 81.82C790.172 78.68 792.352 76.4 795.472 76.4C797.372 76.4 798.912 77.24 799.832 78.58V72.2H800.992V87H800.032L799.892 84.96C798.992 86.38 797.412 87.26 795.472 87.26ZM791.332 81.82C791.332 84.36 793.072 86.14 795.612 86.14C798.132 86.14 799.872 84.36 799.872 81.82C799.872 79.3 798.132 77.52 795.612 77.52C793.072 77.52 791.332 79.3 791.332 81.82ZM808.355 87.16C805.955 87.16 804.455 85.98 804.455 84.08C804.455 82.24 805.855 81.08 807.975 81.08H812.535V80.34C812.535 78.62 811.275 77.48 809.355 77.48C807.795 77.48 806.575 78.28 806.155 79.52H804.975C805.475 77.6 807.135 76.4 809.335 76.4C811.915 76.4 813.695 77.98 813.695 80.28V87H812.735L812.615 85.22C811.715 86.46 810.195 87.16 808.355 87.16ZM805.615 84.06C805.615 85.32 806.675 86.12 808.395 86.12C810.795 86.12 812.555 84.62 812.555 82.54V82.1H808.015C806.595 82.1 805.615 82.88 805.615 84.06ZM817.595 87V76.66H818.575L818.675 78.66C819.495 77.18 820.935 76.4 822.595 76.4C825.295 76.4 826.955 78.3 826.955 81.28V87H825.795V81.38C825.795 79 824.515 77.52 822.455 77.52C820.275 77.52 818.755 79.18 818.755 81.64V87H817.595ZM844.107 87V77.72H837.587V87H836.427V77.72H834.067V76.66H836.427V75.46C836.427 73.12 837.607 71.94 839.947 71.94H841.447V73.04H840.047C838.327 73.04 837.587 73.78 837.587 75.54V76.66H845.267V87H844.107ZM843.607 73.72C843.607 73.14 844.047 72.68 844.687 72.68C845.307 72.68 845.747 73.14 845.747 73.72C845.747 74.32 845.307 74.78 844.687 74.78C844.047 74.78 843.607 74.32 843.607 73.72ZM849.392 87V76.66H850.372L850.472 78.66C851.292 77.18 852.732 76.4 854.392 76.4C857.092 76.4 858.752 78.3 858.752 81.28V87H857.592V81.38C857.592 79 856.312 77.52 854.252 77.52C852.072 77.52 850.552 79.18 850.552 81.64V87H849.392ZM862.654 87V76.66H863.634L863.734 78.66C864.554 77.18 865.994 76.4 867.654 76.4C870.354 76.4 872.014 78.3 872.014 81.28V87H870.854V81.38C870.854 79 869.574 77.52 867.514 77.52C865.334 77.52 863.814 79.18 863.814 81.64V87H862.654ZM880.295 87.26C877.155 87.26 875.015 85.04 875.015 81.82C875.015 78.62 877.175 76.4 880.315 76.4C883.575 76.4 885.675 78.8 885.595 82.3H876.195C876.395 84.64 877.995 86.16 880.295 86.16C881.975 86.16 883.315 85.38 883.995 84.04L885.295 84.06C884.495 86.04 882.615 87.26 880.295 87.26ZM876.195 81.28H884.455C884.175 78.94 882.575 77.5 880.315 77.5C878.015 77.5 876.395 79 876.195 81.28ZM888.767 87V76.66H889.747L889.867 78.98C890.567 77.42 891.747 76.66 893.667 76.66H894.527V77.74H893.627C891.407 77.74 889.927 79.1 889.927 82.24V87H888.767ZM904.95 87L900.33 76.66H901.59L903.39 80.66L905.53 85.48L907.65 80.66L909.47 76.66H910.71L906.09 87H904.95ZM913.181 87V76.66H914.341V87H913.181ZM912.701 73.72C912.701 73.14 913.121 72.68 913.761 72.68C914.401 72.68 914.821 73.14 914.821 73.72C914.821 74.32 914.401 74.78 913.761 74.78C913.121 74.78 912.701 74.32 912.701 73.72ZM927.788 87.26C925.128 87.26 923.488 85.36 923.488 82.38V76.66H924.648V82.28C924.648 84.64 925.908 86.14 927.948 86.14C930.088 86.14 931.568 84.46 931.568 82V76.66H932.728V87H931.768L931.648 84.98C930.848 86.48 929.408 87.26 927.788 87.26ZM941.053 87C938.853 87 937.673 85.76 937.673 83.42V77.72H935.413V76.66H936.733C937.513 76.66 937.733 76.46 937.813 75.7L937.913 74.12H938.833V76.66H942.413V77.72H938.833V83.38C938.833 85.08 939.533 85.88 941.093 85.88H942.553V87H941.053ZM951.013 87V72.2H952.173V78.54C952.993 77.12 954.433 76.4 956.053 76.4C958.733 76.4 960.373 78.26 960.373 81.24V87H959.213V81.34C959.213 78.96 957.953 77.52 955.893 77.52C953.713 77.52 952.173 79.14 952.173 81.62V87H951.013ZM966.805 87L962.185 76.66H963.445L965.245 80.66L967.385 85.48L969.505 80.66L971.325 76.66H972.565L967.945 87H966.805ZM977.73 87.16C975.33 87.16 973.83 85.98 973.83 84.08C973.83 82.24 975.23 81.08 977.35 81.08H981.91V80.34C981.91 78.62 980.65 77.48 978.73 77.48C977.17 77.48 975.95 78.28 975.53 79.52H974.35C974.85 77.6 976.51 76.4 978.71 76.4C981.29 76.4 983.07 77.98 983.07 80.28V87H982.11L981.99 85.22C981.09 86.46 979.57 87.16 977.73 87.16ZM974.99 84.06C974.99 85.32 976.05 86.12 977.77 86.12C980.17 86.12 981.93 84.62 981.93 82.54V82.1H977.39C975.97 82.1 974.99 82.88 974.99 84.06ZM995.452 87.26C992.832 87.26 991.172 85.94 991.092 83.88H992.232C992.352 85.34 993.492 86.2 995.472 86.2C997.292 86.2 998.392 85.5 998.392 84.36C998.392 83.28 997.412 82.62 995.212 82.24C992.512 81.78 991.292 80.82 991.292 79.24C991.292 77.48 992.792 76.4 995.212 76.4C997.652 76.4 999.192 77.56 999.352 79.54H998.192C998.072 78.18 997.012 77.44 995.212 77.44C993.492 77.44 992.452 78.14 992.452 79.26C992.452 80.28 993.312 80.84 995.612 81.28C998.232 81.78 999.532 82.82 999.532 84.38C999.532 86.12 997.952 87.26 995.452 87.26ZM1007.43 87.26C1004.23 87.26 1001.99 85.02 1001.99 81.82C1001.99 78.64 1004.23 76.4 1007.43 76.4C1010.61 76.4 1012.85 78.64 1012.85 81.82C1012.85 85.02 1010.61 87.26 1007.43 87.26ZM1003.15 81.82C1003.15 84.38 1004.89 86.14 1007.43 86.14C1009.95 86.14 1011.69 84.38 1011.69 81.82C1011.69 79.28 1009.95 77.52 1007.43 77.52C1004.89 77.52 1003.15 79.28 1003.15 81.82ZM1016.07 87V76.66H1017.05L1017.15 78.34C1017.87 77.08 1019.13 76.4 1020.73 76.4C1022.53 76.4 1023.91 77.3 1024.51 78.88C1025.21 77.3 1026.63 76.4 1028.45 76.4C1031.05 76.4 1032.73 78.18 1032.73 81.06V87H1031.57V81.24C1031.57 78.94 1030.29 77.52 1028.31 77.52C1026.29 77.52 1024.97 78.98 1024.97 81.32V87H1023.81V81.24C1023.81 78.94 1022.55 77.52 1020.57 77.52C1018.55 77.52 1017.23 78.98 1017.23 81.32V87H1016.07ZM1045.88 87.26C1042.74 87.26 1040.6 85.04 1040.6 81.82C1040.6 78.62 1042.76 76.4 1045.9 76.4C1049.16 76.4 1051.26 78.8 1051.18 82.3H1041.78C1041.98 84.64 1043.58 86.16 1045.88 86.16C1047.56 86.16 1048.9 85.38 1049.58 84.04L1050.88 84.06C1050.08 86.04 1048.2 87.26 1045.88 87.26ZM1041.78 81.28H1050.04C1049.76 78.94 1048.16 77.5 1045.9 77.5C1043.6 77.5 1041.98 79 1041.78 81.28ZM1054.35 87V76.66H1055.33L1055.45 78.98C1056.15 77.42 1057.33 76.66 1059.25 76.66H1060.11V77.74H1059.21C1056.99 77.74 1055.51 79.1 1055.51 82.24V87H1054.35ZM744.06 116V105.66H745.04L745.16 107.98C745.86 106.42 747.04 105.66 748.96 105.66H749.82V106.74H748.92C746.7 106.74 745.22 108.1 745.22 111.24V116H744.06ZM756.311 116.26C753.171 116.26 751.031 114.04 751.031 110.82C751.031 107.62 753.191 105.4 756.331 105.4C759.591 105.4 761.691 107.8 761.611 111.3H752.211C752.411 113.64 754.011 115.16 756.311 115.16C757.991 115.16 759.331 114.38 760.011 113.04L761.311 113.06C760.511 115.04 758.631 116.26 756.311 116.26ZM752.211 110.28H760.471C760.191 107.94 758.591 106.5 756.331 106.5C754.031 106.5 752.411 108 752.211 110.28ZM764.783 116V101.2H765.943V116H764.783ZM774.436 116.26C771.296 116.26 769.156 114.04 769.156 110.82C769.156 107.62 771.316 105.4 774.456 105.4C777.716 105.4 779.816 107.8 779.736 111.3H770.336C770.536 113.64 772.136 115.16 774.436 115.16C776.116 115.16 777.456 114.38 778.136 113.04L779.436 113.06C778.636 115.04 776.756 116.26 774.436 116.26ZM770.336 110.28H778.596C778.316 107.94 776.716 106.5 774.456 106.5C772.156 106.5 770.536 108 770.336 110.28ZM785.477 116L780.857 105.66H782.117L783.917 109.66L786.057 114.48L788.177 109.66L789.997 105.66H791.237L786.617 116H785.477ZM796.402 116.16C794.002 116.16 792.502 114.98 792.502 113.08C792.502 111.24 793.902 110.08 796.022 110.08H800.582V109.34C800.582 107.62 799.322 106.48 797.402 106.48C795.842 106.48 794.622 107.28 794.202 108.52H793.022C793.522 106.6 795.182 105.4 797.382 105.4C799.962 105.4 801.742 106.98 801.742 109.28V116H800.782L800.662 114.22C799.762 115.46 798.242 116.16 796.402 116.16ZM793.662 113.06C793.662 114.32 794.722 115.12 796.442 115.12C798.842 115.12 800.602 113.62 800.602 111.54V111.1H796.062C794.642 111.1 793.662 111.88 793.662 113.06ZM805.642 116V105.66H806.622L806.722 107.66C807.542 106.18 808.982 105.4 810.642 105.4C813.342 105.4 815.002 107.3 815.002 110.28V116H813.842V110.38C813.842 108 812.562 106.52 810.502 106.52C808.322 106.52 806.802 108.18 806.802 110.64V116H805.642ZM822.772 116C820.572 116 819.392 114.76 819.392 112.42V106.72H817.132V105.66H818.452C819.232 105.66 819.452 105.46 819.532 104.7L819.632 103.12H820.552V105.66H824.132V106.72H820.552V112.38C820.552 114.08 821.252 114.88 822.812 114.88H824.272V116H822.772ZM832.951 104.46C832.951 102.1 834.111 100.94 836.411 100.94H838.031V102.04H836.511C834.831 102.04 834.111 102.78 834.111 104.54V105.66H837.931V106.72H834.111V116H832.951V106.72H830.591V105.66H832.951V104.46ZM844.498 116.26C841.298 116.26 839.058 114.02 839.058 110.82C839.058 107.64 841.298 105.4 844.498 105.4C847.678 105.4 849.918 107.64 849.918 110.82C849.918 114.02 847.678 116.26 844.498 116.26ZM840.218 110.82C840.218 113.38 841.958 115.14 844.498 115.14C847.018 115.14 848.758 113.38 848.758 110.82C848.758 108.28 847.018 106.52 844.498 106.52C841.958 106.52 840.218 108.28 840.218 110.82ZM853.142 116V105.66H854.122L854.242 107.98C854.942 106.42 856.122 105.66 858.042 105.66H858.902V106.74H858.002C855.782 106.74 854.302 108.1 854.302 111.24V116H853.142ZM870.765 116.26C867.645 116.26 865.465 113.96 865.465 110.82C865.465 107.68 867.645 105.4 870.765 105.4C872.665 105.4 874.205 106.24 875.125 107.58V101.2H876.285V116H875.325L875.185 113.96C874.285 115.38 872.705 116.26 870.765 116.26ZM866.625 110.82C866.625 113.36 868.365 115.14 870.905 115.14C873.425 115.14 875.165 113.36 875.165 110.82C875.165 108.3 873.425 106.52 870.905 106.52C868.365 106.52 866.625 108.3 866.625 110.82ZM884.788 116.26C881.648 116.26 879.508 114.04 879.508 110.82C879.508 107.62 881.668 105.4 884.808 105.4C888.068 105.4 890.168 107.8 890.088 111.3H880.688C880.888 113.64 882.488 115.16 884.788 115.16C886.468 115.16 887.808 114.38 888.488 113.04L889.788 113.06C888.988 115.04 887.108 116.26 884.788 116.26ZM880.688 110.28H888.948C888.668 107.94 887.068 106.5 884.808 106.5C882.508 106.5 880.888 108 880.688 110.28ZM893.259 116V105.66H894.239L894.339 107.66C895.159 106.18 896.599 105.4 898.259 105.4C900.959 105.4 902.619 107.3 902.619 110.28V116H901.459V110.38C901.459 108 900.179 106.52 898.119 106.52C895.939 106.52 894.419 108.18 894.419 110.64V116H893.259ZM915.784 116.26C912.644 116.26 910.504 114.04 910.504 110.82C910.504 107.62 912.664 105.4 915.804 105.4C919.064 105.4 921.164 107.8 921.084 111.3H911.684C911.884 113.64 913.484 115.16 915.784 115.16C917.464 115.16 918.804 114.38 919.484 113.04L920.784 113.06C919.984 115.04 918.104 116.26 915.784 116.26ZM911.684 110.28H919.944C919.664 107.94 918.064 106.5 915.804 106.5C913.504 106.5 911.884 108 911.684 110.28ZM924.255 116V105.66H925.235L925.335 107.66C926.155 106.18 927.595 105.4 929.255 105.4C931.955 105.4 933.615 107.3 933.615 110.28V116H932.455V110.38C932.455 108 931.175 106.52 929.115 106.52C926.935 106.52 925.415 108.18 925.415 110.64V116H924.255ZM937.517 116V101.2H938.677V110.2H940.197C942.117 110.2 942.957 109.7 943.617 107.96L944.497 105.66H945.737L944.697 108.4C944.237 109.56 943.697 110.3 942.877 110.74L946.237 116H944.857L941.797 111.14C941.317 111.24 940.777 111.28 940.157 111.28H938.677V116H937.517ZM953.147 116.26C950.007 116.26 947.867 114.04 947.867 110.82C947.867 107.62 950.027 105.4 953.167 105.4C956.427 105.4 958.527 107.8 958.447 111.3H949.047C949.247 113.64 950.847 115.16 953.147 115.16C954.827 115.16 956.167 114.38 956.847 113.04L958.147 113.06C957.347 115.04 955.467 116.26 953.147 116.26ZM949.047 110.28H957.307C957.027 107.94 955.427 106.5 953.167 106.5C950.867 106.5 949.247 108 949.047 110.28ZM961.619 116V101.2H962.779V116H961.619ZM971.092 116C968.892 116 967.712 114.76 967.712 112.42V106.72H965.452V105.66H966.772C967.552 105.66 967.772 105.46 967.852 104.7L967.952 103.12H968.872V105.66H972.452V106.72H968.872V112.38C968.872 114.08 969.572 114.88 971.132 114.88H972.592V116H971.092ZM979.573 116.26C976.433 116.26 974.293 114.04 974.293 110.82C974.293 107.62 976.453 105.4 979.593 105.4C982.853 105.4 984.953 107.8 984.873 111.3H975.473C975.673 113.64 977.273 115.16 979.573 115.16C981.253 115.16 982.593 114.38 983.273 113.04L984.573 113.06C983.773 115.04 981.893 116.26 979.573 116.26ZM975.473 110.28H983.733C983.453 107.94 981.853 106.5 979.593 106.5C977.293 106.5 975.673 108 975.473 110.28ZM990.535 111.64C990.535 110.26 991.095 109.38 992.595 108.46C994.075 107.52 994.595 106.76 994.595 105.56C994.595 103.9 993.435 102.9 991.455 102.9C989.495 102.9 988.215 103.92 988.115 105.64H986.935C987.075 103.22 988.775 101.74 991.415 101.74C994.035 101.74 995.775 103.24 995.775 105.52C995.775 107.04 995.015 108.24 993.235 109.36C992.035 110.1 991.715 110.64 991.715 111.72V112.16H990.535V111.64ZM990.055 115.08C990.055 114.46 990.495 114.04 991.135 114.04C991.755 114.04 992.195 114.46 992.195 115.08C992.195 115.7 991.755 116.12 991.135 116.12C990.495 116.12 990.055 115.7 990.055 115.08ZM999.787 103.94L998.527 100.92H999.767L1000.87 103.94H999.787Z" fill="black"/>
<path d="M11.68 58V51.44H3.48V58H2.26V44H3.48V50.28H11.68V44H12.9V58H11.68ZM20.1763 58L15.5563 47.66H16.8163L18.6163 51.66L20.7563 56.48L22.8763 51.66L24.6963 47.66H25.9363L21.3163 58H20.1763ZM28.4077 58V47.66H29.5677V58H28.4077ZM27.9277 44.72C27.9277 44.14 28.3477 43.68 28.9877 43.68C29.6277 43.68 30.0477 44.14 30.0477 44.72C30.0477 45.32 29.6277 45.78 28.9877 45.78C28.3477 45.78 27.9277 45.32 27.9277 44.72ZM33.6811 58V43.2H34.8411V58H33.6811ZM38.9545 58V43.2H40.1145V52.2H41.6345C43.5545 52.2 44.3945 51.7 45.0545 49.96L45.9345 47.66H47.1745L46.1345 50.4C45.6745 51.56 45.1345 52.3 44.3145 52.74L47.6745 58H46.2945L43.2345 53.14C42.7545 53.24 42.2145 53.28 41.5945 53.28H40.1145V58H38.9545ZM54.5845 58.26C51.4445 58.26 49.3045 56.04 49.3045 52.82C49.3045 49.62 51.4645 47.4 54.6045 47.4C57.8645 47.4 59.9645 49.8 59.8845 53.3H50.4845C50.6845 55.64 52.2845 57.16 54.5845 57.16C56.2645 57.16 57.6045 56.38 58.2845 55.04L59.5845 55.06C58.7845 57.04 56.9045 58.26 54.5845 58.26ZM50.4845 52.28H58.7445C58.4645 49.94 56.8645 48.5 54.6045 48.5C52.3045 48.5 50.6845 50 50.4845 52.28ZM63.0561 58V47.66H64.0361L64.1361 49.66C64.9561 48.18 66.3961 47.4 68.0561 47.4C70.7561 47.4 72.4161 49.3 72.4161 52.28V58H71.2561V52.38C71.2561 50 69.9761 48.52 67.9161 48.52C65.7361 48.52 64.2161 50.18 64.2161 52.64V58H63.0561ZM85.7406 62.26C83.2006 62.26 81.3206 60.92 80.9206 58.82H82.1006C82.4406 60.26 83.8406 61.16 85.7406 61.16C88.1206 61.16 89.6406 59.76 89.6406 57.54V55.86C88.7206 57.12 87.2406 57.88 85.4806 57.88C82.4606 57.88 80.3006 55.68 80.3006 52.64C80.3006 49.6 82.4606 47.4 85.4806 47.4C87.3006 47.4 88.8006 48.2 89.7206 49.52L89.8206 47.66H90.8006V57.58C90.8006 60.36 88.7606 62.26 85.7406 62.26ZM81.4606 52.64C81.4606 55.06 83.1606 56.74 85.6006 56.74C88.0206 56.74 89.7206 55.06 89.7206 52.64C89.7206 50.22 88.0206 48.52 85.6006 48.52C83.1606 48.52 81.4606 50.22 81.4606 52.64ZM94.9116 58V47.66H95.8916L96.0116 49.98C96.7116 48.42 97.8916 47.66 99.8116 47.66H100.672V48.74H99.7716C97.5516 48.74 96.0716 50.1 96.0716 53.24V58H94.9116ZM107.663 58.26C105.003 58.26 103.363 56.36 103.363 53.38V47.66H104.523V53.28C104.523 55.64 105.783 57.14 107.823 57.14C109.963 57.14 111.443 55.46 111.443 53V47.66H112.603V58H111.643L111.523 55.98C110.723 57.48 109.283 58.26 107.663 58.26ZM122.248 58.26C120.348 58.26 118.808 57.4 117.888 56.04V62H116.728V47.66H117.708L117.828 49.72C118.728 48.28 120.308 47.4 122.248 47.4C125.388 47.4 127.548 49.68 127.548 52.82C127.548 55.96 125.388 58.26 122.248 58.26ZM117.848 52.82C117.848 55.36 119.588 57.14 122.128 57.14C124.668 57.14 126.388 55.36 126.388 52.82C126.388 50.3 124.668 48.52 122.128 48.52C119.588 48.52 117.848 50.3 117.848 52.82ZM136.291 58.26C134.391 58.26 132.851 57.4 131.931 56.04V62H130.771V47.66H131.751L131.871 49.72C132.771 48.28 134.351 47.4 136.291 47.4C139.431 47.4 141.591 49.68 141.591 52.82C141.591 55.96 139.431 58.26 136.291 58.26ZM131.891 52.82C131.891 55.36 133.631 57.14 136.171 57.14C138.711 57.14 140.431 55.36 140.431 52.82C140.431 50.3 138.711 48.52 136.171 48.52C133.631 48.52 131.891 50.3 131.891 52.82ZM149.194 58.26C146.054 58.26 143.914 56.04 143.914 52.82C143.914 49.62 146.074 47.4 149.214 47.4C152.474 47.4 154.574 49.8 154.494 53.3H145.094C145.294 55.64 146.894 57.16 149.194 57.16C150.874 57.16 152.214 56.38 152.894 55.04L154.194 55.06C153.394 57.04 151.514 58.26 149.194 58.26ZM145.094 52.28H153.354C153.074 49.94 151.474 48.5 149.214 48.5C146.914 48.5 145.294 50 145.094 52.28ZM165.788 58.16C163.388 58.16 161.888 56.98 161.888 55.08C161.888 53.24 163.288 52.08 165.408 52.08H169.968V51.34C169.968 49.62 168.708 48.48 166.788 48.48C165.228 48.48 164.008 49.28 163.588 50.52H162.408C162.908 48.6 164.568 47.4 166.768 47.4C169.348 47.4 171.128 48.98 171.128 51.28V58H170.168L170.048 56.22C169.148 57.46 167.628 58.16 165.788 58.16ZM163.048 55.06C163.048 56.32 164.108 57.12 165.828 57.12C168.228 57.12 169.988 55.62 169.988 53.54V53.1H165.448C164.028 53.1 163.048 53.88 163.048 55.06ZM177.559 58L172.939 47.66H174.199L175.999 51.66L178.139 56.48L180.259 51.66L182.079 47.66H183.319L178.699 58H177.559ZM189.565 62V60.9H190.425C191.885 60.9 192.345 60.6 192.885 59.3L193.465 57.84L188.545 47.66H189.845L192.285 52.76L194.065 56.44L195.545 52.76L197.645 47.66H198.865L193.925 59.74C193.205 61.54 192.405 62 190.545 62H189.565ZM201.337 58V47.66H202.317L202.417 49.66C203.237 48.18 204.677 47.4 206.337 47.4C209.037 47.4 210.697 49.3 210.697 52.28V58H209.537V52.38C209.537 50 208.257 48.52 206.197 48.52C204.017 48.52 202.497 50.18 202.497 52.64V58H201.337ZM219.139 62.26C216.599 62.26 214.719 60.92 214.319 58.82H215.499C215.839 60.26 217.239 61.16 219.139 61.16C221.519 61.16 223.039 59.76 223.039 57.54V55.86C222.119 57.12 220.639 57.88 218.879 57.88C215.859 57.88 213.699 55.68 213.699 52.64C213.699 49.6 215.859 47.4 218.879 47.4C220.699 47.4 222.199 48.2 223.119 49.52L223.219 47.66H224.199V57.58C224.199 60.36 222.159 62.26 219.139 62.26ZM214.859 52.64C214.859 55.06 216.559 56.74 218.999 56.74C221.419 56.74 223.119 55.06 223.119 52.64C223.119 50.22 221.419 48.52 218.999 48.52C216.559 48.52 214.859 50.22 214.859 52.64ZM228.31 58V47.66H229.29L229.41 49.98C230.11 48.42 231.29 47.66 233.21 47.66H234.07V48.74H233.17C230.95 48.74 229.47 50.1 229.47 53.24V58H228.31ZM240.561 58.26C237.421 58.26 235.281 56.04 235.281 52.82C235.281 49.62 237.441 47.4 240.581 47.4C243.841 47.4 245.941 49.8 245.861 53.3H236.461C236.661 55.64 238.261 57.16 240.561 57.16C242.241 57.16 243.581 56.38 244.261 55.04L245.561 55.06C244.761 57.04 242.881 58.26 240.561 58.26ZM236.461 52.28H244.721C244.441 49.94 242.841 48.5 240.581 48.5C238.281 48.5 236.661 50 236.461 52.28ZM257.046 58.26C254.426 58.26 252.766 56.94 252.686 54.88H253.826C253.946 56.34 255.086 57.2 257.066 57.2C258.886 57.2 259.986 56.5 259.986 55.36C259.986 54.28 259.006 53.62 256.806 53.24C254.106 52.78 252.886 51.82 252.886 50.24C252.886 48.48 254.386 47.4 256.806 47.4C259.246 47.4 260.786 48.56 260.946 50.54H259.786C259.666 49.18 258.606 48.44 256.806 48.44C255.086 48.44 254.046 49.14 254.046 50.26C254.046 51.28 254.906 51.84 257.206 52.28C259.826 52.78 261.126 53.82 261.126 55.38C261.126 57.12 259.546 58.26 257.046 58.26ZM264.482 58V43.2H265.642V52.2H267.162C269.082 52.2 269.922 51.7 270.582 49.96L271.462 47.66H272.702L271.662 50.4C271.202 51.56 270.662 52.3 269.842 52.74L273.202 58H271.822L268.762 53.14C268.282 53.24 267.742 53.28 267.122 53.28H265.642V58H264.482ZM278.952 58.16C276.552 58.16 275.052 56.98 275.052 55.08C275.052 53.24 276.452 52.08 278.572 52.08H283.132V51.34C283.132 49.62 281.872 48.48 279.952 48.48C278.392 48.48 277.172 49.28 276.752 50.52H275.572C276.072 48.6 277.732 47.4 279.932 47.4C282.512 47.4 284.292 48.98 284.292 51.28V58H283.332L283.212 56.22C282.312 57.46 280.792 58.16 278.952 58.16ZM276.212 55.06C276.212 56.32 277.272 57.12 278.992 57.12C281.392 57.12 283.152 55.62 283.152 53.54V53.1H278.612C277.192 53.1 276.212 53.88 276.212 55.06ZM288.193 58V43.2H289.353V58H288.193ZM301.309 58L296.689 47.66H297.949L299.749 51.66L301.889 56.48L304.009 51.66L305.829 47.66H307.069L302.449 58H301.309ZM309.54 58V47.66H310.7V58H309.54ZM309.06 44.72C309.06 44.14 309.48 43.68 310.12 43.68C310.76 43.68 311.18 44.14 311.18 44.72C311.18 45.32 310.76 45.78 310.12 45.78C309.48 45.78 309.06 45.32 309.06 44.72ZM3.06 75.46C3.06 73.1 4.22 71.94 6.52 71.94H8.14V73.04H6.62C4.94 73.04 4.22 73.78 4.22 75.54V76.66H8.04V77.72H4.22V87H3.06V77.72H0.7V76.66H3.06V75.46ZM14.6078 87.26C11.4078 87.26 9.16781 85.02 9.16781 81.82C9.16781 78.64 11.4078 76.4 14.6078 76.4C17.7878 76.4 20.0278 78.64 20.0278 81.82C20.0278 85.02 17.7878 87.26 14.6078 87.26ZM10.3278 81.82C10.3278 84.38 12.0678 86.14 14.6078 86.14C17.1278 86.14 18.8678 84.38 18.8678 81.82C18.8678 79.28 17.1278 77.52 14.6078 77.52C12.0678 77.52 10.3278 79.28 10.3278 81.82ZM23.2514 87V72.2H24.4114V81.2H25.9314C27.8514 81.2 28.6914 80.7 29.3514 78.96L30.2314 76.66H31.4714L30.4314 79.4C29.9714 80.56 29.4314 81.3 28.6114 81.74L31.9714 87H30.5914L27.5314 82.14C27.0514 82.24 26.5114 82.28 25.8914 82.28H24.4114V87H23.2514ZM38.6595 87.26C35.9995 87.26 34.3595 85.36 34.3595 82.38V76.66H35.5195V82.28C35.5195 84.64 36.7795 86.14 38.8195 86.14C40.9595 86.14 42.4395 84.46 42.4395 82V76.66H43.5995V87H42.6395L42.5195 84.98C41.7195 86.48 40.2795 87.26 38.6595 87.26ZM51.2841 87.26C48.6641 87.26 47.0041 85.94 46.9241 83.88H48.0641C48.1841 85.34 49.3241 86.2 51.3041 86.2C53.1241 86.2 54.2241 85.5 54.2241 84.36C54.2241 83.28 53.2441 82.62 51.0441 82.24C48.3441 81.78 47.1241 80.82 47.1241 79.24C47.1241 77.48 48.6241 76.4 51.0441 76.4C53.4841 76.4 55.0241 77.56 55.1841 79.54H54.0241C53.9041 78.18 52.8441 77.44 51.0441 77.44C49.3241 77.44 48.2841 78.14 48.2841 79.26C48.2841 80.28 49.1441 80.84 51.4441 81.28C54.0641 81.78 55.3641 82.82 55.3641 84.38C55.3641 86.12 53.7841 87.26 51.2841 87.26ZM63.1002 87.26C59.9602 87.26 57.8202 85.04 57.8202 81.82C57.8202 78.62 59.9802 76.4 63.1202 76.4C66.3802 76.4 68.4802 78.8 68.4002 82.3H59.0002C59.2002 84.64 60.8002 86.16 63.1002 86.16C64.7802 86.16 66.1202 85.38 66.8002 84.04L68.1002 84.06C67.3002 86.04 65.4202 87.26 63.1002 87.26ZM59.0002 81.28H67.2602C66.9802 78.94 65.3802 77.5 63.1202 77.5C60.8202 77.5 59.2002 79 59.0002 81.28ZM71.5717 87V76.66H72.5517L72.6717 78.98C73.3717 77.42 74.5517 76.66 76.4717 76.66H77.3317V77.74H76.4317C74.2117 77.74 72.7317 79.1 72.7317 82.24V87H71.5717ZM83.8228 87.26C80.6828 87.26 78.5428 85.04 78.5428 81.82C78.5428 78.62 80.7028 76.4 83.8428 76.4C87.1028 76.4 89.2028 78.8 89.1228 82.3H79.7228C79.9228 84.64 81.5228 86.16 83.8228 86.16C85.5028 86.16 86.8428 85.38 87.5228 84.04L88.8228 84.06C88.0228 86.04 86.1428 87.26 83.8228 87.26ZM79.7228 81.28H87.9828C87.7028 78.94 86.1028 77.5 83.8428 77.5C81.5428 77.5 79.9228 79 79.7228 81.28ZM102.697 87.26C100.797 87.26 99.2572 86.4 98.3372 85.04V91H97.1772V76.66H98.1572L98.2772 78.72C99.1772 77.28 100.757 76.4 102.697 76.4C105.837 76.4 107.997 78.68 107.997 81.82C107.997 84.96 105.837 87.26 102.697 87.26ZM98.2972 81.82C98.2972 84.36 100.037 86.14 102.577 86.14C105.117 86.14 106.837 84.36 106.837 81.82C106.837 79.3 105.117 77.52 102.577 77.52C100.037 77.52 98.2972 79.3 98.2972 81.82ZM114.323 87.16C111.923 87.16 110.423 85.98 110.423 84.08C110.423 82.24 111.823 81.08 113.943 81.08H118.503V80.34C118.503 78.62 117.243 77.48 115.323 77.48C113.763 77.48 112.543 78.28 112.123 79.52H110.943C111.443 77.6 113.103 76.4 115.303 76.4C117.883 76.4 119.663 77.98 119.663 80.28V87H118.703L118.583 85.22C117.683 86.46 116.163 87.16 114.323 87.16ZM111.583 84.06C111.583 85.32 112.643 86.12 114.363 86.12C116.763 86.12 118.523 84.62 118.523 82.54V82.1H113.983C112.563 82.1 111.583 82.88 111.583 84.06ZM113.103 73.1C113.103 71.84 114.043 70.96 115.303 70.96C116.563 70.96 117.503 71.84 117.503 73.1C117.503 74.36 116.563 75.22 115.303 75.22C114.043 75.22 113.103 74.36 113.103 73.1ZM113.963 73.1C113.963 73.88 114.523 74.44 115.303 74.44C116.083 74.44 116.643 73.88 116.643 73.1C116.643 72.3 116.083 71.74 115.303 71.74C114.523 71.74 113.963 72.3 113.963 73.1ZM125.957 82.64C125.957 81.26 126.517 80.38 128.017 79.46C129.497 78.52 130.017 77.76 130.017 76.56C130.017 74.9 128.857 73.9 126.877 73.9C124.917 73.9 123.637 74.92 123.537 76.64H122.357C122.497 74.22 124.197 72.74 126.837 72.74C129.457 72.74 131.197 74.24 131.197 76.52C131.197 78.04 130.437 79.24 128.657 80.36C127.457 81.1 127.137 81.64 127.137 82.72V83.16H125.957V82.64ZM125.477 86.08C125.477 85.46 125.917 85.04 126.557 85.04C127.177 85.04 127.617 85.46 127.617 86.08C127.617 86.7 127.177 87.12 126.557 87.12C125.917 87.12 125.477 86.7 125.477 86.08Z" fill="black"/>
</svg>
