<svg width="1104" height="276" viewBox="0 0 1104 276" fill="none" xmlns="http://www.w3.org/2000/svg">
<path d="M419.38 21.26C415.26 21.26 412.28 18.26 412.28 14C412.28 9.74 415.26 6.74 419.38 6.74C422.58 6.74 425.2 8.6 426.12 11.54H424.84C424.04 9.32 421.96 7.96 419.4 7.96C415.98 7.96 413.52 10.42 413.52 14C413.52 17.58 415.98 20.04 419.4 20.04C422.02 20.04 424.18 18.62 424.96 16.3H426.24C425.38 19.32 422.68 21.26 419.38 21.26ZM433.909 21.26C430.709 21.26 428.469 19.02 428.469 15.82C428.469 12.64 430.709 10.4 433.909 10.4C437.089 10.4 439.329 12.64 439.329 15.82C439.329 19.02 437.089 21.26 433.909 21.26ZM429.629 15.82C429.629 18.38 431.369 20.14 433.909 20.14C436.429 20.14 438.169 18.38 438.169 15.82C438.169 13.28 436.429 11.52 433.909 11.52C431.369 11.52 429.629 13.28 429.629 15.82ZM442.552 21V10.66H443.532L443.632 12.34C444.352 11.08 445.612 10.4 447.212 10.4C449.012 10.4 450.392 11.3 450.992 12.88C451.692 11.3 453.112 10.4 454.932 10.4C457.532 10.4 459.212 12.18 459.212 15.06V21H458.052V15.24C458.052 12.94 456.772 11.52 454.792 11.52C452.772 11.52 451.452 12.98 451.452 15.32V21H450.292V15.24C450.292 12.94 449.032 11.52 447.052 11.52C445.032 11.52 443.712 12.98 443.712 15.32V21H442.552ZM467.479 21.26C464.339 21.26 462.199 19.04 462.199 15.82C462.199 12.62 464.359 10.4 467.499 10.4C470.759 10.4 472.859 12.8 472.779 16.3H463.379C463.579 18.64 465.179 20.16 467.479 20.16C469.159 20.16 470.499 19.38 471.179 18.04L472.479 18.06C471.679 20.04 469.799 21.26 467.479 21.26ZM463.379 15.28H471.639C471.359 12.94 469.759 11.5 467.499 11.5C465.199 11.5 463.579 13 463.379 15.28ZM480.833 21V10.66H481.813L481.933 12.98C482.633 11.42 483.813 10.66 485.733 10.66H486.593V11.74H485.693C483.473 11.74 481.993 13.1 481.993 16.24V21H480.833ZM491.905 21.16C489.505 21.16 488.005 19.98 488.005 18.08C488.005 16.24 489.405 15.08 491.525 15.08H496.085V14.34C496.085 12.62 494.825 11.48 492.905 11.48C491.345 11.48 490.125 12.28 489.705 13.52H488.525C489.025 11.6 490.685 10.4 492.885 10.4C495.465 10.4 497.245 11.98 497.245 14.28V21H496.285L496.165 19.22C495.265 20.46 493.745 21.16 491.905 21.16ZM489.165 18.06C489.165 19.32 490.225 20.12 491.945 20.12C494.345 20.12 496.105 18.62 496.105 16.54V16.1H491.565C490.145 16.1 489.165 16.88 489.165 18.06ZM505.686 25.26C503.146 25.26 501.266 23.92 500.866 21.82H502.046C502.386 23.26 503.786 24.16 505.686 24.16C508.066 24.16 509.586 22.76 509.586 20.54V18.86C508.666 20.12 507.186 20.88 505.426 20.88C502.406 20.88 500.246 18.68 500.246 15.64C500.246 12.6 502.406 10.4 505.426 10.4C507.246 10.4 508.746 11.2 509.666 12.52L509.766 10.66H510.746V20.58C510.746 23.36 508.706 25.26 505.686 25.26ZM501.406 15.64C501.406 18.06 503.106 19.74 505.546 19.74C507.966 19.74 509.666 18.06 509.666 15.64C509.666 13.22 507.966 11.52 505.546 11.52C503.106 11.52 501.406 13.22 501.406 15.64ZM519.397 25.26C516.857 25.26 514.977 23.92 514.577 21.82H515.757C516.097 23.26 517.497 24.16 519.397 24.16C521.777 24.16 523.297 22.76 523.297 20.54V18.86C522.377 20.12 520.897 20.88 519.137 20.88C516.117 20.88 513.957 18.68 513.957 15.64C513.957 12.6 516.117 10.4 519.137 10.4C520.957 10.4 522.457 11.2 523.377 12.52L523.477 10.66H524.457V20.58C524.457 23.36 522.417 25.26 519.397 25.26ZM515.117 15.64C515.117 18.06 516.817 19.74 519.257 19.74C521.677 19.74 523.377 18.06 523.377 15.64C523.377 13.22 521.677 11.52 519.257 11.52C516.817 11.52 515.117 13.22 515.117 15.64ZM528.568 21V10.66H529.728V21H528.568ZM528.088 7.72C528.088 7.14 528.508 6.68 529.148 6.68C529.788 6.68 530.208 7.14 530.208 7.72C530.208 8.32 529.788 8.78 529.148 8.78C528.508 8.78 528.088 8.32 528.088 7.72ZM537.921 21.26C535.261 21.26 533.621 19.36 533.621 16.38V10.66H534.781V16.28C534.781 18.64 536.041 20.14 538.081 20.14C540.221 20.14 541.701 18.46 541.701 16V10.66H542.861V21H541.901L541.781 18.98C540.981 20.48 539.541 21.26 537.921 21.26ZM546.986 21V10.66H547.966L548.066 12.66C548.886 11.18 550.326 10.4 551.986 10.4C554.686 10.4 556.346 12.3 556.346 15.28V21H555.186V15.38C555.186 13 553.906 11.52 551.846 11.52C549.666 11.52 548.146 13.18 548.146 15.64V21H546.986ZM564.788 25.26C562.248 25.26 560.368 23.92 559.968 21.82H561.148C561.488 23.26 562.888 24.16 564.788 24.16C567.168 24.16 568.688 22.76 568.688 20.54V18.86C567.768 20.12 566.288 20.88 564.528 20.88C561.508 20.88 559.348 18.68 559.348 15.64C559.348 12.6 561.508 10.4 564.528 10.4C566.348 10.4 567.848 11.2 568.768 12.52L568.868 10.66H569.848V20.58C569.848 23.36 567.808 25.26 564.788 25.26ZM560.508 15.64C560.508 18.06 562.208 19.74 564.648 19.74C567.068 19.74 568.768 18.06 568.768 15.64C568.768 13.22 567.068 11.52 564.648 11.52C562.208 11.52 560.508 13.22 560.508 15.64ZM573.958 21V10.66H575.118V21H573.958ZM573.478 7.72C573.478 7.14 573.898 6.68 574.538 6.68C575.178 6.68 575.598 7.14 575.598 7.72C575.598 8.32 575.178 8.78 574.538 8.78C573.898 8.78 573.478 8.32 573.478 7.72ZM582.472 21.16C580.072 21.16 578.572 19.98 578.572 18.08C578.572 16.24 579.972 15.08 582.092 15.08H586.652V14.34C586.652 12.62 585.392 11.48 583.472 11.48C581.912 11.48 580.692 12.28 580.272 13.52H579.092C579.592 11.6 581.252 10.4 583.452 10.4C586.032 10.4 587.812 11.98 587.812 14.28V21H586.852L586.732 19.22C585.832 20.46 584.312 21.16 582.472 21.16ZM579.732 18.06C579.732 19.32 580.792 20.12 582.512 20.12C584.912 20.12 586.672 18.62 586.672 16.54V16.1H582.132C580.712 16.1 579.732 16.88 579.732 18.06ZM591.712 21V10.66H592.692L592.792 12.34C593.512 11.08 594.772 10.4 596.372 10.4C598.172 10.4 599.552 11.3 600.152 12.88C600.852 11.3 602.272 10.4 604.092 10.4C606.692 10.4 608.372 12.18 608.372 15.06V21H607.212V15.24C607.212 12.94 605.932 11.52 603.952 11.52C601.932 11.52 600.612 12.98 600.612 15.32V21H599.452V15.24C599.452 12.94 598.192 11.52 596.212 11.52C594.192 11.52 592.872 12.98 592.872 15.32V21H591.712ZM616.799 21.26C613.599 21.26 611.359 19.02 611.359 15.82C611.359 12.64 613.599 10.4 616.799 10.4C619.979 10.4 622.219 12.64 622.219 15.82C622.219 19.02 619.979 21.26 616.799 21.26ZM612.519 15.82C612.519 18.38 614.259 20.14 616.799 20.14C619.319 20.14 621.059 18.38 621.059 15.82C621.059 13.28 619.319 11.52 616.799 11.52C614.259 11.52 612.519 13.28 612.519 15.82ZM630.326 21V10.66H631.486V21H630.326ZM629.846 7.72C629.846 7.14 630.266 6.68 630.906 6.68C631.546 6.68 631.966 7.14 631.966 7.72C631.966 8.32 631.546 8.78 630.906 8.78C630.266 8.78 629.846 8.32 629.846 7.72ZM635.599 21V6.2H636.759V21H635.599ZM650.295 25.26C647.755 25.26 645.875 23.92 645.475 21.82H646.655C646.995 23.26 648.395 24.16 650.295 24.16C652.675 24.16 654.195 22.76 654.195 20.54V18.86C653.275 20.12 651.795 20.88 650.035 20.88C647.015 20.88 644.855 18.68 644.855 15.64C644.855 12.6 647.015 10.4 650.035 10.4C651.855 10.4 653.355 11.2 654.275 12.52L654.375 10.66H655.355V20.58C655.355 23.36 653.315 25.26 650.295 25.26ZM646.015 15.64C646.015 18.06 647.715 19.74 650.155 19.74C652.575 19.74 654.275 18.06 654.275 15.64C654.275 13.22 652.575 11.52 650.155 11.52C647.715 11.52 646.015 13.22 646.015 15.64ZM659.466 21V10.66H660.446L660.566 12.98C661.266 11.42 662.446 10.66 664.366 10.66H665.226V11.74H664.326C662.106 11.74 660.626 13.1 660.626 16.24V21H659.466ZM672.218 21.26C669.558 21.26 667.918 19.36 667.918 16.38V10.66H669.078V16.28C669.078 18.64 670.338 20.14 672.378 20.14C674.518 20.14 675.998 18.46 675.998 16V10.66H677.158V21H676.198L676.078 18.98C675.278 20.48 673.838 21.26 672.218 21.26ZM686.803 21.26C684.903 21.26 683.363 20.4 682.443 19.04V25H681.283V10.66H682.263L682.383 12.72C683.283 11.28 684.863 10.4 686.803 10.4C689.943 10.4 692.103 12.68 692.103 15.82C692.103 18.96 689.943 21.26 686.803 21.26ZM682.403 15.82C682.403 18.36 684.143 20.14 686.683 20.14C689.223 20.14 690.943 18.36 690.943 15.82C690.943 13.3 689.223 11.52 686.683 11.52C684.143 11.52 682.403 13.3 682.403 15.82ZM700.846 21.26C698.946 21.26 697.406 20.4 696.486 19.04V25H695.326V10.66H696.306L696.426 12.72C697.326 11.28 698.906 10.4 700.846 10.4C703.986 10.4 706.146 12.68 706.146 15.82C706.146 18.96 703.986 21.26 700.846 21.26ZM696.446 15.82C696.446 18.36 698.186 20.14 700.726 20.14C703.266 20.14 704.986 18.36 704.986 15.82C704.986 13.3 703.266 11.52 700.726 11.52C698.186 11.52 696.446 13.3 696.446 15.82ZM713.909 21.26C710.709 21.26 708.469 19.02 708.469 15.82C708.469 12.64 710.709 10.4 713.909 10.4C717.089 10.4 719.329 12.64 719.329 15.82C719.329 19.02 717.089 21.26 713.909 21.26ZM709.629 15.82C709.629 18.38 711.369 20.14 713.909 20.14C716.429 20.14 718.169 18.38 718.169 15.82C718.169 13.28 716.429 11.52 713.909 11.52C711.369 11.52 709.629 13.28 709.629 15.82ZM731.366 21.26C728.246 21.26 726.066 18.96 726.066 15.82C726.066 12.68 728.246 10.4 731.366 10.4C733.266 10.4 734.806 11.24 735.726 12.58V6.2H736.886V21H735.926L735.786 18.96C734.886 20.38 733.306 21.26 731.366 21.26ZM727.226 15.82C727.226 18.36 728.966 20.14 731.506 20.14C734.026 20.14 735.766 18.36 735.766 15.82C735.766 13.3 734.026 11.52 731.506 11.52C728.966 11.52 727.226 13.3 727.226 15.82ZM741.009 21V10.66H742.169V21H741.009ZM740.529 7.72C740.529 7.14 740.949 6.68 741.589 6.68C742.229 6.68 742.649 7.14 742.649 7.72C742.649 8.32 742.229 8.78 741.589 8.78C740.949 8.78 740.529 8.32 740.529 7.72ZM417.14 50.26C414.48 50.26 412.84 48.36 412.84 45.38V39.66H414V45.28C414 47.64 415.26 49.14 417.3 49.14C419.44 49.14 420.92 47.46 420.92 45V39.66H422.08V50H421.12L421 47.98C420.2 49.48 418.76 50.26 417.14 50.26ZM430.405 50C428.205 50 427.025 48.76 427.025 46.42V40.72H424.765V39.66H426.085C426.865 39.66 427.085 39.46 427.165 38.7L427.265 37.12H428.185V39.66H431.765V40.72H428.185V46.38C428.185 48.08 428.885 48.88 430.445 48.88H431.905V50H430.405ZM438.885 50.26C435.745 50.26 433.605 48.04 433.605 44.82C433.605 41.62 435.765 39.4 438.905 39.4C442.165 39.4 444.265 41.8 444.185 45.3H434.785C434.985 47.64 436.585 49.16 438.885 49.16C440.565 49.16 441.905 48.38 442.585 47.04L443.885 47.06C443.085 49.04 441.205 50.26 438.885 50.26ZM434.785 44.28H443.045C442.765 41.94 441.165 40.5 438.905 40.5C436.605 40.5 434.985 42 434.785 44.28ZM447.357 50V39.66H448.337L448.437 41.66C449.257 40.18 450.697 39.4 452.357 39.4C455.057 39.4 456.717 41.3 456.717 44.28V50H455.557V44.38C455.557 42 454.277 40.52 452.217 40.52C450.037 40.52 448.517 42.18 448.517 44.64V50H447.357ZM464.487 50C462.287 50 461.107 48.76 461.107 46.42V40.72H458.847V39.66H460.167C460.947 39.66 461.167 39.46 461.247 38.7L461.347 37.12H462.267V39.66H465.847V40.72H462.267V46.38C462.267 48.08 462.967 48.88 464.527 48.88H465.987V50H464.487ZM469.095 50V39.66H470.255V50H469.095ZM468.615 36.72C468.615 36.14 469.035 35.68 469.675 35.68C470.315 35.68 470.735 36.14 470.735 36.72C470.735 37.32 470.315 37.78 469.675 37.78C469.035 37.78 468.615 37.32 468.615 36.72ZM477.309 45.64C477.309 44.26 477.869 43.38 479.369 42.46C480.849 41.52 481.369 40.76 481.369 39.56C481.369 37.9 480.209 36.9 478.229 36.9C476.269 36.9 474.989 37.92 474.889 39.64H473.709C473.849 37.22 475.549 35.74 478.189 35.74C480.809 35.74 482.549 37.24 482.549 39.52C482.549 41.04 481.789 42.24 480.009 43.36C478.809 44.1 478.489 44.64 478.489 45.72V46.16H477.309V45.64ZM476.829 49.08C476.829 48.46 477.269 48.04 477.909 48.04C478.529 48.04 478.969 48.46 478.969 49.08C478.969 49.7 478.529 50.12 477.909 50.12C477.269 50.12 476.829 49.7 476.829 49.08Z" fill="black"/>
<path d="M216.38 224.26C212.26 224.26 209.28 221.26 209.28 217C209.28 212.74 212.26 209.74 216.38 209.74C219.58 209.74 222.2 211.6 223.12 214.54H221.84C221.04 212.32 218.96 210.96 216.4 210.96C212.98 210.96 210.52 213.42 210.52 217C210.52 220.58 212.98 223.04 216.4 223.04C219.02 223.04 221.18 221.62 221.96 219.3H223.24C222.38 222.32 219.68 224.26 216.38 224.26ZM230.909 224.26C227.709 224.26 225.469 222.02 225.469 218.82C225.469 215.64 227.709 213.4 230.909 213.4C234.089 213.4 236.329 215.64 236.329 218.82C236.329 222.02 234.089 224.26 230.909 224.26ZM226.629 218.82C226.629 221.38 228.369 223.14 230.909 223.14C233.429 223.14 235.169 221.38 235.169 218.82C235.169 216.28 233.429 214.52 230.909 214.52C228.369 214.52 226.629 216.28 226.629 218.82ZM243.112 224.26C240.492 224.26 238.832 222.94 238.752 220.88H239.892C240.012 222.34 241.152 223.2 243.132 223.2C244.952 223.2 246.052 222.5 246.052 221.36C246.052 220.28 245.072 219.62 242.872 219.24C240.172 218.78 238.952 217.82 238.952 216.24C238.952 214.48 240.452 213.4 242.872 213.4C245.312 213.4 246.852 214.56 247.012 216.54H245.852C245.732 215.18 244.672 214.44 242.872 214.44C241.152 214.44 240.112 215.14 240.112 216.26C240.112 217.28 240.972 217.84 243.272 218.28C245.892 218.78 247.192 219.82 247.192 221.38C247.192 223.12 245.612 224.26 243.112 224.26ZM253.671 224.16C251.271 224.16 249.771 222.98 249.771 221.08C249.771 219.24 251.171 218.08 253.291 218.08H257.851V217.34C257.851 215.62 256.591 214.48 254.671 214.48C253.111 214.48 251.891 215.28 251.471 216.52H250.291C250.791 214.6 252.451 213.4 254.651 213.4C257.231 213.4 259.011 214.98 259.011 217.28V224H258.051L257.931 222.22C257.031 223.46 255.511 224.16 253.671 224.16ZM250.931 221.06C250.931 222.32 251.991 223.12 253.711 223.12C256.111 223.12 257.871 221.62 257.871 219.54V219.1H253.331C251.911 219.1 250.931 219.88 250.931 221.06ZM271.393 224.26C268.773 224.26 267.113 222.94 267.033 220.88H268.173C268.293 222.34 269.433 223.2 271.413 223.2C273.233 223.2 274.333 222.5 274.333 221.36C274.333 220.28 273.353 219.62 271.153 219.24C268.453 218.78 267.233 217.82 267.233 216.24C267.233 214.48 268.733 213.4 271.153 213.4C273.593 213.4 275.133 214.56 275.293 216.54H274.133C274.013 215.18 272.953 214.44 271.153 214.44C269.433 214.44 268.393 215.14 268.393 216.26C268.393 217.28 269.253 217.84 271.553 218.28C274.173 218.78 275.473 219.82 275.473 221.38C275.473 223.12 273.893 224.26 271.393 224.26ZM278.83 224V213.66H279.99V224H278.83ZM278.35 210.72C278.35 210.14 278.77 209.68 279.41 209.68C280.05 209.68 280.47 210.14 280.47 210.72C280.47 211.32 280.05 211.78 279.41 211.78C278.77 211.78 278.35 211.32 278.35 210.72ZM288.643 228.26C286.103 228.26 284.223 226.92 283.823 224.82H285.003C285.343 226.26 286.743 227.16 288.643 227.16C291.023 227.16 292.543 225.76 292.543 223.54V221.86C291.623 223.12 290.143 223.88 288.383 223.88C285.363 223.88 283.203 221.68 283.203 218.64C283.203 215.6 285.363 213.4 288.383 213.4C290.203 213.4 291.703 214.2 292.623 215.52L292.723 213.66H293.703V223.58C293.703 226.36 291.663 228.26 288.643 228.26ZM284.363 218.64C284.363 221.06 286.063 222.74 288.503 222.74C290.923 222.74 292.623 221.06 292.623 218.64C292.623 216.22 290.923 214.52 288.503 214.52C286.063 214.52 284.363 216.22 284.363 218.64ZM297.814 224V213.66H298.794L298.894 215.66C299.714 214.18 301.154 213.4 302.814 213.4C305.514 213.4 307.174 215.3 307.174 218.28V224H306.014V218.38C306.014 216 304.734 214.52 302.674 214.52C300.494 214.52 298.974 216.18 298.974 218.64V224H297.814ZM311.076 224V213.66H312.236V224H311.076ZM310.596 210.72C310.596 210.14 311.016 209.68 311.656 209.68C312.296 209.68 312.716 210.14 312.716 210.72C312.716 211.32 312.296 211.78 311.656 211.78C311.016 211.78 310.596 211.32 310.596 210.72ZM325.029 224V214.72H318.509V224H317.349V214.72H314.989V213.66H317.349V212.46C317.349 210.12 318.529 208.94 320.869 208.94H322.369V210.04H320.969C319.249 210.04 318.509 210.78 318.509 212.54V213.66H326.189V224H325.029ZM324.529 210.72C324.529 210.14 324.969 209.68 325.609 209.68C326.229 209.68 326.669 210.14 326.669 210.72C326.669 211.32 326.229 211.78 325.609 211.78C324.969 211.78 324.529 211.32 324.529 210.72ZM334.694 224.26C331.594 224.26 329.414 222 329.414 218.82C329.414 215.64 331.594 213.4 334.694 213.4C337.154 213.4 339.174 214.86 339.774 217.1H338.594C337.914 215.46 336.474 214.52 334.694 214.52C332.254 214.52 330.574 216.28 330.574 218.82C330.574 221.38 332.254 223.14 334.694 223.14C336.594 223.14 338.074 222.08 338.654 220.38H339.874C339.174 222.8 337.234 224.26 334.694 224.26ZM346.132 224.16C343.732 224.16 342.232 222.98 342.232 221.08C342.232 219.24 343.632 218.08 345.752 218.08H350.312V217.34C350.312 215.62 349.052 214.48 347.132 214.48C345.572 214.48 344.352 215.28 343.932 216.52H342.752C343.252 214.6 344.912 213.4 347.112 213.4C349.692 213.4 351.472 214.98 351.472 217.28V224H350.512L350.392 222.22C349.492 223.46 347.972 224.16 346.132 224.16ZM343.392 221.06C343.392 222.32 344.452 223.12 346.172 223.12C348.572 223.12 350.332 221.62 350.332 219.54V219.1H345.792C344.372 219.1 343.392 219.88 343.392 221.06ZM364.795 228.26C362.255 228.26 360.375 226.92 359.975 224.82H361.155C361.495 226.26 362.895 227.16 364.795 227.16C367.175 227.16 368.695 225.76 368.695 223.54V221.86C367.775 223.12 366.295 223.88 364.535 223.88C361.515 223.88 359.355 221.68 359.355 218.64C359.355 215.6 361.515 213.4 364.535 213.4C366.355 213.4 367.855 214.2 368.775 215.52L368.875 213.66H369.855V223.58C369.855 226.36 367.815 228.26 364.795 228.26ZM360.515 218.64C360.515 221.06 362.215 222.74 364.655 222.74C367.075 222.74 368.775 221.06 368.775 218.64C368.775 216.22 367.075 214.52 364.655 214.52C362.215 214.52 360.515 216.22 360.515 218.64ZM378.346 224.26C375.206 224.26 373.066 222.04 373.066 218.82C373.066 215.62 375.226 213.4 378.366 213.4C381.626 213.4 383.726 215.8 383.646 219.3H374.246C374.446 221.64 376.046 223.16 378.346 223.16C380.026 223.16 381.366 222.38 382.046 221.04L383.346 221.06C382.546 223.04 380.666 224.26 378.346 224.26ZM374.246 218.28H382.506C382.226 215.94 380.626 214.5 378.366 214.5C376.066 214.5 374.446 216 374.246 218.28ZM390.378 224.26C387.758 224.26 386.098 222.94 386.018 220.88H387.158C387.278 222.34 388.418 223.2 390.398 223.2C392.218 223.2 393.318 222.5 393.318 221.36C393.318 220.28 392.338 219.62 390.138 219.24C387.438 218.78 386.218 217.82 386.218 216.24C386.218 214.48 387.718 213.4 390.138 213.4C392.578 213.4 394.118 214.56 394.278 216.54H393.118C392.998 215.18 391.938 214.44 390.138 214.44C388.418 214.44 387.378 215.14 387.378 216.26C387.378 217.28 388.238 217.84 390.538 218.28C393.158 218.78 394.458 219.82 394.458 221.38C394.458 223.12 392.878 224.26 390.378 224.26ZM401.721 224C399.521 224 398.341 222.76 398.341 220.42V214.72H396.081V213.66H397.401C398.181 213.66 398.401 213.46 398.481 212.7L398.581 211.12H399.501V213.66H403.081V214.72H399.501V220.38C399.501 222.08 400.201 222.88 401.761 222.88H403.221V224H401.721ZM406.33 224V213.66H407.49V224H406.33ZM405.85 210.72C405.85 210.14 406.27 209.68 406.91 209.68C407.55 209.68 407.97 210.14 407.97 210.72C407.97 211.32 407.55 211.78 406.91 211.78C406.27 211.78 405.85 211.32 405.85 210.72ZM416.143 224.26C412.943 224.26 410.703 222.02 410.703 218.82C410.703 215.64 412.943 213.4 416.143 213.4C419.323 213.4 421.563 215.64 421.563 218.82C421.563 222.02 419.323 224.26 416.143 224.26ZM411.863 218.82C411.863 221.38 413.603 223.14 416.143 223.14C418.663 223.14 420.403 221.38 420.403 218.82C420.403 216.28 418.663 214.52 416.143 214.52C413.603 214.52 411.863 216.28 411.863 218.82ZM424.787 224V213.66H425.767L425.867 215.66C426.687 214.18 428.127 213.4 429.787 213.4C432.487 213.4 434.147 215.3 434.147 218.28V224H432.987V218.38C432.987 216 431.707 214.52 429.647 214.52C427.467 214.52 425.947 216.18 425.947 218.64V224H424.787ZM442.428 224.26C439.288 224.26 437.148 222.04 437.148 218.82C437.148 215.62 439.308 213.4 442.448 213.4C445.708 213.4 447.808 215.8 447.728 219.3H438.328C438.528 221.64 440.128 223.16 442.428 223.16C444.108 223.16 445.448 222.38 446.128 221.04L447.428 221.06C446.628 223.04 444.748 224.26 442.428 224.26ZM438.328 218.28H446.588C446.308 215.94 444.708 214.5 442.448 214.5C440.148 214.5 438.528 216 438.328 218.28ZM459.714 224.26C456.594 224.26 454.414 221.96 454.414 218.82C454.414 215.68 456.594 213.4 459.714 213.4C461.614 213.4 463.154 214.24 464.074 215.58V209.2H465.234V224H464.274L464.134 221.96C463.234 223.38 461.654 224.26 459.714 224.26ZM455.574 218.82C455.574 221.36 457.314 223.14 459.854 223.14C462.374 223.14 464.114 221.36 464.114 218.82C464.114 216.3 462.374 214.52 459.854 214.52C457.314 214.52 455.574 216.3 455.574 218.82ZM473.737 224.26C470.597 224.26 468.457 222.04 468.457 218.82C468.457 215.62 470.617 213.4 473.757 213.4C477.017 213.4 479.117 215.8 479.037 219.3H469.637C469.837 221.64 471.437 223.16 473.737 223.16C475.417 223.16 476.757 222.38 477.437 221.04L478.737 221.06C477.937 223.04 476.057 224.26 473.737 224.26ZM469.637 218.28H477.897C477.617 215.94 476.017 214.5 473.757 214.5C471.457 214.5 469.837 216 469.637 218.28ZM482.208 224V213.66H483.368V224H482.208ZM481.728 210.72C481.728 210.14 482.148 209.68 482.788 209.68C483.428 209.68 483.848 210.14 483.848 210.72C483.848 211.32 483.428 211.78 482.788 211.78C482.148 211.78 481.728 211.32 481.728 210.72ZM214.44 253.26C211.34 253.26 209.16 251 209.16 247.82C209.16 244.64 211.34 242.4 214.44 242.4C216.9 242.4 218.92 243.86 219.52 246.1H218.34C217.66 244.46 216.22 243.52 214.44 243.52C212 243.52 210.32 245.28 210.32 247.82C210.32 250.38 212 252.14 214.44 252.14C216.34 252.14 217.82 251.08 218.4 249.38H219.62C218.92 251.8 216.98 253.26 214.44 253.26ZM227.315 253.26C224.115 253.26 221.875 251.02 221.875 247.82C221.875 244.64 224.115 242.4 227.315 242.4C230.495 242.4 232.735 244.64 232.735 247.82C232.735 251.02 230.495 253.26 227.315 253.26ZM223.035 247.82C223.035 250.38 224.775 252.14 227.315 252.14C229.835 252.14 231.575 250.38 231.575 247.82C231.575 245.28 229.835 243.52 227.315 243.52C224.775 243.52 223.035 245.28 223.035 247.82ZM235.958 253V242.66H236.938L237.038 244.34C237.758 243.08 239.018 242.4 240.618 242.4C242.418 242.4 243.798 243.3 244.398 244.88C245.098 243.3 246.518 242.4 248.338 242.4C250.938 242.4 252.618 244.18 252.618 247.06V253H251.458V247.24C251.458 244.94 250.178 243.52 248.198 243.52C246.178 243.52 244.858 244.98 244.858 247.32V253H243.698V247.24C243.698 244.94 242.438 243.52 240.458 243.52C238.438 243.52 237.118 244.98 237.118 247.32V253H235.958ZM262.025 253.26C260.125 253.26 258.585 252.4 257.665 251.04V257H256.505V242.66H257.485L257.605 244.72C258.505 243.28 260.085 242.4 262.025 242.4C265.165 242.4 267.325 244.68 267.325 247.82C267.325 250.96 265.165 253.26 262.025 253.26ZM257.625 247.82C257.625 250.36 259.365 252.14 261.905 252.14C264.445 252.14 266.165 250.36 266.165 247.82C266.165 245.3 264.445 243.52 261.905 243.52C259.365 243.52 257.625 245.3 257.625 247.82ZM270.548 253V242.66H271.708V253H270.548ZM270.068 239.72C270.068 239.14 270.488 238.68 271.128 238.68C271.768 238.68 272.188 239.14 272.188 239.72C272.188 240.32 271.768 240.78 271.128 240.78C270.488 240.78 270.068 240.32 270.068 239.72ZM280.022 253C277.822 253 276.642 251.76 276.642 249.42V243.72H274.382V242.66H275.702C276.482 242.66 276.702 242.46 276.782 241.7L276.882 240.12H277.802V242.66H281.382V243.72H277.802V249.38C277.802 251.08 278.502 251.88 280.062 251.88H281.522V253H280.022ZM284.63 253V242.66H285.79V253H284.63ZM284.15 239.72C284.15 239.14 284.57 238.68 285.21 238.68C285.85 238.68 286.27 239.14 286.27 239.72C286.27 240.32 285.85 240.78 285.21 240.78C284.57 240.78 284.15 240.32 284.15 239.72ZM292.844 248.64C292.844 247.26 293.404 246.38 294.904 245.46C296.384 244.52 296.904 243.76 296.904 242.56C296.904 240.9 295.744 239.9 293.764 239.9C291.804 239.9 290.524 240.92 290.424 242.64H289.244C289.384 240.22 291.084 238.74 293.724 238.74C296.344 238.74 298.084 240.24 298.084 242.52C298.084 244.04 297.324 245.24 295.544 246.36C294.344 247.1 294.024 247.64 294.024 248.72V249.16H292.844V248.64ZM292.364 252.08C292.364 251.46 292.804 251.04 293.444 251.04C294.064 251.04 294.504 251.46 294.504 252.08C294.504 252.7 294.064 253.12 293.444 253.12C292.804 253.12 292.364 252.7 292.364 252.08Z" fill="black"/>
<path d="M660.5 239.26C656.24 239.26 653.28 236.28 653.28 232C653.28 227.72 656.24 224.74 660.5 224.74C664.78 224.74 667.72 227.72 667.72 232C667.72 235.52 665.74 238.16 662.66 238.98L662.84 239.42C663.42 240.8 664.12 241.24 665.84 241.24H666.96V242.4H665.76C663.66 242.4 662.46 241.66 661.7 239.86L661.44 239.22C661.14 239.24 660.82 239.26 660.5 239.26ZM654.52 232C654.52 235.58 656.96 238.04 660.5 238.04C664.06 238.04 666.5 235.58 666.5 232C666.5 228.4 664.06 225.96 660.5 225.96C656.96 225.96 654.52 228.4 654.52 232ZM675.132 239.26C672.472 239.26 670.832 237.36 670.832 234.38V228.66H671.992V234.28C671.992 236.64 673.252 238.14 675.292 238.14C677.432 238.14 678.912 236.46 678.912 234V228.66H680.072V239H679.112L678.992 236.98C678.192 238.48 676.752 239.26 675.132 239.26ZM687.437 239.16C685.037 239.16 683.537 237.98 683.537 236.08C683.537 234.24 684.937 233.08 687.057 233.08H691.617V232.34C691.617 230.62 690.357 229.48 688.437 229.48C686.877 229.48 685.657 230.28 685.237 231.52H684.057C684.557 229.6 686.217 228.4 688.417 228.4C690.997 228.4 692.777 229.98 692.777 232.28V239H691.817L691.697 237.22C690.797 238.46 689.277 239.16 687.437 239.16ZM684.697 236.06C684.697 237.32 685.757 238.12 687.477 238.12C689.877 238.12 691.637 236.62 691.637 234.54V234.1H687.097C685.677 234.1 684.697 234.88 684.697 236.06ZM696.677 239V224.2H697.837V239H696.677ZM701.951 239V228.66H703.111V239H701.951ZM701.471 225.72C701.471 225.14 701.891 224.68 702.531 224.68C703.171 224.68 703.591 225.14 703.591 225.72C703.591 226.32 703.171 226.78 702.531 226.78C701.891 226.78 701.471 226.32 701.471 225.72ZM712.576 239V228.66H713.556L713.656 230.34C714.376 229.08 715.636 228.4 717.236 228.4C719.036 228.4 720.416 229.3 721.016 230.88C721.716 229.3 723.136 228.4 724.956 228.4C727.556 228.4 729.236 230.18 729.236 233.06V239H728.076V233.24C728.076 230.94 726.796 229.52 724.816 229.52C722.796 229.52 721.476 230.98 721.476 233.32V239H720.316V233.24C720.316 230.94 719.056 229.52 717.076 229.52C715.056 229.52 713.736 230.98 713.736 233.32V239H712.576ZM737.503 239.26C734.363 239.26 732.223 237.04 732.223 233.82C732.223 230.62 734.383 228.4 737.523 228.4C740.783 228.4 742.883 230.8 742.803 234.3H733.403C733.603 236.64 735.203 238.16 737.503 238.16C739.183 238.16 740.523 237.38 741.203 236.04L742.503 236.06C741.703 238.04 739.823 239.26 737.503 239.26ZM733.403 233.28H741.663C741.383 230.94 739.783 229.5 737.523 229.5C735.223 229.5 733.603 231 733.403 233.28ZM749.842 239C747.642 239 746.462 237.76 746.462 235.42V229.72H744.202V228.66H745.522C746.302 228.66 746.522 228.46 746.602 227.7L746.702 226.12H747.622V228.66H751.202V229.72H747.622V235.38C747.622 237.08 748.322 237.88 749.882 237.88H751.342V239H749.842ZM758.483 239.26C755.283 239.26 753.043 237.02 753.043 233.82C753.043 230.64 755.283 228.4 758.483 228.4C761.663 228.4 763.903 230.64 763.903 233.82C763.903 237.02 761.663 239.26 758.483 239.26ZM754.203 233.82C754.203 236.38 755.943 238.14 758.483 238.14C761.003 238.14 762.743 236.38 762.743 233.82C762.743 231.28 761.003 229.52 758.483 229.52C755.943 229.52 754.203 231.28 754.203 233.82ZM771.526 239.26C768.406 239.26 766.226 236.96 766.226 233.82C766.226 230.68 768.406 228.4 771.526 228.4C773.426 228.4 774.966 229.24 775.886 230.58V224.2H777.046V239H776.086L775.946 236.96C775.046 238.38 773.466 239.26 771.526 239.26ZM767.386 233.82C767.386 236.36 769.126 238.14 771.666 238.14C774.186 238.14 775.926 236.36 775.926 233.82C775.926 231.3 774.186 229.52 771.666 229.52C769.126 229.52 767.386 231.3 767.386 233.82ZM781.169 239V228.66H782.329V239H781.169ZM780.689 225.72C780.689 225.14 781.109 224.68 781.749 224.68C782.389 224.68 782.809 225.14 782.809 225.72C782.809 226.32 782.389 226.78 781.749 226.78C781.109 226.78 780.689 226.32 780.689 225.72ZM795.706 239.26C792.566 239.26 790.426 237.04 790.426 233.82C790.426 230.62 792.586 228.4 795.726 228.4C798.986 228.4 801.086 230.8 801.006 234.3H791.606C791.806 236.64 793.406 238.16 795.706 238.16C797.386 238.16 798.726 237.38 799.406 236.04L800.706 236.06C799.906 238.04 798.026 239.26 795.706 239.26ZM791.606 233.28H799.866C799.586 230.94 797.986 229.5 795.726 229.5C793.426 229.5 791.806 231 791.606 233.28ZM807.737 239.26C805.117 239.26 803.457 237.94 803.377 235.88H804.517C804.637 237.34 805.777 238.2 807.757 238.2C809.577 238.2 810.677 237.5 810.677 236.36C810.677 235.28 809.697 234.62 807.497 234.24C804.797 233.78 803.577 232.82 803.577 231.24C803.577 229.48 805.077 228.4 807.497 228.4C809.937 228.4 811.477 229.56 811.637 231.54H810.477C810.357 230.18 809.297 229.44 807.497 229.44C805.777 229.44 804.737 230.14 804.737 231.26C804.737 232.28 805.597 232.84 807.897 233.28C810.517 233.78 811.817 234.82 811.817 236.38C811.817 238.12 810.237 239.26 807.737 239.26ZM815.173 239V228.66H816.333V239H815.173ZM814.693 225.72C814.693 225.14 815.113 224.68 815.753 224.68C816.393 224.68 816.813 225.14 816.813 225.72C816.813 226.32 816.393 226.78 815.753 226.78C815.113 226.78 814.693 226.32 814.693 225.72ZM824.007 239.26C821.387 239.26 819.727 237.94 819.647 235.88H820.787C820.907 237.34 822.047 238.2 824.027 238.2C825.847 238.2 826.947 237.5 826.947 236.36C826.947 235.28 825.967 234.62 823.767 234.24C821.067 233.78 819.847 232.82 819.847 231.24C819.847 229.48 821.347 228.4 823.767 228.4C826.207 228.4 827.747 229.56 827.907 231.54H826.747C826.627 230.18 825.567 229.44 823.767 229.44C822.047 229.44 821.007 230.14 821.007 231.26C821.007 232.28 821.867 232.84 824.167 233.28C826.787 233.78 828.087 234.82 828.087 236.38C828.087 238.12 826.507 239.26 824.007 239.26ZM835.35 239C833.15 239 831.97 237.76 831.97 235.42V229.72H829.71V228.66H831.03C831.81 228.66 832.03 228.46 832.11 227.7L832.21 226.12H833.13V228.66H836.71V229.72H833.13V235.38C833.13 237.08 833.83 237.88 835.39 237.88H836.85V239H835.35ZM843.991 239.26C840.791 239.26 838.551 237.02 838.551 233.82C838.551 230.64 840.791 228.4 843.991 228.4C847.171 228.4 849.411 230.64 849.411 233.82C849.411 237.02 847.171 239.26 843.991 239.26ZM839.711 233.82C839.711 236.38 841.451 238.14 843.991 238.14C846.511 238.14 848.251 236.38 848.251 233.82C848.251 231.28 846.511 229.52 843.991 229.52C841.451 229.52 839.711 231.28 839.711 233.82ZM852.634 239V228.66H853.614L853.714 230.66C854.534 229.18 855.974 228.4 857.634 228.4C860.334 228.4 861.994 230.3 861.994 233.28V239H860.834V233.38C860.834 231 859.554 229.52 857.494 229.52C855.314 229.52 853.794 231.18 853.794 233.64V239H852.634ZM870.436 239.26C867.236 239.26 864.996 237.02 864.996 233.82C864.996 230.64 867.236 228.4 870.436 228.4C873.616 228.4 875.856 230.64 875.856 233.82C875.856 237.02 873.616 239.26 870.436 239.26ZM866.156 233.82C866.156 236.38 867.896 238.14 870.436 238.14C872.956 238.14 874.696 236.38 874.696 233.82C874.696 231.28 872.956 229.52 870.436 229.52C867.896 229.52 866.156 231.28 866.156 233.82ZM888.034 239.26C884.834 239.26 882.594 237.02 882.594 233.82C882.594 230.64 884.834 228.4 888.034 228.4C891.214 228.4 893.454 230.64 893.454 233.82C893.454 237.02 891.214 239.26 888.034 239.26ZM883.754 233.82C883.754 236.38 885.494 238.14 888.034 238.14C890.554 238.14 892.294 236.38 892.294 233.82C892.294 231.28 890.554 229.52 888.034 229.52C885.494 229.52 883.754 231.28 883.754 233.82ZM901.217 243.26C898.677 243.26 896.797 241.92 896.397 239.82H897.577C897.917 241.26 899.317 242.16 901.217 242.16C903.597 242.16 905.117 240.76 905.117 238.54V236.86C904.197 238.12 902.717 238.88 900.957 238.88C897.937 238.88 895.777 236.68 895.777 233.64C895.777 230.6 897.937 228.4 900.957 228.4C902.777 228.4 904.277 229.2 905.197 230.52L905.297 228.66H906.277V238.58C906.277 241.36 904.237 243.26 901.217 243.26ZM896.937 233.64C896.937 236.06 898.637 237.74 901.077 237.74C903.497 237.74 905.197 236.06 905.197 233.64C905.197 231.22 903.497 229.52 901.077 229.52C898.637 229.52 896.937 231.22 896.937 233.64ZM914.928 243.26C912.388 243.26 910.508 241.92 910.108 239.82H911.288C911.628 241.26 913.028 242.16 914.928 242.16C917.308 242.16 918.828 240.76 918.828 238.54V236.86C917.908 238.12 916.428 238.88 914.668 238.88C911.648 238.88 909.488 236.68 909.488 233.64C909.488 230.6 911.648 228.4 914.668 228.4C916.488 228.4 917.988 229.2 918.908 230.52L919.008 228.66H919.988V238.58C919.988 241.36 917.948 243.26 914.928 243.26ZM910.648 233.64C910.648 236.06 912.348 237.74 914.788 237.74C917.208 237.74 918.908 236.06 918.908 233.64C918.908 231.22 917.208 229.52 914.788 229.52C912.348 229.52 910.648 231.22 910.648 233.64ZM924.099 239V228.66H925.259V239H924.099ZM923.619 225.72C923.619 225.14 924.039 224.68 924.679 224.68C925.319 224.68 925.739 225.14 925.739 225.72C925.739 226.32 925.319 226.78 924.679 226.78C924.039 226.78 923.619 226.32 923.619 225.72ZM940.244 239.26C938.344 239.26 936.804 238.4 935.884 237.04V243H934.724V228.66H935.704L935.824 230.72C936.724 229.28 938.304 228.4 940.244 228.4C943.384 228.4 945.544 230.68 945.544 233.82C945.544 236.96 943.384 239.26 940.244 239.26ZM935.844 233.82C935.844 236.36 937.584 238.14 940.124 238.14C942.664 238.14 944.384 236.36 944.384 233.82C944.384 231.3 942.664 229.52 940.124 229.52C937.584 229.52 935.844 231.3 935.844 233.82ZM953.147 239.26C950.007 239.26 947.867 237.04 947.867 233.82C947.867 230.62 950.027 228.4 953.167 228.4C956.427 228.4 958.527 230.8 958.447 234.3H949.047C949.247 236.64 950.847 238.16 953.147 238.16C954.827 238.16 956.167 237.38 956.847 236.04L958.147 236.06C957.347 238.04 955.467 239.26 953.147 239.26ZM949.047 233.28H957.307C957.027 230.94 955.427 229.5 953.167 229.5C950.867 229.5 949.247 231 949.047 233.28ZM961.619 239V228.66H962.599L962.719 230.98C963.419 229.42 964.599 228.66 966.519 228.66H967.379V229.74H966.479C964.259 229.74 962.779 231.1 962.779 234.24V239H961.619ZM975.31 239V224.2H976.47V239H975.31ZM983.823 239.16C981.423 239.16 979.923 237.98 979.923 236.08C979.923 234.24 981.323 233.08 983.443 233.08H988.003V232.34C988.003 230.62 986.743 229.48 984.823 229.48C983.263 229.48 982.043 230.28 981.623 231.52H980.443C980.943 229.6 982.603 228.4 984.803 228.4C987.383 228.4 989.163 229.98 989.163 232.28V239H988.203L988.083 237.22C987.183 238.46 985.663 239.16 983.823 239.16ZM981.083 236.06C981.083 237.32 982.143 238.12 983.863 238.12C986.263 238.12 988.023 236.62 988.023 234.54V234.1H983.483C982.063 234.1 981.083 234.88 981.083 236.06ZM658.6 272.26C656.06 272.26 654.18 270.92 653.78 268.82H654.96C655.3 270.26 656.7 271.16 658.6 271.16C660.98 271.16 662.5 269.76 662.5 267.54V265.86C661.58 267.12 660.1 267.88 658.34 267.88C655.32 267.88 653.16 265.68 653.16 262.64C653.16 259.6 655.32 257.4 658.34 257.4C660.16 257.4 661.66 258.2 662.58 259.52L662.68 257.66H663.66V267.58C663.66 270.36 661.62 272.26 658.6 272.26ZM654.32 262.64C654.32 265.06 656.02 266.74 658.46 266.74C660.88 266.74 662.58 265.06 662.58 262.64C662.58 260.22 660.88 258.52 658.46 258.52C656.02 258.52 654.32 260.22 654.32 262.64ZM672.151 268.26C669.011 268.26 666.871 266.04 666.871 262.82C666.871 259.62 669.031 257.4 672.171 257.4C675.431 257.4 677.531 259.8 677.451 263.3H668.051C668.251 265.64 669.851 267.16 672.151 267.16C673.831 267.16 675.171 266.38 675.851 265.04L677.151 265.06C676.351 267.04 674.471 268.26 672.151 268.26ZM668.051 262.28H676.311C676.031 259.94 674.431 258.5 672.171 258.5C669.871 258.5 668.251 260 668.051 262.28ZM684.183 268.26C681.563 268.26 679.903 266.94 679.823 264.88H680.963C681.083 266.34 682.223 267.2 684.203 267.2C686.023 267.2 687.123 266.5 687.123 265.36C687.123 264.28 686.143 263.62 683.943 263.24C681.243 262.78 680.023 261.82 680.023 260.24C680.023 258.48 681.523 257.4 683.943 257.4C686.383 257.4 687.923 258.56 688.083 260.54H686.923C686.803 259.18 685.743 258.44 683.943 258.44C682.223 258.44 681.183 259.14 681.183 260.26C681.183 261.28 682.043 261.84 684.343 262.28C686.963 262.78 688.263 263.82 688.263 265.38C688.263 267.12 686.683 268.26 684.183 268.26ZM695.526 268C693.326 268 692.146 266.76 692.146 264.42V258.72H689.886V257.66H691.206C691.986 257.66 692.206 257.46 692.286 256.7L692.386 255.12H693.306V257.66H696.886V258.72H693.306V264.38C693.306 266.08 694.006 266.88 695.566 266.88H697.026V268H695.526ZM700.134 268V257.66H701.294V268H700.134ZM699.654 254.72C699.654 254.14 700.074 253.68 700.714 253.68C701.354 253.68 701.774 254.14 701.774 254.72C701.774 255.32 701.354 255.78 700.714 255.78C700.074 255.78 699.654 255.32 699.654 254.72ZM709.948 268.26C706.748 268.26 704.508 266.02 704.508 262.82C704.508 259.64 706.748 257.4 709.948 257.4C713.128 257.4 715.368 259.64 715.368 262.82C715.368 266.02 713.128 268.26 709.948 268.26ZM705.668 262.82C705.668 265.38 707.408 267.14 709.948 267.14C712.468 267.14 714.208 265.38 714.208 262.82C714.208 260.28 712.468 258.52 709.948 258.52C707.408 258.52 705.668 260.28 705.668 262.82ZM718.591 268V257.66H719.571L719.671 259.66C720.491 258.18 721.931 257.4 723.591 257.4C726.291 257.4 727.951 259.3 727.951 262.28V268H726.791V262.38C726.791 260 725.511 258.52 723.451 258.52C721.271 258.52 719.751 260.18 719.751 262.64V268H718.591ZM736.233 268.26C733.093 268.26 730.953 266.04 730.953 262.82C730.953 259.62 733.113 257.4 736.253 257.4C739.513 257.4 741.613 259.8 741.533 263.3H732.133C732.333 265.64 733.933 267.16 736.233 267.16C737.913 267.16 739.253 266.38 739.933 265.04L741.233 265.06C740.433 267.04 738.553 268.26 736.233 268.26ZM732.133 262.28H740.393C740.113 259.94 738.513 258.5 736.253 258.5C733.953 258.5 732.333 260 732.133 262.28ZM753.519 268.26C750.399 268.26 748.219 265.96 748.219 262.82C748.219 259.68 750.399 257.4 753.519 257.4C755.419 257.4 756.959 258.24 757.879 259.58V253.2H759.039V268H758.079L757.939 265.96C757.039 267.38 755.459 268.26 753.519 268.26ZM749.379 262.82C749.379 265.36 751.119 267.14 753.659 267.14C756.179 267.14 757.919 265.36 757.919 262.82C757.919 260.3 756.179 258.52 753.659 258.52C751.119 258.52 749.379 260.3 749.379 262.82ZM767.542 268.26C764.402 268.26 762.262 266.04 762.262 262.82C762.262 259.62 764.422 257.4 767.562 257.4C770.822 257.4 772.922 259.8 772.842 263.3H763.442C763.642 265.64 765.242 267.16 767.542 267.16C769.222 267.16 770.562 266.38 771.242 265.04L772.542 265.06C771.742 267.04 769.862 268.26 767.542 268.26ZM763.442 262.28H771.702C771.422 259.94 769.822 258.5 767.562 258.5C765.262 258.5 763.642 260 763.442 262.28ZM776.013 268V257.66H777.173V268H776.013ZM775.533 254.72C775.533 254.14 775.953 253.68 776.593 253.68C777.233 253.68 777.653 254.14 777.653 254.72C777.653 255.32 777.233 255.78 776.593 255.78C775.953 255.78 775.533 255.32 775.533 254.72ZM790.549 268.26C787.449 268.26 785.269 266 785.269 262.82C785.269 259.64 787.449 257.4 790.549 257.4C793.009 257.4 795.029 258.86 795.629 261.1H794.449C793.769 259.46 792.329 258.52 790.549 258.52C788.109 258.52 786.429 260.28 786.429 262.82C786.429 265.38 788.109 267.14 790.549 267.14C792.449 267.14 793.929 266.08 794.509 264.38H795.729C795.029 266.8 793.089 268.26 790.549 268.26ZM803.424 268.26C800.224 268.26 797.984 266.02 797.984 262.82C797.984 259.64 800.224 257.4 803.424 257.4C806.604 257.4 808.844 259.64 808.844 262.82C808.844 266.02 806.604 268.26 803.424 268.26ZM799.144 262.82C799.144 265.38 800.884 267.14 803.424 267.14C805.944 267.14 807.684 265.38 807.684 262.82C807.684 260.28 805.944 258.52 803.424 258.52C800.884 258.52 799.144 260.28 799.144 262.82ZM812.068 268V257.66H813.048L813.148 259.34C813.868 258.08 815.128 257.4 816.728 257.4C818.528 257.4 819.908 258.3 820.508 259.88C821.208 258.3 822.628 257.4 824.448 257.4C827.048 257.4 828.728 259.18 828.728 262.06V268H827.568V262.24C827.568 259.94 826.288 258.52 824.308 258.52C822.288 258.52 820.968 259.98 820.968 262.32V268H819.808V262.24C819.808 259.94 818.548 258.52 816.568 258.52C814.548 258.52 813.228 259.98 813.228 262.32V268H812.068ZM838.135 268.26C836.235 268.26 834.695 267.4 833.775 266.04V272H832.615V257.66H833.595L833.715 259.72C834.615 258.28 836.195 257.4 838.135 257.4C841.275 257.4 843.435 259.68 843.435 262.82C843.435 265.96 841.275 268.26 838.135 268.26ZM833.735 262.82C833.735 265.36 835.475 267.14 838.015 267.14C840.555 267.14 842.275 265.36 842.275 262.82C842.275 260.3 840.555 258.52 838.015 258.52C835.475 258.52 833.735 260.3 833.735 262.82ZM846.658 268V257.66H847.818V268H846.658ZM846.178 254.72C846.178 254.14 846.598 253.68 847.238 253.68C847.878 253.68 848.298 254.14 848.298 254.72C848.298 255.32 847.878 255.78 847.238 255.78C846.598 255.78 846.178 255.32 846.178 254.72ZM856.131 268C853.931 268 852.751 266.76 852.751 264.42V258.72H850.491V257.66H851.811C852.591 257.66 852.811 257.46 852.891 256.7L852.991 255.12H853.911V257.66H857.491V258.72H853.911V264.38C853.911 266.08 854.611 266.88 856.171 266.88H857.631V268H856.131ZM860.74 268V257.66H861.9V268H860.74ZM860.26 254.72C860.26 254.14 860.68 253.68 861.32 253.68C861.96 253.68 862.38 254.14 862.38 254.72C862.38 255.32 861.96 255.78 861.32 255.78C860.68 255.78 860.26 255.32 860.26 254.72ZM868.953 263.64C868.953 262.26 869.513 261.38 871.013 260.46C872.493 259.52 873.013 258.76 873.013 257.56C873.013 255.9 871.853 254.9 869.873 254.9C867.913 254.9 866.633 255.92 866.533 257.64H865.353C865.493 255.22 867.193 253.74 869.833 253.74C872.453 253.74 874.193 255.24 874.193 257.52C874.193 259.04 873.433 260.24 871.653 261.36C870.453 262.1 870.133 262.64 870.133 263.72V264.16H868.953V263.64ZM868.473 267.08C868.473 266.46 868.913 266.04 869.553 266.04C870.173 266.04 870.613 266.46 870.613 267.08C870.613 267.7 870.173 268.12 869.553 268.12C868.913 268.12 868.473 267.7 868.473 267.08Z" fill="black"/>
<path d="M750.38 87.26C746.26 87.26 743.28 84.26 743.28 80C743.28 75.74 746.26 72.74 750.38 72.74C753.58 72.74 756.2 74.6 757.12 77.54H755.84C755.04 75.32 752.96 73.96 750.4 73.96C746.98 73.96 744.52 76.42 744.52 80C744.52 83.58 746.98 86.04 750.4 86.04C753.02 86.04 755.18 84.62 755.96 82.3H757.24C756.38 85.32 753.68 87.26 750.38 87.26ZM764.909 87.26C761.709 87.26 759.469 85.02 759.469 81.82C759.469 78.64 761.709 76.4 764.909 76.4C768.089 76.4 770.329 78.64 770.329 81.82C770.329 85.02 768.089 87.26 764.909 87.26ZM760.629 81.82C760.629 84.38 762.369 86.14 764.909 86.14C767.429 86.14 769.169 84.38 769.169 81.82C769.169 79.28 767.429 77.52 764.909 77.52C762.369 77.52 760.629 79.28 760.629 81.82ZM773.552 87V76.66H774.532L774.632 78.34C775.352 77.08 776.612 76.4 778.212 76.4C780.012 76.4 781.392 77.3 781.992 78.88C782.692 77.3 784.112 76.4 785.932 76.4C788.532 76.4 790.212 78.18 790.212 81.06V87H789.052V81.24C789.052 78.94 787.772 77.52 785.792 77.52C783.772 77.52 782.452 78.98 782.452 81.32V87H781.292V81.24C781.292 78.94 780.032 77.52 778.052 77.52C776.032 77.52 774.712 78.98 774.712 81.32V87H773.552ZM798.479 87.26C795.339 87.26 793.199 85.04 793.199 81.82C793.199 78.62 795.359 76.4 798.499 76.4C801.759 76.4 803.859 78.8 803.779 82.3H794.379C794.579 84.64 796.179 86.16 798.479 86.16C800.159 86.16 801.499 85.38 802.179 84.04L803.479 84.06C802.679 86.04 800.799 87.26 798.479 87.26ZM794.379 81.28H802.639C802.359 78.94 800.759 77.5 798.499 77.5C796.199 77.5 794.579 79 794.379 81.28ZM814.964 87.26C812.344 87.26 810.684 85.94 810.604 83.88H811.744C811.864 85.34 813.004 86.2 814.984 86.2C816.804 86.2 817.904 85.5 817.904 84.36C817.904 83.28 816.924 82.62 814.724 82.24C812.024 81.78 810.804 80.82 810.804 79.24C810.804 77.48 812.304 76.4 814.724 76.4C817.164 76.4 818.704 77.56 818.864 79.54H817.704C817.584 78.18 816.524 77.44 814.724 77.44C813.004 77.44 811.964 78.14 811.964 79.26C811.964 80.28 812.824 80.84 815.124 81.28C817.744 81.78 819.044 82.82 819.044 84.38C819.044 86.12 817.464 87.26 814.964 87.26ZM826.78 87.26C823.68 87.26 821.5 85 821.5 81.82C821.5 78.64 823.68 76.4 826.78 76.4C829.24 76.4 831.26 77.86 831.86 80.1H830.68C830 78.46 828.56 77.52 826.78 77.52C824.34 77.52 822.66 79.28 822.66 81.82C822.66 84.38 824.34 86.14 826.78 86.14C828.68 86.14 830.16 85.08 830.74 83.38H831.96C831.26 85.8 829.32 87.26 826.78 87.26ZM839.655 87.26C836.455 87.26 834.215 85.02 834.215 81.82C834.215 78.64 836.455 76.4 839.655 76.4C842.835 76.4 845.075 78.64 845.075 81.82C845.075 85.02 842.835 87.26 839.655 87.26ZM835.375 81.82C835.375 84.38 837.115 86.14 839.655 86.14C842.175 86.14 843.915 84.38 843.915 81.82C843.915 79.28 842.175 77.52 839.655 77.52C837.115 77.52 835.375 79.28 835.375 81.82ZM853.818 87.26C851.918 87.26 850.378 86.4 849.458 85.04V91H848.298V76.66H849.278L849.398 78.72C850.298 77.28 851.878 76.4 853.818 76.4C856.958 76.4 859.118 78.68 859.118 81.82C859.118 84.96 856.958 87.26 853.818 87.26ZM849.418 81.82C849.418 84.36 851.158 86.14 853.698 86.14C856.238 86.14 857.958 84.36 857.958 81.82C857.958 79.3 856.238 77.52 853.698 77.52C851.158 77.52 849.418 79.3 849.418 81.82ZM862.341 87V76.66H863.321L863.441 78.98C864.141 77.42 865.321 76.66 867.241 76.66H868.101V77.74H867.201C864.981 77.74 863.501 79.1 863.501 82.24V87H862.341ZM871.013 87V76.66H872.173V87H871.013ZM870.533 73.72C870.533 73.14 870.953 72.68 871.593 72.68C872.233 72.68 872.653 73.14 872.653 73.72C872.653 74.32 872.233 74.78 871.593 74.78C870.953 74.78 870.533 74.32 870.533 73.72ZM879.527 87.16C877.127 87.16 875.627 85.98 875.627 84.08C875.627 82.24 877.027 81.08 879.147 81.08H883.707V80.34C883.707 78.62 882.447 77.48 880.527 77.48C878.967 77.48 877.747 78.28 877.327 79.52H876.147C876.647 77.6 878.307 76.4 880.507 76.4C883.087 76.4 884.867 77.98 884.867 80.28V87H883.907L883.787 85.22C882.887 86.46 881.367 87.16 879.527 87.16ZM876.787 84.06C876.787 85.32 877.847 86.12 879.567 86.12C881.967 86.12 883.727 84.62 883.727 82.54V82.1H879.187C877.767 82.1 876.787 82.88 876.787 84.06ZM888.767 87V76.66H889.747L889.847 78.34C890.567 77.08 891.827 76.4 893.427 76.4C895.227 76.4 896.607 77.3 897.207 78.88C897.907 77.3 899.327 76.4 901.147 76.4C903.747 76.4 905.427 78.18 905.427 81.06V87H904.267V81.24C904.267 78.94 902.987 77.52 901.007 77.52C898.987 77.52 897.667 78.98 897.667 81.32V87H896.507V81.24C896.507 78.94 895.247 77.52 893.267 77.52C891.247 77.52 889.927 78.98 889.927 81.32V87H888.767ZM913.854 87.26C910.654 87.26 908.414 85.02 908.414 81.82C908.414 78.64 910.654 76.4 913.854 76.4C917.034 76.4 919.274 78.64 919.274 81.82C919.274 85.02 917.034 87.26 913.854 87.26ZM909.574 81.82C909.574 84.38 911.314 86.14 913.854 86.14C916.374 86.14 918.114 84.38 918.114 81.82C918.114 79.28 916.374 77.52 913.854 77.52C911.314 77.52 909.574 79.28 909.574 81.82ZM931.292 87.26C928.192 87.26 926.012 85 926.012 81.82C926.012 78.64 928.192 76.4 931.292 76.4C933.752 76.4 935.772 77.86 936.372 80.1H935.192C934.512 78.46 933.072 77.52 931.292 77.52C928.852 77.52 927.172 79.28 927.172 81.82C927.172 84.38 928.852 86.14 931.292 86.14C933.192 86.14 934.672 85.08 935.252 83.38H936.472C935.772 85.8 933.832 87.26 931.292 87.26ZM944.166 87.26C940.966 87.26 938.726 85.02 938.726 81.82C938.726 78.64 940.966 76.4 944.166 76.4C947.346 76.4 949.586 78.64 949.586 81.82C949.586 85.02 947.346 87.26 944.166 87.26ZM939.886 81.82C939.886 84.38 941.626 86.14 944.166 86.14C946.686 86.14 948.426 84.38 948.426 81.82C948.426 79.28 946.686 77.52 944.166 77.52C941.626 77.52 939.886 79.28 939.886 81.82ZM956.37 87.26C953.75 87.26 952.09 85.94 952.01 83.88H953.15C953.27 85.34 954.41 86.2 956.39 86.2C958.21 86.2 959.31 85.5 959.31 84.36C959.31 83.28 958.33 82.62 956.13 82.24C953.43 81.78 952.21 80.82 952.21 79.24C952.21 77.48 953.71 76.4 956.13 76.4C958.57 76.4 960.11 77.56 960.27 79.54H959.11C958.99 78.18 957.93 77.44 956.13 77.44C954.41 77.44 953.37 78.14 953.37 79.26C953.37 80.28 954.23 80.84 956.53 81.28C959.15 81.78 960.45 82.82 960.45 84.38C960.45 86.12 958.87 87.26 956.37 87.26ZM966.929 87.16C964.529 87.16 963.029 85.98 963.029 84.08C963.029 82.24 964.429 81.08 966.549 81.08H971.109V80.34C971.109 78.62 969.849 77.48 967.929 77.48C966.369 77.48 965.149 78.28 964.729 79.52H963.549C964.049 77.6 965.709 76.4 967.909 76.4C970.489 76.4 972.269 77.98 972.269 80.28V87H971.309L971.189 85.22C970.289 86.46 968.769 87.16 966.929 87.16ZM964.189 84.06C964.189 85.32 965.249 86.12 966.969 86.12C969.369 86.12 971.129 84.62 971.129 82.54V82.1H966.589C965.169 82.1 964.189 82.88 964.189 84.06ZM985.432 87.26C982.292 87.26 980.152 85.04 980.152 81.82C980.152 78.62 982.312 76.4 985.452 76.4C988.712 76.4 990.812 78.8 990.732 82.3H981.332C981.532 84.64 983.132 86.16 985.432 86.16C987.112 86.16 988.452 85.38 989.132 84.04L990.432 84.06C989.632 86.04 987.752 87.26 985.432 87.26ZM981.332 81.28H989.592C989.312 78.94 987.712 77.5 985.452 77.5C983.152 77.5 981.532 79 981.332 81.28ZM983.852 71.92H985.112L986.212 74.94H985.112L983.852 71.92ZM998.787 87V76.66H999.767L999.887 78.98C1000.59 77.42 1001.77 76.66 1003.69 76.66H1004.55V77.74H1003.65C1001.43 77.74 999.947 79.1 999.947 82.24V87H998.787ZM1007.46 87V76.66H1008.62V87H1007.46ZM1006.98 73.72C1006.98 73.14 1007.4 72.68 1008.04 72.68C1008.68 72.68 1009.1 73.14 1009.1 73.72C1009.1 74.32 1008.68 74.78 1008.04 74.78C1007.4 74.78 1006.98 74.32 1006.98 73.72ZM1012.73 87V72.2H1013.89V87H1012.73ZM1022.39 87.26C1019.25 87.26 1017.11 85.04 1017.11 81.82C1017.11 78.62 1019.27 76.4 1022.41 76.4C1025.67 76.4 1027.77 78.8 1027.69 82.3H1018.29C1018.49 84.64 1020.09 86.16 1022.39 86.16C1024.07 86.16 1025.41 85.38 1026.09 84.04L1027.39 84.06C1026.59 86.04 1024.71 87.26 1022.39 87.26ZM1018.29 81.28H1026.55C1026.27 78.94 1024.67 77.5 1022.41 77.5C1020.11 77.5 1018.49 79 1018.29 81.28ZM1033.43 87L1028.81 76.66H1030.07L1031.87 80.66L1034.01 85.48L1036.13 80.66L1037.95 76.66H1039.19L1034.57 87H1033.43ZM1044.35 87.16C1041.95 87.16 1040.45 85.98 1040.45 84.08C1040.45 82.24 1041.85 81.08 1043.97 81.08H1048.53V80.34C1048.53 78.62 1047.27 77.48 1045.35 77.48C1043.79 77.48 1042.57 78.28 1042.15 79.52H1040.97C1041.47 77.6 1043.13 76.4 1045.33 76.4C1047.91 76.4 1049.69 77.98 1049.69 80.28V87H1048.73L1048.61 85.22C1047.71 86.46 1046.19 87.16 1044.35 87.16ZM1041.61 84.06C1041.61 85.32 1042.67 86.12 1044.39 86.12C1046.79 86.12 1048.55 84.62 1048.55 82.54V82.1H1044.01C1042.59 82.1 1041.61 82.88 1041.61 84.06ZM1053.59 87V76.66H1054.57L1054.67 78.66C1055.49 77.18 1056.93 76.4 1058.59 76.4C1061.29 76.4 1062.95 78.3 1062.95 81.28V87H1061.79V81.38C1061.79 79 1060.51 77.52 1058.45 77.52C1056.27 77.52 1054.75 79.18 1054.75 81.64V87H1053.59ZM1070.72 87C1068.52 87 1067.34 85.76 1067.34 83.42V77.72H1065.08V76.66H1066.4C1067.18 76.66 1067.4 76.46 1067.48 75.7L1067.58 74.12H1068.5V76.66H1072.08V77.72H1068.5V83.38C1068.5 85.08 1069.2 85.88 1070.76 85.88H1072.22V87H1070.72ZM1079.2 87.26C1076.06 87.26 1073.92 85.04 1073.92 81.82C1073.92 78.62 1076.08 76.4 1079.22 76.4C1082.48 76.4 1084.58 78.8 1084.5 82.3H1075.1C1075.3 84.64 1076.9 86.16 1079.2 86.16C1080.88 86.16 1082.22 85.38 1082.9 84.04L1084.2 84.06C1083.4 86.04 1081.52 87.26 1079.2 87.26ZM1075.1 81.28H1083.36C1083.08 78.94 1081.48 77.5 1079.22 77.5C1076.92 77.5 1075.3 79 1075.1 81.28ZM749.58 116.26C747.68 116.26 746.14 115.4 745.22 114.04V120H744.06V105.66H745.04L745.16 107.72C746.06 106.28 747.64 105.4 749.58 105.4C752.72 105.4 754.88 107.68 754.88 110.82C754.88 113.96 752.72 116.26 749.58 116.26ZM745.18 110.82C745.18 113.36 746.92 115.14 749.46 115.14C752 115.14 753.72 113.36 753.72 110.82C753.72 108.3 752 106.52 749.46 106.52C746.92 106.52 745.18 108.3 745.18 110.82ZM762.483 116.26C759.343 116.26 757.203 114.04 757.203 110.82C757.203 107.62 759.363 105.4 762.503 105.4C765.763 105.4 767.863 107.8 767.783 111.3H758.383C758.583 113.64 760.183 115.16 762.483 115.16C764.163 115.16 765.503 114.38 766.183 113.04L767.483 113.06C766.683 115.04 764.803 116.26 762.483 116.26ZM758.383 110.28H766.643C766.363 107.94 764.763 106.5 762.503 106.5C760.203 106.5 758.583 108 758.383 110.28ZM770.955 116V105.66H771.935L772.055 107.98C772.755 106.42 773.935 105.66 775.855 105.66H776.715V106.74H775.815C773.595 106.74 772.115 108.1 772.115 111.24V116H770.955ZM788.717 116.26C785.517 116.26 783.277 114.02 783.277 110.82C783.277 107.64 785.517 105.4 788.717 105.4C791.897 105.4 794.137 107.64 794.137 110.82C794.137 114.02 791.897 116.26 788.717 116.26ZM784.437 110.82C784.437 113.38 786.177 115.14 788.717 115.14C791.237 115.14 792.977 113.38 792.977 110.82C792.977 108.28 791.237 106.52 788.717 106.52C786.177 106.52 784.437 108.28 784.437 110.82ZM801.901 120.26C799.361 120.26 797.481 118.92 797.081 116.82H798.261C798.601 118.26 800.001 119.16 801.901 119.16C804.281 119.16 805.801 117.76 805.801 115.54V113.86C804.881 115.12 803.401 115.88 801.641 115.88C798.621 115.88 796.461 113.68 796.461 110.64C796.461 107.6 798.621 105.4 801.641 105.4C803.461 105.4 804.961 106.2 805.881 107.52L805.981 105.66H806.961V115.58C806.961 118.36 804.921 120.26 801.901 120.26ZM797.621 110.64C797.621 113.06 799.321 114.74 801.761 114.74C804.181 114.74 805.881 113.06 805.881 110.64C805.881 108.22 804.181 106.52 801.761 106.52C799.321 106.52 797.621 108.22 797.621 110.64ZM811.072 116V105.66H812.052L812.152 107.66C812.972 106.18 814.412 105.4 816.072 105.4C818.772 105.4 820.432 107.3 820.432 110.28V116H819.272V110.38C819.272 108 817.992 106.52 815.932 106.52C813.752 106.52 812.232 108.18 812.232 110.64V116H811.072ZM824.333 116V105.66H825.493V116H824.333ZM823.853 102.72C823.853 102.14 824.273 101.68 824.913 101.68C825.553 101.68 825.973 102.14 825.973 102.72C825.973 103.32 825.553 103.78 824.913 103.78C824.273 103.78 823.853 103.32 823.853 102.72ZM834.958 116V105.66H836.118V116H834.958ZM834.478 102.72C834.478 102.14 834.898 101.68 835.538 101.68C836.178 101.68 836.598 102.14 836.598 102.72C836.598 103.32 836.178 103.78 835.538 103.78C834.898 103.78 834.478 103.32 834.478 102.72ZM840.232 116V105.66H841.212L841.312 107.66C842.132 106.18 843.572 105.4 845.232 105.4C847.932 105.4 849.592 107.3 849.592 110.28V116H848.432V110.38C848.432 108 847.152 106.52 845.092 106.52C842.912 106.52 841.392 108.18 841.392 110.64V116H840.232ZM857.894 116.26C854.774 116.26 852.594 113.96 852.594 110.82C852.594 107.68 854.774 105.4 857.894 105.4C859.794 105.4 861.334 106.24 862.254 107.58V101.2H863.414V116H862.454L862.314 113.96C861.414 115.38 859.834 116.26 857.894 116.26ZM853.754 110.82C853.754 113.36 855.494 115.14 858.034 115.14C860.554 115.14 862.294 113.36 862.294 110.82C862.294 108.3 860.554 106.52 858.034 106.52C855.494 106.52 853.754 108.3 853.754 110.82ZM867.537 116V105.66H868.697V116H867.537ZM867.057 102.72C867.057 102.14 867.477 101.68 868.117 101.68C868.757 101.68 869.177 102.14 869.177 102.72C869.177 103.32 868.757 103.78 868.117 103.78C867.477 103.78 867.057 103.32 867.057 102.72ZM875.77 116L871.15 105.66H872.41L874.21 109.66L876.35 114.48L878.47 109.66L880.29 105.66H881.53L876.91 116H875.77ZM884.001 116V105.66H885.161V116H884.001ZM883.521 102.72C883.521 102.14 883.941 101.68 884.581 101.68C885.221 101.68 885.641 102.14 885.641 102.72C885.641 103.32 885.221 103.78 884.581 103.78C883.941 103.78 883.521 103.32 883.521 102.72ZM893.675 116.26C890.555 116.26 888.375 113.96 888.375 110.82C888.375 107.68 890.555 105.4 893.675 105.4C895.575 105.4 897.115 106.24 898.035 107.58V101.2H899.195V116H898.235L898.095 113.96C897.195 115.38 895.615 116.26 893.675 116.26ZM889.535 110.82C889.535 113.36 891.275 115.14 893.815 115.14C896.335 115.14 898.075 113.36 898.075 110.82C898.075 108.3 896.335 106.52 893.815 106.52C891.275 106.52 889.535 108.3 889.535 110.82ZM907.398 116.26C904.738 116.26 903.098 114.36 903.098 111.38V105.66H904.258V111.28C904.258 113.64 905.518 115.14 907.558 115.14C909.698 115.14 911.178 113.46 911.178 111V105.66H912.338V116H911.378L911.258 113.98C910.458 115.48 909.018 116.26 907.398 116.26ZM921.002 116.26C917.802 116.26 915.562 114.02 915.562 110.82C915.562 107.64 917.802 105.4 921.002 105.4C924.182 105.4 926.422 107.64 926.422 110.82C926.422 114.02 924.182 116.26 921.002 116.26ZM916.722 110.82C916.722 113.38 918.462 115.14 921.002 115.14C923.522 115.14 925.262 113.38 925.262 110.82C925.262 108.28 923.522 106.52 921.002 106.52C918.462 106.52 916.722 108.28 916.722 110.82ZM932.137 111.64C932.137 110.26 932.697 109.38 934.197 108.46C935.677 107.52 936.197 106.76 936.197 105.56C936.197 103.9 935.037 102.9 933.057 102.9C931.097 102.9 929.817 103.92 929.717 105.64H928.537C928.677 103.22 930.377 101.74 933.017 101.74C935.637 101.74 937.377 103.24 937.377 105.52C937.377 107.04 936.617 108.24 934.837 109.36C933.637 110.1 933.317 110.64 933.317 111.72V112.16H932.137V111.64ZM931.657 115.08C931.657 114.46 932.097 114.04 932.737 114.04C933.357 114.04 933.797 114.46 933.797 115.08C933.797 115.7 933.357 116.12 932.737 116.12C932.097 116.12 931.657 115.7 931.657 115.08Z" fill="black"/>
<path d="M6.76 58.26C3.56 58.26 1.5 56.54 1.4 53.84H2.6C2.72 55.9 4.34 57.1 6.76 57.1C9.06 57.1 10.48 56.08 10.48 54.46C10.48 53 9.34 52.14 6.52 51.52C3.08 50.72 1.62 49.56 1.62 47.46C1.62 45.22 3.44 43.74 6.42 43.74C9.5 43.74 11.38 45.3 11.48 48H10.28C10.18 46.02 8.76 44.9 6.42 44.9C4.16 44.9 2.84 45.92 2.84 47.46C2.84 48.86 3.88 49.72 6.82 50.38C10.36 51.2 11.72 52.44 11.72 54.44C11.72 56.78 9.8 58.26 6.76 58.26ZM19.2845 58.26C16.6245 58.26 14.9845 56.36 14.9845 53.38V47.66H16.1445V53.28C16.1445 55.64 17.4045 57.14 19.4445 57.14C21.5845 57.14 23.0645 55.46 23.0645 53V47.66H24.2245V58H23.2645L23.1445 55.98C22.3445 57.48 20.9045 58.26 19.2845 58.26ZM37.6319 58.26C34.5119 58.26 32.3319 55.96 32.3319 52.82C32.3319 49.68 34.5119 47.4 37.6319 47.4C39.5719 47.4 41.1519 48.28 42.0719 49.7L42.1919 47.66H43.1519V62H41.9919V56.06C41.0719 57.42 39.5319 58.26 37.6319 58.26ZM33.4919 52.82C33.4919 55.36 35.2319 57.14 37.7719 57.14C40.2919 57.14 42.0319 55.36 42.0319 52.82C42.0319 50.3 40.2919 48.52 37.7719 48.52C35.2319 48.52 33.4919 50.3 33.4919 52.82ZM51.3548 58.26C48.6948 58.26 47.0548 56.36 47.0548 53.38V47.66H48.2148V53.28C48.2148 55.64 49.4748 57.14 51.5148 57.14C53.6548 57.14 55.1348 55.46 55.1348 53V47.66H56.2948V58H55.3348L55.2148 55.98C54.4148 57.48 52.9748 58.26 51.3548 58.26ZM63.6594 58.16C61.2594 58.16 59.7594 56.98 59.7594 55.08C59.7594 53.24 61.1594 52.08 63.2794 52.08H67.8394V51.34C67.8394 49.62 66.5794 48.48 64.6594 48.48C63.0994 48.48 61.8794 49.28 61.4594 50.52H60.2794C60.7794 48.6 62.4394 47.4 64.6394 47.4C67.2194 47.4 68.9994 48.98 68.9994 51.28V58H68.0394L67.9194 56.22C67.0194 57.46 65.4994 58.16 63.6594 58.16ZM60.9194 55.06C60.9194 56.32 61.9794 57.12 63.6994 57.12C66.0994 57.12 67.8594 55.62 67.8594 53.54V53.1H63.3194C61.8994 53.1 60.9194 53.88 60.9194 55.06ZM72.8998 58V43.2H74.0598V58H72.8998ZM82.5533 58.26C79.4133 58.26 77.2733 56.04 77.2733 52.82C77.2733 49.62 79.4333 47.4 82.5733 47.4C85.8333 47.4 87.9333 49.8 87.8533 53.3H78.4533C78.6533 55.64 80.2533 57.16 82.5533 57.16C84.2333 57.16 85.5733 56.38 86.2533 55.04L87.5533 55.06C86.7533 57.04 84.8733 58.26 82.5533 58.26ZM78.4533 52.28H86.7133C86.4333 49.94 84.8333 48.5 82.5733 48.5C80.2733 48.5 78.6533 50 78.4533 52.28ZM99.9789 62.26C97.4389 62.26 95.5589 60.92 95.1589 58.82H96.3389C96.6789 60.26 98.0789 61.16 99.9789 61.16C102.359 61.16 103.879 59.76 103.879 57.54V55.86C102.959 57.12 101.479 57.88 99.7189 57.88C96.6989 57.88 94.5389 55.68 94.5389 52.64C94.5389 49.6 96.6989 47.4 99.7189 47.4C101.539 47.4 103.039 48.2 103.959 49.52L104.059 47.66H105.039V57.58C105.039 60.36 102.999 62.26 99.9789 62.26ZM95.6989 52.64C95.6989 55.06 97.3989 56.74 99.8389 56.74C102.259 56.74 103.959 55.06 103.959 52.64C103.959 50.22 102.259 48.52 99.8389 48.52C97.3989 48.52 95.6989 50.22 95.6989 52.64ZM109.15 58V47.66H110.13L110.25 49.98C110.95 48.42 112.13 47.66 114.05 47.66H114.91V48.74H114.01C111.79 48.74 110.31 50.1 110.31 53.24V58H109.15ZM121.902 58.26C119.242 58.26 117.602 56.36 117.602 53.38V47.66H118.762V53.28C118.762 55.64 120.022 57.14 122.062 57.14C124.202 57.14 125.682 55.46 125.682 53V47.66H126.842V58H125.882L125.762 55.98C124.962 57.48 123.522 58.26 121.902 58.26ZM136.486 58.26C134.586 58.26 133.046 57.4 132.126 56.04V62H130.966V47.66H131.946L132.066 49.72C132.966 48.28 134.546 47.4 136.486 47.4C139.626 47.4 141.786 49.68 141.786 52.82C141.786 55.96 139.626 58.26 136.486 58.26ZM132.086 52.82C132.086 55.36 133.826 57.14 136.366 57.14C138.906 57.14 140.626 55.36 140.626 52.82C140.626 50.3 138.906 48.52 136.366 48.52C133.826 48.52 132.086 50.3 132.086 52.82ZM150.529 58.26C148.629 58.26 147.089 57.4 146.169 56.04V62H145.009V47.66H145.989L146.109 49.72C147.009 48.28 148.589 47.4 150.529 47.4C153.669 47.4 155.829 49.68 155.829 52.82C155.829 55.96 153.669 58.26 150.529 58.26ZM146.129 52.82C146.129 55.36 147.869 57.14 150.409 57.14C152.949 57.14 154.669 55.36 154.669 52.82C154.669 50.3 152.949 48.52 150.409 48.52C147.869 48.52 146.129 50.3 146.129 52.82ZM163.592 58.26C160.392 58.26 158.152 56.02 158.152 52.82C158.152 49.64 160.392 47.4 163.592 47.4C166.772 47.4 169.012 49.64 169.012 52.82C169.012 56.02 166.772 58.26 163.592 58.26ZM159.312 52.82C159.312 55.38 161.052 57.14 163.592 57.14C166.112 57.14 167.852 55.38 167.852 52.82C167.852 50.28 166.112 48.52 163.592 48.52C161.052 48.52 159.312 50.28 159.312 52.82ZM181.05 58.26C177.93 58.26 175.75 55.96 175.75 52.82C175.75 49.68 177.93 47.4 181.05 47.4C182.95 47.4 184.49 48.24 185.41 49.58V43.2H186.57V58H185.61L185.47 55.96C184.57 57.38 182.99 58.26 181.05 58.26ZM176.91 52.82C176.91 55.36 178.65 57.14 181.19 57.14C183.71 57.14 185.45 55.36 185.45 52.82C185.45 50.3 183.71 48.52 181.19 48.52C178.65 48.52 176.91 50.3 176.91 52.82ZM190.693 58V47.66H191.853V58H190.693ZM190.213 44.72C190.213 44.14 190.633 43.68 191.273 43.68C191.913 43.68 192.333 44.14 192.333 44.72C192.333 45.32 191.913 45.78 191.273 45.78C190.633 45.78 190.213 45.32 190.213 44.72ZM205.389 62.26C202.849 62.26 200.969 60.92 200.569 58.82H201.749C202.089 60.26 203.489 61.16 205.389 61.16C207.769 61.16 209.289 59.76 209.289 57.54V55.86C208.369 57.12 206.889 57.88 205.129 57.88C202.109 57.88 199.949 55.68 199.949 52.64C199.949 49.6 202.109 47.4 205.129 47.4C206.949 47.4 208.449 48.2 209.369 49.52L209.469 47.66H210.449V57.58C210.449 60.36 208.409 62.26 205.389 62.26ZM201.109 52.64C201.109 55.06 202.809 56.74 205.249 56.74C207.669 56.74 209.369 55.06 209.369 52.64C209.369 50.22 207.669 48.52 205.249 48.52C202.809 48.52 201.109 50.22 201.109 52.64ZM214.56 58V47.66H215.72V58H214.56ZM214.08 44.72C214.08 44.14 214.5 43.68 215.14 43.68C215.78 43.68 216.2 44.14 216.2 44.72C216.2 45.32 215.78 45.78 215.14 45.78C214.5 45.78 214.08 45.32 214.08 44.72ZM224.373 58.26C221.173 58.26 218.933 56.02 218.933 52.82C218.933 49.64 221.173 47.4 224.373 47.4C227.553 47.4 229.793 49.64 229.793 52.82C229.793 56.02 227.553 58.26 224.373 58.26ZM220.093 52.82C220.093 55.38 221.833 57.14 224.373 57.14C226.893 57.14 228.633 55.38 228.633 52.82C228.633 50.28 226.893 48.52 224.373 48.52C221.833 48.52 220.093 50.28 220.093 52.82ZM235.586 58L230.966 47.66H232.226L234.026 51.66L236.166 56.48L238.286 51.66L240.106 47.66H241.346L236.726 58H235.586ZM246.511 58.16C244.111 58.16 242.611 56.98 242.611 55.08C242.611 53.24 244.011 52.08 246.131 52.08H250.691V51.34C250.691 49.62 249.431 48.48 247.511 48.48C245.951 48.48 244.731 49.28 244.311 50.52H243.131C243.631 48.6 245.291 47.4 247.491 47.4C250.071 47.4 251.851 48.98 251.851 51.28V58H250.891L250.771 56.22C249.871 57.46 248.351 58.16 246.511 58.16ZM243.771 55.06C243.771 56.32 244.831 57.12 246.551 57.12C248.951 57.12 250.711 55.62 250.711 53.54V53.1H246.171C244.751 53.1 243.771 53.88 243.771 55.06ZM255.751 58V47.66H256.731L256.831 49.66C257.651 48.18 259.091 47.4 260.751 47.4C263.451 47.4 265.111 49.3 265.111 52.28V58H263.951V52.38C263.951 50 262.671 48.52 260.611 48.52C258.431 48.52 256.911 50.18 256.911 52.64V58H255.751ZM269.013 58V47.66H270.173V58H269.013ZM268.533 44.72C268.533 44.14 268.953 43.68 269.593 43.68C270.233 43.68 270.653 44.14 270.653 44.72C270.653 45.32 270.233 45.78 269.593 45.78C268.953 45.78 268.533 45.32 268.533 44.72ZM6.46 87.26C3.34 87.26 1.16 84.96 1.16 81.82C1.16 78.68 3.34 76.4 6.46 76.4C8.36 76.4 9.9 77.24 10.82 78.58V72.2H11.98V87H11.02L10.88 84.96C9.98 86.38 8.4 87.26 6.46 87.26ZM2.32 81.82C2.32 84.36 4.06 86.14 6.6 86.14C9.12 86.14 10.86 84.36 10.86 81.82C10.86 79.3 9.12 77.52 6.6 77.52C4.06 77.52 2.32 79.3 2.32 81.82ZM20.643 87.26C17.443 87.26 15.203 85.02 15.203 81.82C15.203 78.64 17.443 76.4 20.643 76.4C23.823 76.4 26.063 78.64 26.063 81.82C26.063 85.02 23.823 87.26 20.643 87.26ZM16.363 81.82C16.363 84.38 18.103 86.14 20.643 86.14C23.163 86.14 24.903 84.38 24.903 81.82C24.903 79.28 23.163 77.52 20.643 77.52C18.103 77.52 16.363 79.28 16.363 81.82ZM31.8559 87L27.2359 76.66H28.4959L30.2959 80.66L32.4359 85.48L34.5559 80.66L36.3759 76.66H37.6159L32.9959 87H31.8559ZM40.0873 87V76.66H41.0673L41.1873 78.98C41.8873 77.42 43.0673 76.66 44.9873 76.66H45.8473V77.74H44.9473C42.7273 77.74 41.2473 79.1 41.2473 82.24V87H40.0873ZM52.3384 87.26C49.1984 87.26 47.0584 85.04 47.0584 81.82C47.0584 78.62 49.2184 76.4 52.3584 76.4C55.6184 76.4 57.7184 78.8 57.6384 82.3H48.2384C48.4384 84.64 50.0384 86.16 52.3384 86.16C54.0184 86.16 55.3584 85.38 56.0384 84.04L57.3384 84.06C56.5384 86.04 54.6584 87.26 52.3384 87.26ZM48.2384 81.28H56.4984C56.2184 78.94 54.6184 77.5 52.3584 77.5C50.0584 77.5 48.4384 79 48.2384 81.28ZM60.81 87V76.66H61.79L61.89 78.34C62.61 77.08 63.87 76.4 65.47 76.4C67.27 76.4 68.65 77.3 69.25 78.88C69.95 77.3 71.37 76.4 73.19 76.4C75.79 76.4 77.47 78.18 77.47 81.06V87H76.31V81.24C76.31 78.94 75.03 77.52 73.05 77.52C71.03 77.52 69.71 78.98 69.71 81.32V87H68.55V81.24C68.55 78.94 67.29 77.52 65.31 77.52C63.29 77.52 61.97 78.98 61.97 81.32V87H60.81ZM81.3569 87V76.66H82.3369L82.4369 78.34C83.1569 77.08 84.4169 76.4 86.0169 76.4C87.8169 76.4 89.1969 77.3 89.7969 78.88C90.4969 77.3 91.9169 76.4 93.7369 76.4C96.3369 76.4 98.0169 78.18 98.0169 81.06V87H96.8569V81.24C96.8569 78.94 95.5769 77.52 93.5969 77.52C91.5769 77.52 90.2569 78.98 90.2569 81.32V87H89.0969V81.24C89.0969 78.94 87.8369 77.52 85.8569 77.52C83.8369 77.52 82.5169 78.98 82.5169 81.32V87H81.3569ZM106.444 87.26C103.244 87.26 101.004 85.02 101.004 81.82C101.004 78.64 103.244 76.4 106.444 76.4C109.624 76.4 111.864 78.64 111.864 81.82C111.864 85.02 109.624 87.26 106.444 87.26ZM102.164 81.82C102.164 84.38 103.904 86.14 106.444 86.14C108.964 86.14 110.704 84.38 110.704 81.82C110.704 79.28 108.964 77.52 106.444 77.52C103.904 77.52 102.164 79.28 102.164 81.82ZM123.881 87.26C120.781 87.26 118.601 85 118.601 81.82C118.601 78.64 120.781 76.4 123.881 76.4C126.341 76.4 128.361 77.86 128.961 80.1H127.781C127.101 78.46 125.661 77.52 123.881 77.52C121.441 77.52 119.761 79.28 119.761 81.82C119.761 84.38 121.441 86.14 123.881 86.14C125.781 86.14 127.261 85.08 127.841 83.38H129.061C128.361 85.8 126.421 87.26 123.881 87.26ZM136.756 87.26C133.556 87.26 131.316 85.02 131.316 81.82C131.316 78.64 133.556 76.4 136.756 76.4C139.936 76.4 142.176 78.64 142.176 81.82C142.176 85.02 139.936 87.26 136.756 87.26ZM132.476 81.82C132.476 84.38 134.216 86.14 136.756 86.14C139.276 86.14 141.016 84.38 141.016 81.82C141.016 79.28 139.276 77.52 136.756 77.52C134.216 77.52 132.476 79.28 132.476 81.82ZM145.4 87V76.66H146.38L146.48 78.66C147.3 77.18 148.74 76.4 150.4 76.4C153.1 76.4 154.76 78.3 154.76 81.28V87H153.6V81.38C153.6 79 152.32 77.52 150.26 77.52C148.08 77.52 146.56 79.18 146.56 81.64V87H145.4ZM163.042 87.26C159.942 87.26 157.762 85 157.762 81.82C157.762 78.64 159.942 76.4 163.042 76.4C165.502 76.4 167.522 77.86 168.122 80.1H166.942C166.262 78.46 164.822 77.52 163.042 77.52C160.602 77.52 158.922 79.28 158.922 81.82C158.922 84.38 160.602 86.14 163.042 86.14C164.942 86.14 166.422 85.08 167.002 83.38H168.222C167.522 85.8 165.582 87.26 163.042 87.26ZM175.756 87.26C172.616 87.26 170.476 85.04 170.476 81.82C170.476 78.62 172.636 76.4 175.776 76.4C179.036 76.4 181.136 78.8 181.056 82.3H171.656C171.856 84.64 173.456 86.16 175.756 86.16C177.436 86.16 178.776 85.38 179.456 84.04L180.756 84.06C179.956 86.04 178.076 87.26 175.756 87.26ZM171.656 81.28H179.916C179.636 78.94 178.036 77.5 175.776 77.5C173.476 77.5 171.856 79 171.656 81.28ZM184.228 87V76.66H185.208L185.308 78.66C186.128 77.18 187.568 76.4 189.228 76.4C191.928 76.4 193.588 78.3 193.588 81.28V87H192.428V81.38C192.428 79 191.148 77.52 189.088 77.52C186.908 77.52 185.388 79.18 185.388 81.64V87H184.228ZM201.358 87C199.158 87 197.978 85.76 197.978 83.42V77.72H195.718V76.66H197.038C197.818 76.66 198.038 76.46 198.118 75.7L198.218 74.12H199.138V76.66H202.718V77.72H199.138V83.38C199.138 85.08 199.838 85.88 201.398 85.88H202.858V87H201.358ZM205.966 87V76.66H206.946L207.066 78.98C207.766 77.42 208.946 76.66 210.866 76.66H211.726V77.74H210.826C208.606 77.74 207.126 79.1 207.126 82.24V87H205.966ZM217.038 87.16C214.638 87.16 213.138 85.98 213.138 84.08C213.138 82.24 214.538 81.08 216.658 81.08H221.218V80.34C221.218 78.62 219.958 77.48 218.038 77.48C216.478 77.48 215.258 78.28 214.838 79.52H213.658C214.158 77.6 215.818 76.4 218.018 76.4C220.598 76.4 222.378 77.98 222.378 80.28V87H221.418L221.298 85.22C220.398 86.46 218.878 87.16 217.038 87.16ZM214.298 84.06C214.298 85.32 215.358 86.12 217.078 86.12C219.478 86.12 221.238 84.62 221.238 82.54V82.1H216.698C215.278 82.1 214.298 82.88 214.298 84.06ZM226.279 87V76.66H227.259L227.379 78.98C228.079 77.42 229.259 76.66 231.179 76.66H232.039V77.74H231.139C228.919 77.74 227.439 79.1 227.439 82.24V87H226.279ZM238.53 87.26C235.43 87.26 233.25 85 233.25 81.82C233.25 78.64 235.43 76.4 238.53 76.4C240.99 76.4 243.01 77.86 243.61 80.1H242.43C241.75 78.46 240.31 77.52 238.53 77.52C236.09 77.52 234.41 79.28 234.41 81.82C234.41 84.38 236.09 86.14 238.53 86.14C240.43 86.14 241.91 85.08 242.49 83.38H243.71C243.01 85.8 241.07 87.26 238.53 87.26ZM246.865 87V76.66H248.025V87H246.865ZM246.385 73.72C246.385 73.14 246.805 72.68 247.445 72.68C248.085 72.68 248.505 73.14 248.505 73.72C248.505 74.32 248.085 74.78 247.445 74.78C246.805 74.78 246.385 74.32 246.385 73.72ZM255.078 82.64C255.078 81.26 255.638 80.38 257.138 79.46C258.618 78.52 259.138 77.76 259.138 76.56C259.138 74.9 257.978 73.9 255.998 73.9C254.038 73.9 252.758 74.92 252.658 76.64H251.478C251.618 74.22 253.318 72.74 255.958 72.74C258.578 72.74 260.318 74.24 260.318 76.52C260.318 78.04 259.558 79.24 257.778 80.36C256.578 81.1 256.258 81.64 256.258 82.72V83.16H255.078V82.64ZM254.598 86.08C254.598 85.46 255.038 85.04 255.678 85.04C256.298 85.04 256.738 85.46 256.738 86.08C256.738 86.7 256.298 87.12 255.678 87.12C255.038 87.12 254.598 86.7 254.598 86.08Z" fill="black"/>
</svg>
