<svg width="1106" height="276" viewBox="0 0 1106 276" fill="none" xmlns="http://www.w3.org/2000/svg">
<path d="M462 15.56C462 16.94 461.44 17.82 459.94 18.74C458.46 19.68 457.94 20.44 457.94 21.64C457.94 23.3 459.1 24.3 461.08 24.3C463.04 24.3 464.32 23.28 464.42 21.56H465.6C465.46 23.98 463.76 25.46 461.12 25.46C458.5 25.46 456.76 23.96 456.76 21.68C456.76 20.16 457.52 18.96 459.3 17.84C460.5 17.1 460.82 16.56 460.82 15.48V15.04H462V15.56ZM460.34 12.12C460.34 11.5 460.78 11.08 461.4 11.08C462.04 11.08 462.48 11.5 462.48 12.12C462.48 12.74 462.04 13.16 461.4 13.16C460.78 13.16 460.34 12.74 460.34 12.12ZM474.864 21.26C470.744 21.26 467.764 18.26 467.764 14C467.764 9.74 470.744 6.74 474.864 6.74C478.064 6.74 480.684 8.6 481.604 11.54H480.324C479.524 9.32 477.444 7.96 474.884 7.96C471.464 7.96 469.004 10.42 469.004 14C469.004 17.58 471.464 20.04 474.884 20.04C477.504 20.04 479.664 18.62 480.444 16.3H481.724C480.864 19.32 478.164 21.26 474.864 21.26ZM489.393 21.26C486.193 21.26 483.953 19.02 483.953 15.82C483.953 12.64 486.193 10.4 489.393 10.4C492.573 10.4 494.813 12.64 494.813 15.82C494.813 19.02 492.573 21.26 489.393 21.26ZM485.113 15.82C485.113 18.38 486.853 20.14 489.393 20.14C491.913 20.14 493.653 18.38 493.653 15.82C493.653 13.28 491.913 11.52 489.393 11.52C486.853 11.52 485.113 13.28 485.113 15.82ZM488.633 8.94L489.733 5.92H490.973L489.713 8.94H488.633ZM498.037 21V10.66H499.017L499.117 12.34C499.837 11.08 501.097 10.4 502.697 10.4C504.497 10.4 505.877 11.3 506.477 12.88C507.177 11.3 508.597 10.4 510.417 10.4C513.017 10.4 514.697 12.18 514.697 15.06V21H513.537V15.24C513.537 12.94 512.257 11.52 510.277 11.52C508.257 11.52 506.937 12.98 506.937 15.32V21H505.777V15.24C505.777 12.94 504.517 11.52 502.537 11.52C500.517 11.52 499.197 12.98 499.197 15.32V21H498.037ZM523.123 21.26C519.923 21.26 517.683 19.02 517.683 15.82C517.683 12.64 519.923 10.4 523.123 10.4C526.303 10.4 528.543 12.64 528.543 15.82C528.543 19.02 526.303 21.26 523.123 21.26ZM518.843 15.82C518.843 18.38 520.583 20.14 523.123 20.14C525.643 20.14 527.383 18.38 527.383 15.82C527.383 13.28 525.643 11.52 523.123 11.52C520.583 11.52 518.843 13.28 518.843 15.82ZM536.65 21V10.66H537.63L537.73 12.66C538.55 11.18 539.99 10.4 541.65 10.4C544.35 10.4 546.01 12.3 546.01 15.28V21H544.85V15.38C544.85 13 543.57 11.52 541.51 11.52C539.33 11.52 537.81 13.18 537.81 15.64V21H536.65ZM554.452 21.26C551.252 21.26 549.012 19.02 549.012 15.82C549.012 12.64 551.252 10.4 554.452 10.4C557.632 10.4 559.872 12.64 559.872 15.82C559.872 19.02 557.632 21.26 554.452 21.26ZM550.172 15.82C550.172 18.38 551.912 20.14 554.452 20.14C556.972 20.14 558.712 18.38 558.712 15.82C558.712 13.28 556.972 11.52 554.452 11.52C551.912 11.52 550.172 13.28 550.172 15.82ZM566.655 21.26C564.035 21.26 562.375 19.94 562.295 17.88H563.435C563.555 19.34 564.695 20.2 566.675 20.2C568.495 20.2 569.595 19.5 569.595 18.36C569.595 17.28 568.615 16.62 566.415 16.24C563.715 15.78 562.495 14.82 562.495 13.24C562.495 11.48 563.995 10.4 566.415 10.4C568.855 10.4 570.395 11.56 570.555 13.54H569.395C569.275 12.18 568.215 11.44 566.415 11.44C564.695 11.44 563.655 12.14 563.655 13.26C563.655 14.28 564.515 14.84 566.815 15.28C569.435 15.78 570.735 16.82 570.735 18.38C570.735 20.12 569.155 21.26 566.655 21.26ZM582.924 21.26C579.824 21.26 577.644 19 577.644 15.82C577.644 12.64 579.824 10.4 582.924 10.4C585.384 10.4 587.404 11.86 588.004 14.1H586.824C586.144 12.46 584.704 11.52 582.924 11.52C580.484 11.52 578.804 13.28 578.804 15.82C578.804 18.38 580.484 20.14 582.924 20.14C584.824 20.14 586.304 19.08 586.884 17.38H588.104C587.404 19.8 585.464 21.26 582.924 21.26ZM595.799 21.26C592.599 21.26 590.359 19.02 590.359 15.82C590.359 12.64 592.599 10.4 595.799 10.4C598.979 10.4 601.219 12.64 601.219 15.82C601.219 19.02 598.979 21.26 595.799 21.26ZM591.519 15.82C591.519 18.38 593.259 20.14 595.799 20.14C598.319 20.14 600.059 18.38 600.059 15.82C600.059 13.28 598.319 11.52 595.799 11.52C593.259 11.52 591.519 13.28 591.519 15.82ZM604.443 21V10.66H605.423L605.523 12.34C606.243 11.08 607.503 10.4 609.103 10.4C610.903 10.4 612.283 11.3 612.883 12.88C613.583 11.3 615.003 10.4 616.823 10.4C619.423 10.4 621.103 12.18 621.103 15.06V21H619.943V15.24C619.943 12.94 618.663 11.52 616.683 11.52C614.663 11.52 613.343 12.98 613.343 15.32V21H612.183V15.24C612.183 12.94 610.923 11.52 608.943 11.52C606.923 11.52 605.603 12.98 605.603 15.32V21H604.443ZM629.07 21.26C626.41 21.26 624.77 19.36 624.77 16.38V10.66H625.93V16.28C625.93 18.64 627.19 20.14 629.23 20.14C631.37 20.14 632.85 18.46 632.85 16V10.66H634.01V21H633.05L632.93 18.98C632.13 20.48 630.69 21.26 629.07 21.26ZM638.134 21V10.66H639.114L639.214 12.66C640.034 11.18 641.474 10.4 643.134 10.4C645.834 10.4 647.494 12.3 647.494 15.28V21H646.334V15.38C646.334 13 645.054 11.52 642.994 11.52C640.814 11.52 639.294 13.18 639.294 15.64V21H638.134ZM651.396 21V10.66H652.556V21H651.396ZM650.916 7.72C650.916 7.14 651.336 6.68 651.976 6.68C652.616 6.68 653.036 7.14 653.036 7.72C653.036 8.32 652.616 8.78 651.976 8.78C651.336 8.78 650.916 8.32 650.916 7.72ZM661.049 21.26C657.949 21.26 655.769 19 655.769 15.82C655.769 12.64 657.949 10.4 661.049 10.4C663.509 10.4 665.529 11.86 666.129 14.1H664.949C664.269 12.46 662.829 11.52 661.049 11.52C658.609 11.52 656.929 13.28 656.929 15.82C656.929 18.38 658.609 20.14 661.049 20.14C662.949 20.14 664.429 19.08 665.009 17.38H666.229C665.529 19.8 663.589 21.26 661.049 21.26ZM672.488 21.16C670.088 21.16 668.588 19.98 668.588 18.08C668.588 16.24 669.988 15.08 672.108 15.08H676.668V14.34C676.668 12.62 675.408 11.48 673.488 11.48C671.928 11.48 670.708 12.28 670.288 13.52H669.108C669.608 11.6 671.268 10.4 673.468 10.4C676.048 10.4 677.828 11.98 677.828 14.28V21H676.868L676.748 19.22C675.848 20.46 674.328 21.16 672.488 21.16ZM669.748 18.06C669.748 19.32 670.808 20.12 672.528 20.12C674.928 20.12 676.688 18.62 676.688 16.54V16.1H672.148C670.728 16.1 669.748 16.88 669.748 18.06ZM681.728 21V10.66H682.708L682.808 12.34C683.528 11.08 684.788 10.4 686.388 10.4C688.188 10.4 689.568 11.3 690.168 12.88C690.868 11.3 692.288 10.4 694.108 10.4C696.708 10.4 698.388 12.18 698.388 15.06V21H697.228V15.24C697.228 12.94 695.948 11.52 693.968 11.52C691.948 11.52 690.628 12.98 690.628 15.32V21H689.468V15.24C689.468 12.94 688.208 11.52 686.228 11.52C684.208 11.52 682.888 12.98 682.888 15.32V21H681.728ZM706.815 21.26C703.615 21.26 701.375 19.02 701.375 15.82C701.375 12.64 703.615 10.4 706.815 10.4C709.995 10.4 712.235 12.64 712.235 15.82C712.235 19.02 709.995 21.26 706.815 21.26ZM702.535 15.82C702.535 18.38 704.275 20.14 706.815 20.14C709.335 20.14 711.075 18.38 711.075 15.82C711.075 13.28 709.335 11.52 706.815 11.52C704.275 11.52 702.535 13.28 702.535 15.82ZM719.018 21.26C716.398 21.26 714.738 19.94 714.658 17.88H715.798C715.918 19.34 717.058 20.2 719.038 20.2C720.858 20.2 721.958 19.5 721.958 18.36C721.958 17.28 720.978 16.62 718.778 16.24C716.078 15.78 714.858 14.82 714.858 13.24C714.858 11.48 716.358 10.4 718.778 10.4C721.218 10.4 722.758 11.56 722.918 13.54H721.758C721.638 12.18 720.578 11.44 718.778 11.44C717.058 11.44 716.018 12.14 716.018 13.26C716.018 14.28 716.878 14.84 719.178 15.28C721.798 15.78 723.098 16.82 723.098 18.38C723.098 20.12 721.518 21.26 719.018 21.26ZM735.288 21.26C732.188 21.26 730.008 19 730.008 15.82C730.008 12.64 732.188 10.4 735.288 10.4C737.748 10.4 739.768 11.86 740.368 14.1H739.188C738.508 12.46 737.068 11.52 735.288 11.52C732.848 11.52 731.168 13.28 731.168 15.82C731.168 18.38 732.848 20.14 735.288 20.14C737.188 20.14 738.668 19.08 739.248 17.38H740.468C739.768 19.8 737.828 21.26 735.288 21.26ZM748.163 21.26C744.963 21.26 742.723 19.02 742.723 15.82C742.723 12.64 744.963 10.4 748.163 10.4C751.343 10.4 753.583 12.64 753.583 15.82C753.583 19.02 751.343 21.26 748.163 21.26ZM743.883 15.82C743.883 18.38 745.623 20.14 748.163 20.14C750.683 20.14 752.423 18.38 752.423 15.82C752.423 13.28 750.683 11.52 748.163 11.52C745.623 11.52 743.883 13.28 743.883 15.82ZM756.806 21V10.66H757.786L757.886 12.66C758.706 11.18 760.146 10.4 761.806 10.4C764.506 10.4 766.166 12.3 766.166 15.28V21H765.006V15.38C765.006 13 763.726 11.52 761.666 11.52C759.486 11.52 757.966 13.18 757.966 15.64V21H756.806ZM779.331 21.26C776.191 21.26 774.051 19.04 774.051 15.82C774.051 12.62 776.211 10.4 779.351 10.4C782.611 10.4 784.711 12.8 784.631 16.3H775.231C775.431 18.64 777.031 20.16 779.331 20.16C781.011 20.16 782.351 19.38 783.031 18.04L784.331 18.06C783.531 20.04 781.651 21.26 779.331 21.26ZM775.231 15.28H783.491C783.211 12.94 781.611 11.5 779.351 11.5C777.051 11.5 775.431 13 775.231 15.28ZM787.802 21V6.2H788.962V21H787.802ZM461.6 54.26C459.06 54.26 457.18 52.92 456.78 50.82H457.96C458.3 52.26 459.7 53.16 461.6 53.16C463.98 53.16 465.5 51.76 465.5 49.54V47.86C464.58 49.12 463.1 49.88 461.34 49.88C458.32 49.88 456.16 47.68 456.16 44.64C456.16 41.6 458.32 39.4 461.34 39.4C463.16 39.4 464.66 40.2 465.58 41.52L465.68 39.66H466.66V49.58C466.66 52.36 464.62 54.26 461.6 54.26ZM457.32 44.64C457.32 47.06 459.02 48.74 461.46 48.74C463.88 48.74 465.58 47.06 465.58 44.64C465.58 42.22 463.88 40.52 461.46 40.52C459.02 40.52 457.32 42.22 457.32 44.64ZM470.771 50V39.66H471.751L471.871 41.98C472.571 40.42 473.751 39.66 475.671 39.66H476.531V40.74H475.631C473.411 40.74 471.931 42.1 471.931 45.24V50H470.771ZM483.523 50.26C480.863 50.26 479.223 48.36 479.223 45.38V39.66H480.383V45.28C480.383 47.64 481.643 49.14 483.683 49.14C485.823 49.14 487.303 47.46 487.303 45V39.66H488.463V50H487.503L487.383 47.98C486.583 49.48 485.143 50.26 483.523 50.26ZM498.107 50.26C496.207 50.26 494.667 49.4 493.747 48.04V54H492.587V39.66H493.567L493.687 41.72C494.587 40.28 496.167 39.4 498.107 39.4C501.247 39.4 503.407 41.68 503.407 44.82C503.407 47.96 501.247 50.26 498.107 50.26ZM493.707 44.82C493.707 47.36 495.447 49.14 497.987 49.14C500.527 49.14 502.247 47.36 502.247 44.82C502.247 42.3 500.527 40.52 497.987 40.52C495.447 40.52 493.707 42.3 493.707 44.82ZM511.17 50.26C507.97 50.26 505.73 48.02 505.73 44.82C505.73 41.64 507.97 39.4 511.17 39.4C514.35 39.4 516.59 41.64 516.59 44.82C516.59 48.02 514.35 50.26 511.17 50.26ZM506.89 44.82C506.89 47.38 508.63 49.14 511.17 49.14C513.69 49.14 515.43 47.38 515.43 44.82C515.43 42.28 513.69 40.52 511.17 40.52C508.63 40.52 506.89 42.28 506.89 44.82ZM528.628 50.26C525.508 50.26 523.328 47.96 523.328 44.82C523.328 41.68 525.508 39.4 528.628 39.4C530.528 39.4 532.068 40.24 532.988 41.58V35.2H534.148V50H533.188L533.048 47.96C532.148 49.38 530.568 50.26 528.628 50.26ZM524.488 44.82C524.488 47.36 526.228 49.14 528.768 49.14C531.288 49.14 533.028 47.36 533.028 44.82C533.028 42.3 531.288 40.52 528.768 40.52C526.228 40.52 524.488 42.3 524.488 44.82ZM542.651 50.26C539.511 50.26 537.371 48.04 537.371 44.82C537.371 41.62 539.531 39.4 542.671 39.4C545.931 39.4 548.031 41.8 547.951 45.3H538.551C538.751 47.64 540.351 49.16 542.651 49.16C544.331 49.16 545.671 48.38 546.351 47.04L547.651 47.06C546.851 49.04 544.971 50.26 542.651 50.26ZM538.551 44.28H546.811C546.531 41.94 544.931 40.5 542.671 40.5C540.371 40.5 538.751 42 538.551 44.28ZM559.988 50.26C557.328 50.26 555.688 48.36 555.688 45.38V39.66H556.848V45.28C556.848 47.64 558.108 49.14 560.148 49.14C562.288 49.14 563.768 47.46 563.768 45V39.66H564.928V50H563.968L563.848 47.98C563.048 49.48 561.608 50.26 559.988 50.26ZM572.612 50.26C569.992 50.26 568.332 48.94 568.252 46.88H569.392C569.512 48.34 570.652 49.2 572.632 49.2C574.452 49.2 575.552 48.5 575.552 47.36C575.552 46.28 574.572 45.62 572.372 45.24C569.672 44.78 568.452 43.82 568.452 42.24C568.452 40.48 569.952 39.4 572.372 39.4C574.812 39.4 576.352 40.56 576.512 42.54H575.352C575.232 41.18 574.172 40.44 572.372 40.44C570.652 40.44 569.612 41.14 569.612 42.26C569.612 43.28 570.472 43.84 572.772 44.28C575.392 44.78 576.692 45.82 576.692 47.38C576.692 49.12 575.112 50.26 572.612 50.26ZM584.128 50.26C581.468 50.26 579.828 48.36 579.828 45.38V39.66H580.988V45.28C580.988 47.64 582.248 49.14 584.288 49.14C586.428 49.14 587.908 47.46 587.908 45V39.66H589.068V50H588.108L587.988 47.98C587.188 49.48 585.748 50.26 584.128 50.26ZM596.433 50.16C594.033 50.16 592.533 48.98 592.533 47.08C592.533 45.24 593.933 44.08 596.053 44.08H600.613V43.34C600.613 41.62 599.353 40.48 597.433 40.48C595.873 40.48 594.653 41.28 594.233 42.52H593.053C593.553 40.6 595.213 39.4 597.413 39.4C599.993 39.4 601.773 40.98 601.773 43.28V50H600.813L600.693 48.22C599.793 49.46 598.273 50.16 596.433 50.16ZM593.693 47.06C593.693 48.32 594.753 49.12 596.473 49.12C598.873 49.12 600.633 47.62 600.633 45.54V45.1H596.093C594.673 45.1 593.693 45.88 593.693 47.06ZM605.673 50V39.66H606.653L606.773 41.98C607.473 40.42 608.653 39.66 610.573 39.66H611.433V40.74H610.533C608.313 40.74 606.833 42.1 606.833 45.24V50H605.673ZM614.345 50V39.66H615.505V50H614.345ZM613.865 36.72C613.865 36.14 614.285 35.68 614.925 35.68C615.565 35.68 615.985 36.14 615.985 36.72C615.985 37.32 615.565 37.78 614.925 37.78C614.285 37.78 613.865 37.32 613.865 36.72ZM624.159 50.26C620.959 50.26 618.719 48.02 618.719 44.82C618.719 41.64 620.959 39.4 624.159 39.4C627.339 39.4 629.579 41.64 629.579 44.82C629.579 48.02 627.339 50.26 624.159 50.26ZM619.879 44.82C619.879 47.38 621.619 49.14 624.159 49.14C626.679 49.14 628.419 47.38 628.419 44.82C628.419 42.28 626.679 40.52 624.159 40.52C621.619 40.52 619.879 42.28 619.879 44.82ZM636.362 50.26C633.742 50.26 632.082 48.94 632.002 46.88H633.142C633.262 48.34 634.402 49.2 636.382 49.2C638.202 49.2 639.302 48.5 639.302 47.36C639.302 46.28 638.322 45.62 636.122 45.24C633.422 44.78 632.202 43.82 632.202 42.24C632.202 40.48 633.702 39.4 636.122 39.4C638.562 39.4 640.102 40.56 640.262 42.54H639.102C638.982 41.18 637.922 40.44 636.122 40.44C634.402 40.44 633.362 41.14 633.362 42.26C633.362 43.28 634.222 43.84 636.522 44.28C639.142 44.78 640.442 45.82 640.442 47.38C640.442 49.12 638.862 50.26 636.362 50.26ZM646.191 45.64C646.191 44.26 646.751 43.38 648.251 42.46C649.731 41.52 650.251 40.76 650.251 39.56C650.251 37.9 649.091 36.9 647.111 36.9C645.151 36.9 643.871 37.92 643.771 39.64H642.591C642.731 37.22 644.431 35.74 647.071 35.74C649.691 35.74 651.431 37.24 651.431 39.52C651.431 41.04 650.671 42.24 648.891 43.36C647.691 44.1 647.371 44.64 647.371 45.72V46.16H646.191V45.64ZM645.711 49.08C645.711 48.46 646.151 48.04 646.791 48.04C647.411 48.04 647.851 48.46 647.851 49.08C647.851 49.7 647.411 50.12 646.791 50.12C646.151 50.12 645.711 49.7 645.711 49.08Z" fill="black"/>
<path d="M217 218.56C217 219.94 216.44 220.82 214.94 221.74C213.46 222.68 212.94 223.44 212.94 224.64C212.94 226.3 214.1 227.3 216.08 227.3C218.04 227.3 219.32 226.28 219.42 224.56H220.6C220.46 226.98 218.76 228.46 216.12 228.46C213.5 228.46 211.76 226.96 211.76 224.68C211.76 223.16 212.52 221.96 214.3 220.84C215.5 220.1 215.82 219.56 215.82 218.48V218.04H217V218.56ZM215.34 215.12C215.34 214.5 215.78 214.08 216.4 214.08C217.04 214.08 217.48 214.5 217.48 215.12C217.48 215.74 217.04 216.16 216.4 216.16C215.78 216.16 215.34 215.74 215.34 215.12ZM229.984 224.26C225.724 224.26 222.764 221.28 222.764 217C222.764 212.72 225.724 209.74 229.984 209.74C234.264 209.74 237.204 212.72 237.204 217C237.204 220.52 235.224 223.16 232.144 223.98L232.324 224.42C232.904 225.8 233.604 226.24 235.324 226.24H236.444V227.4H235.244C233.144 227.4 231.944 226.66 231.184 224.86L230.924 224.22C230.624 224.24 230.304 224.26 229.984 224.26ZM224.004 217C224.004 220.58 226.444 223.04 229.984 223.04C233.544 223.04 235.984 220.58 235.984 217C235.984 213.4 233.544 210.96 229.984 210.96C226.444 210.96 224.004 213.4 224.004 217ZM244.617 224.26C241.957 224.26 240.317 222.36 240.317 219.38V213.66H241.477V219.28C241.477 221.64 242.737 223.14 244.777 223.14C246.917 223.14 248.397 221.46 248.397 219V213.66H249.557V224H248.597L248.477 221.98C247.677 223.48 246.237 224.26 244.617 224.26ZM258.061 224.26C254.921 224.26 252.781 222.04 252.781 218.82C252.781 215.62 254.941 213.4 258.081 213.4C261.341 213.4 263.441 215.8 263.361 219.3H253.961C254.161 221.64 255.761 223.16 258.061 223.16C259.741 223.16 261.081 222.38 261.761 221.04L263.061 221.06C262.261 223.04 260.381 224.26 258.061 224.26ZM253.961 218.28H262.221C261.941 215.94 260.341 214.5 258.081 214.5C255.781 214.5 254.161 216 253.961 218.28ZM257.321 211.94L258.421 208.92H259.681L258.421 211.94H257.321ZM274.546 224.26C271.926 224.26 270.266 222.94 270.186 220.88H271.326C271.446 222.34 272.586 223.2 274.566 223.2C276.386 223.2 277.486 222.5 277.486 221.36C277.486 220.28 276.506 219.62 274.306 219.24C271.606 218.78 270.386 217.82 270.386 216.24C270.386 214.48 271.886 213.4 274.306 213.4C276.746 213.4 278.286 214.56 278.446 216.54H277.286C277.166 215.18 276.106 214.44 274.306 214.44C272.586 214.44 271.546 215.14 271.546 216.26C271.546 217.28 272.406 217.84 274.706 218.28C277.326 218.78 278.626 219.82 278.626 221.38C278.626 223.12 277.046 224.26 274.546 224.26ZM281.982 224V213.66H283.142V224H281.982ZM281.502 210.72C281.502 210.14 281.922 209.68 282.562 209.68C283.202 209.68 283.622 210.14 283.622 210.72C283.622 211.32 283.202 211.78 282.562 211.78C281.922 211.78 281.502 211.32 281.502 210.72ZM291.795 228.26C289.255 228.26 287.375 226.92 286.975 224.82H288.155C288.495 226.26 289.895 227.16 291.795 227.16C294.175 227.16 295.695 225.76 295.695 223.54V221.86C294.775 223.12 293.295 223.88 291.535 223.88C288.515 223.88 286.355 221.68 286.355 218.64C286.355 215.6 288.515 213.4 291.535 213.4C293.355 213.4 294.855 214.2 295.775 215.52L295.875 213.66H296.855V223.58C296.855 226.36 294.815 228.26 291.795 228.26ZM287.515 218.64C287.515 221.06 289.215 222.74 291.655 222.74C294.075 222.74 295.775 221.06 295.775 218.64C295.775 216.22 294.075 214.52 291.655 214.52C289.215 214.52 287.515 216.22 287.515 218.64ZM300.966 224V213.66H301.946L302.046 215.66C302.866 214.18 304.306 213.4 305.966 213.4C308.666 213.4 310.326 215.3 310.326 218.28V224H309.166V218.38C309.166 216 307.886 214.52 305.826 214.52C303.646 214.52 302.126 216.18 302.126 218.64V224H300.966ZM314.228 224V213.66H315.388V224H314.228ZM313.748 210.72C313.748 210.14 314.168 209.68 314.808 209.68C315.448 209.68 315.868 210.14 315.868 210.72C315.868 211.32 315.448 211.78 314.808 211.78C314.168 211.78 313.748 211.32 313.748 210.72ZM328.181 224V214.72H321.661V224H320.501V214.72H318.141V213.66H320.501V212.46C320.501 210.12 321.681 208.94 324.021 208.94H325.521V210.04H324.121C322.401 210.04 321.661 210.78 321.661 212.54V213.66H329.341V224H328.181ZM327.681 210.72C327.681 210.14 328.121 209.68 328.761 209.68C329.381 209.68 329.821 210.14 329.821 210.72C329.821 211.32 329.381 211.78 328.761 211.78C328.121 211.78 327.681 211.32 327.681 210.72ZM337.846 224.26C334.746 224.26 332.566 222 332.566 218.82C332.566 215.64 334.746 213.4 337.846 213.4C340.306 213.4 342.326 214.86 342.926 217.1H341.746C341.066 215.46 339.626 214.52 337.846 214.52C335.406 214.52 333.726 216.28 333.726 218.82C333.726 221.38 335.406 223.14 337.846 223.14C339.746 223.14 341.226 222.08 341.806 220.38H343.026C342.326 222.8 340.386 224.26 337.846 224.26ZM349.284 224.16C346.884 224.16 345.384 222.98 345.384 221.08C345.384 219.24 346.784 218.08 348.904 218.08H353.464V217.34C353.464 215.62 352.204 214.48 350.284 214.48C348.724 214.48 347.504 215.28 347.084 216.52H345.904C346.404 214.6 348.064 213.4 350.264 213.4C352.844 213.4 354.624 214.98 354.624 217.28V224H353.664L353.544 222.22C352.644 223.46 351.124 224.16 349.284 224.16ZM346.544 221.06C346.544 222.32 347.604 223.12 349.324 223.12C351.724 223.12 353.484 221.62 353.484 219.54V219.1H348.944C347.524 219.1 346.544 219.88 346.544 221.06ZM363.876 224V209.2H365.036V224H363.876ZM372.39 224.16C369.99 224.16 368.49 222.98 368.49 221.08C368.49 219.24 369.89 218.08 372.01 218.08H376.57V217.34C376.57 215.62 375.31 214.48 373.39 214.48C371.83 214.48 370.61 215.28 370.19 216.52H369.01C369.51 214.6 371.17 213.4 373.37 213.4C375.95 213.4 377.73 214.98 377.73 217.28V224H376.77L376.65 222.22C375.75 223.46 374.23 224.16 372.39 224.16ZM369.65 221.06C369.65 222.32 370.71 223.12 372.43 223.12C374.83 223.12 376.59 221.62 376.59 219.54V219.1H372.05C370.63 219.1 369.65 219.88 369.65 221.06ZM391.053 228.26C388.513 228.26 386.633 226.92 386.233 224.82H387.413C387.753 226.26 389.153 227.16 391.053 227.16C393.433 227.16 394.953 225.76 394.953 223.54V221.86C394.033 223.12 392.553 223.88 390.793 223.88C387.773 223.88 385.613 221.68 385.613 218.64C385.613 215.6 387.773 213.4 390.793 213.4C392.613 213.4 394.113 214.2 395.033 215.52L395.133 213.66H396.113V223.58C396.113 226.36 394.073 228.26 391.053 228.26ZM386.773 218.64C386.773 221.06 388.473 222.74 390.913 222.74C393.333 222.74 395.033 221.06 395.033 218.64C395.033 216.22 393.333 214.52 390.913 214.52C388.473 214.52 386.773 216.22 386.773 218.64ZM404.604 224.26C401.464 224.26 399.324 222.04 399.324 218.82C399.324 215.62 401.484 213.4 404.624 213.4C407.884 213.4 409.984 215.8 409.904 219.3H400.504C400.704 221.64 402.304 223.16 404.604 223.16C406.284 223.16 407.624 222.38 408.304 221.04L409.604 221.06C408.804 223.04 406.924 224.26 404.604 224.26ZM400.504 218.28H408.764C408.484 215.94 406.884 214.5 404.624 214.5C402.324 214.5 400.704 216 400.504 218.28ZM416.636 224.26C414.016 224.26 412.356 222.94 412.276 220.88H413.416C413.536 222.34 414.676 223.2 416.656 223.2C418.476 223.2 419.576 222.5 419.576 221.36C419.576 220.28 418.596 219.62 416.396 219.24C413.696 218.78 412.476 217.82 412.476 216.24C412.476 214.48 413.976 213.4 416.396 213.4C418.836 213.4 420.376 214.56 420.536 216.54H419.376C419.256 215.18 418.196 214.44 416.396 214.44C414.676 214.44 413.636 215.14 413.636 216.26C413.636 217.28 414.496 217.84 416.796 218.28C419.416 218.78 420.716 219.82 420.716 221.38C420.716 223.12 419.136 224.26 416.636 224.26ZM427.979 224C425.779 224 424.599 222.76 424.599 220.42V214.72H422.339V213.66H423.659C424.439 213.66 424.659 213.46 424.739 212.7L424.839 211.12H425.759V213.66H429.339V214.72H425.759V220.38C425.759 222.08 426.459 222.88 428.019 222.88H429.479V224H427.979ZM432.587 224V213.66H433.747V224H432.587ZM432.107 210.72C432.107 210.14 432.527 209.68 433.167 209.68C433.807 209.68 434.227 210.14 434.227 210.72C434.227 211.32 433.807 211.78 433.167 211.78C432.527 211.78 432.107 211.32 432.107 210.72ZM442.401 224.26C439.201 224.26 436.961 222.02 436.961 218.82C436.961 215.64 439.201 213.4 442.401 213.4C445.581 213.4 447.821 215.64 447.821 218.82C447.821 222.02 445.581 224.26 442.401 224.26ZM438.121 218.82C438.121 221.38 439.861 223.14 442.401 223.14C444.921 223.14 446.661 221.38 446.661 218.82C446.661 216.28 444.921 214.52 442.401 214.52C439.861 214.52 438.121 216.28 438.121 218.82ZM441.641 211.94L442.741 208.92H443.981L442.721 211.94H441.641ZM451.044 224V213.66H452.024L452.124 215.66C452.944 214.18 454.384 213.4 456.044 213.4C458.744 213.4 460.404 215.3 460.404 218.28V224H459.244V218.38C459.244 216 457.964 214.52 455.904 214.52C453.724 214.52 452.204 216.18 452.204 218.64V224H451.044ZM473.589 224.26C470.469 224.26 468.289 221.96 468.289 218.82C468.289 215.68 470.469 213.4 473.589 213.4C475.489 213.4 477.029 214.24 477.949 215.58V209.2H479.109V224H478.149L478.009 221.96C477.109 223.38 475.529 224.26 473.589 224.26ZM469.449 218.82C469.449 221.36 471.189 223.14 473.729 223.14C476.249 223.14 477.989 221.36 477.989 218.82C477.989 216.3 476.249 214.52 473.729 214.52C471.189 214.52 469.449 216.3 469.449 218.82ZM487.612 224.26C484.472 224.26 482.332 222.04 482.332 218.82C482.332 215.62 484.492 213.4 487.632 213.4C490.892 213.4 492.992 215.8 492.912 219.3H483.512C483.712 221.64 485.312 223.16 487.612 223.16C489.292 223.16 490.632 222.38 491.312 221.04L492.612 221.06C491.812 223.04 489.932 224.26 487.612 224.26ZM483.512 218.28H491.772C491.492 215.94 489.892 214.5 487.632 214.5C485.332 214.5 483.712 216 483.512 218.28ZM216.26 253C214.06 253 212.88 251.76 212.88 249.42V243.72H210.62V242.66H211.94C212.72 242.66 212.94 242.46 213.02 241.7L213.12 240.12H214.04V242.66H217.62V243.72H214.04V249.38C214.04 251.08 214.74 251.88 216.3 251.88H217.76V253H216.26ZM223.757 253.16C221.357 253.16 219.857 251.98 219.857 250.08C219.857 248.24 221.257 247.08 223.377 247.08H227.937V246.34C227.937 244.62 226.677 243.48 224.757 243.48C223.197 243.48 221.977 244.28 221.557 245.52H220.377C220.877 243.6 222.537 242.4 224.737 242.4C227.317 242.4 229.097 243.98 229.097 246.28V253H228.137L228.017 251.22C227.117 252.46 225.597 253.16 223.757 253.16ZM221.017 250.06C221.017 251.32 222.077 252.12 223.797 252.12C226.197 252.12 227.957 250.62 227.957 248.54V248.1H223.417C221.997 248.1 221.017 248.88 221.017 250.06ZM232.998 253V242.66H233.978L234.098 244.98C234.798 243.42 235.978 242.66 237.898 242.66H238.758V243.74H237.858C235.638 243.74 234.158 245.1 234.158 248.24V253H232.998ZM245.249 253.26C242.109 253.26 239.969 251.04 239.969 247.82C239.969 244.62 242.129 242.4 245.269 242.4C248.529 242.4 250.629 244.8 250.549 248.3H241.149C241.349 250.64 242.949 252.16 245.249 252.16C246.929 252.16 248.269 251.38 248.949 250.04L250.249 250.06C249.449 252.04 247.569 253.26 245.249 253.26ZM241.149 247.28H249.409C249.129 244.94 247.529 243.5 245.269 243.5C242.969 243.5 241.349 245 241.149 247.28ZM256.823 253.16C254.423 253.16 252.923 251.98 252.923 250.08C252.923 248.24 254.323 247.08 256.443 247.08H261.003V246.34C261.003 244.62 259.743 243.48 257.823 243.48C256.263 243.48 255.043 244.28 254.623 245.52H253.443C253.943 243.6 255.603 242.4 257.803 242.4C260.383 242.4 262.163 243.98 262.163 246.28V253H261.203L261.083 251.22C260.183 252.46 258.663 253.16 256.823 253.16ZM254.083 250.06C254.083 251.32 255.143 252.12 256.863 252.12C259.263 252.12 261.023 250.62 261.023 248.54V248.1H256.483C255.063 248.1 254.083 248.88 254.083 250.06ZM269.624 253.26C267.004 253.26 265.344 251.94 265.264 249.88H266.404C266.524 251.34 267.664 252.2 269.644 252.2C271.464 252.2 272.564 251.5 272.564 250.36C272.564 249.28 271.584 248.62 269.384 248.24C266.684 247.78 265.464 246.82 265.464 245.24C265.464 243.48 266.964 242.4 269.384 242.4C271.824 242.4 273.364 243.56 273.524 245.54H272.364C272.244 244.18 271.184 243.44 269.384 243.44C267.664 243.44 266.624 244.14 266.624 245.26C266.624 246.28 267.484 246.84 269.784 247.28C272.404 247.78 273.704 248.82 273.704 250.38C273.704 252.12 272.124 253.26 269.624 253.26ZM279.453 248.64C279.453 247.26 280.013 246.38 281.513 245.46C282.993 244.52 283.513 243.76 283.513 242.56C283.513 240.9 282.353 239.9 280.373 239.9C278.413 239.9 277.133 240.92 277.033 242.64H275.853C275.993 240.22 277.693 238.74 280.333 238.74C282.953 238.74 284.693 240.24 284.693 242.52C284.693 244.04 283.933 245.24 282.153 246.36C280.953 247.1 280.633 247.64 280.633 248.72V249.16H279.453V248.64ZM278.973 252.08C278.973 251.46 279.413 251.04 280.053 251.04C280.673 251.04 281.113 251.46 281.113 252.08C281.113 252.7 280.673 253.12 280.053 253.12C279.413 253.12 278.973 252.7 278.973 252.08Z" fill="black"/>
<path d="M661 233.56C661 234.94 660.44 235.82 658.94 236.74C657.46 237.68 656.94 238.44 656.94 239.64C656.94 241.3 658.1 242.3 660.08 242.3C662.04 242.3 663.32 241.28 663.42 239.56H664.6C664.46 241.98 662.76 243.46 660.12 243.46C657.5 243.46 655.76 241.96 655.76 239.68C655.76 238.16 656.52 236.96 658.3 235.84C659.5 235.1 659.82 234.56 659.82 233.48V233.04H661V233.56ZM659.34 230.12C659.34 229.5 659.78 229.08 660.4 229.08C661.04 229.08 661.48 229.5 661.48 230.12C661.48 230.74 661.04 231.16 660.4 231.16C659.78 231.16 659.34 230.74 659.34 230.12ZM673.984 239.26C669.724 239.26 666.764 236.28 666.764 232C666.764 227.72 669.724 224.74 673.984 224.74C678.264 224.74 681.204 227.72 681.204 232C681.204 235.52 679.224 238.16 676.144 238.98L676.324 239.42C676.904 240.8 677.604 241.24 679.324 241.24H680.444V242.4H679.244C677.144 242.4 675.944 241.66 675.184 239.86L674.924 239.22C674.624 239.24 674.304 239.26 673.984 239.26ZM668.004 232C668.004 235.58 670.444 238.04 673.984 238.04C677.544 238.04 679.984 235.58 679.984 232C679.984 228.4 677.544 225.96 673.984 225.96C670.444 225.96 668.004 228.4 668.004 232ZM688.617 239.26C685.957 239.26 684.317 237.36 684.317 234.38V228.66H685.477V234.28C685.477 236.64 686.737 238.14 688.777 238.14C690.917 238.14 692.397 236.46 692.397 234V228.66H693.557V239H692.597L692.477 236.98C691.677 238.48 690.237 239.26 688.617 239.26ZM702.061 239.26C698.921 239.26 696.781 237.04 696.781 233.82C696.781 230.62 698.941 228.4 702.081 228.4C705.341 228.4 707.441 230.8 707.361 234.3H697.961C698.161 236.64 699.761 238.16 702.061 238.16C703.741 238.16 705.081 237.38 705.761 236.04L707.061 236.06C706.261 238.04 704.381 239.26 702.061 239.26ZM697.961 233.28H706.221C705.941 230.94 704.341 229.5 702.081 229.5C699.781 229.5 698.161 231 697.961 233.28ZM701.321 226.94L702.421 223.92H703.681L702.421 226.94H701.321ZM715.415 239V228.66H716.395L716.495 230.34C717.215 229.08 718.475 228.4 720.075 228.4C721.875 228.4 723.255 229.3 723.855 230.88C724.555 229.3 725.975 228.4 727.795 228.4C730.395 228.4 732.075 230.18 732.075 233.06V239H730.915V233.24C730.915 230.94 729.635 229.52 727.655 229.52C725.635 229.52 724.315 230.98 724.315 233.32V239H723.155V233.24C723.155 230.94 721.895 229.52 719.915 229.52C717.895 229.52 716.575 230.98 716.575 233.32V239H715.415ZM740.342 239.26C737.202 239.26 735.062 237.04 735.062 233.82C735.062 230.62 737.222 228.4 740.362 228.4C743.622 228.4 745.722 230.8 745.642 234.3H736.242C736.442 236.64 738.042 238.16 740.342 238.16C742.022 238.16 743.362 237.38 744.042 236.04L745.342 236.06C744.542 238.04 742.662 239.26 740.342 239.26ZM736.242 233.28H744.502C744.222 230.94 742.622 229.5 740.362 229.5C738.062 229.5 736.442 231 736.242 233.28ZM739.602 226.94L740.702 223.92H741.962L740.702 226.94H739.602ZM752.682 239C750.482 239 749.302 237.76 749.302 235.42V229.72H747.042V228.66H748.362C749.142 228.66 749.362 228.46 749.442 227.7L749.542 226.12H750.462V228.66H754.042V229.72H750.462V235.38C750.462 237.08 751.162 237.88 752.722 237.88H754.182V239H752.682ZM761.323 239.26C758.123 239.26 755.883 237.02 755.883 233.82C755.883 230.64 758.123 228.4 761.323 228.4C764.503 228.4 766.743 230.64 766.743 233.82C766.743 237.02 764.503 239.26 761.323 239.26ZM757.043 233.82C757.043 236.38 758.783 238.14 761.323 238.14C763.843 238.14 765.583 236.38 765.583 233.82C765.583 231.28 763.843 229.52 761.323 229.52C758.783 229.52 757.043 231.28 757.043 233.82ZM774.366 239.26C771.246 239.26 769.066 236.96 769.066 233.82C769.066 230.68 771.246 228.4 774.366 228.4C776.266 228.4 777.806 229.24 778.726 230.58V224.2H779.886V239H778.926L778.786 236.96C777.886 238.38 776.306 239.26 774.366 239.26ZM770.226 233.82C770.226 236.36 771.966 238.14 774.506 238.14C777.026 238.14 778.766 236.36 778.766 233.82C778.766 231.3 777.026 229.52 774.506 229.52C771.966 229.52 770.226 231.3 770.226 233.82ZM788.549 239.26C785.349 239.26 783.109 237.02 783.109 233.82C783.109 230.64 785.349 228.4 788.549 228.4C791.729 228.4 793.969 230.64 793.969 233.82C793.969 237.02 791.729 239.26 788.549 239.26ZM784.269 233.82C784.269 236.38 786.009 238.14 788.549 238.14C791.069 238.14 792.809 236.38 792.809 233.82C792.809 231.28 791.069 229.52 788.549 229.52C786.009 229.52 784.269 231.28 784.269 233.82ZM800.753 239.26C798.133 239.26 796.473 237.94 796.393 235.88H797.533C797.653 237.34 798.793 238.2 800.773 238.2C802.593 238.2 803.693 237.5 803.693 236.36C803.693 235.28 802.713 234.62 800.513 234.24C797.813 233.78 796.593 232.82 796.593 231.24C796.593 229.48 798.093 228.4 800.513 228.4C802.953 228.4 804.493 229.56 804.653 231.54H803.493C803.373 230.18 802.313 229.44 800.513 229.44C798.793 229.44 797.753 230.14 797.753 231.26C797.753 232.28 798.613 232.84 800.913 233.28C803.533 233.78 804.833 234.82 804.833 236.38C804.833 238.12 803.253 239.26 800.753 239.26ZM817.022 239.26C813.882 239.26 811.742 237.04 811.742 233.82C811.742 230.62 813.902 228.4 817.042 228.4C820.302 228.4 822.402 230.8 822.322 234.3H812.922C813.122 236.64 814.722 238.16 817.022 238.16C818.702 238.16 820.042 237.38 820.722 236.04L822.022 236.06C821.222 238.04 819.342 239.26 817.022 239.26ZM812.922 233.28H821.182C820.902 230.94 819.302 229.5 817.042 229.5C814.742 229.5 813.122 231 812.922 233.28ZM823.745 239L827.825 233.7L824.005 228.66H825.385L827.485 231.4L828.585 232.88L829.685 231.4L831.785 228.66H833.185L829.365 233.7L833.445 239H832.025L829.765 236.06L828.605 234.52L827.425 236.06L825.165 239H823.745ZM836.314 239V228.66H837.474V239H836.314ZM835.834 225.72C835.834 225.14 836.254 224.68 836.894 224.68C837.534 224.68 837.954 225.14 837.954 225.72C837.954 226.32 837.534 226.78 836.894 226.78C836.254 226.78 835.834 226.32 835.834 225.72ZM845.147 239.26C842.527 239.26 840.867 237.94 840.787 235.88H841.927C842.047 237.34 843.187 238.2 845.167 238.2C846.987 238.2 848.087 237.5 848.087 236.36C848.087 235.28 847.107 234.62 844.907 234.24C842.207 233.78 840.987 232.82 840.987 231.24C840.987 229.48 842.487 228.4 844.907 228.4C847.347 228.4 848.887 229.56 849.047 231.54H847.887C847.767 230.18 846.707 229.44 844.907 229.44C843.187 229.44 842.147 230.14 842.147 231.26C842.147 232.28 843.007 232.84 845.307 233.28C847.927 233.78 849.227 234.82 849.227 236.38C849.227 238.12 847.647 239.26 845.147 239.26ZM856.49 239C854.29 239 853.11 237.76 853.11 235.42V229.72H850.85V228.66H852.17C852.95 228.66 853.17 228.46 853.25 227.7L853.35 226.12H854.27V228.66H857.85V229.72H854.27V235.38C854.27 237.08 854.97 237.88 856.53 237.88H857.99V239H856.49ZM864.971 239.26C861.831 239.26 859.691 237.04 859.691 233.82C859.691 230.62 861.851 228.4 864.991 228.4C868.251 228.4 870.351 230.8 870.271 234.3H860.871C861.071 236.64 862.671 238.16 864.971 238.16C866.651 238.16 867.991 237.38 868.671 236.04L869.971 236.06C869.171 238.04 867.291 239.26 864.971 239.26ZM860.871 233.28H869.131C868.851 230.94 867.251 229.5 864.991 229.5C862.691 229.5 861.071 231 860.871 233.28ZM873.443 239V228.66H874.423L874.523 230.66C875.343 229.18 876.783 228.4 878.443 228.4C881.143 228.4 882.803 230.3 882.803 233.28V239H881.643V233.38C881.643 231 880.363 229.52 878.303 229.52C876.123 229.52 874.603 231.18 874.603 233.64V239H873.443ZM897.576 239.26C895.676 239.26 894.136 238.4 893.216 237.04V243H892.056V228.66H893.036L893.156 230.72C894.056 229.28 895.636 228.4 897.576 228.4C900.716 228.4 902.876 230.68 902.876 233.82C902.876 236.96 900.716 239.26 897.576 239.26ZM893.176 233.82C893.176 236.36 894.916 238.14 897.456 238.14C899.996 238.14 901.716 236.36 901.716 233.82C901.716 231.3 899.996 229.52 897.456 229.52C894.916 229.52 893.176 231.3 893.176 233.82ZM909.202 239.16C906.802 239.16 905.302 237.98 905.302 236.08C905.302 234.24 906.702 233.08 908.822 233.08H913.382V232.34C913.382 230.62 912.122 229.48 910.202 229.48C908.642 229.48 907.422 230.28 907.002 231.52H905.822C906.322 229.6 907.982 228.4 910.182 228.4C912.762 228.4 914.542 229.98 914.542 232.28V239H913.582L913.462 237.22C912.562 238.46 911.042 239.16 909.202 239.16ZM906.462 236.06C906.462 237.32 907.522 238.12 909.242 238.12C911.642 238.12 913.402 236.62 913.402 234.54V234.1H908.862C907.442 234.1 906.462 234.88 906.462 236.06ZM918.443 239V228.66H919.423L919.543 230.98C920.243 229.42 921.423 228.66 923.343 228.66H924.203V229.74H923.303C921.083 229.74 919.603 231.1 919.603 234.24V239H918.443ZM929.515 239.16C927.115 239.16 925.615 237.98 925.615 236.08C925.615 234.24 927.015 233.08 929.135 233.08H933.695V232.34C933.695 230.62 932.435 229.48 930.515 229.48C928.955 229.48 927.735 230.28 927.315 231.52H926.135C926.635 229.6 928.295 228.4 930.495 228.4C933.075 228.4 934.855 229.98 934.855 232.28V239H933.895L933.775 237.22C932.875 238.46 931.355 239.16 929.515 239.16ZM926.775 236.06C926.775 237.32 927.835 238.12 929.555 238.12C931.955 238.12 933.715 236.62 933.715 234.54V234.1H929.175C927.755 234.1 926.775 234.88 926.775 236.06ZM944.107 239V224.2H945.267V239H944.107ZM952.62 239.16C950.22 239.16 948.72 237.98 948.72 236.08C948.72 234.24 950.12 233.08 952.24 233.08H956.8V232.34C956.8 230.62 955.54 229.48 953.62 229.48C952.06 229.48 950.84 230.28 950.42 231.52H949.24C949.74 229.6 951.4 228.4 953.6 228.4C956.18 228.4 957.96 229.98 957.96 232.28V239H957L956.88 237.22C955.98 238.46 954.46 239.16 952.62 239.16ZM949.88 236.06C949.88 237.32 950.94 238.12 952.66 238.12C955.06 238.12 956.82 236.62 956.82 234.54V234.1H952.28C950.86 234.1 949.88 234.88 949.88 236.06ZM660.6 272.26C658.06 272.26 656.18 270.92 655.78 268.82H656.96C657.3 270.26 658.7 271.16 660.6 271.16C662.98 271.16 664.5 269.76 664.5 267.54V265.86C663.58 267.12 662.1 267.88 660.34 267.88C657.32 267.88 655.16 265.68 655.16 262.64C655.16 259.6 657.32 257.4 660.34 257.4C662.16 257.4 663.66 258.2 664.58 259.52L664.68 257.66H665.66V267.58C665.66 270.36 663.62 272.26 660.6 272.26ZM656.32 262.64C656.32 265.06 658.02 266.74 660.46 266.74C662.88 266.74 664.58 265.06 664.58 262.64C664.58 260.22 662.88 258.52 660.46 258.52C658.02 258.52 656.32 260.22 656.32 262.64ZM674.151 268.26C671.011 268.26 668.871 266.04 668.871 262.82C668.871 259.62 671.031 257.4 674.171 257.4C677.431 257.4 679.531 259.8 679.451 263.3H670.051C670.251 265.64 671.851 267.16 674.151 267.16C675.831 267.16 677.171 266.38 677.851 265.04L679.151 265.06C678.351 267.04 676.471 268.26 674.151 268.26ZM670.051 262.28H678.311C678.031 259.94 676.431 258.5 674.171 258.5C671.871 258.5 670.251 260 670.051 262.28ZM686.183 268.26C683.563 268.26 681.903 266.94 681.823 264.88H682.963C683.083 266.34 684.223 267.2 686.203 267.2C688.023 267.2 689.123 266.5 689.123 265.36C689.123 264.28 688.143 263.62 685.943 263.24C683.243 262.78 682.023 261.82 682.023 260.24C682.023 258.48 683.523 257.4 685.943 257.4C688.383 257.4 689.923 258.56 690.083 260.54H688.923C688.803 259.18 687.743 258.44 685.943 258.44C684.223 258.44 683.183 259.14 683.183 260.26C683.183 261.28 684.043 261.84 686.343 262.28C688.963 262.78 690.263 263.82 690.263 265.38C690.263 267.12 688.683 268.26 686.183 268.26ZM697.526 268C695.326 268 694.146 266.76 694.146 264.42V258.72H691.886V257.66H693.206C693.986 257.66 694.206 257.46 694.286 256.7L694.386 255.12H695.306V257.66H698.886V258.72H695.306V264.38C695.306 266.08 696.006 266.88 697.566 266.88H699.026V268H697.526ZM702.134 268V257.66H703.294V268H702.134ZM701.654 254.72C701.654 254.14 702.074 253.68 702.714 253.68C703.354 253.68 703.774 254.14 703.774 254.72C703.774 255.32 703.354 255.78 702.714 255.78C702.074 255.78 701.654 255.32 701.654 254.72ZM711.948 268.26C708.748 268.26 706.508 266.02 706.508 262.82C706.508 259.64 708.748 257.4 711.948 257.4C715.128 257.4 717.368 259.64 717.368 262.82C717.368 266.02 715.128 268.26 711.948 268.26ZM707.668 262.82C707.668 265.38 709.408 267.14 711.948 267.14C714.468 267.14 716.208 265.38 716.208 262.82C716.208 260.28 714.468 258.52 711.948 258.52C709.408 258.52 707.668 260.28 707.668 262.82ZM711.188 255.94L712.288 252.92H713.528L712.268 255.94H711.188ZM720.591 268V257.66H721.571L721.671 259.66C722.491 258.18 723.931 257.4 725.591 257.4C728.291 257.4 729.951 259.3 729.951 262.28V268H728.791V262.38C728.791 260 727.511 258.52 725.451 258.52C723.271 258.52 721.751 260.18 721.751 262.64V268H720.591ZM743.136 268.26C740.016 268.26 737.836 265.96 737.836 262.82C737.836 259.68 740.016 257.4 743.136 257.4C745.036 257.4 746.576 258.24 747.496 259.58V253.2H748.656V268H747.696L747.556 265.96C746.656 267.38 745.076 268.26 743.136 268.26ZM738.996 262.82C738.996 265.36 740.736 267.14 743.276 267.14C745.796 267.14 747.536 265.36 747.536 262.82C747.536 260.3 745.796 258.52 743.276 258.52C740.736 258.52 738.996 260.3 738.996 262.82ZM757.159 268.26C754.019 268.26 751.879 266.04 751.879 262.82C751.879 259.62 754.039 257.4 757.179 257.4C760.439 257.4 762.539 259.8 762.459 263.3H753.059C753.259 265.64 754.859 267.16 757.159 267.16C758.839 267.16 760.179 266.38 760.859 265.04L762.159 265.06C761.359 267.04 759.479 268.26 757.159 268.26ZM753.059 262.28H761.319C761.039 259.94 759.439 258.5 757.179 258.5C754.879 258.5 753.259 260 753.059 262.28ZM774.127 268C771.927 268 770.747 266.76 770.747 264.42V258.72H768.487V257.66H769.807C770.587 257.66 770.807 257.46 770.887 256.7L770.987 255.12H771.907V257.66H775.487V258.72H771.907V264.38C771.907 266.08 772.607 266.88 774.167 266.88H775.627V268H774.127ZM781.624 268.16C779.224 268.16 777.724 266.98 777.724 265.08C777.724 263.24 779.124 262.08 781.244 262.08H785.804V261.34C785.804 259.62 784.544 258.48 782.624 258.48C781.064 258.48 779.844 259.28 779.424 260.52H778.244C778.744 258.6 780.404 257.4 782.604 257.4C785.184 257.4 786.964 258.98 786.964 261.28V268H786.004L785.884 266.22C784.984 267.46 783.464 268.16 781.624 268.16ZM778.884 265.06C778.884 266.32 779.944 267.12 781.664 267.12C784.064 267.12 785.824 265.62 785.824 263.54V263.1H781.284C779.864 263.1 778.884 263.88 778.884 265.06ZM790.865 268V257.66H791.845L791.965 259.98C792.665 258.42 793.845 257.66 795.765 257.66H796.625V258.74H795.725C793.505 258.74 792.025 260.1 792.025 263.24V268H790.865ZM803.116 268.26C799.976 268.26 797.836 266.04 797.836 262.82C797.836 259.62 799.996 257.4 803.136 257.4C806.396 257.4 808.496 259.8 808.416 263.3H799.016C799.216 265.64 800.816 267.16 803.116 267.16C804.796 267.16 806.136 266.38 806.816 265.04L808.116 265.06C807.316 267.04 805.436 268.26 803.116 268.26ZM799.016 262.28H807.276C806.996 259.94 805.396 258.5 803.136 258.5C800.836 258.5 799.216 260 799.016 262.28ZM814.691 268.16C812.291 268.16 810.791 266.98 810.791 265.08C810.791 263.24 812.191 262.08 814.311 262.08H818.871V261.34C818.871 259.62 817.611 258.48 815.691 258.48C814.131 258.48 812.911 259.28 812.491 260.52H811.311C811.811 258.6 813.471 257.4 815.671 257.4C818.251 257.4 820.031 258.98 820.031 261.28V268H819.071L818.951 266.22C818.051 267.46 816.531 268.16 814.691 268.16ZM811.951 265.06C811.951 266.32 813.011 267.12 814.731 267.12C817.131 267.12 818.891 265.62 818.891 263.54V263.1H814.351C812.931 263.1 811.951 263.88 811.951 265.06ZM827.491 268.26C824.871 268.26 823.211 266.94 823.131 264.88H824.271C824.391 266.34 825.531 267.2 827.511 267.2C829.331 267.2 830.431 266.5 830.431 265.36C830.431 264.28 829.451 263.62 827.251 263.24C824.551 262.78 823.331 261.82 823.331 260.24C823.331 258.48 824.831 257.4 827.251 257.4C829.691 257.4 831.231 258.56 831.391 260.54H830.231C830.111 259.18 829.051 258.44 827.251 258.44C825.531 258.44 824.491 259.14 824.491 260.26C824.491 261.28 825.351 261.84 827.651 262.28C830.271 262.78 831.571 263.82 831.571 265.38C831.571 267.12 829.991 268.26 827.491 268.26ZM839.849 268V253.2H841.009V259.54C841.829 258.12 843.269 257.4 844.889 257.4C847.569 257.4 849.209 259.26 849.209 262.24V268H848.049V262.34C848.049 259.96 846.789 258.52 844.729 258.52C842.549 258.52 841.009 260.14 841.009 262.62V268H839.849ZM857.651 268.26C854.451 268.26 852.211 266.02 852.211 262.82C852.211 259.64 854.451 257.4 857.651 257.4C860.831 257.4 863.071 259.64 863.071 262.82C863.071 266.02 860.831 268.26 857.651 268.26ZM853.371 262.82C853.371 265.38 855.111 267.14 857.651 267.14C860.171 267.14 861.911 265.38 861.911 262.82C861.911 260.28 860.171 258.52 857.651 258.52C855.111 258.52 853.371 260.28 853.371 262.82ZM865.264 272V270.9H866.124C867.584 270.9 868.044 270.6 868.584 269.3L869.164 267.84L864.244 257.66H865.544L867.984 262.76L869.764 266.44L871.244 262.76L873.344 257.66H874.564L869.624 269.74C868.904 271.54 868.104 272 866.244 272H865.264ZM885.831 268.26C882.691 268.26 880.551 266.04 880.551 262.82C880.551 259.62 882.711 257.4 885.851 257.4C889.111 257.4 891.211 259.8 891.131 263.3H881.731C881.931 265.64 883.531 267.16 885.831 267.16C887.511 267.16 888.851 266.38 889.531 265.04L890.831 265.06C890.031 267.04 888.151 268.26 885.831 268.26ZM881.731 262.28H889.991C889.711 259.94 888.111 258.5 885.851 258.5C883.551 258.5 881.931 260 881.731 262.28ZM894.302 268V257.66H895.282L895.382 259.66C896.202 258.18 897.642 257.4 899.302 257.4C902.002 257.4 903.662 259.3 903.662 262.28V268H902.502V262.38C902.502 260 901.222 258.52 899.162 258.52C896.982 258.52 895.462 260.18 895.462 262.64V268H894.302ZM916.847 268.26C913.727 268.26 911.547 265.96 911.547 262.82C911.547 259.68 913.727 257.4 916.847 257.4C918.747 257.4 920.287 258.24 921.207 259.58V253.2H922.367V268H921.407L921.267 265.96C920.367 267.38 918.787 268.26 916.847 268.26ZM912.707 262.82C912.707 265.36 914.447 267.14 916.987 267.14C919.507 267.14 921.247 265.36 921.247 262.82C921.247 260.3 919.507 258.52 916.987 258.52C914.447 258.52 912.707 260.3 912.707 262.82ZM926.49 268V257.66H927.65V268H926.49ZM926.43 255.94L927.21 252.92H928.51L927.49 255.94H926.43ZM935.003 268.16C932.603 268.16 931.103 266.98 931.103 265.08C931.103 263.24 932.503 262.08 934.623 262.08H939.183V261.34C939.183 259.62 937.923 258.48 936.003 258.48C934.443 258.48 933.223 259.28 932.803 260.52H931.623C932.123 258.6 933.783 257.4 935.983 257.4C938.563 257.4 940.343 258.98 940.343 261.28V268H939.383L939.263 266.22C938.363 267.46 936.843 268.16 935.003 268.16ZM932.263 265.06C932.263 266.32 933.323 267.12 935.043 267.12C937.443 267.12 939.203 265.62 939.203 263.54V263.1H934.663C933.243 263.1 932.263 263.88 932.263 265.06ZM946.637 263.64C946.637 262.26 947.197 261.38 948.697 260.46C950.177 259.52 950.697 258.76 950.697 257.56C950.697 255.9 949.537 254.9 947.557 254.9C945.597 254.9 944.317 255.92 944.217 257.64H943.037C943.177 255.22 944.877 253.74 947.517 253.74C950.137 253.74 951.877 255.24 951.877 257.52C951.877 259.04 951.117 260.24 949.337 261.36C948.137 262.1 947.817 262.64 947.817 263.72V264.16H946.637V263.64ZM946.157 267.08C946.157 266.46 946.597 266.04 947.237 266.04C947.857 266.04 948.297 266.46 948.297 267.08C948.297 267.7 947.857 268.12 947.237 268.12C946.597 268.12 946.157 267.7 946.157 267.08Z" fill="black"/>
<path d="M751 81.56C751 82.94 750.44 83.82 748.94 84.74C747.46 85.68 746.94 86.44 746.94 87.64C746.94 89.3 748.1 90.3 750.08 90.3C752.04 90.3 753.32 89.28 753.42 87.56H754.6C754.46 89.98 752.76 91.46 750.12 91.46C747.5 91.46 745.76 89.96 745.76 87.68C745.76 86.16 746.52 84.96 748.3 83.84C749.5 83.1 749.82 82.56 749.82 81.48V81.04H751V81.56ZM749.34 78.12C749.34 77.5 749.78 77.08 750.4 77.08C751.04 77.08 751.48 77.5 751.48 78.12C751.48 78.74 751.04 79.16 750.4 79.16C749.78 79.16 749.34 78.74 749.34 78.12ZM763.864 87.26C759.744 87.26 756.764 84.26 756.764 80C756.764 75.74 759.744 72.74 763.864 72.74C767.064 72.74 769.684 74.6 770.604 77.54H769.324C768.524 75.32 766.444 73.96 763.884 73.96C760.464 73.96 758.004 76.42 758.004 80C758.004 83.58 760.464 86.04 763.884 86.04C766.504 86.04 768.664 84.62 769.444 82.3H770.724C769.864 85.32 767.164 87.26 763.864 87.26ZM778.393 87.26C775.193 87.26 772.953 85.02 772.953 81.82C772.953 78.64 775.193 76.4 778.393 76.4C781.573 76.4 783.813 78.64 783.813 81.82C783.813 85.02 781.573 87.26 778.393 87.26ZM774.113 81.82C774.113 84.38 775.853 86.14 778.393 86.14C780.913 86.14 782.653 84.38 782.653 81.82C782.653 79.28 780.913 77.52 778.393 77.52C775.853 77.52 774.113 79.28 774.113 81.82ZM777.633 74.94L778.733 71.92H779.973L778.713 74.94H777.633ZM787.037 87V76.66H788.017L788.117 78.34C788.837 77.08 790.097 76.4 791.697 76.4C793.497 76.4 794.877 77.3 795.477 78.88C796.177 77.3 797.597 76.4 799.417 76.4C802.017 76.4 803.697 78.18 803.697 81.06V87H802.537V81.24C802.537 78.94 801.257 77.52 799.277 77.52C797.257 77.52 795.937 78.98 795.937 81.32V87H794.777V81.24C794.777 78.94 793.517 77.52 791.537 77.52C789.517 77.52 788.197 78.98 788.197 81.32V87H787.037ZM812.123 87.26C808.923 87.26 806.683 85.02 806.683 81.82C806.683 78.64 808.923 76.4 812.123 76.4C815.303 76.4 817.543 78.64 817.543 81.82C817.543 85.02 815.303 87.26 812.123 87.26ZM807.843 81.82C807.843 84.38 809.583 86.14 812.123 86.14C814.643 86.14 816.383 84.38 816.383 81.82C816.383 79.28 814.643 77.52 812.123 77.52C809.583 77.52 807.843 79.28 807.843 81.82ZM828.89 87.16C826.49 87.16 824.99 85.98 824.99 84.08C824.99 82.24 826.39 81.08 828.51 81.08H833.07V80.34C833.07 78.62 831.81 77.48 829.89 77.48C828.33 77.48 827.11 78.28 826.69 79.52H825.51C826.01 77.6 827.67 76.4 829.87 76.4C832.45 76.4 834.23 77.98 834.23 80.28V87H833.27L833.15 85.22C832.25 86.46 830.73 87.16 828.89 87.16ZM826.15 84.06C826.15 85.32 827.21 86.12 828.93 86.12C831.33 86.12 833.09 84.62 833.09 82.54V82.1H828.55C827.13 82.1 826.15 82.88 826.15 84.06ZM840.661 87L836.041 76.66H837.301L839.101 80.66L841.241 85.48L843.361 80.66L845.181 76.66H846.421L841.801 87H840.661ZM852.881 87.26C849.741 87.26 847.601 85.04 847.601 81.82C847.601 78.62 849.761 76.4 852.901 76.4C856.161 76.4 858.261 78.8 858.181 82.3H848.781C848.981 84.64 850.581 86.16 852.881 86.16C854.561 86.16 855.901 85.38 856.581 84.04L857.881 84.06C857.081 86.04 855.201 87.26 852.881 87.26ZM848.781 81.28H857.041C856.761 78.94 855.161 77.5 852.901 77.5C850.601 77.5 848.981 79 848.781 81.28ZM861.353 87V76.66H862.333L862.453 78.98C863.153 77.42 864.333 76.66 866.253 76.66H867.113V77.74H866.213C863.993 77.74 862.513 79.1 862.513 82.24V87H861.353ZM870.025 87V76.66H871.185V87H870.025ZM869.545 73.72C869.545 73.14 869.965 72.68 870.605 72.68C871.245 72.68 871.665 73.14 871.665 73.72C871.665 74.32 871.245 74.78 870.605 74.78C869.965 74.78 869.545 74.32 869.545 73.72ZM879.838 91.26C877.298 91.26 875.418 89.92 875.018 87.82H876.198C876.538 89.26 877.938 90.16 879.838 90.16C882.218 90.16 883.738 88.76 883.738 86.54V84.86C882.818 86.12 881.338 86.88 879.578 86.88C876.558 86.88 874.398 84.68 874.398 81.64C874.398 78.6 876.558 76.4 879.578 76.4C881.398 76.4 882.898 77.2 883.818 78.52L883.918 76.66H884.898V86.58C884.898 89.36 882.858 91.26 879.838 91.26ZM875.558 81.64C875.558 84.06 877.258 85.74 879.698 85.74C882.118 85.74 883.818 84.06 883.818 81.64C883.818 79.22 882.118 77.52 879.698 77.52C877.258 77.52 875.558 79.22 875.558 81.64ZM893.089 87.26C890.429 87.26 888.789 85.36 888.789 82.38V76.66H889.949V82.28C889.949 84.64 891.209 86.14 893.249 86.14C895.389 86.14 896.869 84.46 896.869 82V76.66H898.029V87H897.069L896.949 84.98C896.149 86.48 894.709 87.26 893.089 87.26ZM905.394 87.16C902.994 87.16 901.494 85.98 901.494 84.08C901.494 82.24 902.894 81.08 905.014 81.08H909.574V80.34C909.574 78.62 908.314 77.48 906.394 77.48C904.834 77.48 903.614 78.28 903.194 79.52H902.014C902.514 77.6 904.174 76.4 906.374 76.4C908.954 76.4 910.734 77.98 910.734 80.28V87H909.774L909.654 85.22C908.754 86.46 907.234 87.16 905.394 87.16ZM902.654 84.06C902.654 85.32 903.714 86.12 905.434 86.12C907.834 86.12 909.594 84.62 909.594 82.54V82.1H905.054C903.634 82.1 902.654 82.88 902.654 84.06ZM914.634 87V76.66H915.614L915.714 78.34C916.434 77.08 917.694 76.4 919.294 76.4C921.094 76.4 922.474 77.3 923.074 78.88C923.774 77.3 925.194 76.4 927.014 76.4C929.614 76.4 931.294 78.18 931.294 81.06V87H930.134V81.24C930.134 78.94 928.854 77.52 926.874 77.52C924.854 77.52 923.534 78.98 923.534 81.32V87H922.374V81.24C922.374 78.94 921.114 77.52 919.134 77.52C917.114 77.52 915.794 78.98 915.794 81.32V87H914.634ZM939.721 87.26C936.521 87.26 934.281 85.02 934.281 81.82C934.281 78.64 936.521 76.4 939.721 76.4C942.901 76.4 945.141 78.64 945.141 81.82C945.141 85.02 942.901 87.26 939.721 87.26ZM935.441 81.82C935.441 84.38 937.181 86.14 939.721 86.14C942.241 86.14 943.981 84.38 943.981 81.82C943.981 79.28 942.241 77.52 939.721 77.52C937.181 77.52 935.441 79.28 935.441 81.82ZM951.925 87.26C949.305 87.26 947.645 85.94 947.565 83.88H948.705C948.825 85.34 949.965 86.2 951.945 86.2C953.765 86.2 954.865 85.5 954.865 84.36C954.865 83.28 953.885 82.62 951.685 82.24C948.985 81.78 947.765 80.82 947.765 79.24C947.765 77.48 949.265 76.4 951.685 76.4C954.125 76.4 955.665 77.56 955.825 79.54H954.665C954.545 78.18 953.485 77.44 951.685 77.44C949.965 77.44 948.925 78.14 948.925 79.26C948.925 80.28 949.785 80.84 952.085 81.28C954.705 81.78 956.005 82.82 956.005 84.38C956.005 86.12 954.425 87.26 951.925 87.26ZM964.283 87V72.2H965.443V87H964.283ZM974.096 87.26C970.896 87.26 968.656 85.02 968.656 81.82C968.656 78.64 970.896 76.4 974.096 76.4C977.276 76.4 979.516 78.64 979.516 81.82C979.516 85.02 977.276 87.26 974.096 87.26ZM969.816 81.82C969.816 84.38 971.556 86.14 974.096 86.14C976.616 86.14 978.356 84.38 978.356 81.82C978.356 79.28 976.616 77.52 974.096 77.52C971.556 77.52 969.816 79.28 969.816 81.82ZM991.554 87.26C988.434 87.26 986.254 84.96 986.254 81.82C986.254 78.68 988.434 76.4 991.554 76.4C993.494 76.4 995.074 77.28 995.994 78.7L996.114 76.66H997.074V91H995.914V85.06C994.994 86.42 993.454 87.26 991.554 87.26ZM987.414 81.82C987.414 84.36 989.154 86.14 991.694 86.14C994.214 86.14 995.954 84.36 995.954 81.82C995.954 79.3 994.214 77.52 991.694 77.52C989.154 77.52 987.414 79.3 987.414 81.82ZM1005.28 87.26C1002.62 87.26 1000.98 85.36 1000.98 82.38V76.66H1002.14V82.28C1002.14 84.64 1003.4 86.14 1005.44 86.14C1007.58 86.14 1009.06 84.46 1009.06 82V76.66H1010.22V87H1009.26L1009.14 84.98C1008.34 86.48 1006.9 87.26 1005.28 87.26ZM1018.72 87.26C1015.58 87.26 1013.44 85.04 1013.44 81.82C1013.44 78.62 1015.6 76.4 1018.74 76.4C1022 76.4 1024.1 78.8 1024.02 82.3H1014.62C1014.82 84.64 1016.42 86.16 1018.72 86.16C1020.4 86.16 1021.74 85.38 1022.42 84.04L1023.72 84.06C1022.92 86.04 1021.04 87.26 1018.72 87.26ZM1014.62 81.28H1022.88C1022.6 78.94 1021 77.5 1018.74 77.5C1016.44 77.5 1014.82 79 1014.62 81.28ZM1035.99 87.26C1032.85 87.26 1030.71 85.04 1030.71 81.82C1030.71 78.62 1032.87 76.4 1036.01 76.4C1039.27 76.4 1041.37 78.8 1041.29 82.3H1031.89C1032.09 84.64 1033.69 86.16 1035.99 86.16C1037.67 86.16 1039.01 85.38 1039.69 84.04L1040.99 84.06C1040.19 86.04 1038.31 87.26 1035.99 87.26ZM1031.89 81.28H1040.15C1039.87 78.94 1038.27 77.5 1036.01 77.5C1033.71 77.5 1032.09 79 1031.89 81.28ZM1048.02 87.26C1045.4 87.26 1043.74 85.94 1043.66 83.88H1044.8C1044.92 85.34 1046.06 86.2 1048.04 86.2C1049.86 86.2 1050.96 85.5 1050.96 84.36C1050.96 83.28 1049.98 82.62 1047.78 82.24C1045.08 81.78 1043.86 80.82 1043.86 79.24C1043.86 77.48 1045.36 76.4 1047.78 76.4C1050.22 76.4 1051.76 77.56 1051.92 79.54H1050.76C1050.64 78.18 1049.58 77.44 1047.78 77.44C1046.06 77.44 1045.02 78.14 1045.02 79.26C1045.02 80.28 1045.88 80.84 1048.18 81.28C1050.8 81.78 1052.1 82.82 1052.1 84.38C1052.1 86.12 1050.52 87.26 1048.02 87.26ZM746.06 116V105.66H747.04L747.16 107.98C747.86 106.42 749.04 105.66 750.96 105.66H751.82V106.74H750.92C748.7 106.74 747.22 108.1 747.22 111.24V116H746.06ZM758.311 116.26C755.171 116.26 753.031 114.04 753.031 110.82C753.031 107.62 755.191 105.4 758.331 105.4C761.591 105.4 763.691 107.8 763.611 111.3H754.211C754.411 113.64 756.011 115.16 758.311 115.16C759.991 115.16 761.331 114.38 762.011 113.04L763.311 113.06C762.511 115.04 760.631 116.26 758.311 116.26ZM754.211 110.28H762.471C762.191 107.94 760.591 106.5 758.331 106.5C756.031 106.5 754.411 108 754.211 110.28ZM766.783 116V101.2H767.943V116H766.783ZM776.436 116.26C773.296 116.26 771.156 114.04 771.156 110.82C771.156 107.62 773.316 105.4 776.456 105.4C779.716 105.4 781.816 107.8 781.736 111.3H772.336C772.536 113.64 774.136 115.16 776.436 115.16C778.116 115.16 779.456 114.38 780.136 113.04L781.436 113.06C780.636 115.04 778.756 116.26 776.436 116.26ZM772.336 110.28H780.596C780.316 107.94 778.716 106.5 776.456 106.5C774.156 106.5 772.536 108 772.336 110.28ZM787.477 116L782.857 105.66H784.117L785.917 109.66L788.057 114.48L790.177 109.66L791.997 105.66H793.237L788.617 116H787.477ZM798.402 116.16C796.002 116.16 794.502 114.98 794.502 113.08C794.502 111.24 795.902 110.08 798.022 110.08H802.582V109.34C802.582 107.62 801.322 106.48 799.402 106.48C797.842 106.48 796.622 107.28 796.202 108.52H795.022C795.522 106.6 797.182 105.4 799.382 105.4C801.962 105.4 803.742 106.98 803.742 109.28V116H802.782L802.662 114.22C801.762 115.46 800.242 116.16 798.402 116.16ZM795.662 113.06C795.662 114.32 796.722 115.12 798.442 115.12C800.842 115.12 802.602 113.62 802.602 111.54V111.1H798.062C796.642 111.1 795.662 111.88 795.662 113.06ZM807.642 116V105.66H808.622L808.722 107.66C809.542 106.18 810.982 105.4 812.642 105.4C815.342 105.4 817.002 107.3 817.002 110.28V116H815.842V110.38C815.842 108 814.562 106.52 812.502 106.52C810.322 106.52 808.802 108.18 808.802 110.64V116H807.642ZM824.772 116C822.572 116 821.392 114.76 821.392 112.42V106.72H819.132V105.66H820.452C821.232 105.66 821.452 105.46 821.532 104.7L821.632 103.12H822.552V105.66H826.132V106.72H822.552V112.38C822.552 114.08 823.252 114.88 824.812 114.88H826.272V116H824.772ZM833.253 116.26C830.113 116.26 827.973 114.04 827.973 110.82C827.973 107.62 830.133 105.4 833.273 105.4C836.533 105.4 838.633 107.8 838.553 111.3H829.153C829.353 113.64 830.953 115.16 833.253 115.16C834.933 115.16 836.273 114.38 836.953 113.04L838.253 113.06C837.453 115.04 835.573 116.26 833.253 116.26ZM829.153 110.28H837.413C837.133 107.94 835.533 106.5 833.273 106.5C830.973 106.5 829.353 108 829.153 110.28ZM852.127 116.26C850.227 116.26 848.687 115.4 847.767 114.04V120H846.607V105.66H847.587L847.707 107.72C848.607 106.28 850.187 105.4 852.127 105.4C855.267 105.4 857.427 107.68 857.427 110.82C857.427 113.96 855.267 116.26 852.127 116.26ZM847.727 110.82C847.727 113.36 849.467 115.14 852.007 115.14C854.547 115.14 856.267 113.36 856.267 110.82C856.267 108.3 854.547 106.52 852.007 106.52C849.467 106.52 847.727 108.3 847.727 110.82ZM863.753 116.16C861.353 116.16 859.853 114.98 859.853 113.08C859.853 111.24 861.253 110.08 863.373 110.08H867.933V109.34C867.933 107.62 866.673 106.48 864.753 106.48C863.193 106.48 861.973 107.28 861.553 108.52H860.373C860.873 106.6 862.533 105.4 864.733 105.4C867.313 105.4 869.093 106.98 869.093 109.28V116H868.133L868.013 114.22C867.113 115.46 865.593 116.16 863.753 116.16ZM861.013 113.06C861.013 114.32 862.073 115.12 863.793 115.12C866.193 115.12 867.953 113.62 867.953 111.54V111.1H863.413C861.993 111.1 861.013 111.88 861.013 113.06ZM872.994 116V105.66H873.974L874.094 107.98C874.794 106.42 875.974 105.66 877.894 105.66H878.754V106.74H877.854C875.634 106.74 874.154 108.1 874.154 111.24V116H872.994ZM884.066 116.16C881.666 116.16 880.166 114.98 880.166 113.08C880.166 111.24 881.566 110.08 883.686 110.08H888.246V109.34C888.246 107.62 886.986 106.48 885.066 106.48C883.506 106.48 882.286 107.28 881.866 108.52H880.686C881.186 106.6 882.846 105.4 885.046 105.4C887.626 105.4 889.406 106.98 889.406 109.28V116H888.446L888.326 114.22C887.426 115.46 885.906 116.16 884.066 116.16ZM881.326 113.06C881.326 114.32 882.386 115.12 884.106 115.12C886.506 115.12 888.266 113.62 888.266 111.54V111.1H883.726C882.306 111.1 881.326 111.88 881.326 113.06ZM902.569 116.26C899.469 116.26 897.289 114 897.289 110.82C897.289 107.64 899.469 105.4 902.569 105.4C905.029 105.4 907.049 106.86 907.649 109.1H906.469C905.789 107.46 904.349 106.52 902.569 106.52C900.129 106.52 898.449 108.28 898.449 110.82C898.449 113.38 900.129 115.14 902.569 115.14C904.469 115.14 905.949 114.08 906.529 112.38H907.749C907.049 114.8 905.109 116.26 902.569 116.26ZM914.007 116.16C911.607 116.16 910.107 114.98 910.107 113.08C910.107 111.24 911.507 110.08 913.627 110.08H918.187V109.34C918.187 107.62 916.927 106.48 915.007 106.48C913.447 106.48 912.227 107.28 911.807 108.52H910.627C911.127 106.6 912.787 105.4 914.987 105.4C917.567 105.4 919.347 106.98 919.347 109.28V116H918.387L918.267 114.22C917.367 115.46 915.847 116.16 914.007 116.16ZM911.267 113.06C911.267 114.32 912.327 115.12 914.047 115.12C916.447 115.12 918.207 113.62 918.207 111.54V111.1H913.667C912.247 111.1 911.267 111.88 911.267 113.06ZM927.648 116.26C924.528 116.26 922.348 113.96 922.348 110.82C922.348 107.68 924.528 105.4 927.648 105.4C929.548 105.4 931.088 106.24 932.008 107.58V101.2H933.168V116H932.207L932.068 113.96C931.168 115.38 929.588 116.26 927.648 116.26ZM923.508 110.82C923.508 113.36 925.248 115.14 927.788 115.14C930.308 115.14 932.048 113.36 932.048 110.82C932.048 108.3 930.308 106.52 927.788 106.52C925.248 106.52 923.508 108.3 923.508 110.82ZM940.53 116.16C938.13 116.16 936.63 114.98 936.63 113.08C936.63 111.24 938.03 110.08 940.15 110.08H944.71V109.34C944.71 107.62 943.45 106.48 941.53 106.48C939.97 106.48 938.75 107.28 938.33 108.52H937.15C937.65 106.6 939.31 105.4 941.51 105.4C944.09 105.4 945.87 106.98 945.87 109.28V116H944.91L944.79 114.22C943.89 115.46 942.37 116.16 940.53 116.16ZM937.79 113.06C937.79 114.32 938.85 115.12 940.57 115.12C942.97 115.12 944.73 113.62 944.73 111.54V111.1H940.19C938.77 111.1 937.79 111.88 937.79 113.06ZM955.123 116V105.66H956.283V116H955.123ZM954.643 102.72C954.643 102.14 955.063 101.68 955.702 101.68C956.343 101.68 956.763 102.14 956.763 102.72C956.763 103.32 956.343 103.78 955.702 103.78C955.063 103.78 954.643 103.32 954.643 102.72ZM960.396 116V105.66H961.376L961.476 107.66C962.296 106.18 963.736 105.4 965.396 105.4C968.096 105.4 969.756 107.3 969.756 110.28V116H968.596V110.38C968.596 108 967.316 106.52 965.256 106.52C963.076 106.52 961.556 108.18 961.556 110.64V116H960.396ZM978.058 116.26C974.938 116.26 972.758 113.96 972.758 110.82C972.758 107.68 974.938 105.4 978.058 105.4C979.958 105.4 981.498 106.24 982.418 107.58V101.2H983.578V116H982.618L982.478 113.96C981.578 115.38 979.998 116.26 978.058 116.26ZM973.918 110.82C973.918 113.36 975.658 115.14 978.198 115.14C980.718 115.14 982.458 113.36 982.458 110.82C982.458 108.3 980.718 106.52 978.198 106.52C975.658 106.52 973.918 108.3 973.918 110.82ZM987.701 116V105.66H988.861V116H987.701ZM987.221 102.72C987.221 102.14 987.641 101.68 988.281 101.68C988.921 101.68 989.341 102.14 989.341 102.72C989.341 103.32 988.921 103.78 988.281 103.78C987.641 103.78 987.221 103.32 987.221 102.72ZM995.934 116L991.314 105.66H992.574L994.374 109.66L996.514 114.48L998.634 109.66L1000.45 105.66H1001.69L997.074 116H995.934ZM1004.17 116V105.66H1005.33V116H1004.17ZM1003.69 102.72C1003.69 102.14 1004.11 101.68 1004.75 101.68C1005.39 101.68 1005.81 102.14 1005.81 102.72C1005.81 103.32 1005.39 103.78 1004.75 103.78C1004.11 103.78 1003.69 103.32 1003.69 102.72ZM1013.84 116.26C1010.72 116.26 1008.54 113.96 1008.54 110.82C1008.54 107.68 1010.72 105.4 1013.84 105.4C1015.74 105.4 1017.28 106.24 1018.2 107.58V101.2H1019.36V116H1018.4L1018.26 113.96C1017.36 115.38 1015.78 116.26 1013.84 116.26ZM1009.7 110.82C1009.7 113.36 1011.44 115.14 1013.98 115.14C1016.5 115.14 1018.24 113.36 1018.24 110.82C1018.24 108.3 1016.5 106.52 1013.98 106.52C1011.44 106.52 1009.7 108.3 1009.7 110.82ZM1027.56 116.26C1024.9 116.26 1023.26 114.36 1023.26 111.38V105.66H1024.42V111.28C1024.42 113.64 1025.68 115.14 1027.72 115.14C1029.86 115.14 1031.34 113.46 1031.34 111V105.66H1032.5V116H1031.54L1031.42 113.98C1030.62 115.48 1029.18 116.26 1027.56 116.26ZM1041.17 116.26C1037.97 116.26 1035.73 114.02 1035.73 110.82C1035.73 107.64 1037.97 105.4 1041.17 105.4C1044.35 105.4 1046.59 107.64 1046.59 110.82C1046.59 114.02 1044.35 116.26 1041.17 116.26ZM1036.89 110.82C1036.89 113.38 1038.63 115.14 1041.17 115.14C1043.69 115.14 1045.43 113.38 1045.43 110.82C1045.43 108.28 1043.69 106.52 1041.17 106.52C1038.63 106.52 1036.89 108.28 1036.89 110.82ZM1052.3 111.64C1052.3 110.26 1052.86 109.38 1054.36 108.46C1055.84 107.52 1056.36 106.76 1056.36 105.56C1056.36 103.9 1055.2 102.9 1053.22 102.9C1051.26 102.9 1049.98 103.92 1049.88 105.64H1048.7C1048.84 103.22 1050.54 101.74 1053.18 101.74C1055.8 101.74 1057.54 103.24 1057.54 105.52C1057.54 107.04 1056.78 108.24 1055 109.36C1053.8 110.1 1053.48 110.64 1053.48 111.72V112.16H1052.3V111.64ZM1051.82 115.08C1051.82 114.46 1052.26 114.04 1052.9 114.04C1053.52 114.04 1053.96 114.46 1053.96 115.08C1053.96 115.7 1053.52 116.12 1052.9 116.12C1052.26 116.12 1051.82 115.7 1051.82 115.08Z" fill="black"/>
<path d="M7 52.56C7 53.94 6.44 54.82 4.94 55.74C3.46 56.68 2.94 57.44 2.94 58.64C2.94 60.3 4.1 61.3 6.08 61.3C8.04 61.3 9.32 60.28 9.42 58.56H10.6C10.46 60.98 8.76 62.46 6.12 62.46C3.5 62.46 1.76 60.96 1.76 58.68C1.76 57.16 2.52 55.96 4.3 54.84C5.5 54.1 5.82 53.56 5.82 52.48V52.04H7V52.56ZM5.34 49.12C5.34 48.5 5.78 48.08 6.4 48.08C7.04 48.08 7.48 48.5 7.48 49.12C7.48 49.74 7.04 50.16 6.4 50.16C5.78 50.16 5.34 49.74 5.34 49.12ZM14.2522 58V44H22.4922V45.14H15.4722V50.3H21.9722V51.42H15.4722V56.86H22.7122V58H14.2522ZM26.2397 58V47.66H27.2197L27.3197 49.66C28.1397 48.18 29.5797 47.4 31.2397 47.4C33.9397 47.4 35.5997 49.3 35.5997 52.28V58H34.4397V52.38C34.4397 50 33.1597 48.52 31.0997 48.52C28.9197 48.52 27.3997 50.18 27.3997 52.64V58H26.2397ZM48.7842 58.26C45.6642 58.26 43.4842 55.96 43.4842 52.82C43.4842 49.68 45.6642 47.4 48.7842 47.4C50.7242 47.4 52.3042 48.28 53.2242 49.7L53.3442 47.66H54.3042V62H53.1442V56.06C52.2242 57.42 50.6842 58.26 48.7842 58.26ZM44.6442 52.82C44.6442 55.36 46.3842 57.14 48.9242 57.14C51.4442 57.14 53.1842 55.36 53.1842 52.82C53.1842 50.3 51.4442 48.52 48.9242 48.52C46.3842 48.52 44.6442 50.3 44.6442 52.82ZM62.5072 58.26C59.8472 58.26 58.2072 56.36 58.2072 53.38V47.66H59.3672V53.28C59.3672 55.64 60.6272 57.14 62.6672 57.14C64.8072 57.14 66.2872 55.46 66.2872 53V47.66H67.4472V58H66.4872L66.3672 55.98C65.5672 57.48 64.1272 58.26 62.5072 58.26ZM75.9517 58.26C72.8117 58.26 70.6717 56.04 70.6717 52.82C70.6717 49.62 72.8317 47.4 75.9717 47.4C79.2317 47.4 81.3317 49.8 81.2517 53.3H71.8517C72.0517 55.64 73.6517 57.16 75.9517 57.16C77.6317 57.16 78.9717 56.38 79.6517 55.04L80.9517 55.06C80.1517 57.04 78.2717 58.26 75.9517 58.26ZM71.8517 52.28H80.1117C79.8317 49.94 78.2317 48.5 75.9717 48.5C73.6717 48.5 72.0517 50 71.8517 52.28ZM75.2117 45.94L76.3117 42.92H77.5717L76.3117 45.94H75.2117ZM93.3773 62.26C90.8373 62.26 88.9573 60.92 88.5573 58.82H89.7373C90.0773 60.26 91.4773 61.16 93.3773 61.16C95.7573 61.16 97.2773 59.76 97.2773 57.54V55.86C96.3573 57.12 94.8773 57.88 93.1173 57.88C90.0973 57.88 87.9373 55.68 87.9373 52.64C87.9373 49.6 90.0973 47.4 93.1173 47.4C94.9373 47.4 96.4373 48.2 97.3573 49.52L97.4573 47.66H98.4373V57.58C98.4373 60.36 96.3973 62.26 93.3773 62.26ZM89.0973 52.64C89.0973 55.06 90.7973 56.74 93.2373 56.74C95.6573 56.74 97.3573 55.06 97.3573 52.64C97.3573 50.22 95.6573 48.52 93.2373 48.52C90.7973 48.52 89.0973 50.22 89.0973 52.64ZM102.548 58V47.66H103.528L103.648 49.98C104.348 48.42 105.528 47.66 107.448 47.66H108.308V48.74H107.408C105.188 48.74 103.708 50.1 103.708 53.24V58H102.548ZM115.3 58.26C112.64 58.26 111 56.36 111 53.38V47.66H112.16V53.28C112.16 55.64 113.42 57.14 115.46 57.14C117.6 57.14 119.08 55.46 119.08 53V47.66H120.24V58H119.28L119.16 55.98C118.36 57.48 116.92 58.26 115.3 58.26ZM129.885 58.26C127.985 58.26 126.445 57.4 125.525 56.04V62H124.365V47.66H125.345L125.465 49.72C126.365 48.28 127.945 47.4 129.885 47.4C133.025 47.4 135.185 49.68 135.185 52.82C135.185 55.96 133.025 58.26 129.885 58.26ZM125.485 52.82C125.485 55.36 127.225 57.14 129.765 57.14C132.305 57.14 134.025 55.36 134.025 52.82C134.025 50.3 132.305 48.52 129.765 48.52C127.225 48.52 125.485 50.3 125.485 52.82ZM142.948 58.26C139.748 58.26 137.508 56.02 137.508 52.82C137.508 49.64 139.748 47.4 142.948 47.4C146.128 47.4 148.368 49.64 148.368 52.82C148.368 56.02 146.128 58.26 142.948 58.26ZM138.668 52.82C138.668 55.38 140.408 57.14 142.948 57.14C145.468 57.14 147.208 55.38 147.208 52.82C147.208 50.28 145.468 48.52 142.948 48.52C140.408 48.52 138.668 50.28 138.668 52.82ZM160.405 58.26C157.285 58.26 155.105 55.96 155.105 52.82C155.105 49.68 157.285 47.4 160.405 47.4C162.305 47.4 163.845 48.24 164.765 49.58V43.2H165.925V58H164.965L164.825 55.96C163.925 57.38 162.345 58.26 160.405 58.26ZM156.265 52.82C156.265 55.36 158.005 57.14 160.545 57.14C163.065 57.14 164.805 55.36 164.805 52.82C164.805 50.3 163.065 48.52 160.545 48.52C158.005 48.52 156.265 50.3 156.265 52.82ZM174.428 58.26C171.288 58.26 169.148 56.04 169.148 52.82C169.148 49.62 171.308 47.4 174.448 47.4C177.708 47.4 179.808 49.8 179.728 53.3H170.328C170.528 55.64 172.128 57.16 174.428 57.16C176.108 57.16 177.448 56.38 178.128 55.04L179.428 55.06C178.628 57.04 176.748 58.26 174.428 58.26ZM170.328 52.28H178.588C178.308 49.94 176.708 48.5 174.448 48.5C172.148 48.5 170.528 50 170.328 52.28ZM184.843 62.06V60.96H185.823C187.283 60.96 187.803 60.48 187.803 58.76V47.66H188.963V58.78C188.963 61.06 188.163 62.06 185.883 62.06H184.843ZM187.323 44.72C187.323 44.14 187.743 43.68 188.383 43.68C189.023 43.68 189.443 44.14 189.443 44.72C189.443 45.32 189.023 45.78 188.383 45.78C187.743 45.78 187.323 45.32 187.323 44.72ZM197.616 58.26C194.416 58.26 192.176 56.02 192.176 52.82C192.176 49.64 194.416 47.4 197.616 47.4C200.796 47.4 203.036 49.64 203.036 52.82C203.036 56.02 200.796 58.26 197.616 58.26ZM193.336 52.82C193.336 55.38 195.076 57.14 197.616 57.14C200.136 57.14 201.876 55.38 201.876 52.82C201.876 50.28 200.136 48.52 197.616 48.52C195.076 48.52 193.336 50.28 193.336 52.82ZM196.856 45.94L197.956 42.92H199.196L197.936 45.94H196.856ZM208.829 58L204.209 47.66H205.469L207.269 51.66L209.409 56.48L211.529 51.66L213.349 47.66H214.589L209.969 58H208.829ZM221.049 58.26C217.909 58.26 215.769 56.04 215.769 52.82C215.769 49.62 217.929 47.4 221.069 47.4C224.329 47.4 226.429 49.8 226.349 53.3H216.949C217.149 55.64 218.749 57.16 221.049 57.16C222.729 57.16 224.069 56.38 224.749 55.04L226.049 55.06C225.249 57.04 223.369 58.26 221.049 58.26ZM216.949 52.28H225.209C224.929 49.94 223.329 48.5 221.069 48.5C218.769 48.5 217.149 50 216.949 52.28ZM229.521 58V47.66H230.501L230.601 49.66C231.421 48.18 232.861 47.4 234.521 47.4C237.221 47.4 238.881 49.3 238.881 52.28V58H237.721V52.38C237.721 50 236.441 48.52 234.381 48.52C232.201 48.52 230.681 50.18 230.681 52.64V58H229.521ZM247.163 58.26C244.023 58.26 241.883 56.04 241.883 52.82C241.883 49.62 244.043 47.4 247.183 47.4C250.443 47.4 252.543 49.8 252.463 53.3H243.063C243.263 55.64 244.863 57.16 247.163 57.16C248.843 57.16 250.183 56.38 250.863 55.04L252.163 55.06C251.363 57.04 249.483 58.26 247.163 58.26ZM243.063 52.28H251.323C251.043 49.94 249.443 48.5 247.183 48.5C244.883 48.5 243.263 50 243.063 52.28ZM259.194 58.26C256.574 58.26 254.914 56.94 254.834 54.88H255.974C256.094 56.34 257.234 57.2 259.214 57.2C261.034 57.2 262.134 56.5 262.134 55.36C262.134 54.28 261.154 53.62 258.954 53.24C256.254 52.78 255.034 51.82 255.034 50.24C255.034 48.48 256.534 47.4 258.954 47.4C261.394 47.4 262.934 48.56 263.094 50.54H261.934C261.814 49.18 260.754 48.44 258.954 48.44C257.234 48.44 256.194 49.14 256.194 50.26C256.194 51.28 257.054 51.84 259.354 52.28C261.974 52.78 263.274 53.82 263.274 55.38C263.274 57.12 261.694 58.26 259.194 58.26ZM6.46 87.26C3.34 87.26 1.16 84.96 1.16 81.82C1.16 78.68 3.34 76.4 6.46 76.4C8.36 76.4 9.9 77.24 10.82 78.58V72.2H11.98V87H11.02L10.88 84.96C9.98 86.38 8.4 87.26 6.46 87.26ZM2.32 81.82C2.32 84.36 4.06 86.14 6.6 86.14C9.12 86.14 10.86 84.36 10.86 81.82C10.86 79.3 9.12 77.52 6.6 77.52C4.06 77.52 2.32 79.3 2.32 81.82ZM20.483 87.26C17.343 87.26 15.203 85.04 15.203 81.82C15.203 78.62 17.363 76.4 20.503 76.4C23.763 76.4 25.863 78.8 25.783 82.3H16.383C16.583 84.64 18.183 86.16 20.483 86.16C22.163 86.16 23.503 85.38 24.183 84.04L25.483 84.06C24.683 86.04 22.803 87.26 20.483 87.26ZM16.383 81.28H24.643C24.363 78.94 22.763 77.5 20.503 77.5C18.203 77.5 16.583 79 16.383 81.28ZM34.4745 87.26C32.5345 87.26 30.9545 86.36 30.0545 84.94L29.9345 87H28.9545V72.2H30.1145V78.62C31.0345 77.24 32.5745 76.4 34.4745 76.4C37.6145 76.4 39.7745 78.68 39.7745 81.82C39.7745 84.96 37.6145 87.26 34.4745 87.26ZM30.0745 81.82C30.0745 84.36 31.8145 86.14 34.3545 86.14C36.8945 86.14 38.6145 84.36 38.6145 81.82C38.6145 79.3 36.8945 77.52 34.3545 77.52C31.8145 77.52 30.0745 79.3 30.0745 81.82ZM47.3775 87.26C44.2375 87.26 42.0975 85.04 42.0975 81.82C42.0975 78.62 44.2575 76.4 47.3975 76.4C50.6575 76.4 52.7575 78.8 52.6775 82.3H43.2775C43.4775 84.64 45.0775 86.16 47.3775 86.16C49.0575 86.16 50.3975 85.38 51.0775 84.04L52.3775 84.06C51.5775 86.04 49.6975 87.26 47.3775 87.26ZM43.2775 81.28H51.5375C51.2575 78.94 49.6575 77.5 47.3975 77.5C45.0975 77.5 43.4775 79 43.2775 81.28ZM55.8491 87V76.66H56.8291L56.9291 78.34C57.6491 77.08 58.9091 76.4 60.5091 76.4C62.3091 76.4 63.6891 77.3 64.2891 78.88C64.9891 77.3 66.4091 76.4 68.2291 76.4C70.8291 76.4 72.5091 78.18 72.5091 81.06V87H71.3491V81.24C71.3491 78.94 70.0691 77.52 68.0891 77.52C66.0691 77.52 64.7491 78.98 64.7491 81.32V87H63.5891V81.24C63.5891 78.94 62.3291 77.52 60.3491 77.52C58.3291 77.52 57.0091 78.98 57.0091 81.32V87H55.8491ZM80.9359 87.26C77.7359 87.26 75.4959 85.02 75.4959 81.82C75.4959 78.64 77.7359 76.4 80.9359 76.4C84.1159 76.4 86.3559 78.64 86.3559 81.82C86.3559 85.02 84.1159 87.26 80.9359 87.26ZM76.6559 81.82C76.6559 84.38 78.3959 86.14 80.9359 86.14C83.4559 86.14 85.1959 84.38 85.1959 81.82C85.1959 79.28 83.4559 77.52 80.9359 77.52C78.3959 77.52 76.6559 79.28 76.6559 81.82ZM93.1395 87.26C90.5195 87.26 88.8595 85.94 88.7795 83.88H89.9195C90.0395 85.34 91.1795 86.2 93.1595 86.2C94.9795 86.2 96.0795 85.5 96.0795 84.36C96.0795 83.28 95.0995 82.62 92.8995 82.24C90.1995 81.78 88.9795 80.82 88.9795 79.24C88.9795 77.48 90.4795 76.4 92.8995 76.4C95.3395 76.4 96.8795 77.56 97.0395 79.54H95.8795C95.7595 78.18 94.6995 77.44 92.8995 77.44C91.1795 77.44 90.1395 78.14 90.1395 79.26C90.1395 80.28 90.9995 80.84 93.2995 81.28C95.9195 81.78 97.2195 82.82 97.2195 84.38C97.2195 86.12 95.6395 87.26 93.1395 87.26ZM109.409 87.26C106.269 87.26 104.129 85.04 104.129 81.82C104.129 78.62 106.289 76.4 109.429 76.4C112.689 76.4 114.789 78.8 114.709 82.3H105.309C105.509 84.64 107.109 86.16 109.409 86.16C111.089 86.16 112.429 85.38 113.109 84.04L114.409 84.06C113.609 86.04 111.729 87.26 109.409 87.26ZM105.309 81.28H113.569C113.289 78.94 111.689 77.5 109.429 77.5C107.129 77.5 105.509 79 105.309 81.28ZM117.88 87V76.66H118.86L118.96 78.66C119.78 77.18 121.22 76.4 122.88 76.4C125.58 76.4 127.24 78.3 127.24 81.28V87H126.08V81.38C126.08 79 124.8 77.52 122.74 77.52C120.56 77.52 119.04 79.18 119.04 81.64V87H117.88ZM131.927 75.46C131.927 73.1 133.087 71.94 135.387 71.94H137.007V73.04H135.487C133.807 73.04 133.087 73.78 133.087 75.54V76.66H136.907V77.72H133.087V87H131.927V77.72H129.567V76.66H131.927V75.46ZM143.475 87.26C140.275 87.26 138.035 85.02 138.035 81.82C138.035 78.64 140.275 76.4 143.475 76.4C146.655 76.4 148.895 78.64 148.895 81.82C148.895 85.02 146.655 87.26 143.475 87.26ZM139.195 81.82C139.195 84.38 140.935 86.14 143.475 86.14C145.995 86.14 147.735 84.38 147.735 81.82C147.735 79.28 145.995 77.52 143.475 77.52C140.935 77.52 139.195 79.28 139.195 81.82ZM156.499 87.26C153.399 87.26 151.219 85 151.219 81.82C151.219 78.64 153.399 76.4 156.499 76.4C158.959 76.4 160.979 77.86 161.579 80.1H160.399C159.719 78.46 158.279 77.52 156.499 77.52C154.059 77.52 152.379 79.28 152.379 81.82C152.379 84.38 154.059 86.14 156.499 86.14C158.399 86.14 159.879 85.08 160.459 83.38H161.679C160.979 85.8 159.039 87.26 156.499 87.26ZM167.937 87.16C165.537 87.16 164.037 85.98 164.037 84.08C164.037 82.24 165.437 81.08 167.557 81.08H172.117V80.34C172.117 78.62 170.857 77.48 168.937 77.48C167.377 77.48 166.157 78.28 165.737 79.52H164.557C165.057 77.6 166.717 76.4 168.917 76.4C171.497 76.4 173.277 77.98 173.277 80.28V87H172.317L172.197 85.22C171.297 86.46 169.777 87.16 167.937 87.16ZM165.197 84.06C165.197 85.32 166.257 86.12 167.977 86.12C170.377 86.12 172.137 84.62 172.137 82.54V82.1H167.597C166.177 82.1 165.197 82.88 165.197 84.06ZM177.177 87V76.66H178.157L178.277 78.98C178.977 77.42 180.157 76.66 182.077 76.66H182.937V77.74H182.037C179.817 77.74 178.337 79.1 178.337 82.24V87H177.177ZM185.849 87V76.66H186.829L186.929 78.66C187.749 77.18 189.189 76.4 190.849 76.4C193.549 76.4 195.209 78.3 195.209 81.28V87H194.049V81.38C194.049 79 192.769 77.52 190.709 77.52C188.529 77.52 187.009 79.18 187.009 81.64V87H185.849ZM203.651 87.26C200.451 87.26 198.211 85.02 198.211 81.82C198.211 78.64 200.451 76.4 203.651 76.4C206.831 76.4 209.071 78.64 209.071 81.82C209.071 85.02 206.831 87.26 203.651 87.26ZM199.371 81.82C199.371 84.38 201.111 86.14 203.651 86.14C206.171 86.14 207.911 84.38 207.911 81.82C207.911 79.28 206.171 77.52 203.651 77.52C201.111 77.52 199.371 79.28 199.371 81.82ZM215.854 87.26C213.234 87.26 211.574 85.94 211.494 83.88H212.634C212.754 85.34 213.894 86.2 215.874 86.2C217.694 86.2 218.794 85.5 218.794 84.36C218.794 83.28 217.814 82.62 215.614 82.24C212.914 81.78 211.694 80.82 211.694 79.24C211.694 77.48 213.194 76.4 215.614 76.4C218.054 76.4 219.594 77.56 219.754 79.54H218.594C218.474 78.18 217.414 77.44 215.614 77.44C213.894 77.44 212.854 78.14 212.854 79.26C212.854 80.28 213.714 80.84 216.014 81.28C218.634 81.78 219.934 82.82 219.934 84.38C219.934 86.12 218.354 87.26 215.854 87.26ZM225.684 82.64C225.684 81.26 226.244 80.38 227.744 79.46C229.224 78.52 229.744 77.76 229.744 76.56C229.744 74.9 228.584 73.9 226.604 73.9C224.644 73.9 223.364 74.92 223.264 76.64H222.084C222.224 74.22 223.924 72.74 226.564 72.74C229.184 72.74 230.924 74.24 230.924 76.52C230.924 78.04 230.164 79.24 228.384 80.36C227.184 81.1 226.864 81.64 226.864 82.72V83.16H225.684V82.64ZM225.204 86.08C225.204 85.46 225.644 85.04 226.284 85.04C226.904 85.04 227.344 85.46 227.344 86.08C227.344 86.7 226.904 87.12 226.284 87.12C225.644 87.12 225.204 86.7 225.204 86.08Z" fill="black"/>
</svg>
